M48
; DRILL file {KiCad (5.1.5-0-10_14)} date Thursday, April 02, 2020 at 11:07:01 PM
; FORMAT={-:-/ absolute / inch / decimal}
; #@! TF.CreationDate,2020-04-02T23:07:01-05:00
; #@! TF.GenerationSoftware,Kicad,Pcbnew,(5.1.5-0-10_14)
; #@! TF.FileFunction,Plated,1,2,PTH
FMAT,2
INCH
T1C0.0157
T2C0.0197
T3C0.0236
T4C0.0335
T5C0.0354
T6C0.0394
T7C0.0984
%
G90
G05
T1
X4.775Y-2.84
X4.775Y-3.51
X4.825Y-3.5096
X5.025Y-3.475
X5.075Y-3.425
X5.3472Y-2.9535
X5.375Y-2.925
X5.465Y-3.4
X5.4965Y-2.8779
X5.525Y-2.85
X5.5943Y-3.5315
X5.6Y-3.1404
X5.6846Y-3.265
X5.6846Y-3.365
X5.9404Y-3.525
X6.075Y-2.8156
X6.6106Y-3.6626
X6.63Y-2.62
X6.63Y-2.785
X6.63Y-3.55
T2
X7.3512Y-3.7
X7.3728Y-3.6478
X7.3728Y-3.7522
X7.425Y-3.6262
X7.425Y-3.7738
X7.4772Y-3.6478
X7.4772Y-3.7522
X7.4988Y-3.7
X6.3012Y-2.65
X6.3228Y-2.5978
X6.3228Y-2.7022
X6.375Y-2.5762
X6.375Y-2.7238
X6.4272Y-2.5978
X6.4272Y-2.7022
X6.4488Y-2.65
X6.3012Y-3.7
X6.3228Y-3.6478
X6.3228Y-3.7522
X6.375Y-3.6262
X6.375Y-3.7738
X6.4272Y-3.6478
X6.4272Y-3.7522
X6.4488Y-3.7
T4
X7.6374Y-3.5016
X7.6374Y-3.6984
T5
X6.8Y-3.625
X6.9Y-3.625
X6.8Y-2.725
X6.9Y-2.725
X6.575Y-3.235
X6.575Y-3.335
X6.575Y-3.435
X6.575Y-2.915
X6.575Y-3.015
X6.575Y-3.115
X7.15Y-3.275
X7.15Y-3.375
X7.1Y-3.625
X7.2Y-3.625
X7.15Y-2.975
X7.15Y-3.075
X6.85Y-2.975
X6.85Y-3.075
X7.1Y-2.725
X7.2Y-2.725
X6.85Y-3.275
X6.85Y-3.375
T6
X4.775Y-2.675
X4.875Y-2.675
X4.975Y-2.675
X5.075Y-2.675
X5.175Y-2.675
X5.275Y-2.675
X5.375Y-2.675
X5.475Y-2.675
X5.575Y-2.675
X5.675Y-2.675
X5.775Y-2.675
X5.875Y-2.675
X5.975Y-2.675
X6.075Y-2.675
X6.175Y-2.675
X4.775Y-3.675
X4.875Y-3.675
X4.975Y-3.675
X5.075Y-3.675
X5.175Y-3.675
X5.275Y-3.675
X5.375Y-3.675
X5.475Y-3.675
X5.575Y-3.675
X5.675Y-3.675
X5.775Y-3.675
X5.875Y-3.675
X5.975Y-3.675
X6.075Y-3.675
X6.175Y-3.675
X6.075Y-2.925
X6.075Y-3.025
X6.075Y-3.125
X6.075Y-3.225
X6.075Y-3.325
X6.075Y-3.425
X7.625Y-3.05
X7.625Y-3.15
X7.625Y-3.25
X7.625Y-3.35
X7.725Y-3.05
X7.725Y-3.15
X7.725Y-3.25
X7.725Y-3.35
T7
X7.425Y-3.7
X6.375Y-2.65
X6.375Y-3.7
T3
G00X7.7299Y-3.4622
M15
G01X7.7575Y-3.4622
M16
G05
G00X7.7575Y-3.7378
M15
G01X7.7299Y-3.7378
M16
G05
T6
G00X7.375Y-2.8394
M15
G01X7.375Y-2.7606
M16
G05
G00X7.5325Y-2.615
M15
G01X7.4537Y-2.615
M16
G05
G00X7.6112Y-2.8394
M15
G01X7.6112Y-2.7606
M16
G05
T0
M30
