G04 #@! TF.GenerationSoftware,KiCad,Pcbnew,(5.1.5-0-10_14)*
G04 #@! TF.CreationDate,2020-04-08T23:37:10-05:00*
G04 #@! TF.ProjectId,kbxIrBlaster,6b627849-7242-46c6-9173-7465722e6b69,rev?*
G04 #@! TF.SameCoordinates,Original*
G04 #@! TF.FileFunction,Legend,Bot*
G04 #@! TF.FilePolarity,Positive*
%FSLAX46Y46*%
G04 Gerber Fmt 4.6, Leading zero omitted, Abs format (unit mm)*
G04 Created by KiCad (PCBNEW (5.1.5-0-10_14)) date 2020-04-08 23:37:10*
%MOMM*%
%LPD*%
G04 APERTURE LIST*
%ADD10C,0.120000*%
%ADD11C,0.150000*%
%ADD12C,0.250000*%
%ADD13C,0.500000*%
%ADD14C,0.200000*%
G04 APERTURE END LIST*
D10*
X157861000Y-74295000D02*
X161290000Y-73025000D01*
X157861000Y-74295000D02*
X157226000Y-74295000D01*
X157861000Y-76835000D02*
X157861000Y-74295000D01*
X157861000Y-76835000D02*
X157226000Y-76835000D01*
X157861000Y-79375000D02*
X157861000Y-76835000D01*
X157226000Y-79375000D02*
X157861000Y-79375000D01*
D11*
X163140000Y-71005000D02*
X163140000Y-71471666D01*
X163306666Y-70738333D02*
X163473333Y-71238333D01*
X163040000Y-71238333D01*
X162840000Y-70771666D02*
X162406666Y-70771666D01*
X162640000Y-71038333D01*
X162540000Y-71038333D01*
X162473333Y-71071666D01*
X162440000Y-71105000D01*
X162406666Y-71171666D01*
X162406666Y-71338333D01*
X162440000Y-71405000D01*
X162473333Y-71438333D01*
X162540000Y-71471666D01*
X162740000Y-71471666D01*
X162806666Y-71438333D01*
X162840000Y-71405000D01*
X162173333Y-70771666D02*
X161740000Y-70771666D01*
X161973333Y-71038333D01*
X161873333Y-71038333D01*
X161806666Y-71071666D01*
X161773333Y-71105000D01*
X161740000Y-71171666D01*
X161740000Y-71338333D01*
X161773333Y-71405000D01*
X161806666Y-71438333D01*
X161873333Y-71471666D01*
X162073333Y-71471666D01*
X162140000Y-71438333D01*
X162173333Y-71405000D01*
X160906666Y-71471666D02*
X160906666Y-70771666D01*
X160673333Y-71271666D01*
X160440000Y-70771666D01*
X160440000Y-71471666D01*
X160106666Y-71471666D02*
X160106666Y-70771666D01*
X160106666Y-71105000D02*
X159706666Y-71105000D01*
X159706666Y-71471666D02*
X159706666Y-70771666D01*
X159440000Y-71005000D02*
X159073333Y-71005000D01*
X159440000Y-71471666D01*
X159073333Y-71471666D01*
X164173333Y-71971666D02*
X163773333Y-71971666D01*
X163973333Y-72671666D02*
X163973333Y-71971666D01*
X163540000Y-72671666D02*
X163540000Y-72205000D01*
X163540000Y-72338333D02*
X163506666Y-72271666D01*
X163473333Y-72238333D01*
X163406666Y-72205000D01*
X163340000Y-72205000D01*
X162806666Y-72671666D02*
X162806666Y-72305000D01*
X162840000Y-72238333D01*
X162906666Y-72205000D01*
X163040000Y-72205000D01*
X163106666Y-72238333D01*
X162806666Y-72638333D02*
X162873333Y-72671666D01*
X163040000Y-72671666D01*
X163106666Y-72638333D01*
X163140000Y-72571666D01*
X163140000Y-72505000D01*
X163106666Y-72438333D01*
X163040000Y-72405000D01*
X162873333Y-72405000D01*
X162806666Y-72371666D01*
X162473333Y-72205000D02*
X162473333Y-72671666D01*
X162473333Y-72271666D02*
X162440000Y-72238333D01*
X162373333Y-72205000D01*
X162273333Y-72205000D01*
X162206666Y-72238333D01*
X162173333Y-72305000D01*
X162173333Y-72671666D01*
X161873333Y-72638333D02*
X161806666Y-72671666D01*
X161673333Y-72671666D01*
X161606666Y-72638333D01*
X161573333Y-72571666D01*
X161573333Y-72538333D01*
X161606666Y-72471666D01*
X161673333Y-72438333D01*
X161773333Y-72438333D01*
X161840000Y-72405000D01*
X161873333Y-72338333D01*
X161873333Y-72305000D01*
X161840000Y-72238333D01*
X161773333Y-72205000D01*
X161673333Y-72205000D01*
X161606666Y-72238333D01*
X161273333Y-72671666D02*
X161273333Y-72205000D01*
X161273333Y-72271666D02*
X161240000Y-72238333D01*
X161173333Y-72205000D01*
X161073333Y-72205000D01*
X161006666Y-72238333D01*
X160973333Y-72305000D01*
X160973333Y-72671666D01*
X160973333Y-72305000D02*
X160940000Y-72238333D01*
X160873333Y-72205000D01*
X160773333Y-72205000D01*
X160706666Y-72238333D01*
X160673333Y-72305000D01*
X160673333Y-72671666D01*
X160340000Y-72671666D02*
X160340000Y-72205000D01*
X160340000Y-71971666D02*
X160373333Y-72005000D01*
X160340000Y-72038333D01*
X160306666Y-72005000D01*
X160340000Y-71971666D01*
X160340000Y-72038333D01*
X160106666Y-72205000D02*
X159840000Y-72205000D01*
X160006666Y-71971666D02*
X160006666Y-72571666D01*
X159973333Y-72638333D01*
X159906666Y-72671666D01*
X159840000Y-72671666D01*
X159706666Y-72205000D02*
X159440000Y-72205000D01*
X159606666Y-71971666D02*
X159606666Y-72571666D01*
X159573333Y-72638333D01*
X159506666Y-72671666D01*
X159440000Y-72671666D01*
X158940000Y-72638333D02*
X159006666Y-72671666D01*
X159140000Y-72671666D01*
X159206666Y-72638333D01*
X159240000Y-72571666D01*
X159240000Y-72305000D01*
X159206666Y-72238333D01*
X159140000Y-72205000D01*
X159006666Y-72205000D01*
X158940000Y-72238333D01*
X158906666Y-72305000D01*
X158906666Y-72371666D01*
X159240000Y-72438333D01*
X158606666Y-72671666D02*
X158606666Y-72205000D01*
X158606666Y-72338333D02*
X158573333Y-72271666D01*
X158540000Y-72238333D01*
X158473333Y-72205000D01*
X158406666Y-72205000D01*
D10*
X193675000Y-84074000D02*
X193675000Y-83566000D01*
X193675000Y-81534000D02*
X193675000Y-81026000D01*
X193675000Y-78994000D02*
X193675000Y-78486000D01*
X196215000Y-74930000D02*
X196215000Y-76454000D01*
X188595000Y-74930000D02*
X196215000Y-74930000D01*
X188595000Y-77089000D02*
X188595000Y-74930000D01*
X190500000Y-75565000D02*
X190500000Y-79121000D01*
X193675000Y-75565000D02*
X190500000Y-75565000D01*
X193675000Y-76454000D02*
X193675000Y-75565000D01*
X196215000Y-78994000D02*
X196215000Y-78486000D01*
X196215000Y-81534000D02*
X196215000Y-81026000D01*
X196215000Y-84074000D02*
X196215000Y-83566000D01*
D11*
X191620000Y-77603333D02*
X192086666Y-77603333D01*
X191353333Y-77436666D02*
X191853333Y-77270000D01*
X191853333Y-77703333D01*
X156080666Y-76251666D02*
X156580666Y-76251666D01*
X156680666Y-76218333D01*
X156747333Y-76151666D01*
X156780666Y-76051666D01*
X156780666Y-75985000D01*
X156780666Y-76585000D02*
X156080666Y-76585000D01*
X156080666Y-76851666D01*
X156114000Y-76918333D01*
X156147333Y-76951666D01*
X156214000Y-76985000D01*
X156314000Y-76985000D01*
X156380666Y-76951666D01*
X156414000Y-76918333D01*
X156447333Y-76851666D01*
X156447333Y-76585000D01*
X156080666Y-77585000D02*
X156080666Y-77451666D01*
X156114000Y-77385000D01*
X156147333Y-77351666D01*
X156247333Y-77285000D01*
X156380666Y-77251666D01*
X156647333Y-77251666D01*
X156714000Y-77285000D01*
X156747333Y-77318333D01*
X156780666Y-77385000D01*
X156780666Y-77518333D01*
X156747333Y-77585000D01*
X156714000Y-77618333D01*
X156647333Y-77651666D01*
X156480666Y-77651666D01*
X156414000Y-77618333D01*
X156380666Y-77585000D01*
X156347333Y-77518333D01*
X156347333Y-77385000D01*
X156380666Y-77318333D01*
X156414000Y-77285000D01*
X156480666Y-77251666D01*
X191486666Y-86624166D02*
X190786666Y-86624166D01*
X191286666Y-86857500D01*
X190786666Y-87090833D01*
X191486666Y-87090833D01*
X191486666Y-87424166D02*
X191020000Y-87424166D01*
X190786666Y-87424166D02*
X190820000Y-87390833D01*
X190853333Y-87424166D01*
X190820000Y-87457500D01*
X190786666Y-87424166D01*
X190853333Y-87424166D01*
X191453333Y-88057500D02*
X191486666Y-87990833D01*
X191486666Y-87857500D01*
X191453333Y-87790833D01*
X191420000Y-87757500D01*
X191353333Y-87724166D01*
X191153333Y-87724166D01*
X191086666Y-87757500D01*
X191053333Y-87790833D01*
X191020000Y-87857500D01*
X191020000Y-87990833D01*
X191053333Y-88057500D01*
X191486666Y-88357500D02*
X191020000Y-88357500D01*
X191153333Y-88357500D02*
X191086666Y-88390833D01*
X191053333Y-88424166D01*
X191020000Y-88490833D01*
X191020000Y-88557500D01*
X191486666Y-88890833D02*
X191453333Y-88824166D01*
X191420000Y-88790833D01*
X191353333Y-88757500D01*
X191153333Y-88757500D01*
X191086666Y-88790833D01*
X191053333Y-88824166D01*
X191020000Y-88890833D01*
X191020000Y-88990833D01*
X191053333Y-89057500D01*
X191086666Y-89090833D01*
X191153333Y-89124166D01*
X191353333Y-89124166D01*
X191420000Y-89090833D01*
X191453333Y-89057500D01*
X191486666Y-88990833D01*
X191486666Y-88890833D01*
X191220000Y-89424166D02*
X191220000Y-89957500D01*
X190786666Y-90290833D02*
X191353333Y-90290833D01*
X191420000Y-90324166D01*
X191453333Y-90357500D01*
X191486666Y-90424166D01*
X191486666Y-90557500D01*
X191453333Y-90624166D01*
X191420000Y-90657500D01*
X191353333Y-90690833D01*
X190786666Y-90690833D01*
X191453333Y-90990833D02*
X191486666Y-91090833D01*
X191486666Y-91257500D01*
X191453333Y-91324166D01*
X191420000Y-91357500D01*
X191353333Y-91390833D01*
X191286666Y-91390833D01*
X191220000Y-91357500D01*
X191186666Y-91324166D01*
X191153333Y-91257500D01*
X191120000Y-91124166D01*
X191086666Y-91057500D01*
X191053333Y-91024166D01*
X190986666Y-90990833D01*
X190920000Y-90990833D01*
X190853333Y-91024166D01*
X190820000Y-91057500D01*
X190786666Y-91124166D01*
X190786666Y-91290833D01*
X190820000Y-91390833D01*
X191120000Y-91924166D02*
X191153333Y-92024166D01*
X191186666Y-92057500D01*
X191253333Y-92090833D01*
X191353333Y-92090833D01*
X191420000Y-92057500D01*
X191453333Y-92024166D01*
X191486666Y-91957500D01*
X191486666Y-91690833D01*
X190786666Y-91690833D01*
X190786666Y-91924166D01*
X190820000Y-91990833D01*
X190853333Y-92024166D01*
X190920000Y-92057500D01*
X190986666Y-92057500D01*
X191053333Y-92024166D01*
X191086666Y-91990833D01*
X191120000Y-91924166D01*
X191120000Y-91690833D01*
X192686666Y-86624166D02*
X191986666Y-86624166D01*
X191986666Y-86890833D01*
X192020000Y-86957500D01*
X192053333Y-86990833D01*
X192120000Y-87024166D01*
X192220000Y-87024166D01*
X192286666Y-86990833D01*
X192320000Y-86957500D01*
X192353333Y-86890833D01*
X192353333Y-86624166D01*
X192686666Y-87424166D02*
X192653333Y-87357500D01*
X192620000Y-87324166D01*
X192553333Y-87290833D01*
X192353333Y-87290833D01*
X192286666Y-87324166D01*
X192253333Y-87357500D01*
X192220000Y-87424166D01*
X192220000Y-87524166D01*
X192253333Y-87590833D01*
X192286666Y-87624166D01*
X192353333Y-87657500D01*
X192553333Y-87657500D01*
X192620000Y-87624166D01*
X192653333Y-87590833D01*
X192686666Y-87524166D01*
X192686666Y-87424166D01*
X192220000Y-87890833D02*
X192686666Y-88024166D01*
X192353333Y-88157500D01*
X192686666Y-88290833D01*
X192220000Y-88424166D01*
X192653333Y-88957500D02*
X192686666Y-88890833D01*
X192686666Y-88757500D01*
X192653333Y-88690833D01*
X192586666Y-88657500D01*
X192320000Y-88657500D01*
X192253333Y-88690833D01*
X192220000Y-88757500D01*
X192220000Y-88890833D01*
X192253333Y-88957500D01*
X192320000Y-88990833D01*
X192386666Y-88990833D01*
X192453333Y-88657500D01*
X192686666Y-89290833D02*
X192220000Y-89290833D01*
X192353333Y-89290833D02*
X192286666Y-89324166D01*
X192253333Y-89357500D01*
X192220000Y-89424166D01*
X192220000Y-89490833D01*
X192686666Y-90257500D02*
X192220000Y-90257500D01*
X191986666Y-90257500D02*
X192020000Y-90224166D01*
X192053333Y-90257500D01*
X192020000Y-90290833D01*
X191986666Y-90257500D01*
X192053333Y-90257500D01*
X192220000Y-90590833D02*
X192686666Y-90590833D01*
X192286666Y-90590833D02*
X192253333Y-90624166D01*
X192220000Y-90690833D01*
X192220000Y-90790833D01*
X192253333Y-90857500D01*
X192320000Y-90890833D01*
X192686666Y-90890833D01*
X192220000Y-91224166D02*
X192920000Y-91224166D01*
X192253333Y-91224166D02*
X192220000Y-91290833D01*
X192220000Y-91424166D01*
X192253333Y-91490833D01*
X192286666Y-91524166D01*
X192353333Y-91557500D01*
X192553333Y-91557500D01*
X192620000Y-91524166D01*
X192653333Y-91490833D01*
X192686666Y-91424166D01*
X192686666Y-91290833D01*
X192653333Y-91224166D01*
X192220000Y-92157500D02*
X192686666Y-92157500D01*
X192220000Y-91857500D02*
X192586666Y-91857500D01*
X192653333Y-91890833D01*
X192686666Y-91957500D01*
X192686666Y-92057500D01*
X192653333Y-92124166D01*
X192620000Y-92157500D01*
X192220000Y-92390833D02*
X192220000Y-92657500D01*
X191986666Y-92490833D02*
X192586666Y-92490833D01*
X192653333Y-92524166D01*
X192686666Y-92590833D01*
X192686666Y-92657500D01*
X192686666Y-93524166D02*
X192653333Y-93457500D01*
X192620000Y-93424166D01*
X192553333Y-93390833D01*
X192353333Y-93390833D01*
X192286666Y-93424166D01*
X192253333Y-93457500D01*
X192220000Y-93524166D01*
X192220000Y-93624166D01*
X192253333Y-93690833D01*
X192286666Y-93724166D01*
X192353333Y-93757500D01*
X192553333Y-93757500D01*
X192620000Y-93724166D01*
X192653333Y-93690833D01*
X192686666Y-93624166D01*
X192686666Y-93524166D01*
X192220000Y-94057500D02*
X192686666Y-94057500D01*
X192286666Y-94057500D02*
X192253333Y-94090833D01*
X192220000Y-94157500D01*
X192220000Y-94257500D01*
X192253333Y-94324166D01*
X192320000Y-94357500D01*
X192686666Y-94357500D01*
X192686666Y-94790833D02*
X192653333Y-94724166D01*
X192586666Y-94690833D01*
X191986666Y-94690833D01*
X192220000Y-94990833D02*
X192686666Y-95157500D01*
X192220000Y-95324166D02*
X192686666Y-95157500D01*
X192853333Y-95090833D01*
X192886666Y-95057500D01*
X192920000Y-94990833D01*
X192086666Y-85290000D02*
X192086666Y-84890000D01*
X192086666Y-85090000D02*
X191386666Y-85090000D01*
X191486666Y-85023333D01*
X191553333Y-84956666D01*
X191586666Y-84890000D01*
X191453333Y-82350000D02*
X191420000Y-82383333D01*
X191386666Y-82450000D01*
X191386666Y-82616666D01*
X191420000Y-82683333D01*
X191453333Y-82716666D01*
X191520000Y-82750000D01*
X191586666Y-82750000D01*
X191686666Y-82716666D01*
X192086666Y-82316666D01*
X192086666Y-82750000D01*
X191386666Y-79776666D02*
X191386666Y-80210000D01*
X191653333Y-79976666D01*
X191653333Y-80076666D01*
X191686666Y-80143333D01*
X191720000Y-80176666D01*
X191786666Y-80210000D01*
X191953333Y-80210000D01*
X192020000Y-80176666D01*
X192053333Y-80143333D01*
X192086666Y-80076666D01*
X192086666Y-79876666D01*
X192053333Y-79810000D01*
X192020000Y-79776666D01*
X140861666Y-70114166D02*
X140161666Y-70114166D01*
X140861666Y-70847500D02*
X140528333Y-70614166D01*
X140861666Y-70447500D02*
X140161666Y-70447500D01*
X140161666Y-70714166D01*
X140195000Y-70780833D01*
X140228333Y-70814166D01*
X140295000Y-70847500D01*
X140395000Y-70847500D01*
X140461666Y-70814166D01*
X140495000Y-70780833D01*
X140528333Y-70714166D01*
X140528333Y-70447500D01*
X140861666Y-72080833D02*
X140528333Y-71847500D01*
X140861666Y-71680833D02*
X140161666Y-71680833D01*
X140161666Y-71947500D01*
X140195000Y-72014166D01*
X140228333Y-72047500D01*
X140295000Y-72080833D01*
X140395000Y-72080833D01*
X140461666Y-72047500D01*
X140495000Y-72014166D01*
X140528333Y-71947500D01*
X140528333Y-71680833D01*
X140828333Y-72647500D02*
X140861666Y-72580833D01*
X140861666Y-72447500D01*
X140828333Y-72380833D01*
X140761666Y-72347500D01*
X140495000Y-72347500D01*
X140428333Y-72380833D01*
X140395000Y-72447500D01*
X140395000Y-72580833D01*
X140428333Y-72647500D01*
X140495000Y-72680833D01*
X140561666Y-72680833D01*
X140628333Y-72347500D01*
X140828333Y-73280833D02*
X140861666Y-73214166D01*
X140861666Y-73080833D01*
X140828333Y-73014166D01*
X140795000Y-72980833D01*
X140728333Y-72947500D01*
X140528333Y-72947500D01*
X140461666Y-72980833D01*
X140428333Y-73014166D01*
X140395000Y-73080833D01*
X140395000Y-73214166D01*
X140428333Y-73280833D01*
X140828333Y-73847500D02*
X140861666Y-73780833D01*
X140861666Y-73647500D01*
X140828333Y-73580833D01*
X140761666Y-73547500D01*
X140495000Y-73547500D01*
X140428333Y-73580833D01*
X140395000Y-73647500D01*
X140395000Y-73780833D01*
X140428333Y-73847500D01*
X140495000Y-73880833D01*
X140561666Y-73880833D01*
X140628333Y-73547500D01*
X140861666Y-74180833D02*
X140395000Y-74180833D01*
X140161666Y-74180833D02*
X140195000Y-74147500D01*
X140228333Y-74180833D01*
X140195000Y-74214166D01*
X140161666Y-74180833D01*
X140228333Y-74180833D01*
X140395000Y-74447500D02*
X140861666Y-74614166D01*
X140395000Y-74780833D01*
X140828333Y-75314166D02*
X140861666Y-75247500D01*
X140861666Y-75114166D01*
X140828333Y-75047500D01*
X140761666Y-75014166D01*
X140495000Y-75014166D01*
X140428333Y-75047500D01*
X140395000Y-75114166D01*
X140395000Y-75247500D01*
X140428333Y-75314166D01*
X140495000Y-75347500D01*
X140561666Y-75347500D01*
X140628333Y-75014166D01*
X140861666Y-75647500D02*
X140395000Y-75647500D01*
X140528333Y-75647500D02*
X140461666Y-75680833D01*
X140428333Y-75714166D01*
X140395000Y-75780833D01*
X140395000Y-75847500D01*
X140861666Y-76614166D02*
X140161666Y-76614166D01*
X140161666Y-76780833D01*
X140195000Y-76880833D01*
X140261666Y-76947500D01*
X140328333Y-76980833D01*
X140461666Y-77014166D01*
X140561666Y-77014166D01*
X140695000Y-76980833D01*
X140761666Y-76947500D01*
X140828333Y-76880833D01*
X140861666Y-76780833D01*
X140861666Y-76614166D01*
X140861666Y-77314166D02*
X140395000Y-77314166D01*
X140161666Y-77314166D02*
X140195000Y-77280833D01*
X140228333Y-77314166D01*
X140195000Y-77347500D01*
X140161666Y-77314166D01*
X140228333Y-77314166D01*
X140828333Y-77614166D02*
X140861666Y-77680833D01*
X140861666Y-77814166D01*
X140828333Y-77880833D01*
X140761666Y-77914166D01*
X140728333Y-77914166D01*
X140661666Y-77880833D01*
X140628333Y-77814166D01*
X140628333Y-77714166D01*
X140595000Y-77647500D01*
X140528333Y-77614166D01*
X140495000Y-77614166D01*
X140428333Y-77647500D01*
X140395000Y-77714166D01*
X140395000Y-77814166D01*
X140428333Y-77880833D01*
X140828333Y-78514166D02*
X140861666Y-78447500D01*
X140861666Y-78314166D01*
X140828333Y-78247500D01*
X140795000Y-78214166D01*
X140728333Y-78180833D01*
X140528333Y-78180833D01*
X140461666Y-78214166D01*
X140428333Y-78247500D01*
X140395000Y-78314166D01*
X140395000Y-78447500D01*
X140428333Y-78514166D01*
X140861666Y-78914166D02*
X140828333Y-78847500D01*
X140795000Y-78814166D01*
X140728333Y-78780833D01*
X140528333Y-78780833D01*
X140461666Y-78814166D01*
X140428333Y-78847500D01*
X140395000Y-78914166D01*
X140395000Y-79014166D01*
X140428333Y-79080833D01*
X140461666Y-79114166D01*
X140528333Y-79147500D01*
X140728333Y-79147500D01*
X140795000Y-79114166D01*
X140828333Y-79080833D01*
X140861666Y-79014166D01*
X140861666Y-78914166D01*
X140395000Y-79447500D02*
X140861666Y-79447500D01*
X140461666Y-79447500D02*
X140428333Y-79480833D01*
X140395000Y-79547500D01*
X140395000Y-79647500D01*
X140428333Y-79714166D01*
X140495000Y-79747500D01*
X140861666Y-79747500D01*
X140395000Y-80080833D02*
X140861666Y-80080833D01*
X140461666Y-80080833D02*
X140428333Y-80114166D01*
X140395000Y-80180833D01*
X140395000Y-80280833D01*
X140428333Y-80347500D01*
X140495000Y-80380833D01*
X140861666Y-80380833D01*
X140828333Y-80980833D02*
X140861666Y-80914166D01*
X140861666Y-80780833D01*
X140828333Y-80714166D01*
X140761666Y-80680833D01*
X140495000Y-80680833D01*
X140428333Y-80714166D01*
X140395000Y-80780833D01*
X140395000Y-80914166D01*
X140428333Y-80980833D01*
X140495000Y-81014166D01*
X140561666Y-81014166D01*
X140628333Y-80680833D01*
X140828333Y-81614166D02*
X140861666Y-81547500D01*
X140861666Y-81414166D01*
X140828333Y-81347500D01*
X140795000Y-81314166D01*
X140728333Y-81280833D01*
X140528333Y-81280833D01*
X140461666Y-81314166D01*
X140428333Y-81347500D01*
X140395000Y-81414166D01*
X140395000Y-81547500D01*
X140428333Y-81614166D01*
X140395000Y-81814166D02*
X140395000Y-82080833D01*
X140161666Y-81914166D02*
X140761666Y-81914166D01*
X140828333Y-81947500D01*
X140861666Y-82014166D01*
X140861666Y-82080833D01*
X140828333Y-82280833D02*
X140861666Y-82347500D01*
X140861666Y-82480833D01*
X140828333Y-82547500D01*
X140761666Y-82580833D01*
X140728333Y-82580833D01*
X140661666Y-82547500D01*
X140628333Y-82480833D01*
X140628333Y-82380833D01*
X140595000Y-82314166D01*
X140528333Y-82280833D01*
X140495000Y-82280833D01*
X140428333Y-82314166D01*
X140395000Y-82380833D01*
X140395000Y-82480833D01*
X140428333Y-82547500D01*
X140795000Y-82880833D02*
X140828333Y-82914166D01*
X140861666Y-82880833D01*
X140828333Y-82847500D01*
X140795000Y-82880833D01*
X140861666Y-82880833D01*
X140428333Y-82880833D02*
X140461666Y-82914166D01*
X140495000Y-82880833D01*
X140461666Y-82847500D01*
X140428333Y-82880833D01*
X140495000Y-82880833D01*
X141361666Y-71380833D02*
X141861666Y-71380833D01*
X141961666Y-71347500D01*
X142028333Y-71280833D01*
X142061666Y-71180833D01*
X142061666Y-71114166D01*
X142061666Y-71714166D02*
X141361666Y-71714166D01*
X141361666Y-71980833D01*
X141395000Y-72047500D01*
X141428333Y-72080833D01*
X141495000Y-72114166D01*
X141595000Y-72114166D01*
X141661666Y-72080833D01*
X141695000Y-72047500D01*
X141728333Y-71980833D01*
X141728333Y-71714166D01*
X142061666Y-72780833D02*
X142061666Y-72380833D01*
X142061666Y-72580833D02*
X141361666Y-72580833D01*
X141461666Y-72514166D01*
X141528333Y-72447500D01*
X141561666Y-72380833D01*
X141695000Y-73614166D02*
X141695000Y-74147500D01*
X141895000Y-74147500D02*
X141895000Y-73614166D01*
X141361666Y-75014166D02*
X141928333Y-75014166D01*
X141995000Y-75047500D01*
X142028333Y-75080833D01*
X142061666Y-75147500D01*
X142061666Y-75280833D01*
X142028333Y-75347500D01*
X141995000Y-75380833D01*
X141928333Y-75414166D01*
X141361666Y-75414166D01*
X142061666Y-76114166D02*
X142061666Y-75714166D01*
X142061666Y-75914166D02*
X141361666Y-75914166D01*
X141461666Y-75847500D01*
X141528333Y-75780833D01*
X141561666Y-75714166D01*
X142561666Y-71380833D02*
X143061666Y-71380833D01*
X143161666Y-71347500D01*
X143228333Y-71280833D01*
X143261666Y-71180833D01*
X143261666Y-71114166D01*
X143261666Y-71714166D02*
X142561666Y-71714166D01*
X142561666Y-71980833D01*
X142595000Y-72047500D01*
X142628333Y-72080833D01*
X142695000Y-72114166D01*
X142795000Y-72114166D01*
X142861666Y-72080833D01*
X142895000Y-72047500D01*
X142928333Y-71980833D01*
X142928333Y-71714166D01*
X142628333Y-72380833D02*
X142595000Y-72414166D01*
X142561666Y-72480833D01*
X142561666Y-72647500D01*
X142595000Y-72714166D01*
X142628333Y-72747500D01*
X142695000Y-72780833D01*
X142761666Y-72780833D01*
X142861666Y-72747500D01*
X143261666Y-72347500D01*
X143261666Y-72780833D01*
X142895000Y-73614166D02*
X142895000Y-74147500D01*
X143095000Y-74147500D02*
X143095000Y-73614166D01*
X142561666Y-75014166D02*
X143128333Y-75014166D01*
X143195000Y-75047500D01*
X143228333Y-75080833D01*
X143261666Y-75147500D01*
X143261666Y-75280833D01*
X143228333Y-75347500D01*
X143195000Y-75380833D01*
X143128333Y-75414166D01*
X142561666Y-75414166D01*
X142628333Y-75714166D02*
X142595000Y-75747500D01*
X142561666Y-75814166D01*
X142561666Y-75980833D01*
X142595000Y-76047500D01*
X142628333Y-76080833D01*
X142695000Y-76114166D01*
X142761666Y-76114166D01*
X142861666Y-76080833D01*
X143261666Y-75680833D01*
X143261666Y-76114166D01*
X143795000Y-70480833D02*
X143761666Y-70414166D01*
X143761666Y-70314166D01*
X143795000Y-70214166D01*
X143861666Y-70147500D01*
X143928333Y-70114166D01*
X144061666Y-70080833D01*
X144161666Y-70080833D01*
X144295000Y-70114166D01*
X144361666Y-70147500D01*
X144428333Y-70214166D01*
X144461666Y-70314166D01*
X144461666Y-70380833D01*
X144428333Y-70480833D01*
X144395000Y-70514166D01*
X144161666Y-70514166D01*
X144161666Y-70380833D01*
X144461666Y-70814166D02*
X143761666Y-70814166D01*
X143761666Y-71080833D01*
X143795000Y-71147500D01*
X143828333Y-71180833D01*
X143895000Y-71214166D01*
X143995000Y-71214166D01*
X144061666Y-71180833D01*
X144095000Y-71147500D01*
X144128333Y-71080833D01*
X144128333Y-70814166D01*
X144461666Y-71514166D02*
X143761666Y-71514166D01*
X143761666Y-71980833D02*
X143761666Y-72114166D01*
X143795000Y-72180833D01*
X143861666Y-72247500D01*
X143995000Y-72280833D01*
X144228333Y-72280833D01*
X144361666Y-72247500D01*
X144428333Y-72180833D01*
X144461666Y-72114166D01*
X144461666Y-71980833D01*
X144428333Y-71914166D01*
X144361666Y-71847500D01*
X144228333Y-71814166D01*
X143995000Y-71814166D01*
X143861666Y-71847500D01*
X143795000Y-71914166D01*
X143761666Y-71980833D01*
X144195000Y-72580833D02*
X144195000Y-73114166D01*
X143995000Y-73347500D02*
X143995000Y-73614166D01*
X143761666Y-73447500D02*
X144361666Y-73447500D01*
X144428333Y-73480833D01*
X144461666Y-73547500D01*
X144461666Y-73614166D01*
X144461666Y-73947500D02*
X144428333Y-73880833D01*
X144395000Y-73847500D01*
X144328333Y-73814166D01*
X144128333Y-73814166D01*
X144061666Y-73847500D01*
X144028333Y-73880833D01*
X143995000Y-73947500D01*
X143995000Y-74047500D01*
X144028333Y-74114166D01*
X144061666Y-74147500D01*
X144128333Y-74180833D01*
X144328333Y-74180833D01*
X144395000Y-74147500D01*
X144428333Y-74114166D01*
X144461666Y-74047500D01*
X144461666Y-73947500D01*
X144195000Y-74480833D02*
X144195000Y-75014166D01*
X144461666Y-75680833D02*
X144461666Y-75347500D01*
X143761666Y-75347500D01*
X144095000Y-75914166D02*
X144095000Y-76147500D01*
X144461666Y-76247500D02*
X144461666Y-75914166D01*
X143761666Y-75914166D01*
X143761666Y-76247500D01*
X144461666Y-76547500D02*
X143761666Y-76547500D01*
X143761666Y-76714166D01*
X143795000Y-76814166D01*
X143861666Y-76880833D01*
X143928333Y-76914166D01*
X144061666Y-76947500D01*
X144161666Y-76947500D01*
X144295000Y-76914166D01*
X144361666Y-76880833D01*
X144428333Y-76814166D01*
X144461666Y-76714166D01*
X144461666Y-76547500D01*
X144261666Y-77747500D02*
X144261666Y-78080833D01*
X144461666Y-77680833D02*
X143761666Y-77914166D01*
X144461666Y-78147500D01*
X144428333Y-78347500D02*
X144461666Y-78414166D01*
X144461666Y-78547500D01*
X144428333Y-78614166D01*
X144361666Y-78647500D01*
X144328333Y-78647500D01*
X144261666Y-78614166D01*
X144228333Y-78547500D01*
X144228333Y-78447500D01*
X144195000Y-78380833D01*
X144128333Y-78347500D01*
X144095000Y-78347500D01*
X144028333Y-78380833D01*
X143995000Y-78447500D01*
X143995000Y-78547500D01*
X144028333Y-78614166D01*
X144428333Y-78914166D02*
X144461666Y-78980833D01*
X144461666Y-79114166D01*
X144428333Y-79180833D01*
X144361666Y-79214166D01*
X144328333Y-79214166D01*
X144261666Y-79180833D01*
X144228333Y-79114166D01*
X144228333Y-79014166D01*
X144195000Y-78947500D01*
X144128333Y-78914166D01*
X144095000Y-78914166D01*
X144028333Y-78947500D01*
X143995000Y-79014166D01*
X143995000Y-79114166D01*
X144028333Y-79180833D01*
X144461666Y-79514166D02*
X143995000Y-79514166D01*
X143761666Y-79514166D02*
X143795000Y-79480833D01*
X143828333Y-79514166D01*
X143795000Y-79547500D01*
X143761666Y-79514166D01*
X143828333Y-79514166D01*
X143995000Y-80147500D02*
X144561666Y-80147500D01*
X144628333Y-80114166D01*
X144661666Y-80080833D01*
X144695000Y-80014166D01*
X144695000Y-79914166D01*
X144661666Y-79847500D01*
X144428333Y-80147500D02*
X144461666Y-80080833D01*
X144461666Y-79947500D01*
X144428333Y-79880833D01*
X144395000Y-79847500D01*
X144328333Y-79814166D01*
X144128333Y-79814166D01*
X144061666Y-79847500D01*
X144028333Y-79880833D01*
X143995000Y-79947500D01*
X143995000Y-80080833D01*
X144028333Y-80147500D01*
X143995000Y-80480833D02*
X144461666Y-80480833D01*
X144061666Y-80480833D02*
X144028333Y-80514166D01*
X143995000Y-80580833D01*
X143995000Y-80680833D01*
X144028333Y-80747500D01*
X144095000Y-80780833D01*
X144461666Y-80780833D01*
X144461666Y-81114166D02*
X143995000Y-81114166D01*
X144061666Y-81114166D02*
X144028333Y-81147500D01*
X143995000Y-81214166D01*
X143995000Y-81314166D01*
X144028333Y-81380833D01*
X144095000Y-81414166D01*
X144461666Y-81414166D01*
X144095000Y-81414166D02*
X144028333Y-81447500D01*
X143995000Y-81514166D01*
X143995000Y-81614166D01*
X144028333Y-81680833D01*
X144095000Y-81714166D01*
X144461666Y-81714166D01*
X144428333Y-82314166D02*
X144461666Y-82247500D01*
X144461666Y-82114166D01*
X144428333Y-82047500D01*
X144361666Y-82014166D01*
X144095000Y-82014166D01*
X144028333Y-82047500D01*
X143995000Y-82114166D01*
X143995000Y-82247500D01*
X144028333Y-82314166D01*
X144095000Y-82347500D01*
X144161666Y-82347500D01*
X144228333Y-82014166D01*
X143995000Y-82647500D02*
X144461666Y-82647500D01*
X144061666Y-82647500D02*
X144028333Y-82680833D01*
X143995000Y-82747500D01*
X143995000Y-82847500D01*
X144028333Y-82914166D01*
X144095000Y-82947500D01*
X144461666Y-82947500D01*
X143995000Y-83180833D02*
X143995000Y-83447500D01*
X143761666Y-83280833D02*
X144361666Y-83280833D01*
X144428333Y-83314166D01*
X144461666Y-83380833D01*
X144461666Y-83447500D01*
X144428333Y-83647500D02*
X144461666Y-83714166D01*
X144461666Y-83847500D01*
X144428333Y-83914166D01*
X144361666Y-83947500D01*
X144328333Y-83947500D01*
X144261666Y-83914166D01*
X144228333Y-83847500D01*
X144228333Y-83747500D01*
X144195000Y-83680833D01*
X144128333Y-83647500D01*
X144095000Y-83647500D01*
X144028333Y-83680833D01*
X143995000Y-83747500D01*
X143995000Y-83847500D01*
X144028333Y-83914166D01*
X144395000Y-84247500D02*
X144428333Y-84280833D01*
X144461666Y-84247500D01*
X144428333Y-84214166D01*
X144395000Y-84247500D01*
X144461666Y-84247500D01*
X144028333Y-84247500D02*
X144061666Y-84280833D01*
X144095000Y-84247500D01*
X144061666Y-84214166D01*
X144028333Y-84247500D01*
X144095000Y-84247500D01*
X144961666Y-71380833D02*
X145461666Y-71380833D01*
X145561666Y-71347500D01*
X145628333Y-71280833D01*
X145661666Y-71180833D01*
X145661666Y-71114166D01*
X145661666Y-71714166D02*
X144961666Y-71714166D01*
X144961666Y-71980833D01*
X144995000Y-72047500D01*
X145028333Y-72080833D01*
X145095000Y-72114166D01*
X145195000Y-72114166D01*
X145261666Y-72080833D01*
X145295000Y-72047500D01*
X145328333Y-71980833D01*
X145328333Y-71714166D01*
X144961666Y-72347500D02*
X144961666Y-72780833D01*
X145228333Y-72547500D01*
X145228333Y-72647500D01*
X145261666Y-72714166D01*
X145295000Y-72747500D01*
X145361666Y-72780833D01*
X145528333Y-72780833D01*
X145595000Y-72747500D01*
X145628333Y-72714166D01*
X145661666Y-72647500D01*
X145661666Y-72447500D01*
X145628333Y-72380833D01*
X145595000Y-72347500D01*
X145295000Y-73614166D02*
X145295000Y-74147500D01*
X145495000Y-74147500D02*
X145495000Y-73614166D01*
X145661666Y-75014166D02*
X144961666Y-75014166D01*
X144961666Y-75180833D01*
X144995000Y-75280833D01*
X145061666Y-75347500D01*
X145128333Y-75380833D01*
X145261666Y-75414166D01*
X145361666Y-75414166D01*
X145495000Y-75380833D01*
X145561666Y-75347500D01*
X145628333Y-75280833D01*
X145661666Y-75180833D01*
X145661666Y-75014166D01*
X145028333Y-75680833D02*
X144995000Y-75714166D01*
X144961666Y-75780833D01*
X144961666Y-75947500D01*
X144995000Y-76014166D01*
X145028333Y-76047500D01*
X145095000Y-76080833D01*
X145161666Y-76080833D01*
X145261666Y-76047500D01*
X145661666Y-75647500D01*
X145661666Y-76080833D01*
X145628333Y-76414166D02*
X145661666Y-76414166D01*
X145728333Y-76380833D01*
X145761666Y-76347500D01*
X145661666Y-77247500D02*
X144961666Y-77247500D01*
X144961666Y-77414166D01*
X144995000Y-77514166D01*
X145061666Y-77580833D01*
X145128333Y-77614166D01*
X145261666Y-77647500D01*
X145361666Y-77647500D01*
X145495000Y-77614166D01*
X145561666Y-77580833D01*
X145628333Y-77514166D01*
X145661666Y-77414166D01*
X145661666Y-77247500D01*
X144961666Y-78247500D02*
X144961666Y-78114166D01*
X144995000Y-78047500D01*
X145028333Y-78014166D01*
X145128333Y-77947500D01*
X145261666Y-77914166D01*
X145528333Y-77914166D01*
X145595000Y-77947500D01*
X145628333Y-77980833D01*
X145661666Y-78047500D01*
X145661666Y-78180833D01*
X145628333Y-78247500D01*
X145595000Y-78280833D01*
X145528333Y-78314166D01*
X145361666Y-78314166D01*
X145295000Y-78280833D01*
X145261666Y-78247500D01*
X145228333Y-78180833D01*
X145228333Y-78047500D01*
X145261666Y-77980833D01*
X145295000Y-77947500D01*
X145361666Y-77914166D01*
X146161666Y-71380833D02*
X146661666Y-71380833D01*
X146761666Y-71347500D01*
X146828333Y-71280833D01*
X146861666Y-71180833D01*
X146861666Y-71114166D01*
X146861666Y-71714166D02*
X146161666Y-71714166D01*
X146161666Y-71980833D01*
X146195000Y-72047500D01*
X146228333Y-72080833D01*
X146295000Y-72114166D01*
X146395000Y-72114166D01*
X146461666Y-72080833D01*
X146495000Y-72047500D01*
X146528333Y-71980833D01*
X146528333Y-71714166D01*
X146395000Y-72714166D02*
X146861666Y-72714166D01*
X146128333Y-72547500D02*
X146628333Y-72380833D01*
X146628333Y-72814166D01*
X146495000Y-73614166D02*
X146495000Y-74147500D01*
X146695000Y-74147500D02*
X146695000Y-73614166D01*
X146861666Y-75014166D02*
X146161666Y-75014166D01*
X146161666Y-75180833D01*
X146195000Y-75280833D01*
X146261666Y-75347500D01*
X146328333Y-75380833D01*
X146461666Y-75414166D01*
X146561666Y-75414166D01*
X146695000Y-75380833D01*
X146761666Y-75347500D01*
X146828333Y-75280833D01*
X146861666Y-75180833D01*
X146861666Y-75014166D01*
X146161666Y-75647500D02*
X146161666Y-76080833D01*
X146428333Y-75847500D01*
X146428333Y-75947500D01*
X146461666Y-76014166D01*
X146495000Y-76047500D01*
X146561666Y-76080833D01*
X146728333Y-76080833D01*
X146795000Y-76047500D01*
X146828333Y-76014166D01*
X146861666Y-75947500D01*
X146861666Y-75747500D01*
X146828333Y-75680833D01*
X146795000Y-75647500D01*
X146828333Y-76414166D02*
X146861666Y-76414166D01*
X146928333Y-76380833D01*
X146961666Y-76347500D01*
X146861666Y-77247500D02*
X146161666Y-77247500D01*
X146161666Y-77414166D01*
X146195000Y-77514166D01*
X146261666Y-77580833D01*
X146328333Y-77614166D01*
X146461666Y-77647500D01*
X146561666Y-77647500D01*
X146695000Y-77614166D01*
X146761666Y-77580833D01*
X146828333Y-77514166D01*
X146861666Y-77414166D01*
X146861666Y-77247500D01*
X146161666Y-77880833D02*
X146161666Y-78347500D01*
X146861666Y-78047500D01*
X147361666Y-71380833D02*
X147861666Y-71380833D01*
X147961666Y-71347500D01*
X148028333Y-71280833D01*
X148061666Y-71180833D01*
X148061666Y-71114166D01*
X148061666Y-71714166D02*
X147361666Y-71714166D01*
X147361666Y-71980833D01*
X147395000Y-72047500D01*
X147428333Y-72080833D01*
X147495000Y-72114166D01*
X147595000Y-72114166D01*
X147661666Y-72080833D01*
X147695000Y-72047500D01*
X147728333Y-71980833D01*
X147728333Y-71714166D01*
X147361666Y-72747500D02*
X147361666Y-72414166D01*
X147695000Y-72380833D01*
X147661666Y-72414166D01*
X147628333Y-72480833D01*
X147628333Y-72647500D01*
X147661666Y-72714166D01*
X147695000Y-72747500D01*
X147761666Y-72780833D01*
X147928333Y-72780833D01*
X147995000Y-72747500D01*
X148028333Y-72714166D01*
X148061666Y-72647500D01*
X148061666Y-72480833D01*
X148028333Y-72414166D01*
X147995000Y-72380833D01*
X147695000Y-73614166D02*
X147695000Y-74147500D01*
X147895000Y-74147500D02*
X147895000Y-73614166D01*
X148061666Y-75014166D02*
X147361666Y-75014166D01*
X147361666Y-75180833D01*
X147395000Y-75280833D01*
X147461666Y-75347500D01*
X147528333Y-75380833D01*
X147661666Y-75414166D01*
X147761666Y-75414166D01*
X147895000Y-75380833D01*
X147961666Y-75347500D01*
X148028333Y-75280833D01*
X148061666Y-75180833D01*
X148061666Y-75014166D01*
X147595000Y-76014166D02*
X148061666Y-76014166D01*
X147328333Y-75847500D02*
X147828333Y-75680833D01*
X147828333Y-76114166D01*
X148028333Y-76414166D02*
X148061666Y-76414166D01*
X148128333Y-76380833D01*
X148161666Y-76347500D01*
X148061666Y-77247500D02*
X147361666Y-77247500D01*
X147361666Y-77414166D01*
X147395000Y-77514166D01*
X147461666Y-77580833D01*
X147528333Y-77614166D01*
X147661666Y-77647500D01*
X147761666Y-77647500D01*
X147895000Y-77614166D01*
X147961666Y-77580833D01*
X148028333Y-77514166D01*
X148061666Y-77414166D01*
X148061666Y-77247500D01*
X147661666Y-78047500D02*
X147628333Y-77980833D01*
X147595000Y-77947500D01*
X147528333Y-77914166D01*
X147495000Y-77914166D01*
X147428333Y-77947500D01*
X147395000Y-77980833D01*
X147361666Y-78047500D01*
X147361666Y-78180833D01*
X147395000Y-78247500D01*
X147428333Y-78280833D01*
X147495000Y-78314166D01*
X147528333Y-78314166D01*
X147595000Y-78280833D01*
X147628333Y-78247500D01*
X147661666Y-78180833D01*
X147661666Y-78047500D01*
X147695000Y-77980833D01*
X147728333Y-77947500D01*
X147795000Y-77914166D01*
X147928333Y-77914166D01*
X147995000Y-77947500D01*
X148028333Y-77980833D01*
X148061666Y-78047500D01*
X148061666Y-78180833D01*
X148028333Y-78247500D01*
X147995000Y-78280833D01*
X147928333Y-78314166D01*
X147795000Y-78314166D01*
X147728333Y-78280833D01*
X147695000Y-78247500D01*
X147661666Y-78180833D01*
X156114000Y-73761666D02*
X156080666Y-73695000D01*
X156080666Y-73595000D01*
X156114000Y-73495000D01*
X156180666Y-73428333D01*
X156247333Y-73395000D01*
X156380666Y-73361666D01*
X156480666Y-73361666D01*
X156614000Y-73395000D01*
X156680666Y-73428333D01*
X156747333Y-73495000D01*
X156780666Y-73595000D01*
X156780666Y-73661666D01*
X156747333Y-73761666D01*
X156714000Y-73795000D01*
X156480666Y-73795000D01*
X156480666Y-73661666D01*
X156780666Y-74095000D02*
X156080666Y-74095000D01*
X156780666Y-74495000D01*
X156080666Y-74495000D01*
X156780666Y-74828333D02*
X156080666Y-74828333D01*
X156080666Y-74995000D01*
X156114000Y-75095000D01*
X156180666Y-75161666D01*
X156247333Y-75195000D01*
X156380666Y-75228333D01*
X156480666Y-75228333D01*
X156614000Y-75195000D01*
X156680666Y-75161666D01*
X156747333Y-75095000D01*
X156780666Y-74995000D01*
X156780666Y-74828333D01*
X156080666Y-78708333D02*
X156780666Y-78941666D01*
X156080666Y-79175000D01*
X156514000Y-79408333D02*
X156514000Y-79941666D01*
X156780666Y-79675000D02*
X156247333Y-79675000D01*
X156780666Y-81798333D02*
X156447333Y-81565000D01*
X156780666Y-81398333D02*
X156080666Y-81398333D01*
X156080666Y-81665000D01*
X156114000Y-81731666D01*
X156147333Y-81765000D01*
X156214000Y-81798333D01*
X156314000Y-81798333D01*
X156380666Y-81765000D01*
X156414000Y-81731666D01*
X156447333Y-81665000D01*
X156447333Y-81398333D01*
X156080666Y-82031666D02*
X156780666Y-82498333D01*
X156080666Y-82498333D02*
X156780666Y-82031666D01*
X156080666Y-83921666D02*
X156080666Y-84321666D01*
X156780666Y-84121666D02*
X156080666Y-84121666D01*
X156080666Y-84488333D02*
X156780666Y-84955000D01*
X156080666Y-84955000D02*
X156780666Y-84488333D01*
X161731833Y-78737666D02*
X161298500Y-78737666D01*
X161531833Y-79004333D01*
X161431833Y-79004333D01*
X161365166Y-79037666D01*
X161331833Y-79071000D01*
X161298500Y-79137666D01*
X161298500Y-79304333D01*
X161331833Y-79371000D01*
X161365166Y-79404333D01*
X161431833Y-79437666D01*
X161631833Y-79437666D01*
X161698500Y-79404333D01*
X161731833Y-79371000D01*
X160665166Y-78737666D02*
X160998500Y-78737666D01*
X161031833Y-79071000D01*
X160998500Y-79037666D01*
X160931833Y-79004333D01*
X160765166Y-79004333D01*
X160698500Y-79037666D01*
X160665166Y-79071000D01*
X160631833Y-79137666D01*
X160631833Y-79304333D01*
X160665166Y-79371000D01*
X160698500Y-79404333D01*
X160765166Y-79437666D01*
X160931833Y-79437666D01*
X160998500Y-79404333D01*
X161031833Y-79371000D01*
X161731833Y-86865666D02*
X161298500Y-86865666D01*
X161531833Y-87132333D01*
X161431833Y-87132333D01*
X161365166Y-87165666D01*
X161331833Y-87199000D01*
X161298500Y-87265666D01*
X161298500Y-87432333D01*
X161331833Y-87499000D01*
X161365166Y-87532333D01*
X161431833Y-87565666D01*
X161631833Y-87565666D01*
X161698500Y-87532333D01*
X161731833Y-87499000D01*
X160698500Y-87099000D02*
X160698500Y-87565666D01*
X160865166Y-86832333D02*
X161031833Y-87332333D01*
X160598500Y-87332333D01*
X126716666Y-70628333D02*
X126016666Y-70628333D01*
X126016666Y-70795000D01*
X126050000Y-70895000D01*
X126116666Y-70961666D01*
X126183333Y-70995000D01*
X126316666Y-71028333D01*
X126416666Y-71028333D01*
X126550000Y-70995000D01*
X126616666Y-70961666D01*
X126683333Y-70895000D01*
X126716666Y-70795000D01*
X126716666Y-70628333D01*
X126683333Y-71595000D02*
X126716666Y-71528333D01*
X126716666Y-71395000D01*
X126683333Y-71328333D01*
X126616666Y-71295000D01*
X126350000Y-71295000D01*
X126283333Y-71328333D01*
X126250000Y-71395000D01*
X126250000Y-71528333D01*
X126283333Y-71595000D01*
X126350000Y-71628333D01*
X126416666Y-71628333D01*
X126483333Y-71295000D01*
X126683333Y-71895000D02*
X126716666Y-71961666D01*
X126716666Y-72095000D01*
X126683333Y-72161666D01*
X126616666Y-72195000D01*
X126583333Y-72195000D01*
X126516666Y-72161666D01*
X126483333Y-72095000D01*
X126483333Y-71995000D01*
X126450000Y-71928333D01*
X126383333Y-71895000D01*
X126350000Y-71895000D01*
X126283333Y-71928333D01*
X126250000Y-71995000D01*
X126250000Y-72095000D01*
X126283333Y-72161666D01*
X126716666Y-72495000D02*
X126250000Y-72495000D01*
X126016666Y-72495000D02*
X126050000Y-72461666D01*
X126083333Y-72495000D01*
X126050000Y-72528333D01*
X126016666Y-72495000D01*
X126083333Y-72495000D01*
X126250000Y-73128333D02*
X126816666Y-73128333D01*
X126883333Y-73095000D01*
X126916666Y-73061666D01*
X126950000Y-72995000D01*
X126950000Y-72895000D01*
X126916666Y-72828333D01*
X126683333Y-73128333D02*
X126716666Y-73061666D01*
X126716666Y-72928333D01*
X126683333Y-72861666D01*
X126650000Y-72828333D01*
X126583333Y-72795000D01*
X126383333Y-72795000D01*
X126316666Y-72828333D01*
X126283333Y-72861666D01*
X126250000Y-72928333D01*
X126250000Y-73061666D01*
X126283333Y-73128333D01*
X126250000Y-73461666D02*
X126716666Y-73461666D01*
X126316666Y-73461666D02*
X126283333Y-73495000D01*
X126250000Y-73561666D01*
X126250000Y-73661666D01*
X126283333Y-73728333D01*
X126350000Y-73761666D01*
X126716666Y-73761666D01*
X126683333Y-74361666D02*
X126716666Y-74295000D01*
X126716666Y-74161666D01*
X126683333Y-74095000D01*
X126616666Y-74061666D01*
X126350000Y-74061666D01*
X126283333Y-74095000D01*
X126250000Y-74161666D01*
X126250000Y-74295000D01*
X126283333Y-74361666D01*
X126350000Y-74395000D01*
X126416666Y-74395000D01*
X126483333Y-74061666D01*
X126716666Y-74995000D02*
X126016666Y-74995000D01*
X126683333Y-74995000D02*
X126716666Y-74928333D01*
X126716666Y-74795000D01*
X126683333Y-74728333D01*
X126650000Y-74695000D01*
X126583333Y-74661666D01*
X126383333Y-74661666D01*
X126316666Y-74695000D01*
X126283333Y-74728333D01*
X126250000Y-74795000D01*
X126250000Y-74928333D01*
X126283333Y-74995000D01*
X126716666Y-75861666D02*
X126016666Y-75861666D01*
X126283333Y-75861666D02*
X126250000Y-75928333D01*
X126250000Y-76061666D01*
X126283333Y-76128333D01*
X126316666Y-76161666D01*
X126383333Y-76195000D01*
X126583333Y-76195000D01*
X126650000Y-76161666D01*
X126683333Y-76128333D01*
X126716666Y-76061666D01*
X126716666Y-75928333D01*
X126683333Y-75861666D01*
X126250000Y-76428333D02*
X126716666Y-76595000D01*
X126250000Y-76761666D02*
X126716666Y-76595000D01*
X126883333Y-76528333D01*
X126916666Y-76495000D01*
X126950000Y-76428333D01*
X126716666Y-77561666D02*
X126016666Y-77561666D01*
X126716666Y-77961666D02*
X126316666Y-77661666D01*
X126016666Y-77961666D02*
X126416666Y-77561666D01*
X126683333Y-78528333D02*
X126716666Y-78461666D01*
X126716666Y-78328333D01*
X126683333Y-78261666D01*
X126616666Y-78228333D01*
X126350000Y-78228333D01*
X126283333Y-78261666D01*
X126250000Y-78328333D01*
X126250000Y-78461666D01*
X126283333Y-78528333D01*
X126350000Y-78561666D01*
X126416666Y-78561666D01*
X126483333Y-78228333D01*
X126716666Y-78861666D02*
X126250000Y-78861666D01*
X126016666Y-78861666D02*
X126050000Y-78828333D01*
X126083333Y-78861666D01*
X126050000Y-78895000D01*
X126016666Y-78861666D01*
X126083333Y-78861666D01*
X126250000Y-79095000D02*
X126250000Y-79361666D01*
X126016666Y-79195000D02*
X126616666Y-79195000D01*
X126683333Y-79228333D01*
X126716666Y-79295000D01*
X126716666Y-79361666D01*
X126716666Y-79595000D02*
X126016666Y-79595000D01*
X126716666Y-79895000D02*
X126350000Y-79895000D01*
X126283333Y-79861666D01*
X126250000Y-79795000D01*
X126250000Y-79695000D01*
X126283333Y-79628333D01*
X126316666Y-79595000D01*
X126350000Y-80995000D02*
X126383333Y-81095000D01*
X126416666Y-81128333D01*
X126483333Y-81161666D01*
X126583333Y-81161666D01*
X126650000Y-81128333D01*
X126683333Y-81095000D01*
X126716666Y-81028333D01*
X126716666Y-80761666D01*
X126016666Y-80761666D01*
X126016666Y-80995000D01*
X126050000Y-81061666D01*
X126083333Y-81095000D01*
X126150000Y-81128333D01*
X126216666Y-81128333D01*
X126283333Y-81095000D01*
X126316666Y-81061666D01*
X126350000Y-80995000D01*
X126350000Y-80761666D01*
X126250000Y-81761666D02*
X126716666Y-81761666D01*
X126250000Y-81461666D02*
X126616666Y-81461666D01*
X126683333Y-81495000D01*
X126716666Y-81561666D01*
X126716666Y-81661666D01*
X126683333Y-81728333D01*
X126650000Y-81761666D01*
X126716666Y-82095000D02*
X126250000Y-82095000D01*
X126383333Y-82095000D02*
X126316666Y-82128333D01*
X126283333Y-82161666D01*
X126250000Y-82228333D01*
X126250000Y-82295000D01*
X126250000Y-82461666D02*
X126250000Y-82828333D01*
X126716666Y-82461666D01*
X126716666Y-82828333D01*
X126716666Y-83095000D02*
X126250000Y-83095000D01*
X126016666Y-83095000D02*
X126050000Y-83061666D01*
X126083333Y-83095000D01*
X126050000Y-83128333D01*
X126016666Y-83095000D01*
X126083333Y-83095000D01*
X126250000Y-83428333D02*
X126716666Y-83428333D01*
X126316666Y-83428333D02*
X126283333Y-83461666D01*
X126250000Y-83528333D01*
X126250000Y-83628333D01*
X126283333Y-83695000D01*
X126350000Y-83728333D01*
X126716666Y-83728333D01*
X126683333Y-84028333D02*
X126716666Y-84095000D01*
X126716666Y-84228333D01*
X126683333Y-84295000D01*
X126616666Y-84328333D01*
X126583333Y-84328333D01*
X126516666Y-84295000D01*
X126483333Y-84228333D01*
X126483333Y-84128333D01*
X126450000Y-84061666D01*
X126383333Y-84028333D01*
X126350000Y-84028333D01*
X126283333Y-84061666D01*
X126250000Y-84128333D01*
X126250000Y-84228333D01*
X126283333Y-84295000D01*
X126716666Y-84628333D02*
X126016666Y-84628333D01*
X126450000Y-84695000D02*
X126716666Y-84895000D01*
X126250000Y-84895000D02*
X126516666Y-84628333D01*
X126716666Y-85195000D02*
X126250000Y-85195000D01*
X126016666Y-85195000D02*
X126050000Y-85161666D01*
X126083333Y-85195000D01*
X126050000Y-85228333D01*
X126016666Y-85195000D01*
X126083333Y-85195000D01*
X126983333Y-86261666D02*
X126950000Y-86228333D01*
X126850000Y-86161666D01*
X126783333Y-86128333D01*
X126683333Y-86095000D01*
X126516666Y-86061666D01*
X126383333Y-86061666D01*
X126216666Y-86095000D01*
X126116666Y-86128333D01*
X126050000Y-86161666D01*
X125950000Y-86228333D01*
X125916666Y-86261666D01*
X126383333Y-86961666D02*
X126350000Y-86928333D01*
X126316666Y-86861666D01*
X126316666Y-86795000D01*
X126350000Y-86728333D01*
X126383333Y-86695000D01*
X126450000Y-86661666D01*
X126516666Y-86661666D01*
X126583333Y-86695000D01*
X126616666Y-86728333D01*
X126650000Y-86795000D01*
X126650000Y-86861666D01*
X126616666Y-86928333D01*
X126583333Y-86961666D01*
X126316666Y-86961666D02*
X126583333Y-86961666D01*
X126616666Y-86995000D01*
X126616666Y-87028333D01*
X126583333Y-87095000D01*
X126516666Y-87128333D01*
X126350000Y-87128333D01*
X126250000Y-87061666D01*
X126183333Y-86961666D01*
X126150000Y-86828333D01*
X126183333Y-86695000D01*
X126250000Y-86595000D01*
X126350000Y-86528333D01*
X126483333Y-86495000D01*
X126616666Y-86528333D01*
X126716666Y-86595000D01*
X126783333Y-86695000D01*
X126816666Y-86828333D01*
X126783333Y-86961666D01*
X126716666Y-87061666D01*
X126716666Y-87428333D02*
X126016666Y-87428333D01*
X126450000Y-87495000D02*
X126716666Y-87695000D01*
X126250000Y-87695000D02*
X126516666Y-87428333D01*
X126716666Y-87995000D02*
X126016666Y-87995000D01*
X126283333Y-87995000D02*
X126250000Y-88061666D01*
X126250000Y-88195000D01*
X126283333Y-88261666D01*
X126316666Y-88295000D01*
X126383333Y-88328333D01*
X126583333Y-88328333D01*
X126650000Y-88295000D01*
X126683333Y-88261666D01*
X126716666Y-88195000D01*
X126716666Y-88061666D01*
X126683333Y-87995000D01*
X126716666Y-88561666D02*
X126250000Y-88928333D01*
X126250000Y-88561666D02*
X126716666Y-88928333D01*
X126316666Y-89295000D02*
X126283333Y-89228333D01*
X126250000Y-89195000D01*
X126183333Y-89161666D01*
X126150000Y-89161666D01*
X126083333Y-89195000D01*
X126050000Y-89228333D01*
X126016666Y-89295000D01*
X126016666Y-89428333D01*
X126050000Y-89495000D01*
X126083333Y-89528333D01*
X126150000Y-89561666D01*
X126183333Y-89561666D01*
X126250000Y-89528333D01*
X126283333Y-89495000D01*
X126316666Y-89428333D01*
X126316666Y-89295000D01*
X126350000Y-89228333D01*
X126383333Y-89195000D01*
X126450000Y-89161666D01*
X126583333Y-89161666D01*
X126650000Y-89195000D01*
X126683333Y-89228333D01*
X126716666Y-89295000D01*
X126716666Y-89428333D01*
X126683333Y-89495000D01*
X126650000Y-89528333D01*
X126583333Y-89561666D01*
X126450000Y-89561666D01*
X126383333Y-89528333D01*
X126350000Y-89495000D01*
X126316666Y-89428333D01*
X126716666Y-90228333D02*
X126716666Y-89828333D01*
X126716666Y-90028333D02*
X126016666Y-90028333D01*
X126116666Y-89961666D01*
X126183333Y-89895000D01*
X126216666Y-89828333D01*
X126983333Y-90461666D02*
X126950000Y-90495000D01*
X126850000Y-90561666D01*
X126783333Y-90595000D01*
X126683333Y-90628333D01*
X126516666Y-90661666D01*
X126383333Y-90661666D01*
X126216666Y-90628333D01*
X126116666Y-90595000D01*
X126050000Y-90561666D01*
X125950000Y-90495000D01*
X125916666Y-90461666D01*
X127916666Y-75761666D02*
X127450000Y-75761666D01*
X127216666Y-75761666D02*
X127250000Y-75728333D01*
X127283333Y-75761666D01*
X127250000Y-75795000D01*
X127216666Y-75761666D01*
X127283333Y-75761666D01*
X127450000Y-76095000D02*
X127916666Y-76095000D01*
X127516666Y-76095000D02*
X127483333Y-76128333D01*
X127450000Y-76195000D01*
X127450000Y-76295000D01*
X127483333Y-76361666D01*
X127550000Y-76395000D01*
X127916666Y-76395000D01*
X127850000Y-77661666D02*
X127883333Y-77628333D01*
X127916666Y-77528333D01*
X127916666Y-77461666D01*
X127883333Y-77361666D01*
X127816666Y-77295000D01*
X127750000Y-77261666D01*
X127616666Y-77228333D01*
X127516666Y-77228333D01*
X127383333Y-77261666D01*
X127316666Y-77295000D01*
X127250000Y-77361666D01*
X127216666Y-77461666D01*
X127216666Y-77528333D01*
X127250000Y-77628333D01*
X127283333Y-77661666D01*
X127916666Y-77961666D02*
X127216666Y-77961666D01*
X127916666Y-78261666D02*
X127550000Y-78261666D01*
X127483333Y-78228333D01*
X127450000Y-78161666D01*
X127450000Y-78061666D01*
X127483333Y-77995000D01*
X127516666Y-77961666D01*
X127916666Y-78595000D02*
X127450000Y-78595000D01*
X127216666Y-78595000D02*
X127250000Y-78561666D01*
X127283333Y-78595000D01*
X127250000Y-78628333D01*
X127216666Y-78595000D01*
X127283333Y-78595000D01*
X127883333Y-79228333D02*
X127916666Y-79161666D01*
X127916666Y-79028333D01*
X127883333Y-78961666D01*
X127850000Y-78928333D01*
X127783333Y-78895000D01*
X127583333Y-78895000D01*
X127516666Y-78928333D01*
X127483333Y-78961666D01*
X127450000Y-79028333D01*
X127450000Y-79161666D01*
X127483333Y-79228333D01*
X127916666Y-79828333D02*
X127550000Y-79828333D01*
X127483333Y-79795000D01*
X127450000Y-79728333D01*
X127450000Y-79595000D01*
X127483333Y-79528333D01*
X127883333Y-79828333D02*
X127916666Y-79761666D01*
X127916666Y-79595000D01*
X127883333Y-79528333D01*
X127816666Y-79495000D01*
X127750000Y-79495000D01*
X127683333Y-79528333D01*
X127650000Y-79595000D01*
X127650000Y-79761666D01*
X127616666Y-79828333D01*
X127450000Y-80461666D02*
X128016666Y-80461666D01*
X128083333Y-80428333D01*
X128116666Y-80395000D01*
X128150000Y-80328333D01*
X128150000Y-80228333D01*
X128116666Y-80161666D01*
X127883333Y-80461666D02*
X127916666Y-80395000D01*
X127916666Y-80261666D01*
X127883333Y-80195000D01*
X127850000Y-80161666D01*
X127783333Y-80128333D01*
X127583333Y-80128333D01*
X127516666Y-80161666D01*
X127483333Y-80195000D01*
X127450000Y-80261666D01*
X127450000Y-80395000D01*
X127483333Y-80461666D01*
X127916666Y-80895000D02*
X127883333Y-80828333D01*
X127850000Y-80795000D01*
X127783333Y-80761666D01*
X127583333Y-80761666D01*
X127516666Y-80795000D01*
X127483333Y-80828333D01*
X127450000Y-80895000D01*
X127450000Y-80995000D01*
X127483333Y-81061666D01*
X127516666Y-81095000D01*
X127583333Y-81128333D01*
X127783333Y-81128333D01*
X127850000Y-81095000D01*
X127883333Y-81061666D01*
X127916666Y-80995000D01*
X127916666Y-80895000D01*
X127883333Y-81461666D02*
X127916666Y-81461666D01*
X127983333Y-81428333D01*
X128016666Y-81395000D01*
X127916666Y-82295000D02*
X127216666Y-82295000D01*
X127916666Y-82728333D02*
X127883333Y-82661666D01*
X127816666Y-82628333D01*
X127216666Y-82628333D01*
X127916666Y-83095000D02*
X127883333Y-83028333D01*
X127816666Y-82995000D01*
X127216666Y-82995000D01*
X127916666Y-83361666D02*
X127450000Y-83361666D01*
X127216666Y-83361666D02*
X127250000Y-83328333D01*
X127283333Y-83361666D01*
X127250000Y-83395000D01*
X127216666Y-83361666D01*
X127283333Y-83361666D01*
X127450000Y-83695000D02*
X127916666Y-83695000D01*
X127516666Y-83695000D02*
X127483333Y-83728333D01*
X127450000Y-83795000D01*
X127450000Y-83895000D01*
X127483333Y-83961666D01*
X127550000Y-83995000D01*
X127916666Y-83995000D01*
X127916666Y-84428333D02*
X127883333Y-84361666D01*
X127850000Y-84328333D01*
X127783333Y-84295000D01*
X127583333Y-84295000D01*
X127516666Y-84328333D01*
X127483333Y-84361666D01*
X127450000Y-84428333D01*
X127450000Y-84528333D01*
X127483333Y-84595000D01*
X127516666Y-84628333D01*
X127583333Y-84661666D01*
X127783333Y-84661666D01*
X127850000Y-84628333D01*
X127883333Y-84595000D01*
X127916666Y-84528333D01*
X127916666Y-84428333D01*
X127916666Y-84961666D02*
X127450000Y-84961666D01*
X127216666Y-84961666D02*
X127250000Y-84928333D01*
X127283333Y-84961666D01*
X127250000Y-84995000D01*
X127216666Y-84961666D01*
X127283333Y-84961666D01*
X127883333Y-85261666D02*
X127916666Y-85328333D01*
X127916666Y-85461666D01*
X127883333Y-85528333D01*
X127816666Y-85561666D01*
X127783333Y-85561666D01*
X127716666Y-85528333D01*
X127683333Y-85461666D01*
X127683333Y-85361666D01*
X127650000Y-85295000D01*
X127583333Y-85261666D01*
X127550000Y-85261666D01*
X127483333Y-85295000D01*
X127450000Y-85361666D01*
X127450000Y-85461666D01*
X127483333Y-85528333D01*
D12*
X122079285Y-70816428D02*
X122079285Y-71216428D01*
X122707857Y-71387857D02*
X122707857Y-70816428D01*
X121507857Y-70816428D01*
X121507857Y-71387857D01*
X122650714Y-71845000D02*
X122707857Y-72016428D01*
X122707857Y-72302142D01*
X122650714Y-72416428D01*
X122593571Y-72473571D01*
X122479285Y-72530714D01*
X122365000Y-72530714D01*
X122250714Y-72473571D01*
X122193571Y-72416428D01*
X122136428Y-72302142D01*
X122079285Y-72073571D01*
X122022142Y-71959285D01*
X121965000Y-71902142D01*
X121850714Y-71845000D01*
X121736428Y-71845000D01*
X121622142Y-71902142D01*
X121565000Y-71959285D01*
X121507857Y-72073571D01*
X121507857Y-72359285D01*
X121565000Y-72530714D01*
X122707857Y-73045000D02*
X121507857Y-73045000D01*
X121507857Y-73502142D01*
X121565000Y-73616428D01*
X121622142Y-73673571D01*
X121736428Y-73730714D01*
X121907857Y-73730714D01*
X122022142Y-73673571D01*
X122079285Y-73616428D01*
X122136428Y-73502142D01*
X122136428Y-73045000D01*
X121507857Y-74130714D02*
X121507857Y-74873571D01*
X121965000Y-74473571D01*
X121965000Y-74645000D01*
X122022142Y-74759285D01*
X122079285Y-74816428D01*
X122193571Y-74873571D01*
X122479285Y-74873571D01*
X122593571Y-74816428D01*
X122650714Y-74759285D01*
X122707857Y-74645000D01*
X122707857Y-74302142D01*
X122650714Y-74187857D01*
X122593571Y-74130714D01*
X121622142Y-75330714D02*
X121565000Y-75387857D01*
X121507857Y-75502142D01*
X121507857Y-75787857D01*
X121565000Y-75902142D01*
X121622142Y-75959285D01*
X121736428Y-76016428D01*
X121850714Y-76016428D01*
X122022142Y-75959285D01*
X122707857Y-75273571D01*
X122707857Y-76016428D01*
X122707857Y-77445000D02*
X121507857Y-77445000D01*
X122707857Y-78702142D02*
X122136428Y-78302142D01*
X122707857Y-78016428D02*
X121507857Y-78016428D01*
X121507857Y-78473571D01*
X121565000Y-78587857D01*
X121622142Y-78645000D01*
X121736428Y-78702142D01*
X121907857Y-78702142D01*
X122022142Y-78645000D01*
X122079285Y-78587857D01*
X122136428Y-78473571D01*
X122136428Y-78016428D01*
X122707857Y-80130714D02*
X121507857Y-80130714D01*
X122365000Y-80530714D01*
X121507857Y-80930714D01*
X122707857Y-80930714D01*
X122650714Y-81959285D02*
X122707857Y-81845000D01*
X122707857Y-81616428D01*
X122650714Y-81502142D01*
X122536428Y-81445000D01*
X122079285Y-81445000D01*
X121965000Y-81502142D01*
X121907857Y-81616428D01*
X121907857Y-81845000D01*
X121965000Y-81959285D01*
X122079285Y-82016428D01*
X122193571Y-82016428D01*
X122307857Y-81445000D01*
X121907857Y-83045000D02*
X122879285Y-83045000D01*
X122993571Y-82987857D01*
X123050714Y-82930714D01*
X123107857Y-82816428D01*
X123107857Y-82645000D01*
X123050714Y-82530714D01*
X122650714Y-83045000D02*
X122707857Y-82930714D01*
X122707857Y-82702142D01*
X122650714Y-82587857D01*
X122593571Y-82530714D01*
X122479285Y-82473571D01*
X122136428Y-82473571D01*
X122022142Y-82530714D01*
X121965000Y-82587857D01*
X121907857Y-82702142D01*
X121907857Y-82930714D01*
X121965000Y-83045000D01*
X122707857Y-84130714D02*
X122079285Y-84130714D01*
X121965000Y-84073571D01*
X121907857Y-83959285D01*
X121907857Y-83730714D01*
X121965000Y-83616428D01*
X122650714Y-84130714D02*
X122707857Y-84016428D01*
X122707857Y-83730714D01*
X122650714Y-83616428D01*
X122536428Y-83559285D01*
X122422142Y-83559285D01*
X122307857Y-83616428D01*
X122250714Y-83730714D01*
X122250714Y-84016428D01*
X122193571Y-84130714D01*
X122079285Y-85102142D02*
X122136428Y-85273571D01*
X122193571Y-85330714D01*
X122307857Y-85387857D01*
X122479285Y-85387857D01*
X122593571Y-85330714D01*
X122650714Y-85273571D01*
X122707857Y-85159285D01*
X122707857Y-84702142D01*
X121507857Y-84702142D01*
X121507857Y-85102142D01*
X121565000Y-85216428D01*
X121622142Y-85273571D01*
X121736428Y-85330714D01*
X121850714Y-85330714D01*
X121965000Y-85273571D01*
X122022142Y-85216428D01*
X122079285Y-85102142D01*
X122079285Y-84702142D01*
X122707857Y-86073571D02*
X122650714Y-85959285D01*
X122536428Y-85902142D01*
X121507857Y-85902142D01*
X122707857Y-87045000D02*
X122079285Y-87045000D01*
X121965000Y-86987857D01*
X121907857Y-86873571D01*
X121907857Y-86645000D01*
X121965000Y-86530714D01*
X122650714Y-87045000D02*
X122707857Y-86930714D01*
X122707857Y-86645000D01*
X122650714Y-86530714D01*
X122536428Y-86473571D01*
X122422142Y-86473571D01*
X122307857Y-86530714D01*
X122250714Y-86645000D01*
X122250714Y-86930714D01*
X122193571Y-87045000D01*
X122650714Y-87559285D02*
X122707857Y-87673571D01*
X122707857Y-87902142D01*
X122650714Y-88016428D01*
X122536428Y-88073571D01*
X122479285Y-88073571D01*
X122365000Y-88016428D01*
X122307857Y-87902142D01*
X122307857Y-87730714D01*
X122250714Y-87616428D01*
X122136428Y-87559285D01*
X122079285Y-87559285D01*
X121965000Y-87616428D01*
X121907857Y-87730714D01*
X121907857Y-87902142D01*
X121965000Y-88016428D01*
X121907857Y-88416428D02*
X121907857Y-88873571D01*
X121507857Y-88587857D02*
X122536428Y-88587857D01*
X122650714Y-88645000D01*
X122707857Y-88759285D01*
X122707857Y-88873571D01*
X122650714Y-89730714D02*
X122707857Y-89616428D01*
X122707857Y-89387857D01*
X122650714Y-89273571D01*
X122536428Y-89216428D01*
X122079285Y-89216428D01*
X121965000Y-89273571D01*
X121907857Y-89387857D01*
X121907857Y-89616428D01*
X121965000Y-89730714D01*
X122079285Y-89787857D01*
X122193571Y-89787857D01*
X122307857Y-89216428D01*
X122707857Y-90302142D02*
X121907857Y-90302142D01*
X122136428Y-90302142D02*
X122022142Y-90359285D01*
X121965000Y-90416428D01*
X121907857Y-90530714D01*
X121907857Y-90645000D01*
X124757857Y-70473571D02*
X124129285Y-70473571D01*
X124015000Y-70416428D01*
X123957857Y-70302142D01*
X123957857Y-70073571D01*
X124015000Y-69959285D01*
X124700714Y-70473571D02*
X124757857Y-70359285D01*
X124757857Y-70073571D01*
X124700714Y-69959285D01*
X124586428Y-69902142D01*
X124472142Y-69902142D01*
X124357857Y-69959285D01*
X124300714Y-70073571D01*
X124300714Y-70359285D01*
X124243571Y-70473571D01*
X123957857Y-71045000D02*
X124757857Y-71045000D01*
X124072142Y-71045000D02*
X124015000Y-71102142D01*
X123957857Y-71216428D01*
X123957857Y-71387857D01*
X124015000Y-71502142D01*
X124129285Y-71559285D01*
X124757857Y-71559285D01*
X124757857Y-72645000D02*
X123557857Y-72645000D01*
X124700714Y-72645000D02*
X124757857Y-72530714D01*
X124757857Y-72302142D01*
X124700714Y-72187857D01*
X124643571Y-72130714D01*
X124529285Y-72073571D01*
X124186428Y-72073571D01*
X124072142Y-72130714D01*
X124015000Y-72187857D01*
X123957857Y-72302142D01*
X123957857Y-72530714D01*
X124015000Y-72645000D01*
X124757857Y-74702142D02*
X124757857Y-74130714D01*
X123557857Y-74130714D01*
X124129285Y-75102142D02*
X124129285Y-75502142D01*
X124757857Y-75673571D02*
X124757857Y-75102142D01*
X123557857Y-75102142D01*
X123557857Y-75673571D01*
X124757857Y-76187857D02*
X123557857Y-76187857D01*
X123557857Y-76473571D01*
X123615000Y-76645000D01*
X123729285Y-76759285D01*
X123843571Y-76816428D01*
X124072142Y-76873571D01*
X124243571Y-76873571D01*
X124472142Y-76816428D01*
X124586428Y-76759285D01*
X124700714Y-76645000D01*
X124757857Y-76473571D01*
X124757857Y-76187857D01*
X124643571Y-78987857D02*
X124700714Y-78930714D01*
X124757857Y-78759285D01*
X124757857Y-78645000D01*
X124700714Y-78473571D01*
X124586428Y-78359285D01*
X124472142Y-78302142D01*
X124243571Y-78245000D01*
X124072142Y-78245000D01*
X123843571Y-78302142D01*
X123729285Y-78359285D01*
X123615000Y-78473571D01*
X123557857Y-78645000D01*
X123557857Y-78759285D01*
X123615000Y-78930714D01*
X123672142Y-78987857D01*
X124757857Y-79673571D02*
X124700714Y-79559285D01*
X124643571Y-79502142D01*
X124529285Y-79445000D01*
X124186428Y-79445000D01*
X124072142Y-79502142D01*
X124015000Y-79559285D01*
X123957857Y-79673571D01*
X123957857Y-79845000D01*
X124015000Y-79959285D01*
X124072142Y-80016428D01*
X124186428Y-80073571D01*
X124529285Y-80073571D01*
X124643571Y-80016428D01*
X124700714Y-79959285D01*
X124757857Y-79845000D01*
X124757857Y-79673571D01*
X123957857Y-80587857D02*
X124757857Y-80587857D01*
X124072142Y-80587857D02*
X124015000Y-80645000D01*
X123957857Y-80759285D01*
X123957857Y-80930714D01*
X124015000Y-81045000D01*
X124129285Y-81102142D01*
X124757857Y-81102142D01*
X123957857Y-81502142D02*
X123957857Y-81959285D01*
X123557857Y-81673571D02*
X124586428Y-81673571D01*
X124700714Y-81730714D01*
X124757857Y-81845000D01*
X124757857Y-81959285D01*
X124757857Y-82359285D02*
X123957857Y-82359285D01*
X124186428Y-82359285D02*
X124072142Y-82416428D01*
X124015000Y-82473571D01*
X123957857Y-82587857D01*
X123957857Y-82702142D01*
X124757857Y-83273571D02*
X124700714Y-83159285D01*
X124643571Y-83102142D01*
X124529285Y-83045000D01*
X124186428Y-83045000D01*
X124072142Y-83102142D01*
X124015000Y-83159285D01*
X123957857Y-83273571D01*
X123957857Y-83445000D01*
X124015000Y-83559285D01*
X124072142Y-83616428D01*
X124186428Y-83673571D01*
X124529285Y-83673571D01*
X124643571Y-83616428D01*
X124700714Y-83559285D01*
X124757857Y-83445000D01*
X124757857Y-83273571D01*
X124757857Y-84359285D02*
X124700714Y-84245000D01*
X124586428Y-84187857D01*
X123557857Y-84187857D01*
X124757857Y-84987857D02*
X124700714Y-84873571D01*
X124586428Y-84816428D01*
X123557857Y-84816428D01*
X124700714Y-85902142D02*
X124757857Y-85787857D01*
X124757857Y-85559285D01*
X124700714Y-85445000D01*
X124586428Y-85387857D01*
X124129285Y-85387857D01*
X124015000Y-85445000D01*
X123957857Y-85559285D01*
X123957857Y-85787857D01*
X124015000Y-85902142D01*
X124129285Y-85959285D01*
X124243571Y-85959285D01*
X124357857Y-85387857D01*
X124757857Y-86473571D02*
X123957857Y-86473571D01*
X124186428Y-86473571D02*
X124072142Y-86530714D01*
X124015000Y-86587857D01*
X123957857Y-86702142D01*
X123957857Y-86816428D01*
X123957857Y-88016428D02*
X124757857Y-88302142D01*
X123957857Y-88587857D01*
X124757857Y-89673571D02*
X124757857Y-88987857D01*
X124757857Y-89330714D02*
X123557857Y-89330714D01*
X123729285Y-89216428D01*
X123843571Y-89102142D01*
X123900714Y-88987857D01*
X124643571Y-90187857D02*
X124700714Y-90245000D01*
X124757857Y-90187857D01*
X124700714Y-90130714D01*
X124643571Y-90187857D01*
X124757857Y-90187857D01*
X123557857Y-90645000D02*
X123557857Y-91387857D01*
X124015000Y-90987857D01*
X124015000Y-91159285D01*
X124072142Y-91273571D01*
X124129285Y-91330714D01*
X124243571Y-91387857D01*
X124529285Y-91387857D01*
X124643571Y-91330714D01*
X124700714Y-91273571D01*
X124757857Y-91159285D01*
X124757857Y-90816428D01*
X124700714Y-90702142D01*
X124643571Y-90645000D01*
D11*
X165489500Y-66864666D02*
X165889500Y-66864666D01*
X165689500Y-66864666D02*
X165689500Y-66164666D01*
X165756166Y-66264666D01*
X165822833Y-66331333D01*
X165889500Y-66364666D01*
X164889500Y-66164666D02*
X165022833Y-66164666D01*
X165089500Y-66198000D01*
X165122833Y-66231333D01*
X165189500Y-66331333D01*
X165222833Y-66464666D01*
X165222833Y-66731333D01*
X165189500Y-66798000D01*
X165156166Y-66831333D01*
X165089500Y-66864666D01*
X164956166Y-66864666D01*
X164889500Y-66831333D01*
X164856166Y-66798000D01*
X164822833Y-66731333D01*
X164822833Y-66564666D01*
X164856166Y-66498000D01*
X164889500Y-66464666D01*
X164956166Y-66431333D01*
X165089500Y-66431333D01*
X165156166Y-66464666D01*
X165189500Y-66498000D01*
X165222833Y-66564666D01*
X165857833Y-70422333D02*
X165824500Y-70389000D01*
X165757833Y-70355666D01*
X165591166Y-70355666D01*
X165524500Y-70389000D01*
X165491166Y-70422333D01*
X165457833Y-70489000D01*
X165457833Y-70555666D01*
X165491166Y-70655666D01*
X165891166Y-71055666D01*
X165457833Y-71055666D01*
X165889500Y-89853333D02*
X165856166Y-89820000D01*
X165789500Y-89786666D01*
X165622833Y-89786666D01*
X165556166Y-89820000D01*
X165522833Y-89853333D01*
X165489500Y-89920000D01*
X165489500Y-89986666D01*
X165522833Y-90086666D01*
X165922833Y-90486666D01*
X165489500Y-90486666D01*
X165256166Y-89786666D02*
X164789500Y-89786666D01*
X165089500Y-90486666D01*
X143262333Y-89851666D02*
X143662333Y-89851666D01*
X143462333Y-89851666D02*
X143462333Y-89151666D01*
X143529000Y-89251666D01*
X143595666Y-89318333D01*
X143662333Y-89351666D01*
X142662333Y-89385000D02*
X142662333Y-89851666D01*
X142829000Y-89118333D02*
X142995666Y-89618333D01*
X142562333Y-89618333D01*
X171710333Y-66864666D02*
X172110333Y-66864666D01*
X171910333Y-66864666D02*
X171910333Y-66164666D01*
X171977000Y-66264666D01*
X172043666Y-66331333D01*
X172110333Y-66364666D01*
X171443666Y-66231333D02*
X171410333Y-66198000D01*
X171343666Y-66164666D01*
X171177000Y-66164666D01*
X171110333Y-66198000D01*
X171077000Y-66231333D01*
X171043666Y-66298000D01*
X171043666Y-66364666D01*
X171077000Y-66464666D01*
X171477000Y-66864666D01*
X171043666Y-66864666D01*
X171710333Y-71055666D02*
X172110333Y-71055666D01*
X171910333Y-71055666D02*
X171910333Y-70355666D01*
X171977000Y-70455666D01*
X172043666Y-70522333D01*
X172110333Y-70555666D01*
X171443666Y-70422333D02*
X171410333Y-70389000D01*
X171343666Y-70355666D01*
X171177000Y-70355666D01*
X171110333Y-70389000D01*
X171077000Y-70422333D01*
X171043666Y-70489000D01*
X171043666Y-70555666D01*
X171077000Y-70655666D01*
X171477000Y-71055666D01*
X171043666Y-71055666D01*
X171710333Y-90486666D02*
X172110333Y-90486666D01*
X171910333Y-90486666D02*
X171910333Y-89786666D01*
X171977000Y-89886666D01*
X172043666Y-89953333D01*
X172110333Y-89986666D01*
X171443666Y-89853333D02*
X171410333Y-89820000D01*
X171343666Y-89786666D01*
X171177000Y-89786666D01*
X171110333Y-89820000D01*
X171077000Y-89853333D01*
X171043666Y-89920000D01*
X171043666Y-89986666D01*
X171077000Y-90086666D01*
X171477000Y-90486666D01*
X171043666Y-90486666D01*
X149104333Y-89851666D02*
X149504333Y-89851666D01*
X149304333Y-89851666D02*
X149304333Y-89151666D01*
X149371000Y-89251666D01*
X149437666Y-89318333D01*
X149504333Y-89351666D01*
X148837666Y-89218333D02*
X148804333Y-89185000D01*
X148737666Y-89151666D01*
X148571000Y-89151666D01*
X148504333Y-89185000D01*
X148471000Y-89218333D01*
X148437666Y-89285000D01*
X148437666Y-89351666D01*
X148471000Y-89451666D01*
X148871000Y-89851666D01*
X148437666Y-89851666D01*
X183555000Y-67350000D02*
G75*
G02X183630000Y-65925000I-675000J750000D01*
G01*
D13*
X183055000Y-66600000D02*
G75*
G03X183055000Y-66600000I-175000J0D01*
G01*
D11*
X186805000Y-66600000D02*
G75*
G03X186805000Y-66600000I-925000J0D01*
G01*
X180805000Y-66600000D02*
G75*
G03X180805000Y-66600000I-925000J0D01*
G01*
X180880000Y-66600000D02*
X181780000Y-66600000D01*
X182880000Y-66600000D02*
X184880000Y-66600000D01*
D10*
X144000000Y-89835000D02*
G75*
G03X144700000Y-90535000I700000J0D01*
G01*
X144700000Y-88535000D02*
G75*
G03X144000000Y-89235000I0J-700000D01*
G01*
X148100000Y-89235000D02*
G75*
G03X147400000Y-88535000I-700000J0D01*
G01*
X147400000Y-90535000D02*
G75*
G03X148100000Y-89835000I0J700000D01*
G01*
X144650000Y-90535000D02*
X147450000Y-90535000D01*
X148100000Y-89835000D02*
X148100000Y-89235000D01*
X147450000Y-88535000D02*
X144650000Y-88535000D01*
X144000000Y-89235000D02*
X144000000Y-89835000D01*
X144850000Y-88335000D02*
X144550000Y-88035000D01*
X144550000Y-88035000D02*
X145150000Y-88035000D01*
X144850000Y-88335000D02*
X145150000Y-88035000D01*
X152465000Y-77105000D02*
X151065000Y-77105000D01*
X150365000Y-77805000D02*
X150365000Y-78405000D01*
X151065000Y-79105000D02*
X152465000Y-79105000D01*
X153165000Y-78405000D02*
X153165000Y-77805000D01*
X153165000Y-77805000D02*
G75*
G03X152465000Y-77105000I-700000J0D01*
G01*
X152465000Y-79105000D02*
G75*
G03X153165000Y-78405000I0J700000D01*
G01*
X150365000Y-78405000D02*
G75*
G03X151065000Y-79105000I700000J0D01*
G01*
X151065000Y-77105000D02*
G75*
G03X150365000Y-77805000I0J-700000D01*
G01*
X155305000Y-71566000D02*
X155305000Y-70166000D01*
X154605000Y-69466000D02*
X154005000Y-69466000D01*
X153305000Y-70166000D02*
X153305000Y-71566000D01*
X154005000Y-72266000D02*
X154605000Y-72266000D01*
X154605000Y-72266000D02*
G75*
G03X155305000Y-71566000I0J700000D01*
G01*
X153305000Y-71566000D02*
G75*
G03X154005000Y-72266000I700000J0D01*
G01*
X154005000Y-69466000D02*
G75*
G03X153305000Y-70166000I0J-700000D01*
G01*
X155305000Y-70166000D02*
G75*
G03X154605000Y-69466000I-700000J0D01*
G01*
X166352000Y-66848000D02*
G75*
G03X167052000Y-67548000I700000J0D01*
G01*
X167052000Y-65548000D02*
G75*
G03X166352000Y-66248000I0J-700000D01*
G01*
X170452000Y-66248000D02*
G75*
G03X169752000Y-65548000I-700000J0D01*
G01*
X169752000Y-67548000D02*
G75*
G03X170452000Y-66848000I0J700000D01*
G01*
X167002000Y-67548000D02*
X169802000Y-67548000D01*
X170452000Y-66848000D02*
X170452000Y-66248000D01*
X169802000Y-65548000D02*
X167002000Y-65548000D01*
X166352000Y-66248000D02*
X166352000Y-66848000D01*
X167202000Y-65348000D02*
X166902000Y-65048000D01*
X166902000Y-65048000D02*
X167502000Y-65048000D01*
X167202000Y-65348000D02*
X167502000Y-65048000D01*
X166352000Y-71039000D02*
G75*
G03X167052000Y-71739000I700000J0D01*
G01*
X167052000Y-69739000D02*
G75*
G03X166352000Y-70439000I0J-700000D01*
G01*
X170452000Y-70439000D02*
G75*
G03X169752000Y-69739000I-700000J0D01*
G01*
X169752000Y-71739000D02*
G75*
G03X170452000Y-71039000I0J700000D01*
G01*
X167002000Y-71739000D02*
X169802000Y-71739000D01*
X170452000Y-71039000D02*
X170452000Y-70439000D01*
X169802000Y-69739000D02*
X167002000Y-69739000D01*
X166352000Y-70439000D02*
X166352000Y-71039000D01*
X167202000Y-69539000D02*
X166902000Y-69239000D01*
X166902000Y-69239000D02*
X167502000Y-69239000D01*
X167202000Y-69539000D02*
X167502000Y-69239000D01*
X166352000Y-90470000D02*
G75*
G03X167052000Y-91170000I700000J0D01*
G01*
X167052000Y-89170000D02*
G75*
G03X166352000Y-89870000I0J-700000D01*
G01*
X170452000Y-89870000D02*
G75*
G03X169752000Y-89170000I-700000J0D01*
G01*
X169752000Y-91170000D02*
G75*
G03X170452000Y-90470000I0J700000D01*
G01*
X167002000Y-91170000D02*
X169802000Y-91170000D01*
X170452000Y-90470000D02*
X170452000Y-89870000D01*
X169802000Y-89170000D02*
X167002000Y-89170000D01*
X166352000Y-89870000D02*
X166352000Y-90470000D01*
X167202000Y-88970000D02*
X166902000Y-88670000D01*
X166902000Y-88670000D02*
X167502000Y-88670000D01*
X167202000Y-88970000D02*
X167502000Y-88670000D01*
X164276000Y-78121000D02*
X162876000Y-78121000D01*
X162176000Y-78821000D02*
X162176000Y-79421000D01*
X162876000Y-80121000D02*
X164276000Y-80121000D01*
X164976000Y-79421000D02*
X164976000Y-78821000D01*
X164976000Y-78821000D02*
G75*
G03X164276000Y-78121000I-700000J0D01*
G01*
X164276000Y-80121000D02*
G75*
G03X164976000Y-79421000I0J700000D01*
G01*
X162176000Y-79421000D02*
G75*
G03X162876000Y-80121000I700000J0D01*
G01*
X162876000Y-78121000D02*
G75*
G03X162176000Y-78821000I0J-700000D01*
G01*
X164276000Y-86249000D02*
X162876000Y-86249000D01*
X162176000Y-86949000D02*
X162176000Y-87549000D01*
X162876000Y-88249000D02*
X164276000Y-88249000D01*
X164976000Y-87549000D02*
X164976000Y-86949000D01*
X164976000Y-86949000D02*
G75*
G03X164276000Y-86249000I-700000J0D01*
G01*
X164276000Y-88249000D02*
G75*
G03X164976000Y-87549000I0J700000D01*
G01*
X162176000Y-87549000D02*
G75*
G03X162876000Y-88249000I700000J0D01*
G01*
X162876000Y-86249000D02*
G75*
G03X162176000Y-86949000I0J-700000D01*
G01*
D14*
X146883333Y-86828380D02*
X146883333Y-87542666D01*
X146930952Y-87685523D01*
X147026190Y-87780761D01*
X147169047Y-87828380D01*
X147264285Y-87828380D01*
X146407142Y-87828380D02*
X146407142Y-86828380D01*
X146026190Y-86828380D01*
X145930952Y-86876000D01*
X145883333Y-86923619D01*
X145835714Y-87018857D01*
X145835714Y-87161714D01*
X145883333Y-87256952D01*
X145930952Y-87304571D01*
X146026190Y-87352190D01*
X146407142Y-87352190D01*
X145264285Y-87256952D02*
X145359523Y-87209333D01*
X145407142Y-87161714D01*
X145454761Y-87066476D01*
X145454761Y-87018857D01*
X145407142Y-86923619D01*
X145359523Y-86876000D01*
X145264285Y-86828380D01*
X145073809Y-86828380D01*
X144978571Y-86876000D01*
X144930952Y-86923619D01*
X144883333Y-87018857D01*
X144883333Y-87066476D01*
X144930952Y-87161714D01*
X144978571Y-87209333D01*
X145073809Y-87256952D01*
X145264285Y-87256952D01*
X145359523Y-87304571D01*
X145407142Y-87352190D01*
X145454761Y-87447428D01*
X145454761Y-87637904D01*
X145407142Y-87733142D01*
X145359523Y-87780761D01*
X145264285Y-87828380D01*
X145073809Y-87828380D01*
X144978571Y-87780761D01*
X144930952Y-87733142D01*
X144883333Y-87637904D01*
X144883333Y-87447428D01*
X144930952Y-87352190D01*
X144978571Y-87304571D01*
X145073809Y-87256952D01*
D11*
X147100000Y-91629666D02*
X147433333Y-91629666D01*
X147433333Y-90929666D01*
X146866666Y-91263000D02*
X146633333Y-91263000D01*
X146533333Y-91629666D02*
X146866666Y-91629666D01*
X146866666Y-90929666D01*
X146533333Y-90929666D01*
X146233333Y-91629666D02*
X146233333Y-90929666D01*
X146066666Y-90929666D01*
X145966666Y-90963000D01*
X145900000Y-91029666D01*
X145866666Y-91096333D01*
X145833333Y-91229666D01*
X145833333Y-91329666D01*
X145866666Y-91463000D01*
X145900000Y-91529666D01*
X145966666Y-91596333D01*
X146066666Y-91629666D01*
X146233333Y-91629666D01*
X145033333Y-90996333D02*
X145000000Y-90963000D01*
X144933333Y-90929666D01*
X144766666Y-90929666D01*
X144700000Y-90963000D01*
X144666666Y-90996333D01*
X144633333Y-91063000D01*
X144633333Y-91129666D01*
X144666666Y-91229666D01*
X145066666Y-91629666D01*
X144633333Y-91629666D01*
D14*
X152598333Y-75757380D02*
X152598333Y-76471666D01*
X152645952Y-76614523D01*
X152741190Y-76709761D01*
X152884047Y-76757380D01*
X152979285Y-76757380D01*
X152122142Y-76757380D02*
X152122142Y-75757380D01*
X151741190Y-75757380D01*
X151645952Y-75805000D01*
X151598333Y-75852619D01*
X151550714Y-75947857D01*
X151550714Y-76090714D01*
X151598333Y-76185952D01*
X151645952Y-76233571D01*
X151741190Y-76281190D01*
X152122142Y-76281190D01*
X151217380Y-75757380D02*
X150550714Y-75757380D01*
X150979285Y-76757380D01*
D11*
X152281666Y-80199666D02*
X152281666Y-79499666D01*
X152115000Y-79499666D01*
X152015000Y-79533000D01*
X151948333Y-79599666D01*
X151915000Y-79666333D01*
X151881666Y-79799666D01*
X151881666Y-79899666D01*
X151915000Y-80033000D01*
X151948333Y-80099666D01*
X152015000Y-80166333D01*
X152115000Y-80199666D01*
X152281666Y-80199666D01*
X151548333Y-80199666D02*
X151415000Y-80199666D01*
X151348333Y-80166333D01*
X151315000Y-80133000D01*
X151248333Y-80033000D01*
X151215000Y-79899666D01*
X151215000Y-79633000D01*
X151248333Y-79566333D01*
X151281666Y-79533000D01*
X151348333Y-79499666D01*
X151481666Y-79499666D01*
X151548333Y-79533000D01*
X151581666Y-79566333D01*
X151615000Y-79633000D01*
X151615000Y-79799666D01*
X151581666Y-79866333D01*
X151548333Y-79899666D01*
X151481666Y-79933000D01*
X151348333Y-79933000D01*
X151281666Y-79899666D01*
X151248333Y-79866333D01*
X151215000Y-79799666D01*
X153181666Y-80595000D02*
X153081666Y-80628333D01*
X153048333Y-80661666D01*
X153015000Y-80728333D01*
X153015000Y-80828333D01*
X153048333Y-80895000D01*
X153081666Y-80928333D01*
X153148333Y-80961666D01*
X153415000Y-80961666D01*
X153415000Y-80261666D01*
X153181666Y-80261666D01*
X153115000Y-80295000D01*
X153081666Y-80328333D01*
X153048333Y-80395000D01*
X153048333Y-80461666D01*
X153081666Y-80528333D01*
X153115000Y-80561666D01*
X153181666Y-80595000D01*
X153415000Y-80595000D01*
X152781666Y-80495000D02*
X152615000Y-80961666D01*
X152448333Y-80495000D02*
X152615000Y-80961666D01*
X152681666Y-81128333D01*
X152715000Y-81161666D01*
X152781666Y-81195000D01*
X152181666Y-80495000D02*
X152181666Y-81195000D01*
X152181666Y-80528333D02*
X152115000Y-80495000D01*
X151981666Y-80495000D01*
X151915000Y-80528333D01*
X151881666Y-80561666D01*
X151848333Y-80628333D01*
X151848333Y-80828333D01*
X151881666Y-80895000D01*
X151915000Y-80928333D01*
X151981666Y-80961666D01*
X152115000Y-80961666D01*
X152181666Y-80928333D01*
X151248333Y-80961666D02*
X151248333Y-80595000D01*
X151281666Y-80528333D01*
X151348333Y-80495000D01*
X151481666Y-80495000D01*
X151548333Y-80528333D01*
X151248333Y-80928333D02*
X151315000Y-80961666D01*
X151481666Y-80961666D01*
X151548333Y-80928333D01*
X151581666Y-80861666D01*
X151581666Y-80795000D01*
X151548333Y-80728333D01*
X151481666Y-80695000D01*
X151315000Y-80695000D01*
X151248333Y-80661666D01*
X150948333Y-80928333D02*
X150881666Y-80961666D01*
X150748333Y-80961666D01*
X150681666Y-80928333D01*
X150648333Y-80861666D01*
X150648333Y-80828333D01*
X150681666Y-80761666D01*
X150748333Y-80728333D01*
X150848333Y-80728333D01*
X150915000Y-80695000D01*
X150948333Y-80628333D01*
X150948333Y-80595000D01*
X150915000Y-80528333D01*
X150848333Y-80495000D01*
X150748333Y-80495000D01*
X150681666Y-80528333D01*
X150381666Y-80928333D02*
X150315000Y-80961666D01*
X150181666Y-80961666D01*
X150115000Y-80928333D01*
X150081666Y-80861666D01*
X150081666Y-80828333D01*
X150115000Y-80761666D01*
X150181666Y-80728333D01*
X150281666Y-80728333D01*
X150348333Y-80695000D01*
X150381666Y-80628333D01*
X150381666Y-80595000D01*
X150348333Y-80528333D01*
X150281666Y-80495000D01*
X150181666Y-80495000D01*
X150115000Y-80528333D01*
D14*
X155557380Y-70032666D02*
X156271666Y-70032666D01*
X156414523Y-69985047D01*
X156509761Y-69889809D01*
X156557380Y-69746952D01*
X156557380Y-69651714D01*
X156557380Y-70508857D02*
X155557380Y-70508857D01*
X155557380Y-70889809D01*
X155605000Y-70985047D01*
X155652619Y-71032666D01*
X155747857Y-71080285D01*
X155890714Y-71080285D01*
X155985952Y-71032666D01*
X156033571Y-70985047D01*
X156081190Y-70889809D01*
X156081190Y-70508857D01*
X155557380Y-71937428D02*
X155557380Y-71746952D01*
X155605000Y-71651714D01*
X155652619Y-71604095D01*
X155795476Y-71508857D01*
X155985952Y-71461238D01*
X156366904Y-71461238D01*
X156462142Y-71508857D01*
X156509761Y-71556476D01*
X156557380Y-71651714D01*
X156557380Y-71842190D01*
X156509761Y-71937428D01*
X156462142Y-71985047D01*
X156366904Y-72032666D01*
X156128809Y-72032666D01*
X156033571Y-71985047D01*
X155985952Y-71937428D01*
X155938333Y-71842190D01*
X155938333Y-71651714D01*
X155985952Y-71556476D01*
X156033571Y-71508857D01*
X156128809Y-71461238D01*
D11*
X152970666Y-69832666D02*
X152270666Y-69832666D01*
X152270666Y-70299333D02*
X152270666Y-70432666D01*
X152304000Y-70499333D01*
X152370666Y-70566000D01*
X152504000Y-70599333D01*
X152737333Y-70599333D01*
X152870666Y-70566000D01*
X152937333Y-70499333D01*
X152970666Y-70432666D01*
X152970666Y-70299333D01*
X152937333Y-70232666D01*
X152870666Y-70166000D01*
X152737333Y-70132666D01*
X152504000Y-70132666D01*
X152370666Y-70166000D01*
X152304000Y-70232666D01*
X152270666Y-70299333D01*
X152970666Y-71266000D02*
X152970666Y-70866000D01*
X152970666Y-71066000D02*
X152270666Y-71066000D01*
X152370666Y-70999333D01*
X152437333Y-70932666D01*
X152470666Y-70866000D01*
X152270666Y-71899333D02*
X152270666Y-71566000D01*
X152604000Y-71532666D01*
X152570666Y-71566000D01*
X152537333Y-71632666D01*
X152537333Y-71799333D01*
X152570666Y-71866000D01*
X152604000Y-71899333D01*
X152670666Y-71932666D01*
X152837333Y-71932666D01*
X152904000Y-71899333D01*
X152937333Y-71866000D01*
X152970666Y-71799333D01*
X152970666Y-71632666D01*
X152937333Y-71566000D01*
X152904000Y-71532666D01*
D14*
X169235333Y-67800380D02*
X169235333Y-68514666D01*
X169282952Y-68657523D01*
X169378190Y-68752761D01*
X169521047Y-68800380D01*
X169616285Y-68800380D01*
X168759142Y-68800380D02*
X168759142Y-67800380D01*
X168378190Y-67800380D01*
X168282952Y-67848000D01*
X168235333Y-67895619D01*
X168187714Y-67990857D01*
X168187714Y-68133714D01*
X168235333Y-68228952D01*
X168282952Y-68276571D01*
X168378190Y-68324190D01*
X168759142Y-68324190D01*
X167282952Y-67800380D02*
X167759142Y-67800380D01*
X167806761Y-68276571D01*
X167759142Y-68228952D01*
X167663904Y-68181333D01*
X167425809Y-68181333D01*
X167330571Y-68228952D01*
X167282952Y-68276571D01*
X167235333Y-68371809D01*
X167235333Y-68609904D01*
X167282952Y-68705142D01*
X167330571Y-68752761D01*
X167425809Y-68800380D01*
X167663904Y-68800380D01*
X167759142Y-68752761D01*
X167806761Y-68705142D01*
X169235333Y-71991380D02*
X169235333Y-72705666D01*
X169282952Y-72848523D01*
X169378190Y-72943761D01*
X169521047Y-72991380D01*
X169616285Y-72991380D01*
X168759142Y-72991380D02*
X168759142Y-71991380D01*
X168378190Y-71991380D01*
X168282952Y-72039000D01*
X168235333Y-72086619D01*
X168187714Y-72181857D01*
X168187714Y-72324714D01*
X168235333Y-72419952D01*
X168282952Y-72467571D01*
X168378190Y-72515190D01*
X168759142Y-72515190D01*
X167330571Y-72324714D02*
X167330571Y-72991380D01*
X167568666Y-71943761D02*
X167806761Y-72658047D01*
X167187714Y-72658047D01*
X169235333Y-91422380D02*
X169235333Y-92136666D01*
X169282952Y-92279523D01*
X169378190Y-92374761D01*
X169521047Y-92422380D01*
X169616285Y-92422380D01*
X168759142Y-92422380D02*
X168759142Y-91422380D01*
X168378190Y-91422380D01*
X168282952Y-91470000D01*
X168235333Y-91517619D01*
X168187714Y-91612857D01*
X168187714Y-91755714D01*
X168235333Y-91850952D01*
X168282952Y-91898571D01*
X168378190Y-91946190D01*
X168759142Y-91946190D01*
X167854380Y-91422380D02*
X167235333Y-91422380D01*
X167568666Y-91803333D01*
X167425809Y-91803333D01*
X167330571Y-91850952D01*
X167282952Y-91898571D01*
X167235333Y-91993809D01*
X167235333Y-92231904D01*
X167282952Y-92327142D01*
X167330571Y-92374761D01*
X167425809Y-92422380D01*
X167711523Y-92422380D01*
X167806761Y-92374761D01*
X167854380Y-92327142D01*
X164409333Y-76773380D02*
X164409333Y-77487666D01*
X164456952Y-77630523D01*
X164552190Y-77725761D01*
X164695047Y-77773380D01*
X164790285Y-77773380D01*
X163933142Y-77773380D02*
X163933142Y-76773380D01*
X163552190Y-76773380D01*
X163456952Y-76821000D01*
X163409333Y-76868619D01*
X163361714Y-76963857D01*
X163361714Y-77106714D01*
X163409333Y-77201952D01*
X163456952Y-77249571D01*
X163552190Y-77297190D01*
X163933142Y-77297190D01*
X162980761Y-76868619D02*
X162933142Y-76821000D01*
X162837904Y-76773380D01*
X162599809Y-76773380D01*
X162504571Y-76821000D01*
X162456952Y-76868619D01*
X162409333Y-76963857D01*
X162409333Y-77059095D01*
X162456952Y-77201952D01*
X163028380Y-77773380D01*
X162409333Y-77773380D01*
D11*
X164109333Y-80515666D02*
X164109333Y-81082333D01*
X164076000Y-81149000D01*
X164042666Y-81182333D01*
X163976000Y-81215666D01*
X163842666Y-81215666D01*
X163776000Y-81182333D01*
X163742666Y-81149000D01*
X163709333Y-81082333D01*
X163709333Y-80515666D01*
X163409333Y-80582333D02*
X163376000Y-80549000D01*
X163309333Y-80515666D01*
X163142666Y-80515666D01*
X163076000Y-80549000D01*
X163042666Y-80582333D01*
X163009333Y-80649000D01*
X163009333Y-80715666D01*
X163042666Y-80815666D01*
X163442666Y-81215666D01*
X163009333Y-81215666D01*
D14*
X164409333Y-84901380D02*
X164409333Y-85615666D01*
X164456952Y-85758523D01*
X164552190Y-85853761D01*
X164695047Y-85901380D01*
X164790285Y-85901380D01*
X163933142Y-85901380D02*
X163933142Y-84901380D01*
X163552190Y-84901380D01*
X163456952Y-84949000D01*
X163409333Y-84996619D01*
X163361714Y-85091857D01*
X163361714Y-85234714D01*
X163409333Y-85329952D01*
X163456952Y-85377571D01*
X163552190Y-85425190D01*
X163933142Y-85425190D01*
X162409333Y-85901380D02*
X162980761Y-85901380D01*
X162695047Y-85901380D02*
X162695047Y-84901380D01*
X162790285Y-85044238D01*
X162885523Y-85139476D01*
X162980761Y-85187095D01*
D11*
X164109333Y-88643666D02*
X164109333Y-89210333D01*
X164076000Y-89277000D01*
X164042666Y-89310333D01*
X163976000Y-89343666D01*
X163842666Y-89343666D01*
X163776000Y-89310333D01*
X163742666Y-89277000D01*
X163709333Y-89210333D01*
X163709333Y-88643666D01*
X163009333Y-89343666D02*
X163409333Y-89343666D01*
X163209333Y-89343666D02*
X163209333Y-88643666D01*
X163276000Y-88743666D01*
X163342666Y-88810333D01*
X163409333Y-88843666D01*
X190116666Y-79580000D02*
X190116666Y-79713333D01*
X190150000Y-79780000D01*
X190216666Y-79846666D01*
X190350000Y-79880000D01*
X190583333Y-79880000D01*
X190716666Y-79846666D01*
X190783333Y-79780000D01*
X190816666Y-79713333D01*
X190816666Y-79580000D01*
X190783333Y-79513333D01*
X190716666Y-79446666D01*
X190583333Y-79413333D01*
X190350000Y-79413333D01*
X190216666Y-79446666D01*
X190150000Y-79513333D01*
X190116666Y-79580000D01*
X190350000Y-80480000D02*
X190816666Y-80480000D01*
X190350000Y-80180000D02*
X190716666Y-80180000D01*
X190783333Y-80213333D01*
X190816666Y-80280000D01*
X190816666Y-80380000D01*
X190783333Y-80446666D01*
X190750000Y-80480000D01*
X190350000Y-80713333D02*
X190350000Y-80980000D01*
X190116666Y-80813333D02*
X190716666Y-80813333D01*
X190783333Y-80846666D01*
X190816666Y-80913333D01*
X190816666Y-80980000D01*
X190350000Y-81213333D02*
X191050000Y-81213333D01*
X190383333Y-81213333D02*
X190350000Y-81280000D01*
X190350000Y-81413333D01*
X190383333Y-81480000D01*
X190416666Y-81513333D01*
X190483333Y-81546666D01*
X190683333Y-81546666D01*
X190750000Y-81513333D01*
X190783333Y-81480000D01*
X190816666Y-81413333D01*
X190816666Y-81280000D01*
X190783333Y-81213333D01*
X190350000Y-82146666D02*
X190816666Y-82146666D01*
X190350000Y-81846666D02*
X190716666Y-81846666D01*
X190783333Y-81880000D01*
X190816666Y-81946666D01*
X190816666Y-82046666D01*
X190783333Y-82113333D01*
X190750000Y-82146666D01*
X190350000Y-82380000D02*
X190350000Y-82646666D01*
X190116666Y-82480000D02*
X190716666Y-82480000D01*
X190783333Y-82513333D01*
X190816666Y-82580000D01*
X190816666Y-82646666D01*
X190783333Y-82846666D02*
X190816666Y-82913333D01*
X190816666Y-83046666D01*
X190783333Y-83113333D01*
X190716666Y-83146666D01*
X190683333Y-83146666D01*
X190616666Y-83113333D01*
X190583333Y-83046666D01*
X190583333Y-82946666D01*
X190550000Y-82880000D01*
X190483333Y-82846666D01*
X190450000Y-82846666D01*
X190383333Y-82880000D01*
X190350000Y-82946666D01*
X190350000Y-83046666D01*
X190383333Y-83113333D01*
X188911666Y-77446666D02*
X188211666Y-77446666D01*
X188211666Y-77713333D01*
X188245000Y-77780000D01*
X188278333Y-77813333D01*
X188345000Y-77846666D01*
X188445000Y-77846666D01*
X188511666Y-77813333D01*
X188545000Y-77780000D01*
X188578333Y-77713333D01*
X188578333Y-77446666D01*
X188911666Y-78246666D02*
X188878333Y-78180000D01*
X188845000Y-78146666D01*
X188778333Y-78113333D01*
X188578333Y-78113333D01*
X188511666Y-78146666D01*
X188478333Y-78180000D01*
X188445000Y-78246666D01*
X188445000Y-78346666D01*
X188478333Y-78413333D01*
X188511666Y-78446666D01*
X188578333Y-78480000D01*
X188778333Y-78480000D01*
X188845000Y-78446666D01*
X188878333Y-78413333D01*
X188911666Y-78346666D01*
X188911666Y-78246666D01*
X188878333Y-78746666D02*
X188911666Y-78813333D01*
X188911666Y-78946666D01*
X188878333Y-79013333D01*
X188811666Y-79046666D01*
X188778333Y-79046666D01*
X188711666Y-79013333D01*
X188678333Y-78946666D01*
X188678333Y-78846666D01*
X188645000Y-78780000D01*
X188578333Y-78746666D01*
X188545000Y-78746666D01*
X188478333Y-78780000D01*
X188445000Y-78846666D01*
X188445000Y-78946666D01*
X188478333Y-79013333D01*
X188445000Y-79246666D02*
X188445000Y-79513333D01*
X188211666Y-79346666D02*
X188811666Y-79346666D01*
X188878333Y-79380000D01*
X188911666Y-79446666D01*
X188911666Y-79513333D01*
X188645000Y-79746666D02*
X188645000Y-80280000D01*
X188911666Y-80913333D02*
X188211666Y-80913333D01*
X188878333Y-80913333D02*
X188911666Y-80846666D01*
X188911666Y-80713333D01*
X188878333Y-80646666D01*
X188845000Y-80613333D01*
X188778333Y-80580000D01*
X188578333Y-80580000D01*
X188511666Y-80613333D01*
X188478333Y-80646666D01*
X188445000Y-80713333D01*
X188445000Y-80846666D01*
X188478333Y-80913333D01*
X188911666Y-81246666D02*
X188445000Y-81246666D01*
X188211666Y-81246666D02*
X188245000Y-81213333D01*
X188278333Y-81246666D01*
X188245000Y-81280000D01*
X188211666Y-81246666D01*
X188278333Y-81246666D01*
X188911666Y-81680000D02*
X188878333Y-81613333D01*
X188845000Y-81580000D01*
X188778333Y-81546666D01*
X188578333Y-81546666D01*
X188511666Y-81580000D01*
X188478333Y-81613333D01*
X188445000Y-81680000D01*
X188445000Y-81780000D01*
X188478333Y-81846666D01*
X188511666Y-81880000D01*
X188578333Y-81913333D01*
X188778333Y-81913333D01*
X188845000Y-81880000D01*
X188878333Y-81846666D01*
X188911666Y-81780000D01*
X188911666Y-81680000D01*
X188911666Y-82513333D02*
X188211666Y-82513333D01*
X188878333Y-82513333D02*
X188911666Y-82446666D01*
X188911666Y-82313333D01*
X188878333Y-82246666D01*
X188845000Y-82213333D01*
X188778333Y-82180000D01*
X188578333Y-82180000D01*
X188511666Y-82213333D01*
X188478333Y-82246666D01*
X188445000Y-82313333D01*
X188445000Y-82446666D01*
X188478333Y-82513333D01*
X188878333Y-83113333D02*
X188911666Y-83046666D01*
X188911666Y-82913333D01*
X188878333Y-82846666D01*
X188811666Y-82813333D01*
X188545000Y-82813333D01*
X188478333Y-82846666D01*
X188445000Y-82913333D01*
X188445000Y-83046666D01*
X188478333Y-83113333D01*
X188545000Y-83146666D01*
X188611666Y-83146666D01*
X188678333Y-82813333D01*
X188211666Y-83880000D02*
X188911666Y-84113333D01*
X188211666Y-84346666D01*
X188645000Y-84580000D02*
X188645000Y-85113333D01*
X188911666Y-84846666D02*
X188378333Y-84846666D01*
X186297142Y-66622285D02*
X185504761Y-66622285D01*
X185900952Y-67018476D02*
X185900952Y-66226095D01*
X180255238Y-66622285D02*
X179462857Y-66622285D01*
D14*
X183602380Y-72168809D02*
X183602380Y-71978333D01*
X183650000Y-71883095D01*
X183697619Y-71835476D01*
X183840476Y-71740238D01*
X184030952Y-71692619D01*
X184411904Y-71692619D01*
X184507142Y-71740238D01*
X184554761Y-71787857D01*
X184602380Y-71883095D01*
X184602380Y-72073571D01*
X184554761Y-72168809D01*
X184507142Y-72216428D01*
X184411904Y-72264047D01*
X184173809Y-72264047D01*
X184078571Y-72216428D01*
X184030952Y-72168809D01*
X183983333Y-72073571D01*
X183983333Y-71883095D01*
X184030952Y-71787857D01*
X184078571Y-71740238D01*
X184173809Y-71692619D01*
X183602380Y-73311666D02*
X184602380Y-73645000D01*
X183602380Y-73978333D01*
X184602380Y-74311666D02*
X183602380Y-74311666D01*
X183602380Y-74549761D01*
X183650000Y-74692619D01*
X183745238Y-74787857D01*
X183840476Y-74835476D01*
X184030952Y-74883095D01*
X184173809Y-74883095D01*
X184364285Y-74835476D01*
X184459523Y-74787857D01*
X184554761Y-74692619D01*
X184602380Y-74549761D01*
X184602380Y-74311666D01*
X184507142Y-75883095D02*
X184554761Y-75835476D01*
X184602380Y-75692619D01*
X184602380Y-75597380D01*
X184554761Y-75454523D01*
X184459523Y-75359285D01*
X184364285Y-75311666D01*
X184173809Y-75264047D01*
X184030952Y-75264047D01*
X183840476Y-75311666D01*
X183745238Y-75359285D01*
X183650000Y-75454523D01*
X183602380Y-75597380D01*
X183602380Y-75692619D01*
X183650000Y-75835476D01*
X183697619Y-75883095D01*
X184602380Y-77073571D02*
X183935714Y-77073571D01*
X184030952Y-77073571D02*
X183983333Y-77121190D01*
X183935714Y-77216428D01*
X183935714Y-77359285D01*
X183983333Y-77454523D01*
X184078571Y-77502142D01*
X184602380Y-77502142D01*
X184078571Y-77502142D02*
X183983333Y-77549761D01*
X183935714Y-77645000D01*
X183935714Y-77787857D01*
X183983333Y-77883095D01*
X184078571Y-77930714D01*
X184602380Y-77930714D01*
X184602380Y-78835476D02*
X184078571Y-78835476D01*
X183983333Y-78787857D01*
X183935714Y-78692619D01*
X183935714Y-78502142D01*
X183983333Y-78406904D01*
X184554761Y-78835476D02*
X184602380Y-78740238D01*
X184602380Y-78502142D01*
X184554761Y-78406904D01*
X184459523Y-78359285D01*
X184364285Y-78359285D01*
X184269047Y-78406904D01*
X184221428Y-78502142D01*
X184221428Y-78740238D01*
X184173809Y-78835476D01*
X184602380Y-79216428D02*
X183935714Y-79740238D01*
X183935714Y-79216428D02*
X184602380Y-79740238D01*
X184602380Y-80883095D02*
X183935714Y-80883095D01*
X183602380Y-80883095D02*
X183650000Y-80835476D01*
X183697619Y-80883095D01*
X183650000Y-80930714D01*
X183602380Y-80883095D01*
X183697619Y-80883095D01*
X183935714Y-81359285D02*
X184602380Y-81359285D01*
X184030952Y-81359285D02*
X183983333Y-81406904D01*
X183935714Y-81502142D01*
X183935714Y-81645000D01*
X183983333Y-81740238D01*
X184078571Y-81787857D01*
X184602380Y-81787857D01*
X183935714Y-82264047D02*
X184935714Y-82264047D01*
X183983333Y-82264047D02*
X183935714Y-82359285D01*
X183935714Y-82549761D01*
X183983333Y-82645000D01*
X184030952Y-82692619D01*
X184126190Y-82740238D01*
X184411904Y-82740238D01*
X184507142Y-82692619D01*
X184554761Y-82645000D01*
X184602380Y-82549761D01*
X184602380Y-82359285D01*
X184554761Y-82264047D01*
X183935714Y-83597380D02*
X184602380Y-83597380D01*
X183935714Y-83168809D02*
X184459523Y-83168809D01*
X184554761Y-83216428D01*
X184602380Y-83311666D01*
X184602380Y-83454523D01*
X184554761Y-83549761D01*
X184507142Y-83597380D01*
X183935714Y-83930714D02*
X183935714Y-84311666D01*
X183602380Y-84073571D02*
X184459523Y-84073571D01*
X184554761Y-84121190D01*
X184602380Y-84216428D01*
X184602380Y-84311666D01*
X184126190Y-86025952D02*
X184078571Y-85978333D01*
X184030952Y-85883095D01*
X184030952Y-85787857D01*
X184078571Y-85692619D01*
X184126190Y-85645000D01*
X184221428Y-85597380D01*
X184316666Y-85597380D01*
X184411904Y-85645000D01*
X184459523Y-85692619D01*
X184507142Y-85787857D01*
X184507142Y-85883095D01*
X184459523Y-85978333D01*
X184411904Y-86025952D01*
X184030952Y-86025952D02*
X184411904Y-86025952D01*
X184459523Y-86073571D01*
X184459523Y-86121190D01*
X184411904Y-86216428D01*
X184316666Y-86264047D01*
X184078571Y-86264047D01*
X183935714Y-86168809D01*
X183840476Y-86025952D01*
X183792857Y-85835476D01*
X183840476Y-85645000D01*
X183935714Y-85502142D01*
X184078571Y-85406904D01*
X184269047Y-85359285D01*
X184459523Y-85406904D01*
X184602380Y-85502142D01*
X184697619Y-85645000D01*
X184745238Y-85835476D01*
X184697619Y-86025952D01*
X184602380Y-86168809D01*
X184602380Y-87978333D02*
X184602380Y-87406904D01*
X184602380Y-87692619D02*
X183602380Y-87692619D01*
X183745238Y-87597380D01*
X183840476Y-87502142D01*
X183888095Y-87406904D01*
X184316666Y-89121190D02*
X184316666Y-89597380D01*
X184602380Y-89025952D02*
X183602380Y-89359285D01*
X184602380Y-89692619D01*
M02*
