G04 #@! TF.GenerationSoftware,KiCad,Pcbnew,(5.1.5-0-10_14)*
G04 #@! TF.CreationDate,2020-04-02T23:07:03-05:00*
G04 #@! TF.ProjectId,kbxIrBlaster,6b627849-7242-46c6-9173-7465722e6b69,rev?*
G04 #@! TF.SameCoordinates,Original*
G04 #@! TF.FileFunction,Soldermask,Top*
G04 #@! TF.FilePolarity,Negative*
%FSLAX46Y46*%
G04 Gerber Fmt 4.6, Leading zero omitted, Abs format (unit mm)*
G04 Created by KiCad (PCBNEW (5.1.5-0-10_14)) date 2020-04-02 23:07:03*
%MOMM*%
%LPD*%
G04 APERTURE LIST*
%ADD10C,0.100000*%
G04 APERTURE END LIST*
D10*
G36*
X189339098Y-91527033D02*
G01*
X189803350Y-91719332D01*
X189803352Y-91719333D01*
X190221168Y-91998509D01*
X190576491Y-92353832D01*
X190806854Y-92698595D01*
X190855668Y-92771650D01*
X191047967Y-93235902D01*
X191146000Y-93728747D01*
X191146000Y-94231253D01*
X191047967Y-94724098D01*
X190900666Y-95079714D01*
X190855667Y-95188352D01*
X190576491Y-95606168D01*
X190221168Y-95961491D01*
X189803352Y-96240667D01*
X189803351Y-96240668D01*
X189803350Y-96240668D01*
X189339098Y-96432967D01*
X188846253Y-96531000D01*
X188343747Y-96531000D01*
X187850902Y-96432967D01*
X187386650Y-96240668D01*
X187386649Y-96240668D01*
X187386648Y-96240667D01*
X186968832Y-95961491D01*
X186613509Y-95606168D01*
X186334333Y-95188352D01*
X186289334Y-95079714D01*
X186142033Y-94724098D01*
X186044000Y-94231253D01*
X186044000Y-93728747D01*
X186142033Y-93235902D01*
X186334332Y-92771650D01*
X186383146Y-92698595D01*
X186613509Y-92353832D01*
X186968832Y-91998509D01*
X187386648Y-91719333D01*
X187386650Y-91719332D01*
X187850902Y-91527033D01*
X188343747Y-91429000D01*
X188846253Y-91429000D01*
X189339098Y-91527033D01*
G37*
G36*
X162669098Y-91527033D02*
G01*
X163133350Y-91719332D01*
X163133352Y-91719333D01*
X163551168Y-91998509D01*
X163906491Y-92353832D01*
X164136854Y-92698595D01*
X164185668Y-92771650D01*
X164377967Y-93235902D01*
X164476000Y-93728747D01*
X164476000Y-94231253D01*
X164377967Y-94724098D01*
X164230666Y-95079714D01*
X164185667Y-95188352D01*
X163906491Y-95606168D01*
X163551168Y-95961491D01*
X163133352Y-96240667D01*
X163133351Y-96240668D01*
X163133350Y-96240668D01*
X162669098Y-96432967D01*
X162176253Y-96531000D01*
X161673747Y-96531000D01*
X161180902Y-96432967D01*
X160716650Y-96240668D01*
X160716649Y-96240668D01*
X160716648Y-96240667D01*
X160298832Y-95961491D01*
X159943509Y-95606168D01*
X159664333Y-95188352D01*
X159619334Y-95079714D01*
X159472033Y-94724098D01*
X159374000Y-94231253D01*
X159374000Y-93728747D01*
X159472033Y-93235902D01*
X159664332Y-92771650D01*
X159713146Y-92698595D01*
X159943509Y-92353832D01*
X160298832Y-91998509D01*
X160716648Y-91719333D01*
X160716650Y-91719332D01*
X161180902Y-91527033D01*
X161673747Y-91429000D01*
X162176253Y-91429000D01*
X162669098Y-91527033D01*
G37*
G36*
X197691500Y-94901886D02*
G01*
X197692102Y-94914138D01*
X197694649Y-94940000D01*
X197692102Y-94965862D01*
X197691500Y-94978114D01*
X197691500Y-95051406D01*
X197682543Y-95068164D01*
X197678415Y-95079701D01*
X197674624Y-95092196D01*
X197644854Y-95190336D01*
X197584406Y-95303425D01*
X197503054Y-95402554D01*
X197403925Y-95483906D01*
X197290836Y-95544354D01*
X197258904Y-95554040D01*
X197168118Y-95581580D01*
X197104355Y-95587860D01*
X197072474Y-95591000D01*
X196308526Y-95591000D01*
X196276645Y-95587860D01*
X196212882Y-95581580D01*
X196122096Y-95554040D01*
X196090164Y-95544354D01*
X195977075Y-95483906D01*
X195877946Y-95402554D01*
X195796594Y-95303425D01*
X195736146Y-95190336D01*
X195706376Y-95092196D01*
X195702587Y-95079708D01*
X195693213Y-95057075D01*
X195689500Y-95051518D01*
X195689500Y-94978114D01*
X195688898Y-94965862D01*
X195686351Y-94940000D01*
X195688898Y-94914138D01*
X195689500Y-94901886D01*
X195689500Y-93689000D01*
X197691500Y-93689000D01*
X197691500Y-94901886D01*
G37*
G36*
X168411000Y-95381000D02*
G01*
X167409000Y-95381000D01*
X167409000Y-94479000D01*
X168411000Y-94479000D01*
X168411000Y-95381000D01*
G37*
G36*
X194216848Y-88193820D02*
G01*
X194216850Y-88193821D01*
X194216851Y-88193821D01*
X194358074Y-88252317D01*
X194358077Y-88252319D01*
X194485169Y-88337239D01*
X194593261Y-88445331D01*
X194678181Y-88572423D01*
X194678183Y-88572426D01*
X194710729Y-88651000D01*
X194736680Y-88713652D01*
X194766500Y-88863569D01*
X194766500Y-89016431D01*
X194740131Y-89149000D01*
X194736679Y-89166351D01*
X194678183Y-89307574D01*
X194678181Y-89307577D01*
X194593261Y-89434669D01*
X194485169Y-89542761D01*
X194400440Y-89599375D01*
X194358074Y-89627683D01*
X194307772Y-89648519D01*
X194286164Y-89660068D01*
X194267222Y-89675614D01*
X194251677Y-89694556D01*
X194240126Y-89716166D01*
X194233013Y-89739615D01*
X194230611Y-89764001D01*
X194233013Y-89788387D01*
X194240126Y-89811836D01*
X194251677Y-89833447D01*
X194267223Y-89852389D01*
X194286165Y-89867934D01*
X194307775Y-89879485D01*
X194331224Y-89886598D01*
X194355610Y-89889000D01*
X194716500Y-89889000D01*
X194716500Y-92991000D01*
X194355610Y-92991000D01*
X194331224Y-92993402D01*
X194307775Y-93000515D01*
X194286164Y-93012066D01*
X194267222Y-93027611D01*
X194251677Y-93046553D01*
X194240126Y-93068164D01*
X194233013Y-93091613D01*
X194230611Y-93115999D01*
X194233013Y-93140385D01*
X194240126Y-93163834D01*
X194251677Y-93185445D01*
X194267222Y-93204387D01*
X194286164Y-93219932D01*
X194307772Y-93231481D01*
X194358074Y-93252317D01*
X194400440Y-93280625D01*
X194485169Y-93337239D01*
X194593261Y-93445331D01*
X194678181Y-93572423D01*
X194678183Y-93572426D01*
X194736679Y-93713649D01*
X194736680Y-93713652D01*
X194766500Y-93863569D01*
X194766500Y-94016431D01*
X194760847Y-94044853D01*
X194736679Y-94166351D01*
X194678183Y-94307574D01*
X194678181Y-94307577D01*
X194593261Y-94434669D01*
X194485169Y-94542761D01*
X194434564Y-94576574D01*
X194358074Y-94627683D01*
X194216851Y-94686179D01*
X194216850Y-94686179D01*
X194216848Y-94686180D01*
X194066931Y-94716000D01*
X193914069Y-94716000D01*
X193764152Y-94686180D01*
X193764150Y-94686179D01*
X193764149Y-94686179D01*
X193622926Y-94627683D01*
X193546436Y-94576574D01*
X193495831Y-94542761D01*
X193387739Y-94434669D01*
X193302819Y-94307577D01*
X193302817Y-94307574D01*
X193244321Y-94166351D01*
X193220154Y-94044853D01*
X193214500Y-94016431D01*
X193214500Y-93863569D01*
X193244320Y-93713652D01*
X193244321Y-93713649D01*
X193302817Y-93572426D01*
X193302819Y-93572423D01*
X193387739Y-93445331D01*
X193495831Y-93337239D01*
X193580560Y-93280625D01*
X193622926Y-93252317D01*
X193673228Y-93231481D01*
X193694836Y-93219932D01*
X193713778Y-93204386D01*
X193729323Y-93185444D01*
X193740874Y-93163834D01*
X193747987Y-93140385D01*
X193750389Y-93115999D01*
X193747987Y-93091613D01*
X193740874Y-93068164D01*
X193729323Y-93046553D01*
X193713777Y-93027611D01*
X193694835Y-93012066D01*
X193673225Y-93000515D01*
X193649776Y-92993402D01*
X193625390Y-92991000D01*
X193264500Y-92991000D01*
X193264500Y-89889000D01*
X193625390Y-89889000D01*
X193649776Y-89886598D01*
X193673225Y-89879485D01*
X193694836Y-89867934D01*
X193713778Y-89852389D01*
X193729323Y-89833447D01*
X193740874Y-89811836D01*
X193747987Y-89788387D01*
X193750389Y-89764001D01*
X193747987Y-89739615D01*
X193740874Y-89716166D01*
X193729323Y-89694555D01*
X193713778Y-89675613D01*
X193694836Y-89660068D01*
X193673228Y-89648519D01*
X193622926Y-89627683D01*
X193580560Y-89599375D01*
X193495831Y-89542761D01*
X193387739Y-89434669D01*
X193302819Y-89307577D01*
X193302817Y-89307574D01*
X193244321Y-89166351D01*
X193240870Y-89149000D01*
X193214500Y-89016431D01*
X193214500Y-88863569D01*
X193244320Y-88713652D01*
X193270271Y-88651000D01*
X193302817Y-88572426D01*
X193302819Y-88572423D01*
X193387739Y-88445331D01*
X193495831Y-88337239D01*
X193622923Y-88252319D01*
X193622926Y-88252317D01*
X193764149Y-88193821D01*
X193764150Y-88193821D01*
X193764152Y-88193820D01*
X193914069Y-88164000D01*
X194066931Y-88164000D01*
X194216848Y-88193820D01*
G37*
G36*
X170411000Y-94431000D02*
G01*
X169409000Y-94431000D01*
X169409000Y-93529000D01*
X170411000Y-93529000D01*
X170411000Y-94431000D01*
G37*
G36*
X146798512Y-92448927D02*
G01*
X146947812Y-92478624D01*
X147111784Y-92546544D01*
X147259354Y-92645147D01*
X147384853Y-92770646D01*
X147483456Y-92918216D01*
X147551376Y-93082188D01*
X147586000Y-93256259D01*
X147586000Y-93433741D01*
X147551376Y-93607812D01*
X147483456Y-93771784D01*
X147384853Y-93919354D01*
X147259354Y-94044853D01*
X147111784Y-94143456D01*
X146947812Y-94211376D01*
X146798512Y-94241073D01*
X146773742Y-94246000D01*
X146596258Y-94246000D01*
X146571488Y-94241073D01*
X146422188Y-94211376D01*
X146258216Y-94143456D01*
X146110646Y-94044853D01*
X145985147Y-93919354D01*
X145886544Y-93771784D01*
X145818624Y-93607812D01*
X145784000Y-93433741D01*
X145784000Y-93256259D01*
X145818624Y-93082188D01*
X145886544Y-92918216D01*
X145985147Y-92770646D01*
X146110646Y-92645147D01*
X146258216Y-92546544D01*
X146422188Y-92478624D01*
X146571488Y-92448927D01*
X146596258Y-92444000D01*
X146773742Y-92444000D01*
X146798512Y-92448927D01*
G37*
G36*
X122186000Y-94246000D02*
G01*
X120384000Y-94246000D01*
X120384000Y-92444000D01*
X122186000Y-92444000D01*
X122186000Y-94246000D01*
G37*
G36*
X156958512Y-92448927D02*
G01*
X157107812Y-92478624D01*
X157271784Y-92546544D01*
X157419354Y-92645147D01*
X157544853Y-92770646D01*
X157643456Y-92918216D01*
X157711376Y-93082188D01*
X157746000Y-93256259D01*
X157746000Y-93433741D01*
X157711376Y-93607812D01*
X157643456Y-93771784D01*
X157544853Y-93919354D01*
X157419354Y-94044853D01*
X157271784Y-94143456D01*
X157107812Y-94211376D01*
X156958512Y-94241073D01*
X156933742Y-94246000D01*
X156756258Y-94246000D01*
X156731488Y-94241073D01*
X156582188Y-94211376D01*
X156418216Y-94143456D01*
X156270646Y-94044853D01*
X156145147Y-93919354D01*
X156046544Y-93771784D01*
X155978624Y-93607812D01*
X155944000Y-93433741D01*
X155944000Y-93256259D01*
X155978624Y-93082188D01*
X156046544Y-92918216D01*
X156145147Y-92770646D01*
X156270646Y-92645147D01*
X156418216Y-92546544D01*
X156582188Y-92478624D01*
X156731488Y-92448927D01*
X156756258Y-92444000D01*
X156933742Y-92444000D01*
X156958512Y-92448927D01*
G37*
G36*
X154418512Y-92448927D02*
G01*
X154567812Y-92478624D01*
X154731784Y-92546544D01*
X154879354Y-92645147D01*
X155004853Y-92770646D01*
X155103456Y-92918216D01*
X155171376Y-93082188D01*
X155206000Y-93256259D01*
X155206000Y-93433741D01*
X155171376Y-93607812D01*
X155103456Y-93771784D01*
X155004853Y-93919354D01*
X154879354Y-94044853D01*
X154731784Y-94143456D01*
X154567812Y-94211376D01*
X154418512Y-94241073D01*
X154393742Y-94246000D01*
X154216258Y-94246000D01*
X154191488Y-94241073D01*
X154042188Y-94211376D01*
X153878216Y-94143456D01*
X153730646Y-94044853D01*
X153605147Y-93919354D01*
X153506544Y-93771784D01*
X153438624Y-93607812D01*
X153404000Y-93433741D01*
X153404000Y-93256259D01*
X153438624Y-93082188D01*
X153506544Y-92918216D01*
X153605147Y-92770646D01*
X153730646Y-92645147D01*
X153878216Y-92546544D01*
X154042188Y-92478624D01*
X154191488Y-92448927D01*
X154216258Y-92444000D01*
X154393742Y-92444000D01*
X154418512Y-92448927D01*
G37*
G36*
X149338512Y-92448927D02*
G01*
X149487812Y-92478624D01*
X149651784Y-92546544D01*
X149799354Y-92645147D01*
X149924853Y-92770646D01*
X150023456Y-92918216D01*
X150091376Y-93082188D01*
X150126000Y-93256259D01*
X150126000Y-93433741D01*
X150091376Y-93607812D01*
X150023456Y-93771784D01*
X149924853Y-93919354D01*
X149799354Y-94044853D01*
X149651784Y-94143456D01*
X149487812Y-94211376D01*
X149338512Y-94241073D01*
X149313742Y-94246000D01*
X149136258Y-94246000D01*
X149111488Y-94241073D01*
X148962188Y-94211376D01*
X148798216Y-94143456D01*
X148650646Y-94044853D01*
X148525147Y-93919354D01*
X148426544Y-93771784D01*
X148358624Y-93607812D01*
X148324000Y-93433741D01*
X148324000Y-93256259D01*
X148358624Y-93082188D01*
X148426544Y-92918216D01*
X148525147Y-92770646D01*
X148650646Y-92645147D01*
X148798216Y-92546544D01*
X148962188Y-92478624D01*
X149111488Y-92448927D01*
X149136258Y-92444000D01*
X149313742Y-92444000D01*
X149338512Y-92448927D01*
G37*
G36*
X144258512Y-92448927D02*
G01*
X144407812Y-92478624D01*
X144571784Y-92546544D01*
X144719354Y-92645147D01*
X144844853Y-92770646D01*
X144943456Y-92918216D01*
X145011376Y-93082188D01*
X145046000Y-93256259D01*
X145046000Y-93433741D01*
X145011376Y-93607812D01*
X144943456Y-93771784D01*
X144844853Y-93919354D01*
X144719354Y-94044853D01*
X144571784Y-94143456D01*
X144407812Y-94211376D01*
X144258512Y-94241073D01*
X144233742Y-94246000D01*
X144056258Y-94246000D01*
X144031488Y-94241073D01*
X143882188Y-94211376D01*
X143718216Y-94143456D01*
X143570646Y-94044853D01*
X143445147Y-93919354D01*
X143346544Y-93771784D01*
X143278624Y-93607812D01*
X143244000Y-93433741D01*
X143244000Y-93256259D01*
X143278624Y-93082188D01*
X143346544Y-92918216D01*
X143445147Y-92770646D01*
X143570646Y-92645147D01*
X143718216Y-92546544D01*
X143882188Y-92478624D01*
X144031488Y-92448927D01*
X144056258Y-92444000D01*
X144233742Y-92444000D01*
X144258512Y-92448927D01*
G37*
G36*
X141718512Y-92448927D02*
G01*
X141867812Y-92478624D01*
X142031784Y-92546544D01*
X142179354Y-92645147D01*
X142304853Y-92770646D01*
X142403456Y-92918216D01*
X142471376Y-93082188D01*
X142506000Y-93256259D01*
X142506000Y-93433741D01*
X142471376Y-93607812D01*
X142403456Y-93771784D01*
X142304853Y-93919354D01*
X142179354Y-94044853D01*
X142031784Y-94143456D01*
X141867812Y-94211376D01*
X141718512Y-94241073D01*
X141693742Y-94246000D01*
X141516258Y-94246000D01*
X141491488Y-94241073D01*
X141342188Y-94211376D01*
X141178216Y-94143456D01*
X141030646Y-94044853D01*
X140905147Y-93919354D01*
X140806544Y-93771784D01*
X140738624Y-93607812D01*
X140704000Y-93433741D01*
X140704000Y-93256259D01*
X140738624Y-93082188D01*
X140806544Y-92918216D01*
X140905147Y-92770646D01*
X141030646Y-92645147D01*
X141178216Y-92546544D01*
X141342188Y-92478624D01*
X141491488Y-92448927D01*
X141516258Y-92444000D01*
X141693742Y-92444000D01*
X141718512Y-92448927D01*
G37*
G36*
X139178512Y-92448927D02*
G01*
X139327812Y-92478624D01*
X139491784Y-92546544D01*
X139639354Y-92645147D01*
X139764853Y-92770646D01*
X139863456Y-92918216D01*
X139931376Y-93082188D01*
X139966000Y-93256259D01*
X139966000Y-93433741D01*
X139931376Y-93607812D01*
X139863456Y-93771784D01*
X139764853Y-93919354D01*
X139639354Y-94044853D01*
X139491784Y-94143456D01*
X139327812Y-94211376D01*
X139178512Y-94241073D01*
X139153742Y-94246000D01*
X138976258Y-94246000D01*
X138951488Y-94241073D01*
X138802188Y-94211376D01*
X138638216Y-94143456D01*
X138490646Y-94044853D01*
X138365147Y-93919354D01*
X138266544Y-93771784D01*
X138198624Y-93607812D01*
X138164000Y-93433741D01*
X138164000Y-93256259D01*
X138198624Y-93082188D01*
X138266544Y-92918216D01*
X138365147Y-92770646D01*
X138490646Y-92645147D01*
X138638216Y-92546544D01*
X138802188Y-92478624D01*
X138951488Y-92448927D01*
X138976258Y-92444000D01*
X139153742Y-92444000D01*
X139178512Y-92448927D01*
G37*
G36*
X136638512Y-92448927D02*
G01*
X136787812Y-92478624D01*
X136951784Y-92546544D01*
X137099354Y-92645147D01*
X137224853Y-92770646D01*
X137323456Y-92918216D01*
X137391376Y-93082188D01*
X137426000Y-93256259D01*
X137426000Y-93433741D01*
X137391376Y-93607812D01*
X137323456Y-93771784D01*
X137224853Y-93919354D01*
X137099354Y-94044853D01*
X136951784Y-94143456D01*
X136787812Y-94211376D01*
X136638512Y-94241073D01*
X136613742Y-94246000D01*
X136436258Y-94246000D01*
X136411488Y-94241073D01*
X136262188Y-94211376D01*
X136098216Y-94143456D01*
X135950646Y-94044853D01*
X135825147Y-93919354D01*
X135726544Y-93771784D01*
X135658624Y-93607812D01*
X135624000Y-93433741D01*
X135624000Y-93256259D01*
X135658624Y-93082188D01*
X135726544Y-92918216D01*
X135825147Y-92770646D01*
X135950646Y-92645147D01*
X136098216Y-92546544D01*
X136262188Y-92478624D01*
X136411488Y-92448927D01*
X136436258Y-92444000D01*
X136613742Y-92444000D01*
X136638512Y-92448927D01*
G37*
G36*
X134098512Y-92448927D02*
G01*
X134247812Y-92478624D01*
X134411784Y-92546544D01*
X134559354Y-92645147D01*
X134684853Y-92770646D01*
X134783456Y-92918216D01*
X134851376Y-93082188D01*
X134886000Y-93256259D01*
X134886000Y-93433741D01*
X134851376Y-93607812D01*
X134783456Y-93771784D01*
X134684853Y-93919354D01*
X134559354Y-94044853D01*
X134411784Y-94143456D01*
X134247812Y-94211376D01*
X134098512Y-94241073D01*
X134073742Y-94246000D01*
X133896258Y-94246000D01*
X133871488Y-94241073D01*
X133722188Y-94211376D01*
X133558216Y-94143456D01*
X133410646Y-94044853D01*
X133285147Y-93919354D01*
X133186544Y-93771784D01*
X133118624Y-93607812D01*
X133084000Y-93433741D01*
X133084000Y-93256259D01*
X133118624Y-93082188D01*
X133186544Y-92918216D01*
X133285147Y-92770646D01*
X133410646Y-92645147D01*
X133558216Y-92546544D01*
X133722188Y-92478624D01*
X133871488Y-92448927D01*
X133896258Y-92444000D01*
X134073742Y-92444000D01*
X134098512Y-92448927D01*
G37*
G36*
X131558512Y-92448927D02*
G01*
X131707812Y-92478624D01*
X131871784Y-92546544D01*
X132019354Y-92645147D01*
X132144853Y-92770646D01*
X132243456Y-92918216D01*
X132311376Y-93082188D01*
X132346000Y-93256259D01*
X132346000Y-93433741D01*
X132311376Y-93607812D01*
X132243456Y-93771784D01*
X132144853Y-93919354D01*
X132019354Y-94044853D01*
X131871784Y-94143456D01*
X131707812Y-94211376D01*
X131558512Y-94241073D01*
X131533742Y-94246000D01*
X131356258Y-94246000D01*
X131331488Y-94241073D01*
X131182188Y-94211376D01*
X131018216Y-94143456D01*
X130870646Y-94044853D01*
X130745147Y-93919354D01*
X130646544Y-93771784D01*
X130578624Y-93607812D01*
X130544000Y-93433741D01*
X130544000Y-93256259D01*
X130578624Y-93082188D01*
X130646544Y-92918216D01*
X130745147Y-92770646D01*
X130870646Y-92645147D01*
X131018216Y-92546544D01*
X131182188Y-92478624D01*
X131331488Y-92448927D01*
X131356258Y-92444000D01*
X131533742Y-92444000D01*
X131558512Y-92448927D01*
G37*
G36*
X129018512Y-92448927D02*
G01*
X129167812Y-92478624D01*
X129331784Y-92546544D01*
X129479354Y-92645147D01*
X129604853Y-92770646D01*
X129703456Y-92918216D01*
X129771376Y-93082188D01*
X129806000Y-93256259D01*
X129806000Y-93433741D01*
X129771376Y-93607812D01*
X129703456Y-93771784D01*
X129604853Y-93919354D01*
X129479354Y-94044853D01*
X129331784Y-94143456D01*
X129167812Y-94211376D01*
X129018512Y-94241073D01*
X128993742Y-94246000D01*
X128816258Y-94246000D01*
X128791488Y-94241073D01*
X128642188Y-94211376D01*
X128478216Y-94143456D01*
X128330646Y-94044853D01*
X128205147Y-93919354D01*
X128106544Y-93771784D01*
X128038624Y-93607812D01*
X128004000Y-93433741D01*
X128004000Y-93256259D01*
X128038624Y-93082188D01*
X128106544Y-92918216D01*
X128205147Y-92770646D01*
X128330646Y-92645147D01*
X128478216Y-92546544D01*
X128642188Y-92478624D01*
X128791488Y-92448927D01*
X128816258Y-92444000D01*
X128993742Y-92444000D01*
X129018512Y-92448927D01*
G37*
G36*
X126478512Y-92448927D02*
G01*
X126627812Y-92478624D01*
X126791784Y-92546544D01*
X126939354Y-92645147D01*
X127064853Y-92770646D01*
X127163456Y-92918216D01*
X127231376Y-93082188D01*
X127266000Y-93256259D01*
X127266000Y-93433741D01*
X127231376Y-93607812D01*
X127163456Y-93771784D01*
X127064853Y-93919354D01*
X126939354Y-94044853D01*
X126791784Y-94143456D01*
X126627812Y-94211376D01*
X126478512Y-94241073D01*
X126453742Y-94246000D01*
X126276258Y-94246000D01*
X126251488Y-94241073D01*
X126102188Y-94211376D01*
X125938216Y-94143456D01*
X125790646Y-94044853D01*
X125665147Y-93919354D01*
X125566544Y-93771784D01*
X125498624Y-93607812D01*
X125464000Y-93433741D01*
X125464000Y-93256259D01*
X125498624Y-93082188D01*
X125566544Y-92918216D01*
X125665147Y-92770646D01*
X125790646Y-92645147D01*
X125938216Y-92546544D01*
X126102188Y-92478624D01*
X126251488Y-92448927D01*
X126276258Y-92444000D01*
X126453742Y-92444000D01*
X126478512Y-92448927D01*
G37*
G36*
X123938512Y-92448927D02*
G01*
X124087812Y-92478624D01*
X124251784Y-92546544D01*
X124399354Y-92645147D01*
X124524853Y-92770646D01*
X124623456Y-92918216D01*
X124691376Y-93082188D01*
X124726000Y-93256259D01*
X124726000Y-93433741D01*
X124691376Y-93607812D01*
X124623456Y-93771784D01*
X124524853Y-93919354D01*
X124399354Y-94044853D01*
X124251784Y-94143456D01*
X124087812Y-94211376D01*
X123938512Y-94241073D01*
X123913742Y-94246000D01*
X123736258Y-94246000D01*
X123711488Y-94241073D01*
X123562188Y-94211376D01*
X123398216Y-94143456D01*
X123250646Y-94044853D01*
X123125147Y-93919354D01*
X123026544Y-93771784D01*
X122958624Y-93607812D01*
X122924000Y-93433741D01*
X122924000Y-93256259D01*
X122958624Y-93082188D01*
X123026544Y-92918216D01*
X123125147Y-92770646D01*
X123250646Y-92645147D01*
X123398216Y-92546544D01*
X123562188Y-92478624D01*
X123711488Y-92448927D01*
X123736258Y-92444000D01*
X123913742Y-92444000D01*
X123938512Y-92448927D01*
G37*
G36*
X151878512Y-92448927D02*
G01*
X152027812Y-92478624D01*
X152191784Y-92546544D01*
X152339354Y-92645147D01*
X152464853Y-92770646D01*
X152563456Y-92918216D01*
X152631376Y-93082188D01*
X152666000Y-93256259D01*
X152666000Y-93433741D01*
X152631376Y-93607812D01*
X152563456Y-93771784D01*
X152464853Y-93919354D01*
X152339354Y-94044853D01*
X152191784Y-94143456D01*
X152027812Y-94211376D01*
X151878512Y-94241073D01*
X151853742Y-94246000D01*
X151676258Y-94246000D01*
X151651488Y-94241073D01*
X151502188Y-94211376D01*
X151338216Y-94143456D01*
X151190646Y-94044853D01*
X151065147Y-93919354D01*
X150966544Y-93771784D01*
X150898624Y-93607812D01*
X150864000Y-93433741D01*
X150864000Y-93256259D01*
X150898624Y-93082188D01*
X150966544Y-92918216D01*
X151065147Y-92770646D01*
X151190646Y-92645147D01*
X151338216Y-92546544D01*
X151502188Y-92478624D01*
X151651488Y-92448927D01*
X151676258Y-92444000D01*
X151853742Y-92444000D01*
X151878512Y-92448927D01*
G37*
G36*
X168411000Y-93481000D02*
G01*
X167409000Y-93481000D01*
X167409000Y-92579000D01*
X168411000Y-92579000D01*
X168411000Y-93481000D01*
G37*
G36*
X197691500Y-93241000D02*
G01*
X195689500Y-93241000D01*
X195689500Y-91639000D01*
X197691500Y-91639000D01*
X197691500Y-93241000D01*
G37*
G36*
X175537395Y-91160546D02*
G01*
X175710466Y-91232234D01*
X175710467Y-91232235D01*
X175866227Y-91336310D01*
X175998690Y-91468773D01*
X176051081Y-91547182D01*
X176102766Y-91624534D01*
X176174454Y-91797605D01*
X176211000Y-91981333D01*
X176211000Y-92168667D01*
X176174454Y-92352395D01*
X176102766Y-92525466D01*
X176088682Y-92546544D01*
X175998690Y-92681227D01*
X175866227Y-92813690D01*
X175787818Y-92866081D01*
X175710466Y-92917766D01*
X175537395Y-92989454D01*
X175353667Y-93026000D01*
X175166333Y-93026000D01*
X174982605Y-92989454D01*
X174809534Y-92917766D01*
X174732182Y-92866081D01*
X174653773Y-92813690D01*
X174521310Y-92681227D01*
X174431318Y-92546544D01*
X174417234Y-92525466D01*
X174345546Y-92352395D01*
X174309000Y-92168667D01*
X174309000Y-91981333D01*
X174345546Y-91797605D01*
X174417234Y-91624534D01*
X174468919Y-91547182D01*
X174521310Y-91468773D01*
X174653773Y-91336310D01*
X174809533Y-91232235D01*
X174809534Y-91232234D01*
X174982605Y-91160546D01*
X175166333Y-91124000D01*
X175353667Y-91124000D01*
X175537395Y-91160546D01*
G37*
G36*
X173671000Y-93026000D02*
G01*
X171769000Y-93026000D01*
X171769000Y-91124000D01*
X173671000Y-91124000D01*
X173671000Y-93026000D01*
G37*
G36*
X183157395Y-91160546D02*
G01*
X183330466Y-91232234D01*
X183330467Y-91232235D01*
X183486227Y-91336310D01*
X183618690Y-91468773D01*
X183671081Y-91547182D01*
X183722766Y-91624534D01*
X183794454Y-91797605D01*
X183831000Y-91981333D01*
X183831000Y-92168667D01*
X183794454Y-92352395D01*
X183722766Y-92525466D01*
X183708682Y-92546544D01*
X183618690Y-92681227D01*
X183486227Y-92813690D01*
X183407818Y-92866081D01*
X183330466Y-92917766D01*
X183157395Y-92989454D01*
X182973667Y-93026000D01*
X182786333Y-93026000D01*
X182602605Y-92989454D01*
X182429534Y-92917766D01*
X182352182Y-92866081D01*
X182273773Y-92813690D01*
X182141310Y-92681227D01*
X182051318Y-92546544D01*
X182037234Y-92525466D01*
X181965546Y-92352395D01*
X181929000Y-92168667D01*
X181929000Y-91981333D01*
X181965546Y-91797605D01*
X182037234Y-91624534D01*
X182088919Y-91547182D01*
X182141310Y-91468773D01*
X182273773Y-91336310D01*
X182429533Y-91232235D01*
X182429534Y-91232234D01*
X182602605Y-91160546D01*
X182786333Y-91124000D01*
X182973667Y-91124000D01*
X183157395Y-91160546D01*
G37*
G36*
X181291000Y-93026000D02*
G01*
X179389000Y-93026000D01*
X179389000Y-91124000D01*
X181291000Y-91124000D01*
X181291000Y-93026000D01*
G37*
G36*
X168411000Y-91698000D02*
G01*
X167409000Y-91698000D01*
X167409000Y-90796000D01*
X168411000Y-90796000D01*
X168411000Y-91698000D01*
G37*
G36*
X197691500Y-91241000D02*
G01*
X195689500Y-91241000D01*
X195689500Y-89639000D01*
X197691500Y-89639000D01*
X197691500Y-91241000D01*
G37*
G36*
X170411000Y-90748000D02*
G01*
X169409000Y-90748000D01*
X169409000Y-89846000D01*
X170411000Y-89846000D01*
X170411000Y-90748000D01*
G37*
G36*
X151348674Y-88788465D02*
G01*
X151386367Y-88799899D01*
X151421103Y-88818466D01*
X151451548Y-88843452D01*
X151476534Y-88873897D01*
X151495101Y-88908633D01*
X151506535Y-88946326D01*
X151511000Y-88991661D01*
X151511000Y-90078339D01*
X151506535Y-90123674D01*
X151495101Y-90161367D01*
X151476534Y-90196103D01*
X151451548Y-90226548D01*
X151421103Y-90251534D01*
X151386367Y-90270101D01*
X151348674Y-90281535D01*
X151303339Y-90286000D01*
X150466661Y-90286000D01*
X150421326Y-90281535D01*
X150383633Y-90270101D01*
X150348897Y-90251534D01*
X150318452Y-90226548D01*
X150293466Y-90196103D01*
X150274899Y-90161367D01*
X150263465Y-90123674D01*
X150259000Y-90078339D01*
X150259000Y-88991661D01*
X150263465Y-88946326D01*
X150274899Y-88908633D01*
X150293466Y-88873897D01*
X150318452Y-88843452D01*
X150348897Y-88818466D01*
X150383633Y-88799899D01*
X150421326Y-88788465D01*
X150466661Y-88784000D01*
X151303339Y-88784000D01*
X151348674Y-88788465D01*
G37*
G36*
X149298674Y-88788465D02*
G01*
X149336367Y-88799899D01*
X149371103Y-88818466D01*
X149401548Y-88843452D01*
X149426534Y-88873897D01*
X149445101Y-88908633D01*
X149456535Y-88946326D01*
X149461000Y-88991661D01*
X149461000Y-90078339D01*
X149456535Y-90123674D01*
X149445101Y-90161367D01*
X149426534Y-90196103D01*
X149401548Y-90226548D01*
X149371103Y-90251534D01*
X149336367Y-90270101D01*
X149298674Y-90281535D01*
X149253339Y-90286000D01*
X148416661Y-90286000D01*
X148371326Y-90281535D01*
X148333633Y-90270101D01*
X148298897Y-90251534D01*
X148268452Y-90226548D01*
X148243466Y-90196103D01*
X148224899Y-90161367D01*
X148213465Y-90123674D01*
X148209000Y-90078339D01*
X148209000Y-88991661D01*
X148213465Y-88946326D01*
X148224899Y-88908633D01*
X148243466Y-88873897D01*
X148268452Y-88843452D01*
X148298897Y-88818466D01*
X148333633Y-88799899D01*
X148371326Y-88788465D01*
X148416661Y-88784000D01*
X149253339Y-88784000D01*
X149298674Y-88788465D01*
G37*
G36*
X146696000Y-90251000D02*
G01*
X145694000Y-90251000D01*
X145694000Y-89149000D01*
X146696000Y-89149000D01*
X146696000Y-90251000D01*
G37*
G36*
X142596000Y-90251000D02*
G01*
X141594000Y-90251000D01*
X141594000Y-89149000D01*
X142596000Y-89149000D01*
X142596000Y-90251000D01*
G37*
G36*
X129406000Y-90196000D02*
G01*
X128404000Y-90196000D01*
X128404000Y-88094000D01*
X129406000Y-88094000D01*
X129406000Y-90196000D01*
G37*
G36*
X138296000Y-90196000D02*
G01*
X137294000Y-90196000D01*
X137294000Y-88094000D01*
X138296000Y-88094000D01*
X138296000Y-90196000D01*
G37*
G36*
X130676000Y-90196000D02*
G01*
X129674000Y-90196000D01*
X129674000Y-88094000D01*
X130676000Y-88094000D01*
X130676000Y-90196000D01*
G37*
G36*
X131946000Y-90196000D02*
G01*
X130944000Y-90196000D01*
X130944000Y-88094000D01*
X131946000Y-88094000D01*
X131946000Y-90196000D01*
G37*
G36*
X133216000Y-90196000D02*
G01*
X132214000Y-90196000D01*
X132214000Y-88094000D01*
X133216000Y-88094000D01*
X133216000Y-90196000D01*
G37*
G36*
X134486000Y-90196000D02*
G01*
X133484000Y-90196000D01*
X133484000Y-88094000D01*
X134486000Y-88094000D01*
X134486000Y-90196000D01*
G37*
G36*
X135756000Y-90196000D02*
G01*
X134754000Y-90196000D01*
X134754000Y-88094000D01*
X135756000Y-88094000D01*
X135756000Y-90196000D01*
G37*
G36*
X137026000Y-90196000D02*
G01*
X136024000Y-90196000D01*
X136024000Y-88094000D01*
X137026000Y-88094000D01*
X137026000Y-90196000D01*
G37*
G36*
X121786000Y-90196000D02*
G01*
X120784000Y-90196000D01*
X120784000Y-88094000D01*
X121786000Y-88094000D01*
X121786000Y-90196000D01*
G37*
G36*
X128136000Y-90196000D02*
G01*
X127134000Y-90196000D01*
X127134000Y-88094000D01*
X128136000Y-88094000D01*
X128136000Y-90196000D01*
G37*
G36*
X126866000Y-90196000D02*
G01*
X125864000Y-90196000D01*
X125864000Y-88094000D01*
X126866000Y-88094000D01*
X126866000Y-90196000D01*
G37*
G36*
X123056000Y-90196000D02*
G01*
X122054000Y-90196000D01*
X122054000Y-88094000D01*
X123056000Y-88094000D01*
X123056000Y-90196000D01*
G37*
G36*
X125596000Y-90196000D02*
G01*
X124594000Y-90196000D01*
X124594000Y-88094000D01*
X125596000Y-88094000D01*
X125596000Y-90196000D01*
G37*
G36*
X124326000Y-90196000D02*
G01*
X123324000Y-90196000D01*
X123324000Y-88094000D01*
X124326000Y-88094000D01*
X124326000Y-90196000D01*
G37*
G36*
X168411000Y-89798000D02*
G01*
X167409000Y-89798000D01*
X167409000Y-88896000D01*
X168411000Y-88896000D01*
X168411000Y-89798000D01*
G37*
G36*
X197104355Y-87292140D02*
G01*
X197168118Y-87298420D01*
X197258904Y-87325960D01*
X197290836Y-87335646D01*
X197403925Y-87396094D01*
X197503054Y-87477446D01*
X197584406Y-87576575D01*
X197644854Y-87689664D01*
X197644855Y-87689668D01*
X197678413Y-87800292D01*
X197687787Y-87822925D01*
X197691500Y-87828482D01*
X197691500Y-87901886D01*
X197692102Y-87914138D01*
X197694649Y-87940000D01*
X197692102Y-87965862D01*
X197691500Y-87978114D01*
X197691500Y-89191000D01*
X195689500Y-89191000D01*
X195689500Y-87978114D01*
X195688898Y-87965862D01*
X195686351Y-87940000D01*
X195688898Y-87914138D01*
X195689500Y-87901886D01*
X195689500Y-87828594D01*
X195698457Y-87811836D01*
X195702585Y-87800299D01*
X195736145Y-87689668D01*
X195736146Y-87689664D01*
X195796594Y-87576575D01*
X195877946Y-87477446D01*
X195977075Y-87396094D01*
X196090164Y-87335646D01*
X196122096Y-87325960D01*
X196212882Y-87298420D01*
X196276645Y-87292140D01*
X196308526Y-87289000D01*
X197072474Y-87289000D01*
X197104355Y-87292140D01*
G37*
G36*
X142596000Y-88651000D02*
G01*
X141594000Y-88651000D01*
X141594000Y-87549000D01*
X142596000Y-87549000D01*
X142596000Y-88651000D01*
G37*
G36*
X146696000Y-88651000D02*
G01*
X145694000Y-88651000D01*
X145694000Y-87549000D01*
X146696000Y-87549000D01*
X146696000Y-88651000D01*
G37*
G36*
X167815723Y-86301939D02*
G01*
X167848280Y-86311815D01*
X167878276Y-86327848D01*
X167904572Y-86349428D01*
X167926152Y-86375724D01*
X167942185Y-86405720D01*
X167952061Y-86438277D01*
X167956000Y-86478269D01*
X167956000Y-88019731D01*
X167952061Y-88059723D01*
X167942185Y-88092280D01*
X167926152Y-88122276D01*
X167904572Y-88148572D01*
X167878276Y-88170152D01*
X167848280Y-88186185D01*
X167815723Y-88196061D01*
X167775731Y-88200000D01*
X166234269Y-88200000D01*
X166194277Y-88196061D01*
X166161720Y-88186185D01*
X166131724Y-88170152D01*
X166105428Y-88148572D01*
X166083848Y-88122276D01*
X166067815Y-88092280D01*
X166057939Y-88059723D01*
X166054000Y-88019731D01*
X166054000Y-86478269D01*
X166057939Y-86438277D01*
X166067815Y-86405720D01*
X166083848Y-86375724D01*
X166105428Y-86349428D01*
X166131724Y-86327848D01*
X166161720Y-86311815D01*
X166194277Y-86301939D01*
X166234269Y-86298000D01*
X167775731Y-86298000D01*
X167815723Y-86301939D01*
G37*
G36*
X155206000Y-87896000D02*
G01*
X153404000Y-87896000D01*
X153404000Y-86094000D01*
X155206000Y-86094000D01*
X155206000Y-87896000D01*
G37*
G36*
X186128674Y-86248465D02*
G01*
X186166367Y-86259899D01*
X186201103Y-86278466D01*
X186231548Y-86303452D01*
X186256534Y-86333897D01*
X186275101Y-86368633D01*
X186286535Y-86406326D01*
X186291000Y-86451661D01*
X186291000Y-87538339D01*
X186286535Y-87583674D01*
X186275101Y-87621367D01*
X186256534Y-87656103D01*
X186231548Y-87686548D01*
X186201103Y-87711534D01*
X186166367Y-87730101D01*
X186128674Y-87741535D01*
X186083339Y-87746000D01*
X185246661Y-87746000D01*
X185201326Y-87741535D01*
X185163633Y-87730101D01*
X185128897Y-87711534D01*
X185098452Y-87686548D01*
X185073466Y-87656103D01*
X185054899Y-87621367D01*
X185043465Y-87583674D01*
X185039000Y-87538339D01*
X185039000Y-86451661D01*
X185043465Y-86406326D01*
X185054899Y-86368633D01*
X185073466Y-86333897D01*
X185098452Y-86303452D01*
X185128897Y-86278466D01*
X185163633Y-86259899D01*
X185201326Y-86248465D01*
X185246661Y-86244000D01*
X186083339Y-86244000D01*
X186128674Y-86248465D01*
G37*
G36*
X188178674Y-86248465D02*
G01*
X188216367Y-86259899D01*
X188251103Y-86278466D01*
X188281548Y-86303452D01*
X188306534Y-86333897D01*
X188325101Y-86368633D01*
X188336535Y-86406326D01*
X188341000Y-86451661D01*
X188341000Y-87538339D01*
X188336535Y-87583674D01*
X188325101Y-87621367D01*
X188306534Y-87656103D01*
X188281548Y-87686548D01*
X188251103Y-87711534D01*
X188216367Y-87730101D01*
X188178674Y-87741535D01*
X188133339Y-87746000D01*
X187296661Y-87746000D01*
X187251326Y-87741535D01*
X187213633Y-87730101D01*
X187178897Y-87711534D01*
X187148452Y-87686548D01*
X187123466Y-87656103D01*
X187104899Y-87621367D01*
X187093465Y-87583674D01*
X187089000Y-87538339D01*
X187089000Y-86451661D01*
X187093465Y-86406326D01*
X187104899Y-86368633D01*
X187123466Y-86333897D01*
X187148452Y-86303452D01*
X187178897Y-86278466D01*
X187213633Y-86259899D01*
X187251326Y-86248465D01*
X187296661Y-86244000D01*
X188133339Y-86244000D01*
X188178674Y-86248465D01*
G37*
G36*
X149298674Y-85613465D02*
G01*
X149336367Y-85624899D01*
X149371103Y-85643466D01*
X149401548Y-85668452D01*
X149426534Y-85698897D01*
X149445101Y-85733633D01*
X149456535Y-85771326D01*
X149461000Y-85816661D01*
X149461000Y-86903339D01*
X149456535Y-86948674D01*
X149445101Y-86986367D01*
X149426534Y-87021103D01*
X149401548Y-87051548D01*
X149371103Y-87076534D01*
X149336367Y-87095101D01*
X149298674Y-87106535D01*
X149253339Y-87111000D01*
X148416661Y-87111000D01*
X148371326Y-87106535D01*
X148333633Y-87095101D01*
X148298897Y-87076534D01*
X148268452Y-87051548D01*
X148243466Y-87021103D01*
X148224899Y-86986367D01*
X148213465Y-86948674D01*
X148209000Y-86903339D01*
X148209000Y-85816661D01*
X148213465Y-85771326D01*
X148224899Y-85733633D01*
X148243466Y-85698897D01*
X148268452Y-85668452D01*
X148298897Y-85643466D01*
X148333633Y-85624899D01*
X148371326Y-85613465D01*
X148416661Y-85609000D01*
X149253339Y-85609000D01*
X149298674Y-85613465D01*
G37*
G36*
X151348674Y-85613465D02*
G01*
X151386367Y-85624899D01*
X151421103Y-85643466D01*
X151451548Y-85668452D01*
X151476534Y-85698897D01*
X151495101Y-85733633D01*
X151506535Y-85771326D01*
X151511000Y-85816661D01*
X151511000Y-86903339D01*
X151506535Y-86948674D01*
X151495101Y-86986367D01*
X151476534Y-87021103D01*
X151451548Y-87051548D01*
X151421103Y-87076534D01*
X151386367Y-87095101D01*
X151348674Y-87106535D01*
X151303339Y-87111000D01*
X150466661Y-87111000D01*
X150421326Y-87106535D01*
X150383633Y-87095101D01*
X150348897Y-87076534D01*
X150318452Y-87051548D01*
X150293466Y-87021103D01*
X150274899Y-86986367D01*
X150263465Y-86948674D01*
X150259000Y-86903339D01*
X150259000Y-85816661D01*
X150263465Y-85771326D01*
X150274899Y-85733633D01*
X150293466Y-85698897D01*
X150318452Y-85668452D01*
X150348897Y-85643466D01*
X150383633Y-85624899D01*
X150421326Y-85613465D01*
X150466661Y-85609000D01*
X151303339Y-85609000D01*
X151348674Y-85613465D01*
G37*
G36*
X139846000Y-86861000D02*
G01*
X137744000Y-86861000D01*
X137744000Y-85859000D01*
X139846000Y-85859000D01*
X139846000Y-86861000D01*
G37*
G36*
X181887395Y-84810546D02*
G01*
X182060466Y-84882234D01*
X182128452Y-84927661D01*
X182216227Y-84986310D01*
X182348690Y-85118773D01*
X182348691Y-85118775D01*
X182452766Y-85274534D01*
X182524454Y-85447605D01*
X182561000Y-85631333D01*
X182561000Y-85818667D01*
X182524454Y-86002395D01*
X182452766Y-86175466D01*
X182424656Y-86217535D01*
X182348690Y-86331227D01*
X182216227Y-86463690D01*
X182194408Y-86478269D01*
X182060466Y-86567766D01*
X181887395Y-86639454D01*
X181703667Y-86676000D01*
X181516333Y-86676000D01*
X181332605Y-86639454D01*
X181159534Y-86567766D01*
X181025592Y-86478269D01*
X181003773Y-86463690D01*
X180871310Y-86331227D01*
X180795344Y-86217535D01*
X180767234Y-86175466D01*
X180695546Y-86002395D01*
X180659000Y-85818667D01*
X180659000Y-85631333D01*
X180695546Y-85447605D01*
X180767234Y-85274534D01*
X180871309Y-85118775D01*
X180871310Y-85118773D01*
X181003773Y-84986310D01*
X181091548Y-84927661D01*
X181159534Y-84882234D01*
X181332605Y-84810546D01*
X181516333Y-84774000D01*
X181703667Y-84774000D01*
X181887395Y-84810546D01*
G37*
G36*
X174267395Y-84810546D02*
G01*
X174440466Y-84882234D01*
X174508452Y-84927661D01*
X174596227Y-84986310D01*
X174728690Y-85118773D01*
X174728691Y-85118775D01*
X174832766Y-85274534D01*
X174904454Y-85447605D01*
X174941000Y-85631333D01*
X174941000Y-85818667D01*
X174904454Y-86002395D01*
X174832766Y-86175466D01*
X174804656Y-86217535D01*
X174728690Y-86331227D01*
X174596227Y-86463690D01*
X174574408Y-86478269D01*
X174440466Y-86567766D01*
X174267395Y-86639454D01*
X174083667Y-86676000D01*
X173896333Y-86676000D01*
X173712605Y-86639454D01*
X173539534Y-86567766D01*
X173405592Y-86478269D01*
X173383773Y-86463690D01*
X173251310Y-86331227D01*
X173175344Y-86217535D01*
X173147234Y-86175466D01*
X173075546Y-86002395D01*
X173039000Y-85818667D01*
X173039000Y-85631333D01*
X173075546Y-85447605D01*
X173147234Y-85274534D01*
X173251309Y-85118775D01*
X173251310Y-85118773D01*
X173383773Y-84986310D01*
X173471548Y-84927661D01*
X173539534Y-84882234D01*
X173712605Y-84810546D01*
X173896333Y-84774000D01*
X174083667Y-84774000D01*
X174267395Y-84810546D01*
G37*
G36*
X144853674Y-84724465D02*
G01*
X144891367Y-84735899D01*
X144926103Y-84754466D01*
X144956548Y-84779452D01*
X144981534Y-84809897D01*
X145000101Y-84844633D01*
X145011535Y-84882326D01*
X145016000Y-84927661D01*
X145016000Y-86014339D01*
X145011535Y-86059674D01*
X145000101Y-86097367D01*
X144981534Y-86132103D01*
X144956548Y-86162548D01*
X144926103Y-86187534D01*
X144891367Y-86206101D01*
X144853674Y-86217535D01*
X144808339Y-86222000D01*
X143971661Y-86222000D01*
X143926326Y-86217535D01*
X143888633Y-86206101D01*
X143853897Y-86187534D01*
X143823452Y-86162548D01*
X143798466Y-86132103D01*
X143779899Y-86097367D01*
X143768465Y-86059674D01*
X143764000Y-86014339D01*
X143764000Y-84927661D01*
X143768465Y-84882326D01*
X143779899Y-84844633D01*
X143798466Y-84809897D01*
X143823452Y-84779452D01*
X143853897Y-84754466D01*
X143888633Y-84735899D01*
X143926326Y-84724465D01*
X143971661Y-84720000D01*
X144808339Y-84720000D01*
X144853674Y-84724465D01*
G37*
G36*
X146903674Y-84724465D02*
G01*
X146941367Y-84735899D01*
X146976103Y-84754466D01*
X147006548Y-84779452D01*
X147031534Y-84809897D01*
X147050101Y-84844633D01*
X147061535Y-84882326D01*
X147066000Y-84927661D01*
X147066000Y-86014339D01*
X147061535Y-86059674D01*
X147050101Y-86097367D01*
X147031534Y-86132103D01*
X147006548Y-86162548D01*
X146976103Y-86187534D01*
X146941367Y-86206101D01*
X146903674Y-86217535D01*
X146858339Y-86222000D01*
X146021661Y-86222000D01*
X145976326Y-86217535D01*
X145938633Y-86206101D01*
X145903897Y-86187534D01*
X145873452Y-86162548D01*
X145848466Y-86132103D01*
X145829899Y-86097367D01*
X145818465Y-86059674D01*
X145814000Y-86014339D01*
X145814000Y-84927661D01*
X145818465Y-84882326D01*
X145829899Y-84844633D01*
X145848466Y-84809897D01*
X145873452Y-84779452D01*
X145903897Y-84754466D01*
X145938633Y-84735899D01*
X145976326Y-84724465D01*
X146021661Y-84720000D01*
X146858339Y-84720000D01*
X146903674Y-84724465D01*
G37*
G36*
X197116000Y-85991000D02*
G01*
X195314000Y-85991000D01*
X195314000Y-84189000D01*
X197116000Y-84189000D01*
X197116000Y-85991000D01*
G37*
G36*
X193779769Y-84192188D02*
G01*
X193937812Y-84223624D01*
X194101784Y-84291544D01*
X194249354Y-84390147D01*
X194374853Y-84515646D01*
X194473456Y-84663216D01*
X194541376Y-84827188D01*
X194563631Y-84939075D01*
X194573044Y-84986395D01*
X194576000Y-85001259D01*
X194576000Y-85178741D01*
X194541376Y-85352812D01*
X194473456Y-85516784D01*
X194374853Y-85664354D01*
X194249354Y-85789853D01*
X194101784Y-85888456D01*
X193937812Y-85956376D01*
X193788512Y-85986073D01*
X193763742Y-85991000D01*
X193586258Y-85991000D01*
X193561488Y-85986073D01*
X193412188Y-85956376D01*
X193248216Y-85888456D01*
X193100646Y-85789853D01*
X192975147Y-85664354D01*
X192876544Y-85516784D01*
X192808624Y-85352812D01*
X192774000Y-85178741D01*
X192774000Y-85001259D01*
X192776957Y-84986395D01*
X192786369Y-84939075D01*
X192808624Y-84827188D01*
X192876544Y-84663216D01*
X192975147Y-84515646D01*
X193100646Y-84390147D01*
X193248216Y-84291544D01*
X193412188Y-84223624D01*
X193570231Y-84192188D01*
X193586258Y-84189000D01*
X193763742Y-84189000D01*
X193779769Y-84192188D01*
G37*
G36*
X191101000Y-85821000D02*
G01*
X189899000Y-85821000D01*
X189899000Y-84619000D01*
X191101000Y-84619000D01*
X191101000Y-85821000D01*
G37*
G36*
X167282395Y-83794546D02*
G01*
X167455466Y-83866234D01*
X167532818Y-83917919D01*
X167611227Y-83970310D01*
X167743690Y-84102773D01*
X167743691Y-84102775D01*
X167847766Y-84258534D01*
X167919454Y-84431605D01*
X167956000Y-84615333D01*
X167956000Y-84802667D01*
X167919454Y-84986395D01*
X167847766Y-85159466D01*
X167847765Y-85159467D01*
X167743690Y-85315227D01*
X167611227Y-85447690D01*
X167532818Y-85500081D01*
X167455466Y-85551766D01*
X167282395Y-85623454D01*
X167098667Y-85660000D01*
X166911333Y-85660000D01*
X166727605Y-85623454D01*
X166554534Y-85551766D01*
X166477182Y-85500081D01*
X166398773Y-85447690D01*
X166266310Y-85315227D01*
X166162235Y-85159467D01*
X166162234Y-85159466D01*
X166090546Y-84986395D01*
X166054000Y-84802667D01*
X166054000Y-84615333D01*
X166090546Y-84431605D01*
X166162234Y-84258534D01*
X166266309Y-84102775D01*
X166266310Y-84102773D01*
X166398773Y-83970310D01*
X166477182Y-83917919D01*
X166554534Y-83866234D01*
X166727605Y-83794546D01*
X166911333Y-83758000D01*
X167098667Y-83758000D01*
X167282395Y-83794546D01*
G37*
G36*
X139846000Y-85591000D02*
G01*
X137744000Y-85591000D01*
X137744000Y-84589000D01*
X139846000Y-84589000D01*
X139846000Y-85591000D01*
G37*
G36*
X154418512Y-83558927D02*
G01*
X154567812Y-83588624D01*
X154731784Y-83656544D01*
X154879354Y-83755147D01*
X155004853Y-83880646D01*
X155103456Y-84028216D01*
X155171376Y-84192188D01*
X155201073Y-84341488D01*
X155206000Y-84366258D01*
X155206000Y-84543742D01*
X155201618Y-84565770D01*
X155171376Y-84717812D01*
X155103456Y-84881784D01*
X155004853Y-85029354D01*
X154879354Y-85154853D01*
X154731784Y-85253456D01*
X154567812Y-85321376D01*
X154418512Y-85351073D01*
X154393742Y-85356000D01*
X154216258Y-85356000D01*
X154191488Y-85351073D01*
X154042188Y-85321376D01*
X153878216Y-85253456D01*
X153730646Y-85154853D01*
X153605147Y-85029354D01*
X153506544Y-84881784D01*
X153438624Y-84717812D01*
X153408382Y-84565770D01*
X153404000Y-84543742D01*
X153404000Y-84366258D01*
X153408927Y-84341488D01*
X153438624Y-84192188D01*
X153506544Y-84028216D01*
X153605147Y-83880646D01*
X153730646Y-83755147D01*
X153878216Y-83656544D01*
X154042188Y-83588624D01*
X154191488Y-83558927D01*
X154216258Y-83554000D01*
X154393742Y-83554000D01*
X154418512Y-83558927D01*
G37*
G36*
X186128674Y-83073465D02*
G01*
X186166367Y-83084899D01*
X186201103Y-83103466D01*
X186231548Y-83128452D01*
X186256534Y-83158897D01*
X186275101Y-83193633D01*
X186286535Y-83231326D01*
X186291000Y-83276661D01*
X186291000Y-84363339D01*
X186286535Y-84408674D01*
X186275101Y-84446367D01*
X186256534Y-84481103D01*
X186231548Y-84511548D01*
X186201103Y-84536534D01*
X186166367Y-84555101D01*
X186128674Y-84566535D01*
X186083339Y-84571000D01*
X185246661Y-84571000D01*
X185201326Y-84566535D01*
X185163633Y-84555101D01*
X185128897Y-84536534D01*
X185098452Y-84511548D01*
X185073466Y-84481103D01*
X185054899Y-84446367D01*
X185043465Y-84408674D01*
X185039000Y-84363339D01*
X185039000Y-83276661D01*
X185043465Y-83231326D01*
X185054899Y-83193633D01*
X185073466Y-83158897D01*
X185098452Y-83128452D01*
X185128897Y-83103466D01*
X185163633Y-83084899D01*
X185201326Y-83073465D01*
X185246661Y-83069000D01*
X186083339Y-83069000D01*
X186128674Y-83073465D01*
G37*
G36*
X188178674Y-83073465D02*
G01*
X188216367Y-83084899D01*
X188251103Y-83103466D01*
X188281548Y-83128452D01*
X188306534Y-83158897D01*
X188325101Y-83193633D01*
X188336535Y-83231326D01*
X188341000Y-83276661D01*
X188341000Y-84363339D01*
X188336535Y-84408674D01*
X188325101Y-84446367D01*
X188306534Y-84481103D01*
X188281548Y-84511548D01*
X188251103Y-84536534D01*
X188216367Y-84555101D01*
X188178674Y-84566535D01*
X188133339Y-84571000D01*
X187296661Y-84571000D01*
X187251326Y-84566535D01*
X187213633Y-84555101D01*
X187178897Y-84536534D01*
X187148452Y-84511548D01*
X187123466Y-84481103D01*
X187104899Y-84446367D01*
X187093465Y-84408674D01*
X187089000Y-84363339D01*
X187089000Y-83276661D01*
X187093465Y-83231326D01*
X187104899Y-83193633D01*
X187123466Y-83158897D01*
X187148452Y-83128452D01*
X187178897Y-83103466D01*
X187213633Y-83084899D01*
X187251326Y-83073465D01*
X187296661Y-83069000D01*
X188133339Y-83069000D01*
X188178674Y-83073465D01*
G37*
G36*
X139846000Y-84321000D02*
G01*
X137744000Y-84321000D01*
X137744000Y-83319000D01*
X139846000Y-83319000D01*
X139846000Y-84321000D01*
G37*
G36*
X131336000Y-84196000D02*
G01*
X126234000Y-84196000D01*
X126234000Y-79094000D01*
X131336000Y-79094000D01*
X131336000Y-84196000D01*
G37*
G36*
X182561000Y-84136000D02*
G01*
X180659000Y-84136000D01*
X180659000Y-82234000D01*
X182561000Y-82234000D01*
X182561000Y-84136000D01*
G37*
G36*
X174941000Y-84136000D02*
G01*
X173039000Y-84136000D01*
X173039000Y-82234000D01*
X174941000Y-82234000D01*
X174941000Y-84136000D01*
G37*
G36*
X151661000Y-83701000D02*
G01*
X150559000Y-83701000D01*
X150559000Y-82799000D01*
X151661000Y-82799000D01*
X151661000Y-83701000D01*
G37*
G36*
X149161000Y-83701000D02*
G01*
X148059000Y-83701000D01*
X148059000Y-82799000D01*
X149161000Y-82799000D01*
X149161000Y-83701000D01*
G37*
G36*
X144853674Y-82184465D02*
G01*
X144891367Y-82195899D01*
X144926103Y-82214466D01*
X144956548Y-82239452D01*
X144981534Y-82269897D01*
X145000101Y-82304633D01*
X145011535Y-82342326D01*
X145016000Y-82387661D01*
X145016000Y-83474339D01*
X145011535Y-83519674D01*
X145000101Y-83557367D01*
X144981534Y-83592103D01*
X144956548Y-83622548D01*
X144926103Y-83647534D01*
X144891367Y-83666101D01*
X144853674Y-83677535D01*
X144808339Y-83682000D01*
X143971661Y-83682000D01*
X143926326Y-83677535D01*
X143888633Y-83666101D01*
X143853897Y-83647534D01*
X143823452Y-83622548D01*
X143798466Y-83592103D01*
X143779899Y-83557367D01*
X143768465Y-83519674D01*
X143764000Y-83474339D01*
X143764000Y-82387661D01*
X143768465Y-82342326D01*
X143779899Y-82304633D01*
X143798466Y-82269897D01*
X143823452Y-82239452D01*
X143853897Y-82214466D01*
X143888633Y-82195899D01*
X143926326Y-82184465D01*
X143971661Y-82180000D01*
X144808339Y-82180000D01*
X144853674Y-82184465D01*
G37*
G36*
X146903674Y-82184465D02*
G01*
X146941367Y-82195899D01*
X146976103Y-82214466D01*
X147006548Y-82239452D01*
X147031534Y-82269897D01*
X147050101Y-82304633D01*
X147061535Y-82342326D01*
X147066000Y-82387661D01*
X147066000Y-83474339D01*
X147061535Y-83519674D01*
X147050101Y-83557367D01*
X147031534Y-83592103D01*
X147006548Y-83622548D01*
X146976103Y-83647534D01*
X146941367Y-83666101D01*
X146903674Y-83677535D01*
X146858339Y-83682000D01*
X146021661Y-83682000D01*
X145976326Y-83677535D01*
X145938633Y-83666101D01*
X145903897Y-83647534D01*
X145873452Y-83622548D01*
X145848466Y-83592103D01*
X145829899Y-83557367D01*
X145818465Y-83519674D01*
X145814000Y-83474339D01*
X145814000Y-82387661D01*
X145818465Y-82342326D01*
X145829899Y-82304633D01*
X145848466Y-82269897D01*
X145873452Y-82239452D01*
X145903897Y-82214466D01*
X145938633Y-82195899D01*
X145976326Y-82184465D01*
X146021661Y-82180000D01*
X146858339Y-82180000D01*
X146903674Y-82184465D01*
G37*
G36*
X193779769Y-81652188D02*
G01*
X193937812Y-81683624D01*
X194101784Y-81751544D01*
X194249354Y-81850147D01*
X194374853Y-81975646D01*
X194473456Y-82123216D01*
X194541376Y-82287188D01*
X194563631Y-82399075D01*
X194573044Y-82446395D01*
X194576000Y-82461259D01*
X194576000Y-82638741D01*
X194541376Y-82812812D01*
X194473456Y-82976784D01*
X194374853Y-83124354D01*
X194249354Y-83249853D01*
X194101784Y-83348456D01*
X193937812Y-83416376D01*
X193788512Y-83446073D01*
X193763742Y-83451000D01*
X193586258Y-83451000D01*
X193561488Y-83446073D01*
X193412188Y-83416376D01*
X193248216Y-83348456D01*
X193100646Y-83249853D01*
X192975147Y-83124354D01*
X192876544Y-82976784D01*
X192808624Y-82812812D01*
X192774000Y-82638741D01*
X192774000Y-82461259D01*
X192776957Y-82446395D01*
X192786369Y-82399075D01*
X192808624Y-82287188D01*
X192876544Y-82123216D01*
X192975147Y-81975646D01*
X193100646Y-81850147D01*
X193248216Y-81751544D01*
X193412188Y-81683624D01*
X193570231Y-81652188D01*
X193586258Y-81649000D01*
X193763742Y-81649000D01*
X193779769Y-81652188D01*
G37*
G36*
X196319769Y-81652188D02*
G01*
X196477812Y-81683624D01*
X196641784Y-81751544D01*
X196789354Y-81850147D01*
X196914853Y-81975646D01*
X197013456Y-82123216D01*
X197081376Y-82287188D01*
X197103631Y-82399075D01*
X197113044Y-82446395D01*
X197116000Y-82461259D01*
X197116000Y-82638741D01*
X197081376Y-82812812D01*
X197013456Y-82976784D01*
X196914853Y-83124354D01*
X196789354Y-83249853D01*
X196641784Y-83348456D01*
X196477812Y-83416376D01*
X196328512Y-83446073D01*
X196303742Y-83451000D01*
X196126258Y-83451000D01*
X196101488Y-83446073D01*
X195952188Y-83416376D01*
X195788216Y-83348456D01*
X195640646Y-83249853D01*
X195515147Y-83124354D01*
X195416544Y-82976784D01*
X195348624Y-82812812D01*
X195314000Y-82638741D01*
X195314000Y-82461259D01*
X195316957Y-82446395D01*
X195326369Y-82399075D01*
X195348624Y-82287188D01*
X195416544Y-82123216D01*
X195515147Y-81975646D01*
X195640646Y-81850147D01*
X195788216Y-81751544D01*
X195952188Y-81683624D01*
X196110231Y-81652188D01*
X196126258Y-81649000D01*
X196303742Y-81649000D01*
X196319769Y-81652188D01*
G37*
G36*
X167282395Y-81254546D02*
G01*
X167455466Y-81326234D01*
X167491230Y-81350131D01*
X167611227Y-81430310D01*
X167743690Y-81562773D01*
X167743691Y-81562775D01*
X167847766Y-81718534D01*
X167919454Y-81891605D01*
X167956000Y-82075333D01*
X167956000Y-82262667D01*
X167919454Y-82446395D01*
X167847766Y-82619466D01*
X167847765Y-82619467D01*
X167743690Y-82775227D01*
X167611227Y-82907690D01*
X167532818Y-82960081D01*
X167455466Y-83011766D01*
X167282395Y-83083454D01*
X167098667Y-83120000D01*
X166911333Y-83120000D01*
X166727605Y-83083454D01*
X166554534Y-83011766D01*
X166477182Y-82960081D01*
X166398773Y-82907690D01*
X166266310Y-82775227D01*
X166162235Y-82619467D01*
X166162234Y-82619466D01*
X166090546Y-82446395D01*
X166054000Y-82262667D01*
X166054000Y-82075333D01*
X166090546Y-81891605D01*
X166162234Y-81718534D01*
X166266309Y-81562775D01*
X166266310Y-81562773D01*
X166398773Y-81430310D01*
X166518770Y-81350131D01*
X166554534Y-81326234D01*
X166727605Y-81254546D01*
X166911333Y-81218000D01*
X167098667Y-81218000D01*
X167282395Y-81254546D01*
G37*
G36*
X139846000Y-83051000D02*
G01*
X137744000Y-83051000D01*
X137744000Y-82049000D01*
X139846000Y-82049000D01*
X139846000Y-83051000D01*
G37*
G36*
X191101000Y-83021000D02*
G01*
X189899000Y-83021000D01*
X189899000Y-81819000D01*
X191101000Y-81819000D01*
X191101000Y-83021000D01*
G37*
G36*
X154418512Y-81018927D02*
G01*
X154567812Y-81048624D01*
X154731784Y-81116544D01*
X154879354Y-81215147D01*
X155004853Y-81340646D01*
X155103456Y-81488216D01*
X155171376Y-81652188D01*
X155206000Y-81826259D01*
X155206000Y-82003741D01*
X155171376Y-82177812D01*
X155103456Y-82341784D01*
X155004853Y-82489354D01*
X154879354Y-82614853D01*
X154731784Y-82713456D01*
X154567812Y-82781376D01*
X154418512Y-82811073D01*
X154393742Y-82816000D01*
X154216258Y-82816000D01*
X154191488Y-82811073D01*
X154042188Y-82781376D01*
X153878216Y-82713456D01*
X153730646Y-82614853D01*
X153605147Y-82489354D01*
X153506544Y-82341784D01*
X153438624Y-82177812D01*
X153404000Y-82003741D01*
X153404000Y-81826259D01*
X153438624Y-81652188D01*
X153506544Y-81488216D01*
X153605147Y-81340646D01*
X153730646Y-81215147D01*
X153878216Y-81116544D01*
X154042188Y-81048624D01*
X154191488Y-81018927D01*
X154216258Y-81014000D01*
X154393742Y-81014000D01*
X154418512Y-81018927D01*
G37*
G36*
X151661000Y-82301000D02*
G01*
X150559000Y-82301000D01*
X150559000Y-81399000D01*
X151661000Y-81399000D01*
X151661000Y-82301000D01*
G37*
G36*
X149161000Y-82301000D02*
G01*
X148059000Y-82301000D01*
X148059000Y-81399000D01*
X149161000Y-81399000D01*
X149161000Y-82301000D01*
G37*
G36*
X139846000Y-81781000D02*
G01*
X137744000Y-81781000D01*
X137744000Y-80779000D01*
X139846000Y-80779000D01*
X139846000Y-81781000D01*
G37*
G36*
X188178674Y-79898465D02*
G01*
X188216367Y-79909899D01*
X188251103Y-79928466D01*
X188281548Y-79953452D01*
X188306534Y-79983897D01*
X188325101Y-80018633D01*
X188336535Y-80056326D01*
X188341000Y-80101661D01*
X188341000Y-81188339D01*
X188336535Y-81233674D01*
X188325101Y-81271367D01*
X188306534Y-81306103D01*
X188281548Y-81336548D01*
X188251103Y-81361534D01*
X188216367Y-81380101D01*
X188178674Y-81391535D01*
X188133339Y-81396000D01*
X187296661Y-81396000D01*
X187251326Y-81391535D01*
X187213633Y-81380101D01*
X187178897Y-81361534D01*
X187148452Y-81336548D01*
X187123466Y-81306103D01*
X187104899Y-81271367D01*
X187093465Y-81233674D01*
X187089000Y-81188339D01*
X187089000Y-80101661D01*
X187093465Y-80056326D01*
X187104899Y-80018633D01*
X187123466Y-79983897D01*
X187148452Y-79953452D01*
X187178897Y-79928466D01*
X187213633Y-79909899D01*
X187251326Y-79898465D01*
X187296661Y-79894000D01*
X188133339Y-79894000D01*
X188178674Y-79898465D01*
G37*
G36*
X186128674Y-79898465D02*
G01*
X186166367Y-79909899D01*
X186201103Y-79928466D01*
X186231548Y-79953452D01*
X186256534Y-79983897D01*
X186275101Y-80018633D01*
X186286535Y-80056326D01*
X186291000Y-80101661D01*
X186291000Y-81188339D01*
X186286535Y-81233674D01*
X186275101Y-81271367D01*
X186256534Y-81306103D01*
X186231548Y-81336548D01*
X186201103Y-81361534D01*
X186166367Y-81380101D01*
X186128674Y-81391535D01*
X186083339Y-81396000D01*
X185246661Y-81396000D01*
X185201326Y-81391535D01*
X185163633Y-81380101D01*
X185128897Y-81361534D01*
X185098452Y-81336548D01*
X185073466Y-81306103D01*
X185054899Y-81271367D01*
X185043465Y-81233674D01*
X185039000Y-81188339D01*
X185039000Y-80101661D01*
X185043465Y-80056326D01*
X185054899Y-80018633D01*
X185073466Y-79983897D01*
X185098452Y-79953452D01*
X185128897Y-79928466D01*
X185163633Y-79909899D01*
X185201326Y-79898465D01*
X185246661Y-79894000D01*
X186083339Y-79894000D01*
X186128674Y-79898465D01*
G37*
G36*
X193779769Y-79112188D02*
G01*
X193937812Y-79143624D01*
X194101784Y-79211544D01*
X194249354Y-79310147D01*
X194374853Y-79435646D01*
X194473456Y-79583216D01*
X194541376Y-79747188D01*
X194563656Y-79859200D01*
X194573741Y-79909899D01*
X194576000Y-79921259D01*
X194576000Y-80098741D01*
X194541376Y-80272812D01*
X194473456Y-80436784D01*
X194374853Y-80584354D01*
X194249354Y-80709853D01*
X194101784Y-80808456D01*
X193937812Y-80876376D01*
X193788512Y-80906073D01*
X193763742Y-80911000D01*
X193586258Y-80911000D01*
X193561488Y-80906073D01*
X193412188Y-80876376D01*
X193248216Y-80808456D01*
X193100646Y-80709853D01*
X192975147Y-80584354D01*
X192876544Y-80436784D01*
X192808624Y-80272812D01*
X192774000Y-80098741D01*
X192774000Y-79921259D01*
X192776260Y-79909899D01*
X192786344Y-79859200D01*
X192808624Y-79747188D01*
X192876544Y-79583216D01*
X192975147Y-79435646D01*
X193100646Y-79310147D01*
X193248216Y-79211544D01*
X193412188Y-79143624D01*
X193570231Y-79112188D01*
X193586258Y-79109000D01*
X193763742Y-79109000D01*
X193779769Y-79112188D01*
G37*
G36*
X196319769Y-79112188D02*
G01*
X196477812Y-79143624D01*
X196641784Y-79211544D01*
X196789354Y-79310147D01*
X196914853Y-79435646D01*
X197013456Y-79583216D01*
X197081376Y-79747188D01*
X197103656Y-79859200D01*
X197113741Y-79909899D01*
X197116000Y-79921259D01*
X197116000Y-80098741D01*
X197081376Y-80272812D01*
X197013456Y-80436784D01*
X196914853Y-80584354D01*
X196789354Y-80709853D01*
X196641784Y-80808456D01*
X196477812Y-80876376D01*
X196328512Y-80906073D01*
X196303742Y-80911000D01*
X196126258Y-80911000D01*
X196101488Y-80906073D01*
X195952188Y-80876376D01*
X195788216Y-80808456D01*
X195640646Y-80709853D01*
X195515147Y-80584354D01*
X195416544Y-80436784D01*
X195348624Y-80272812D01*
X195314000Y-80098741D01*
X195314000Y-79921259D01*
X195316260Y-79909899D01*
X195326344Y-79859200D01*
X195348624Y-79747188D01*
X195416544Y-79583216D01*
X195515147Y-79435646D01*
X195640646Y-79310147D01*
X195788216Y-79211544D01*
X195952188Y-79143624D01*
X196110231Y-79112188D01*
X196126258Y-79109000D01*
X196303742Y-79109000D01*
X196319769Y-79112188D01*
G37*
G36*
X191101000Y-80741000D02*
G01*
X189899000Y-80741000D01*
X189899000Y-79539000D01*
X191101000Y-79539000D01*
X191101000Y-80741000D01*
G37*
G36*
X139846000Y-80511000D02*
G01*
X137744000Y-80511000D01*
X137744000Y-79509000D01*
X139846000Y-79509000D01*
X139846000Y-80511000D01*
G37*
G36*
X146741000Y-80421000D02*
G01*
X145989000Y-80421000D01*
X145989000Y-79259000D01*
X146741000Y-79259000D01*
X146741000Y-80421000D01*
G37*
G36*
X144841000Y-80421000D02*
G01*
X144089000Y-80421000D01*
X144089000Y-79259000D01*
X144841000Y-79259000D01*
X144841000Y-80421000D01*
G37*
G36*
X142828674Y-79143465D02*
G01*
X142866367Y-79154899D01*
X142901103Y-79173466D01*
X142931548Y-79198452D01*
X142956534Y-79228897D01*
X142975101Y-79263633D01*
X142986535Y-79301326D01*
X142991000Y-79346661D01*
X142991000Y-80183339D01*
X142986535Y-80228674D01*
X142975101Y-80266367D01*
X142956534Y-80301103D01*
X142931548Y-80331548D01*
X142901103Y-80356534D01*
X142866367Y-80375101D01*
X142828674Y-80386535D01*
X142783339Y-80391000D01*
X141696661Y-80391000D01*
X141651326Y-80386535D01*
X141613633Y-80375101D01*
X141578897Y-80356534D01*
X141548452Y-80331548D01*
X141523466Y-80301103D01*
X141504899Y-80266367D01*
X141493465Y-80228674D01*
X141489000Y-80183339D01*
X141489000Y-79346661D01*
X141493465Y-79301326D01*
X141504899Y-79263633D01*
X141523466Y-79228897D01*
X141548452Y-79198452D01*
X141578897Y-79173466D01*
X141613633Y-79154899D01*
X141651326Y-79143465D01*
X141696661Y-79139000D01*
X142783339Y-79139000D01*
X142828674Y-79143465D01*
G37*
G36*
X154418512Y-78478927D02*
G01*
X154567812Y-78508624D01*
X154731784Y-78576544D01*
X154879354Y-78675147D01*
X155004853Y-78800646D01*
X155103456Y-78948216D01*
X155171376Y-79112188D01*
X155200578Y-79259000D01*
X155206000Y-79286258D01*
X155206000Y-79463742D01*
X155201618Y-79485770D01*
X155171376Y-79637812D01*
X155103456Y-79801784D01*
X155004853Y-79949354D01*
X154879354Y-80074853D01*
X154731784Y-80173456D01*
X154567812Y-80241376D01*
X154423715Y-80270038D01*
X154393742Y-80276000D01*
X154216258Y-80276000D01*
X154186285Y-80270038D01*
X154042188Y-80241376D01*
X153878216Y-80173456D01*
X153730646Y-80074853D01*
X153605147Y-79949354D01*
X153506544Y-79801784D01*
X153438624Y-79637812D01*
X153408382Y-79485770D01*
X153404000Y-79463742D01*
X153404000Y-79286258D01*
X153409422Y-79259000D01*
X153438624Y-79112188D01*
X153506544Y-78948216D01*
X153605147Y-78800646D01*
X153730646Y-78675147D01*
X153878216Y-78576544D01*
X154042188Y-78508624D01*
X154191488Y-78478927D01*
X154216258Y-78474000D01*
X154393742Y-78474000D01*
X154418512Y-78478927D01*
G37*
G36*
X167815723Y-78173939D02*
G01*
X167848280Y-78183815D01*
X167878276Y-78199848D01*
X167904572Y-78221428D01*
X167926152Y-78247724D01*
X167942185Y-78277720D01*
X167952061Y-78310277D01*
X167956000Y-78350269D01*
X167956000Y-79891731D01*
X167952061Y-79931723D01*
X167942185Y-79964280D01*
X167926152Y-79994276D01*
X167904572Y-80020572D01*
X167878276Y-80042152D01*
X167848280Y-80058185D01*
X167815723Y-80068061D01*
X167775731Y-80072000D01*
X166234269Y-80072000D01*
X166194277Y-80068061D01*
X166161720Y-80058185D01*
X166131724Y-80042152D01*
X166105428Y-80020572D01*
X166083848Y-79994276D01*
X166067815Y-79964280D01*
X166057939Y-79931723D01*
X166054000Y-79891731D01*
X166054000Y-78350269D01*
X166057939Y-78310277D01*
X166067815Y-78277720D01*
X166083848Y-78247724D01*
X166105428Y-78221428D01*
X166131724Y-78199848D01*
X166161720Y-78183815D01*
X166194277Y-78173939D01*
X166234269Y-78170000D01*
X167775731Y-78170000D01*
X167815723Y-78173939D01*
G37*
G36*
X151348674Y-77993465D02*
G01*
X151386367Y-78004899D01*
X151421103Y-78023466D01*
X151451548Y-78048452D01*
X151476534Y-78078897D01*
X151495101Y-78113633D01*
X151506535Y-78151326D01*
X151511000Y-78196661D01*
X151511000Y-79283339D01*
X151506535Y-79328674D01*
X151495101Y-79366367D01*
X151476534Y-79401103D01*
X151451548Y-79431548D01*
X151421103Y-79456534D01*
X151386367Y-79475101D01*
X151348674Y-79486535D01*
X151303339Y-79491000D01*
X150466661Y-79491000D01*
X150421326Y-79486535D01*
X150383633Y-79475101D01*
X150348897Y-79456534D01*
X150318452Y-79431548D01*
X150293466Y-79401103D01*
X150274899Y-79366367D01*
X150263465Y-79328674D01*
X150259000Y-79283339D01*
X150259000Y-78196661D01*
X150263465Y-78151326D01*
X150274899Y-78113633D01*
X150293466Y-78078897D01*
X150318452Y-78048452D01*
X150348897Y-78023466D01*
X150383633Y-78004899D01*
X150421326Y-77993465D01*
X150466661Y-77989000D01*
X151303339Y-77989000D01*
X151348674Y-77993465D01*
G37*
G36*
X149298674Y-77993465D02*
G01*
X149336367Y-78004899D01*
X149371103Y-78023466D01*
X149401548Y-78048452D01*
X149426534Y-78078897D01*
X149445101Y-78113633D01*
X149456535Y-78151326D01*
X149461000Y-78196661D01*
X149461000Y-79283339D01*
X149456535Y-79328674D01*
X149445101Y-79366367D01*
X149426534Y-79401103D01*
X149401548Y-79431548D01*
X149371103Y-79456534D01*
X149336367Y-79475101D01*
X149298674Y-79486535D01*
X149253339Y-79491000D01*
X148416661Y-79491000D01*
X148371326Y-79486535D01*
X148333633Y-79475101D01*
X148298897Y-79456534D01*
X148268452Y-79431548D01*
X148243466Y-79401103D01*
X148224899Y-79366367D01*
X148213465Y-79328674D01*
X148209000Y-79283339D01*
X148209000Y-78196661D01*
X148213465Y-78151326D01*
X148224899Y-78113633D01*
X148243466Y-78078897D01*
X148268452Y-78048452D01*
X148298897Y-78023466D01*
X148333633Y-78004899D01*
X148371326Y-77993465D01*
X148416661Y-77989000D01*
X149253339Y-77989000D01*
X149298674Y-77993465D01*
G37*
G36*
X139846000Y-79241000D02*
G01*
X137744000Y-79241000D01*
X137744000Y-78239000D01*
X139846000Y-78239000D01*
X139846000Y-79241000D01*
G37*
G36*
X174267395Y-77190546D02*
G01*
X174440466Y-77262234D01*
X174509072Y-77308075D01*
X174596227Y-77366310D01*
X174728690Y-77498773D01*
X174728691Y-77498775D01*
X174832766Y-77654534D01*
X174904454Y-77827605D01*
X174941000Y-78011333D01*
X174941000Y-78198667D01*
X174904454Y-78382395D01*
X174832766Y-78555466D01*
X174832765Y-78555467D01*
X174728690Y-78711227D01*
X174596227Y-78843690D01*
X174517818Y-78896081D01*
X174440466Y-78947766D01*
X174267395Y-79019454D01*
X174083667Y-79056000D01*
X173896333Y-79056000D01*
X173712605Y-79019454D01*
X173539534Y-78947766D01*
X173462182Y-78896081D01*
X173383773Y-78843690D01*
X173251310Y-78711227D01*
X173147235Y-78555467D01*
X173147234Y-78555466D01*
X173075546Y-78382395D01*
X173039000Y-78198667D01*
X173039000Y-78011333D01*
X173075546Y-77827605D01*
X173147234Y-77654534D01*
X173251309Y-77498775D01*
X173251310Y-77498773D01*
X173383773Y-77366310D01*
X173470928Y-77308075D01*
X173539534Y-77262234D01*
X173712605Y-77190546D01*
X173896333Y-77154000D01*
X174083667Y-77154000D01*
X174267395Y-77190546D01*
G37*
G36*
X181887395Y-77190546D02*
G01*
X182060466Y-77262234D01*
X182129072Y-77308075D01*
X182216227Y-77366310D01*
X182348690Y-77498773D01*
X182348691Y-77498775D01*
X182452766Y-77654534D01*
X182524454Y-77827605D01*
X182561000Y-78011333D01*
X182561000Y-78198667D01*
X182524454Y-78382395D01*
X182452766Y-78555466D01*
X182452765Y-78555467D01*
X182348690Y-78711227D01*
X182216227Y-78843690D01*
X182137818Y-78896081D01*
X182060466Y-78947766D01*
X181887395Y-79019454D01*
X181703667Y-79056000D01*
X181516333Y-79056000D01*
X181332605Y-79019454D01*
X181159534Y-78947766D01*
X181082182Y-78896081D01*
X181003773Y-78843690D01*
X180871310Y-78711227D01*
X180767235Y-78555467D01*
X180767234Y-78555466D01*
X180695546Y-78382395D01*
X180659000Y-78198667D01*
X180659000Y-78011333D01*
X180695546Y-77827605D01*
X180767234Y-77654534D01*
X180871309Y-77498775D01*
X180871310Y-77498773D01*
X181003773Y-77366310D01*
X181090928Y-77308075D01*
X181159534Y-77262234D01*
X181332605Y-77190546D01*
X181516333Y-77154000D01*
X181703667Y-77154000D01*
X181887395Y-77190546D01*
G37*
G36*
X193779769Y-76572188D02*
G01*
X193937812Y-76603624D01*
X194101784Y-76671544D01*
X194249354Y-76770147D01*
X194374853Y-76895646D01*
X194473456Y-77043216D01*
X194541376Y-77207188D01*
X194576000Y-77381259D01*
X194576000Y-77558741D01*
X194541376Y-77732812D01*
X194473456Y-77896784D01*
X194374853Y-78044354D01*
X194249354Y-78169853D01*
X194101784Y-78268456D01*
X193937812Y-78336376D01*
X193788512Y-78366073D01*
X193763742Y-78371000D01*
X193586258Y-78371000D01*
X193561488Y-78366073D01*
X193412188Y-78336376D01*
X193248216Y-78268456D01*
X193100646Y-78169853D01*
X192975147Y-78044354D01*
X192876544Y-77896784D01*
X192808624Y-77732812D01*
X192774000Y-77558741D01*
X192774000Y-77381259D01*
X192808624Y-77207188D01*
X192876544Y-77043216D01*
X192975147Y-76895646D01*
X193100646Y-76770147D01*
X193248216Y-76671544D01*
X193412188Y-76603624D01*
X193570231Y-76572188D01*
X193586258Y-76569000D01*
X193763742Y-76569000D01*
X193779769Y-76572188D01*
G37*
G36*
X196319769Y-76572188D02*
G01*
X196477812Y-76603624D01*
X196641784Y-76671544D01*
X196789354Y-76770147D01*
X196914853Y-76895646D01*
X197013456Y-77043216D01*
X197081376Y-77207188D01*
X197116000Y-77381259D01*
X197116000Y-77558741D01*
X197081376Y-77732812D01*
X197013456Y-77896784D01*
X196914853Y-78044354D01*
X196789354Y-78169853D01*
X196641784Y-78268456D01*
X196477812Y-78336376D01*
X196328512Y-78366073D01*
X196303742Y-78371000D01*
X196126258Y-78371000D01*
X196101488Y-78366073D01*
X195952188Y-78336376D01*
X195788216Y-78268456D01*
X195640646Y-78169853D01*
X195515147Y-78044354D01*
X195416544Y-77896784D01*
X195348624Y-77732812D01*
X195314000Y-77558741D01*
X195314000Y-77381259D01*
X195348624Y-77207188D01*
X195416544Y-77043216D01*
X195515147Y-76895646D01*
X195640646Y-76770147D01*
X195788216Y-76671544D01*
X195952188Y-76603624D01*
X196110231Y-76572188D01*
X196126258Y-76569000D01*
X196303742Y-76569000D01*
X196319769Y-76572188D01*
G37*
G36*
X142828674Y-77093465D02*
G01*
X142866367Y-77104899D01*
X142901103Y-77123466D01*
X142931548Y-77148452D01*
X142956534Y-77178897D01*
X142975101Y-77213633D01*
X142986535Y-77251326D01*
X142991000Y-77296661D01*
X142991000Y-78133339D01*
X142986535Y-78178674D01*
X142975101Y-78216367D01*
X142956534Y-78251103D01*
X142931548Y-78281548D01*
X142901103Y-78306534D01*
X142866367Y-78325101D01*
X142828674Y-78336535D01*
X142783339Y-78341000D01*
X141696661Y-78341000D01*
X141651326Y-78336535D01*
X141613633Y-78325101D01*
X141578897Y-78306534D01*
X141548452Y-78281548D01*
X141523466Y-78251103D01*
X141504899Y-78216367D01*
X141493465Y-78178674D01*
X141489000Y-78133339D01*
X141489000Y-77296661D01*
X141493465Y-77251326D01*
X141504899Y-77213633D01*
X141523466Y-77178897D01*
X141548452Y-77148452D01*
X141578897Y-77123466D01*
X141613633Y-77104899D01*
X141651326Y-77093465D01*
X141696661Y-77089000D01*
X142783339Y-77089000D01*
X142828674Y-77093465D01*
G37*
G36*
X186128674Y-76723465D02*
G01*
X186166367Y-76734899D01*
X186201103Y-76753466D01*
X186231548Y-76778452D01*
X186256534Y-76808897D01*
X186275101Y-76843633D01*
X186286535Y-76881326D01*
X186291000Y-76926661D01*
X186291000Y-78013339D01*
X186286535Y-78058674D01*
X186275101Y-78096367D01*
X186256534Y-78131103D01*
X186231548Y-78161548D01*
X186201103Y-78186534D01*
X186166367Y-78205101D01*
X186128674Y-78216535D01*
X186083339Y-78221000D01*
X185246661Y-78221000D01*
X185201326Y-78216535D01*
X185163633Y-78205101D01*
X185128897Y-78186534D01*
X185098452Y-78161548D01*
X185073466Y-78131103D01*
X185054899Y-78096367D01*
X185043465Y-78058674D01*
X185039000Y-78013339D01*
X185039000Y-76926661D01*
X185043465Y-76881326D01*
X185054899Y-76843633D01*
X185073466Y-76808897D01*
X185098452Y-76778452D01*
X185128897Y-76753466D01*
X185163633Y-76734899D01*
X185201326Y-76723465D01*
X185246661Y-76719000D01*
X186083339Y-76719000D01*
X186128674Y-76723465D01*
G37*
G36*
X188178674Y-76723465D02*
G01*
X188216367Y-76734899D01*
X188251103Y-76753466D01*
X188281548Y-76778452D01*
X188306534Y-76808897D01*
X188325101Y-76843633D01*
X188336535Y-76881326D01*
X188341000Y-76926661D01*
X188341000Y-78013339D01*
X188336535Y-78058674D01*
X188325101Y-78096367D01*
X188306534Y-78131103D01*
X188281548Y-78161548D01*
X188251103Y-78186534D01*
X188216367Y-78205101D01*
X188178674Y-78216535D01*
X188133339Y-78221000D01*
X187296661Y-78221000D01*
X187251326Y-78216535D01*
X187213633Y-78205101D01*
X187178897Y-78186534D01*
X187148452Y-78161548D01*
X187123466Y-78131103D01*
X187104899Y-78096367D01*
X187093465Y-78058674D01*
X187089000Y-78013339D01*
X187089000Y-76926661D01*
X187093465Y-76881326D01*
X187104899Y-76843633D01*
X187123466Y-76808897D01*
X187148452Y-76778452D01*
X187178897Y-76753466D01*
X187213633Y-76734899D01*
X187251326Y-76723465D01*
X187296661Y-76719000D01*
X188133339Y-76719000D01*
X188178674Y-76723465D01*
G37*
G36*
X146741000Y-78221000D02*
G01*
X144089000Y-78221000D01*
X144089000Y-77059000D01*
X146741000Y-77059000D01*
X146741000Y-78221000D01*
G37*
G36*
X139846000Y-77971000D02*
G01*
X137744000Y-77971000D01*
X137744000Y-76969000D01*
X139846000Y-76969000D01*
X139846000Y-77971000D01*
G37*
G36*
X191101000Y-77941000D02*
G01*
X189899000Y-77941000D01*
X189899000Y-76739000D01*
X191101000Y-76739000D01*
X191101000Y-77941000D01*
G37*
G36*
X154418512Y-75938927D02*
G01*
X154567812Y-75968624D01*
X154731784Y-76036544D01*
X154879354Y-76135147D01*
X155004853Y-76260646D01*
X155103456Y-76408216D01*
X155171376Y-76572188D01*
X155200578Y-76719000D01*
X155203741Y-76734899D01*
X155206000Y-76746259D01*
X155206000Y-76923741D01*
X155171376Y-77097812D01*
X155103456Y-77261784D01*
X155004853Y-77409354D01*
X154879354Y-77534853D01*
X154731784Y-77633456D01*
X154567812Y-77701376D01*
X154418512Y-77731073D01*
X154393742Y-77736000D01*
X154216258Y-77736000D01*
X154191488Y-77731073D01*
X154042188Y-77701376D01*
X153878216Y-77633456D01*
X153730646Y-77534853D01*
X153605147Y-77409354D01*
X153506544Y-77261784D01*
X153438624Y-77097812D01*
X153404000Y-76923741D01*
X153404000Y-76746259D01*
X153406260Y-76734899D01*
X153409422Y-76719000D01*
X153438624Y-76572188D01*
X153506544Y-76408216D01*
X153605147Y-76260646D01*
X153730646Y-76135147D01*
X153878216Y-76036544D01*
X154042188Y-75968624D01*
X154191488Y-75938927D01*
X154216258Y-75934000D01*
X154393742Y-75934000D01*
X154418512Y-75938927D01*
G37*
G36*
X167282395Y-75666546D02*
G01*
X167455466Y-75738234D01*
X167455467Y-75738235D01*
X167611227Y-75842310D01*
X167743690Y-75974773D01*
X167743691Y-75974775D01*
X167847766Y-76130534D01*
X167919454Y-76303605D01*
X167956000Y-76487333D01*
X167956000Y-76674667D01*
X167919454Y-76858395D01*
X167847766Y-77031466D01*
X167805828Y-77094230D01*
X167743690Y-77187227D01*
X167611227Y-77319690D01*
X167549143Y-77361173D01*
X167455466Y-77423766D01*
X167282395Y-77495454D01*
X167098667Y-77532000D01*
X166911333Y-77532000D01*
X166727605Y-77495454D01*
X166554534Y-77423766D01*
X166460857Y-77361173D01*
X166398773Y-77319690D01*
X166266310Y-77187227D01*
X166204172Y-77094230D01*
X166162234Y-77031466D01*
X166090546Y-76858395D01*
X166054000Y-76674667D01*
X166054000Y-76487333D01*
X166090546Y-76303605D01*
X166162234Y-76130534D01*
X166266309Y-75974775D01*
X166266310Y-75974773D01*
X166398773Y-75842310D01*
X166554533Y-75738235D01*
X166554534Y-75738234D01*
X166727605Y-75666546D01*
X166911333Y-75630000D01*
X167098667Y-75630000D01*
X167282395Y-75666546D01*
G37*
G36*
X139846000Y-76701000D02*
G01*
X137744000Y-76701000D01*
X137744000Y-75699000D01*
X139846000Y-75699000D01*
X139846000Y-76701000D01*
G37*
G36*
X182561000Y-76516000D02*
G01*
X180659000Y-76516000D01*
X180659000Y-74614000D01*
X182561000Y-74614000D01*
X182561000Y-76516000D01*
G37*
G36*
X174941000Y-76516000D02*
G01*
X173039000Y-76516000D01*
X173039000Y-74614000D01*
X174941000Y-74614000D01*
X174941000Y-76516000D01*
G37*
G36*
X144853674Y-74818465D02*
G01*
X144891367Y-74829899D01*
X144926103Y-74848466D01*
X144956548Y-74873452D01*
X144981534Y-74903897D01*
X145000101Y-74938633D01*
X145011535Y-74976326D01*
X145016000Y-75021661D01*
X145016000Y-76108339D01*
X145011535Y-76153674D01*
X145000101Y-76191367D01*
X144981534Y-76226103D01*
X144956548Y-76256548D01*
X144926103Y-76281534D01*
X144891367Y-76300101D01*
X144853674Y-76311535D01*
X144808339Y-76316000D01*
X143971661Y-76316000D01*
X143926326Y-76311535D01*
X143888633Y-76300101D01*
X143853897Y-76281534D01*
X143823452Y-76256548D01*
X143798466Y-76226103D01*
X143779899Y-76191367D01*
X143768465Y-76153674D01*
X143764000Y-76108339D01*
X143764000Y-75021661D01*
X143768465Y-74976326D01*
X143779899Y-74938633D01*
X143798466Y-74903897D01*
X143823452Y-74873452D01*
X143853897Y-74848466D01*
X143888633Y-74829899D01*
X143926326Y-74818465D01*
X143971661Y-74814000D01*
X144808339Y-74814000D01*
X144853674Y-74818465D01*
G37*
G36*
X146903674Y-74818465D02*
G01*
X146941367Y-74829899D01*
X146976103Y-74848466D01*
X147006548Y-74873452D01*
X147031534Y-74903897D01*
X147050101Y-74938633D01*
X147061535Y-74976326D01*
X147066000Y-75021661D01*
X147066000Y-76108339D01*
X147061535Y-76153674D01*
X147050101Y-76191367D01*
X147031534Y-76226103D01*
X147006548Y-76256548D01*
X146976103Y-76281534D01*
X146941367Y-76300101D01*
X146903674Y-76311535D01*
X146858339Y-76316000D01*
X146021661Y-76316000D01*
X145976326Y-76311535D01*
X145938633Y-76300101D01*
X145903897Y-76281534D01*
X145873452Y-76256548D01*
X145848466Y-76226103D01*
X145829899Y-76191367D01*
X145818465Y-76153674D01*
X145814000Y-76108339D01*
X145814000Y-75021661D01*
X145818465Y-74976326D01*
X145829899Y-74938633D01*
X145848466Y-74903897D01*
X145873452Y-74873452D01*
X145903897Y-74848466D01*
X145938633Y-74829899D01*
X145976326Y-74818465D01*
X146021661Y-74814000D01*
X146858339Y-74814000D01*
X146903674Y-74818465D01*
G37*
G36*
X151861000Y-75531000D02*
G01*
X150659000Y-75531000D01*
X150659000Y-74329000D01*
X151861000Y-74329000D01*
X151861000Y-75531000D01*
G37*
G36*
X149061000Y-75531000D02*
G01*
X147859000Y-75531000D01*
X147859000Y-74329000D01*
X149061000Y-74329000D01*
X149061000Y-75531000D01*
G37*
G36*
X139846000Y-75431000D02*
G01*
X137744000Y-75431000D01*
X137744000Y-74429000D01*
X139846000Y-74429000D01*
X139846000Y-75431000D01*
G37*
G36*
X154418512Y-73398927D02*
G01*
X154567812Y-73428624D01*
X154731784Y-73496544D01*
X154879354Y-73595147D01*
X155004853Y-73720646D01*
X155103456Y-73868216D01*
X155171376Y-74032188D01*
X155206000Y-74206259D01*
X155206000Y-74383741D01*
X155171376Y-74557812D01*
X155103456Y-74721784D01*
X155004853Y-74869354D01*
X154879354Y-74994853D01*
X154731784Y-75093456D01*
X154567812Y-75161376D01*
X154418512Y-75191073D01*
X154393742Y-75196000D01*
X154216258Y-75196000D01*
X154191488Y-75191073D01*
X154042188Y-75161376D01*
X153878216Y-75093456D01*
X153730646Y-74994853D01*
X153605147Y-74869354D01*
X153506544Y-74721784D01*
X153438624Y-74557812D01*
X153404000Y-74383741D01*
X153404000Y-74206259D01*
X153438624Y-74032188D01*
X153506544Y-73868216D01*
X153605147Y-73720646D01*
X153730646Y-73595147D01*
X153878216Y-73496544D01*
X154042188Y-73428624D01*
X154191488Y-73398927D01*
X154216258Y-73394000D01*
X154393742Y-73394000D01*
X154418512Y-73398927D01*
G37*
G36*
X167282395Y-73126546D02*
G01*
X167455466Y-73198234D01*
X167455467Y-73198235D01*
X167611227Y-73302310D01*
X167743690Y-73434773D01*
X167743691Y-73434775D01*
X167847766Y-73590534D01*
X167919454Y-73763605D01*
X167956000Y-73947333D01*
X167956000Y-74134667D01*
X167919454Y-74318395D01*
X167847766Y-74491466D01*
X167847765Y-74491467D01*
X167743690Y-74647227D01*
X167611227Y-74779690D01*
X167559878Y-74814000D01*
X167455466Y-74883766D01*
X167282395Y-74955454D01*
X167098667Y-74992000D01*
X166911333Y-74992000D01*
X166727605Y-74955454D01*
X166554534Y-74883766D01*
X166450122Y-74814000D01*
X166398773Y-74779690D01*
X166266310Y-74647227D01*
X166162235Y-74491467D01*
X166162234Y-74491466D01*
X166090546Y-74318395D01*
X166054000Y-74134667D01*
X166054000Y-73947333D01*
X166090546Y-73763605D01*
X166162234Y-73590534D01*
X166266309Y-73434775D01*
X166266310Y-73434773D01*
X166398773Y-73302310D01*
X166554533Y-73198235D01*
X166554534Y-73198234D01*
X166727605Y-73126546D01*
X166911333Y-73090000D01*
X167098667Y-73090000D01*
X167282395Y-73126546D01*
G37*
G36*
X142596000Y-73741000D02*
G01*
X141594000Y-73741000D01*
X141594000Y-72639000D01*
X142596000Y-72639000D01*
X142596000Y-73741000D01*
G37*
G36*
X146696000Y-73741000D02*
G01*
X145694000Y-73741000D01*
X145694000Y-72639000D01*
X146696000Y-72639000D01*
X146696000Y-73741000D01*
G37*
G36*
X126866000Y-73196000D02*
G01*
X125864000Y-73196000D01*
X125864000Y-71094000D01*
X126866000Y-71094000D01*
X126866000Y-73196000D01*
G37*
G36*
X124326000Y-73196000D02*
G01*
X123324000Y-73196000D01*
X123324000Y-71094000D01*
X124326000Y-71094000D01*
X124326000Y-73196000D01*
G37*
G36*
X123056000Y-73196000D02*
G01*
X122054000Y-73196000D01*
X122054000Y-71094000D01*
X123056000Y-71094000D01*
X123056000Y-73196000D01*
G37*
G36*
X121786000Y-73196000D02*
G01*
X120784000Y-73196000D01*
X120784000Y-71094000D01*
X121786000Y-71094000D01*
X121786000Y-73196000D01*
G37*
G36*
X125596000Y-73196000D02*
G01*
X124594000Y-73196000D01*
X124594000Y-71094000D01*
X125596000Y-71094000D01*
X125596000Y-73196000D01*
G37*
G36*
X128136000Y-73196000D02*
G01*
X127134000Y-73196000D01*
X127134000Y-71094000D01*
X128136000Y-71094000D01*
X128136000Y-73196000D01*
G37*
G36*
X129406000Y-73196000D02*
G01*
X128404000Y-73196000D01*
X128404000Y-71094000D01*
X129406000Y-71094000D01*
X129406000Y-73196000D01*
G37*
G36*
X130676000Y-73196000D02*
G01*
X129674000Y-73196000D01*
X129674000Y-71094000D01*
X130676000Y-71094000D01*
X130676000Y-73196000D01*
G37*
G36*
X131946000Y-73196000D02*
G01*
X130944000Y-73196000D01*
X130944000Y-71094000D01*
X131946000Y-71094000D01*
X131946000Y-73196000D01*
G37*
G36*
X133216000Y-73196000D02*
G01*
X132214000Y-73196000D01*
X132214000Y-71094000D01*
X133216000Y-71094000D01*
X133216000Y-73196000D01*
G37*
G36*
X138296000Y-73196000D02*
G01*
X137294000Y-73196000D01*
X137294000Y-71094000D01*
X138296000Y-71094000D01*
X138296000Y-73196000D01*
G37*
G36*
X137026000Y-73196000D02*
G01*
X136024000Y-73196000D01*
X136024000Y-71094000D01*
X137026000Y-71094000D01*
X137026000Y-73196000D01*
G37*
G36*
X135756000Y-73196000D02*
G01*
X134754000Y-73196000D01*
X134754000Y-71094000D01*
X135756000Y-71094000D01*
X135756000Y-73196000D01*
G37*
G36*
X134486000Y-73196000D02*
G01*
X133484000Y-73196000D01*
X133484000Y-71094000D01*
X134486000Y-71094000D01*
X134486000Y-73196000D01*
G37*
G36*
X189126000Y-72921000D02*
G01*
X185524000Y-72921000D01*
X185524000Y-69319000D01*
X189126000Y-69319000D01*
X189126000Y-72921000D01*
G37*
G36*
X194301979Y-69333293D02*
G01*
X194435625Y-69373834D01*
X194558784Y-69439664D01*
X194666740Y-69528260D01*
X194755336Y-69636216D01*
X194821166Y-69759375D01*
X194861707Y-69893021D01*
X194876000Y-70038140D01*
X194876000Y-72201860D01*
X194861707Y-72346979D01*
X194821166Y-72480625D01*
X194755336Y-72603784D01*
X194666740Y-72711740D01*
X194558784Y-72800336D01*
X194435625Y-72866166D01*
X194301979Y-72906707D01*
X194156860Y-72921000D01*
X192493140Y-72921000D01*
X192348021Y-72906707D01*
X192214375Y-72866166D01*
X192091216Y-72800336D01*
X191983260Y-72711740D01*
X191894664Y-72603784D01*
X191828834Y-72480625D01*
X191788293Y-72346979D01*
X191774000Y-72201860D01*
X191774000Y-70038140D01*
X191788293Y-69893021D01*
X191828834Y-69759375D01*
X191894664Y-69636216D01*
X191983260Y-69528260D01*
X192091216Y-69439664D01*
X192214375Y-69373834D01*
X192348021Y-69333293D01*
X192493140Y-69319000D01*
X194156860Y-69319000D01*
X194301979Y-69333293D01*
G37*
G36*
X163268674Y-71008465D02*
G01*
X163306367Y-71019899D01*
X163341103Y-71038466D01*
X163371548Y-71063452D01*
X163396534Y-71093897D01*
X163415101Y-71128633D01*
X163426535Y-71166326D01*
X163431000Y-71211661D01*
X163431000Y-72298339D01*
X163426535Y-72343674D01*
X163415101Y-72381367D01*
X163396534Y-72416103D01*
X163371548Y-72446548D01*
X163341103Y-72471534D01*
X163306367Y-72490101D01*
X163268674Y-72501535D01*
X163223339Y-72506000D01*
X162386661Y-72506000D01*
X162341326Y-72501535D01*
X162303633Y-72490101D01*
X162268897Y-72471534D01*
X162238452Y-72446548D01*
X162213466Y-72416103D01*
X162194899Y-72381367D01*
X162183465Y-72343674D01*
X162179000Y-72298339D01*
X162179000Y-71211661D01*
X162183465Y-71166326D01*
X162194899Y-71128633D01*
X162213466Y-71093897D01*
X162238452Y-71063452D01*
X162268897Y-71038466D01*
X162303633Y-71019899D01*
X162341326Y-71008465D01*
X162386661Y-71004000D01*
X163223339Y-71004000D01*
X163268674Y-71008465D01*
G37*
G36*
X165318674Y-71008465D02*
G01*
X165356367Y-71019899D01*
X165391103Y-71038466D01*
X165421548Y-71063452D01*
X165446534Y-71093897D01*
X165465101Y-71128633D01*
X165476535Y-71166326D01*
X165481000Y-71211661D01*
X165481000Y-72298339D01*
X165476535Y-72343674D01*
X165465101Y-72381367D01*
X165446534Y-72416103D01*
X165421548Y-72446548D01*
X165391103Y-72471534D01*
X165356367Y-72490101D01*
X165318674Y-72501535D01*
X165273339Y-72506000D01*
X164436661Y-72506000D01*
X164391326Y-72501535D01*
X164353633Y-72490101D01*
X164318897Y-72471534D01*
X164288452Y-72446548D01*
X164263466Y-72416103D01*
X164244899Y-72381367D01*
X164233465Y-72343674D01*
X164229000Y-72298339D01*
X164229000Y-71211661D01*
X164233465Y-71166326D01*
X164244899Y-71128633D01*
X164263466Y-71093897D01*
X164288452Y-71063452D01*
X164318897Y-71038466D01*
X164353633Y-71019899D01*
X164391326Y-71008465D01*
X164436661Y-71004000D01*
X165273339Y-71004000D01*
X165318674Y-71008465D01*
G37*
G36*
X168411000Y-72394000D02*
G01*
X167409000Y-72394000D01*
X167409000Y-71492000D01*
X168411000Y-71492000D01*
X168411000Y-72394000D01*
G37*
G36*
X146696000Y-72141000D02*
G01*
X145694000Y-72141000D01*
X145694000Y-71039000D01*
X146696000Y-71039000D01*
X146696000Y-72141000D01*
G37*
G36*
X142596000Y-72141000D02*
G01*
X141594000Y-72141000D01*
X141594000Y-71039000D01*
X142596000Y-71039000D01*
X142596000Y-72141000D01*
G37*
G36*
X170411000Y-71444000D02*
G01*
X169409000Y-71444000D01*
X169409000Y-70542000D01*
X170411000Y-70542000D01*
X170411000Y-71444000D01*
G37*
G36*
X168411000Y-70494000D02*
G01*
X167409000Y-70494000D01*
X167409000Y-69592000D01*
X168411000Y-69592000D01*
X168411000Y-70494000D01*
G37*
G36*
X183157395Y-68300546D02*
G01*
X183330466Y-68372234D01*
X183330467Y-68372235D01*
X183486227Y-68476310D01*
X183618690Y-68608773D01*
X183618691Y-68608775D01*
X183722766Y-68764534D01*
X183794454Y-68937605D01*
X183831000Y-69121333D01*
X183831000Y-69308667D01*
X183794454Y-69492395D01*
X183722766Y-69665466D01*
X183722765Y-69665467D01*
X183618690Y-69821227D01*
X183486227Y-69953690D01*
X183407818Y-70006081D01*
X183330466Y-70057766D01*
X183157395Y-70129454D01*
X182973667Y-70166000D01*
X182786333Y-70166000D01*
X182602605Y-70129454D01*
X182429534Y-70057766D01*
X182352182Y-70006081D01*
X182273773Y-69953690D01*
X182141310Y-69821227D01*
X182037235Y-69665467D01*
X182037234Y-69665466D01*
X181965546Y-69492395D01*
X181929000Y-69308667D01*
X181929000Y-69121333D01*
X181965546Y-68937605D01*
X182037234Y-68764534D01*
X182141309Y-68608775D01*
X182141310Y-68608773D01*
X182273773Y-68476310D01*
X182429533Y-68372235D01*
X182429534Y-68372234D01*
X182602605Y-68300546D01*
X182786333Y-68264000D01*
X182973667Y-68264000D01*
X183157395Y-68300546D01*
G37*
G36*
X173671000Y-70166000D02*
G01*
X171769000Y-70166000D01*
X171769000Y-68264000D01*
X173671000Y-68264000D01*
X173671000Y-70166000D01*
G37*
G36*
X181291000Y-70166000D02*
G01*
X179389000Y-70166000D01*
X179389000Y-68264000D01*
X181291000Y-68264000D01*
X181291000Y-70166000D01*
G37*
G36*
X175537395Y-68300546D02*
G01*
X175710466Y-68372234D01*
X175710467Y-68372235D01*
X175866227Y-68476310D01*
X175998690Y-68608773D01*
X175998691Y-68608775D01*
X176102766Y-68764534D01*
X176174454Y-68937605D01*
X176211000Y-69121333D01*
X176211000Y-69308667D01*
X176174454Y-69492395D01*
X176102766Y-69665466D01*
X176102765Y-69665467D01*
X175998690Y-69821227D01*
X175866227Y-69953690D01*
X175787818Y-70006081D01*
X175710466Y-70057766D01*
X175537395Y-70129454D01*
X175353667Y-70166000D01*
X175166333Y-70166000D01*
X174982605Y-70129454D01*
X174809534Y-70057766D01*
X174732182Y-70006081D01*
X174653773Y-69953690D01*
X174521310Y-69821227D01*
X174417235Y-69665467D01*
X174417234Y-69665466D01*
X174345546Y-69492395D01*
X174309000Y-69308667D01*
X174309000Y-69121333D01*
X174345546Y-68937605D01*
X174417234Y-68764534D01*
X174521309Y-68608775D01*
X174521310Y-68608773D01*
X174653773Y-68476310D01*
X174809533Y-68372235D01*
X174809534Y-68372234D01*
X174982605Y-68300546D01*
X175166333Y-68264000D01*
X175353667Y-68264000D01*
X175537395Y-68300546D01*
G37*
G36*
X162669098Y-64857033D02*
G01*
X163133350Y-65049332D01*
X163133352Y-65049333D01*
X163551168Y-65328509D01*
X163906491Y-65683832D01*
X164077493Y-65939755D01*
X164185668Y-66101650D01*
X164377967Y-66565902D01*
X164476000Y-67058747D01*
X164476000Y-67561253D01*
X164377967Y-68054098D01*
X164225496Y-68422196D01*
X164185667Y-68518352D01*
X163906491Y-68936168D01*
X163551168Y-69291491D01*
X163133352Y-69570667D01*
X163133351Y-69570668D01*
X163133350Y-69570668D01*
X162669098Y-69762967D01*
X162176253Y-69861000D01*
X161673747Y-69861000D01*
X161180902Y-69762967D01*
X160716650Y-69570668D01*
X160716649Y-69570668D01*
X160716648Y-69570667D01*
X160298832Y-69291491D01*
X159943509Y-68936168D01*
X159664333Y-68518352D01*
X159624504Y-68422196D01*
X159472033Y-68054098D01*
X159374000Y-67561253D01*
X159374000Y-67058747D01*
X159472033Y-66565902D01*
X159664332Y-66101650D01*
X159772507Y-65939755D01*
X159943509Y-65683832D01*
X160298832Y-65328509D01*
X160716648Y-65049333D01*
X160716650Y-65049332D01*
X161180902Y-64857033D01*
X161673747Y-64759000D01*
X162176253Y-64759000D01*
X162669098Y-64857033D01*
G37*
G36*
X136638512Y-67048927D02*
G01*
X136787812Y-67078624D01*
X136951784Y-67146544D01*
X137099354Y-67245147D01*
X137224853Y-67370646D01*
X137323456Y-67518216D01*
X137391376Y-67682188D01*
X137426000Y-67856259D01*
X137426000Y-68033741D01*
X137391376Y-68207812D01*
X137323456Y-68371784D01*
X137224853Y-68519354D01*
X137099354Y-68644853D01*
X136951784Y-68743456D01*
X136787812Y-68811376D01*
X136638512Y-68841073D01*
X136613742Y-68846000D01*
X136436258Y-68846000D01*
X136411488Y-68841073D01*
X136262188Y-68811376D01*
X136098216Y-68743456D01*
X135950646Y-68644853D01*
X135825147Y-68519354D01*
X135726544Y-68371784D01*
X135658624Y-68207812D01*
X135624000Y-68033741D01*
X135624000Y-67856259D01*
X135658624Y-67682188D01*
X135726544Y-67518216D01*
X135825147Y-67370646D01*
X135950646Y-67245147D01*
X136098216Y-67146544D01*
X136262188Y-67078624D01*
X136411488Y-67048927D01*
X136436258Y-67044000D01*
X136613742Y-67044000D01*
X136638512Y-67048927D01*
G37*
G36*
X139178512Y-67048927D02*
G01*
X139327812Y-67078624D01*
X139491784Y-67146544D01*
X139639354Y-67245147D01*
X139764853Y-67370646D01*
X139863456Y-67518216D01*
X139931376Y-67682188D01*
X139966000Y-67856259D01*
X139966000Y-68033741D01*
X139931376Y-68207812D01*
X139863456Y-68371784D01*
X139764853Y-68519354D01*
X139639354Y-68644853D01*
X139491784Y-68743456D01*
X139327812Y-68811376D01*
X139178512Y-68841073D01*
X139153742Y-68846000D01*
X138976258Y-68846000D01*
X138951488Y-68841073D01*
X138802188Y-68811376D01*
X138638216Y-68743456D01*
X138490646Y-68644853D01*
X138365147Y-68519354D01*
X138266544Y-68371784D01*
X138198624Y-68207812D01*
X138164000Y-68033741D01*
X138164000Y-67856259D01*
X138198624Y-67682188D01*
X138266544Y-67518216D01*
X138365147Y-67370646D01*
X138490646Y-67245147D01*
X138638216Y-67146544D01*
X138802188Y-67078624D01*
X138951488Y-67048927D01*
X138976258Y-67044000D01*
X139153742Y-67044000D01*
X139178512Y-67048927D01*
G37*
G36*
X141718512Y-67048927D02*
G01*
X141867812Y-67078624D01*
X142031784Y-67146544D01*
X142179354Y-67245147D01*
X142304853Y-67370646D01*
X142403456Y-67518216D01*
X142471376Y-67682188D01*
X142506000Y-67856259D01*
X142506000Y-68033741D01*
X142471376Y-68207812D01*
X142403456Y-68371784D01*
X142304853Y-68519354D01*
X142179354Y-68644853D01*
X142031784Y-68743456D01*
X141867812Y-68811376D01*
X141718512Y-68841073D01*
X141693742Y-68846000D01*
X141516258Y-68846000D01*
X141491488Y-68841073D01*
X141342188Y-68811376D01*
X141178216Y-68743456D01*
X141030646Y-68644853D01*
X140905147Y-68519354D01*
X140806544Y-68371784D01*
X140738624Y-68207812D01*
X140704000Y-68033741D01*
X140704000Y-67856259D01*
X140738624Y-67682188D01*
X140806544Y-67518216D01*
X140905147Y-67370646D01*
X141030646Y-67245147D01*
X141178216Y-67146544D01*
X141342188Y-67078624D01*
X141491488Y-67048927D01*
X141516258Y-67044000D01*
X141693742Y-67044000D01*
X141718512Y-67048927D01*
G37*
G36*
X144258512Y-67048927D02*
G01*
X144407812Y-67078624D01*
X144571784Y-67146544D01*
X144719354Y-67245147D01*
X144844853Y-67370646D01*
X144943456Y-67518216D01*
X145011376Y-67682188D01*
X145046000Y-67856259D01*
X145046000Y-68033741D01*
X145011376Y-68207812D01*
X144943456Y-68371784D01*
X144844853Y-68519354D01*
X144719354Y-68644853D01*
X144571784Y-68743456D01*
X144407812Y-68811376D01*
X144258512Y-68841073D01*
X144233742Y-68846000D01*
X144056258Y-68846000D01*
X144031488Y-68841073D01*
X143882188Y-68811376D01*
X143718216Y-68743456D01*
X143570646Y-68644853D01*
X143445147Y-68519354D01*
X143346544Y-68371784D01*
X143278624Y-68207812D01*
X143244000Y-68033741D01*
X143244000Y-67856259D01*
X143278624Y-67682188D01*
X143346544Y-67518216D01*
X143445147Y-67370646D01*
X143570646Y-67245147D01*
X143718216Y-67146544D01*
X143882188Y-67078624D01*
X144031488Y-67048927D01*
X144056258Y-67044000D01*
X144233742Y-67044000D01*
X144258512Y-67048927D01*
G37*
G36*
X146798512Y-67048927D02*
G01*
X146947812Y-67078624D01*
X147111784Y-67146544D01*
X147259354Y-67245147D01*
X147384853Y-67370646D01*
X147483456Y-67518216D01*
X147551376Y-67682188D01*
X147586000Y-67856259D01*
X147586000Y-68033741D01*
X147551376Y-68207812D01*
X147483456Y-68371784D01*
X147384853Y-68519354D01*
X147259354Y-68644853D01*
X147111784Y-68743456D01*
X146947812Y-68811376D01*
X146798512Y-68841073D01*
X146773742Y-68846000D01*
X146596258Y-68846000D01*
X146571488Y-68841073D01*
X146422188Y-68811376D01*
X146258216Y-68743456D01*
X146110646Y-68644853D01*
X145985147Y-68519354D01*
X145886544Y-68371784D01*
X145818624Y-68207812D01*
X145784000Y-68033741D01*
X145784000Y-67856259D01*
X145818624Y-67682188D01*
X145886544Y-67518216D01*
X145985147Y-67370646D01*
X146110646Y-67245147D01*
X146258216Y-67146544D01*
X146422188Y-67078624D01*
X146571488Y-67048927D01*
X146596258Y-67044000D01*
X146773742Y-67044000D01*
X146798512Y-67048927D01*
G37*
G36*
X149338512Y-67048927D02*
G01*
X149487812Y-67078624D01*
X149651784Y-67146544D01*
X149799354Y-67245147D01*
X149924853Y-67370646D01*
X150023456Y-67518216D01*
X150091376Y-67682188D01*
X150126000Y-67856259D01*
X150126000Y-68033741D01*
X150091376Y-68207812D01*
X150023456Y-68371784D01*
X149924853Y-68519354D01*
X149799354Y-68644853D01*
X149651784Y-68743456D01*
X149487812Y-68811376D01*
X149338512Y-68841073D01*
X149313742Y-68846000D01*
X149136258Y-68846000D01*
X149111488Y-68841073D01*
X148962188Y-68811376D01*
X148798216Y-68743456D01*
X148650646Y-68644853D01*
X148525147Y-68519354D01*
X148426544Y-68371784D01*
X148358624Y-68207812D01*
X148324000Y-68033741D01*
X148324000Y-67856259D01*
X148358624Y-67682188D01*
X148426544Y-67518216D01*
X148525147Y-67370646D01*
X148650646Y-67245147D01*
X148798216Y-67146544D01*
X148962188Y-67078624D01*
X149111488Y-67048927D01*
X149136258Y-67044000D01*
X149313742Y-67044000D01*
X149338512Y-67048927D01*
G37*
G36*
X151878512Y-67048927D02*
G01*
X152027812Y-67078624D01*
X152191784Y-67146544D01*
X152339354Y-67245147D01*
X152464853Y-67370646D01*
X152563456Y-67518216D01*
X152631376Y-67682188D01*
X152666000Y-67856259D01*
X152666000Y-68033741D01*
X152631376Y-68207812D01*
X152563456Y-68371784D01*
X152464853Y-68519354D01*
X152339354Y-68644853D01*
X152191784Y-68743456D01*
X152027812Y-68811376D01*
X151878512Y-68841073D01*
X151853742Y-68846000D01*
X151676258Y-68846000D01*
X151651488Y-68841073D01*
X151502188Y-68811376D01*
X151338216Y-68743456D01*
X151190646Y-68644853D01*
X151065147Y-68519354D01*
X150966544Y-68371784D01*
X150898624Y-68207812D01*
X150864000Y-68033741D01*
X150864000Y-67856259D01*
X150898624Y-67682188D01*
X150966544Y-67518216D01*
X151065147Y-67370646D01*
X151190646Y-67245147D01*
X151338216Y-67146544D01*
X151502188Y-67078624D01*
X151651488Y-67048927D01*
X151676258Y-67044000D01*
X151853742Y-67044000D01*
X151878512Y-67048927D01*
G37*
G36*
X154418512Y-67048927D02*
G01*
X154567812Y-67078624D01*
X154731784Y-67146544D01*
X154879354Y-67245147D01*
X155004853Y-67370646D01*
X155103456Y-67518216D01*
X155171376Y-67682188D01*
X155206000Y-67856259D01*
X155206000Y-68033741D01*
X155171376Y-68207812D01*
X155103456Y-68371784D01*
X155004853Y-68519354D01*
X154879354Y-68644853D01*
X154731784Y-68743456D01*
X154567812Y-68811376D01*
X154418512Y-68841073D01*
X154393742Y-68846000D01*
X154216258Y-68846000D01*
X154191488Y-68841073D01*
X154042188Y-68811376D01*
X153878216Y-68743456D01*
X153730646Y-68644853D01*
X153605147Y-68519354D01*
X153506544Y-68371784D01*
X153438624Y-68207812D01*
X153404000Y-68033741D01*
X153404000Y-67856259D01*
X153438624Y-67682188D01*
X153506544Y-67518216D01*
X153605147Y-67370646D01*
X153730646Y-67245147D01*
X153878216Y-67146544D01*
X154042188Y-67078624D01*
X154191488Y-67048927D01*
X154216258Y-67044000D01*
X154393742Y-67044000D01*
X154418512Y-67048927D01*
G37*
G36*
X156958512Y-67048927D02*
G01*
X157107812Y-67078624D01*
X157271784Y-67146544D01*
X157419354Y-67245147D01*
X157544853Y-67370646D01*
X157643456Y-67518216D01*
X157711376Y-67682188D01*
X157746000Y-67856259D01*
X157746000Y-68033741D01*
X157711376Y-68207812D01*
X157643456Y-68371784D01*
X157544853Y-68519354D01*
X157419354Y-68644853D01*
X157271784Y-68743456D01*
X157107812Y-68811376D01*
X156958512Y-68841073D01*
X156933742Y-68846000D01*
X156756258Y-68846000D01*
X156731488Y-68841073D01*
X156582188Y-68811376D01*
X156418216Y-68743456D01*
X156270646Y-68644853D01*
X156145147Y-68519354D01*
X156046544Y-68371784D01*
X155978624Y-68207812D01*
X155944000Y-68033741D01*
X155944000Y-67856259D01*
X155978624Y-67682188D01*
X156046544Y-67518216D01*
X156145147Y-67370646D01*
X156270646Y-67245147D01*
X156418216Y-67146544D01*
X156582188Y-67078624D01*
X156731488Y-67048927D01*
X156756258Y-67044000D01*
X156933742Y-67044000D01*
X156958512Y-67048927D01*
G37*
G36*
X134098512Y-67048927D02*
G01*
X134247812Y-67078624D01*
X134411784Y-67146544D01*
X134559354Y-67245147D01*
X134684853Y-67370646D01*
X134783456Y-67518216D01*
X134851376Y-67682188D01*
X134886000Y-67856259D01*
X134886000Y-68033741D01*
X134851376Y-68207812D01*
X134783456Y-68371784D01*
X134684853Y-68519354D01*
X134559354Y-68644853D01*
X134411784Y-68743456D01*
X134247812Y-68811376D01*
X134098512Y-68841073D01*
X134073742Y-68846000D01*
X133896258Y-68846000D01*
X133871488Y-68841073D01*
X133722188Y-68811376D01*
X133558216Y-68743456D01*
X133410646Y-68644853D01*
X133285147Y-68519354D01*
X133186544Y-68371784D01*
X133118624Y-68207812D01*
X133084000Y-68033741D01*
X133084000Y-67856259D01*
X133118624Y-67682188D01*
X133186544Y-67518216D01*
X133285147Y-67370646D01*
X133410646Y-67245147D01*
X133558216Y-67146544D01*
X133722188Y-67078624D01*
X133871488Y-67048927D01*
X133896258Y-67044000D01*
X134073742Y-67044000D01*
X134098512Y-67048927D01*
G37*
G36*
X129018512Y-67048927D02*
G01*
X129167812Y-67078624D01*
X129331784Y-67146544D01*
X129479354Y-67245147D01*
X129604853Y-67370646D01*
X129703456Y-67518216D01*
X129771376Y-67682188D01*
X129806000Y-67856259D01*
X129806000Y-68033741D01*
X129771376Y-68207812D01*
X129703456Y-68371784D01*
X129604853Y-68519354D01*
X129479354Y-68644853D01*
X129331784Y-68743456D01*
X129167812Y-68811376D01*
X129018512Y-68841073D01*
X128993742Y-68846000D01*
X128816258Y-68846000D01*
X128791488Y-68841073D01*
X128642188Y-68811376D01*
X128478216Y-68743456D01*
X128330646Y-68644853D01*
X128205147Y-68519354D01*
X128106544Y-68371784D01*
X128038624Y-68207812D01*
X128004000Y-68033741D01*
X128004000Y-67856259D01*
X128038624Y-67682188D01*
X128106544Y-67518216D01*
X128205147Y-67370646D01*
X128330646Y-67245147D01*
X128478216Y-67146544D01*
X128642188Y-67078624D01*
X128791488Y-67048927D01*
X128816258Y-67044000D01*
X128993742Y-67044000D01*
X129018512Y-67048927D01*
G37*
G36*
X126478512Y-67048927D02*
G01*
X126627812Y-67078624D01*
X126791784Y-67146544D01*
X126939354Y-67245147D01*
X127064853Y-67370646D01*
X127163456Y-67518216D01*
X127231376Y-67682188D01*
X127266000Y-67856259D01*
X127266000Y-68033741D01*
X127231376Y-68207812D01*
X127163456Y-68371784D01*
X127064853Y-68519354D01*
X126939354Y-68644853D01*
X126791784Y-68743456D01*
X126627812Y-68811376D01*
X126478512Y-68841073D01*
X126453742Y-68846000D01*
X126276258Y-68846000D01*
X126251488Y-68841073D01*
X126102188Y-68811376D01*
X125938216Y-68743456D01*
X125790646Y-68644853D01*
X125665147Y-68519354D01*
X125566544Y-68371784D01*
X125498624Y-68207812D01*
X125464000Y-68033741D01*
X125464000Y-67856259D01*
X125498624Y-67682188D01*
X125566544Y-67518216D01*
X125665147Y-67370646D01*
X125790646Y-67245147D01*
X125938216Y-67146544D01*
X126102188Y-67078624D01*
X126251488Y-67048927D01*
X126276258Y-67044000D01*
X126453742Y-67044000D01*
X126478512Y-67048927D01*
G37*
G36*
X123938512Y-67048927D02*
G01*
X124087812Y-67078624D01*
X124251784Y-67146544D01*
X124399354Y-67245147D01*
X124524853Y-67370646D01*
X124623456Y-67518216D01*
X124691376Y-67682188D01*
X124726000Y-67856259D01*
X124726000Y-68033741D01*
X124691376Y-68207812D01*
X124623456Y-68371784D01*
X124524853Y-68519354D01*
X124399354Y-68644853D01*
X124251784Y-68743456D01*
X124087812Y-68811376D01*
X123938512Y-68841073D01*
X123913742Y-68846000D01*
X123736258Y-68846000D01*
X123711488Y-68841073D01*
X123562188Y-68811376D01*
X123398216Y-68743456D01*
X123250646Y-68644853D01*
X123125147Y-68519354D01*
X123026544Y-68371784D01*
X122958624Y-68207812D01*
X122924000Y-68033741D01*
X122924000Y-67856259D01*
X122958624Y-67682188D01*
X123026544Y-67518216D01*
X123125147Y-67370646D01*
X123250646Y-67245147D01*
X123398216Y-67146544D01*
X123562188Y-67078624D01*
X123711488Y-67048927D01*
X123736258Y-67044000D01*
X123913742Y-67044000D01*
X123938512Y-67048927D01*
G37*
G36*
X131558512Y-67048927D02*
G01*
X131707812Y-67078624D01*
X131871784Y-67146544D01*
X132019354Y-67245147D01*
X132144853Y-67370646D01*
X132243456Y-67518216D01*
X132311376Y-67682188D01*
X132346000Y-67856259D01*
X132346000Y-68033741D01*
X132311376Y-68207812D01*
X132243456Y-68371784D01*
X132144853Y-68519354D01*
X132019354Y-68644853D01*
X131871784Y-68743456D01*
X131707812Y-68811376D01*
X131558512Y-68841073D01*
X131533742Y-68846000D01*
X131356258Y-68846000D01*
X131331488Y-68841073D01*
X131182188Y-68811376D01*
X131018216Y-68743456D01*
X130870646Y-68644853D01*
X130745147Y-68519354D01*
X130646544Y-68371784D01*
X130578624Y-68207812D01*
X130544000Y-68033741D01*
X130544000Y-67856259D01*
X130578624Y-67682188D01*
X130646544Y-67518216D01*
X130745147Y-67370646D01*
X130870646Y-67245147D01*
X131018216Y-67146544D01*
X131182188Y-67078624D01*
X131331488Y-67048927D01*
X131356258Y-67044000D01*
X131533742Y-67044000D01*
X131558512Y-67048927D01*
G37*
G36*
X122186000Y-68846000D02*
G01*
X120384000Y-68846000D01*
X120384000Y-67044000D01*
X122186000Y-67044000D01*
X122186000Y-68846000D01*
G37*
G36*
X168411000Y-68711000D02*
G01*
X167409000Y-68711000D01*
X167409000Y-67809000D01*
X168411000Y-67809000D01*
X168411000Y-68711000D01*
G37*
G36*
X191451366Y-64635695D02*
G01*
X191608460Y-64683349D01*
X191753231Y-64760731D01*
X191880128Y-64864872D01*
X191984269Y-64991769D01*
X192061651Y-65136540D01*
X192109305Y-65293634D01*
X192126000Y-65463140D01*
X192126000Y-67376860D01*
X192109305Y-67546366D01*
X192061651Y-67703460D01*
X191984269Y-67848231D01*
X191880128Y-67975128D01*
X191753231Y-68079269D01*
X191608460Y-68156651D01*
X191451366Y-68204305D01*
X191281860Y-68221000D01*
X189368140Y-68221000D01*
X189198634Y-68204305D01*
X189041540Y-68156651D01*
X188896769Y-68079269D01*
X188769872Y-67975128D01*
X188665731Y-67848231D01*
X188588349Y-67703460D01*
X188540695Y-67546366D01*
X188524000Y-67376860D01*
X188524000Y-65463140D01*
X188540695Y-65293634D01*
X188588349Y-65136540D01*
X188665731Y-64991769D01*
X188769872Y-64864872D01*
X188896769Y-64760731D01*
X189041540Y-64683349D01*
X189198634Y-64635695D01*
X189368140Y-64619000D01*
X191281860Y-64619000D01*
X191451366Y-64635695D01*
G37*
G36*
X170411000Y-67761000D02*
G01*
X169409000Y-67761000D01*
X169409000Y-66859000D01*
X170411000Y-66859000D01*
X170411000Y-67761000D01*
G37*
G36*
X168411000Y-66811000D02*
G01*
X167409000Y-66811000D01*
X167409000Y-65909000D01*
X168411000Y-65909000D01*
X168411000Y-66811000D01*
G37*
M02*
