G04 #@! TF.GenerationSoftware,KiCad,Pcbnew,(5.1.5-0-10_14)*
G04 #@! TF.CreationDate,2020-04-08T23:37:10-05:00*
G04 #@! TF.ProjectId,kbxIrBlaster,6b627849-7242-46c6-9173-7465722e6b69,rev?*
G04 #@! TF.SameCoordinates,Original*
G04 #@! TF.FileFunction,Legend,Top*
G04 #@! TF.FilePolarity,Positive*
%FSLAX46Y46*%
G04 Gerber Fmt 4.6, Leading zero omitted, Abs format (unit mm)*
G04 Created by KiCad (PCBNEW (5.1.5-0-10_14)) date 2020-04-08 23:37:10*
%MOMM*%
%LPD*%
G04 APERTURE LIST*
%ADD10C,0.150000*%
%ADD11C,0.120000*%
%ADD12C,0.200000*%
G04 APERTURE END LIST*
D10*
X156080666Y-77418333D02*
X156580666Y-77418333D01*
X156680666Y-77451666D01*
X156747333Y-77518333D01*
X156780666Y-77618333D01*
X156780666Y-77685000D01*
X156780666Y-77085000D02*
X156080666Y-77085000D01*
X156080666Y-76818333D01*
X156114000Y-76751666D01*
X156147333Y-76718333D01*
X156214000Y-76685000D01*
X156314000Y-76685000D01*
X156380666Y-76718333D01*
X156414000Y-76751666D01*
X156447333Y-76818333D01*
X156447333Y-77085000D01*
X156080666Y-76085000D02*
X156080666Y-76218333D01*
X156114000Y-76285000D01*
X156147333Y-76318333D01*
X156247333Y-76385000D01*
X156380666Y-76418333D01*
X156647333Y-76418333D01*
X156714000Y-76385000D01*
X156747333Y-76351666D01*
X156780666Y-76285000D01*
X156780666Y-76151666D01*
X156747333Y-76085000D01*
X156714000Y-76051666D01*
X156647333Y-76018333D01*
X156480666Y-76018333D01*
X156414000Y-76051666D01*
X156380666Y-76085000D01*
X156347333Y-76151666D01*
X156347333Y-76285000D01*
X156380666Y-76351666D01*
X156414000Y-76385000D01*
X156480666Y-76418333D01*
X106128070Y-97164083D02*
X106128972Y-96497417D01*
X107128391Y-96927341D01*
X107034249Y-96117689D02*
X107081932Y-96070134D01*
X107129487Y-96117818D01*
X107081803Y-96165372D01*
X107034249Y-96117689D01*
X107129487Y-96117818D01*
X106130003Y-95735513D02*
X106130841Y-95116466D01*
X106511342Y-95450314D01*
X106511535Y-95307457D01*
X106559283Y-95212284D01*
X106606966Y-95164729D01*
X106702269Y-95117239D01*
X106940364Y-95117561D01*
X107035537Y-95165309D01*
X107083092Y-95212992D01*
X107130582Y-95308295D01*
X107130195Y-95594009D01*
X107082447Y-95689182D01*
X107034764Y-95736737D01*
X107131484Y-94641629D02*
X107131742Y-94451153D01*
X107084252Y-94355850D01*
X107036697Y-94308167D01*
X106893969Y-94212736D01*
X106703557Y-94164859D01*
X106322605Y-94164343D01*
X106227303Y-94211833D01*
X106179620Y-94259388D01*
X106131872Y-94354562D01*
X106131614Y-94545038D01*
X106179104Y-94640340D01*
X106226659Y-94688023D01*
X106321832Y-94735771D01*
X106559927Y-94736094D01*
X106655230Y-94688603D01*
X106702913Y-94641049D01*
X106750661Y-94545875D01*
X106750919Y-94355399D01*
X106703429Y-94260097D01*
X106655874Y-94212413D01*
X106560700Y-94164665D01*
X106132967Y-93545038D02*
X106133096Y-93449800D01*
X106180844Y-93354627D01*
X106228527Y-93307072D01*
X106323830Y-93259582D01*
X106514370Y-93212221D01*
X106752465Y-93212543D01*
X106942877Y-93260420D01*
X107038050Y-93308168D01*
X107085605Y-93355851D01*
X107133095Y-93451154D01*
X107132966Y-93546392D01*
X107085218Y-93641565D01*
X107037535Y-93689120D01*
X106942232Y-93736610D01*
X106751692Y-93783971D01*
X106513597Y-93783649D01*
X106323185Y-93735772D01*
X106228012Y-93688024D01*
X106180457Y-93640341D01*
X106132967Y-93545038D01*
X107135028Y-92022584D02*
X106468362Y-92021681D01*
X106563600Y-92021810D02*
X106516046Y-91974127D01*
X106468555Y-91878824D01*
X106468749Y-91735967D01*
X106516497Y-91640794D01*
X106611799Y-91593304D01*
X107135608Y-91594012D01*
X106611799Y-91593304D02*
X106516625Y-91545556D01*
X106469135Y-91450253D01*
X106469329Y-91307396D01*
X106517077Y-91212223D01*
X106612379Y-91164733D01*
X107136188Y-91165441D01*
X107136832Y-90689251D02*
X106470166Y-90688349D01*
X106565404Y-90688478D02*
X106517850Y-90640795D01*
X106470360Y-90545492D01*
X106470553Y-90402635D01*
X106518301Y-90307462D01*
X106613603Y-90259972D01*
X107137412Y-90260680D01*
X106613603Y-90259972D02*
X106518430Y-90212224D01*
X106470940Y-90116921D01*
X106471133Y-89974064D01*
X106518881Y-89878891D01*
X106614183Y-89831401D01*
X107137992Y-89832109D01*
D11*
X107955714Y-89757261D02*
X107945714Y-97147261D01*
X113675000Y-89765000D02*
X107369294Y-89756467D01*
X113665000Y-97155000D02*
X107359294Y-97146467D01*
X107945714Y-97147261D02*
X107360818Y-96019965D01*
X107945714Y-97147261D02*
X108533659Y-96021552D01*
X107955714Y-89757261D02*
X107367769Y-90882970D01*
X107955714Y-89757261D02*
X108540610Y-90884557D01*
D10*
X104052619Y-76454523D02*
X104052619Y-77073571D01*
X103671666Y-76740238D01*
X103671666Y-76883095D01*
X103624047Y-76978333D01*
X103576428Y-77025952D01*
X103481190Y-77073571D01*
X103243095Y-77073571D01*
X103147857Y-77025952D01*
X103100238Y-76978333D01*
X103052619Y-76883095D01*
X103052619Y-76597380D01*
X103100238Y-76502142D01*
X103147857Y-76454523D01*
X104052619Y-77406904D02*
X104052619Y-78025952D01*
X103671666Y-77692619D01*
X103671666Y-77835476D01*
X103624047Y-77930714D01*
X103576428Y-77978333D01*
X103481190Y-78025952D01*
X103243095Y-78025952D01*
X103147857Y-77978333D01*
X103100238Y-77930714D01*
X103052619Y-77835476D01*
X103052619Y-77549761D01*
X103100238Y-77454523D01*
X103147857Y-77406904D01*
X103147857Y-78454523D02*
X103100238Y-78502142D01*
X103052619Y-78454523D01*
X103100238Y-78406904D01*
X103147857Y-78454523D01*
X103052619Y-78454523D01*
X104052619Y-79121190D02*
X104052619Y-79216428D01*
X104005000Y-79311666D01*
X103957380Y-79359285D01*
X103862142Y-79406904D01*
X103671666Y-79454523D01*
X103433571Y-79454523D01*
X103243095Y-79406904D01*
X103147857Y-79359285D01*
X103100238Y-79311666D01*
X103052619Y-79216428D01*
X103052619Y-79121190D01*
X103100238Y-79025952D01*
X103147857Y-78978333D01*
X103243095Y-78930714D01*
X103433571Y-78883095D01*
X103671666Y-78883095D01*
X103862142Y-78930714D01*
X103957380Y-78978333D01*
X104005000Y-79025952D01*
X104052619Y-79121190D01*
X103957380Y-79835476D02*
X104005000Y-79883095D01*
X104052619Y-79978333D01*
X104052619Y-80216428D01*
X104005000Y-80311666D01*
X103957380Y-80359285D01*
X103862142Y-80406904D01*
X103766904Y-80406904D01*
X103624047Y-80359285D01*
X103052619Y-79787857D01*
X103052619Y-80406904D01*
X104052619Y-81025952D02*
X104052619Y-81121190D01*
X104005000Y-81216428D01*
X103957380Y-81264047D01*
X103862142Y-81311666D01*
X103671666Y-81359285D01*
X103433571Y-81359285D01*
X103243095Y-81311666D01*
X103147857Y-81264047D01*
X103100238Y-81216428D01*
X103052619Y-81121190D01*
X103052619Y-81025952D01*
X103100238Y-80930714D01*
X103147857Y-80883095D01*
X103243095Y-80835476D01*
X103433571Y-80787857D01*
X103671666Y-80787857D01*
X103862142Y-80835476D01*
X103957380Y-80883095D01*
X104005000Y-80930714D01*
X104052619Y-81025952D01*
X103052619Y-82549761D02*
X103719285Y-82549761D01*
X103624047Y-82549761D02*
X103671666Y-82597380D01*
X103719285Y-82692619D01*
X103719285Y-82835476D01*
X103671666Y-82930714D01*
X103576428Y-82978333D01*
X103052619Y-82978333D01*
X103576428Y-82978333D02*
X103671666Y-83025952D01*
X103719285Y-83121190D01*
X103719285Y-83264047D01*
X103671666Y-83359285D01*
X103576428Y-83406904D01*
X103052619Y-83406904D01*
X103052619Y-83883095D02*
X103719285Y-83883095D01*
X103624047Y-83883095D02*
X103671666Y-83930714D01*
X103719285Y-84025952D01*
X103719285Y-84168809D01*
X103671666Y-84264047D01*
X103576428Y-84311666D01*
X103052619Y-84311666D01*
X103576428Y-84311666D02*
X103671666Y-84359285D01*
X103719285Y-84454523D01*
X103719285Y-84597380D01*
X103671666Y-84692619D01*
X103576428Y-84740238D01*
X103052619Y-84740238D01*
D11*
X104775000Y-64135000D02*
X104775000Y-97155000D01*
X118745000Y-64135000D02*
X104188579Y-64135000D01*
X118745000Y-97155000D02*
X104188579Y-97155000D01*
X104775000Y-97155000D02*
X104188579Y-96028496D01*
X104775000Y-97155000D02*
X105361421Y-96028496D01*
X104775000Y-64135000D02*
X104188579Y-65261504D01*
X104775000Y-64135000D02*
X105361421Y-65261504D01*
D10*
X107222448Y-64124435D02*
X107223350Y-64791101D01*
X106222771Y-64363883D01*
X106319104Y-65173278D02*
X106271550Y-65220961D01*
X106223866Y-65173406D01*
X106271421Y-65125723D01*
X106319104Y-65173278D01*
X106223866Y-65173406D01*
X107224381Y-65553005D02*
X107225219Y-66172052D01*
X106843816Y-65839235D01*
X106844009Y-65982092D01*
X106796519Y-66077394D01*
X106748964Y-66125078D01*
X106653791Y-66172826D01*
X106415696Y-66173148D01*
X106320393Y-66125658D01*
X106272710Y-66078103D01*
X106224962Y-65982929D01*
X106224575Y-65697215D01*
X106272065Y-65601913D01*
X106319620Y-65554230D01*
X106225864Y-66649596D02*
X106226122Y-66840072D01*
X106273870Y-66935245D01*
X106321553Y-66982800D01*
X106464539Y-67077844D01*
X106655079Y-67125206D01*
X107036031Y-67124690D01*
X107131205Y-67076942D01*
X107178760Y-67029259D01*
X107226250Y-66933956D01*
X107225992Y-66743480D01*
X107178244Y-66648307D01*
X107130561Y-66600752D01*
X107035258Y-66553262D01*
X106797163Y-66553584D01*
X106701990Y-66601332D01*
X106654435Y-66649016D01*
X106606945Y-66744318D01*
X106607203Y-66934794D01*
X106654951Y-67029968D01*
X106702634Y-67077522D01*
X106797936Y-67125012D01*
X107227345Y-67743479D02*
X107227474Y-67838717D01*
X107179984Y-67934020D01*
X107132429Y-67981703D01*
X107037256Y-68029451D01*
X106846844Y-68077328D01*
X106608749Y-68077650D01*
X106418209Y-68030289D01*
X106322906Y-67982799D01*
X106275223Y-67935244D01*
X106227475Y-67840071D01*
X106227346Y-67744833D01*
X106274836Y-67649530D01*
X106322391Y-67601847D01*
X106417564Y-67554099D01*
X106607976Y-67506222D01*
X106846071Y-67505900D01*
X107036611Y-67553261D01*
X107131914Y-67600751D01*
X107179597Y-67648306D01*
X107227345Y-67743479D01*
X106229408Y-69268641D02*
X106896074Y-69267739D01*
X106800836Y-69267868D02*
X106848520Y-69315422D01*
X106896267Y-69410596D01*
X106896461Y-69553453D01*
X106848971Y-69648755D01*
X106753797Y-69696503D01*
X106229988Y-69697212D01*
X106753797Y-69696503D02*
X106849099Y-69743993D01*
X106896847Y-69839167D01*
X106897041Y-69982024D01*
X106849551Y-70077326D01*
X106754377Y-70125074D01*
X106230568Y-70125783D01*
X106231212Y-70601973D02*
X106897878Y-70601071D01*
X106802640Y-70601200D02*
X106850324Y-70648754D01*
X106898072Y-70743928D01*
X106898265Y-70886785D01*
X106850775Y-70982087D01*
X106755601Y-71029835D01*
X106231792Y-71030544D01*
X106755601Y-71029835D02*
X106850904Y-71077325D01*
X106898652Y-71172499D01*
X106898845Y-71315356D01*
X106851355Y-71410658D01*
X106756181Y-71458406D01*
X106232372Y-71459115D01*
D11*
X107954855Y-71532740D02*
X107944855Y-64142740D01*
X113675000Y-71525000D02*
X107368435Y-71533534D01*
X113665000Y-64135000D02*
X107358435Y-64143534D01*
X107944855Y-64142740D02*
X108532800Y-65268449D01*
X107944855Y-64142740D02*
X107359959Y-65270036D01*
X107954855Y-71532740D02*
X108539751Y-70405444D01*
X107954855Y-71532740D02*
X107366910Y-70407031D01*
D10*
X189786071Y-103322380D02*
X189976547Y-103322380D01*
X190071785Y-103274761D01*
X190119404Y-103227142D01*
X190214642Y-103084285D01*
X190262261Y-102893809D01*
X190262261Y-102512857D01*
X190214642Y-102417619D01*
X190167023Y-102370000D01*
X190071785Y-102322380D01*
X189881309Y-102322380D01*
X189786071Y-102370000D01*
X189738452Y-102417619D01*
X189690833Y-102512857D01*
X189690833Y-102750952D01*
X189738452Y-102846190D01*
X189786071Y-102893809D01*
X189881309Y-102941428D01*
X190071785Y-102941428D01*
X190167023Y-102893809D01*
X190214642Y-102846190D01*
X190262261Y-102750952D01*
X190690833Y-103227142D02*
X190738452Y-103274761D01*
X190690833Y-103322380D01*
X190643214Y-103274761D01*
X190690833Y-103227142D01*
X190690833Y-103322380D01*
X191643214Y-102322380D02*
X191167023Y-102322380D01*
X191119404Y-102798571D01*
X191167023Y-102750952D01*
X191262261Y-102703333D01*
X191500357Y-102703333D01*
X191595595Y-102750952D01*
X191643214Y-102798571D01*
X191690833Y-102893809D01*
X191690833Y-103131904D01*
X191643214Y-103227142D01*
X191595595Y-103274761D01*
X191500357Y-103322380D01*
X191262261Y-103322380D01*
X191167023Y-103274761D01*
X191119404Y-103227142D01*
X192071785Y-102417619D02*
X192119404Y-102370000D01*
X192214642Y-102322380D01*
X192452738Y-102322380D01*
X192547976Y-102370000D01*
X192595595Y-102417619D01*
X192643214Y-102512857D01*
X192643214Y-102608095D01*
X192595595Y-102750952D01*
X192024166Y-103322380D01*
X192643214Y-103322380D01*
X193547976Y-102322380D02*
X193071785Y-102322380D01*
X193024166Y-102798571D01*
X193071785Y-102750952D01*
X193167023Y-102703333D01*
X193405119Y-102703333D01*
X193500357Y-102750952D01*
X193547976Y-102798571D01*
X193595595Y-102893809D01*
X193595595Y-103131904D01*
X193547976Y-103227142D01*
X193500357Y-103274761D01*
X193405119Y-103322380D01*
X193167023Y-103322380D01*
X193071785Y-103274761D01*
X193024166Y-103227142D01*
X194786071Y-103322380D02*
X194786071Y-102655714D01*
X194786071Y-102750952D02*
X194833690Y-102703333D01*
X194928928Y-102655714D01*
X195071785Y-102655714D01*
X195167023Y-102703333D01*
X195214642Y-102798571D01*
X195214642Y-103322380D01*
X195214642Y-102798571D02*
X195262261Y-102703333D01*
X195357500Y-102655714D01*
X195500357Y-102655714D01*
X195595595Y-102703333D01*
X195643214Y-102798571D01*
X195643214Y-103322380D01*
X196119404Y-103322380D02*
X196119404Y-102655714D01*
X196119404Y-102750952D02*
X196167023Y-102703333D01*
X196262261Y-102655714D01*
X196405119Y-102655714D01*
X196500357Y-102703333D01*
X196547976Y-102798571D01*
X196547976Y-103322380D01*
X196547976Y-102798571D02*
X196595595Y-102703333D01*
X196690833Y-102655714D01*
X196833690Y-102655714D01*
X196928928Y-102703333D01*
X196976547Y-102798571D01*
X196976547Y-103322380D01*
D11*
X188595000Y-101600000D02*
X198120000Y-101600000D01*
X188595000Y-93980000D02*
X188595000Y-102186421D01*
X198120000Y-93980000D02*
X198120000Y-102186421D01*
X198120000Y-101600000D02*
X196993496Y-102186421D01*
X198120000Y-101600000D02*
X196993496Y-101013579D01*
X188595000Y-101600000D02*
X189721504Y-102186421D01*
X188595000Y-101600000D02*
X189721504Y-101013579D01*
D10*
X203922380Y-69436785D02*
X203922380Y-68817738D01*
X204303333Y-69151071D01*
X204303333Y-69008214D01*
X204350952Y-68912976D01*
X204398571Y-68865357D01*
X204493809Y-68817738D01*
X204731904Y-68817738D01*
X204827142Y-68865357D01*
X204874761Y-68912976D01*
X204922380Y-69008214D01*
X204922380Y-69293928D01*
X204874761Y-69389166D01*
X204827142Y-69436785D01*
X204827142Y-68389166D02*
X204874761Y-68341547D01*
X204922380Y-68389166D01*
X204874761Y-68436785D01*
X204827142Y-68389166D01*
X204922380Y-68389166D01*
X204922380Y-67389166D02*
X204922380Y-67960595D01*
X204922380Y-67674880D02*
X203922380Y-67674880D01*
X204065238Y-67770119D01*
X204160476Y-67865357D01*
X204208095Y-67960595D01*
X203922380Y-67055833D02*
X203922380Y-66389166D01*
X204922380Y-66817738D01*
X203922380Y-65532023D02*
X203922380Y-66008214D01*
X204398571Y-66055833D01*
X204350952Y-66008214D01*
X204303333Y-65912976D01*
X204303333Y-65674880D01*
X204350952Y-65579642D01*
X204398571Y-65532023D01*
X204493809Y-65484404D01*
X204731904Y-65484404D01*
X204827142Y-65532023D01*
X204874761Y-65579642D01*
X204922380Y-65674880D01*
X204922380Y-65912976D01*
X204874761Y-66008214D01*
X204827142Y-66055833D01*
X204922380Y-64293928D02*
X204255714Y-64293928D01*
X204350952Y-64293928D02*
X204303333Y-64246309D01*
X204255714Y-64151071D01*
X204255714Y-64008214D01*
X204303333Y-63912976D01*
X204398571Y-63865357D01*
X204922380Y-63865357D01*
X204398571Y-63865357D02*
X204303333Y-63817738D01*
X204255714Y-63722500D01*
X204255714Y-63579642D01*
X204303333Y-63484404D01*
X204398571Y-63436785D01*
X204922380Y-63436785D01*
X204922380Y-62960595D02*
X204255714Y-62960595D01*
X204350952Y-62960595D02*
X204303333Y-62912976D01*
X204255714Y-62817738D01*
X204255714Y-62674880D01*
X204303333Y-62579642D01*
X204398571Y-62532023D01*
X204922380Y-62532023D01*
X204398571Y-62532023D02*
X204303333Y-62484404D01*
X204255714Y-62389166D01*
X204255714Y-62246309D01*
X204303333Y-62151071D01*
X204398571Y-62103452D01*
X204922380Y-62103452D01*
D11*
X203200000Y-67310000D02*
X203200000Y-64135000D01*
X161925000Y-67310000D02*
X203786421Y-67310000D01*
X161925000Y-64135000D02*
X203786421Y-64135000D01*
X203200000Y-64135000D02*
X203786421Y-65261504D01*
X203200000Y-64135000D02*
X202613579Y-65261504D01*
X203200000Y-67310000D02*
X203786421Y-66183496D01*
X203200000Y-67310000D02*
X202613579Y-66183496D01*
D10*
X204922380Y-76502142D02*
X204970000Y-76549761D01*
X205017619Y-76645000D01*
X205017619Y-76883095D01*
X204970000Y-76978333D01*
X204922380Y-77025952D01*
X204827142Y-77073571D01*
X204731904Y-77073571D01*
X204589047Y-77025952D01*
X204017619Y-76454523D01*
X204017619Y-77073571D01*
X205017619Y-77930714D02*
X205017619Y-77740238D01*
X204970000Y-77645000D01*
X204922380Y-77597380D01*
X204779523Y-77502142D01*
X204589047Y-77454523D01*
X204208095Y-77454523D01*
X204112857Y-77502142D01*
X204065238Y-77549761D01*
X204017619Y-77645000D01*
X204017619Y-77835476D01*
X204065238Y-77930714D01*
X204112857Y-77978333D01*
X204208095Y-78025952D01*
X204446190Y-78025952D01*
X204541428Y-77978333D01*
X204589047Y-77930714D01*
X204636666Y-77835476D01*
X204636666Y-77645000D01*
X204589047Y-77549761D01*
X204541428Y-77502142D01*
X204446190Y-77454523D01*
X204112857Y-78454523D02*
X204065238Y-78502142D01*
X204017619Y-78454523D01*
X204065238Y-78406904D01*
X204112857Y-78454523D01*
X204017619Y-78454523D01*
X205017619Y-79359285D02*
X205017619Y-79168809D01*
X204970000Y-79073571D01*
X204922380Y-79025952D01*
X204779523Y-78930714D01*
X204589047Y-78883095D01*
X204208095Y-78883095D01*
X204112857Y-78930714D01*
X204065238Y-78978333D01*
X204017619Y-79073571D01*
X204017619Y-79264047D01*
X204065238Y-79359285D01*
X204112857Y-79406904D01*
X204208095Y-79454523D01*
X204446190Y-79454523D01*
X204541428Y-79406904D01*
X204589047Y-79359285D01*
X204636666Y-79264047D01*
X204636666Y-79073571D01*
X204589047Y-78978333D01*
X204541428Y-78930714D01*
X204446190Y-78883095D01*
X205017619Y-79787857D02*
X205017619Y-80454523D01*
X204017619Y-80025952D01*
X205017619Y-81025952D02*
X205017619Y-81121190D01*
X204970000Y-81216428D01*
X204922380Y-81264047D01*
X204827142Y-81311666D01*
X204636666Y-81359285D01*
X204398571Y-81359285D01*
X204208095Y-81311666D01*
X204112857Y-81264047D01*
X204065238Y-81216428D01*
X204017619Y-81121190D01*
X204017619Y-81025952D01*
X204065238Y-80930714D01*
X204112857Y-80883095D01*
X204208095Y-80835476D01*
X204398571Y-80787857D01*
X204636666Y-80787857D01*
X204827142Y-80835476D01*
X204922380Y-80883095D01*
X204970000Y-80930714D01*
X205017619Y-81025952D01*
X204017619Y-82549761D02*
X204684285Y-82549761D01*
X204589047Y-82549761D02*
X204636666Y-82597380D01*
X204684285Y-82692619D01*
X204684285Y-82835476D01*
X204636666Y-82930714D01*
X204541428Y-82978333D01*
X204017619Y-82978333D01*
X204541428Y-82978333D02*
X204636666Y-83025952D01*
X204684285Y-83121190D01*
X204684285Y-83264047D01*
X204636666Y-83359285D01*
X204541428Y-83406904D01*
X204017619Y-83406904D01*
X204017619Y-83883095D02*
X204684285Y-83883095D01*
X204589047Y-83883095D02*
X204636666Y-83930714D01*
X204684285Y-84025952D01*
X204684285Y-84168809D01*
X204636666Y-84264047D01*
X204541428Y-84311666D01*
X204017619Y-84311666D01*
X204541428Y-84311666D02*
X204636666Y-84359285D01*
X204684285Y-84454523D01*
X204684285Y-84597380D01*
X204636666Y-84692619D01*
X204541428Y-84740238D01*
X204017619Y-84740238D01*
D11*
X203200000Y-67310000D02*
X203200000Y-93980000D01*
X161925000Y-67310000D02*
X203786421Y-67310000D01*
X161925000Y-93980000D02*
X203786421Y-93980000D01*
X203200000Y-93980000D02*
X202613579Y-92853496D01*
X203200000Y-93980000D02*
X203786421Y-92853496D01*
X203200000Y-67310000D02*
X202613579Y-68436504D01*
X203200000Y-67310000D02*
X203786421Y-68436504D01*
D10*
X171117142Y-102417618D02*
X171164761Y-102369999D01*
X171260000Y-102322379D01*
X171498095Y-102322379D01*
X171593333Y-102369999D01*
X171640952Y-102417618D01*
X171688571Y-102512856D01*
X171688571Y-102608094D01*
X171640952Y-102750951D01*
X171069523Y-103322379D01*
X171688571Y-103322379D01*
X172545714Y-102322379D02*
X172355238Y-102322379D01*
X172260000Y-102369999D01*
X172212380Y-102417618D01*
X172117142Y-102560475D01*
X172069523Y-102750951D01*
X172069523Y-103131903D01*
X172117142Y-103227141D01*
X172164761Y-103274760D01*
X172260000Y-103322379D01*
X172450476Y-103322379D01*
X172545714Y-103274760D01*
X172593333Y-103227141D01*
X172640952Y-103131903D01*
X172640952Y-102893808D01*
X172593333Y-102798570D01*
X172545714Y-102750951D01*
X172450476Y-102703332D01*
X172260000Y-102703332D01*
X172164761Y-102750951D01*
X172117142Y-102798570D01*
X172069523Y-102893808D01*
X173069523Y-103227141D02*
X173117142Y-103274760D01*
X173069523Y-103322379D01*
X173021904Y-103274760D01*
X173069523Y-103227141D01*
X173069523Y-103322379D01*
X173974285Y-102322379D02*
X173783809Y-102322379D01*
X173688571Y-102369999D01*
X173640952Y-102417618D01*
X173545714Y-102560475D01*
X173498095Y-102750951D01*
X173498095Y-103131903D01*
X173545714Y-103227141D01*
X173593333Y-103274760D01*
X173688571Y-103322379D01*
X173879047Y-103322379D01*
X173974285Y-103274760D01*
X174021904Y-103227141D01*
X174069523Y-103131903D01*
X174069523Y-102893808D01*
X174021904Y-102798570D01*
X173974285Y-102750951D01*
X173879047Y-102703332D01*
X173688571Y-102703332D01*
X173593333Y-102750951D01*
X173545714Y-102798570D01*
X173498095Y-102893808D01*
X174402857Y-102322379D02*
X175069523Y-102322379D01*
X174640952Y-103322379D01*
X175640952Y-102322379D02*
X175736190Y-102322379D01*
X175831428Y-102369999D01*
X175879047Y-102417618D01*
X175926666Y-102512856D01*
X175974285Y-102703332D01*
X175974285Y-102941427D01*
X175926666Y-103131903D01*
X175879047Y-103227141D01*
X175831428Y-103274760D01*
X175736190Y-103322379D01*
X175640952Y-103322379D01*
X175545714Y-103274760D01*
X175498095Y-103227141D01*
X175450476Y-103131903D01*
X175402857Y-102941427D01*
X175402857Y-102703332D01*
X175450476Y-102512856D01*
X175498095Y-102417618D01*
X175545714Y-102369999D01*
X175640952Y-102322379D01*
X177164761Y-103322379D02*
X177164761Y-102655713D01*
X177164761Y-102750951D02*
X177212380Y-102703332D01*
X177307619Y-102655713D01*
X177450476Y-102655713D01*
X177545714Y-102703332D01*
X177593333Y-102798570D01*
X177593333Y-103322379D01*
X177593333Y-102798570D02*
X177640952Y-102703332D01*
X177736190Y-102655713D01*
X177879047Y-102655713D01*
X177974285Y-102703332D01*
X178021904Y-102798570D01*
X178021904Y-103322379D01*
X178498095Y-103322379D02*
X178498095Y-102655713D01*
X178498095Y-102750951D02*
X178545714Y-102703332D01*
X178640952Y-102655713D01*
X178783809Y-102655713D01*
X178879047Y-102703332D01*
X178926666Y-102798570D01*
X178926666Y-103322379D01*
X178926666Y-102798570D02*
X178974285Y-102703332D01*
X179069523Y-102655713D01*
X179212380Y-102655713D01*
X179307619Y-102703332D01*
X179355238Y-102798570D01*
X179355238Y-103322379D01*
D11*
X161925000Y-101599999D02*
X188595000Y-101599999D01*
X161925000Y-93980000D02*
X161925000Y-102186420D01*
X188595000Y-93980000D02*
X188595000Y-102186420D01*
X188595000Y-101599999D02*
X187468496Y-102186420D01*
X188595000Y-101599999D02*
X187468496Y-101013578D01*
X161925000Y-101599999D02*
X163051504Y-102186420D01*
X161925000Y-101599999D02*
X163051504Y-101013578D01*
D10*
X154242023Y-59142380D02*
X154908690Y-59142380D01*
X154480119Y-60142380D01*
X155337261Y-60142380D02*
X155527738Y-60142380D01*
X155622976Y-60094761D01*
X155670595Y-60047142D01*
X155765833Y-59904285D01*
X155813452Y-59713809D01*
X155813452Y-59332857D01*
X155765833Y-59237619D01*
X155718214Y-59190000D01*
X155622976Y-59142380D01*
X155432500Y-59142380D01*
X155337261Y-59190000D01*
X155289642Y-59237619D01*
X155242023Y-59332857D01*
X155242023Y-59570952D01*
X155289642Y-59666190D01*
X155337261Y-59713809D01*
X155432500Y-59761428D01*
X155622976Y-59761428D01*
X155718214Y-59713809D01*
X155765833Y-59666190D01*
X155813452Y-59570952D01*
X156242023Y-60047142D02*
X156289642Y-60094761D01*
X156242023Y-60142380D01*
X156194404Y-60094761D01*
X156242023Y-60047142D01*
X156242023Y-60142380D01*
X156622976Y-59142380D02*
X157242023Y-59142380D01*
X156908690Y-59523333D01*
X157051547Y-59523333D01*
X157146785Y-59570952D01*
X157194404Y-59618571D01*
X157242023Y-59713809D01*
X157242023Y-59951904D01*
X157194404Y-60047142D01*
X157146785Y-60094761D01*
X157051547Y-60142380D01*
X156765833Y-60142380D01*
X156670595Y-60094761D01*
X156622976Y-60047142D01*
X157575357Y-59142380D02*
X158242023Y-59142380D01*
X157813452Y-60142380D01*
X159099166Y-59142380D02*
X158622976Y-59142380D01*
X158575357Y-59618571D01*
X158622976Y-59570952D01*
X158718214Y-59523333D01*
X158956309Y-59523333D01*
X159051547Y-59570952D01*
X159099166Y-59618571D01*
X159146785Y-59713809D01*
X159146785Y-59951904D01*
X159099166Y-60047142D01*
X159051547Y-60094761D01*
X158956309Y-60142380D01*
X158718214Y-60142380D01*
X158622976Y-60094761D01*
X158575357Y-60047142D01*
X160337261Y-60142380D02*
X160337261Y-59475714D01*
X160337261Y-59570952D02*
X160384880Y-59523333D01*
X160480119Y-59475714D01*
X160622976Y-59475714D01*
X160718214Y-59523333D01*
X160765833Y-59618571D01*
X160765833Y-60142380D01*
X160765833Y-59618571D02*
X160813452Y-59523333D01*
X160908690Y-59475714D01*
X161051547Y-59475714D01*
X161146785Y-59523333D01*
X161194404Y-59618571D01*
X161194404Y-60142380D01*
X161670595Y-60142380D02*
X161670595Y-59475714D01*
X161670595Y-59570952D02*
X161718214Y-59523333D01*
X161813452Y-59475714D01*
X161956309Y-59475714D01*
X162051547Y-59523333D01*
X162099166Y-59618571D01*
X162099166Y-60142380D01*
X162099166Y-59618571D02*
X162146785Y-59523333D01*
X162242023Y-59475714D01*
X162384880Y-59475714D01*
X162480119Y-59523333D01*
X162527738Y-59618571D01*
X162527738Y-60142380D01*
D11*
X118745000Y-60960000D02*
X198120000Y-60960000D01*
X118745000Y-64135000D02*
X118745000Y-60373579D01*
X198120000Y-64135000D02*
X198120000Y-60373579D01*
X198120000Y-60960000D02*
X196993496Y-61546421D01*
X198120000Y-60960000D02*
X196993496Y-60373579D01*
X118745000Y-60960000D02*
X119871504Y-61546421D01*
X118745000Y-60960000D02*
X119871504Y-60373579D01*
D10*
X156114000Y-74828333D02*
X156080666Y-74895000D01*
X156080666Y-74995000D01*
X156114000Y-75095000D01*
X156180666Y-75161666D01*
X156247333Y-75195000D01*
X156380666Y-75228333D01*
X156480666Y-75228333D01*
X156614000Y-75195000D01*
X156680666Y-75161666D01*
X156747333Y-75095000D01*
X156780666Y-74995000D01*
X156780666Y-74928333D01*
X156747333Y-74828333D01*
X156714000Y-74795000D01*
X156480666Y-74795000D01*
X156480666Y-74928333D01*
X156780666Y-74495000D02*
X156080666Y-74495000D01*
X156780666Y-74095000D01*
X156080666Y-74095000D01*
X156780666Y-73761666D02*
X156080666Y-73761666D01*
X156080666Y-73595000D01*
X156114000Y-73495000D01*
X156180666Y-73428333D01*
X156247333Y-73395000D01*
X156380666Y-73361666D01*
X156480666Y-73361666D01*
X156614000Y-73395000D01*
X156680666Y-73428333D01*
X156747333Y-73495000D01*
X156780666Y-73595000D01*
X156780666Y-73761666D01*
X156080666Y-84988333D02*
X156080666Y-84588333D01*
X156780666Y-84788333D02*
X156080666Y-84788333D01*
X156080666Y-84421666D02*
X156780666Y-83955000D01*
X156080666Y-83955000D02*
X156780666Y-84421666D01*
X156780666Y-82031666D02*
X156447333Y-82265000D01*
X156780666Y-82431666D02*
X156080666Y-82431666D01*
X156080666Y-82165000D01*
X156114000Y-82098333D01*
X156147333Y-82065000D01*
X156214000Y-82031666D01*
X156314000Y-82031666D01*
X156380666Y-82065000D01*
X156414000Y-82098333D01*
X156447333Y-82165000D01*
X156447333Y-82431666D01*
X156080666Y-81798333D02*
X156780666Y-81331666D01*
X156080666Y-81331666D02*
X156780666Y-81798333D01*
X156080666Y-80041666D02*
X156780666Y-79808333D01*
X156080666Y-79575000D01*
X156514000Y-79341666D02*
X156514000Y-78808333D01*
X156780666Y-79075000D02*
X156247333Y-79075000D01*
X140920000Y-73340000D02*
X140953333Y-73240000D01*
X140986666Y-73206666D01*
X141053333Y-73173333D01*
X141153333Y-73173333D01*
X141220000Y-73206666D01*
X141253333Y-73240000D01*
X141286666Y-73306666D01*
X141286666Y-73573333D01*
X140586666Y-73573333D01*
X140586666Y-73340000D01*
X140620000Y-73273333D01*
X140653333Y-73240000D01*
X140720000Y-73206666D01*
X140786666Y-73206666D01*
X140853333Y-73240000D01*
X140886666Y-73273333D01*
X140920000Y-73340000D01*
X140920000Y-73573333D01*
X140586666Y-72740000D02*
X140586666Y-72606666D01*
X140620000Y-72540000D01*
X140686666Y-72473333D01*
X140820000Y-72440000D01*
X141053333Y-72440000D01*
X141186666Y-72473333D01*
X141253333Y-72540000D01*
X141286666Y-72606666D01*
X141286666Y-72740000D01*
X141253333Y-72806666D01*
X141186666Y-72873333D01*
X141053333Y-72906666D01*
X140820000Y-72906666D01*
X140686666Y-72873333D01*
X140620000Y-72806666D01*
X140586666Y-72740000D01*
X140586666Y-72006666D02*
X140586666Y-71873333D01*
X140620000Y-71806666D01*
X140686666Y-71740000D01*
X140820000Y-71706666D01*
X141053333Y-71706666D01*
X141186666Y-71740000D01*
X141253333Y-71806666D01*
X141286666Y-71873333D01*
X141286666Y-72006666D01*
X141253333Y-72073333D01*
X141186666Y-72140000D01*
X141053333Y-72173333D01*
X140820000Y-72173333D01*
X140686666Y-72140000D01*
X140620000Y-72073333D01*
X140586666Y-72006666D01*
X140586666Y-71506666D02*
X140586666Y-71106666D01*
X141286666Y-71306666D02*
X140586666Y-71306666D01*
X141286666Y-89916666D02*
X140953333Y-90150000D01*
X141286666Y-90316666D02*
X140586666Y-90316666D01*
X140586666Y-90050000D01*
X140620000Y-89983333D01*
X140653333Y-89950000D01*
X140720000Y-89916666D01*
X140820000Y-89916666D01*
X140886666Y-89950000D01*
X140920000Y-89983333D01*
X140953333Y-90050000D01*
X140953333Y-90316666D01*
X140920000Y-89616666D02*
X140920000Y-89383333D01*
X141286666Y-89283333D02*
X141286666Y-89616666D01*
X140586666Y-89616666D01*
X140586666Y-89283333D01*
X141253333Y-89016666D02*
X141286666Y-88916666D01*
X141286666Y-88750000D01*
X141253333Y-88683333D01*
X141220000Y-88650000D01*
X141153333Y-88616666D01*
X141086666Y-88616666D01*
X141020000Y-88650000D01*
X140986666Y-88683333D01*
X140953333Y-88750000D01*
X140920000Y-88883333D01*
X140886666Y-88950000D01*
X140853333Y-88983333D01*
X140786666Y-89016666D01*
X140720000Y-89016666D01*
X140653333Y-88983333D01*
X140620000Y-88950000D01*
X140586666Y-88883333D01*
X140586666Y-88716666D01*
X140620000Y-88616666D01*
X140920000Y-88316666D02*
X140920000Y-88083333D01*
X141286666Y-87983333D02*
X141286666Y-88316666D01*
X140586666Y-88316666D01*
X140586666Y-87983333D01*
X140586666Y-87783333D02*
X140586666Y-87383333D01*
X141286666Y-87583333D02*
X140586666Y-87583333D01*
X121818333Y-70166666D02*
X121785000Y-70200000D01*
X121718333Y-70233333D01*
X121551666Y-70233333D01*
X121485000Y-70200000D01*
X121451666Y-70166666D01*
X121418333Y-70100000D01*
X121418333Y-70033333D01*
X121451666Y-69933333D01*
X121851666Y-69533333D01*
X121418333Y-69533333D01*
X121185000Y-70233333D02*
X120751666Y-70233333D01*
X120985000Y-69966666D01*
X120885000Y-69966666D01*
X120818333Y-69933333D01*
X120785000Y-69900000D01*
X120751666Y-69833333D01*
X120751666Y-69666666D01*
X120785000Y-69600000D01*
X120818333Y-69566666D01*
X120885000Y-69533333D01*
X121085000Y-69533333D01*
X121151666Y-69566666D01*
X121185000Y-69600000D01*
X124358333Y-70166666D02*
X124325000Y-70200000D01*
X124258333Y-70233333D01*
X124091666Y-70233333D01*
X124025000Y-70200000D01*
X123991666Y-70166666D01*
X123958333Y-70100000D01*
X123958333Y-70033333D01*
X123991666Y-69933333D01*
X124391666Y-69533333D01*
X123958333Y-69533333D01*
X123691666Y-70166666D02*
X123658333Y-70200000D01*
X123591666Y-70233333D01*
X123425000Y-70233333D01*
X123358333Y-70200000D01*
X123325000Y-70166666D01*
X123291666Y-70100000D01*
X123291666Y-70033333D01*
X123325000Y-69933333D01*
X123725000Y-69533333D01*
X123291666Y-69533333D01*
X126898333Y-70233333D02*
X126498333Y-70233333D01*
X126698333Y-69533333D02*
X126698333Y-70233333D01*
X126331666Y-70233333D02*
X125865000Y-69533333D01*
X125865000Y-70233333D02*
X126331666Y-69533333D01*
X129021666Y-69533333D02*
X129255000Y-69866666D01*
X129421666Y-69533333D02*
X129421666Y-70233333D01*
X129155000Y-70233333D01*
X129088333Y-70200000D01*
X129055000Y-70166666D01*
X129021666Y-70100000D01*
X129021666Y-70000000D01*
X129055000Y-69933333D01*
X129088333Y-69900000D01*
X129155000Y-69866666D01*
X129421666Y-69866666D01*
X128788333Y-70233333D02*
X128321666Y-69533333D01*
X128321666Y-70233333D02*
X128788333Y-69533333D01*
X131978333Y-70166666D02*
X131945000Y-70200000D01*
X131878333Y-70233333D01*
X131711666Y-70233333D01*
X131645000Y-70200000D01*
X131611666Y-70166666D01*
X131578333Y-70100000D01*
X131578333Y-70033333D01*
X131611666Y-69933333D01*
X132011666Y-69533333D01*
X131578333Y-69533333D01*
X130911666Y-69533333D02*
X131311666Y-69533333D01*
X131111666Y-69533333D02*
X131111666Y-70233333D01*
X131178333Y-70133333D01*
X131245000Y-70066666D01*
X131311666Y-70033333D01*
X134118333Y-69533333D02*
X134518333Y-69533333D01*
X134318333Y-69533333D02*
X134318333Y-70233333D01*
X134385000Y-70133333D01*
X134451666Y-70066666D01*
X134518333Y-70033333D01*
X133785000Y-69533333D02*
X133651666Y-69533333D01*
X133585000Y-69566666D01*
X133551666Y-69600000D01*
X133485000Y-69700000D01*
X133451666Y-69833333D01*
X133451666Y-70100000D01*
X133485000Y-70166666D01*
X133518333Y-70200000D01*
X133585000Y-70233333D01*
X133718333Y-70233333D01*
X133785000Y-70200000D01*
X133818333Y-70166666D01*
X133851666Y-70100000D01*
X133851666Y-69933333D01*
X133818333Y-69866666D01*
X133785000Y-69833333D01*
X133718333Y-69800000D01*
X133585000Y-69800000D01*
X133518333Y-69833333D01*
X133485000Y-69866666D01*
X133451666Y-69933333D01*
X136658333Y-69533333D02*
X137058333Y-69533333D01*
X136858333Y-69533333D02*
X136858333Y-70233333D01*
X136925000Y-70133333D01*
X136991666Y-70066666D01*
X137058333Y-70033333D01*
X136258333Y-69933333D02*
X136325000Y-69966666D01*
X136358333Y-70000000D01*
X136391666Y-70066666D01*
X136391666Y-70100000D01*
X136358333Y-70166666D01*
X136325000Y-70200000D01*
X136258333Y-70233333D01*
X136125000Y-70233333D01*
X136058333Y-70200000D01*
X136025000Y-70166666D01*
X135991666Y-70100000D01*
X135991666Y-70066666D01*
X136025000Y-70000000D01*
X136058333Y-69966666D01*
X136125000Y-69933333D01*
X136258333Y-69933333D01*
X136325000Y-69900000D01*
X136358333Y-69866666D01*
X136391666Y-69800000D01*
X136391666Y-69666666D01*
X136358333Y-69600000D01*
X136325000Y-69566666D01*
X136258333Y-69533333D01*
X136125000Y-69533333D01*
X136058333Y-69566666D01*
X136025000Y-69600000D01*
X135991666Y-69666666D01*
X135991666Y-69800000D01*
X136025000Y-69866666D01*
X136058333Y-69900000D01*
X136125000Y-69933333D01*
X138898333Y-70233333D02*
X139231666Y-70233333D01*
X139265000Y-69900000D01*
X139231666Y-69933333D01*
X139165000Y-69966666D01*
X138998333Y-69966666D01*
X138931666Y-69933333D01*
X138898333Y-69900000D01*
X138865000Y-69833333D01*
X138865000Y-69666666D01*
X138898333Y-69600000D01*
X138931666Y-69566666D01*
X138998333Y-69533333D01*
X139165000Y-69533333D01*
X139231666Y-69566666D01*
X139265000Y-69600000D01*
X141738333Y-69533333D02*
X142138333Y-69533333D01*
X141938333Y-69533333D02*
X141938333Y-70233333D01*
X142005000Y-70133333D01*
X142071666Y-70066666D01*
X142138333Y-70033333D01*
X141505000Y-70233333D02*
X141038333Y-70233333D01*
X141338333Y-69533333D01*
X144278333Y-69533333D02*
X144678333Y-69533333D01*
X144478333Y-69533333D02*
X144478333Y-70233333D01*
X144545000Y-70133333D01*
X144611666Y-70066666D01*
X144678333Y-70033333D01*
X143678333Y-70233333D02*
X143811666Y-70233333D01*
X143878333Y-70200000D01*
X143911666Y-70166666D01*
X143978333Y-70066666D01*
X144011666Y-69933333D01*
X144011666Y-69666666D01*
X143978333Y-69600000D01*
X143945000Y-69566666D01*
X143878333Y-69533333D01*
X143745000Y-69533333D01*
X143678333Y-69566666D01*
X143645000Y-69600000D01*
X143611666Y-69666666D01*
X143611666Y-69833333D01*
X143645000Y-69900000D01*
X143678333Y-69933333D01*
X143745000Y-69966666D01*
X143878333Y-69966666D01*
X143945000Y-69933333D01*
X143978333Y-69900000D01*
X144011666Y-69833333D01*
X146551666Y-70000000D02*
X146551666Y-69533333D01*
X146718333Y-70266666D02*
X146885000Y-69766666D01*
X146451666Y-69766666D01*
X149258333Y-70233333D02*
X149191666Y-70233333D01*
X149125000Y-70200000D01*
X149091666Y-70166666D01*
X149058333Y-70100000D01*
X149025000Y-69966666D01*
X149025000Y-69800000D01*
X149058333Y-69666666D01*
X149091666Y-69600000D01*
X149125000Y-69566666D01*
X149191666Y-69533333D01*
X149258333Y-69533333D01*
X149325000Y-69566666D01*
X149358333Y-69600000D01*
X149391666Y-69666666D01*
X149425000Y-69800000D01*
X149425000Y-69966666D01*
X149391666Y-70100000D01*
X149358333Y-70166666D01*
X149325000Y-70200000D01*
X149258333Y-70233333D01*
X151965000Y-70166666D02*
X151931666Y-70200000D01*
X151865000Y-70233333D01*
X151698333Y-70233333D01*
X151631666Y-70200000D01*
X151598333Y-70166666D01*
X151565000Y-70100000D01*
X151565000Y-70033333D01*
X151598333Y-69933333D01*
X151998333Y-69533333D01*
X151565000Y-69533333D01*
X154438333Y-69533333D02*
X154838333Y-69533333D01*
X154638333Y-69533333D02*
X154638333Y-70233333D01*
X154705000Y-70133333D01*
X154771666Y-70066666D01*
X154838333Y-70033333D01*
X153805000Y-70233333D02*
X154138333Y-70233333D01*
X154171666Y-69900000D01*
X154138333Y-69933333D01*
X154071666Y-69966666D01*
X153905000Y-69966666D01*
X153838333Y-69933333D01*
X153805000Y-69900000D01*
X153771666Y-69833333D01*
X153771666Y-69666666D01*
X153805000Y-69600000D01*
X153838333Y-69566666D01*
X153905000Y-69533333D01*
X154071666Y-69533333D01*
X154138333Y-69566666D01*
X154171666Y-69600000D01*
X157511666Y-70233333D02*
X157278333Y-69533333D01*
X157045000Y-70233333D01*
X156811666Y-69800000D02*
X156278333Y-69800000D01*
X156545000Y-69533333D02*
X156545000Y-70066666D01*
X156311666Y-91090000D02*
X156245000Y-91056666D01*
X156145000Y-91056666D01*
X156045000Y-91090000D01*
X155978333Y-91156666D01*
X155945000Y-91223333D01*
X155911666Y-91356666D01*
X155911666Y-91456666D01*
X155945000Y-91590000D01*
X155978333Y-91656666D01*
X156045000Y-91723333D01*
X156145000Y-91756666D01*
X156211666Y-91756666D01*
X156311666Y-91723333D01*
X156345000Y-91690000D01*
X156345000Y-91456666D01*
X156211666Y-91456666D01*
X156645000Y-91756666D02*
X156645000Y-91056666D01*
X157045000Y-91756666D01*
X157045000Y-91056666D01*
X157378333Y-91756666D02*
X157378333Y-91056666D01*
X157545000Y-91056666D01*
X157645000Y-91090000D01*
X157711666Y-91156666D01*
X157745000Y-91223333D01*
X157778333Y-91356666D01*
X157778333Y-91456666D01*
X157745000Y-91590000D01*
X157711666Y-91656666D01*
X157645000Y-91723333D01*
X157545000Y-91756666D01*
X157378333Y-91756666D01*
X153438333Y-91056666D02*
X153871666Y-91056666D01*
X153638333Y-91323333D01*
X153738333Y-91323333D01*
X153805000Y-91356666D01*
X153838333Y-91390000D01*
X153871666Y-91456666D01*
X153871666Y-91623333D01*
X153838333Y-91690000D01*
X153805000Y-91723333D01*
X153738333Y-91756666D01*
X153538333Y-91756666D01*
X153471666Y-91723333D01*
X153438333Y-91690000D01*
X154071666Y-91056666D02*
X154305000Y-91756666D01*
X154538333Y-91056666D01*
X154705000Y-91056666D02*
X155138333Y-91056666D01*
X154905000Y-91323333D01*
X155005000Y-91323333D01*
X155071666Y-91356666D01*
X155105000Y-91390000D01*
X155138333Y-91456666D01*
X155138333Y-91623333D01*
X155105000Y-91690000D01*
X155071666Y-91723333D01*
X155005000Y-91756666D01*
X154805000Y-91756666D01*
X154738333Y-91723333D01*
X154705000Y-91690000D01*
X151631666Y-91756666D02*
X151231666Y-91756666D01*
X151431666Y-91756666D02*
X151431666Y-91056666D01*
X151365000Y-91156666D01*
X151298333Y-91223333D01*
X151231666Y-91256666D01*
X151865000Y-91056666D02*
X152298333Y-91056666D01*
X152065000Y-91323333D01*
X152165000Y-91323333D01*
X152231666Y-91356666D01*
X152265000Y-91390000D01*
X152298333Y-91456666D01*
X152298333Y-91623333D01*
X152265000Y-91690000D01*
X152231666Y-91723333D01*
X152165000Y-91756666D01*
X151965000Y-91756666D01*
X151898333Y-91723333D01*
X151865000Y-91690000D01*
X149091666Y-91756666D02*
X148691666Y-91756666D01*
X148891666Y-91756666D02*
X148891666Y-91056666D01*
X148825000Y-91156666D01*
X148758333Y-91223333D01*
X148691666Y-91256666D01*
X149358333Y-91123333D02*
X149391666Y-91090000D01*
X149458333Y-91056666D01*
X149625000Y-91056666D01*
X149691666Y-91090000D01*
X149725000Y-91123333D01*
X149758333Y-91190000D01*
X149758333Y-91256666D01*
X149725000Y-91356666D01*
X149325000Y-91756666D01*
X149758333Y-91756666D01*
X146551666Y-91756666D02*
X146151666Y-91756666D01*
X146351666Y-91756666D02*
X146351666Y-91056666D01*
X146285000Y-91156666D01*
X146218333Y-91223333D01*
X146151666Y-91256666D01*
X147151666Y-91290000D02*
X147151666Y-91756666D01*
X146985000Y-91023333D02*
X146818333Y-91523333D01*
X147251666Y-91523333D01*
X143611666Y-91123333D02*
X143645000Y-91090000D01*
X143711666Y-91056666D01*
X143878333Y-91056666D01*
X143945000Y-91090000D01*
X143978333Y-91123333D01*
X144011666Y-91190000D01*
X144011666Y-91256666D01*
X143978333Y-91356666D01*
X143578333Y-91756666D01*
X144011666Y-91756666D01*
X144245000Y-91056666D02*
X144711666Y-91056666D01*
X144411666Y-91756666D01*
X141071666Y-91123333D02*
X141105000Y-91090000D01*
X141171666Y-91056666D01*
X141338333Y-91056666D01*
X141405000Y-91090000D01*
X141438333Y-91123333D01*
X141471666Y-91190000D01*
X141471666Y-91256666D01*
X141438333Y-91356666D01*
X141038333Y-91756666D01*
X141471666Y-91756666D01*
X142071666Y-91056666D02*
X141938333Y-91056666D01*
X141871666Y-91090000D01*
X141838333Y-91123333D01*
X141771666Y-91223333D01*
X141738333Y-91356666D01*
X141738333Y-91623333D01*
X141771666Y-91690000D01*
X141805000Y-91723333D01*
X141871666Y-91756666D01*
X142005000Y-91756666D01*
X142071666Y-91723333D01*
X142105000Y-91690000D01*
X142138333Y-91623333D01*
X142138333Y-91456666D01*
X142105000Y-91390000D01*
X142071666Y-91356666D01*
X142005000Y-91323333D01*
X141871666Y-91323333D01*
X141805000Y-91356666D01*
X141771666Y-91390000D01*
X141738333Y-91456666D01*
X138531666Y-91123333D02*
X138565000Y-91090000D01*
X138631666Y-91056666D01*
X138798333Y-91056666D01*
X138865000Y-91090000D01*
X138898333Y-91123333D01*
X138931666Y-91190000D01*
X138931666Y-91256666D01*
X138898333Y-91356666D01*
X138498333Y-91756666D01*
X138931666Y-91756666D01*
X139565000Y-91056666D02*
X139231666Y-91056666D01*
X139198333Y-91390000D01*
X139231666Y-91356666D01*
X139298333Y-91323333D01*
X139465000Y-91323333D01*
X139531666Y-91356666D01*
X139565000Y-91390000D01*
X139598333Y-91456666D01*
X139598333Y-91623333D01*
X139565000Y-91690000D01*
X139531666Y-91723333D01*
X139465000Y-91756666D01*
X139298333Y-91756666D01*
X139231666Y-91723333D01*
X139198333Y-91690000D01*
X135958333Y-91056666D02*
X136391666Y-91056666D01*
X136158333Y-91323333D01*
X136258333Y-91323333D01*
X136325000Y-91356666D01*
X136358333Y-91390000D01*
X136391666Y-91456666D01*
X136391666Y-91623333D01*
X136358333Y-91690000D01*
X136325000Y-91723333D01*
X136258333Y-91756666D01*
X136058333Y-91756666D01*
X135991666Y-91723333D01*
X135958333Y-91690000D01*
X136625000Y-91056666D02*
X137058333Y-91056666D01*
X136825000Y-91323333D01*
X136925000Y-91323333D01*
X136991666Y-91356666D01*
X137025000Y-91390000D01*
X137058333Y-91456666D01*
X137058333Y-91623333D01*
X137025000Y-91690000D01*
X136991666Y-91723333D01*
X136925000Y-91756666D01*
X136725000Y-91756666D01*
X136658333Y-91723333D01*
X136625000Y-91690000D01*
X133418333Y-91056666D02*
X133851666Y-91056666D01*
X133618333Y-91323333D01*
X133718333Y-91323333D01*
X133785000Y-91356666D01*
X133818333Y-91390000D01*
X133851666Y-91456666D01*
X133851666Y-91623333D01*
X133818333Y-91690000D01*
X133785000Y-91723333D01*
X133718333Y-91756666D01*
X133518333Y-91756666D01*
X133451666Y-91723333D01*
X133418333Y-91690000D01*
X134118333Y-91123333D02*
X134151666Y-91090000D01*
X134218333Y-91056666D01*
X134385000Y-91056666D01*
X134451666Y-91090000D01*
X134485000Y-91123333D01*
X134518333Y-91190000D01*
X134518333Y-91256666D01*
X134485000Y-91356666D01*
X134085000Y-91756666D01*
X134518333Y-91756666D01*
X130878333Y-91056666D02*
X131311666Y-91056666D01*
X131078333Y-91323333D01*
X131178333Y-91323333D01*
X131245000Y-91356666D01*
X131278333Y-91390000D01*
X131311666Y-91456666D01*
X131311666Y-91623333D01*
X131278333Y-91690000D01*
X131245000Y-91723333D01*
X131178333Y-91756666D01*
X130978333Y-91756666D01*
X130911666Y-91723333D01*
X130878333Y-91690000D01*
X131945000Y-91056666D02*
X131611666Y-91056666D01*
X131578333Y-91390000D01*
X131611666Y-91356666D01*
X131678333Y-91323333D01*
X131845000Y-91323333D01*
X131911666Y-91356666D01*
X131945000Y-91390000D01*
X131978333Y-91456666D01*
X131978333Y-91623333D01*
X131945000Y-91690000D01*
X131911666Y-91723333D01*
X131845000Y-91756666D01*
X131678333Y-91756666D01*
X131611666Y-91723333D01*
X131578333Y-91690000D01*
X128338333Y-91056666D02*
X128771666Y-91056666D01*
X128538333Y-91323333D01*
X128638333Y-91323333D01*
X128705000Y-91356666D01*
X128738333Y-91390000D01*
X128771666Y-91456666D01*
X128771666Y-91623333D01*
X128738333Y-91690000D01*
X128705000Y-91723333D01*
X128638333Y-91756666D01*
X128438333Y-91756666D01*
X128371666Y-91723333D01*
X128338333Y-91690000D01*
X129371666Y-91290000D02*
X129371666Y-91756666D01*
X129205000Y-91023333D02*
X129038333Y-91523333D01*
X129471666Y-91523333D01*
X125798333Y-91056666D02*
X126231666Y-91056666D01*
X125998333Y-91323333D01*
X126098333Y-91323333D01*
X126165000Y-91356666D01*
X126198333Y-91390000D01*
X126231666Y-91456666D01*
X126231666Y-91623333D01*
X126198333Y-91690000D01*
X126165000Y-91723333D01*
X126098333Y-91756666D01*
X125898333Y-91756666D01*
X125831666Y-91723333D01*
X125798333Y-91690000D01*
X126565000Y-91756666D02*
X126698333Y-91756666D01*
X126765000Y-91723333D01*
X126798333Y-91690000D01*
X126865000Y-91590000D01*
X126898333Y-91456666D01*
X126898333Y-91190000D01*
X126865000Y-91123333D01*
X126831666Y-91090000D01*
X126765000Y-91056666D01*
X126631666Y-91056666D01*
X126565000Y-91090000D01*
X126531666Y-91123333D01*
X126498333Y-91190000D01*
X126498333Y-91356666D01*
X126531666Y-91423333D01*
X126565000Y-91456666D01*
X126631666Y-91490000D01*
X126765000Y-91490000D01*
X126831666Y-91456666D01*
X126865000Y-91423333D01*
X126898333Y-91356666D01*
X123258333Y-91056666D02*
X123691666Y-91056666D01*
X123458333Y-91323333D01*
X123558333Y-91323333D01*
X123625000Y-91356666D01*
X123658333Y-91390000D01*
X123691666Y-91456666D01*
X123691666Y-91623333D01*
X123658333Y-91690000D01*
X123625000Y-91723333D01*
X123558333Y-91756666D01*
X123358333Y-91756666D01*
X123291666Y-91723333D01*
X123258333Y-91690000D01*
X124291666Y-91056666D02*
X124158333Y-91056666D01*
X124091666Y-91090000D01*
X124058333Y-91123333D01*
X123991666Y-91223333D01*
X123958333Y-91356666D01*
X123958333Y-91623333D01*
X123991666Y-91690000D01*
X124025000Y-91723333D01*
X124091666Y-91756666D01*
X124225000Y-91756666D01*
X124291666Y-91723333D01*
X124325000Y-91690000D01*
X124358333Y-91623333D01*
X124358333Y-91456666D01*
X124325000Y-91390000D01*
X124291666Y-91356666D01*
X124225000Y-91323333D01*
X124091666Y-91323333D01*
X124025000Y-91356666D01*
X123991666Y-91390000D01*
X123958333Y-91456666D01*
X120901666Y-91756666D02*
X120668333Y-91423333D01*
X120501666Y-91756666D02*
X120501666Y-91056666D01*
X120768333Y-91056666D01*
X120835000Y-91090000D01*
X120868333Y-91123333D01*
X120901666Y-91190000D01*
X120901666Y-91290000D01*
X120868333Y-91356666D01*
X120835000Y-91390000D01*
X120768333Y-91423333D01*
X120501666Y-91423333D01*
X121168333Y-91723333D02*
X121268333Y-91756666D01*
X121435000Y-91756666D01*
X121501666Y-91723333D01*
X121535000Y-91690000D01*
X121568333Y-91623333D01*
X121568333Y-91556666D01*
X121535000Y-91490000D01*
X121501666Y-91456666D01*
X121435000Y-91423333D01*
X121301666Y-91390000D01*
X121235000Y-91356666D01*
X121201666Y-91323333D01*
X121168333Y-91256666D01*
X121168333Y-91190000D01*
X121201666Y-91123333D01*
X121235000Y-91090000D01*
X121301666Y-91056666D01*
X121468333Y-91056666D01*
X121568333Y-91090000D01*
X121768333Y-91056666D02*
X122168333Y-91056666D01*
X121968333Y-91756666D02*
X121968333Y-91056666D01*
D12*
X120095000Y-89765000D02*
X120095000Y-90145000D01*
X113675000Y-89765000D02*
X120095000Y-89765000D01*
X113675000Y-71525000D02*
X120095000Y-71525000D01*
X113675000Y-89765000D02*
X113675000Y-71525000D01*
X139420000Y-71525000D02*
X139420000Y-72525000D01*
X138640000Y-71525000D02*
X139420000Y-71525000D01*
X139420000Y-89765000D02*
X139420000Y-88765000D01*
X138640000Y-89765000D02*
X139420000Y-89765000D01*
X165845000Y-73981000D02*
X165495000Y-73981000D01*
X165495000Y-73981000D02*
X165495000Y-76581000D01*
X168165000Y-73981000D02*
X168505000Y-73981000D01*
X168505000Y-73981000D02*
X168505000Y-79071000D01*
X168506736Y-78680917D02*
G75*
G03X168505000Y-74481000I-101736J2099917D01*
G01*
X168506736Y-86808917D02*
G75*
G03X168505000Y-82609000I-101736J2099917D01*
G01*
X168505000Y-82109000D02*
X168505000Y-87199000D01*
X168165000Y-82109000D02*
X168505000Y-82109000D01*
X165495000Y-82109000D02*
X165495000Y-84709000D01*
X165845000Y-82109000D02*
X165495000Y-82109000D01*
X169670000Y-72573000D02*
X168210000Y-72573000D01*
X169670000Y-69413000D02*
X167510000Y-69413000D01*
X169670000Y-69413000D02*
X169670000Y-70343000D01*
X169670000Y-72573000D02*
X169670000Y-71643000D01*
X147910000Y-81850000D02*
X147910000Y-81050000D01*
X147910000Y-81050000D02*
X151810000Y-81050000D01*
X147910000Y-84050000D02*
X151810000Y-84050000D01*
X169670000Y-91877000D02*
X168210000Y-91877000D01*
X169670000Y-88717000D02*
X167510000Y-88717000D01*
X169670000Y-88717000D02*
X169670000Y-89647000D01*
X169670000Y-91877000D02*
X169670000Y-90947000D01*
X186951252Y-76760000D02*
X186428748Y-76760000D01*
X186951252Y-78180000D02*
X186428748Y-78180000D01*
X186951252Y-79935000D02*
X186428748Y-79935000D01*
X186951252Y-81355000D02*
X186428748Y-81355000D01*
X169670000Y-68890000D02*
X168210000Y-68890000D01*
X169670000Y-65730000D02*
X167510000Y-65730000D01*
X169670000Y-65730000D02*
X169670000Y-66660000D01*
X169670000Y-68890000D02*
X169670000Y-67960000D01*
X176980000Y-69215462D02*
G75*
G03X171430000Y-67670170I-2990000J462D01*
G01*
X176980000Y-69214538D02*
G75*
G02X171430000Y-70759830I-2990000J-462D01*
G01*
X176490000Y-69215000D02*
G75*
G03X176490000Y-69215000I-2500000J0D01*
G01*
X171430000Y-67670000D02*
X171430000Y-70760000D01*
X173989538Y-79825000D02*
G75*
G03X175534830Y-74275000I462J2990000D01*
G01*
X173990462Y-79825000D02*
G75*
G02X172445170Y-74275000I-462J2990000D01*
G01*
X176490000Y-76835000D02*
G75*
G03X176490000Y-76835000I-2500000J0D01*
G01*
X175535000Y-74275000D02*
X172445000Y-74275000D01*
X184600000Y-69215462D02*
G75*
G03X179050000Y-67670170I-2990000J462D01*
G01*
X184600000Y-69214538D02*
G75*
G02X179050000Y-70759830I-2990000J-462D01*
G01*
X184110000Y-69215000D02*
G75*
G03X184110000Y-69215000I-2500000J0D01*
G01*
X179050000Y-67670000D02*
X179050000Y-70760000D01*
X181609538Y-79825000D02*
G75*
G03X183154830Y-74275000I462J2990000D01*
G01*
X181610462Y-79825000D02*
G75*
G02X180065170Y-74275000I-462J2990000D01*
G01*
X184110000Y-76835000D02*
G75*
G03X184110000Y-76835000I-2500000J0D01*
G01*
X183155000Y-74275000D02*
X180065000Y-74275000D01*
X147025000Y-79640000D02*
X147025000Y-77190000D01*
X143805000Y-77840000D02*
X143805000Y-79640000D01*
X141945000Y-72440000D02*
X141945000Y-72340000D01*
X146345000Y-70840000D02*
X141945000Y-70840000D01*
X141945000Y-73940000D02*
X146345000Y-73940000D01*
X146345000Y-72440000D02*
X146345000Y-72340000D01*
X146345000Y-88850000D02*
X146345000Y-88950000D01*
X141945000Y-90450000D02*
X146345000Y-90450000D01*
X146345000Y-87350000D02*
X141945000Y-87350000D01*
X141945000Y-88850000D02*
X141945000Y-88950000D01*
X150121252Y-88825000D02*
X149598748Y-88825000D01*
X150121252Y-90245000D02*
X149598748Y-90245000D01*
X145153748Y-83641000D02*
X145676252Y-83641000D01*
X145153748Y-82221000D02*
X145676252Y-82221000D01*
X145153748Y-86181000D02*
X145676252Y-86181000D01*
X145153748Y-84761000D02*
X145676252Y-84761000D01*
X186951252Y-83110000D02*
X186428748Y-83110000D01*
X186951252Y-84530000D02*
X186428748Y-84530000D01*
X186951252Y-86285000D02*
X186428748Y-86285000D01*
X186951252Y-87705000D02*
X186428748Y-87705000D01*
X169670000Y-95560000D02*
X168210000Y-95560000D01*
X169670000Y-92400000D02*
X167510000Y-92400000D01*
X169670000Y-92400000D02*
X169670000Y-93330000D01*
X169670000Y-95560000D02*
X169670000Y-94630000D01*
X119955000Y-69275000D02*
X119955000Y-67945000D01*
X121285000Y-69275000D02*
X119955000Y-69275000D01*
X122555000Y-69275000D02*
X122555000Y-66615000D01*
X122555000Y-66615000D02*
X158175000Y-66615000D01*
X122555000Y-69275000D02*
X158175000Y-69275000D01*
X158175000Y-69275000D02*
X158175000Y-66615000D01*
X119955000Y-94675000D02*
X119955000Y-93345000D01*
X121285000Y-94675000D02*
X119955000Y-94675000D01*
X122555000Y-94675000D02*
X122555000Y-92015000D01*
X122555000Y-92015000D02*
X158175000Y-92015000D01*
X122555000Y-94675000D02*
X158175000Y-94675000D01*
X158175000Y-94675000D02*
X158175000Y-92015000D01*
X155635000Y-88325000D02*
X154305000Y-88325000D01*
X155635000Y-86995000D02*
X155635000Y-88325000D01*
X155635000Y-85725000D02*
X152975000Y-85725000D01*
X152975000Y-85725000D02*
X152975000Y-72965000D01*
X155635000Y-85725000D02*
X155635000Y-72965000D01*
X155635000Y-72965000D02*
X152975000Y-72965000D01*
X197545000Y-86420000D02*
X196215000Y-86420000D01*
X197545000Y-85090000D02*
X197545000Y-86420000D01*
X194945000Y-86420000D02*
X192345000Y-86420000D01*
X194945000Y-83820000D02*
X194945000Y-86420000D01*
X197545000Y-83820000D02*
X194945000Y-83820000D01*
X192345000Y-86420000D02*
X192345000Y-76140000D01*
X197545000Y-83820000D02*
X197545000Y-76140000D01*
X197545000Y-76140000D02*
X192345000Y-76140000D01*
X193140500Y-93140000D02*
X193590500Y-93140000D01*
X193140500Y-93140000D02*
X193140500Y-92690000D01*
X193690500Y-87540000D02*
X193690500Y-87990000D01*
X195540500Y-87540000D02*
X193690500Y-87540000D01*
X198090500Y-95340000D02*
X197840500Y-95340000D01*
X198090500Y-87540000D02*
X197840500Y-87540000D01*
X195540500Y-95340000D02*
X193690500Y-95340000D01*
X193690500Y-95340000D02*
X193690500Y-94890000D01*
X186425000Y-75720000D02*
X186425000Y-73120000D01*
X201125000Y-75720000D02*
X186425000Y-75720000D01*
X186425000Y-66520000D02*
X188325000Y-66520000D01*
X186425000Y-69220000D02*
X186425000Y-66520000D01*
X201125000Y-66520000D02*
X201125000Y-75720000D01*
X192325000Y-66520000D02*
X201125000Y-66520000D01*
X187275000Y-75920000D02*
X186225000Y-75920000D01*
X186225000Y-74870000D02*
X186225000Y-75920000D01*
X191500000Y-81620000D02*
X191500000Y-85470000D01*
X189500000Y-81620000D02*
X189500000Y-85470000D01*
X191500000Y-81620000D02*
X189500000Y-81620000D01*
X189500000Y-80940000D02*
X189500000Y-77090000D01*
X191500000Y-80940000D02*
X191500000Y-77090000D01*
X189500000Y-80940000D02*
X191500000Y-80940000D01*
X147660000Y-73930000D02*
X151510000Y-73930000D01*
X147660000Y-75930000D02*
X151510000Y-75930000D01*
X147660000Y-73930000D02*
X147660000Y-75930000D01*
X173989538Y-87445000D02*
G75*
G03X175534830Y-81895000I462J2990000D01*
G01*
X173990462Y-87445000D02*
G75*
G02X172445170Y-81895000I-462J2990000D01*
G01*
X176490000Y-84455000D02*
G75*
G03X176490000Y-84455000I-2500000J0D01*
G01*
X175535000Y-81895000D02*
X172445000Y-81895000D01*
X176980000Y-92075462D02*
G75*
G03X171430000Y-90530170I-2990000J462D01*
G01*
X176980000Y-92074538D02*
G75*
G02X171430000Y-93619830I-2990000J-462D01*
G01*
X176490000Y-92075000D02*
G75*
G03X176490000Y-92075000I-2500000J0D01*
G01*
X171430000Y-90530000D02*
X171430000Y-93620000D01*
X181609538Y-87445000D02*
G75*
G03X183154830Y-81895000I462J2990000D01*
G01*
X181610462Y-87445000D02*
G75*
G02X180065170Y-81895000I-462J2990000D01*
G01*
X184110000Y-84455000D02*
G75*
G03X184110000Y-84455000I-2500000J0D01*
G01*
X183155000Y-81895000D02*
X180065000Y-81895000D01*
X184600000Y-92075462D02*
G75*
G03X179050000Y-90530170I-2990000J462D01*
G01*
X184600000Y-92074538D02*
G75*
G02X179050000Y-93619830I-2990000J-462D01*
G01*
X184110000Y-92075000D02*
G75*
G03X184110000Y-92075000I-2500000J0D01*
G01*
X179050000Y-90530000D02*
X179050000Y-93620000D01*
X164091252Y-71045000D02*
X163568748Y-71045000D01*
X164091252Y-72465000D02*
X163568748Y-72465000D01*
X150121252Y-78030000D02*
X149598748Y-78030000D01*
X150121252Y-79450000D02*
X149598748Y-79450000D01*
X142950000Y-78478748D02*
X142950000Y-79001252D01*
X141530000Y-78478748D02*
X141530000Y-79001252D01*
X145153748Y-76275000D02*
X145676252Y-76275000D01*
X145153748Y-74855000D02*
X145676252Y-74855000D01*
X149598748Y-87070000D02*
X150121252Y-87070000D01*
X149598748Y-85650000D02*
X150121252Y-85650000D01*
X140422380Y-76326904D02*
X141231904Y-76326904D01*
X141327142Y-76279285D01*
X141374761Y-76231666D01*
X141422380Y-76136428D01*
X141422380Y-75945952D01*
X141374761Y-75850714D01*
X141327142Y-75803095D01*
X141231904Y-75755476D01*
X140422380Y-75755476D01*
X140422380Y-75374523D02*
X140422380Y-74755476D01*
X140803333Y-75088809D01*
X140803333Y-74945952D01*
X140850952Y-74850714D01*
X140898571Y-74803095D01*
X140993809Y-74755476D01*
X141231904Y-74755476D01*
X141327142Y-74803095D01*
X141374761Y-74850714D01*
X141422380Y-74945952D01*
X141422380Y-75231666D01*
X141374761Y-75326904D01*
X141327142Y-75374523D01*
X164057380Y-77382904D02*
X164866904Y-77382904D01*
X164962142Y-77335285D01*
X165009761Y-77287666D01*
X165057380Y-77192428D01*
X165057380Y-77001952D01*
X165009761Y-76906714D01*
X164962142Y-76859095D01*
X164866904Y-76811476D01*
X164057380Y-76811476D01*
X164152619Y-76382904D02*
X164105000Y-76335285D01*
X164057380Y-76240047D01*
X164057380Y-76001952D01*
X164105000Y-75906714D01*
X164152619Y-75859095D01*
X164247857Y-75811476D01*
X164343095Y-75811476D01*
X164485952Y-75859095D01*
X165057380Y-76430523D01*
X165057380Y-75811476D01*
X164057380Y-85510904D02*
X164866904Y-85510904D01*
X164962142Y-85463285D01*
X165009761Y-85415666D01*
X165057380Y-85320428D01*
X165057380Y-85129952D01*
X165009761Y-85034714D01*
X164962142Y-84987095D01*
X164866904Y-84939476D01*
X164057380Y-84939476D01*
X165057380Y-83939476D02*
X165057380Y-84510904D01*
X165057380Y-84225190D02*
X164057380Y-84225190D01*
X164200238Y-84320428D01*
X164295476Y-84415666D01*
X164343095Y-84510904D01*
X166917619Y-71088238D02*
X166870000Y-71183476D01*
X166774761Y-71278714D01*
X166631904Y-71421571D01*
X166584285Y-71516809D01*
X166584285Y-71612047D01*
X166822380Y-71564428D02*
X166774761Y-71659666D01*
X166679523Y-71754904D01*
X166489047Y-71802523D01*
X166155714Y-71802523D01*
X165965238Y-71754904D01*
X165870000Y-71659666D01*
X165822380Y-71564428D01*
X165822380Y-71373952D01*
X165870000Y-71278714D01*
X165965238Y-71183476D01*
X166155714Y-71135857D01*
X166489047Y-71135857D01*
X166679523Y-71183476D01*
X166774761Y-71278714D01*
X166822380Y-71373952D01*
X166822380Y-71564428D01*
X165822380Y-70802523D02*
X165822380Y-70183476D01*
X166203333Y-70516809D01*
X166203333Y-70373952D01*
X166250952Y-70278714D01*
X166298571Y-70231095D01*
X166393809Y-70183476D01*
X166631904Y-70183476D01*
X166727142Y-70231095D01*
X166774761Y-70278714D01*
X166822380Y-70373952D01*
X166822380Y-70659666D01*
X166774761Y-70754904D01*
X166727142Y-70802523D01*
X148645714Y-80843380D02*
X148645714Y-79843380D01*
X148883809Y-79843380D01*
X149026666Y-79891000D01*
X149121904Y-79986238D01*
X149169523Y-80081476D01*
X149217142Y-80271952D01*
X149217142Y-80414809D01*
X149169523Y-80605285D01*
X149121904Y-80700523D01*
X149026666Y-80795761D01*
X148883809Y-80843380D01*
X148645714Y-80843380D01*
X150169523Y-80843380D02*
X149598095Y-80843380D01*
X149883809Y-80843380D02*
X149883809Y-79843380D01*
X149788571Y-79986238D01*
X149693333Y-80081476D01*
X149598095Y-80129095D01*
X151121904Y-80843380D02*
X150550476Y-80843380D01*
X150836190Y-80843380D02*
X150836190Y-79843380D01*
X150740952Y-79986238D01*
X150645714Y-80081476D01*
X150550476Y-80129095D01*
X166917619Y-90392238D02*
X166870000Y-90487476D01*
X166774761Y-90582714D01*
X166631904Y-90725571D01*
X166584285Y-90820809D01*
X166584285Y-90916047D01*
X166822380Y-90868428D02*
X166774761Y-90963666D01*
X166679523Y-91058904D01*
X166489047Y-91106523D01*
X166155714Y-91106523D01*
X165965238Y-91058904D01*
X165870000Y-90963666D01*
X165822380Y-90868428D01*
X165822380Y-90677952D01*
X165870000Y-90582714D01*
X165965238Y-90487476D01*
X166155714Y-90439857D01*
X166489047Y-90439857D01*
X166679523Y-90487476D01*
X166774761Y-90582714D01*
X166822380Y-90677952D01*
X166822380Y-90868428D01*
X165917619Y-90058904D02*
X165870000Y-90011285D01*
X165822380Y-89916047D01*
X165822380Y-89677952D01*
X165870000Y-89582714D01*
X165917619Y-89535095D01*
X166012857Y-89487476D01*
X166108095Y-89487476D01*
X166250952Y-89535095D01*
X166822380Y-90106523D01*
X166822380Y-89487476D01*
X186523333Y-79572380D02*
X186190000Y-79096190D01*
X185951904Y-79572380D02*
X185951904Y-78572380D01*
X186332857Y-78572380D01*
X186428095Y-78620000D01*
X186475714Y-78667619D01*
X186523333Y-78762857D01*
X186523333Y-78905714D01*
X186475714Y-79000952D01*
X186428095Y-79048571D01*
X186332857Y-79096190D01*
X185951904Y-79096190D01*
X187380476Y-78905714D02*
X187380476Y-79572380D01*
X187142380Y-78524761D02*
X186904285Y-79239047D01*
X187523333Y-79239047D01*
X186523333Y-82747380D02*
X186190000Y-82271190D01*
X185951904Y-82747380D02*
X185951904Y-81747380D01*
X186332857Y-81747380D01*
X186428095Y-81795000D01*
X186475714Y-81842619D01*
X186523333Y-81937857D01*
X186523333Y-82080714D01*
X186475714Y-82175952D01*
X186428095Y-82223571D01*
X186332857Y-82271190D01*
X185951904Y-82271190D01*
X186856666Y-81747380D02*
X187475714Y-81747380D01*
X187142380Y-82128333D01*
X187285238Y-82128333D01*
X187380476Y-82175952D01*
X187428095Y-82223571D01*
X187475714Y-82318809D01*
X187475714Y-82556904D01*
X187428095Y-82652142D01*
X187380476Y-82699761D01*
X187285238Y-82747380D01*
X186999523Y-82747380D01*
X186904285Y-82699761D01*
X186856666Y-82652142D01*
X166917619Y-67405238D02*
X166870000Y-67500476D01*
X166774761Y-67595714D01*
X166631904Y-67738571D01*
X166584285Y-67833809D01*
X166584285Y-67929047D01*
X166822380Y-67881428D02*
X166774761Y-67976666D01*
X166679523Y-68071904D01*
X166489047Y-68119523D01*
X166155714Y-68119523D01*
X165965238Y-68071904D01*
X165870000Y-67976666D01*
X165822380Y-67881428D01*
X165822380Y-67690952D01*
X165870000Y-67595714D01*
X165965238Y-67500476D01*
X166155714Y-67452857D01*
X166489047Y-67452857D01*
X166679523Y-67500476D01*
X166774761Y-67595714D01*
X166822380Y-67690952D01*
X166822380Y-67881428D01*
X166155714Y-66595714D02*
X166822380Y-66595714D01*
X165774761Y-66833809D02*
X166489047Y-67071904D01*
X166489047Y-66452857D01*
X173251904Y-73477380D02*
X173251904Y-72477380D01*
X173490000Y-72477380D01*
X173632857Y-72525000D01*
X173728095Y-72620238D01*
X173775714Y-72715476D01*
X173823333Y-72905952D01*
X173823333Y-73048809D01*
X173775714Y-73239285D01*
X173728095Y-73334523D01*
X173632857Y-73429761D01*
X173490000Y-73477380D01*
X173251904Y-73477380D01*
X174394761Y-72905952D02*
X174299523Y-72858333D01*
X174251904Y-72810714D01*
X174204285Y-72715476D01*
X174204285Y-72667857D01*
X174251904Y-72572619D01*
X174299523Y-72525000D01*
X174394761Y-72477380D01*
X174585238Y-72477380D01*
X174680476Y-72525000D01*
X174728095Y-72572619D01*
X174775714Y-72667857D01*
X174775714Y-72715476D01*
X174728095Y-72810714D01*
X174680476Y-72858333D01*
X174585238Y-72905952D01*
X174394761Y-72905952D01*
X174299523Y-72953571D01*
X174251904Y-73001190D01*
X174204285Y-73096428D01*
X174204285Y-73286904D01*
X174251904Y-73382142D01*
X174299523Y-73429761D01*
X174394761Y-73477380D01*
X174585238Y-73477380D01*
X174680476Y-73429761D01*
X174728095Y-73382142D01*
X174775714Y-73286904D01*
X174775714Y-73096428D01*
X174728095Y-73001190D01*
X174680476Y-72953571D01*
X174585238Y-72905952D01*
X173251904Y-81097380D02*
X173251904Y-80097380D01*
X173490000Y-80097380D01*
X173632857Y-80145000D01*
X173728095Y-80240238D01*
X173775714Y-80335476D01*
X173823333Y-80525952D01*
X173823333Y-80668809D01*
X173775714Y-80859285D01*
X173728095Y-80954523D01*
X173632857Y-81049761D01*
X173490000Y-81097380D01*
X173251904Y-81097380D01*
X174156666Y-80097380D02*
X174823333Y-80097380D01*
X174394761Y-81097380D01*
X180871904Y-73477380D02*
X180871904Y-72477380D01*
X181110000Y-72477380D01*
X181252857Y-72525000D01*
X181348095Y-72620238D01*
X181395714Y-72715476D01*
X181443333Y-72905952D01*
X181443333Y-73048809D01*
X181395714Y-73239285D01*
X181348095Y-73334523D01*
X181252857Y-73429761D01*
X181110000Y-73477380D01*
X180871904Y-73477380D01*
X182300476Y-72810714D02*
X182300476Y-73477380D01*
X182062380Y-72429761D02*
X181824285Y-73144047D01*
X182443333Y-73144047D01*
X180871904Y-81097380D02*
X180871904Y-80097380D01*
X181110000Y-80097380D01*
X181252857Y-80145000D01*
X181348095Y-80240238D01*
X181395714Y-80335476D01*
X181443333Y-80525952D01*
X181443333Y-80668809D01*
X181395714Y-80859285D01*
X181348095Y-80954523D01*
X181252857Y-81049761D01*
X181110000Y-81097380D01*
X180871904Y-81097380D01*
X181776666Y-80097380D02*
X182395714Y-80097380D01*
X182062380Y-80478333D01*
X182205238Y-80478333D01*
X182300476Y-80525952D01*
X182348095Y-80573571D01*
X182395714Y-80668809D01*
X182395714Y-80906904D01*
X182348095Y-81002142D01*
X182300476Y-81049761D01*
X182205238Y-81097380D01*
X181919523Y-81097380D01*
X181824285Y-81049761D01*
X181776666Y-81002142D01*
X144653095Y-80732380D02*
X144653095Y-81541904D01*
X144700714Y-81637142D01*
X144748333Y-81684761D01*
X144843571Y-81732380D01*
X145034047Y-81732380D01*
X145129285Y-81684761D01*
X145176904Y-81637142D01*
X145224523Y-81541904D01*
X145224523Y-80732380D01*
X146129285Y-81065714D02*
X146129285Y-81732380D01*
X145891190Y-80684761D02*
X145653095Y-81399047D01*
X146272142Y-81399047D01*
X147851761Y-73723333D02*
X147899380Y-73580476D01*
X147899380Y-73342380D01*
X147851761Y-73247142D01*
X147804142Y-73199523D01*
X147708904Y-73151904D01*
X147613666Y-73151904D01*
X147518428Y-73199523D01*
X147470809Y-73247142D01*
X147423190Y-73342380D01*
X147375571Y-73532857D01*
X147327952Y-73628095D01*
X147280333Y-73675714D01*
X147185095Y-73723333D01*
X147089857Y-73723333D01*
X146994619Y-73675714D01*
X146947000Y-73628095D01*
X146899380Y-73532857D01*
X146899380Y-73294761D01*
X146947000Y-73151904D01*
X146899380Y-72818571D02*
X147899380Y-72580476D01*
X147185095Y-72390000D01*
X147899380Y-72199523D01*
X146899380Y-71961428D01*
X146994619Y-71628095D02*
X146947000Y-71580476D01*
X146899380Y-71485238D01*
X146899380Y-71247142D01*
X146947000Y-71151904D01*
X146994619Y-71104285D01*
X147089857Y-71056666D01*
X147185095Y-71056666D01*
X147327952Y-71104285D01*
X147899380Y-71675714D01*
X147899380Y-71056666D01*
X147851761Y-90233333D02*
X147899380Y-90090476D01*
X147899380Y-89852380D01*
X147851761Y-89757142D01*
X147804142Y-89709523D01*
X147708904Y-89661904D01*
X147613666Y-89661904D01*
X147518428Y-89709523D01*
X147470809Y-89757142D01*
X147423190Y-89852380D01*
X147375571Y-90042857D01*
X147327952Y-90138095D01*
X147280333Y-90185714D01*
X147185095Y-90233333D01*
X147089857Y-90233333D01*
X146994619Y-90185714D01*
X146947000Y-90138095D01*
X146899380Y-90042857D01*
X146899380Y-89804761D01*
X146947000Y-89661904D01*
X146899380Y-89328571D02*
X147899380Y-89090476D01*
X147185095Y-88900000D01*
X147899380Y-88709523D01*
X146899380Y-88471428D01*
X147899380Y-87566666D02*
X147899380Y-88138095D01*
X147899380Y-87852380D02*
X146899380Y-87852380D01*
X147042238Y-87947619D01*
X147137476Y-88042857D01*
X147185095Y-88138095D01*
X149693333Y-88590380D02*
X149360000Y-88114190D01*
X149121904Y-88590380D02*
X149121904Y-87590380D01*
X149502857Y-87590380D01*
X149598095Y-87638000D01*
X149645714Y-87685619D01*
X149693333Y-87780857D01*
X149693333Y-87923714D01*
X149645714Y-88018952D01*
X149598095Y-88066571D01*
X149502857Y-88114190D01*
X149121904Y-88114190D01*
X150026666Y-87590380D02*
X150693333Y-87590380D01*
X150264761Y-88590380D01*
X142454333Y-83383380D02*
X142121000Y-82907190D01*
X141882904Y-83383380D02*
X141882904Y-82383380D01*
X142263857Y-82383380D01*
X142359095Y-82431000D01*
X142406714Y-82478619D01*
X142454333Y-82573857D01*
X142454333Y-82716714D01*
X142406714Y-82811952D01*
X142359095Y-82859571D01*
X142263857Y-82907190D01*
X141882904Y-82907190D01*
X143311476Y-82383380D02*
X143121000Y-82383380D01*
X143025761Y-82431000D01*
X142978142Y-82478619D01*
X142882904Y-82621476D01*
X142835285Y-82811952D01*
X142835285Y-83192904D01*
X142882904Y-83288142D01*
X142930523Y-83335761D01*
X143025761Y-83383380D01*
X143216238Y-83383380D01*
X143311476Y-83335761D01*
X143359095Y-83288142D01*
X143406714Y-83192904D01*
X143406714Y-82954809D01*
X143359095Y-82859571D01*
X143311476Y-82811952D01*
X143216238Y-82764333D01*
X143025761Y-82764333D01*
X142930523Y-82811952D01*
X142882904Y-82859571D01*
X142835285Y-82954809D01*
X142454333Y-85923380D02*
X142121000Y-85447190D01*
X141882904Y-85923380D02*
X141882904Y-84923380D01*
X142263857Y-84923380D01*
X142359095Y-84971000D01*
X142406714Y-85018619D01*
X142454333Y-85113857D01*
X142454333Y-85256714D01*
X142406714Y-85351952D01*
X142359095Y-85399571D01*
X142263857Y-85447190D01*
X141882904Y-85447190D01*
X143359095Y-84923380D02*
X142882904Y-84923380D01*
X142835285Y-85399571D01*
X142882904Y-85351952D01*
X142978142Y-85304333D01*
X143216238Y-85304333D01*
X143311476Y-85351952D01*
X143359095Y-85399571D01*
X143406714Y-85494809D01*
X143406714Y-85732904D01*
X143359095Y-85828142D01*
X143311476Y-85875761D01*
X143216238Y-85923380D01*
X142978142Y-85923380D01*
X142882904Y-85875761D01*
X142835285Y-85828142D01*
X186523333Y-85922380D02*
X186190000Y-85446190D01*
X185951904Y-85922380D02*
X185951904Y-84922380D01*
X186332857Y-84922380D01*
X186428095Y-84970000D01*
X186475714Y-85017619D01*
X186523333Y-85112857D01*
X186523333Y-85255714D01*
X186475714Y-85350952D01*
X186428095Y-85398571D01*
X186332857Y-85446190D01*
X185951904Y-85446190D01*
X186904285Y-85017619D02*
X186951904Y-84970000D01*
X187047142Y-84922380D01*
X187285238Y-84922380D01*
X187380476Y-84970000D01*
X187428095Y-85017619D01*
X187475714Y-85112857D01*
X187475714Y-85208095D01*
X187428095Y-85350952D01*
X186856666Y-85922380D01*
X187475714Y-85922380D01*
X186523333Y-89097380D02*
X186190000Y-88621190D01*
X185951904Y-89097380D02*
X185951904Y-88097380D01*
X186332857Y-88097380D01*
X186428095Y-88145000D01*
X186475714Y-88192619D01*
X186523333Y-88287857D01*
X186523333Y-88430714D01*
X186475714Y-88525952D01*
X186428095Y-88573571D01*
X186332857Y-88621190D01*
X185951904Y-88621190D01*
X187475714Y-89097380D02*
X186904285Y-89097380D01*
X187190000Y-89097380D02*
X187190000Y-88097380D01*
X187094761Y-88240238D01*
X186999523Y-88335476D01*
X186904285Y-88383095D01*
X166917619Y-94075238D02*
X166870000Y-94170476D01*
X166774761Y-94265714D01*
X166631904Y-94408571D01*
X166584285Y-94503809D01*
X166584285Y-94599047D01*
X166822380Y-94551428D02*
X166774761Y-94646666D01*
X166679523Y-94741904D01*
X166489047Y-94789523D01*
X166155714Y-94789523D01*
X165965238Y-94741904D01*
X165870000Y-94646666D01*
X165822380Y-94551428D01*
X165822380Y-94360952D01*
X165870000Y-94265714D01*
X165965238Y-94170476D01*
X166155714Y-94122857D01*
X166489047Y-94122857D01*
X166679523Y-94170476D01*
X166774761Y-94265714D01*
X166822380Y-94360952D01*
X166822380Y-94551428D01*
X166822380Y-93170476D02*
X166822380Y-93741904D01*
X166822380Y-93456190D02*
X165822380Y-93456190D01*
X165965238Y-93551428D01*
X166060476Y-93646666D01*
X166108095Y-93741904D01*
X158202380Y-70183333D02*
X158916666Y-70183333D01*
X159059523Y-70230952D01*
X159154761Y-70326190D01*
X159202380Y-70469047D01*
X159202380Y-70564285D01*
X158535714Y-69278571D02*
X159202380Y-69278571D01*
X158154761Y-69516666D02*
X158869047Y-69754761D01*
X158869047Y-69135714D01*
X158202380Y-91773333D02*
X158916666Y-91773333D01*
X159059523Y-91820952D01*
X159154761Y-91916190D01*
X159202380Y-92059047D01*
X159202380Y-92154285D01*
X158202380Y-91392380D02*
X158202380Y-90773333D01*
X158583333Y-91106666D01*
X158583333Y-90963809D01*
X158630952Y-90868571D01*
X158678571Y-90820952D01*
X158773809Y-90773333D01*
X159011904Y-90773333D01*
X159107142Y-90820952D01*
X159154761Y-90868571D01*
X159202380Y-90963809D01*
X159202380Y-91249523D01*
X159154761Y-91344761D01*
X159107142Y-91392380D01*
X153971666Y-88777380D02*
X153971666Y-89491666D01*
X153924047Y-89634523D01*
X153828809Y-89729761D01*
X153685952Y-89777380D01*
X153590714Y-89777380D01*
X154400238Y-88872619D02*
X154447857Y-88825000D01*
X154543095Y-88777380D01*
X154781190Y-88777380D01*
X154876428Y-88825000D01*
X154924047Y-88872619D01*
X154971666Y-88967857D01*
X154971666Y-89063095D01*
X154924047Y-89205952D01*
X154352619Y-89777380D01*
X154971666Y-89777380D01*
X192071666Y-86872380D02*
X192071666Y-87586666D01*
X192024047Y-87729523D01*
X191928809Y-87824761D01*
X191785952Y-87872380D01*
X191690714Y-87872380D01*
X193071666Y-87872380D02*
X192500238Y-87872380D01*
X192785952Y-87872380D02*
X192785952Y-86872380D01*
X192690714Y-87015238D01*
X192595476Y-87110476D01*
X192500238Y-87158095D01*
X191792880Y-91773333D02*
X192507166Y-91773333D01*
X192650023Y-91820952D01*
X192745261Y-91916190D01*
X192792880Y-92059047D01*
X192792880Y-92154285D01*
X191792880Y-90868571D02*
X191792880Y-91059047D01*
X191840500Y-91154285D01*
X191888119Y-91201904D01*
X192030976Y-91297142D01*
X192221452Y-91344761D01*
X192602404Y-91344761D01*
X192697642Y-91297142D01*
X192745261Y-91249523D01*
X192792880Y-91154285D01*
X192792880Y-90963809D01*
X192745261Y-90868571D01*
X192697642Y-90820952D01*
X192602404Y-90773333D01*
X192364309Y-90773333D01*
X192269071Y-90820952D01*
X192221452Y-90868571D01*
X192173833Y-90963809D01*
X192173833Y-91154285D01*
X192221452Y-91249523D01*
X192269071Y-91297142D01*
X192364309Y-91344761D01*
X193341666Y-64857380D02*
X193341666Y-65571666D01*
X193294047Y-65714523D01*
X193198809Y-65809761D01*
X193055952Y-65857380D01*
X192960714Y-65857380D01*
X194294047Y-64857380D02*
X193817857Y-64857380D01*
X193770238Y-65333571D01*
X193817857Y-65285952D01*
X193913095Y-65238333D01*
X194151190Y-65238333D01*
X194246428Y-65285952D01*
X194294047Y-65333571D01*
X194341666Y-65428809D01*
X194341666Y-65666904D01*
X194294047Y-65762142D01*
X194246428Y-65809761D01*
X194151190Y-65857380D01*
X193913095Y-65857380D01*
X193817857Y-65809761D01*
X193770238Y-65762142D01*
X190952380Y-88844285D02*
X189952380Y-88844285D01*
X189952380Y-88606190D01*
X190000000Y-88463333D01*
X190095238Y-88368095D01*
X190190476Y-88320476D01*
X190380952Y-88272857D01*
X190523809Y-88272857D01*
X190714285Y-88320476D01*
X190809523Y-88368095D01*
X190904761Y-88463333D01*
X190952380Y-88606190D01*
X190952380Y-88844285D01*
X190952380Y-87320476D02*
X190952380Y-87891904D01*
X190952380Y-87606190D02*
X189952380Y-87606190D01*
X190095238Y-87701428D01*
X190190476Y-87796666D01*
X190238095Y-87891904D01*
X190047619Y-86939523D02*
X190000000Y-86891904D01*
X189952380Y-86796666D01*
X189952380Y-86558571D01*
X190000000Y-86463333D01*
X190047619Y-86415714D01*
X190142857Y-86368095D01*
X190238095Y-86368095D01*
X190380952Y-86415714D01*
X190952380Y-86987142D01*
X190952380Y-86368095D01*
X190952380Y-76144285D02*
X189952380Y-76144285D01*
X189952380Y-75906190D01*
X190000000Y-75763333D01*
X190095238Y-75668095D01*
X190190476Y-75620476D01*
X190380952Y-75572857D01*
X190523809Y-75572857D01*
X190714285Y-75620476D01*
X190809523Y-75668095D01*
X190904761Y-75763333D01*
X190952380Y-75906190D01*
X190952380Y-76144285D01*
X190952380Y-74620476D02*
X190952380Y-75191904D01*
X190952380Y-74906190D02*
X189952380Y-74906190D01*
X190095238Y-75001428D01*
X190190476Y-75096666D01*
X190238095Y-75191904D01*
X189952380Y-74001428D02*
X189952380Y-73906190D01*
X190000000Y-73810952D01*
X190047619Y-73763333D01*
X190142857Y-73715714D01*
X190333333Y-73668095D01*
X190571428Y-73668095D01*
X190761904Y-73715714D01*
X190857142Y-73763333D01*
X190904761Y-73810952D01*
X190952380Y-73906190D01*
X190952380Y-74001428D01*
X190904761Y-74096666D01*
X190857142Y-74144285D01*
X190761904Y-74191904D01*
X190571428Y-74239523D01*
X190333333Y-74239523D01*
X190142857Y-74191904D01*
X190047619Y-74144285D01*
X190000000Y-74096666D01*
X189952380Y-74001428D01*
X148994904Y-73477380D02*
X148994904Y-72477380D01*
X149233000Y-72477380D01*
X149375857Y-72525000D01*
X149471095Y-72620238D01*
X149518714Y-72715476D01*
X149566333Y-72905952D01*
X149566333Y-73048809D01*
X149518714Y-73239285D01*
X149471095Y-73334523D01*
X149375857Y-73429761D01*
X149233000Y-73477380D01*
X148994904Y-73477380D01*
X150042523Y-73477380D02*
X150233000Y-73477380D01*
X150328238Y-73429761D01*
X150375857Y-73382142D01*
X150471095Y-73239285D01*
X150518714Y-73048809D01*
X150518714Y-72667857D01*
X150471095Y-72572619D01*
X150423476Y-72525000D01*
X150328238Y-72477380D01*
X150137761Y-72477380D01*
X150042523Y-72525000D01*
X149994904Y-72572619D01*
X149947285Y-72667857D01*
X149947285Y-72905952D01*
X149994904Y-73001190D01*
X150042523Y-73048809D01*
X150137761Y-73096428D01*
X150328238Y-73096428D01*
X150423476Y-73048809D01*
X150471095Y-73001190D01*
X150518714Y-72905952D01*
X173251904Y-88717380D02*
X173251904Y-87717380D01*
X173490000Y-87717380D01*
X173632857Y-87765000D01*
X173728095Y-87860238D01*
X173775714Y-87955476D01*
X173823333Y-88145952D01*
X173823333Y-88288809D01*
X173775714Y-88479285D01*
X173728095Y-88574523D01*
X173632857Y-88669761D01*
X173490000Y-88717380D01*
X173251904Y-88717380D01*
X174680476Y-87717380D02*
X174490000Y-87717380D01*
X174394761Y-87765000D01*
X174347142Y-87812619D01*
X174251904Y-87955476D01*
X174204285Y-88145952D01*
X174204285Y-88526904D01*
X174251904Y-88622142D01*
X174299523Y-88669761D01*
X174394761Y-88717380D01*
X174585238Y-88717380D01*
X174680476Y-88669761D01*
X174728095Y-88622142D01*
X174775714Y-88526904D01*
X174775714Y-88288809D01*
X174728095Y-88193571D01*
X174680476Y-88145952D01*
X174585238Y-88098333D01*
X174394761Y-88098333D01*
X174299523Y-88145952D01*
X174251904Y-88193571D01*
X174204285Y-88288809D01*
X173251904Y-96337380D02*
X173251904Y-95337380D01*
X173490000Y-95337380D01*
X173632857Y-95385000D01*
X173728095Y-95480238D01*
X173775714Y-95575476D01*
X173823333Y-95765952D01*
X173823333Y-95908809D01*
X173775714Y-96099285D01*
X173728095Y-96194523D01*
X173632857Y-96289761D01*
X173490000Y-96337380D01*
X173251904Y-96337380D01*
X174728095Y-95337380D02*
X174251904Y-95337380D01*
X174204285Y-95813571D01*
X174251904Y-95765952D01*
X174347142Y-95718333D01*
X174585238Y-95718333D01*
X174680476Y-95765952D01*
X174728095Y-95813571D01*
X174775714Y-95908809D01*
X174775714Y-96146904D01*
X174728095Y-96242142D01*
X174680476Y-96289761D01*
X174585238Y-96337380D01*
X174347142Y-96337380D01*
X174251904Y-96289761D01*
X174204285Y-96242142D01*
X180871904Y-88717380D02*
X180871904Y-87717380D01*
X181110000Y-87717380D01*
X181252857Y-87765000D01*
X181348095Y-87860238D01*
X181395714Y-87955476D01*
X181443333Y-88145952D01*
X181443333Y-88288809D01*
X181395714Y-88479285D01*
X181348095Y-88574523D01*
X181252857Y-88669761D01*
X181110000Y-88717380D01*
X180871904Y-88717380D01*
X181824285Y-87812619D02*
X181871904Y-87765000D01*
X181967142Y-87717380D01*
X182205238Y-87717380D01*
X182300476Y-87765000D01*
X182348095Y-87812619D01*
X182395714Y-87907857D01*
X182395714Y-88003095D01*
X182348095Y-88145952D01*
X181776666Y-88717380D01*
X182395714Y-88717380D01*
X180871904Y-96337380D02*
X180871904Y-95337380D01*
X181110000Y-95337380D01*
X181252857Y-95385000D01*
X181348095Y-95480238D01*
X181395714Y-95575476D01*
X181443333Y-95765952D01*
X181443333Y-95908809D01*
X181395714Y-96099285D01*
X181348095Y-96194523D01*
X181252857Y-96289761D01*
X181110000Y-96337380D01*
X180871904Y-96337380D01*
X182395714Y-96337380D02*
X181824285Y-96337380D01*
X182110000Y-96337380D02*
X182110000Y-95337380D01*
X182014761Y-95480238D01*
X181919523Y-95575476D01*
X181824285Y-95623095D01*
X163663333Y-70715142D02*
X163615714Y-70762761D01*
X163472857Y-70810380D01*
X163377619Y-70810380D01*
X163234761Y-70762761D01*
X163139523Y-70667523D01*
X163091904Y-70572285D01*
X163044285Y-70381809D01*
X163044285Y-70238952D01*
X163091904Y-70048476D01*
X163139523Y-69953238D01*
X163234761Y-69858000D01*
X163377619Y-69810380D01*
X163472857Y-69810380D01*
X163615714Y-69858000D01*
X163663333Y-69905619D01*
X164568095Y-69810380D02*
X164091904Y-69810380D01*
X164044285Y-70286571D01*
X164091904Y-70238952D01*
X164187142Y-70191333D01*
X164425238Y-70191333D01*
X164520476Y-70238952D01*
X164568095Y-70286571D01*
X164615714Y-70381809D01*
X164615714Y-70619904D01*
X164568095Y-70715142D01*
X164520476Y-70762761D01*
X164425238Y-70810380D01*
X164187142Y-70810380D01*
X164091904Y-70762761D01*
X164044285Y-70715142D01*
X149693333Y-77573142D02*
X149645714Y-77620761D01*
X149502857Y-77668380D01*
X149407619Y-77668380D01*
X149264761Y-77620761D01*
X149169523Y-77525523D01*
X149121904Y-77430285D01*
X149074285Y-77239809D01*
X149074285Y-77096952D01*
X149121904Y-76906476D01*
X149169523Y-76811238D01*
X149264761Y-76716000D01*
X149407619Y-76668380D01*
X149502857Y-76668380D01*
X149645714Y-76716000D01*
X149693333Y-76763619D01*
X150550476Y-77001714D02*
X150550476Y-77668380D01*
X150312380Y-76620761D02*
X150074285Y-77335047D01*
X150693333Y-77335047D01*
X141073142Y-78906666D02*
X141120761Y-78954285D01*
X141168380Y-79097142D01*
X141168380Y-79192380D01*
X141120761Y-79335238D01*
X141025523Y-79430476D01*
X140930285Y-79478095D01*
X140739809Y-79525714D01*
X140596952Y-79525714D01*
X140406476Y-79478095D01*
X140311238Y-79430476D01*
X140216000Y-79335238D01*
X140168380Y-79192380D01*
X140168380Y-79097142D01*
X140216000Y-78954285D01*
X140263619Y-78906666D01*
X140168380Y-78573333D02*
X140168380Y-77954285D01*
X140549333Y-78287619D01*
X140549333Y-78144761D01*
X140596952Y-78049523D01*
X140644571Y-78001904D01*
X140739809Y-77954285D01*
X140977904Y-77954285D01*
X141073142Y-78001904D01*
X141120761Y-78049523D01*
X141168380Y-78144761D01*
X141168380Y-78430476D01*
X141120761Y-78525714D01*
X141073142Y-78573333D01*
X142454333Y-75922142D02*
X142406714Y-75969761D01*
X142263857Y-76017380D01*
X142168619Y-76017380D01*
X142025761Y-75969761D01*
X141930523Y-75874523D01*
X141882904Y-75779285D01*
X141835285Y-75588809D01*
X141835285Y-75445952D01*
X141882904Y-75255476D01*
X141930523Y-75160238D01*
X142025761Y-75065000D01*
X142168619Y-75017380D01*
X142263857Y-75017380D01*
X142406714Y-75065000D01*
X142454333Y-75112619D01*
X142835285Y-75112619D02*
X142882904Y-75065000D01*
X142978142Y-75017380D01*
X143216238Y-75017380D01*
X143311476Y-75065000D01*
X143359095Y-75112619D01*
X143406714Y-75207857D01*
X143406714Y-75303095D01*
X143359095Y-75445952D01*
X142787666Y-76017380D01*
X143406714Y-76017380D01*
X149693333Y-85320142D02*
X149645714Y-85367761D01*
X149502857Y-85415380D01*
X149407619Y-85415380D01*
X149264761Y-85367761D01*
X149169523Y-85272523D01*
X149121904Y-85177285D01*
X149074285Y-84986809D01*
X149074285Y-84843952D01*
X149121904Y-84653476D01*
X149169523Y-84558238D01*
X149264761Y-84463000D01*
X149407619Y-84415380D01*
X149502857Y-84415380D01*
X149645714Y-84463000D01*
X149693333Y-84510619D01*
X150645714Y-85415380D02*
X150074285Y-85415380D01*
X150360000Y-85415380D02*
X150360000Y-84415380D01*
X150264761Y-84558238D01*
X150169523Y-84653476D01*
X150074285Y-84701095D01*
M02*
