G04 #@! TF.GenerationSoftware,KiCad,Pcbnew,(5.1.5-0-10_14)*
G04 #@! TF.CreationDate,2020-04-08T23:37:10-05:00*
G04 #@! TF.ProjectId,kbxIrBlaster,6b627849-7242-46c6-9173-7465722e6b69,rev?*
G04 #@! TF.SameCoordinates,Original*
G04 #@! TF.FileFunction,Soldermask,Bot*
G04 #@! TF.FilePolarity,Negative*
%FSLAX46Y46*%
G04 Gerber Fmt 4.6, Leading zero omitted, Abs format (unit mm)*
G04 Created by KiCad (PCBNEW (5.1.5-0-10_14)) date 2020-04-08 23:37:10*
%MOMM*%
%LPD*%
G04 APERTURE LIST*
%ADD10C,0.100000*%
G04 APERTURE END LIST*
D10*
G36*
X189339098Y-91527033D02*
G01*
X189803350Y-91719332D01*
X189803352Y-91719333D01*
X190221168Y-91998509D01*
X190576491Y-92353832D01*
X190806854Y-92698595D01*
X190855668Y-92771650D01*
X191047967Y-93235902D01*
X191146000Y-93728747D01*
X191146000Y-94231253D01*
X191047967Y-94724098D01*
X190895496Y-95092196D01*
X190855667Y-95188352D01*
X190576491Y-95606168D01*
X190221168Y-95961491D01*
X189803352Y-96240667D01*
X189803351Y-96240668D01*
X189803350Y-96240668D01*
X189339098Y-96432967D01*
X188846253Y-96531000D01*
X188343747Y-96531000D01*
X187850902Y-96432967D01*
X187386650Y-96240668D01*
X187386649Y-96240668D01*
X187386648Y-96240667D01*
X186968832Y-95961491D01*
X186613509Y-95606168D01*
X186334333Y-95188352D01*
X186294504Y-95092196D01*
X186142033Y-94724098D01*
X186044000Y-94231253D01*
X186044000Y-93728747D01*
X186142033Y-93235902D01*
X186334332Y-92771650D01*
X186383146Y-92698595D01*
X186613509Y-92353832D01*
X186968832Y-91998509D01*
X187386648Y-91719333D01*
X187386650Y-91719332D01*
X187850902Y-91527033D01*
X188343747Y-91429000D01*
X188846253Y-91429000D01*
X189339098Y-91527033D01*
G37*
G36*
X162669098Y-91527033D02*
G01*
X163133350Y-91719332D01*
X163133352Y-91719333D01*
X163551168Y-91998509D01*
X163906491Y-92353832D01*
X164136854Y-92698595D01*
X164185668Y-92771650D01*
X164377967Y-93235902D01*
X164476000Y-93728747D01*
X164476000Y-94231253D01*
X164377967Y-94724098D01*
X164225496Y-95092196D01*
X164185667Y-95188352D01*
X163906491Y-95606168D01*
X163551168Y-95961491D01*
X163133352Y-96240667D01*
X163133351Y-96240668D01*
X163133350Y-96240668D01*
X162669098Y-96432967D01*
X162176253Y-96531000D01*
X161673747Y-96531000D01*
X161180902Y-96432967D01*
X160716650Y-96240668D01*
X160716649Y-96240668D01*
X160716648Y-96240667D01*
X160298832Y-95961491D01*
X159943509Y-95606168D01*
X159664333Y-95188352D01*
X159624504Y-95092196D01*
X159472033Y-94724098D01*
X159374000Y-94231253D01*
X159374000Y-93728747D01*
X159472033Y-93235902D01*
X159664332Y-92771650D01*
X159713146Y-92698595D01*
X159943509Y-92353832D01*
X160298832Y-91998509D01*
X160716648Y-91719333D01*
X160716650Y-91719332D01*
X161180902Y-91527033D01*
X161673747Y-91429000D01*
X162176253Y-91429000D01*
X162669098Y-91527033D01*
G37*
G36*
X197104355Y-94292140D02*
G01*
X197168118Y-94298420D01*
X197258904Y-94325960D01*
X197290836Y-94335646D01*
X197403925Y-94396094D01*
X197503054Y-94477446D01*
X197584406Y-94576575D01*
X197644854Y-94689664D01*
X197644855Y-94689668D01*
X197682080Y-94812382D01*
X197694649Y-94940000D01*
X197682080Y-95067618D01*
X197674624Y-95092196D01*
X197644854Y-95190336D01*
X197584406Y-95303425D01*
X197503054Y-95402554D01*
X197403925Y-95483906D01*
X197290836Y-95544354D01*
X197258904Y-95554040D01*
X197168118Y-95581580D01*
X197104355Y-95587860D01*
X197072474Y-95591000D01*
X196308526Y-95591000D01*
X196276645Y-95587860D01*
X196212882Y-95581580D01*
X196122096Y-95554040D01*
X196090164Y-95544354D01*
X195977075Y-95483906D01*
X195877946Y-95402554D01*
X195796594Y-95303425D01*
X195736146Y-95190336D01*
X195706376Y-95092196D01*
X195698920Y-95067618D01*
X195686351Y-94940000D01*
X195698920Y-94812382D01*
X195736145Y-94689668D01*
X195736146Y-94689664D01*
X195796594Y-94576575D01*
X195877946Y-94477446D01*
X195977075Y-94396094D01*
X196090164Y-94335646D01*
X196122096Y-94325960D01*
X196212882Y-94298420D01*
X196276645Y-94292140D01*
X196308526Y-94289000D01*
X197072474Y-94289000D01*
X197104355Y-94292140D01*
G37*
G36*
X194216848Y-93193820D02*
G01*
X194216850Y-93193821D01*
X194216851Y-93193821D01*
X194358074Y-93252317D01*
X194358077Y-93252319D01*
X194485169Y-93337239D01*
X194593261Y-93445331D01*
X194678181Y-93572423D01*
X194678183Y-93572426D01*
X194736679Y-93713649D01*
X194736680Y-93713652D01*
X194766500Y-93863569D01*
X194766500Y-94016431D01*
X194760847Y-94044853D01*
X194736679Y-94166351D01*
X194678183Y-94307574D01*
X194678181Y-94307577D01*
X194593261Y-94434669D01*
X194485169Y-94542761D01*
X194358077Y-94627681D01*
X194358074Y-94627683D01*
X194216851Y-94686179D01*
X194216850Y-94686179D01*
X194216848Y-94686180D01*
X194066931Y-94716000D01*
X193914069Y-94716000D01*
X193764152Y-94686180D01*
X193764150Y-94686179D01*
X193764149Y-94686179D01*
X193622926Y-94627683D01*
X193622923Y-94627681D01*
X193495831Y-94542761D01*
X193387739Y-94434669D01*
X193302819Y-94307577D01*
X193302817Y-94307574D01*
X193244321Y-94166351D01*
X193220154Y-94044853D01*
X193214500Y-94016431D01*
X193214500Y-93863569D01*
X193244320Y-93713652D01*
X193244321Y-93713649D01*
X193302817Y-93572426D01*
X193302819Y-93572423D01*
X193387739Y-93445331D01*
X193495831Y-93337239D01*
X193622923Y-93252319D01*
X193622926Y-93252317D01*
X193764149Y-93193821D01*
X193764150Y-93193821D01*
X193764152Y-93193820D01*
X193914069Y-93164000D01*
X194066931Y-93164000D01*
X194216848Y-93193820D01*
G37*
G36*
X122186000Y-94246000D02*
G01*
X120384000Y-94246000D01*
X120384000Y-92444000D01*
X122186000Y-92444000D01*
X122186000Y-94246000D01*
G37*
G36*
X123938512Y-92448927D02*
G01*
X124087812Y-92478624D01*
X124251784Y-92546544D01*
X124399354Y-92645147D01*
X124524853Y-92770646D01*
X124623456Y-92918216D01*
X124691376Y-93082188D01*
X124726000Y-93256259D01*
X124726000Y-93433741D01*
X124691376Y-93607812D01*
X124623456Y-93771784D01*
X124524853Y-93919354D01*
X124399354Y-94044853D01*
X124251784Y-94143456D01*
X124087812Y-94211376D01*
X123938512Y-94241073D01*
X123913742Y-94246000D01*
X123736258Y-94246000D01*
X123711488Y-94241073D01*
X123562188Y-94211376D01*
X123398216Y-94143456D01*
X123250646Y-94044853D01*
X123125147Y-93919354D01*
X123026544Y-93771784D01*
X122958624Y-93607812D01*
X122924000Y-93433741D01*
X122924000Y-93256259D01*
X122958624Y-93082188D01*
X123026544Y-92918216D01*
X123125147Y-92770646D01*
X123250646Y-92645147D01*
X123398216Y-92546544D01*
X123562188Y-92478624D01*
X123711488Y-92448927D01*
X123736258Y-92444000D01*
X123913742Y-92444000D01*
X123938512Y-92448927D01*
G37*
G36*
X126478512Y-92448927D02*
G01*
X126627812Y-92478624D01*
X126791784Y-92546544D01*
X126939354Y-92645147D01*
X127064853Y-92770646D01*
X127163456Y-92918216D01*
X127231376Y-93082188D01*
X127266000Y-93256259D01*
X127266000Y-93433741D01*
X127231376Y-93607812D01*
X127163456Y-93771784D01*
X127064853Y-93919354D01*
X126939354Y-94044853D01*
X126791784Y-94143456D01*
X126627812Y-94211376D01*
X126478512Y-94241073D01*
X126453742Y-94246000D01*
X126276258Y-94246000D01*
X126251488Y-94241073D01*
X126102188Y-94211376D01*
X125938216Y-94143456D01*
X125790646Y-94044853D01*
X125665147Y-93919354D01*
X125566544Y-93771784D01*
X125498624Y-93607812D01*
X125464000Y-93433741D01*
X125464000Y-93256259D01*
X125498624Y-93082188D01*
X125566544Y-92918216D01*
X125665147Y-92770646D01*
X125790646Y-92645147D01*
X125938216Y-92546544D01*
X126102188Y-92478624D01*
X126251488Y-92448927D01*
X126276258Y-92444000D01*
X126453742Y-92444000D01*
X126478512Y-92448927D01*
G37*
G36*
X129018512Y-92448927D02*
G01*
X129167812Y-92478624D01*
X129331784Y-92546544D01*
X129479354Y-92645147D01*
X129604853Y-92770646D01*
X129703456Y-92918216D01*
X129771376Y-93082188D01*
X129806000Y-93256259D01*
X129806000Y-93433741D01*
X129771376Y-93607812D01*
X129703456Y-93771784D01*
X129604853Y-93919354D01*
X129479354Y-94044853D01*
X129331784Y-94143456D01*
X129167812Y-94211376D01*
X129018512Y-94241073D01*
X128993742Y-94246000D01*
X128816258Y-94246000D01*
X128791488Y-94241073D01*
X128642188Y-94211376D01*
X128478216Y-94143456D01*
X128330646Y-94044853D01*
X128205147Y-93919354D01*
X128106544Y-93771784D01*
X128038624Y-93607812D01*
X128004000Y-93433741D01*
X128004000Y-93256259D01*
X128038624Y-93082188D01*
X128106544Y-92918216D01*
X128205147Y-92770646D01*
X128330646Y-92645147D01*
X128478216Y-92546544D01*
X128642188Y-92478624D01*
X128791488Y-92448927D01*
X128816258Y-92444000D01*
X128993742Y-92444000D01*
X129018512Y-92448927D01*
G37*
G36*
X131558512Y-92448927D02*
G01*
X131707812Y-92478624D01*
X131871784Y-92546544D01*
X132019354Y-92645147D01*
X132144853Y-92770646D01*
X132243456Y-92918216D01*
X132311376Y-93082188D01*
X132346000Y-93256259D01*
X132346000Y-93433741D01*
X132311376Y-93607812D01*
X132243456Y-93771784D01*
X132144853Y-93919354D01*
X132019354Y-94044853D01*
X131871784Y-94143456D01*
X131707812Y-94211376D01*
X131558512Y-94241073D01*
X131533742Y-94246000D01*
X131356258Y-94246000D01*
X131331488Y-94241073D01*
X131182188Y-94211376D01*
X131018216Y-94143456D01*
X130870646Y-94044853D01*
X130745147Y-93919354D01*
X130646544Y-93771784D01*
X130578624Y-93607812D01*
X130544000Y-93433741D01*
X130544000Y-93256259D01*
X130578624Y-93082188D01*
X130646544Y-92918216D01*
X130745147Y-92770646D01*
X130870646Y-92645147D01*
X131018216Y-92546544D01*
X131182188Y-92478624D01*
X131331488Y-92448927D01*
X131356258Y-92444000D01*
X131533742Y-92444000D01*
X131558512Y-92448927D01*
G37*
G36*
X134098512Y-92448927D02*
G01*
X134247812Y-92478624D01*
X134411784Y-92546544D01*
X134559354Y-92645147D01*
X134684853Y-92770646D01*
X134783456Y-92918216D01*
X134851376Y-93082188D01*
X134886000Y-93256259D01*
X134886000Y-93433741D01*
X134851376Y-93607812D01*
X134783456Y-93771784D01*
X134684853Y-93919354D01*
X134559354Y-94044853D01*
X134411784Y-94143456D01*
X134247812Y-94211376D01*
X134098512Y-94241073D01*
X134073742Y-94246000D01*
X133896258Y-94246000D01*
X133871488Y-94241073D01*
X133722188Y-94211376D01*
X133558216Y-94143456D01*
X133410646Y-94044853D01*
X133285147Y-93919354D01*
X133186544Y-93771784D01*
X133118624Y-93607812D01*
X133084000Y-93433741D01*
X133084000Y-93256259D01*
X133118624Y-93082188D01*
X133186544Y-92918216D01*
X133285147Y-92770646D01*
X133410646Y-92645147D01*
X133558216Y-92546544D01*
X133722188Y-92478624D01*
X133871488Y-92448927D01*
X133896258Y-92444000D01*
X134073742Y-92444000D01*
X134098512Y-92448927D01*
G37*
G36*
X136638512Y-92448927D02*
G01*
X136787812Y-92478624D01*
X136951784Y-92546544D01*
X137099354Y-92645147D01*
X137224853Y-92770646D01*
X137323456Y-92918216D01*
X137391376Y-93082188D01*
X137426000Y-93256259D01*
X137426000Y-93433741D01*
X137391376Y-93607812D01*
X137323456Y-93771784D01*
X137224853Y-93919354D01*
X137099354Y-94044853D01*
X136951784Y-94143456D01*
X136787812Y-94211376D01*
X136638512Y-94241073D01*
X136613742Y-94246000D01*
X136436258Y-94246000D01*
X136411488Y-94241073D01*
X136262188Y-94211376D01*
X136098216Y-94143456D01*
X135950646Y-94044853D01*
X135825147Y-93919354D01*
X135726544Y-93771784D01*
X135658624Y-93607812D01*
X135624000Y-93433741D01*
X135624000Y-93256259D01*
X135658624Y-93082188D01*
X135726544Y-92918216D01*
X135825147Y-92770646D01*
X135950646Y-92645147D01*
X136098216Y-92546544D01*
X136262188Y-92478624D01*
X136411488Y-92448927D01*
X136436258Y-92444000D01*
X136613742Y-92444000D01*
X136638512Y-92448927D01*
G37*
G36*
X154418512Y-92448927D02*
G01*
X154567812Y-92478624D01*
X154731784Y-92546544D01*
X154879354Y-92645147D01*
X155004853Y-92770646D01*
X155103456Y-92918216D01*
X155171376Y-93082188D01*
X155206000Y-93256259D01*
X155206000Y-93433741D01*
X155171376Y-93607812D01*
X155103456Y-93771784D01*
X155004853Y-93919354D01*
X154879354Y-94044853D01*
X154731784Y-94143456D01*
X154567812Y-94211376D01*
X154418512Y-94241073D01*
X154393742Y-94246000D01*
X154216258Y-94246000D01*
X154191488Y-94241073D01*
X154042188Y-94211376D01*
X153878216Y-94143456D01*
X153730646Y-94044853D01*
X153605147Y-93919354D01*
X153506544Y-93771784D01*
X153438624Y-93607812D01*
X153404000Y-93433741D01*
X153404000Y-93256259D01*
X153438624Y-93082188D01*
X153506544Y-92918216D01*
X153605147Y-92770646D01*
X153730646Y-92645147D01*
X153878216Y-92546544D01*
X154042188Y-92478624D01*
X154191488Y-92448927D01*
X154216258Y-92444000D01*
X154393742Y-92444000D01*
X154418512Y-92448927D01*
G37*
G36*
X156958512Y-92448927D02*
G01*
X157107812Y-92478624D01*
X157271784Y-92546544D01*
X157419354Y-92645147D01*
X157544853Y-92770646D01*
X157643456Y-92918216D01*
X157711376Y-93082188D01*
X157746000Y-93256259D01*
X157746000Y-93433741D01*
X157711376Y-93607812D01*
X157643456Y-93771784D01*
X157544853Y-93919354D01*
X157419354Y-94044853D01*
X157271784Y-94143456D01*
X157107812Y-94211376D01*
X156958512Y-94241073D01*
X156933742Y-94246000D01*
X156756258Y-94246000D01*
X156731488Y-94241073D01*
X156582188Y-94211376D01*
X156418216Y-94143456D01*
X156270646Y-94044853D01*
X156145147Y-93919354D01*
X156046544Y-93771784D01*
X155978624Y-93607812D01*
X155944000Y-93433741D01*
X155944000Y-93256259D01*
X155978624Y-93082188D01*
X156046544Y-92918216D01*
X156145147Y-92770646D01*
X156270646Y-92645147D01*
X156418216Y-92546544D01*
X156582188Y-92478624D01*
X156731488Y-92448927D01*
X156756258Y-92444000D01*
X156933742Y-92444000D01*
X156958512Y-92448927D01*
G37*
G36*
X139178512Y-92448927D02*
G01*
X139327812Y-92478624D01*
X139491784Y-92546544D01*
X139639354Y-92645147D01*
X139764853Y-92770646D01*
X139863456Y-92918216D01*
X139931376Y-93082188D01*
X139966000Y-93256259D01*
X139966000Y-93433741D01*
X139931376Y-93607812D01*
X139863456Y-93771784D01*
X139764853Y-93919354D01*
X139639354Y-94044853D01*
X139491784Y-94143456D01*
X139327812Y-94211376D01*
X139178512Y-94241073D01*
X139153742Y-94246000D01*
X138976258Y-94246000D01*
X138951488Y-94241073D01*
X138802188Y-94211376D01*
X138638216Y-94143456D01*
X138490646Y-94044853D01*
X138365147Y-93919354D01*
X138266544Y-93771784D01*
X138198624Y-93607812D01*
X138164000Y-93433741D01*
X138164000Y-93256259D01*
X138198624Y-93082188D01*
X138266544Y-92918216D01*
X138365147Y-92770646D01*
X138490646Y-92645147D01*
X138638216Y-92546544D01*
X138802188Y-92478624D01*
X138951488Y-92448927D01*
X138976258Y-92444000D01*
X139153742Y-92444000D01*
X139178512Y-92448927D01*
G37*
G36*
X141718512Y-92448927D02*
G01*
X141867812Y-92478624D01*
X142031784Y-92546544D01*
X142179354Y-92645147D01*
X142304853Y-92770646D01*
X142403456Y-92918216D01*
X142471376Y-93082188D01*
X142506000Y-93256259D01*
X142506000Y-93433741D01*
X142471376Y-93607812D01*
X142403456Y-93771784D01*
X142304853Y-93919354D01*
X142179354Y-94044853D01*
X142031784Y-94143456D01*
X141867812Y-94211376D01*
X141718512Y-94241073D01*
X141693742Y-94246000D01*
X141516258Y-94246000D01*
X141491488Y-94241073D01*
X141342188Y-94211376D01*
X141178216Y-94143456D01*
X141030646Y-94044853D01*
X140905147Y-93919354D01*
X140806544Y-93771784D01*
X140738624Y-93607812D01*
X140704000Y-93433741D01*
X140704000Y-93256259D01*
X140738624Y-93082188D01*
X140806544Y-92918216D01*
X140905147Y-92770646D01*
X141030646Y-92645147D01*
X141178216Y-92546544D01*
X141342188Y-92478624D01*
X141491488Y-92448927D01*
X141516258Y-92444000D01*
X141693742Y-92444000D01*
X141718512Y-92448927D01*
G37*
G36*
X144258512Y-92448927D02*
G01*
X144407812Y-92478624D01*
X144571784Y-92546544D01*
X144719354Y-92645147D01*
X144844853Y-92770646D01*
X144943456Y-92918216D01*
X145011376Y-93082188D01*
X145046000Y-93256259D01*
X145046000Y-93433741D01*
X145011376Y-93607812D01*
X144943456Y-93771784D01*
X144844853Y-93919354D01*
X144719354Y-94044853D01*
X144571784Y-94143456D01*
X144407812Y-94211376D01*
X144258512Y-94241073D01*
X144233742Y-94246000D01*
X144056258Y-94246000D01*
X144031488Y-94241073D01*
X143882188Y-94211376D01*
X143718216Y-94143456D01*
X143570646Y-94044853D01*
X143445147Y-93919354D01*
X143346544Y-93771784D01*
X143278624Y-93607812D01*
X143244000Y-93433741D01*
X143244000Y-93256259D01*
X143278624Y-93082188D01*
X143346544Y-92918216D01*
X143445147Y-92770646D01*
X143570646Y-92645147D01*
X143718216Y-92546544D01*
X143882188Y-92478624D01*
X144031488Y-92448927D01*
X144056258Y-92444000D01*
X144233742Y-92444000D01*
X144258512Y-92448927D01*
G37*
G36*
X146798512Y-92448927D02*
G01*
X146947812Y-92478624D01*
X147111784Y-92546544D01*
X147259354Y-92645147D01*
X147384853Y-92770646D01*
X147483456Y-92918216D01*
X147551376Y-93082188D01*
X147586000Y-93256259D01*
X147586000Y-93433741D01*
X147551376Y-93607812D01*
X147483456Y-93771784D01*
X147384853Y-93919354D01*
X147259354Y-94044853D01*
X147111784Y-94143456D01*
X146947812Y-94211376D01*
X146798512Y-94241073D01*
X146773742Y-94246000D01*
X146596258Y-94246000D01*
X146571488Y-94241073D01*
X146422188Y-94211376D01*
X146258216Y-94143456D01*
X146110646Y-94044853D01*
X145985147Y-93919354D01*
X145886544Y-93771784D01*
X145818624Y-93607812D01*
X145784000Y-93433741D01*
X145784000Y-93256259D01*
X145818624Y-93082188D01*
X145886544Y-92918216D01*
X145985147Y-92770646D01*
X146110646Y-92645147D01*
X146258216Y-92546544D01*
X146422188Y-92478624D01*
X146571488Y-92448927D01*
X146596258Y-92444000D01*
X146773742Y-92444000D01*
X146798512Y-92448927D01*
G37*
G36*
X149338512Y-92448927D02*
G01*
X149487812Y-92478624D01*
X149651784Y-92546544D01*
X149799354Y-92645147D01*
X149924853Y-92770646D01*
X150023456Y-92918216D01*
X150091376Y-93082188D01*
X150126000Y-93256259D01*
X150126000Y-93433741D01*
X150091376Y-93607812D01*
X150023456Y-93771784D01*
X149924853Y-93919354D01*
X149799354Y-94044853D01*
X149651784Y-94143456D01*
X149487812Y-94211376D01*
X149338512Y-94241073D01*
X149313742Y-94246000D01*
X149136258Y-94246000D01*
X149111488Y-94241073D01*
X148962188Y-94211376D01*
X148798216Y-94143456D01*
X148650646Y-94044853D01*
X148525147Y-93919354D01*
X148426544Y-93771784D01*
X148358624Y-93607812D01*
X148324000Y-93433741D01*
X148324000Y-93256259D01*
X148358624Y-93082188D01*
X148426544Y-92918216D01*
X148525147Y-92770646D01*
X148650646Y-92645147D01*
X148798216Y-92546544D01*
X148962188Y-92478624D01*
X149111488Y-92448927D01*
X149136258Y-92444000D01*
X149313742Y-92444000D01*
X149338512Y-92448927D01*
G37*
G36*
X151878512Y-92448927D02*
G01*
X152027812Y-92478624D01*
X152191784Y-92546544D01*
X152339354Y-92645147D01*
X152464853Y-92770646D01*
X152563456Y-92918216D01*
X152631376Y-93082188D01*
X152666000Y-93256259D01*
X152666000Y-93433741D01*
X152631376Y-93607812D01*
X152563456Y-93771784D01*
X152464853Y-93919354D01*
X152339354Y-94044853D01*
X152191784Y-94143456D01*
X152027812Y-94211376D01*
X151878512Y-94241073D01*
X151853742Y-94246000D01*
X151676258Y-94246000D01*
X151651488Y-94241073D01*
X151502188Y-94211376D01*
X151338216Y-94143456D01*
X151190646Y-94044853D01*
X151065147Y-93919354D01*
X150966544Y-93771784D01*
X150898624Y-93607812D01*
X150864000Y-93433741D01*
X150864000Y-93256259D01*
X150898624Y-93082188D01*
X150966544Y-92918216D01*
X151065147Y-92770646D01*
X151190646Y-92645147D01*
X151338216Y-92546544D01*
X151502188Y-92478624D01*
X151651488Y-92448927D01*
X151676258Y-92444000D01*
X151853742Y-92444000D01*
X151878512Y-92448927D01*
G37*
G36*
X183157395Y-91160546D02*
G01*
X183330466Y-91232234D01*
X183330467Y-91232235D01*
X183486227Y-91336310D01*
X183618690Y-91468773D01*
X183671081Y-91547182D01*
X183722766Y-91624534D01*
X183794454Y-91797605D01*
X183831000Y-91981333D01*
X183831000Y-92168667D01*
X183794454Y-92352395D01*
X183722766Y-92525466D01*
X183708682Y-92546544D01*
X183618690Y-92681227D01*
X183486227Y-92813690D01*
X183407818Y-92866081D01*
X183330466Y-92917766D01*
X183157395Y-92989454D01*
X182973667Y-93026000D01*
X182786333Y-93026000D01*
X182602605Y-92989454D01*
X182429534Y-92917766D01*
X182352182Y-92866081D01*
X182273773Y-92813690D01*
X182141310Y-92681227D01*
X182051318Y-92546544D01*
X182037234Y-92525466D01*
X181965546Y-92352395D01*
X181929000Y-92168667D01*
X181929000Y-91981333D01*
X181965546Y-91797605D01*
X182037234Y-91624534D01*
X182088919Y-91547182D01*
X182141310Y-91468773D01*
X182273773Y-91336310D01*
X182429533Y-91232235D01*
X182429534Y-91232234D01*
X182602605Y-91160546D01*
X182786333Y-91124000D01*
X182973667Y-91124000D01*
X183157395Y-91160546D01*
G37*
G36*
X181291000Y-93026000D02*
G01*
X179389000Y-93026000D01*
X179389000Y-91124000D01*
X181291000Y-91124000D01*
X181291000Y-93026000D01*
G37*
G36*
X175537395Y-91160546D02*
G01*
X175710466Y-91232234D01*
X175710467Y-91232235D01*
X175866227Y-91336310D01*
X175998690Y-91468773D01*
X176051081Y-91547182D01*
X176102766Y-91624534D01*
X176174454Y-91797605D01*
X176211000Y-91981333D01*
X176211000Y-92168667D01*
X176174454Y-92352395D01*
X176102766Y-92525466D01*
X176088682Y-92546544D01*
X175998690Y-92681227D01*
X175866227Y-92813690D01*
X175787818Y-92866081D01*
X175710466Y-92917766D01*
X175537395Y-92989454D01*
X175353667Y-93026000D01*
X175166333Y-93026000D01*
X174982605Y-92989454D01*
X174809534Y-92917766D01*
X174732182Y-92866081D01*
X174653773Y-92813690D01*
X174521310Y-92681227D01*
X174431318Y-92546544D01*
X174417234Y-92525466D01*
X174345546Y-92352395D01*
X174309000Y-92168667D01*
X174309000Y-91981333D01*
X174345546Y-91797605D01*
X174417234Y-91624534D01*
X174468919Y-91547182D01*
X174521310Y-91468773D01*
X174653773Y-91336310D01*
X174809533Y-91232235D01*
X174809534Y-91232234D01*
X174982605Y-91160546D01*
X175166333Y-91124000D01*
X175353667Y-91124000D01*
X175537395Y-91160546D01*
G37*
G36*
X173671000Y-93026000D02*
G01*
X171769000Y-93026000D01*
X171769000Y-91124000D01*
X173671000Y-91124000D01*
X173671000Y-93026000D01*
G37*
G36*
X167661999Y-89369737D02*
G01*
X167676528Y-89374145D01*
X167689711Y-89379606D01*
X167713745Y-89384388D01*
X167738249Y-89384389D01*
X167762282Y-89379609D01*
X167784921Y-89370232D01*
X167786765Y-89369000D01*
X169018050Y-89369000D01*
X169030164Y-89375475D01*
X169053613Y-89382588D01*
X169077999Y-89384990D01*
X169102385Y-89382588D01*
X169125834Y-89375475D01*
X169130746Y-89373152D01*
X169142001Y-89369737D01*
X169158140Y-89368148D01*
X169695861Y-89368148D01*
X169714199Y-89369954D01*
X169726450Y-89370556D01*
X169744869Y-89370556D01*
X169767149Y-89372750D01*
X169851233Y-89389476D01*
X169872660Y-89395976D01*
X169951858Y-89428780D01*
X169957303Y-89431691D01*
X169957309Y-89431693D01*
X169966169Y-89436429D01*
X169966173Y-89436432D01*
X169971614Y-89439340D01*
X170042899Y-89486971D01*
X170060204Y-89501172D01*
X170120828Y-89561796D01*
X170135029Y-89579101D01*
X170182660Y-89650386D01*
X170185568Y-89655827D01*
X170185571Y-89655831D01*
X170190307Y-89664691D01*
X170190309Y-89664697D01*
X170193220Y-89670142D01*
X170226024Y-89749340D01*
X170232524Y-89770767D01*
X170249250Y-89854851D01*
X170251444Y-89877131D01*
X170251444Y-89895550D01*
X170252046Y-89907801D01*
X170253852Y-89926139D01*
X170253852Y-90413862D01*
X170252046Y-90432199D01*
X170251444Y-90444450D01*
X170251444Y-90462869D01*
X170249250Y-90485149D01*
X170232524Y-90569233D01*
X170226024Y-90590660D01*
X170193220Y-90669858D01*
X170190309Y-90675303D01*
X170190307Y-90675309D01*
X170185571Y-90684169D01*
X170185568Y-90684173D01*
X170182660Y-90689614D01*
X170135029Y-90760899D01*
X170120828Y-90778204D01*
X170060204Y-90838828D01*
X170042899Y-90853029D01*
X169971614Y-90900660D01*
X169966173Y-90903568D01*
X169966169Y-90903571D01*
X169957309Y-90908307D01*
X169957303Y-90908309D01*
X169951858Y-90911220D01*
X169872660Y-90944024D01*
X169851233Y-90950524D01*
X169767149Y-90967250D01*
X169744869Y-90969444D01*
X169726450Y-90969444D01*
X169714199Y-90970046D01*
X169695862Y-90971852D01*
X169158140Y-90971852D01*
X169142001Y-90970263D01*
X169127472Y-90965855D01*
X169114289Y-90960394D01*
X169090255Y-90955612D01*
X169065751Y-90955611D01*
X169041718Y-90960391D01*
X169019079Y-90969768D01*
X169017235Y-90971000D01*
X167785950Y-90971000D01*
X167773836Y-90964525D01*
X167750387Y-90957412D01*
X167726001Y-90955010D01*
X167701615Y-90957412D01*
X167678166Y-90964525D01*
X167673254Y-90966848D01*
X167661999Y-90970263D01*
X167645860Y-90971852D01*
X167108138Y-90971852D01*
X167089801Y-90970046D01*
X167077550Y-90969444D01*
X167059131Y-90969444D01*
X167036851Y-90967250D01*
X166952767Y-90950524D01*
X166931340Y-90944024D01*
X166852142Y-90911220D01*
X166846697Y-90908309D01*
X166846691Y-90908307D01*
X166837831Y-90903571D01*
X166837827Y-90903568D01*
X166832386Y-90900660D01*
X166761101Y-90853029D01*
X166743796Y-90838828D01*
X166683172Y-90778204D01*
X166668971Y-90760899D01*
X166621340Y-90689614D01*
X166618432Y-90684173D01*
X166618429Y-90684169D01*
X166613693Y-90675309D01*
X166613691Y-90675303D01*
X166610780Y-90669858D01*
X166577976Y-90590660D01*
X166571476Y-90569233D01*
X166554750Y-90485149D01*
X166552556Y-90462869D01*
X166552556Y-90444450D01*
X166551954Y-90432199D01*
X166550148Y-90413862D01*
X166550148Y-89926139D01*
X166551954Y-89907801D01*
X166552556Y-89895550D01*
X166552556Y-89877131D01*
X166554750Y-89854851D01*
X166571476Y-89770767D01*
X166577976Y-89749340D01*
X166610780Y-89670142D01*
X166613691Y-89664697D01*
X166613693Y-89664691D01*
X166618429Y-89655831D01*
X166618432Y-89655827D01*
X166621340Y-89650386D01*
X166668971Y-89579101D01*
X166683172Y-89561796D01*
X166743796Y-89501172D01*
X166761101Y-89486971D01*
X166832386Y-89439340D01*
X166837827Y-89436432D01*
X166837831Y-89436429D01*
X166846691Y-89431693D01*
X166846697Y-89431691D01*
X166852142Y-89428780D01*
X166931340Y-89395976D01*
X166952767Y-89389476D01*
X167036851Y-89372750D01*
X167059131Y-89370556D01*
X167077550Y-89370556D01*
X167089801Y-89369954D01*
X167108139Y-89368148D01*
X167645860Y-89368148D01*
X167661999Y-89369737D01*
G37*
G36*
X145309999Y-88734737D02*
G01*
X145324528Y-88739145D01*
X145337711Y-88744606D01*
X145361745Y-88749388D01*
X145386249Y-88749389D01*
X145410282Y-88744609D01*
X145432921Y-88735232D01*
X145434765Y-88734000D01*
X146666050Y-88734000D01*
X146678164Y-88740475D01*
X146701613Y-88747588D01*
X146725999Y-88749990D01*
X146750385Y-88747588D01*
X146773834Y-88740475D01*
X146778746Y-88738152D01*
X146790001Y-88734737D01*
X146806140Y-88733148D01*
X147343861Y-88733148D01*
X147362199Y-88734954D01*
X147374450Y-88735556D01*
X147392869Y-88735556D01*
X147415149Y-88737750D01*
X147499233Y-88754476D01*
X147520660Y-88760976D01*
X147599858Y-88793780D01*
X147605303Y-88796691D01*
X147605309Y-88796693D01*
X147614169Y-88801429D01*
X147614173Y-88801432D01*
X147619614Y-88804340D01*
X147690899Y-88851971D01*
X147708204Y-88866172D01*
X147768828Y-88926796D01*
X147783029Y-88944101D01*
X147830660Y-89015386D01*
X147833568Y-89020827D01*
X147833571Y-89020831D01*
X147838307Y-89029691D01*
X147838309Y-89029697D01*
X147841220Y-89035142D01*
X147874024Y-89114340D01*
X147880524Y-89135767D01*
X147897250Y-89219851D01*
X147899444Y-89242131D01*
X147899444Y-89260550D01*
X147900046Y-89272801D01*
X147901852Y-89291139D01*
X147901852Y-89778862D01*
X147900046Y-89797199D01*
X147899444Y-89809450D01*
X147899444Y-89827869D01*
X147897250Y-89850149D01*
X147880524Y-89934233D01*
X147874024Y-89955660D01*
X147841220Y-90034858D01*
X147838309Y-90040303D01*
X147838307Y-90040309D01*
X147833571Y-90049169D01*
X147833568Y-90049173D01*
X147830660Y-90054614D01*
X147783029Y-90125899D01*
X147768828Y-90143204D01*
X147708204Y-90203828D01*
X147690899Y-90218029D01*
X147619614Y-90265660D01*
X147614173Y-90268568D01*
X147614169Y-90268571D01*
X147605309Y-90273307D01*
X147605303Y-90273309D01*
X147599858Y-90276220D01*
X147520660Y-90309024D01*
X147499233Y-90315524D01*
X147415149Y-90332250D01*
X147392869Y-90334444D01*
X147374450Y-90334444D01*
X147362199Y-90335046D01*
X147343862Y-90336852D01*
X146806140Y-90336852D01*
X146790001Y-90335263D01*
X146775472Y-90330855D01*
X146762289Y-90325394D01*
X146738255Y-90320612D01*
X146713751Y-90320611D01*
X146689718Y-90325391D01*
X146667079Y-90334768D01*
X146665235Y-90336000D01*
X145433950Y-90336000D01*
X145421836Y-90329525D01*
X145398387Y-90322412D01*
X145374001Y-90320010D01*
X145349615Y-90322412D01*
X145326166Y-90329525D01*
X145321254Y-90331848D01*
X145309999Y-90335263D01*
X145293860Y-90336852D01*
X144756138Y-90336852D01*
X144737801Y-90335046D01*
X144725550Y-90334444D01*
X144707131Y-90334444D01*
X144684851Y-90332250D01*
X144600767Y-90315524D01*
X144579340Y-90309024D01*
X144500142Y-90276220D01*
X144494697Y-90273309D01*
X144494691Y-90273307D01*
X144485831Y-90268571D01*
X144485827Y-90268568D01*
X144480386Y-90265660D01*
X144409101Y-90218029D01*
X144391796Y-90203828D01*
X144331172Y-90143204D01*
X144316971Y-90125899D01*
X144269340Y-90054614D01*
X144266432Y-90049173D01*
X144266429Y-90049169D01*
X144261693Y-90040309D01*
X144261691Y-90040303D01*
X144258780Y-90034858D01*
X144225976Y-89955660D01*
X144219476Y-89934233D01*
X144202750Y-89850149D01*
X144200556Y-89827869D01*
X144200556Y-89809450D01*
X144199954Y-89797199D01*
X144198148Y-89778862D01*
X144198148Y-89291139D01*
X144199954Y-89272801D01*
X144200556Y-89260550D01*
X144200556Y-89242131D01*
X144202750Y-89219851D01*
X144219476Y-89135767D01*
X144225976Y-89114340D01*
X144258780Y-89035142D01*
X144261691Y-89029697D01*
X144261693Y-89029691D01*
X144266429Y-89020831D01*
X144266432Y-89020827D01*
X144269340Y-89015386D01*
X144316971Y-88944101D01*
X144331172Y-88926796D01*
X144391796Y-88866172D01*
X144409101Y-88851971D01*
X144480386Y-88804340D01*
X144485827Y-88801432D01*
X144485831Y-88801429D01*
X144494691Y-88796693D01*
X144494697Y-88796691D01*
X144500142Y-88793780D01*
X144579340Y-88760976D01*
X144600767Y-88754476D01*
X144684851Y-88737750D01*
X144707131Y-88735556D01*
X144725550Y-88735556D01*
X144737801Y-88734954D01*
X144756139Y-88733148D01*
X145293860Y-88733148D01*
X145309999Y-88734737D01*
G37*
G36*
X194216848Y-88193820D02*
G01*
X194216850Y-88193821D01*
X194216851Y-88193821D01*
X194358074Y-88252317D01*
X194358077Y-88252319D01*
X194485169Y-88337239D01*
X194593261Y-88445331D01*
X194678181Y-88572423D01*
X194678183Y-88572426D01*
X194736679Y-88713649D01*
X194736680Y-88713652D01*
X194766500Y-88863569D01*
X194766500Y-89016431D01*
X194742763Y-89135767D01*
X194736679Y-89166351D01*
X194678183Y-89307574D01*
X194678181Y-89307577D01*
X194593261Y-89434669D01*
X194485169Y-89542761D01*
X194430782Y-89579101D01*
X194358074Y-89627683D01*
X194216851Y-89686179D01*
X194216850Y-89686179D01*
X194216848Y-89686180D01*
X194066931Y-89716000D01*
X193914069Y-89716000D01*
X193764152Y-89686180D01*
X193764150Y-89686179D01*
X193764149Y-89686179D01*
X193622926Y-89627683D01*
X193550218Y-89579101D01*
X193495831Y-89542761D01*
X193387739Y-89434669D01*
X193302819Y-89307577D01*
X193302817Y-89307574D01*
X193244321Y-89166351D01*
X193238238Y-89135767D01*
X193214500Y-89016431D01*
X193214500Y-88863569D01*
X193244320Y-88713652D01*
X193244321Y-88713649D01*
X193302817Y-88572426D01*
X193302819Y-88572423D01*
X193387739Y-88445331D01*
X193495831Y-88337239D01*
X193622923Y-88252319D01*
X193622926Y-88252317D01*
X193764149Y-88193821D01*
X193764150Y-88193821D01*
X193764152Y-88193820D01*
X193914069Y-88164000D01*
X194066931Y-88164000D01*
X194216848Y-88193820D01*
G37*
G36*
X197104355Y-87292140D02*
G01*
X197168118Y-87298420D01*
X197258904Y-87325960D01*
X197290836Y-87335646D01*
X197403925Y-87396094D01*
X197503054Y-87477446D01*
X197584406Y-87576575D01*
X197644854Y-87689664D01*
X197644855Y-87689668D01*
X197682080Y-87812382D01*
X197694649Y-87940000D01*
X197682080Y-88067618D01*
X197665412Y-88122565D01*
X197644854Y-88190336D01*
X197584406Y-88303425D01*
X197503054Y-88402554D01*
X197403925Y-88483906D01*
X197290836Y-88544354D01*
X197258904Y-88554040D01*
X197168118Y-88581580D01*
X197104355Y-88587860D01*
X197072474Y-88591000D01*
X196308526Y-88591000D01*
X196276645Y-88587860D01*
X196212882Y-88581580D01*
X196122096Y-88554040D01*
X196090164Y-88544354D01*
X195977075Y-88483906D01*
X195877946Y-88402554D01*
X195796594Y-88303425D01*
X195736146Y-88190336D01*
X195715588Y-88122565D01*
X195698920Y-88067618D01*
X195686351Y-87940000D01*
X195698920Y-87812382D01*
X195736145Y-87689668D01*
X195736146Y-87689664D01*
X195796594Y-87576575D01*
X195877946Y-87477446D01*
X195977075Y-87396094D01*
X196090164Y-87335646D01*
X196122096Y-87325960D01*
X196212882Y-87298420D01*
X196276645Y-87292140D01*
X196308526Y-87289000D01*
X197072474Y-87289000D01*
X197104355Y-87292140D01*
G37*
G36*
X167815723Y-86301939D02*
G01*
X167848280Y-86311815D01*
X167878276Y-86327848D01*
X167904572Y-86349428D01*
X167926152Y-86375724D01*
X167942185Y-86405720D01*
X167952061Y-86438277D01*
X167956000Y-86478269D01*
X167956000Y-88019731D01*
X167952061Y-88059723D01*
X167942185Y-88092280D01*
X167926152Y-88122276D01*
X167904572Y-88148572D01*
X167878276Y-88170152D01*
X167848280Y-88186185D01*
X167815723Y-88196061D01*
X167775731Y-88200000D01*
X166234269Y-88200000D01*
X166194277Y-88196061D01*
X166161720Y-88186185D01*
X166131724Y-88170152D01*
X166105428Y-88148572D01*
X166083848Y-88122276D01*
X166067815Y-88092280D01*
X166057939Y-88059723D01*
X166054000Y-88019731D01*
X166054000Y-86478269D01*
X166057939Y-86438277D01*
X166067815Y-86405720D01*
X166083848Y-86375724D01*
X166105428Y-86349428D01*
X166131724Y-86327848D01*
X166161720Y-86311815D01*
X166194277Y-86301939D01*
X166234269Y-86298000D01*
X167775731Y-86298000D01*
X167815723Y-86301939D01*
G37*
G36*
X163435999Y-86448737D02*
G01*
X163445608Y-86451652D01*
X163454472Y-86456390D01*
X163462237Y-86462763D01*
X163472448Y-86475206D01*
X163479378Y-86485575D01*
X163496705Y-86502902D01*
X163517080Y-86516515D01*
X163539720Y-86525891D01*
X163563753Y-86530671D01*
X163588257Y-86530670D01*
X163612290Y-86525888D01*
X163634929Y-86516510D01*
X163655302Y-86502895D01*
X163672629Y-86485568D01*
X163679558Y-86475198D01*
X163689763Y-86462763D01*
X163697528Y-86456390D01*
X163706392Y-86451652D01*
X163716001Y-86448737D01*
X163732140Y-86447148D01*
X164219861Y-86447148D01*
X164238199Y-86448954D01*
X164250450Y-86449556D01*
X164268869Y-86449556D01*
X164291149Y-86451750D01*
X164375233Y-86468476D01*
X164396660Y-86474976D01*
X164475858Y-86507780D01*
X164481303Y-86510691D01*
X164481309Y-86510693D01*
X164490169Y-86515429D01*
X164490173Y-86515432D01*
X164495614Y-86518340D01*
X164566899Y-86565971D01*
X164584204Y-86580172D01*
X164644828Y-86640796D01*
X164659029Y-86658101D01*
X164706660Y-86729386D01*
X164709568Y-86734827D01*
X164709571Y-86734831D01*
X164714307Y-86743691D01*
X164714309Y-86743697D01*
X164717220Y-86749142D01*
X164750024Y-86828340D01*
X164756524Y-86849767D01*
X164773250Y-86933851D01*
X164775444Y-86956131D01*
X164775444Y-86974550D01*
X164776046Y-86986801D01*
X164777852Y-87005139D01*
X164777852Y-87492862D01*
X164776046Y-87511199D01*
X164775444Y-87523450D01*
X164775444Y-87541869D01*
X164773250Y-87564149D01*
X164756524Y-87648233D01*
X164750024Y-87669660D01*
X164717220Y-87748858D01*
X164714309Y-87754303D01*
X164714307Y-87754309D01*
X164709571Y-87763169D01*
X164709568Y-87763173D01*
X164706660Y-87768614D01*
X164659029Y-87839899D01*
X164644828Y-87857204D01*
X164584204Y-87917828D01*
X164566899Y-87932029D01*
X164495614Y-87979660D01*
X164490173Y-87982568D01*
X164490169Y-87982571D01*
X164481309Y-87987307D01*
X164481303Y-87987309D01*
X164475858Y-87990220D01*
X164396660Y-88023024D01*
X164375233Y-88029524D01*
X164291149Y-88046250D01*
X164268869Y-88048444D01*
X164250450Y-88048444D01*
X164238199Y-88049046D01*
X164219862Y-88050852D01*
X163732140Y-88050852D01*
X163716001Y-88049263D01*
X163706392Y-88046348D01*
X163697528Y-88041610D01*
X163689763Y-88035237D01*
X163679552Y-88022794D01*
X163672622Y-88012425D01*
X163655295Y-87995098D01*
X163634920Y-87981485D01*
X163612280Y-87972109D01*
X163588247Y-87967329D01*
X163563743Y-87967330D01*
X163539710Y-87972112D01*
X163517071Y-87981490D01*
X163496698Y-87995105D01*
X163479371Y-88012432D01*
X163472442Y-88022802D01*
X163462237Y-88035237D01*
X163454472Y-88041610D01*
X163445608Y-88046348D01*
X163435999Y-88049263D01*
X163419860Y-88050852D01*
X162932138Y-88050852D01*
X162913801Y-88049046D01*
X162901550Y-88048444D01*
X162883131Y-88048444D01*
X162860851Y-88046250D01*
X162776767Y-88029524D01*
X162755340Y-88023024D01*
X162676142Y-87990220D01*
X162670697Y-87987309D01*
X162670691Y-87987307D01*
X162661831Y-87982571D01*
X162661827Y-87982568D01*
X162656386Y-87979660D01*
X162585101Y-87932029D01*
X162567796Y-87917828D01*
X162507172Y-87857204D01*
X162492971Y-87839899D01*
X162445340Y-87768614D01*
X162442432Y-87763173D01*
X162442429Y-87763169D01*
X162437693Y-87754309D01*
X162437691Y-87754303D01*
X162434780Y-87748858D01*
X162401976Y-87669660D01*
X162395476Y-87648233D01*
X162378750Y-87564149D01*
X162376556Y-87541869D01*
X162376556Y-87523450D01*
X162375954Y-87511199D01*
X162374148Y-87492862D01*
X162374148Y-87005139D01*
X162375954Y-86986801D01*
X162376556Y-86974550D01*
X162376556Y-86956131D01*
X162378750Y-86933851D01*
X162395476Y-86849767D01*
X162401976Y-86828340D01*
X162434780Y-86749142D01*
X162437691Y-86743697D01*
X162437693Y-86743691D01*
X162442429Y-86734831D01*
X162442432Y-86734827D01*
X162445340Y-86729386D01*
X162492971Y-86658101D01*
X162507172Y-86640796D01*
X162567796Y-86580172D01*
X162585101Y-86565971D01*
X162656386Y-86518340D01*
X162661827Y-86515432D01*
X162661831Y-86515429D01*
X162670691Y-86510693D01*
X162670697Y-86510691D01*
X162676142Y-86507780D01*
X162755340Y-86474976D01*
X162776767Y-86468476D01*
X162860851Y-86451750D01*
X162883131Y-86449556D01*
X162901550Y-86449556D01*
X162913801Y-86448954D01*
X162932139Y-86447148D01*
X163419860Y-86447148D01*
X163435999Y-86448737D01*
G37*
G36*
X155206000Y-87896000D02*
G01*
X153404000Y-87896000D01*
X153404000Y-86094000D01*
X155206000Y-86094000D01*
X155206000Y-87896000D01*
G37*
G36*
X181887395Y-84810546D02*
G01*
X182060466Y-84882234D01*
X182060467Y-84882235D01*
X182216227Y-84986310D01*
X182348690Y-85118773D01*
X182348691Y-85118775D01*
X182452766Y-85274534D01*
X182524454Y-85447605D01*
X182561000Y-85631333D01*
X182561000Y-85818667D01*
X182524454Y-86002395D01*
X182452766Y-86175466D01*
X182452765Y-86175467D01*
X182348690Y-86331227D01*
X182216227Y-86463690D01*
X182157552Y-86502895D01*
X182060466Y-86567766D01*
X181887395Y-86639454D01*
X181703667Y-86676000D01*
X181516333Y-86676000D01*
X181332605Y-86639454D01*
X181159534Y-86567766D01*
X181062448Y-86502895D01*
X181003773Y-86463690D01*
X180871310Y-86331227D01*
X180767235Y-86175467D01*
X180767234Y-86175466D01*
X180695546Y-86002395D01*
X180659000Y-85818667D01*
X180659000Y-85631333D01*
X180695546Y-85447605D01*
X180767234Y-85274534D01*
X180871309Y-85118775D01*
X180871310Y-85118773D01*
X181003773Y-84986310D01*
X181159533Y-84882235D01*
X181159534Y-84882234D01*
X181332605Y-84810546D01*
X181516333Y-84774000D01*
X181703667Y-84774000D01*
X181887395Y-84810546D01*
G37*
G36*
X174267395Y-84810546D02*
G01*
X174440466Y-84882234D01*
X174440467Y-84882235D01*
X174596227Y-84986310D01*
X174728690Y-85118773D01*
X174728691Y-85118775D01*
X174832766Y-85274534D01*
X174904454Y-85447605D01*
X174941000Y-85631333D01*
X174941000Y-85818667D01*
X174904454Y-86002395D01*
X174832766Y-86175466D01*
X174832765Y-86175467D01*
X174728690Y-86331227D01*
X174596227Y-86463690D01*
X174537552Y-86502895D01*
X174440466Y-86567766D01*
X174267395Y-86639454D01*
X174083667Y-86676000D01*
X173896333Y-86676000D01*
X173712605Y-86639454D01*
X173539534Y-86567766D01*
X173442448Y-86502895D01*
X173383773Y-86463690D01*
X173251310Y-86331227D01*
X173147235Y-86175467D01*
X173147234Y-86175466D01*
X173075546Y-86002395D01*
X173039000Y-85818667D01*
X173039000Y-85631333D01*
X173075546Y-85447605D01*
X173147234Y-85274534D01*
X173251309Y-85118775D01*
X173251310Y-85118773D01*
X173383773Y-84986310D01*
X173539533Y-84882235D01*
X173539534Y-84882234D01*
X173712605Y-84810546D01*
X173896333Y-84774000D01*
X174083667Y-84774000D01*
X174267395Y-84810546D01*
G37*
G36*
X197116000Y-85991000D02*
G01*
X195314000Y-85991000D01*
X195314000Y-84189000D01*
X197116000Y-84189000D01*
X197116000Y-85991000D01*
G37*
G36*
X193779769Y-84192188D02*
G01*
X193937812Y-84223624D01*
X194101784Y-84291544D01*
X194249354Y-84390147D01*
X194374853Y-84515646D01*
X194473456Y-84663216D01*
X194541376Y-84827188D01*
X194571073Y-84976488D01*
X194573044Y-84986395D01*
X194576000Y-85001259D01*
X194576000Y-85178741D01*
X194541376Y-85352812D01*
X194473456Y-85516784D01*
X194374853Y-85664354D01*
X194249354Y-85789853D01*
X194101784Y-85888456D01*
X193937812Y-85956376D01*
X193788512Y-85986073D01*
X193763742Y-85991000D01*
X193586258Y-85991000D01*
X193561488Y-85986073D01*
X193412188Y-85956376D01*
X193248216Y-85888456D01*
X193100646Y-85789853D01*
X192975147Y-85664354D01*
X192876544Y-85516784D01*
X192808624Y-85352812D01*
X192774000Y-85178741D01*
X192774000Y-85001259D01*
X192776957Y-84986395D01*
X192778927Y-84976488D01*
X192808624Y-84827188D01*
X192876544Y-84663216D01*
X192975147Y-84515646D01*
X193100646Y-84390147D01*
X193248216Y-84291544D01*
X193412188Y-84223624D01*
X193570231Y-84192188D01*
X193586258Y-84189000D01*
X193763742Y-84189000D01*
X193779769Y-84192188D01*
G37*
G36*
X167282395Y-83794546D02*
G01*
X167455466Y-83866234D01*
X167532818Y-83917919D01*
X167611227Y-83970310D01*
X167743690Y-84102773D01*
X167743691Y-84102775D01*
X167847766Y-84258534D01*
X167919454Y-84431605D01*
X167956000Y-84615333D01*
X167956000Y-84802667D01*
X167919454Y-84986395D01*
X167847766Y-85159466D01*
X167847765Y-85159467D01*
X167743690Y-85315227D01*
X167611227Y-85447690D01*
X167532818Y-85500081D01*
X167455466Y-85551766D01*
X167282395Y-85623454D01*
X167098667Y-85660000D01*
X166911333Y-85660000D01*
X166727605Y-85623454D01*
X166554534Y-85551766D01*
X166477182Y-85500081D01*
X166398773Y-85447690D01*
X166266310Y-85315227D01*
X166162235Y-85159467D01*
X166162234Y-85159466D01*
X166090546Y-84986395D01*
X166054000Y-84802667D01*
X166054000Y-84615333D01*
X166090546Y-84431605D01*
X166162234Y-84258534D01*
X166266309Y-84102775D01*
X166266310Y-84102773D01*
X166398773Y-83970310D01*
X166477182Y-83917919D01*
X166554534Y-83866234D01*
X166727605Y-83794546D01*
X166911333Y-83758000D01*
X167098667Y-83758000D01*
X167282395Y-83794546D01*
G37*
G36*
X154418512Y-83558927D02*
G01*
X154567812Y-83588624D01*
X154731784Y-83656544D01*
X154879354Y-83755147D01*
X155004853Y-83880646D01*
X155103456Y-84028216D01*
X155171376Y-84192188D01*
X155206000Y-84366259D01*
X155206000Y-84543741D01*
X155171376Y-84717812D01*
X155103456Y-84881784D01*
X155004853Y-85029354D01*
X154879354Y-85154853D01*
X154731784Y-85253456D01*
X154567812Y-85321376D01*
X154418512Y-85351073D01*
X154393742Y-85356000D01*
X154216258Y-85356000D01*
X154191488Y-85351073D01*
X154042188Y-85321376D01*
X153878216Y-85253456D01*
X153730646Y-85154853D01*
X153605147Y-85029354D01*
X153506544Y-84881784D01*
X153438624Y-84717812D01*
X153404000Y-84543741D01*
X153404000Y-84366259D01*
X153438624Y-84192188D01*
X153506544Y-84028216D01*
X153605147Y-83880646D01*
X153730646Y-83755147D01*
X153878216Y-83656544D01*
X154042188Y-83588624D01*
X154191488Y-83558927D01*
X154216258Y-83554000D01*
X154393742Y-83554000D01*
X154418512Y-83558927D01*
G37*
G36*
X174941000Y-84136000D02*
G01*
X173039000Y-84136000D01*
X173039000Y-82234000D01*
X174941000Y-82234000D01*
X174941000Y-84136000D01*
G37*
G36*
X182561000Y-84136000D02*
G01*
X180659000Y-84136000D01*
X180659000Y-82234000D01*
X182561000Y-82234000D01*
X182561000Y-84136000D01*
G37*
G36*
X193779769Y-81652188D02*
G01*
X193937812Y-81683624D01*
X194101784Y-81751544D01*
X194249354Y-81850147D01*
X194374853Y-81975646D01*
X194473456Y-82123216D01*
X194541376Y-82287188D01*
X194571073Y-82436488D01*
X194573044Y-82446395D01*
X194576000Y-82461259D01*
X194576000Y-82638741D01*
X194541376Y-82812812D01*
X194473456Y-82976784D01*
X194374853Y-83124354D01*
X194249354Y-83249853D01*
X194101784Y-83348456D01*
X193937812Y-83416376D01*
X193788512Y-83446073D01*
X193763742Y-83451000D01*
X193586258Y-83451000D01*
X193561488Y-83446073D01*
X193412188Y-83416376D01*
X193248216Y-83348456D01*
X193100646Y-83249853D01*
X192975147Y-83124354D01*
X192876544Y-82976784D01*
X192808624Y-82812812D01*
X192774000Y-82638741D01*
X192774000Y-82461259D01*
X192776957Y-82446395D01*
X192778927Y-82436488D01*
X192808624Y-82287188D01*
X192876544Y-82123216D01*
X192975147Y-81975646D01*
X193100646Y-81850147D01*
X193248216Y-81751544D01*
X193412188Y-81683624D01*
X193570231Y-81652188D01*
X193586258Y-81649000D01*
X193763742Y-81649000D01*
X193779769Y-81652188D01*
G37*
G36*
X196319769Y-81652188D02*
G01*
X196477812Y-81683624D01*
X196641784Y-81751544D01*
X196789354Y-81850147D01*
X196914853Y-81975646D01*
X197013456Y-82123216D01*
X197081376Y-82287188D01*
X197111073Y-82436488D01*
X197113044Y-82446395D01*
X197116000Y-82461259D01*
X197116000Y-82638741D01*
X197081376Y-82812812D01*
X197013456Y-82976784D01*
X196914853Y-83124354D01*
X196789354Y-83249853D01*
X196641784Y-83348456D01*
X196477812Y-83416376D01*
X196328512Y-83446073D01*
X196303742Y-83451000D01*
X196126258Y-83451000D01*
X196101488Y-83446073D01*
X195952188Y-83416376D01*
X195788216Y-83348456D01*
X195640646Y-83249853D01*
X195515147Y-83124354D01*
X195416544Y-82976784D01*
X195348624Y-82812812D01*
X195314000Y-82638741D01*
X195314000Y-82461259D01*
X195316957Y-82446395D01*
X195318927Y-82436488D01*
X195348624Y-82287188D01*
X195416544Y-82123216D01*
X195515147Y-81975646D01*
X195640646Y-81850147D01*
X195788216Y-81751544D01*
X195952188Y-81683624D01*
X196110231Y-81652188D01*
X196126258Y-81649000D01*
X196303742Y-81649000D01*
X196319769Y-81652188D01*
G37*
G36*
X167282395Y-81254546D02*
G01*
X167455466Y-81326234D01*
X167532818Y-81377919D01*
X167611227Y-81430310D01*
X167743690Y-81562773D01*
X167743691Y-81562775D01*
X167847766Y-81718534D01*
X167919454Y-81891605D01*
X167956000Y-82075333D01*
X167956000Y-82262667D01*
X167919454Y-82446395D01*
X167847766Y-82619466D01*
X167847765Y-82619467D01*
X167743690Y-82775227D01*
X167611227Y-82907690D01*
X167532818Y-82960081D01*
X167455466Y-83011766D01*
X167282395Y-83083454D01*
X167098667Y-83120000D01*
X166911333Y-83120000D01*
X166727605Y-83083454D01*
X166554534Y-83011766D01*
X166477182Y-82960081D01*
X166398773Y-82907690D01*
X166266310Y-82775227D01*
X166162235Y-82619467D01*
X166162234Y-82619466D01*
X166090546Y-82446395D01*
X166054000Y-82262667D01*
X166054000Y-82075333D01*
X166090546Y-81891605D01*
X166162234Y-81718534D01*
X166266309Y-81562775D01*
X166266310Y-81562773D01*
X166398773Y-81430310D01*
X166477182Y-81377919D01*
X166554534Y-81326234D01*
X166727605Y-81254546D01*
X166911333Y-81218000D01*
X167098667Y-81218000D01*
X167282395Y-81254546D01*
G37*
G36*
X154418512Y-81018927D02*
G01*
X154567812Y-81048624D01*
X154731784Y-81116544D01*
X154879354Y-81215147D01*
X155004853Y-81340646D01*
X155103456Y-81488216D01*
X155171376Y-81652188D01*
X155206000Y-81826259D01*
X155206000Y-82003741D01*
X155171376Y-82177812D01*
X155103456Y-82341784D01*
X155004853Y-82489354D01*
X154879354Y-82614853D01*
X154731784Y-82713456D01*
X154567812Y-82781376D01*
X154418512Y-82811073D01*
X154393742Y-82816000D01*
X154216258Y-82816000D01*
X154191488Y-82811073D01*
X154042188Y-82781376D01*
X153878216Y-82713456D01*
X153730646Y-82614853D01*
X153605147Y-82489354D01*
X153506544Y-82341784D01*
X153438624Y-82177812D01*
X153404000Y-82003741D01*
X153404000Y-81826259D01*
X153438624Y-81652188D01*
X153506544Y-81488216D01*
X153605147Y-81340646D01*
X153730646Y-81215147D01*
X153878216Y-81116544D01*
X154042188Y-81048624D01*
X154191488Y-81018927D01*
X154216258Y-81014000D01*
X154393742Y-81014000D01*
X154418512Y-81018927D01*
G37*
G36*
X196319769Y-79112188D02*
G01*
X196477812Y-79143624D01*
X196641784Y-79211544D01*
X196789354Y-79310147D01*
X196914853Y-79435646D01*
X197013456Y-79583216D01*
X197081376Y-79747188D01*
X197110782Y-79895024D01*
X197115402Y-79918250D01*
X197116000Y-79921259D01*
X197116000Y-80098741D01*
X197081376Y-80272812D01*
X197013456Y-80436784D01*
X196914853Y-80584354D01*
X196789354Y-80709853D01*
X196641784Y-80808456D01*
X196477812Y-80876376D01*
X196328512Y-80906073D01*
X196303742Y-80911000D01*
X196126258Y-80911000D01*
X196101488Y-80906073D01*
X195952188Y-80876376D01*
X195788216Y-80808456D01*
X195640646Y-80709853D01*
X195515147Y-80584354D01*
X195416544Y-80436784D01*
X195348624Y-80272812D01*
X195314000Y-80098741D01*
X195314000Y-79921259D01*
X195314599Y-79918250D01*
X195319218Y-79895024D01*
X195348624Y-79747188D01*
X195416544Y-79583216D01*
X195515147Y-79435646D01*
X195640646Y-79310147D01*
X195788216Y-79211544D01*
X195952188Y-79143624D01*
X196110231Y-79112188D01*
X196126258Y-79109000D01*
X196303742Y-79109000D01*
X196319769Y-79112188D01*
G37*
G36*
X193779769Y-79112188D02*
G01*
X193937812Y-79143624D01*
X194101784Y-79211544D01*
X194249354Y-79310147D01*
X194374853Y-79435646D01*
X194473456Y-79583216D01*
X194541376Y-79747188D01*
X194570782Y-79895024D01*
X194575402Y-79918250D01*
X194576000Y-79921259D01*
X194576000Y-80098741D01*
X194541376Y-80272812D01*
X194473456Y-80436784D01*
X194374853Y-80584354D01*
X194249354Y-80709853D01*
X194101784Y-80808456D01*
X193937812Y-80876376D01*
X193788512Y-80906073D01*
X193763742Y-80911000D01*
X193586258Y-80911000D01*
X193561488Y-80906073D01*
X193412188Y-80876376D01*
X193248216Y-80808456D01*
X193100646Y-80709853D01*
X192975147Y-80584354D01*
X192876544Y-80436784D01*
X192808624Y-80272812D01*
X192774000Y-80098741D01*
X192774000Y-79921259D01*
X192774599Y-79918250D01*
X192779218Y-79895024D01*
X192808624Y-79747188D01*
X192876544Y-79583216D01*
X192975147Y-79435646D01*
X193100646Y-79310147D01*
X193248216Y-79211544D01*
X193412188Y-79143624D01*
X193570231Y-79112188D01*
X193586258Y-79109000D01*
X193763742Y-79109000D01*
X193779769Y-79112188D01*
G37*
G36*
X154418512Y-78478927D02*
G01*
X154567812Y-78508624D01*
X154731784Y-78576544D01*
X154879354Y-78675147D01*
X155004853Y-78800646D01*
X155103456Y-78948216D01*
X155171376Y-79112188D01*
X155206000Y-79286259D01*
X155206000Y-79463741D01*
X155171376Y-79637812D01*
X155103456Y-79801784D01*
X155004853Y-79949354D01*
X154879354Y-80074853D01*
X154731784Y-80173456D01*
X154567812Y-80241376D01*
X154418512Y-80271073D01*
X154393742Y-80276000D01*
X154216258Y-80276000D01*
X154191488Y-80271073D01*
X154042188Y-80241376D01*
X153878216Y-80173456D01*
X153730646Y-80074853D01*
X153605147Y-79949354D01*
X153506544Y-79801784D01*
X153438624Y-79637812D01*
X153404000Y-79463741D01*
X153404000Y-79286259D01*
X153438624Y-79112188D01*
X153506544Y-78948216D01*
X153605147Y-78800646D01*
X153730646Y-78675147D01*
X153878216Y-78576544D01*
X154042188Y-78508624D01*
X154191488Y-78478927D01*
X154216258Y-78474000D01*
X154393742Y-78474000D01*
X154418512Y-78478927D01*
G37*
G36*
X167815723Y-78173939D02*
G01*
X167848280Y-78183815D01*
X167878276Y-78199848D01*
X167904572Y-78221428D01*
X167926152Y-78247724D01*
X167942185Y-78277720D01*
X167952061Y-78310277D01*
X167956000Y-78350269D01*
X167956000Y-79891731D01*
X167952061Y-79931723D01*
X167942185Y-79964280D01*
X167926152Y-79994276D01*
X167904572Y-80020572D01*
X167878276Y-80042152D01*
X167848280Y-80058185D01*
X167815723Y-80068061D01*
X167775731Y-80072000D01*
X166234269Y-80072000D01*
X166194277Y-80068061D01*
X166161720Y-80058185D01*
X166131724Y-80042152D01*
X166105428Y-80020572D01*
X166083848Y-79994276D01*
X166067815Y-79964280D01*
X166057939Y-79931723D01*
X166054000Y-79891731D01*
X166054000Y-78350269D01*
X166057939Y-78310277D01*
X166067815Y-78277720D01*
X166083848Y-78247724D01*
X166105428Y-78221428D01*
X166131724Y-78199848D01*
X166161720Y-78183815D01*
X166194277Y-78173939D01*
X166234269Y-78170000D01*
X167775731Y-78170000D01*
X167815723Y-78173939D01*
G37*
G36*
X163435999Y-78320737D02*
G01*
X163445608Y-78323652D01*
X163454472Y-78328390D01*
X163462237Y-78334763D01*
X163472448Y-78347206D01*
X163479378Y-78357575D01*
X163496705Y-78374902D01*
X163517080Y-78388515D01*
X163539720Y-78397891D01*
X163563753Y-78402671D01*
X163588257Y-78402670D01*
X163612290Y-78397888D01*
X163634929Y-78388510D01*
X163655302Y-78374895D01*
X163672629Y-78357568D01*
X163679558Y-78347198D01*
X163689763Y-78334763D01*
X163697528Y-78328390D01*
X163706392Y-78323652D01*
X163716001Y-78320737D01*
X163732140Y-78319148D01*
X164219861Y-78319148D01*
X164238199Y-78320954D01*
X164250450Y-78321556D01*
X164268869Y-78321556D01*
X164291149Y-78323750D01*
X164375233Y-78340476D01*
X164396660Y-78346976D01*
X164475858Y-78379780D01*
X164481303Y-78382691D01*
X164481309Y-78382693D01*
X164490169Y-78387429D01*
X164490173Y-78387432D01*
X164495614Y-78390340D01*
X164566899Y-78437971D01*
X164584204Y-78452172D01*
X164644828Y-78512796D01*
X164659029Y-78530101D01*
X164706660Y-78601386D01*
X164709568Y-78606827D01*
X164709571Y-78606831D01*
X164714307Y-78615691D01*
X164714309Y-78615697D01*
X164717220Y-78621142D01*
X164750024Y-78700340D01*
X164756524Y-78721767D01*
X164773250Y-78805851D01*
X164775444Y-78828131D01*
X164775444Y-78846550D01*
X164776046Y-78858801D01*
X164777852Y-78877139D01*
X164777852Y-79364862D01*
X164776046Y-79383199D01*
X164775444Y-79395450D01*
X164775444Y-79413869D01*
X164773250Y-79436149D01*
X164756524Y-79520233D01*
X164750024Y-79541660D01*
X164717220Y-79620858D01*
X164714309Y-79626303D01*
X164714307Y-79626309D01*
X164709571Y-79635169D01*
X164709568Y-79635173D01*
X164706660Y-79640614D01*
X164659029Y-79711899D01*
X164644828Y-79729204D01*
X164584204Y-79789828D01*
X164566899Y-79804029D01*
X164495614Y-79851660D01*
X164490173Y-79854568D01*
X164490169Y-79854571D01*
X164481309Y-79859307D01*
X164481303Y-79859309D01*
X164475858Y-79862220D01*
X164396660Y-79895024D01*
X164375233Y-79901524D01*
X164291149Y-79918250D01*
X164268869Y-79920444D01*
X164250450Y-79920444D01*
X164238199Y-79921046D01*
X164219862Y-79922852D01*
X163732140Y-79922852D01*
X163716001Y-79921263D01*
X163706392Y-79918348D01*
X163697528Y-79913610D01*
X163689763Y-79907237D01*
X163679552Y-79894794D01*
X163672622Y-79884425D01*
X163655295Y-79867098D01*
X163634920Y-79853485D01*
X163612280Y-79844109D01*
X163588247Y-79839329D01*
X163563743Y-79839330D01*
X163539710Y-79844112D01*
X163517071Y-79853490D01*
X163496698Y-79867105D01*
X163479371Y-79884432D01*
X163472442Y-79894802D01*
X163462237Y-79907237D01*
X163454472Y-79913610D01*
X163445608Y-79918348D01*
X163435999Y-79921263D01*
X163419860Y-79922852D01*
X162932138Y-79922852D01*
X162913801Y-79921046D01*
X162901550Y-79920444D01*
X162883131Y-79920444D01*
X162860851Y-79918250D01*
X162776767Y-79901524D01*
X162755340Y-79895024D01*
X162676142Y-79862220D01*
X162670697Y-79859309D01*
X162670691Y-79859307D01*
X162661831Y-79854571D01*
X162661827Y-79854568D01*
X162656386Y-79851660D01*
X162585101Y-79804029D01*
X162567796Y-79789828D01*
X162507172Y-79729204D01*
X162492971Y-79711899D01*
X162445340Y-79640614D01*
X162442432Y-79635173D01*
X162442429Y-79635169D01*
X162437693Y-79626309D01*
X162437691Y-79626303D01*
X162434780Y-79620858D01*
X162401976Y-79541660D01*
X162395476Y-79520233D01*
X162378750Y-79436149D01*
X162376556Y-79413869D01*
X162376556Y-79395450D01*
X162375954Y-79383199D01*
X162374148Y-79364862D01*
X162374148Y-78877139D01*
X162375954Y-78858801D01*
X162376556Y-78846550D01*
X162376556Y-78828131D01*
X162378750Y-78805851D01*
X162395476Y-78721767D01*
X162401976Y-78700340D01*
X162434780Y-78621142D01*
X162437691Y-78615697D01*
X162437693Y-78615691D01*
X162442429Y-78606831D01*
X162442432Y-78606827D01*
X162445340Y-78601386D01*
X162492971Y-78530101D01*
X162507172Y-78512796D01*
X162567796Y-78452172D01*
X162585101Y-78437971D01*
X162656386Y-78390340D01*
X162661827Y-78387432D01*
X162661831Y-78387429D01*
X162670691Y-78382693D01*
X162670697Y-78382691D01*
X162676142Y-78379780D01*
X162755340Y-78346976D01*
X162776767Y-78340476D01*
X162860851Y-78323750D01*
X162883131Y-78321556D01*
X162901550Y-78321556D01*
X162913801Y-78320954D01*
X162932139Y-78319148D01*
X163419860Y-78319148D01*
X163435999Y-78320737D01*
G37*
G36*
X181887395Y-77190546D02*
G01*
X182060466Y-77262234D01*
X182060467Y-77262235D01*
X182216227Y-77366310D01*
X182348690Y-77498773D01*
X182348691Y-77498775D01*
X182452766Y-77654534D01*
X182524454Y-77827605D01*
X182561000Y-78011333D01*
X182561000Y-78198667D01*
X182524454Y-78382395D01*
X182452766Y-78555466D01*
X182452765Y-78555467D01*
X182348690Y-78711227D01*
X182216227Y-78843690D01*
X182137818Y-78896081D01*
X182060466Y-78947766D01*
X181887395Y-79019454D01*
X181703667Y-79056000D01*
X181516333Y-79056000D01*
X181332605Y-79019454D01*
X181159534Y-78947766D01*
X181082182Y-78896081D01*
X181003773Y-78843690D01*
X180871310Y-78711227D01*
X180767235Y-78555467D01*
X180767234Y-78555466D01*
X180695546Y-78382395D01*
X180659000Y-78198667D01*
X180659000Y-78011333D01*
X180695546Y-77827605D01*
X180767234Y-77654534D01*
X180871309Y-77498775D01*
X180871310Y-77498773D01*
X181003773Y-77366310D01*
X181159533Y-77262235D01*
X181159534Y-77262234D01*
X181332605Y-77190546D01*
X181516333Y-77154000D01*
X181703667Y-77154000D01*
X181887395Y-77190546D01*
G37*
G36*
X174267395Y-77190546D02*
G01*
X174440466Y-77262234D01*
X174440467Y-77262235D01*
X174596227Y-77366310D01*
X174728690Y-77498773D01*
X174728691Y-77498775D01*
X174832766Y-77654534D01*
X174904454Y-77827605D01*
X174941000Y-78011333D01*
X174941000Y-78198667D01*
X174904454Y-78382395D01*
X174832766Y-78555466D01*
X174832765Y-78555467D01*
X174728690Y-78711227D01*
X174596227Y-78843690D01*
X174517818Y-78896081D01*
X174440466Y-78947766D01*
X174267395Y-79019454D01*
X174083667Y-79056000D01*
X173896333Y-79056000D01*
X173712605Y-79019454D01*
X173539534Y-78947766D01*
X173462182Y-78896081D01*
X173383773Y-78843690D01*
X173251310Y-78711227D01*
X173147235Y-78555467D01*
X173147234Y-78555466D01*
X173075546Y-78382395D01*
X173039000Y-78198667D01*
X173039000Y-78011333D01*
X173075546Y-77827605D01*
X173147234Y-77654534D01*
X173251309Y-77498775D01*
X173251310Y-77498773D01*
X173383773Y-77366310D01*
X173539533Y-77262235D01*
X173539534Y-77262234D01*
X173712605Y-77190546D01*
X173896333Y-77154000D01*
X174083667Y-77154000D01*
X174267395Y-77190546D01*
G37*
G36*
X151624999Y-77304737D02*
G01*
X151634608Y-77307652D01*
X151643472Y-77312390D01*
X151651237Y-77318763D01*
X151661448Y-77331206D01*
X151668378Y-77341575D01*
X151685705Y-77358902D01*
X151706080Y-77372515D01*
X151728720Y-77381891D01*
X151752753Y-77386671D01*
X151777257Y-77386670D01*
X151801290Y-77381888D01*
X151823929Y-77372510D01*
X151844302Y-77358895D01*
X151861629Y-77341568D01*
X151868558Y-77331198D01*
X151878763Y-77318763D01*
X151886528Y-77312390D01*
X151895392Y-77307652D01*
X151905001Y-77304737D01*
X151921140Y-77303148D01*
X152408861Y-77303148D01*
X152427199Y-77304954D01*
X152439450Y-77305556D01*
X152457869Y-77305556D01*
X152480149Y-77307750D01*
X152564233Y-77324476D01*
X152585660Y-77330976D01*
X152664858Y-77363780D01*
X152670303Y-77366691D01*
X152670309Y-77366693D01*
X152679169Y-77371429D01*
X152679173Y-77371432D01*
X152684614Y-77374340D01*
X152755899Y-77421971D01*
X152773204Y-77436172D01*
X152833828Y-77496796D01*
X152848029Y-77514101D01*
X152895660Y-77585386D01*
X152898568Y-77590827D01*
X152898571Y-77590831D01*
X152903307Y-77599691D01*
X152903309Y-77599697D01*
X152906220Y-77605142D01*
X152939024Y-77684340D01*
X152945524Y-77705767D01*
X152962250Y-77789851D01*
X152964444Y-77812131D01*
X152964444Y-77830550D01*
X152965046Y-77842801D01*
X152966852Y-77861139D01*
X152966852Y-78348862D01*
X152965046Y-78367199D01*
X152964444Y-78379450D01*
X152964444Y-78397869D01*
X152962250Y-78420149D01*
X152945524Y-78504233D01*
X152939024Y-78525660D01*
X152906220Y-78604858D01*
X152903309Y-78610303D01*
X152903307Y-78610309D01*
X152898571Y-78619169D01*
X152898568Y-78619173D01*
X152895660Y-78624614D01*
X152848029Y-78695899D01*
X152833828Y-78713204D01*
X152773204Y-78773828D01*
X152755899Y-78788029D01*
X152684614Y-78835660D01*
X152679173Y-78838568D01*
X152679169Y-78838571D01*
X152670309Y-78843307D01*
X152670303Y-78843309D01*
X152664858Y-78846220D01*
X152585660Y-78879024D01*
X152564233Y-78885524D01*
X152480149Y-78902250D01*
X152457869Y-78904444D01*
X152439450Y-78904444D01*
X152427199Y-78905046D01*
X152408862Y-78906852D01*
X151921140Y-78906852D01*
X151905001Y-78905263D01*
X151895392Y-78902348D01*
X151886528Y-78897610D01*
X151878763Y-78891237D01*
X151868552Y-78878794D01*
X151861622Y-78868425D01*
X151844295Y-78851098D01*
X151823920Y-78837485D01*
X151801280Y-78828109D01*
X151777247Y-78823329D01*
X151752743Y-78823330D01*
X151728710Y-78828112D01*
X151706071Y-78837490D01*
X151685698Y-78851105D01*
X151668371Y-78868432D01*
X151661442Y-78878802D01*
X151651237Y-78891237D01*
X151643472Y-78897610D01*
X151634608Y-78902348D01*
X151624999Y-78905263D01*
X151608860Y-78906852D01*
X151121138Y-78906852D01*
X151102801Y-78905046D01*
X151090550Y-78904444D01*
X151072131Y-78904444D01*
X151049851Y-78902250D01*
X150965767Y-78885524D01*
X150944340Y-78879024D01*
X150865142Y-78846220D01*
X150859697Y-78843309D01*
X150859691Y-78843307D01*
X150850831Y-78838571D01*
X150850827Y-78838568D01*
X150845386Y-78835660D01*
X150774101Y-78788029D01*
X150756796Y-78773828D01*
X150696172Y-78713204D01*
X150681971Y-78695899D01*
X150634340Y-78624614D01*
X150631432Y-78619173D01*
X150631429Y-78619169D01*
X150626693Y-78610309D01*
X150626691Y-78610303D01*
X150623780Y-78604858D01*
X150590976Y-78525660D01*
X150584476Y-78504233D01*
X150567750Y-78420149D01*
X150565556Y-78397869D01*
X150565556Y-78379450D01*
X150564954Y-78367199D01*
X150563148Y-78348862D01*
X150563148Y-77861139D01*
X150564954Y-77842801D01*
X150565556Y-77830550D01*
X150565556Y-77812131D01*
X150567750Y-77789851D01*
X150584476Y-77705767D01*
X150590976Y-77684340D01*
X150623780Y-77605142D01*
X150626691Y-77599697D01*
X150626693Y-77599691D01*
X150631429Y-77590831D01*
X150631432Y-77590827D01*
X150634340Y-77585386D01*
X150681971Y-77514101D01*
X150696172Y-77496796D01*
X150756796Y-77436172D01*
X150774101Y-77421971D01*
X150845386Y-77374340D01*
X150850827Y-77371432D01*
X150850831Y-77371429D01*
X150859691Y-77366693D01*
X150859697Y-77366691D01*
X150865142Y-77363780D01*
X150944340Y-77330976D01*
X150965767Y-77324476D01*
X151049851Y-77307750D01*
X151072131Y-77305556D01*
X151090550Y-77305556D01*
X151102801Y-77304954D01*
X151121139Y-77303148D01*
X151608860Y-77303148D01*
X151624999Y-77304737D01*
G37*
G36*
X196319769Y-76572188D02*
G01*
X196477812Y-76603624D01*
X196641784Y-76671544D01*
X196789354Y-76770147D01*
X196914853Y-76895646D01*
X197013456Y-77043216D01*
X197081376Y-77207188D01*
X197116000Y-77381259D01*
X197116000Y-77558741D01*
X197081376Y-77732812D01*
X197013456Y-77896784D01*
X196914853Y-78044354D01*
X196789354Y-78169853D01*
X196641784Y-78268456D01*
X196477812Y-78336376D01*
X196333916Y-78364998D01*
X196303742Y-78371000D01*
X196126258Y-78371000D01*
X196096084Y-78364998D01*
X195952188Y-78336376D01*
X195788216Y-78268456D01*
X195640646Y-78169853D01*
X195515147Y-78044354D01*
X195416544Y-77896784D01*
X195348624Y-77732812D01*
X195314000Y-77558741D01*
X195314000Y-77381259D01*
X195348624Y-77207188D01*
X195416544Y-77043216D01*
X195515147Y-76895646D01*
X195640646Y-76770147D01*
X195788216Y-76671544D01*
X195952188Y-76603624D01*
X196110231Y-76572188D01*
X196126258Y-76569000D01*
X196303742Y-76569000D01*
X196319769Y-76572188D01*
G37*
G36*
X193779769Y-76572188D02*
G01*
X193937812Y-76603624D01*
X194101784Y-76671544D01*
X194249354Y-76770147D01*
X194374853Y-76895646D01*
X194473456Y-77043216D01*
X194541376Y-77207188D01*
X194576000Y-77381259D01*
X194576000Y-77558741D01*
X194541376Y-77732812D01*
X194473456Y-77896784D01*
X194374853Y-78044354D01*
X194249354Y-78169853D01*
X194101784Y-78268456D01*
X193937812Y-78336376D01*
X193793916Y-78364998D01*
X193763742Y-78371000D01*
X193586258Y-78371000D01*
X193556084Y-78364998D01*
X193412188Y-78336376D01*
X193248216Y-78268456D01*
X193100646Y-78169853D01*
X192975147Y-78044354D01*
X192876544Y-77896784D01*
X192808624Y-77732812D01*
X192774000Y-77558741D01*
X192774000Y-77381259D01*
X192808624Y-77207188D01*
X192876544Y-77043216D01*
X192975147Y-76895646D01*
X193100646Y-76770147D01*
X193248216Y-76671544D01*
X193412188Y-76603624D01*
X193570231Y-76572188D01*
X193586258Y-76569000D01*
X193763742Y-76569000D01*
X193779769Y-76572188D01*
G37*
G36*
X154418512Y-75938927D02*
G01*
X154567812Y-75968624D01*
X154731784Y-76036544D01*
X154879354Y-76135147D01*
X155004853Y-76260646D01*
X155103456Y-76408216D01*
X155171376Y-76572188D01*
X155206000Y-76746259D01*
X155206000Y-76923741D01*
X155171376Y-77097812D01*
X155103456Y-77261784D01*
X155004853Y-77409354D01*
X154879354Y-77534853D01*
X154731784Y-77633456D01*
X154567812Y-77701376D01*
X154418512Y-77731073D01*
X154393742Y-77736000D01*
X154216258Y-77736000D01*
X154191488Y-77731073D01*
X154042188Y-77701376D01*
X153878216Y-77633456D01*
X153730646Y-77534853D01*
X153605147Y-77409354D01*
X153506544Y-77261784D01*
X153438624Y-77097812D01*
X153404000Y-76923741D01*
X153404000Y-76746259D01*
X153438624Y-76572188D01*
X153506544Y-76408216D01*
X153605147Y-76260646D01*
X153730646Y-76135147D01*
X153878216Y-76036544D01*
X154042188Y-75968624D01*
X154191488Y-75938927D01*
X154216258Y-75934000D01*
X154393742Y-75934000D01*
X154418512Y-75938927D01*
G37*
G36*
X167282395Y-75666546D02*
G01*
X167455466Y-75738234D01*
X167455467Y-75738235D01*
X167611227Y-75842310D01*
X167743690Y-75974773D01*
X167743691Y-75974775D01*
X167847766Y-76130534D01*
X167919454Y-76303605D01*
X167956000Y-76487333D01*
X167956000Y-76674667D01*
X167919454Y-76858395D01*
X167847766Y-77031466D01*
X167803436Y-77097811D01*
X167743690Y-77187227D01*
X167611227Y-77319690D01*
X167552552Y-77358895D01*
X167455466Y-77423766D01*
X167282395Y-77495454D01*
X167098667Y-77532000D01*
X166911333Y-77532000D01*
X166727605Y-77495454D01*
X166554534Y-77423766D01*
X166457448Y-77358895D01*
X166398773Y-77319690D01*
X166266310Y-77187227D01*
X166206564Y-77097811D01*
X166162234Y-77031466D01*
X166090546Y-76858395D01*
X166054000Y-76674667D01*
X166054000Y-76487333D01*
X166090546Y-76303605D01*
X166162234Y-76130534D01*
X166266309Y-75974775D01*
X166266310Y-75974773D01*
X166398773Y-75842310D01*
X166554533Y-75738235D01*
X166554534Y-75738234D01*
X166727605Y-75666546D01*
X166911333Y-75630000D01*
X167098667Y-75630000D01*
X167282395Y-75666546D01*
G37*
G36*
X174941000Y-76516000D02*
G01*
X173039000Y-76516000D01*
X173039000Y-74614000D01*
X174941000Y-74614000D01*
X174941000Y-76516000D01*
G37*
G36*
X182561000Y-76516000D02*
G01*
X180659000Y-76516000D01*
X180659000Y-74614000D01*
X182561000Y-74614000D01*
X182561000Y-76516000D01*
G37*
G36*
X154418512Y-73398927D02*
G01*
X154567812Y-73428624D01*
X154731784Y-73496544D01*
X154879354Y-73595147D01*
X155004853Y-73720646D01*
X155103456Y-73868216D01*
X155171376Y-74032188D01*
X155206000Y-74206259D01*
X155206000Y-74383741D01*
X155171376Y-74557812D01*
X155103456Y-74721784D01*
X155004853Y-74869354D01*
X154879354Y-74994853D01*
X154731784Y-75093456D01*
X154567812Y-75161376D01*
X154418512Y-75191073D01*
X154393742Y-75196000D01*
X154216258Y-75196000D01*
X154191488Y-75191073D01*
X154042188Y-75161376D01*
X153878216Y-75093456D01*
X153730646Y-74994853D01*
X153605147Y-74869354D01*
X153506544Y-74721784D01*
X153438624Y-74557812D01*
X153404000Y-74383741D01*
X153404000Y-74206259D01*
X153438624Y-74032188D01*
X153506544Y-73868216D01*
X153605147Y-73720646D01*
X153730646Y-73595147D01*
X153878216Y-73496544D01*
X154042188Y-73428624D01*
X154191488Y-73398927D01*
X154216258Y-73394000D01*
X154393742Y-73394000D01*
X154418512Y-73398927D01*
G37*
G36*
X167282395Y-73126546D02*
G01*
X167455466Y-73198234D01*
X167455467Y-73198235D01*
X167611227Y-73302310D01*
X167743690Y-73434773D01*
X167743691Y-73434775D01*
X167847766Y-73590534D01*
X167919454Y-73763605D01*
X167956000Y-73947333D01*
X167956000Y-74134667D01*
X167919454Y-74318395D01*
X167847766Y-74491466D01*
X167847765Y-74491467D01*
X167743690Y-74647227D01*
X167611227Y-74779690D01*
X167532818Y-74832081D01*
X167455466Y-74883766D01*
X167282395Y-74955454D01*
X167098667Y-74992000D01*
X166911333Y-74992000D01*
X166727605Y-74955454D01*
X166554534Y-74883766D01*
X166477182Y-74832081D01*
X166398773Y-74779690D01*
X166266310Y-74647227D01*
X166162235Y-74491467D01*
X166162234Y-74491466D01*
X166090546Y-74318395D01*
X166054000Y-74134667D01*
X166054000Y-73947333D01*
X166090546Y-73763605D01*
X166162234Y-73590534D01*
X166266309Y-73434775D01*
X166266310Y-73434773D01*
X166398773Y-73302310D01*
X166554533Y-73198235D01*
X166554534Y-73198234D01*
X166727605Y-73126546D01*
X166911333Y-73090000D01*
X167098667Y-73090000D01*
X167282395Y-73126546D01*
G37*
G36*
X194301979Y-69333293D02*
G01*
X194435625Y-69373834D01*
X194558784Y-69439664D01*
X194666740Y-69528260D01*
X194755336Y-69636216D01*
X194821166Y-69759375D01*
X194861707Y-69893021D01*
X194876000Y-70038140D01*
X194876000Y-72201860D01*
X194861707Y-72346979D01*
X194821166Y-72480625D01*
X194755336Y-72603784D01*
X194666740Y-72711740D01*
X194558784Y-72800336D01*
X194435625Y-72866166D01*
X194301979Y-72906707D01*
X194156860Y-72921000D01*
X192493140Y-72921000D01*
X192348021Y-72906707D01*
X192214375Y-72866166D01*
X192091216Y-72800336D01*
X191983260Y-72711740D01*
X191894664Y-72603784D01*
X191828834Y-72480625D01*
X191788293Y-72346979D01*
X191774000Y-72201860D01*
X191774000Y-70038140D01*
X191788293Y-69893021D01*
X191828834Y-69759375D01*
X191894664Y-69636216D01*
X191983260Y-69528260D01*
X192091216Y-69439664D01*
X192214375Y-69373834D01*
X192348021Y-69333293D01*
X192493140Y-69319000D01*
X194156860Y-69319000D01*
X194301979Y-69333293D01*
G37*
G36*
X189126000Y-72921000D02*
G01*
X185524000Y-72921000D01*
X185524000Y-69319000D01*
X189126000Y-69319000D01*
X189126000Y-72921000D01*
G37*
G36*
X154567199Y-69665954D02*
G01*
X154579450Y-69666556D01*
X154597869Y-69666556D01*
X154620149Y-69668750D01*
X154704233Y-69685476D01*
X154725660Y-69691976D01*
X154804858Y-69724780D01*
X154810303Y-69727691D01*
X154810309Y-69727693D01*
X154819169Y-69732429D01*
X154819173Y-69732432D01*
X154824614Y-69735340D01*
X154895899Y-69782971D01*
X154913204Y-69797172D01*
X154973828Y-69857796D01*
X154988029Y-69875101D01*
X155035660Y-69946386D01*
X155038568Y-69951827D01*
X155038571Y-69951831D01*
X155043307Y-69960691D01*
X155043309Y-69960697D01*
X155046220Y-69966142D01*
X155079024Y-70045340D01*
X155085524Y-70066767D01*
X155102250Y-70150851D01*
X155104444Y-70173131D01*
X155104444Y-70191550D01*
X155105046Y-70203801D01*
X155106852Y-70222139D01*
X155106852Y-70709860D01*
X155105263Y-70725999D01*
X155102348Y-70735608D01*
X155097610Y-70744472D01*
X155091237Y-70752237D01*
X155078794Y-70762448D01*
X155068425Y-70769378D01*
X155051098Y-70786705D01*
X155037485Y-70807080D01*
X155028109Y-70829720D01*
X155023329Y-70853753D01*
X155023330Y-70878257D01*
X155028112Y-70902290D01*
X155037490Y-70924929D01*
X155051105Y-70945302D01*
X155068432Y-70962629D01*
X155078802Y-70969558D01*
X155091237Y-70979763D01*
X155097610Y-70987528D01*
X155102348Y-70996392D01*
X155105263Y-71006001D01*
X155106852Y-71022140D01*
X155106852Y-71509862D01*
X155105046Y-71528199D01*
X155104444Y-71540450D01*
X155104444Y-71558869D01*
X155102250Y-71581149D01*
X155085524Y-71665233D01*
X155079024Y-71686660D01*
X155046220Y-71765858D01*
X155043309Y-71771303D01*
X155043307Y-71771309D01*
X155038571Y-71780169D01*
X155038568Y-71780173D01*
X155035660Y-71785614D01*
X154988029Y-71856899D01*
X154973828Y-71874204D01*
X154913204Y-71934828D01*
X154895899Y-71949029D01*
X154824614Y-71996660D01*
X154819173Y-71999568D01*
X154819169Y-71999571D01*
X154810309Y-72004307D01*
X154810303Y-72004309D01*
X154804858Y-72007220D01*
X154725660Y-72040024D01*
X154704233Y-72046524D01*
X154620149Y-72063250D01*
X154597869Y-72065444D01*
X154579450Y-72065444D01*
X154567199Y-72066046D01*
X154548862Y-72067852D01*
X154061138Y-72067852D01*
X154042801Y-72066046D01*
X154030550Y-72065444D01*
X154012131Y-72065444D01*
X153989851Y-72063250D01*
X153905767Y-72046524D01*
X153884340Y-72040024D01*
X153805142Y-72007220D01*
X153799697Y-72004309D01*
X153799691Y-72004307D01*
X153790831Y-71999571D01*
X153790827Y-71999568D01*
X153785386Y-71996660D01*
X153714101Y-71949029D01*
X153696796Y-71934828D01*
X153636172Y-71874204D01*
X153621971Y-71856899D01*
X153574340Y-71785614D01*
X153571432Y-71780173D01*
X153571429Y-71780169D01*
X153566693Y-71771309D01*
X153566691Y-71771303D01*
X153563780Y-71765858D01*
X153530976Y-71686660D01*
X153524476Y-71665233D01*
X153507750Y-71581149D01*
X153505556Y-71558869D01*
X153505556Y-71540450D01*
X153504954Y-71528199D01*
X153503148Y-71509862D01*
X153503148Y-71022140D01*
X153504737Y-71006001D01*
X153507652Y-70996392D01*
X153512390Y-70987528D01*
X153518763Y-70979763D01*
X153531206Y-70969552D01*
X153541575Y-70962622D01*
X153558902Y-70945295D01*
X153572515Y-70924920D01*
X153581891Y-70902280D01*
X153586671Y-70878247D01*
X153586670Y-70853743D01*
X153581888Y-70829710D01*
X153572510Y-70807071D01*
X153558895Y-70786698D01*
X153541568Y-70769371D01*
X153531198Y-70762442D01*
X153518763Y-70752237D01*
X153512390Y-70744472D01*
X153507652Y-70735608D01*
X153504737Y-70725999D01*
X153503148Y-70709860D01*
X153503148Y-70222139D01*
X153504954Y-70203801D01*
X153505556Y-70191550D01*
X153505556Y-70173131D01*
X153507750Y-70150851D01*
X153524476Y-70066767D01*
X153530976Y-70045340D01*
X153563780Y-69966142D01*
X153566691Y-69960697D01*
X153566693Y-69960691D01*
X153571429Y-69951831D01*
X153571432Y-69951827D01*
X153574340Y-69946386D01*
X153621971Y-69875101D01*
X153636172Y-69857796D01*
X153696796Y-69797172D01*
X153714101Y-69782971D01*
X153785386Y-69735340D01*
X153790827Y-69732432D01*
X153790831Y-69732429D01*
X153799691Y-69727693D01*
X153799697Y-69727691D01*
X153805142Y-69724780D01*
X153884340Y-69691976D01*
X153905767Y-69685476D01*
X153989851Y-69668750D01*
X154012131Y-69666556D01*
X154030550Y-69666556D01*
X154042801Y-69665954D01*
X154061139Y-69664148D01*
X154548861Y-69664148D01*
X154567199Y-69665954D01*
G37*
G36*
X167661999Y-69938737D02*
G01*
X167676528Y-69943145D01*
X167689711Y-69948606D01*
X167713745Y-69953388D01*
X167738249Y-69953389D01*
X167762282Y-69948609D01*
X167784921Y-69939232D01*
X167786765Y-69938000D01*
X169018050Y-69938000D01*
X169030164Y-69944475D01*
X169053613Y-69951588D01*
X169077999Y-69953990D01*
X169102385Y-69951588D01*
X169125834Y-69944475D01*
X169130746Y-69942152D01*
X169142001Y-69938737D01*
X169158140Y-69937148D01*
X169695861Y-69937148D01*
X169714199Y-69938954D01*
X169726450Y-69939556D01*
X169744869Y-69939556D01*
X169767149Y-69941750D01*
X169851233Y-69958476D01*
X169872660Y-69964976D01*
X169951858Y-69997780D01*
X169957303Y-70000691D01*
X169957309Y-70000693D01*
X169966169Y-70005429D01*
X169966173Y-70005432D01*
X169971614Y-70008340D01*
X170042899Y-70055971D01*
X170060204Y-70070172D01*
X170120828Y-70130796D01*
X170135029Y-70148101D01*
X170182660Y-70219386D01*
X170185568Y-70224827D01*
X170185571Y-70224831D01*
X170190307Y-70233691D01*
X170190309Y-70233697D01*
X170193220Y-70239142D01*
X170226024Y-70318340D01*
X170232524Y-70339767D01*
X170249250Y-70423851D01*
X170251444Y-70446131D01*
X170251444Y-70464550D01*
X170252046Y-70476801D01*
X170253852Y-70495139D01*
X170253852Y-70982862D01*
X170252046Y-71001199D01*
X170251444Y-71013450D01*
X170251444Y-71031869D01*
X170249250Y-71054149D01*
X170232524Y-71138233D01*
X170226024Y-71159660D01*
X170193220Y-71238858D01*
X170190309Y-71244303D01*
X170190307Y-71244309D01*
X170185571Y-71253169D01*
X170185568Y-71253173D01*
X170182660Y-71258614D01*
X170135029Y-71329899D01*
X170120828Y-71347204D01*
X170060204Y-71407828D01*
X170042899Y-71422029D01*
X169971614Y-71469660D01*
X169966173Y-71472568D01*
X169966169Y-71472571D01*
X169957309Y-71477307D01*
X169957303Y-71477309D01*
X169951858Y-71480220D01*
X169872660Y-71513024D01*
X169851233Y-71519524D01*
X169767149Y-71536250D01*
X169744869Y-71538444D01*
X169726450Y-71538444D01*
X169714199Y-71539046D01*
X169695862Y-71540852D01*
X169158140Y-71540852D01*
X169142001Y-71539263D01*
X169127472Y-71534855D01*
X169114289Y-71529394D01*
X169090255Y-71524612D01*
X169065751Y-71524611D01*
X169041718Y-71529391D01*
X169019079Y-71538768D01*
X169017235Y-71540000D01*
X167785950Y-71540000D01*
X167773836Y-71533525D01*
X167750387Y-71526412D01*
X167726001Y-71524010D01*
X167701615Y-71526412D01*
X167678166Y-71533525D01*
X167673254Y-71535848D01*
X167661999Y-71539263D01*
X167645860Y-71540852D01*
X167108138Y-71540852D01*
X167089801Y-71539046D01*
X167077550Y-71538444D01*
X167059131Y-71538444D01*
X167036851Y-71536250D01*
X166952767Y-71519524D01*
X166931340Y-71513024D01*
X166852142Y-71480220D01*
X166846697Y-71477309D01*
X166846691Y-71477307D01*
X166837831Y-71472571D01*
X166837827Y-71472568D01*
X166832386Y-71469660D01*
X166761101Y-71422029D01*
X166743796Y-71407828D01*
X166683172Y-71347204D01*
X166668971Y-71329899D01*
X166621340Y-71258614D01*
X166618432Y-71253173D01*
X166618429Y-71253169D01*
X166613693Y-71244309D01*
X166613691Y-71244303D01*
X166610780Y-71238858D01*
X166577976Y-71159660D01*
X166571476Y-71138233D01*
X166554750Y-71054149D01*
X166552556Y-71031869D01*
X166552556Y-71013450D01*
X166551954Y-71001199D01*
X166550148Y-70982862D01*
X166550148Y-70495139D01*
X166551954Y-70476801D01*
X166552556Y-70464550D01*
X166552556Y-70446131D01*
X166554750Y-70423851D01*
X166571476Y-70339767D01*
X166577976Y-70318340D01*
X166610780Y-70239142D01*
X166613691Y-70233697D01*
X166613693Y-70233691D01*
X166618429Y-70224831D01*
X166618432Y-70224827D01*
X166621340Y-70219386D01*
X166668971Y-70148101D01*
X166683172Y-70130796D01*
X166743796Y-70070172D01*
X166761101Y-70055971D01*
X166832386Y-70008340D01*
X166837827Y-70005432D01*
X166837831Y-70005429D01*
X166846691Y-70000693D01*
X166846697Y-70000691D01*
X166852142Y-69997780D01*
X166931340Y-69964976D01*
X166952767Y-69958476D01*
X167036851Y-69941750D01*
X167059131Y-69939556D01*
X167077550Y-69939556D01*
X167089801Y-69938954D01*
X167108139Y-69937148D01*
X167645860Y-69937148D01*
X167661999Y-69938737D01*
G37*
G36*
X173671000Y-70166000D02*
G01*
X171769000Y-70166000D01*
X171769000Y-68264000D01*
X173671000Y-68264000D01*
X173671000Y-70166000D01*
G37*
G36*
X175537395Y-68300546D02*
G01*
X175710466Y-68372234D01*
X175710467Y-68372235D01*
X175866227Y-68476310D01*
X175998690Y-68608773D01*
X175998691Y-68608775D01*
X176102766Y-68764534D01*
X176174454Y-68937605D01*
X176211000Y-69121333D01*
X176211000Y-69308667D01*
X176174454Y-69492395D01*
X176102766Y-69665466D01*
X176063134Y-69724780D01*
X175998690Y-69821227D01*
X175866227Y-69953690D01*
X175800241Y-69997780D01*
X175710466Y-70057766D01*
X175537395Y-70129454D01*
X175353667Y-70166000D01*
X175166333Y-70166000D01*
X174982605Y-70129454D01*
X174809534Y-70057766D01*
X174719759Y-69997780D01*
X174653773Y-69953690D01*
X174521310Y-69821227D01*
X174456866Y-69724780D01*
X174417234Y-69665466D01*
X174345546Y-69492395D01*
X174309000Y-69308667D01*
X174309000Y-69121333D01*
X174345546Y-68937605D01*
X174417234Y-68764534D01*
X174521309Y-68608775D01*
X174521310Y-68608773D01*
X174653773Y-68476310D01*
X174809533Y-68372235D01*
X174809534Y-68372234D01*
X174982605Y-68300546D01*
X175166333Y-68264000D01*
X175353667Y-68264000D01*
X175537395Y-68300546D01*
G37*
G36*
X181291000Y-70166000D02*
G01*
X179389000Y-70166000D01*
X179389000Y-68264000D01*
X181291000Y-68264000D01*
X181291000Y-70166000D01*
G37*
G36*
X183157395Y-68300546D02*
G01*
X183330466Y-68372234D01*
X183330467Y-68372235D01*
X183486227Y-68476310D01*
X183618690Y-68608773D01*
X183618691Y-68608775D01*
X183722766Y-68764534D01*
X183794454Y-68937605D01*
X183831000Y-69121333D01*
X183831000Y-69308667D01*
X183794454Y-69492395D01*
X183722766Y-69665466D01*
X183683134Y-69724780D01*
X183618690Y-69821227D01*
X183486227Y-69953690D01*
X183420241Y-69997780D01*
X183330466Y-70057766D01*
X183157395Y-70129454D01*
X182973667Y-70166000D01*
X182786333Y-70166000D01*
X182602605Y-70129454D01*
X182429534Y-70057766D01*
X182339759Y-69997780D01*
X182273773Y-69953690D01*
X182141310Y-69821227D01*
X182076866Y-69724780D01*
X182037234Y-69665466D01*
X181965546Y-69492395D01*
X181929000Y-69308667D01*
X181929000Y-69121333D01*
X181965546Y-68937605D01*
X182037234Y-68764534D01*
X182141309Y-68608775D01*
X182141310Y-68608773D01*
X182273773Y-68476310D01*
X182429533Y-68372235D01*
X182429534Y-68372234D01*
X182602605Y-68300546D01*
X182786333Y-68264000D01*
X182973667Y-68264000D01*
X183157395Y-68300546D01*
G37*
G36*
X162669098Y-64857033D02*
G01*
X163133350Y-65049332D01*
X163133352Y-65049333D01*
X163551168Y-65328509D01*
X163906491Y-65683832D01*
X164136854Y-66028595D01*
X164185668Y-66101650D01*
X164377967Y-66565902D01*
X164476000Y-67058747D01*
X164476000Y-67561253D01*
X164377967Y-68054098D01*
X164225496Y-68422196D01*
X164185667Y-68518352D01*
X163906491Y-68936168D01*
X163551168Y-69291491D01*
X163133352Y-69570667D01*
X163133351Y-69570668D01*
X163133350Y-69570668D01*
X162669098Y-69762967D01*
X162176253Y-69861000D01*
X161673747Y-69861000D01*
X161180902Y-69762967D01*
X160716650Y-69570668D01*
X160716649Y-69570668D01*
X160716648Y-69570667D01*
X160298832Y-69291491D01*
X159943509Y-68936168D01*
X159664333Y-68518352D01*
X159624504Y-68422196D01*
X159472033Y-68054098D01*
X159374000Y-67561253D01*
X159374000Y-67058747D01*
X159472033Y-66565902D01*
X159664332Y-66101650D01*
X159713146Y-66028595D01*
X159943509Y-65683832D01*
X160298832Y-65328509D01*
X160716648Y-65049333D01*
X160716650Y-65049332D01*
X161180902Y-64857033D01*
X161673747Y-64759000D01*
X162176253Y-64759000D01*
X162669098Y-64857033D01*
G37*
G36*
X146793137Y-67047858D02*
G01*
X146947812Y-67078624D01*
X147111784Y-67146544D01*
X147259354Y-67245147D01*
X147384853Y-67370646D01*
X147483456Y-67518216D01*
X147551376Y-67682188D01*
X147586000Y-67856259D01*
X147586000Y-68033741D01*
X147551376Y-68207812D01*
X147483456Y-68371784D01*
X147384853Y-68519354D01*
X147259354Y-68644853D01*
X147111784Y-68743456D01*
X146947812Y-68811376D01*
X146798512Y-68841073D01*
X146773742Y-68846000D01*
X146596258Y-68846000D01*
X146571488Y-68841073D01*
X146422188Y-68811376D01*
X146258216Y-68743456D01*
X146110646Y-68644853D01*
X145985147Y-68519354D01*
X145886544Y-68371784D01*
X145818624Y-68207812D01*
X145784000Y-68033741D01*
X145784000Y-67856259D01*
X145818624Y-67682188D01*
X145886544Y-67518216D01*
X145985147Y-67370646D01*
X146110646Y-67245147D01*
X146258216Y-67146544D01*
X146422188Y-67078624D01*
X146576863Y-67047858D01*
X146596258Y-67044000D01*
X146773742Y-67044000D01*
X146793137Y-67047858D01*
G37*
G36*
X149333137Y-67047858D02*
G01*
X149487812Y-67078624D01*
X149651784Y-67146544D01*
X149799354Y-67245147D01*
X149924853Y-67370646D01*
X150023456Y-67518216D01*
X150091376Y-67682188D01*
X150126000Y-67856259D01*
X150126000Y-68033741D01*
X150091376Y-68207812D01*
X150023456Y-68371784D01*
X149924853Y-68519354D01*
X149799354Y-68644853D01*
X149651784Y-68743456D01*
X149487812Y-68811376D01*
X149338512Y-68841073D01*
X149313742Y-68846000D01*
X149136258Y-68846000D01*
X149111488Y-68841073D01*
X148962188Y-68811376D01*
X148798216Y-68743456D01*
X148650646Y-68644853D01*
X148525147Y-68519354D01*
X148426544Y-68371784D01*
X148358624Y-68207812D01*
X148324000Y-68033741D01*
X148324000Y-67856259D01*
X148358624Y-67682188D01*
X148426544Y-67518216D01*
X148525147Y-67370646D01*
X148650646Y-67245147D01*
X148798216Y-67146544D01*
X148962188Y-67078624D01*
X149116863Y-67047858D01*
X149136258Y-67044000D01*
X149313742Y-67044000D01*
X149333137Y-67047858D01*
G37*
G36*
X151873137Y-67047858D02*
G01*
X152027812Y-67078624D01*
X152191784Y-67146544D01*
X152339354Y-67245147D01*
X152464853Y-67370646D01*
X152563456Y-67518216D01*
X152631376Y-67682188D01*
X152666000Y-67856259D01*
X152666000Y-68033741D01*
X152631376Y-68207812D01*
X152563456Y-68371784D01*
X152464853Y-68519354D01*
X152339354Y-68644853D01*
X152191784Y-68743456D01*
X152027812Y-68811376D01*
X151878512Y-68841073D01*
X151853742Y-68846000D01*
X151676258Y-68846000D01*
X151651488Y-68841073D01*
X151502188Y-68811376D01*
X151338216Y-68743456D01*
X151190646Y-68644853D01*
X151065147Y-68519354D01*
X150966544Y-68371784D01*
X150898624Y-68207812D01*
X150864000Y-68033741D01*
X150864000Y-67856259D01*
X150898624Y-67682188D01*
X150966544Y-67518216D01*
X151065147Y-67370646D01*
X151190646Y-67245147D01*
X151338216Y-67146544D01*
X151502188Y-67078624D01*
X151656863Y-67047858D01*
X151676258Y-67044000D01*
X151853742Y-67044000D01*
X151873137Y-67047858D01*
G37*
G36*
X154413137Y-67047858D02*
G01*
X154567812Y-67078624D01*
X154731784Y-67146544D01*
X154879354Y-67245147D01*
X155004853Y-67370646D01*
X155103456Y-67518216D01*
X155171376Y-67682188D01*
X155206000Y-67856259D01*
X155206000Y-68033741D01*
X155171376Y-68207812D01*
X155103456Y-68371784D01*
X155004853Y-68519354D01*
X154879354Y-68644853D01*
X154731784Y-68743456D01*
X154567812Y-68811376D01*
X154418512Y-68841073D01*
X154393742Y-68846000D01*
X154216258Y-68846000D01*
X154191488Y-68841073D01*
X154042188Y-68811376D01*
X153878216Y-68743456D01*
X153730646Y-68644853D01*
X153605147Y-68519354D01*
X153506544Y-68371784D01*
X153438624Y-68207812D01*
X153404000Y-68033741D01*
X153404000Y-67856259D01*
X153438624Y-67682188D01*
X153506544Y-67518216D01*
X153605147Y-67370646D01*
X153730646Y-67245147D01*
X153878216Y-67146544D01*
X154042188Y-67078624D01*
X154196863Y-67047858D01*
X154216258Y-67044000D01*
X154393742Y-67044000D01*
X154413137Y-67047858D01*
G37*
G36*
X156953137Y-67047858D02*
G01*
X157107812Y-67078624D01*
X157271784Y-67146544D01*
X157419354Y-67245147D01*
X157544853Y-67370646D01*
X157643456Y-67518216D01*
X157711376Y-67682188D01*
X157746000Y-67856259D01*
X157746000Y-68033741D01*
X157711376Y-68207812D01*
X157643456Y-68371784D01*
X157544853Y-68519354D01*
X157419354Y-68644853D01*
X157271784Y-68743456D01*
X157107812Y-68811376D01*
X156958512Y-68841073D01*
X156933742Y-68846000D01*
X156756258Y-68846000D01*
X156731488Y-68841073D01*
X156582188Y-68811376D01*
X156418216Y-68743456D01*
X156270646Y-68644853D01*
X156145147Y-68519354D01*
X156046544Y-68371784D01*
X155978624Y-68207812D01*
X155944000Y-68033741D01*
X155944000Y-67856259D01*
X155978624Y-67682188D01*
X156046544Y-67518216D01*
X156145147Y-67370646D01*
X156270646Y-67245147D01*
X156418216Y-67146544D01*
X156582188Y-67078624D01*
X156736863Y-67047858D01*
X156756258Y-67044000D01*
X156933742Y-67044000D01*
X156953137Y-67047858D01*
G37*
G36*
X144253137Y-67047858D02*
G01*
X144407812Y-67078624D01*
X144571784Y-67146544D01*
X144719354Y-67245147D01*
X144844853Y-67370646D01*
X144943456Y-67518216D01*
X145011376Y-67682188D01*
X145046000Y-67856259D01*
X145046000Y-68033741D01*
X145011376Y-68207812D01*
X144943456Y-68371784D01*
X144844853Y-68519354D01*
X144719354Y-68644853D01*
X144571784Y-68743456D01*
X144407812Y-68811376D01*
X144258512Y-68841073D01*
X144233742Y-68846000D01*
X144056258Y-68846000D01*
X144031488Y-68841073D01*
X143882188Y-68811376D01*
X143718216Y-68743456D01*
X143570646Y-68644853D01*
X143445147Y-68519354D01*
X143346544Y-68371784D01*
X143278624Y-68207812D01*
X143244000Y-68033741D01*
X143244000Y-67856259D01*
X143278624Y-67682188D01*
X143346544Y-67518216D01*
X143445147Y-67370646D01*
X143570646Y-67245147D01*
X143718216Y-67146544D01*
X143882188Y-67078624D01*
X144036863Y-67047858D01*
X144056258Y-67044000D01*
X144233742Y-67044000D01*
X144253137Y-67047858D01*
G37*
G36*
X141713137Y-67047858D02*
G01*
X141867812Y-67078624D01*
X142031784Y-67146544D01*
X142179354Y-67245147D01*
X142304853Y-67370646D01*
X142403456Y-67518216D01*
X142471376Y-67682188D01*
X142506000Y-67856259D01*
X142506000Y-68033741D01*
X142471376Y-68207812D01*
X142403456Y-68371784D01*
X142304853Y-68519354D01*
X142179354Y-68644853D01*
X142031784Y-68743456D01*
X141867812Y-68811376D01*
X141718512Y-68841073D01*
X141693742Y-68846000D01*
X141516258Y-68846000D01*
X141491488Y-68841073D01*
X141342188Y-68811376D01*
X141178216Y-68743456D01*
X141030646Y-68644853D01*
X140905147Y-68519354D01*
X140806544Y-68371784D01*
X140738624Y-68207812D01*
X140704000Y-68033741D01*
X140704000Y-67856259D01*
X140738624Y-67682188D01*
X140806544Y-67518216D01*
X140905147Y-67370646D01*
X141030646Y-67245147D01*
X141178216Y-67146544D01*
X141342188Y-67078624D01*
X141496863Y-67047858D01*
X141516258Y-67044000D01*
X141693742Y-67044000D01*
X141713137Y-67047858D01*
G37*
G36*
X123933137Y-67047858D02*
G01*
X124087812Y-67078624D01*
X124251784Y-67146544D01*
X124399354Y-67245147D01*
X124524853Y-67370646D01*
X124623456Y-67518216D01*
X124691376Y-67682188D01*
X124726000Y-67856259D01*
X124726000Y-68033741D01*
X124691376Y-68207812D01*
X124623456Y-68371784D01*
X124524853Y-68519354D01*
X124399354Y-68644853D01*
X124251784Y-68743456D01*
X124087812Y-68811376D01*
X123938512Y-68841073D01*
X123913742Y-68846000D01*
X123736258Y-68846000D01*
X123711488Y-68841073D01*
X123562188Y-68811376D01*
X123398216Y-68743456D01*
X123250646Y-68644853D01*
X123125147Y-68519354D01*
X123026544Y-68371784D01*
X122958624Y-68207812D01*
X122924000Y-68033741D01*
X122924000Y-67856259D01*
X122958624Y-67682188D01*
X123026544Y-67518216D01*
X123125147Y-67370646D01*
X123250646Y-67245147D01*
X123398216Y-67146544D01*
X123562188Y-67078624D01*
X123716863Y-67047858D01*
X123736258Y-67044000D01*
X123913742Y-67044000D01*
X123933137Y-67047858D01*
G37*
G36*
X126473137Y-67047858D02*
G01*
X126627812Y-67078624D01*
X126791784Y-67146544D01*
X126939354Y-67245147D01*
X127064853Y-67370646D01*
X127163456Y-67518216D01*
X127231376Y-67682188D01*
X127266000Y-67856259D01*
X127266000Y-68033741D01*
X127231376Y-68207812D01*
X127163456Y-68371784D01*
X127064853Y-68519354D01*
X126939354Y-68644853D01*
X126791784Y-68743456D01*
X126627812Y-68811376D01*
X126478512Y-68841073D01*
X126453742Y-68846000D01*
X126276258Y-68846000D01*
X126251488Y-68841073D01*
X126102188Y-68811376D01*
X125938216Y-68743456D01*
X125790646Y-68644853D01*
X125665147Y-68519354D01*
X125566544Y-68371784D01*
X125498624Y-68207812D01*
X125464000Y-68033741D01*
X125464000Y-67856259D01*
X125498624Y-67682188D01*
X125566544Y-67518216D01*
X125665147Y-67370646D01*
X125790646Y-67245147D01*
X125938216Y-67146544D01*
X126102188Y-67078624D01*
X126256863Y-67047858D01*
X126276258Y-67044000D01*
X126453742Y-67044000D01*
X126473137Y-67047858D01*
G37*
G36*
X139173137Y-67047858D02*
G01*
X139327812Y-67078624D01*
X139491784Y-67146544D01*
X139639354Y-67245147D01*
X139764853Y-67370646D01*
X139863456Y-67518216D01*
X139931376Y-67682188D01*
X139966000Y-67856259D01*
X139966000Y-68033741D01*
X139931376Y-68207812D01*
X139863456Y-68371784D01*
X139764853Y-68519354D01*
X139639354Y-68644853D01*
X139491784Y-68743456D01*
X139327812Y-68811376D01*
X139178512Y-68841073D01*
X139153742Y-68846000D01*
X138976258Y-68846000D01*
X138951488Y-68841073D01*
X138802188Y-68811376D01*
X138638216Y-68743456D01*
X138490646Y-68644853D01*
X138365147Y-68519354D01*
X138266544Y-68371784D01*
X138198624Y-68207812D01*
X138164000Y-68033741D01*
X138164000Y-67856259D01*
X138198624Y-67682188D01*
X138266544Y-67518216D01*
X138365147Y-67370646D01*
X138490646Y-67245147D01*
X138638216Y-67146544D01*
X138802188Y-67078624D01*
X138956863Y-67047858D01*
X138976258Y-67044000D01*
X139153742Y-67044000D01*
X139173137Y-67047858D01*
G37*
G36*
X129013137Y-67047858D02*
G01*
X129167812Y-67078624D01*
X129331784Y-67146544D01*
X129479354Y-67245147D01*
X129604853Y-67370646D01*
X129703456Y-67518216D01*
X129771376Y-67682188D01*
X129806000Y-67856259D01*
X129806000Y-68033741D01*
X129771376Y-68207812D01*
X129703456Y-68371784D01*
X129604853Y-68519354D01*
X129479354Y-68644853D01*
X129331784Y-68743456D01*
X129167812Y-68811376D01*
X129018512Y-68841073D01*
X128993742Y-68846000D01*
X128816258Y-68846000D01*
X128791488Y-68841073D01*
X128642188Y-68811376D01*
X128478216Y-68743456D01*
X128330646Y-68644853D01*
X128205147Y-68519354D01*
X128106544Y-68371784D01*
X128038624Y-68207812D01*
X128004000Y-68033741D01*
X128004000Y-67856259D01*
X128038624Y-67682188D01*
X128106544Y-67518216D01*
X128205147Y-67370646D01*
X128330646Y-67245147D01*
X128478216Y-67146544D01*
X128642188Y-67078624D01*
X128796863Y-67047858D01*
X128816258Y-67044000D01*
X128993742Y-67044000D01*
X129013137Y-67047858D01*
G37*
G36*
X136633137Y-67047858D02*
G01*
X136787812Y-67078624D01*
X136951784Y-67146544D01*
X137099354Y-67245147D01*
X137224853Y-67370646D01*
X137323456Y-67518216D01*
X137391376Y-67682188D01*
X137426000Y-67856259D01*
X137426000Y-68033741D01*
X137391376Y-68207812D01*
X137323456Y-68371784D01*
X137224853Y-68519354D01*
X137099354Y-68644853D01*
X136951784Y-68743456D01*
X136787812Y-68811376D01*
X136638512Y-68841073D01*
X136613742Y-68846000D01*
X136436258Y-68846000D01*
X136411488Y-68841073D01*
X136262188Y-68811376D01*
X136098216Y-68743456D01*
X135950646Y-68644853D01*
X135825147Y-68519354D01*
X135726544Y-68371784D01*
X135658624Y-68207812D01*
X135624000Y-68033741D01*
X135624000Y-67856259D01*
X135658624Y-67682188D01*
X135726544Y-67518216D01*
X135825147Y-67370646D01*
X135950646Y-67245147D01*
X136098216Y-67146544D01*
X136262188Y-67078624D01*
X136416863Y-67047858D01*
X136436258Y-67044000D01*
X136613742Y-67044000D01*
X136633137Y-67047858D01*
G37*
G36*
X134093137Y-67047858D02*
G01*
X134247812Y-67078624D01*
X134411784Y-67146544D01*
X134559354Y-67245147D01*
X134684853Y-67370646D01*
X134783456Y-67518216D01*
X134851376Y-67682188D01*
X134886000Y-67856259D01*
X134886000Y-68033741D01*
X134851376Y-68207812D01*
X134783456Y-68371784D01*
X134684853Y-68519354D01*
X134559354Y-68644853D01*
X134411784Y-68743456D01*
X134247812Y-68811376D01*
X134098512Y-68841073D01*
X134073742Y-68846000D01*
X133896258Y-68846000D01*
X133871488Y-68841073D01*
X133722188Y-68811376D01*
X133558216Y-68743456D01*
X133410646Y-68644853D01*
X133285147Y-68519354D01*
X133186544Y-68371784D01*
X133118624Y-68207812D01*
X133084000Y-68033741D01*
X133084000Y-67856259D01*
X133118624Y-67682188D01*
X133186544Y-67518216D01*
X133285147Y-67370646D01*
X133410646Y-67245147D01*
X133558216Y-67146544D01*
X133722188Y-67078624D01*
X133876863Y-67047858D01*
X133896258Y-67044000D01*
X134073742Y-67044000D01*
X134093137Y-67047858D01*
G37*
G36*
X131553137Y-67047858D02*
G01*
X131707812Y-67078624D01*
X131871784Y-67146544D01*
X132019354Y-67245147D01*
X132144853Y-67370646D01*
X132243456Y-67518216D01*
X132311376Y-67682188D01*
X132346000Y-67856259D01*
X132346000Y-68033741D01*
X132311376Y-68207812D01*
X132243456Y-68371784D01*
X132144853Y-68519354D01*
X132019354Y-68644853D01*
X131871784Y-68743456D01*
X131707812Y-68811376D01*
X131558512Y-68841073D01*
X131533742Y-68846000D01*
X131356258Y-68846000D01*
X131331488Y-68841073D01*
X131182188Y-68811376D01*
X131018216Y-68743456D01*
X130870646Y-68644853D01*
X130745147Y-68519354D01*
X130646544Y-68371784D01*
X130578624Y-68207812D01*
X130544000Y-68033741D01*
X130544000Y-67856259D01*
X130578624Y-67682188D01*
X130646544Y-67518216D01*
X130745147Y-67370646D01*
X130870646Y-67245147D01*
X131018216Y-67146544D01*
X131182188Y-67078624D01*
X131336863Y-67047858D01*
X131356258Y-67044000D01*
X131533742Y-67044000D01*
X131553137Y-67047858D01*
G37*
G36*
X122186000Y-68846000D02*
G01*
X120384000Y-68846000D01*
X120384000Y-67044000D01*
X122186000Y-67044000D01*
X122186000Y-68846000D01*
G37*
G36*
X191451366Y-64635695D02*
G01*
X191608460Y-64683349D01*
X191753231Y-64760731D01*
X191880128Y-64864872D01*
X191984269Y-64991769D01*
X192061651Y-65136540D01*
X192109305Y-65293634D01*
X192126000Y-65463140D01*
X192126000Y-67376860D01*
X192109305Y-67546366D01*
X192061651Y-67703460D01*
X191984269Y-67848231D01*
X191880128Y-67975128D01*
X191753231Y-68079269D01*
X191608460Y-68156651D01*
X191451366Y-68204305D01*
X191281860Y-68221000D01*
X189368140Y-68221000D01*
X189198634Y-68204305D01*
X189041540Y-68156651D01*
X188896769Y-68079269D01*
X188769872Y-67975128D01*
X188665731Y-67848231D01*
X188588349Y-67703460D01*
X188540695Y-67546366D01*
X188524000Y-67376860D01*
X188524000Y-65463140D01*
X188540695Y-65293634D01*
X188588349Y-65136540D01*
X188665731Y-64991769D01*
X188769872Y-64864872D01*
X188896769Y-64760731D01*
X189041540Y-64683349D01*
X189198634Y-64635695D01*
X189368140Y-64619000D01*
X191281860Y-64619000D01*
X191451366Y-64635695D01*
G37*
G36*
X167661999Y-65747737D02*
G01*
X167676528Y-65752145D01*
X167689711Y-65757606D01*
X167713745Y-65762388D01*
X167738249Y-65762389D01*
X167762282Y-65757609D01*
X167784921Y-65748232D01*
X167786765Y-65747000D01*
X169018050Y-65747000D01*
X169030164Y-65753475D01*
X169053613Y-65760588D01*
X169077999Y-65762990D01*
X169102385Y-65760588D01*
X169125834Y-65753475D01*
X169130746Y-65751152D01*
X169142001Y-65747737D01*
X169158140Y-65746148D01*
X169695861Y-65746148D01*
X169714199Y-65747954D01*
X169726450Y-65748556D01*
X169744869Y-65748556D01*
X169767149Y-65750750D01*
X169851233Y-65767476D01*
X169872660Y-65773976D01*
X169951858Y-65806780D01*
X169957303Y-65809691D01*
X169957309Y-65809693D01*
X169966169Y-65814429D01*
X169966173Y-65814432D01*
X169971614Y-65817340D01*
X170042899Y-65864971D01*
X170060204Y-65879172D01*
X170120828Y-65939796D01*
X170135029Y-65957101D01*
X170182660Y-66028386D01*
X170185568Y-66033827D01*
X170185571Y-66033831D01*
X170190307Y-66042691D01*
X170190309Y-66042697D01*
X170193220Y-66048142D01*
X170226024Y-66127340D01*
X170232524Y-66148767D01*
X170249250Y-66232851D01*
X170251444Y-66255131D01*
X170251444Y-66273550D01*
X170252046Y-66285801D01*
X170253852Y-66304139D01*
X170253852Y-66791862D01*
X170252046Y-66810199D01*
X170251444Y-66822450D01*
X170251444Y-66840869D01*
X170249250Y-66863149D01*
X170232524Y-66947233D01*
X170226024Y-66968660D01*
X170193220Y-67047858D01*
X170190309Y-67053303D01*
X170190307Y-67053309D01*
X170185571Y-67062169D01*
X170185568Y-67062173D01*
X170182660Y-67067614D01*
X170135029Y-67138899D01*
X170120828Y-67156204D01*
X170060204Y-67216828D01*
X170042899Y-67231029D01*
X169971614Y-67278660D01*
X169966173Y-67281568D01*
X169966169Y-67281571D01*
X169957309Y-67286307D01*
X169957303Y-67286309D01*
X169951858Y-67289220D01*
X169872660Y-67322024D01*
X169851233Y-67328524D01*
X169767149Y-67345250D01*
X169744869Y-67347444D01*
X169726450Y-67347444D01*
X169714199Y-67348046D01*
X169695862Y-67349852D01*
X169158140Y-67349852D01*
X169142001Y-67348263D01*
X169127472Y-67343855D01*
X169114289Y-67338394D01*
X169090255Y-67333612D01*
X169065751Y-67333611D01*
X169041718Y-67338391D01*
X169019079Y-67347768D01*
X169017235Y-67349000D01*
X167785950Y-67349000D01*
X167773836Y-67342525D01*
X167750387Y-67335412D01*
X167726001Y-67333010D01*
X167701615Y-67335412D01*
X167678166Y-67342525D01*
X167673254Y-67344848D01*
X167661999Y-67348263D01*
X167645860Y-67349852D01*
X167108138Y-67349852D01*
X167089801Y-67348046D01*
X167077550Y-67347444D01*
X167059131Y-67347444D01*
X167036851Y-67345250D01*
X166952767Y-67328524D01*
X166931340Y-67322024D01*
X166852142Y-67289220D01*
X166846697Y-67286309D01*
X166846691Y-67286307D01*
X166837831Y-67281571D01*
X166837827Y-67281568D01*
X166832386Y-67278660D01*
X166761101Y-67231029D01*
X166743796Y-67216828D01*
X166683172Y-67156204D01*
X166668971Y-67138899D01*
X166621340Y-67067614D01*
X166618432Y-67062173D01*
X166618429Y-67062169D01*
X166613693Y-67053309D01*
X166613691Y-67053303D01*
X166610780Y-67047858D01*
X166577976Y-66968660D01*
X166571476Y-66947233D01*
X166554750Y-66863149D01*
X166552556Y-66840869D01*
X166552556Y-66822450D01*
X166551954Y-66810199D01*
X166550148Y-66791862D01*
X166550148Y-66304139D01*
X166551954Y-66285801D01*
X166552556Y-66273550D01*
X166552556Y-66255131D01*
X166554750Y-66232851D01*
X166571476Y-66148767D01*
X166577976Y-66127340D01*
X166610780Y-66048142D01*
X166613691Y-66042697D01*
X166613693Y-66042691D01*
X166618429Y-66033831D01*
X166618432Y-66033827D01*
X166621340Y-66028386D01*
X166668971Y-65957101D01*
X166683172Y-65939796D01*
X166743796Y-65879172D01*
X166761101Y-65864971D01*
X166832386Y-65817340D01*
X166837827Y-65814432D01*
X166837831Y-65814429D01*
X166846691Y-65809693D01*
X166846697Y-65809691D01*
X166852142Y-65806780D01*
X166931340Y-65773976D01*
X166952767Y-65767476D01*
X167036851Y-65750750D01*
X167059131Y-65748556D01*
X167077550Y-65748556D01*
X167089801Y-65747954D01*
X167108139Y-65746148D01*
X167645860Y-65746148D01*
X167661999Y-65747737D01*
G37*
M02*
