M48
; DRILL file {KiCad (5.1.9-0-10_14)} date Wednesday, June 02, 2021 at 02:27:08 PM
; FORMAT={-:-/ absolute / inch / decimal}
; #@! TF.CreationDate,2021-06-02T14:27:08-05:00
; #@! TF.GenerationSoftware,Kicad,Pcbnew,(5.1.9-0-10_14)
; #@! TF.FileFunction,Plated,1,2,PTH
FMAT,2
INCH
T1C0.0157
T2C0.0197
T3C0.0236
T4C0.0335
T5C0.0354
T6C0.0390
T7C0.0394
T8C0.0512
T9C0.0984
%
G90
G05
T1
X5.0405Y-4.0883
X5.1205Y-2.8883
X5.1355Y-3.0533
X5.2055Y-3.4783
X5.3955Y-4.2183
X5.4405Y-3.5183
X5.5155Y-3.5083
X5.5155Y-4.1283
X5.6055Y-4.0633
X5.6505Y-4.4183
X5.6805Y-3.2302
X5.8305Y-3.2302
X5.9805Y-3.2302
X5.9905Y-3.6633
X6.0555Y-3.4733
X6.1305Y-3.2302
X6.1855Y-3.4883
X6.7105Y-4.1883
X6.7255Y-2.9983
T2
X4.8317Y-2.8433
X4.8317Y-4.2683
X4.8533Y-2.7911
X4.8533Y-2.8955
X4.8533Y-4.2161
X4.8533Y-4.3205
X4.8855Y-3.8383
X4.9055Y-2.7695
X4.9055Y-2.9171
X4.9055Y-4.1945
X4.9055Y-4.3421
X4.9577Y-2.7911
X4.9577Y-2.8955
X4.9577Y-4.2161
X4.9577Y-4.3205
X4.9793Y-2.8433
X4.9793Y-4.2683
X4.9805Y-3.8433
X5.2555Y-2.6983
X5.2705Y-2.8383
X5.4805Y-2.3433
X5.5805Y-4.5933
X5.7305Y-3.7183
X5.8805Y-4.3933
X5.9055Y-3.7183
X5.9679Y-3.9933
X6.2305Y-3.2833
X6.6655Y-4.3383
X6.8317Y-2.8433
X6.8317Y-4.2683
X6.8446Y-3.2533
X6.8533Y-2.7911
X6.8533Y-2.8955
X6.8533Y-4.2161
X6.8533Y-4.3205
X6.9055Y-2.7695
X6.9055Y-2.9171
X6.9055Y-4.1945
X6.9055Y-4.3421
X6.9577Y-2.7911
X6.9577Y-2.8955
X6.9577Y-4.2161
X6.9577Y-4.3205
X6.9793Y-2.8433
X6.9793Y-4.2683
X6.9946Y-3.5492
T4
X5.5321Y-4.6857
X5.7289Y-4.6857
T5
X4.7213Y-3.9243
X4.7305Y-3.1683
X4.7555Y-4.0183
X4.7647Y-3.0743
X4.9805Y-3.6933
X5.0655Y-2.6233
X5.0689Y-4.464
X5.0805Y-3.6933
X5.1421Y-2.559
X5.1455Y-4.5283
X5.1805Y-3.6933
X6.6305Y-3.6933
X6.6655Y-2.5583
X6.6689Y-4.5226
X6.7305Y-3.6933
X6.7421Y-2.6226
X6.7455Y-4.4583
X6.8305Y-3.6933
X7.0555Y-3.0633
X7.0563Y-4.0173
X7.0897Y-3.1573
X7.0905Y-3.9233
T6
X4.6555Y-3.4561
X4.6555Y-3.6333
X7.1605Y-3.4533
X7.1605Y-3.6305
T7
X5.1055Y-3.9933
X5.2055Y-3.9933
X5.3055Y-3.9933
X5.4055Y-2.3683
X5.4055Y-2.4683
X5.4055Y-2.5683
X5.4055Y-2.6683
X5.4055Y-2.7683
X5.4055Y-2.8683
X5.4055Y-2.9683
X5.4055Y-3.0683
X5.4055Y-3.1683
X5.4055Y-3.2683
X5.4055Y-3.3683
X5.4055Y-3.4683
X5.4055Y-3.5683
X5.4055Y-3.6683
X5.4055Y-3.7683
X5.6555Y-3.5433
X5.7555Y-3.5433
X5.8555Y-3.5433
X5.8805Y-4.6683
X5.8805Y-4.7683
X5.9555Y-3.5433
X6.0555Y-3.5433
X6.1555Y-3.5433
X6.4055Y-2.3683
X6.4055Y-2.4683
X6.4055Y-2.5683
X6.4055Y-2.6683
X6.4055Y-2.7683
X6.4055Y-2.8683
X6.4055Y-2.9683
X6.4055Y-3.0683
X6.4055Y-3.1683
X6.4055Y-3.2683
X6.4055Y-3.3683
X6.4055Y-3.4683
X6.4055Y-3.5683
X6.4055Y-3.6683
X6.4055Y-3.7683
X6.5055Y-3.9933
X6.6055Y-3.9933
T8
X4.7535Y-3.4065
X4.7535Y-3.6825
X7.0625Y-3.4041
X7.0625Y-3.6801
T9
X4.9055Y-2.8433
X4.9055Y-4.2683
X6.9055Y-2.8433
X6.9055Y-4.2683
T3
G00X5.4927Y-4.8058
M15
G01X5.4927Y-4.7782
M16
G05
G00X5.7683Y-4.7782
M15
G01X5.7683Y-4.8058
M16
G05
T7
G00X6.1161Y-4.3933
M15
G01X6.1949Y-4.3933
M16
G05
G00X6.1161Y-4.6295
M15
G01X6.1949Y-4.6295
M16
G05
G00X6.3406Y-4.5508
M15
G01X6.3406Y-4.472
M16
G05
T0
M30
