G04 #@! TF.GenerationSoftware,KiCad,Pcbnew,(5.1.9-0-10_14)*
G04 #@! TF.CreationDate,2021-06-02T14:27:10-05:00*
G04 #@! TF.ProjectId,kbxIrBlaster,6b627849-7242-46c6-9173-7465722e6b69,rev?*
G04 #@! TF.SameCoordinates,Original*
G04 #@! TF.FileFunction,Paste,Bot*
G04 #@! TF.FilePolarity,Positive*
%FSLAX46Y46*%
G04 Gerber Fmt 4.6, Leading zero omitted, Abs format (unit mm)*
G04 Created by KiCad (PCBNEW (5.1.9-0-10_14)) date 2021-06-02 14:27:10*
%MOMM*%
%LPD*%
G01*
G04 APERTURE LIST*
%ADD10R,0.900000X0.800000*%
%ADD11R,1.100000X1.100000*%
%ADD12R,1.060000X0.650000*%
%ADD13R,0.800000X0.900000*%
G04 APERTURE END LIST*
D10*
X169320000Y-97620000D03*
X171320000Y-98570000D03*
X171320000Y-96670000D03*
G36*
G01*
X176190000Y-83199998D02*
X176190000Y-84100002D01*
G75*
G02*
X175940002Y-84350000I-249998J0D01*
G01*
X175414998Y-84350000D01*
G75*
G02*
X175165000Y-84100002I0J249998D01*
G01*
X175165000Y-83199998D01*
G75*
G02*
X175414998Y-82950000I249998J0D01*
G01*
X175940002Y-82950000D01*
G75*
G02*
X176190000Y-83199998I0J-249998D01*
G01*
G37*
G36*
G01*
X174365000Y-83199998D02*
X174365000Y-84100002D01*
G75*
G02*
X174115002Y-84350000I-249998J0D01*
G01*
X173589998Y-84350000D01*
G75*
G02*
X173340000Y-84100002I0J249998D01*
G01*
X173340000Y-83199998D01*
G75*
G02*
X173589998Y-82950000I249998J0D01*
G01*
X174115002Y-82950000D01*
G75*
G02*
X174365000Y-83199998I0J-249998D01*
G01*
G37*
G36*
G01*
X167545000Y-108230002D02*
X167545000Y-107329998D01*
G75*
G02*
X167794998Y-107080000I249998J0D01*
G01*
X168320002Y-107080000D01*
G75*
G02*
X168570000Y-107329998I0J-249998D01*
G01*
X168570000Y-108230002D01*
G75*
G02*
X168320002Y-108480000I-249998J0D01*
G01*
X167794998Y-108480000D01*
G75*
G02*
X167545000Y-108230002I0J249998D01*
G01*
G37*
G36*
G01*
X165720000Y-108230002D02*
X165720000Y-107329998D01*
G75*
G02*
X165969998Y-107080000I249998J0D01*
G01*
X166495002Y-107080000D01*
G75*
G02*
X166745000Y-107329998I0J-249998D01*
G01*
X166745000Y-108230002D01*
G75*
G02*
X166495002Y-108480000I-249998J0D01*
G01*
X165969998Y-108480000D01*
G75*
G02*
X165720000Y-108230002I0J249998D01*
G01*
G37*
G36*
G01*
X125635000Y-96800002D02*
X125635000Y-95899998D01*
G75*
G02*
X125884998Y-95650000I249998J0D01*
G01*
X126410002Y-95650000D01*
G75*
G02*
X126660000Y-95899998I0J-249998D01*
G01*
X126660000Y-96800002D01*
G75*
G02*
X126410002Y-97050000I-249998J0D01*
G01*
X125884998Y-97050000D01*
G75*
G02*
X125635000Y-96800002I0J249998D01*
G01*
G37*
G36*
G01*
X123810000Y-96800002D02*
X123810000Y-95899998D01*
G75*
G02*
X124059998Y-95650000I249998J0D01*
G01*
X124585002Y-95650000D01*
G75*
G02*
X124835000Y-95899998I0J-249998D01*
G01*
X124835000Y-96800002D01*
G75*
G02*
X124585002Y-97050000I-249998J0D01*
G01*
X124059998Y-97050000D01*
G75*
G02*
X123810000Y-96800002I0J249998D01*
G01*
G37*
G36*
G01*
X133940002Y-69915000D02*
X133039998Y-69915000D01*
G75*
G02*
X132790000Y-69665002I0J249998D01*
G01*
X132790000Y-69139998D01*
G75*
G02*
X133039998Y-68890000I249998J0D01*
G01*
X133940002Y-68890000D01*
G75*
G02*
X134190000Y-69139998I0J-249998D01*
G01*
X134190000Y-69665002D01*
G75*
G02*
X133940002Y-69915000I-249998J0D01*
G01*
G37*
G36*
G01*
X133940002Y-71740000D02*
X133039998Y-71740000D01*
G75*
G02*
X132790000Y-71490002I0J249998D01*
G01*
X132790000Y-70964998D01*
G75*
G02*
X133039998Y-70715000I249998J0D01*
G01*
X133940002Y-70715000D01*
G75*
G02*
X134190000Y-70964998I0J-249998D01*
G01*
X134190000Y-71490002D01*
G75*
G02*
X133940002Y-71740000I-249998J0D01*
G01*
G37*
D11*
X145555000Y-115530000D03*
X145555000Y-112730000D03*
X152035000Y-109685000D03*
X149235000Y-109685000D03*
X149365000Y-115530000D03*
X149365000Y-112730000D03*
D12*
X144455000Y-93495000D03*
X144455000Y-95395000D03*
X146655000Y-95395000D03*
X146655000Y-94445000D03*
X146655000Y-93495000D03*
G36*
G01*
X139020002Y-113730000D02*
X138119998Y-113730000D01*
G75*
G02*
X137870000Y-113480002I0J249998D01*
G01*
X137870000Y-112954998D01*
G75*
G02*
X138119998Y-112705000I249998J0D01*
G01*
X139020002Y-112705000D01*
G75*
G02*
X139270000Y-112954998I0J-249998D01*
G01*
X139270000Y-113480002D01*
G75*
G02*
X139020002Y-113730000I-249998J0D01*
G01*
G37*
G36*
G01*
X139020002Y-115555000D02*
X138119998Y-115555000D01*
G75*
G02*
X137870000Y-115305002I0J249998D01*
G01*
X137870000Y-114779998D01*
G75*
G02*
X138119998Y-114530000I249998J0D01*
G01*
X139020002Y-114530000D01*
G75*
G02*
X139270000Y-114779998I0J-249998D01*
G01*
X139270000Y-115305002D01*
G75*
G02*
X139020002Y-115555000I-249998J0D01*
G01*
G37*
G36*
G01*
X138119998Y-110085000D02*
X139020002Y-110085000D01*
G75*
G02*
X139270000Y-110334998I0J-249998D01*
G01*
X139270000Y-110860002D01*
G75*
G02*
X139020002Y-111110000I-249998J0D01*
G01*
X138119998Y-111110000D01*
G75*
G02*
X137870000Y-110860002I0J249998D01*
G01*
X137870000Y-110334998D01*
G75*
G02*
X138119998Y-110085000I249998J0D01*
G01*
G37*
G36*
G01*
X138119998Y-108260000D02*
X139020002Y-108260000D01*
G75*
G02*
X139270000Y-108509998I0J-249998D01*
G01*
X139270000Y-109035002D01*
G75*
G02*
X139020002Y-109285000I-249998J0D01*
G01*
X138119998Y-109285000D01*
G75*
G02*
X137870000Y-109035002I0J249998D01*
G01*
X137870000Y-108509998D01*
G75*
G02*
X138119998Y-108260000I249998J0D01*
G01*
G37*
G36*
G01*
X157435002Y-94045000D02*
X156534998Y-94045000D01*
G75*
G02*
X156285000Y-93795002I0J249998D01*
G01*
X156285000Y-93269998D01*
G75*
G02*
X156534998Y-93020000I249998J0D01*
G01*
X157435002Y-93020000D01*
G75*
G02*
X157685000Y-93269998I0J-249998D01*
G01*
X157685000Y-93795002D01*
G75*
G02*
X157435002Y-94045000I-249998J0D01*
G01*
G37*
G36*
G01*
X157435002Y-95870000D02*
X156534998Y-95870000D01*
G75*
G02*
X156285000Y-95620002I0J249998D01*
G01*
X156285000Y-95094998D01*
G75*
G02*
X156534998Y-94845000I249998J0D01*
G01*
X157435002Y-94845000D01*
G75*
G02*
X157685000Y-95094998I0J-249998D01*
G01*
X157685000Y-95620002D01*
G75*
G02*
X157435002Y-95870000I-249998J0D01*
G01*
G37*
G36*
G01*
X141294998Y-114530000D02*
X142195002Y-114530000D01*
G75*
G02*
X142445000Y-114779998I0J-249998D01*
G01*
X142445000Y-115305002D01*
G75*
G02*
X142195002Y-115555000I-249998J0D01*
G01*
X141294998Y-115555000D01*
G75*
G02*
X141045000Y-115305002I0J249998D01*
G01*
X141045000Y-114779998D01*
G75*
G02*
X141294998Y-114530000I249998J0D01*
G01*
G37*
G36*
G01*
X141294998Y-112705000D02*
X142195002Y-112705000D01*
G75*
G02*
X142445000Y-112954998I0J-249998D01*
G01*
X142445000Y-113480002D01*
G75*
G02*
X142195002Y-113730000I-249998J0D01*
G01*
X141294998Y-113730000D01*
G75*
G02*
X141045000Y-113480002I0J249998D01*
G01*
X141045000Y-112954998D01*
G75*
G02*
X141294998Y-112705000I249998J0D01*
G01*
G37*
G36*
G01*
X134575002Y-64120000D02*
X133674998Y-64120000D01*
G75*
G02*
X133425000Y-63870002I0J249998D01*
G01*
X133425000Y-63344998D01*
G75*
G02*
X133674998Y-63095000I249998J0D01*
G01*
X134575002Y-63095000D01*
G75*
G02*
X134825000Y-63344998I0J-249998D01*
G01*
X134825000Y-63870002D01*
G75*
G02*
X134575002Y-64120000I-249998J0D01*
G01*
G37*
G36*
G01*
X134575002Y-62295000D02*
X133674998Y-62295000D01*
G75*
G02*
X133425000Y-62045002I0J249998D01*
G01*
X133425000Y-61519998D01*
G75*
G02*
X133674998Y-61270000I249998J0D01*
G01*
X134575002Y-61270000D01*
G75*
G02*
X134825000Y-61519998I0J-249998D01*
G01*
X134825000Y-62045002D01*
G75*
G02*
X134575002Y-62295000I-249998J0D01*
G01*
G37*
G36*
G01*
X154260002Y-94045000D02*
X153359998Y-94045000D01*
G75*
G02*
X153110000Y-93795002I0J249998D01*
G01*
X153110000Y-93269998D01*
G75*
G02*
X153359998Y-93020000I249998J0D01*
G01*
X154260002Y-93020000D01*
G75*
G02*
X154510000Y-93269998I0J-249998D01*
G01*
X154510000Y-93795002D01*
G75*
G02*
X154260002Y-94045000I-249998J0D01*
G01*
G37*
G36*
G01*
X154260002Y-95870000D02*
X153359998Y-95870000D01*
G75*
G02*
X153110000Y-95620002I0J249998D01*
G01*
X153110000Y-95094998D01*
G75*
G02*
X153359998Y-94845000I249998J0D01*
G01*
X154260002Y-94845000D01*
G75*
G02*
X154510000Y-95094998I0J-249998D01*
G01*
X154510000Y-95620002D01*
G75*
G02*
X154260002Y-95870000I-249998J0D01*
G01*
G37*
G36*
G01*
X168815000Y-73940002D02*
X168815000Y-73039998D01*
G75*
G02*
X169064998Y-72790000I249998J0D01*
G01*
X169590002Y-72790000D01*
G75*
G02*
X169840000Y-73039998I0J-249998D01*
G01*
X169840000Y-73940002D01*
G75*
G02*
X169590002Y-74190000I-249998J0D01*
G01*
X169064998Y-74190000D01*
G75*
G02*
X168815000Y-73940002I0J249998D01*
G01*
G37*
G36*
G01*
X166990000Y-73940002D02*
X166990000Y-73039998D01*
G75*
G02*
X167239998Y-72790000I249998J0D01*
G01*
X167765002Y-72790000D01*
G75*
G02*
X168015000Y-73039998I0J-249998D01*
G01*
X168015000Y-73940002D01*
G75*
G02*
X167765002Y-74190000I-249998J0D01*
G01*
X167239998Y-74190000D01*
G75*
G02*
X166990000Y-73940002I0J249998D01*
G01*
G37*
G36*
G01*
X174365000Y-102884998D02*
X174365000Y-103785002D01*
G75*
G02*
X174115002Y-104035000I-249998J0D01*
G01*
X173589998Y-104035000D01*
G75*
G02*
X173340000Y-103785002I0J249998D01*
G01*
X173340000Y-102884998D01*
G75*
G02*
X173589998Y-102635000I249998J0D01*
G01*
X174115002Y-102635000D01*
G75*
G02*
X174365000Y-102884998I0J-249998D01*
G01*
G37*
G36*
G01*
X176190000Y-102884998D02*
X176190000Y-103785002D01*
G75*
G02*
X175940002Y-104035000I-249998J0D01*
G01*
X175414998Y-104035000D01*
G75*
G02*
X175165000Y-103785002I0J249998D01*
G01*
X175165000Y-102884998D01*
G75*
G02*
X175414998Y-102635000I249998J0D01*
G01*
X175940002Y-102635000D01*
G75*
G02*
X176190000Y-102884998I0J-249998D01*
G01*
G37*
G36*
G01*
X133010000Y-105424998D02*
X133010000Y-106325002D01*
G75*
G02*
X132760002Y-106575000I-249998J0D01*
G01*
X132234998Y-106575000D01*
G75*
G02*
X131985000Y-106325002I0J249998D01*
G01*
X131985000Y-105424998D01*
G75*
G02*
X132234998Y-105175000I249998J0D01*
G01*
X132760002Y-105175000D01*
G75*
G02*
X133010000Y-105424998I0J-249998D01*
G01*
G37*
G36*
G01*
X131185000Y-105424998D02*
X131185000Y-106325002D01*
G75*
G02*
X130935002Y-106575000I-249998J0D01*
G01*
X130409998Y-106575000D01*
G75*
G02*
X130160000Y-106325002I0J249998D01*
G01*
X130160000Y-105424998D01*
G75*
G02*
X130409998Y-105175000I249998J0D01*
G01*
X130935002Y-105175000D01*
G75*
G02*
X131185000Y-105424998I0J-249998D01*
G01*
G37*
G36*
G01*
X124200000Y-76849998D02*
X124200000Y-77750002D01*
G75*
G02*
X123950002Y-78000000I-249998J0D01*
G01*
X123424998Y-78000000D01*
G75*
G02*
X123175000Y-77750002I0J249998D01*
G01*
X123175000Y-76849998D01*
G75*
G02*
X123424998Y-76600000I249998J0D01*
G01*
X123950002Y-76600000D01*
G75*
G02*
X124200000Y-76849998I0J-249998D01*
G01*
G37*
G36*
G01*
X126025000Y-76849998D02*
X126025000Y-77750002D01*
G75*
G02*
X125775002Y-78000000I-249998J0D01*
G01*
X125249998Y-78000000D01*
G75*
G02*
X125000000Y-77750002I0J249998D01*
G01*
X125000000Y-76849998D01*
G75*
G02*
X125249998Y-76600000I249998J0D01*
G01*
X125775002Y-76600000D01*
G75*
G02*
X126025000Y-76849998I0J-249998D01*
G01*
G37*
G36*
G01*
X144735002Y-82615000D02*
X143834998Y-82615000D01*
G75*
G02*
X143585000Y-82365002I0J249998D01*
G01*
X143585000Y-81839998D01*
G75*
G02*
X143834998Y-81590000I249998J0D01*
G01*
X144735002Y-81590000D01*
G75*
G02*
X144985000Y-81839998I0J-249998D01*
G01*
X144985000Y-82365002D01*
G75*
G02*
X144735002Y-82615000I-249998J0D01*
G01*
G37*
G36*
G01*
X144735002Y-84440000D02*
X143834998Y-84440000D01*
G75*
G02*
X143585000Y-84190002I0J249998D01*
G01*
X143585000Y-83664998D01*
G75*
G02*
X143834998Y-83415000I249998J0D01*
G01*
X144735002Y-83415000D01*
G75*
G02*
X144985000Y-83664998I0J-249998D01*
G01*
X144985000Y-84190002D01*
G75*
G02*
X144735002Y-84440000I-249998J0D01*
G01*
G37*
G36*
G01*
X148545002Y-82615000D02*
X147644998Y-82615000D01*
G75*
G02*
X147395000Y-82365002I0J249998D01*
G01*
X147395000Y-81839998D01*
G75*
G02*
X147644998Y-81590000I249998J0D01*
G01*
X148545002Y-81590000D01*
G75*
G02*
X148795000Y-81839998I0J-249998D01*
G01*
X148795000Y-82365002D01*
G75*
G02*
X148545002Y-82615000I-249998J0D01*
G01*
G37*
G36*
G01*
X148545002Y-84440000D02*
X147644998Y-84440000D01*
G75*
G02*
X147395000Y-84190002I0J249998D01*
G01*
X147395000Y-83664998D01*
G75*
G02*
X147644998Y-83415000I249998J0D01*
G01*
X148545002Y-83415000D01*
G75*
G02*
X148795000Y-83664998I0J-249998D01*
G01*
X148795000Y-84190002D01*
G75*
G02*
X148545002Y-84440000I-249998J0D01*
G01*
G37*
G36*
G01*
X152355002Y-82615000D02*
X151454998Y-82615000D01*
G75*
G02*
X151205000Y-82365002I0J249998D01*
G01*
X151205000Y-81839998D01*
G75*
G02*
X151454998Y-81590000I249998J0D01*
G01*
X152355002Y-81590000D01*
G75*
G02*
X152605000Y-81839998I0J-249998D01*
G01*
X152605000Y-82365002D01*
G75*
G02*
X152355002Y-82615000I-249998J0D01*
G01*
G37*
G36*
G01*
X152355002Y-84440000D02*
X151454998Y-84440000D01*
G75*
G02*
X151205000Y-84190002I0J249998D01*
G01*
X151205000Y-83664998D01*
G75*
G02*
X151454998Y-83415000I249998J0D01*
G01*
X152355002Y-83415000D01*
G75*
G02*
X152605000Y-83664998I0J-249998D01*
G01*
X152605000Y-84190002D01*
G75*
G02*
X152355002Y-84440000I-249998J0D01*
G01*
G37*
G36*
G01*
X156165002Y-82615000D02*
X155264998Y-82615000D01*
G75*
G02*
X155015000Y-82365002I0J249998D01*
G01*
X155015000Y-81839998D01*
G75*
G02*
X155264998Y-81590000I249998J0D01*
G01*
X156165002Y-81590000D01*
G75*
G02*
X156415000Y-81839998I0J-249998D01*
G01*
X156415000Y-82365002D01*
G75*
G02*
X156165002Y-82615000I-249998J0D01*
G01*
G37*
G36*
G01*
X156165002Y-84440000D02*
X155264998Y-84440000D01*
G75*
G02*
X155015000Y-84190002I0J249998D01*
G01*
X155015000Y-83664998D01*
G75*
G02*
X155264998Y-83415000I249998J0D01*
G01*
X156165002Y-83415000D01*
G75*
G02*
X156415000Y-83664998I0J-249998D01*
G01*
X156415000Y-84190002D01*
G75*
G02*
X156165002Y-84440000I-249998J0D01*
G01*
G37*
G36*
G01*
X178975000Y-84100002D02*
X178975000Y-83199998D01*
G75*
G02*
X179224998Y-82950000I249998J0D01*
G01*
X179750002Y-82950000D01*
G75*
G02*
X180000000Y-83199998I0J-249998D01*
G01*
X180000000Y-84100002D01*
G75*
G02*
X179750002Y-84350000I-249998J0D01*
G01*
X179224998Y-84350000D01*
G75*
G02*
X178975000Y-84100002I0J249998D01*
G01*
G37*
G36*
G01*
X177150000Y-84100002D02*
X177150000Y-83199998D01*
G75*
G02*
X177399998Y-82950000I249998J0D01*
G01*
X177925002Y-82950000D01*
G75*
G02*
X178175000Y-83199998I0J-249998D01*
G01*
X178175000Y-84100002D01*
G75*
G02*
X177925002Y-84350000I-249998J0D01*
G01*
X177399998Y-84350000D01*
G75*
G02*
X177150000Y-84100002I0J249998D01*
G01*
G37*
G36*
G01*
X167545000Y-111405002D02*
X167545000Y-110504998D01*
G75*
G02*
X167794998Y-110255000I249998J0D01*
G01*
X168320002Y-110255000D01*
G75*
G02*
X168570000Y-110504998I0J-249998D01*
G01*
X168570000Y-111405002D01*
G75*
G02*
X168320002Y-111655000I-249998J0D01*
G01*
X167794998Y-111655000D01*
G75*
G02*
X167545000Y-111405002I0J249998D01*
G01*
G37*
G36*
G01*
X165720000Y-111405002D02*
X165720000Y-110504998D01*
G75*
G02*
X165969998Y-110255000I249998J0D01*
G01*
X166495002Y-110255000D01*
G75*
G02*
X166745000Y-110504998I0J-249998D01*
G01*
X166745000Y-111405002D01*
G75*
G02*
X166495002Y-111655000I-249998J0D01*
G01*
X165969998Y-111655000D01*
G75*
G02*
X165720000Y-111405002I0J249998D01*
G01*
G37*
G36*
G01*
X121025000Y-95899998D02*
X121025000Y-96800002D01*
G75*
G02*
X120775002Y-97050000I-249998J0D01*
G01*
X120249998Y-97050000D01*
G75*
G02*
X120000000Y-96800002I0J249998D01*
G01*
X120000000Y-95899998D01*
G75*
G02*
X120249998Y-95650000I249998J0D01*
G01*
X120775002Y-95650000D01*
G75*
G02*
X121025000Y-95899998I0J-249998D01*
G01*
G37*
G36*
G01*
X122850000Y-95899998D02*
X122850000Y-96800002D01*
G75*
G02*
X122600002Y-97050000I-249998J0D01*
G01*
X122074998Y-97050000D01*
G75*
G02*
X121825000Y-96800002I0J249998D01*
G01*
X121825000Y-95899998D01*
G75*
G02*
X122074998Y-95650000I249998J0D01*
G01*
X122600002Y-95650000D01*
G75*
G02*
X122850000Y-95899998I0J-249998D01*
G01*
G37*
G36*
G01*
X130765002Y-69915000D02*
X129864998Y-69915000D01*
G75*
G02*
X129615000Y-69665002I0J249998D01*
G01*
X129615000Y-69139998D01*
G75*
G02*
X129864998Y-68890000I249998J0D01*
G01*
X130765002Y-68890000D01*
G75*
G02*
X131015000Y-69139998I0J-249998D01*
G01*
X131015000Y-69665002D01*
G75*
G02*
X130765002Y-69915000I-249998J0D01*
G01*
G37*
G36*
G01*
X130765002Y-71740000D02*
X129864998Y-71740000D01*
G75*
G02*
X129615000Y-71490002I0J249998D01*
G01*
X129615000Y-70964998D01*
G75*
G02*
X129864998Y-70715000I249998J0D01*
G01*
X130765002Y-70715000D01*
G75*
G02*
X131015000Y-70964998I0J-249998D01*
G01*
X131015000Y-71490002D01*
G75*
G02*
X130765002Y-71740000I-249998J0D01*
G01*
G37*
D13*
X157620000Y-97255000D03*
X156670000Y-99255000D03*
X158570000Y-99255000D03*
X153175000Y-97255000D03*
X152225000Y-99255000D03*
X154125000Y-99255000D03*
G36*
G01*
X140660000Y-59045000D02*
X140660000Y-59995000D01*
G75*
G02*
X140410000Y-60245000I-250000J0D01*
G01*
X139910000Y-60245000D01*
G75*
G02*
X139660000Y-59995000I0J250000D01*
G01*
X139660000Y-59045000D01*
G75*
G02*
X139910000Y-58795000I250000J0D01*
G01*
X140410000Y-58795000D01*
G75*
G02*
X140660000Y-59045000I0J-250000D01*
G01*
G37*
G36*
G01*
X142560000Y-59045000D02*
X142560000Y-59995000D01*
G75*
G02*
X142310000Y-60245000I-250000J0D01*
G01*
X141810000Y-60245000D01*
G75*
G02*
X141560000Y-59995000I0J250000D01*
G01*
X141560000Y-59045000D01*
G75*
G02*
X141810000Y-58795000I250000J0D01*
G01*
X142310000Y-58795000D01*
G75*
G02*
X142560000Y-59045000I0J-250000D01*
G01*
G37*
G36*
G01*
X140660000Y-61585000D02*
X140660000Y-62535000D01*
G75*
G02*
X140410000Y-62785000I-250000J0D01*
G01*
X139910000Y-62785000D01*
G75*
G02*
X139660000Y-62535000I0J250000D01*
G01*
X139660000Y-61585000D01*
G75*
G02*
X139910000Y-61335000I250000J0D01*
G01*
X140410000Y-61335000D01*
G75*
G02*
X140660000Y-61585000I0J-250000D01*
G01*
G37*
G36*
G01*
X142560000Y-61585000D02*
X142560000Y-62535000D01*
G75*
G02*
X142310000Y-62785000I-250000J0D01*
G01*
X141810000Y-62785000D01*
G75*
G02*
X141560000Y-62535000I0J250000D01*
G01*
X141560000Y-61585000D01*
G75*
G02*
X141810000Y-61335000I250000J0D01*
G01*
X142310000Y-61335000D01*
G75*
G02*
X142560000Y-61585000I0J-250000D01*
G01*
G37*
G36*
G01*
X141585000Y-93995000D02*
X140635000Y-93995000D01*
G75*
G02*
X140385000Y-93745000I0J250000D01*
G01*
X140385000Y-93245000D01*
G75*
G02*
X140635000Y-92995000I250000J0D01*
G01*
X141585000Y-92995000D01*
G75*
G02*
X141835000Y-93245000I0J-250000D01*
G01*
X141835000Y-93745000D01*
G75*
G02*
X141585000Y-93995000I-250000J0D01*
G01*
G37*
G36*
G01*
X141585000Y-95895000D02*
X140635000Y-95895000D01*
G75*
G02*
X140385000Y-95645000I0J250000D01*
G01*
X140385000Y-95145000D01*
G75*
G02*
X140635000Y-94895000I250000J0D01*
G01*
X141585000Y-94895000D01*
G75*
G02*
X141835000Y-95145000I0J-250000D01*
G01*
X141835000Y-95645000D01*
G75*
G02*
X141585000Y-95895000I-250000J0D01*
G01*
G37*
G36*
G01*
X146005000Y-98730000D02*
X146005000Y-97780000D01*
G75*
G02*
X146255000Y-97530000I250000J0D01*
G01*
X146755000Y-97530000D01*
G75*
G02*
X147005000Y-97780000I0J-250000D01*
G01*
X147005000Y-98730000D01*
G75*
G02*
X146755000Y-98980000I-250000J0D01*
G01*
X146255000Y-98980000D01*
G75*
G02*
X146005000Y-98730000I0J250000D01*
G01*
G37*
G36*
G01*
X144105000Y-98730000D02*
X144105000Y-97780000D01*
G75*
G02*
X144355000Y-97530000I250000J0D01*
G01*
X144855000Y-97530000D01*
G75*
G02*
X145105000Y-97780000I0J-250000D01*
G01*
X145105000Y-98730000D01*
G75*
G02*
X144855000Y-98980000I-250000J0D01*
G01*
X144355000Y-98980000D01*
G75*
G02*
X144105000Y-98730000I0J250000D01*
G01*
G37*
G36*
G01*
X123170000Y-89550000D02*
X122220000Y-89550000D01*
G75*
G02*
X121970000Y-89300000I0J250000D01*
G01*
X121970000Y-88800000D01*
G75*
G02*
X122220000Y-88550000I250000J0D01*
G01*
X123170000Y-88550000D01*
G75*
G02*
X123420000Y-88800000I0J-250000D01*
G01*
X123420000Y-89300000D01*
G75*
G02*
X123170000Y-89550000I-250000J0D01*
G01*
G37*
G36*
G01*
X123170000Y-91450000D02*
X122220000Y-91450000D01*
G75*
G02*
X121970000Y-91200000I0J250000D01*
G01*
X121970000Y-90700000D01*
G75*
G02*
X122220000Y-90450000I250000J0D01*
G01*
X123170000Y-90450000D01*
G75*
G02*
X123420000Y-90700000I0J-250000D01*
G01*
X123420000Y-91200000D01*
G75*
G02*
X123170000Y-91450000I-250000J0D01*
G01*
G37*
D10*
X175765000Y-99525000D03*
X173765000Y-98575000D03*
X173765000Y-100475000D03*
X130585000Y-109685000D03*
X132585000Y-110635000D03*
X132585000Y-108735000D03*
X169415000Y-69680000D03*
X167415000Y-68730000D03*
X167415000Y-70630000D03*
X123600000Y-81110000D03*
X125600000Y-82060000D03*
X125600000Y-80160000D03*
M02*
