G04 #@! TF.GenerationSoftware,KiCad,Pcbnew,(5.1.9-0-10_14)*
G04 #@! TF.CreationDate,2021-06-02T14:27:10-05:00*
G04 #@! TF.ProjectId,kbxIrBlaster,6b627849-7242-46c6-9173-7465722e6b69,rev?*
G04 #@! TF.SameCoordinates,Original*
G04 #@! TF.FileFunction,Paste,Top*
G04 #@! TF.FilePolarity,Positive*
%FSLAX46Y46*%
G04 Gerber Fmt 4.6, Leading zero omitted, Abs format (unit mm)*
G04 Created by KiCad (PCBNEW (5.1.9-0-10_14)) date 2021-06-02 14:27:10*
%MOMM*%
%LPD*%
G01*
G04 APERTURE LIST*
%ADD10R,1.225000X0.315000*%
%ADD11R,1.050000X1.330000*%
%ADD12R,0.280000X0.945000*%
%ADD13R,1.600000X0.720000*%
%ADD14R,0.720000X1.600000*%
%ADD15R,4.000000X4.000000*%
G04 APERTURE END LIST*
D10*
X146615000Y-106730000D03*
X146615000Y-107380000D03*
X146615000Y-108030000D03*
X146615000Y-108680000D03*
X146615000Y-109330000D03*
X146615000Y-109980000D03*
X146615000Y-110630000D03*
X146615000Y-111280000D03*
X146615000Y-111930000D03*
X146615000Y-112580000D03*
X146615000Y-113230000D03*
X146615000Y-113880000D03*
X146615000Y-114530000D03*
X146615000Y-115180000D03*
X139415000Y-115180000D03*
X139415000Y-114530000D03*
X139415000Y-113880000D03*
X139415000Y-113230000D03*
X139415000Y-112580000D03*
X139415000Y-111930000D03*
X139415000Y-111280000D03*
X139415000Y-110630000D03*
X139415000Y-109980000D03*
X139415000Y-109330000D03*
X139415000Y-108680000D03*
X139415000Y-108030000D03*
X139415000Y-107380000D03*
X139415000Y-106730000D03*
G36*
G01*
X135579998Y-113260000D02*
X136480002Y-113260000D01*
G75*
G02*
X136730000Y-113509998I0J-249998D01*
G01*
X136730000Y-114035002D01*
G75*
G02*
X136480002Y-114285000I-249998J0D01*
G01*
X135579998Y-114285000D01*
G75*
G02*
X135330000Y-114035002I0J249998D01*
G01*
X135330000Y-113509998D01*
G75*
G02*
X135579998Y-113260000I249998J0D01*
G01*
G37*
G36*
G01*
X135579998Y-111435000D02*
X136480002Y-111435000D01*
G75*
G02*
X136730000Y-111684998I0J-249998D01*
G01*
X136730000Y-112210002D01*
G75*
G02*
X136480002Y-112460000I-249998J0D01*
G01*
X135579998Y-112460000D01*
G75*
G02*
X135330000Y-112210002I0J249998D01*
G01*
X135330000Y-111684998D01*
G75*
G02*
X135579998Y-111435000I249998J0D01*
G01*
G37*
G36*
G01*
X142830002Y-96585000D02*
X141929998Y-96585000D01*
G75*
G02*
X141680000Y-96335002I0J249998D01*
G01*
X141680000Y-95809998D01*
G75*
G02*
X141929998Y-95560000I249998J0D01*
G01*
X142830002Y-95560000D01*
G75*
G02*
X143080000Y-95809998I0J-249998D01*
G01*
X143080000Y-96335002D01*
G75*
G02*
X142830002Y-96585000I-249998J0D01*
G01*
G37*
G36*
G01*
X142830002Y-98410000D02*
X141929998Y-98410000D01*
G75*
G02*
X141680000Y-98160002I0J249998D01*
G01*
X141680000Y-97634998D01*
G75*
G02*
X141929998Y-97385000I249998J0D01*
G01*
X142830002Y-97385000D01*
G75*
G02*
X143080000Y-97634998I0J-249998D01*
G01*
X143080000Y-98160002D01*
G75*
G02*
X142830002Y-98410000I-249998J0D01*
G01*
G37*
G36*
G01*
X146640002Y-96585000D02*
X145739998Y-96585000D01*
G75*
G02*
X145490000Y-96335002I0J249998D01*
G01*
X145490000Y-95809998D01*
G75*
G02*
X145739998Y-95560000I249998J0D01*
G01*
X146640002Y-95560000D01*
G75*
G02*
X146890000Y-95809998I0J-249998D01*
G01*
X146890000Y-96335002D01*
G75*
G02*
X146640002Y-96585000I-249998J0D01*
G01*
G37*
G36*
G01*
X146640002Y-98410000D02*
X145739998Y-98410000D01*
G75*
G02*
X145490000Y-98160002I0J249998D01*
G01*
X145490000Y-97634998D01*
G75*
G02*
X145739998Y-97385000I249998J0D01*
G01*
X146640002Y-97385000D01*
G75*
G02*
X146890000Y-97634998I0J-249998D01*
G01*
X146890000Y-98160002D01*
G75*
G02*
X146640002Y-98410000I-249998J0D01*
G01*
G37*
D11*
X142015000Y-121717500D03*
D12*
X143015000Y-119017500D03*
X143665000Y-119017500D03*
X144315000Y-119017500D03*
X141715000Y-119017500D03*
X142365000Y-119017500D03*
D11*
X144015000Y-121717500D03*
G36*
G01*
X138113750Y-101880000D02*
X139026250Y-101880000D01*
G75*
G02*
X139270000Y-102123750I0J-243750D01*
G01*
X139270000Y-102611250D01*
G75*
G02*
X139026250Y-102855000I-243750J0D01*
G01*
X138113750Y-102855000D01*
G75*
G02*
X137870000Y-102611250I0J243750D01*
G01*
X137870000Y-102123750D01*
G75*
G02*
X138113750Y-101880000I243750J0D01*
G01*
G37*
G36*
G01*
X138113750Y-100005000D02*
X139026250Y-100005000D01*
G75*
G02*
X139270000Y-100248750I0J-243750D01*
G01*
X139270000Y-100736250D01*
G75*
G02*
X139026250Y-100980000I-243750J0D01*
G01*
X138113750Y-100980000D01*
G75*
G02*
X137870000Y-100736250I0J243750D01*
G01*
X137870000Y-100248750D01*
G75*
G02*
X138113750Y-100005000I243750J0D01*
G01*
G37*
G36*
G01*
X141923750Y-101880000D02*
X142836250Y-101880000D01*
G75*
G02*
X143080000Y-102123750I0J-243750D01*
G01*
X143080000Y-102611250D01*
G75*
G02*
X142836250Y-102855000I-243750J0D01*
G01*
X141923750Y-102855000D01*
G75*
G02*
X141680000Y-102611250I0J243750D01*
G01*
X141680000Y-102123750D01*
G75*
G02*
X141923750Y-101880000I243750J0D01*
G01*
G37*
G36*
G01*
X141923750Y-100005000D02*
X142836250Y-100005000D01*
G75*
G02*
X143080000Y-100248750I0J-243750D01*
G01*
X143080000Y-100736250D01*
G75*
G02*
X142836250Y-100980000I-243750J0D01*
G01*
X141923750Y-100980000D01*
G75*
G02*
X141680000Y-100736250I0J243750D01*
G01*
X141680000Y-100248750D01*
G75*
G02*
X141923750Y-100005000I243750J0D01*
G01*
G37*
G36*
G01*
X145733750Y-101880000D02*
X146646250Y-101880000D01*
G75*
G02*
X146890000Y-102123750I0J-243750D01*
G01*
X146890000Y-102611250D01*
G75*
G02*
X146646250Y-102855000I-243750J0D01*
G01*
X145733750Y-102855000D01*
G75*
G02*
X145490000Y-102611250I0J243750D01*
G01*
X145490000Y-102123750D01*
G75*
G02*
X145733750Y-101880000I243750J0D01*
G01*
G37*
G36*
G01*
X145733750Y-100005000D02*
X146646250Y-100005000D01*
G75*
G02*
X146890000Y-100248750I0J-243750D01*
G01*
X146890000Y-100736250D01*
G75*
G02*
X146646250Y-100980000I-243750J0D01*
G01*
X145733750Y-100980000D01*
G75*
G02*
X145490000Y-100736250I0J243750D01*
G01*
X145490000Y-100248750D01*
G75*
G02*
X145733750Y-100005000I243750J0D01*
G01*
G37*
G36*
G01*
X166688449Y-70826762D02*
X167274993Y-70127747D01*
G75*
G02*
X167618395Y-70097703I186723J-156679D01*
G01*
X167991841Y-70411062D01*
G75*
G02*
X168021885Y-70754464I-156679J-186723D01*
G01*
X167435341Y-71453479D01*
G75*
G02*
X167091939Y-71483523I-186723J156679D01*
G01*
X166718493Y-71170164D01*
G75*
G02*
X166688449Y-70826762I156679J186723D01*
G01*
G37*
G36*
G01*
X165252115Y-69621536D02*
X165838659Y-68922521D01*
G75*
G02*
X166182061Y-68892477I186723J-156679D01*
G01*
X166555507Y-69205836D01*
G75*
G02*
X166585551Y-69549238I-156679J-186723D01*
G01*
X165999007Y-70248253D01*
G75*
G02*
X165655605Y-70278297I-186723J156679D01*
G01*
X165282159Y-69964938D01*
G75*
G02*
X165252115Y-69621536I156679J186723D01*
G01*
G37*
G36*
G01*
X174442644Y-97140891D02*
X175300113Y-97452985D01*
G75*
G02*
X175445796Y-97765402I-83367J-229050D01*
G01*
X175279061Y-98223502D01*
G75*
G02*
X174966644Y-98369185I-229050J83367D01*
G01*
X174109175Y-98057091D01*
G75*
G02*
X173963492Y-97744674I83367J229050D01*
G01*
X174130227Y-97286574D01*
G75*
G02*
X174442644Y-97140891I229050J-83367D01*
G01*
G37*
G36*
G01*
X173801356Y-98902815D02*
X174658825Y-99214909D01*
G75*
G02*
X174804508Y-99527326I-83367J-229050D01*
G01*
X174637773Y-99985426D01*
G75*
G02*
X174325356Y-100131109I-229050J83367D01*
G01*
X173467887Y-99819015D01*
G75*
G02*
X173322204Y-99506598I83367J229050D01*
G01*
X173488939Y-99048498D01*
G75*
G02*
X173801356Y-98902815I229050J-83367D01*
G01*
G37*
G36*
G01*
X133311551Y-109173238D02*
X132725007Y-109872253D01*
G75*
G02*
X132381605Y-109902297I-186723J156679D01*
G01*
X132008159Y-109588938D01*
G75*
G02*
X131978115Y-109245536I156679J186723D01*
G01*
X132564659Y-108546521D01*
G75*
G02*
X132908061Y-108516477I186723J-156679D01*
G01*
X133281507Y-108829836D01*
G75*
G02*
X133311551Y-109173238I-156679J-186723D01*
G01*
G37*
G36*
G01*
X134747885Y-110378464D02*
X134161341Y-111077479D01*
G75*
G02*
X133817939Y-111107523I-186723J156679D01*
G01*
X133444493Y-110794164D01*
G75*
G02*
X133414449Y-110450762I156679J186723D01*
G01*
X134000993Y-109751747D01*
G75*
G02*
X134344395Y-109721703I186723J-156679D01*
G01*
X134717841Y-110035062D01*
G75*
G02*
X134747885Y-110378464I-156679J-186723D01*
G01*
G37*
G36*
G01*
X126325644Y-80843185D02*
X125468175Y-80531091D01*
G75*
G02*
X125322492Y-80218674I83367J229050D01*
G01*
X125489227Y-79760574D01*
G75*
G02*
X125801644Y-79614891I229050J-83367D01*
G01*
X126659113Y-79926985D01*
G75*
G02*
X126804796Y-80239402I-83367J-229050D01*
G01*
X126638061Y-80697502D01*
G75*
G02*
X126325644Y-80843185I-229050J83367D01*
G01*
G37*
G36*
G01*
X125684356Y-82605109D02*
X124826887Y-82293015D01*
G75*
G02*
X124681204Y-81980598I83367J229050D01*
G01*
X124847939Y-81522498D01*
G75*
G02*
X125160356Y-81376815I229050J-83367D01*
G01*
X126017825Y-81688909D01*
G75*
G02*
X126163508Y-82001326I-83367J-229050D01*
G01*
X125996773Y-82459426D01*
G75*
G02*
X125684356Y-82605109I-229050J83367D01*
G01*
G37*
G36*
G01*
X173982175Y-81561909D02*
X174839644Y-81249815D01*
G75*
G02*
X175152061Y-81395498I83367J-229050D01*
G01*
X175318796Y-81853598D01*
G75*
G02*
X175173113Y-82166015I-229050J-83367D01*
G01*
X174315644Y-82478109D01*
G75*
G02*
X174003227Y-82332426I-83367J229050D01*
G01*
X173836492Y-81874326D01*
G75*
G02*
X173982175Y-81561909I229050J83367D01*
G01*
G37*
G36*
G01*
X173340887Y-79799985D02*
X174198356Y-79487891D01*
G75*
G02*
X174510773Y-79633574I83367J-229050D01*
G01*
X174677508Y-80091674D01*
G75*
G02*
X174531825Y-80404091I-229050J-83367D01*
G01*
X173674356Y-80716185D01*
G75*
G02*
X173361939Y-80570502I-83367J229050D01*
G01*
X173195204Y-80112402D01*
G75*
G02*
X173340887Y-79799985I229050J83367D01*
G01*
G37*
G36*
G01*
X166253007Y-109497747D02*
X166839551Y-110196762D01*
G75*
G02*
X166809507Y-110540164I-186723J-156679D01*
G01*
X166436061Y-110853523D01*
G75*
G02*
X166092659Y-110823479I-156679J186723D01*
G01*
X165506115Y-110124464D01*
G75*
G02*
X165536159Y-109781062I186723J156679D01*
G01*
X165909605Y-109467703D01*
G75*
G02*
X166253007Y-109497747I156679J-186723D01*
G01*
G37*
G36*
G01*
X167689341Y-108292521D02*
X168275885Y-108991536D01*
G75*
G02*
X168245841Y-109334938I-186723J-156679D01*
G01*
X167872395Y-109648297D01*
G75*
G02*
X167528993Y-109618253I-156679J186723D01*
G01*
X166942449Y-108919238D01*
G75*
G02*
X166972493Y-108575836I186723J156679D01*
G01*
X167345939Y-108262477D01*
G75*
G02*
X167689341Y-108292521I156679J-186723D01*
G01*
G37*
G36*
G01*
X126017825Y-98438091D02*
X125160356Y-98750185D01*
G75*
G02*
X124847939Y-98604502I-83367J229050D01*
G01*
X124681204Y-98146402D01*
G75*
G02*
X124826887Y-97833985I229050J83367D01*
G01*
X125684356Y-97521891D01*
G75*
G02*
X125996773Y-97667574I83367J-229050D01*
G01*
X126163508Y-98125674D01*
G75*
G02*
X126017825Y-98438091I-229050J-83367D01*
G01*
G37*
G36*
G01*
X126659113Y-100200015D02*
X125801644Y-100512109D01*
G75*
G02*
X125489227Y-100366426I-83367J229050D01*
G01*
X125322492Y-99908326D01*
G75*
G02*
X125468175Y-99595909I229050J83367D01*
G01*
X126325644Y-99283815D01*
G75*
G02*
X126638061Y-99429498I83367J-229050D01*
G01*
X126804796Y-99887598D01*
G75*
G02*
X126659113Y-100200015I-229050J-83367D01*
G01*
G37*
G36*
G01*
X134254993Y-69994253D02*
X133668449Y-69295238D01*
G75*
G02*
X133698493Y-68951836I186723J156679D01*
G01*
X134071939Y-68638477D01*
G75*
G02*
X134415341Y-68668521I156679J-186723D01*
G01*
X135001885Y-69367536D01*
G75*
G02*
X134971841Y-69710938I-186723J-156679D01*
G01*
X134598395Y-70024297D01*
G75*
G02*
X134254993Y-69994253I-156679J186723D01*
G01*
G37*
G36*
G01*
X132818659Y-71199479D02*
X132232115Y-70500464D01*
G75*
G02*
X132262159Y-70157062I186723J156679D01*
G01*
X132635605Y-69843703D01*
G75*
G02*
X132979007Y-69873747I156679J-186723D01*
G01*
X133565551Y-70572762D01*
G75*
G02*
X133535507Y-70916164I-186723J-156679D01*
G01*
X133162061Y-71229523D01*
G75*
G02*
X132818659Y-71199479I-156679J186723D01*
G01*
G37*
G36*
G01*
X171093372Y-75771313D02*
X171840848Y-75247924D01*
G75*
G02*
X172180325Y-75307783I139809J-199668D01*
G01*
X172459943Y-75707120D01*
G75*
G02*
X172400084Y-76046597I-199668J-139809D01*
G01*
X171652608Y-76569986D01*
G75*
G02*
X171313131Y-76510127I-139809J199668D01*
G01*
X171033513Y-76110790D01*
G75*
G02*
X171093372Y-75771313I199668J139809D01*
G01*
G37*
G36*
G01*
X170017916Y-74235403D02*
X170765392Y-73712014D01*
G75*
G02*
X171104869Y-73771873I139809J-199668D01*
G01*
X171384487Y-74171210D01*
G75*
G02*
X171324628Y-74510687I-199668J-139809D01*
G01*
X170577152Y-75034076D01*
G75*
G02*
X170237675Y-74974217I-139809J199668D01*
G01*
X169958057Y-74574880D01*
G75*
G02*
X170017916Y-74235403I199668J139809D01*
G01*
G37*
G36*
G01*
X170577152Y-104965924D02*
X171324628Y-105489313D01*
G75*
G02*
X171384487Y-105828790I-139809J-199668D01*
G01*
X171104869Y-106228127D01*
G75*
G02*
X170765392Y-106287986I-199668J139809D01*
G01*
X170017916Y-105764597D01*
G75*
G02*
X169958057Y-105425120I139809J199668D01*
G01*
X170237675Y-105025783D01*
G75*
G02*
X170577152Y-104965924I199668J-139809D01*
G01*
G37*
G36*
G01*
X171652608Y-103430014D02*
X172400084Y-103953403D01*
G75*
G02*
X172459943Y-104292880I-139809J-199668D01*
G01*
X172180325Y-104692217D01*
G75*
G02*
X171840848Y-104752076I-199668J139809D01*
G01*
X171093372Y-104228687D01*
G75*
G02*
X171033513Y-103889210I139809J199668D01*
G01*
X171313131Y-103489873D01*
G75*
G02*
X171652608Y-103430014I199668J-139809D01*
G01*
G37*
G36*
G01*
X129160628Y-104609687D02*
X128413152Y-105133076D01*
G75*
G02*
X128073675Y-105073217I-139809J199668D01*
G01*
X127794057Y-104673880D01*
G75*
G02*
X127853916Y-104334403I199668J139809D01*
G01*
X128601392Y-103811014D01*
G75*
G02*
X128940869Y-103870873I139809J-199668D01*
G01*
X129220487Y-104270210D01*
G75*
G02*
X129160628Y-104609687I-199668J-139809D01*
G01*
G37*
G36*
G01*
X130236084Y-106145597D02*
X129488608Y-106668986D01*
G75*
G02*
X129149131Y-106609127I-139809J199668D01*
G01*
X128869513Y-106209790D01*
G75*
G02*
X128929372Y-105870313I199668J139809D01*
G01*
X129676848Y-105346924D01*
G75*
G02*
X130016325Y-105406783I139809J-199668D01*
G01*
X130295943Y-105806120D01*
G75*
G02*
X130236084Y-106145597I-199668J-139809D01*
G01*
G37*
G36*
G01*
X129676848Y-74653076D02*
X128929372Y-74129687D01*
G75*
G02*
X128869513Y-73790210I139809J199668D01*
G01*
X129149131Y-73390873D01*
G75*
G02*
X129488608Y-73331014I199668J-139809D01*
G01*
X130236084Y-73854403D01*
G75*
G02*
X130295943Y-74193880I-139809J-199668D01*
G01*
X130016325Y-74593217D01*
G75*
G02*
X129676848Y-74653076I-199668J139809D01*
G01*
G37*
G36*
G01*
X128601392Y-76188986D02*
X127853916Y-75665597D01*
G75*
G02*
X127794057Y-75326120I139809J199668D01*
G01*
X128073675Y-74926783D01*
G75*
G02*
X128413152Y-74866924I199668J-139809D01*
G01*
X129160628Y-75390313D01*
G75*
G02*
X129220487Y-75729790I-139809J-199668D01*
G01*
X128940869Y-76129127D01*
G75*
G02*
X128601392Y-76188986I-199668J139809D01*
G01*
G37*
G36*
G01*
X143828750Y-81560000D02*
X144741250Y-81560000D01*
G75*
G02*
X144985000Y-81803750I0J-243750D01*
G01*
X144985000Y-82291250D01*
G75*
G02*
X144741250Y-82535000I-243750J0D01*
G01*
X143828750Y-82535000D01*
G75*
G02*
X143585000Y-82291250I0J243750D01*
G01*
X143585000Y-81803750D01*
G75*
G02*
X143828750Y-81560000I243750J0D01*
G01*
G37*
G36*
G01*
X143828750Y-79685000D02*
X144741250Y-79685000D01*
G75*
G02*
X144985000Y-79928750I0J-243750D01*
G01*
X144985000Y-80416250D01*
G75*
G02*
X144741250Y-80660000I-243750J0D01*
G01*
X143828750Y-80660000D01*
G75*
G02*
X143585000Y-80416250I0J243750D01*
G01*
X143585000Y-79928750D01*
G75*
G02*
X143828750Y-79685000I243750J0D01*
G01*
G37*
G36*
G01*
X147638750Y-81560000D02*
X148551250Y-81560000D01*
G75*
G02*
X148795000Y-81803750I0J-243750D01*
G01*
X148795000Y-82291250D01*
G75*
G02*
X148551250Y-82535000I-243750J0D01*
G01*
X147638750Y-82535000D01*
G75*
G02*
X147395000Y-82291250I0J243750D01*
G01*
X147395000Y-81803750D01*
G75*
G02*
X147638750Y-81560000I243750J0D01*
G01*
G37*
G36*
G01*
X147638750Y-79685000D02*
X148551250Y-79685000D01*
G75*
G02*
X148795000Y-79928750I0J-243750D01*
G01*
X148795000Y-80416250D01*
G75*
G02*
X148551250Y-80660000I-243750J0D01*
G01*
X147638750Y-80660000D01*
G75*
G02*
X147395000Y-80416250I0J243750D01*
G01*
X147395000Y-79928750D01*
G75*
G02*
X147638750Y-79685000I243750J0D01*
G01*
G37*
G36*
G01*
X151448750Y-81560000D02*
X152361250Y-81560000D01*
G75*
G02*
X152605000Y-81803750I0J-243750D01*
G01*
X152605000Y-82291250D01*
G75*
G02*
X152361250Y-82535000I-243750J0D01*
G01*
X151448750Y-82535000D01*
G75*
G02*
X151205000Y-82291250I0J243750D01*
G01*
X151205000Y-81803750D01*
G75*
G02*
X151448750Y-81560000I243750J0D01*
G01*
G37*
G36*
G01*
X151448750Y-79685000D02*
X152361250Y-79685000D01*
G75*
G02*
X152605000Y-79928750I0J-243750D01*
G01*
X152605000Y-80416250D01*
G75*
G02*
X152361250Y-80660000I-243750J0D01*
G01*
X151448750Y-80660000D01*
G75*
G02*
X151205000Y-80416250I0J243750D01*
G01*
X151205000Y-79928750D01*
G75*
G02*
X151448750Y-79685000I243750J0D01*
G01*
G37*
G36*
G01*
X155258750Y-81560000D02*
X156171250Y-81560000D01*
G75*
G02*
X156415000Y-81803750I0J-243750D01*
G01*
X156415000Y-82291250D01*
G75*
G02*
X156171250Y-82535000I-243750J0D01*
G01*
X155258750Y-82535000D01*
G75*
G02*
X155015000Y-82291250I0J243750D01*
G01*
X155015000Y-81803750D01*
G75*
G02*
X155258750Y-81560000I243750J0D01*
G01*
G37*
G36*
G01*
X155258750Y-79685000D02*
X156171250Y-79685000D01*
G75*
G02*
X156415000Y-79928750I0J-243750D01*
G01*
X156415000Y-80416250D01*
G75*
G02*
X156171250Y-80660000I-243750J0D01*
G01*
X155258750Y-80660000D01*
G75*
G02*
X155015000Y-80416250I0J243750D01*
G01*
X155015000Y-79928750D01*
G75*
G02*
X155258750Y-79685000I243750J0D01*
G01*
G37*
G36*
G01*
X136505000Y-106695000D02*
X135555000Y-106695000D01*
G75*
G02*
X135305000Y-106445000I0J250000D01*
G01*
X135305000Y-105945000D01*
G75*
G02*
X135555000Y-105695000I250000J0D01*
G01*
X136505000Y-105695000D01*
G75*
G02*
X136755000Y-105945000I0J-250000D01*
G01*
X136755000Y-106445000D01*
G75*
G02*
X136505000Y-106695000I-250000J0D01*
G01*
G37*
G36*
G01*
X136505000Y-108595000D02*
X135555000Y-108595000D01*
G75*
G02*
X135305000Y-108345000I0J250000D01*
G01*
X135305000Y-107845000D01*
G75*
G02*
X135555000Y-107595000I250000J0D01*
G01*
X136505000Y-107595000D01*
G75*
G02*
X136755000Y-107845000I0J-250000D01*
G01*
X136755000Y-108345000D01*
G75*
G02*
X136505000Y-108595000I-250000J0D01*
G01*
G37*
G36*
G01*
X150185000Y-107940000D02*
X150185000Y-108890000D01*
G75*
G02*
X149935000Y-109140000I-250000J0D01*
G01*
X149435000Y-109140000D01*
G75*
G02*
X149185000Y-108890000I0J250000D01*
G01*
X149185000Y-107940000D01*
G75*
G02*
X149435000Y-107690000I250000J0D01*
G01*
X149935000Y-107690000D01*
G75*
G02*
X150185000Y-107940000I0J-250000D01*
G01*
G37*
G36*
G01*
X152085000Y-107940000D02*
X152085000Y-108890000D01*
G75*
G02*
X151835000Y-109140000I-250000J0D01*
G01*
X151335000Y-109140000D01*
G75*
G02*
X151085000Y-108890000I0J250000D01*
G01*
X151085000Y-107940000D01*
G75*
G02*
X151335000Y-107690000I250000J0D01*
G01*
X151835000Y-107690000D01*
G75*
G02*
X152085000Y-107940000I0J-250000D01*
G01*
G37*
G36*
G01*
X150185000Y-105400000D02*
X150185000Y-106350000D01*
G75*
G02*
X149935000Y-106600000I-250000J0D01*
G01*
X149435000Y-106600000D01*
G75*
G02*
X149185000Y-106350000I0J250000D01*
G01*
X149185000Y-105400000D01*
G75*
G02*
X149435000Y-105150000I250000J0D01*
G01*
X149935000Y-105150000D01*
G75*
G02*
X150185000Y-105400000I0J-250000D01*
G01*
G37*
G36*
G01*
X152085000Y-105400000D02*
X152085000Y-106350000D01*
G75*
G02*
X151835000Y-106600000I-250000J0D01*
G01*
X151335000Y-106600000D01*
G75*
G02*
X151085000Y-106350000I0J250000D01*
G01*
X151085000Y-105400000D01*
G75*
G02*
X151335000Y-105150000I250000J0D01*
G01*
X151835000Y-105150000D01*
G75*
G02*
X152085000Y-105400000I0J-250000D01*
G01*
G37*
G36*
G01*
X150185000Y-102860000D02*
X150185000Y-103810000D01*
G75*
G02*
X149935000Y-104060000I-250000J0D01*
G01*
X149435000Y-104060000D01*
G75*
G02*
X149185000Y-103810000I0J250000D01*
G01*
X149185000Y-102860000D01*
G75*
G02*
X149435000Y-102610000I250000J0D01*
G01*
X149935000Y-102610000D01*
G75*
G02*
X150185000Y-102860000I0J-250000D01*
G01*
G37*
G36*
G01*
X152085000Y-102860000D02*
X152085000Y-103810000D01*
G75*
G02*
X151835000Y-104060000I-250000J0D01*
G01*
X151335000Y-104060000D01*
G75*
G02*
X151085000Y-103810000I0J250000D01*
G01*
X151085000Y-102860000D01*
G75*
G02*
X151335000Y-102610000I250000J0D01*
G01*
X151835000Y-102610000D01*
G75*
G02*
X152085000Y-102860000I0J-250000D01*
G01*
G37*
D13*
X158500000Y-57996000D03*
X158500000Y-59266000D03*
X158500000Y-60536000D03*
X158500000Y-61806000D03*
X158500000Y-63076000D03*
X158500000Y-64346000D03*
X158500000Y-65616000D03*
X158500000Y-66886000D03*
X158500000Y-68156000D03*
X158500000Y-69426000D03*
X158500000Y-70696000D03*
X158500000Y-71966000D03*
X158500000Y-73236000D03*
X158500000Y-74506000D03*
D14*
X155715000Y-75506000D03*
X154445000Y-75506000D03*
X153175000Y-75506000D03*
X151905000Y-75506000D03*
X150635000Y-75506000D03*
X149365000Y-75506000D03*
X148095000Y-75506000D03*
X146825000Y-75506000D03*
X145555000Y-75506000D03*
X144285000Y-75506000D03*
D13*
X141500000Y-74506000D03*
X141500000Y-73236000D03*
X141500000Y-71966000D03*
X141500000Y-70696000D03*
X141500000Y-69426000D03*
X141500000Y-68156000D03*
X141500000Y-66886000D03*
X141500000Y-65616000D03*
X141500000Y-64346000D03*
X141500000Y-63076000D03*
X141500000Y-61806000D03*
X141500000Y-60536000D03*
X141500000Y-59266000D03*
X141500000Y-57996000D03*
D15*
X149000000Y-65496000D03*
M02*
