G04 #@! TF.GenerationSoftware,KiCad,Pcbnew,(5.1.9-0-10_14)*
G04 #@! TF.CreationDate,2021-06-02T14:27:10-05:00*
G04 #@! TF.ProjectId,kbxIrBlaster,6b627849-7242-46c6-9173-7465722e6b69,rev?*
G04 #@! TF.SameCoordinates,Original*
G04 #@! TF.FileFunction,Soldermask,Top*
G04 #@! TF.FilePolarity,Negative*
%FSLAX46Y46*%
G04 Gerber Fmt 4.6, Leading zero omitted, Abs format (unit mm)*
G04 Created by KiCad (PCBNEW (5.1.9-0-10_14)) date 2021-06-02 14:27:10*
%MOMM*%
%LPD*%
G01*
G04 APERTURE LIST*
%ADD10O,1.802000X1.802000*%
%ADD11C,0.902000*%
%ADD12C,5.102000*%
%ADD13C,2.202000*%
%ADD14C,1.852000*%
%ADD15O,1.302000X2.002000*%
%ADD16C,1.552000*%
%ADD17C,1.902000*%
%ADD18C,0.100000*%
G04 APERTURE END LIST*
D10*
X165240000Y-101430000D03*
G36*
G01*
X166930000Y-100529000D02*
X168630000Y-100529000D01*
G75*
G02*
X168681000Y-100580000I0J-51000D01*
G01*
X168681000Y-102280000D01*
G75*
G02*
X168630000Y-102331000I-51000J0D01*
G01*
X166930000Y-102331000D01*
G75*
G02*
X166879000Y-102280000I0J51000D01*
G01*
X166879000Y-100580000D01*
G75*
G02*
X166930000Y-100529000I51000J0D01*
G01*
G37*
D11*
X176725825Y-107089175D03*
X175400000Y-106540000D03*
X174074175Y-107089175D03*
X173525000Y-108415000D03*
X174074175Y-109740825D03*
X175400000Y-110290000D03*
X176725825Y-109740825D03*
X177275000Y-108415000D03*
D12*
X175400000Y-108415000D03*
D10*
X156350000Y-90000000D03*
X153810000Y-90000000D03*
X151270000Y-90000000D03*
X148730000Y-90000000D03*
X146190000Y-90000000D03*
G36*
G01*
X144500000Y-90901000D02*
X142800000Y-90901000D01*
G75*
G02*
X142749000Y-90850000I0J51000D01*
G01*
X142749000Y-89150000D01*
G75*
G02*
X142800000Y-89099000I51000J0D01*
G01*
X144500000Y-89099000D01*
G75*
G02*
X144551000Y-89150000I0J-51000D01*
G01*
X144551000Y-90850000D01*
G75*
G02*
X144500000Y-90901000I-51000J0D01*
G01*
G37*
X137300000Y-95715000D03*
X137300000Y-93175000D03*
X137300000Y-90635000D03*
X137300000Y-88095000D03*
X137300000Y-85555000D03*
X137300000Y-83015000D03*
X137300000Y-80475000D03*
X137300000Y-77935000D03*
X137300000Y-75395000D03*
X137300000Y-72855000D03*
X137300000Y-70315000D03*
X137300000Y-67775000D03*
X137300000Y-65235000D03*
X137300000Y-62695000D03*
G36*
G01*
X136399000Y-61005000D02*
X136399000Y-59305000D01*
G75*
G02*
X136450000Y-59254000I51000J0D01*
G01*
X138150000Y-59254000D01*
G75*
G02*
X138201000Y-59305000I0J-51000D01*
G01*
X138201000Y-61005000D01*
G75*
G02*
X138150000Y-61056000I-51000J0D01*
G01*
X136450000Y-61056000D01*
G75*
G02*
X136399000Y-61005000I0J51000D01*
G01*
G37*
X162700000Y-95715000D03*
X162700000Y-93175000D03*
X162700000Y-90635000D03*
X162700000Y-88095000D03*
X162700000Y-85555000D03*
X162700000Y-83015000D03*
X162700000Y-80475000D03*
X162700000Y-77935000D03*
X162700000Y-75395000D03*
X162700000Y-72855000D03*
X162700000Y-70315000D03*
X162700000Y-67775000D03*
X162700000Y-65235000D03*
X162700000Y-62695000D03*
G36*
G01*
X161799000Y-61005000D02*
X161799000Y-59305000D01*
G75*
G02*
X161850000Y-59254000I51000J0D01*
G01*
X163550000Y-59254000D01*
G75*
G02*
X163601000Y-59305000I0J-51000D01*
G01*
X163601000Y-61005000D01*
G75*
G02*
X163550000Y-61056000I-51000J0D01*
G01*
X161850000Y-61056000D01*
G75*
G02*
X161799000Y-61005000I0J51000D01*
G01*
G37*
G36*
G01*
X161950500Y-116391000D02*
X160149500Y-116391000D01*
G75*
G02*
X159249000Y-115490500I0J900500D01*
G01*
X159249000Y-113689500D01*
G75*
G02*
X160149500Y-112789000I900500J0D01*
G01*
X161950500Y-112789000D01*
G75*
G02*
X162851000Y-113689500I0J-900500D01*
G01*
X162851000Y-115490500D01*
G75*
G02*
X161950500Y-116391000I-900500J0D01*
G01*
G37*
G36*
G01*
X157375500Y-119141000D02*
X155324500Y-119141000D01*
G75*
G02*
X154549000Y-118365500I0J775500D01*
G01*
X154549000Y-116814500D01*
G75*
G02*
X155324500Y-116039000I775500J0D01*
G01*
X157375500Y-116039000D01*
G75*
G02*
X158151000Y-116814500I0J-775500D01*
G01*
X158151000Y-118365500D01*
G75*
G02*
X157375500Y-119141000I-775500J0D01*
G01*
G37*
G36*
G01*
X158100000Y-113391000D02*
X154600000Y-113391000D01*
G75*
G02*
X154549000Y-113340000I0J51000D01*
G01*
X154549000Y-109840000D01*
G75*
G02*
X154600000Y-109789000I51000J0D01*
G01*
X158100000Y-109789000D01*
G75*
G02*
X158151000Y-109840000I0J-51000D01*
G01*
X158151000Y-113340000D01*
G75*
G02*
X158100000Y-113391000I-51000J0D01*
G01*
G37*
G36*
G01*
X145689000Y-106955000D02*
X145689000Y-106505000D01*
G75*
G02*
X145740000Y-106454000I51000J0D01*
G01*
X147490000Y-106454000D01*
G75*
G02*
X147541000Y-106505000I0J-51000D01*
G01*
X147541000Y-106955000D01*
G75*
G02*
X147490000Y-107006000I-51000J0D01*
G01*
X145740000Y-107006000D01*
G75*
G02*
X145689000Y-106955000I0J51000D01*
G01*
G37*
G36*
G01*
X145689000Y-107605000D02*
X145689000Y-107155000D01*
G75*
G02*
X145740000Y-107104000I51000J0D01*
G01*
X147490000Y-107104000D01*
G75*
G02*
X147541000Y-107155000I0J-51000D01*
G01*
X147541000Y-107605000D01*
G75*
G02*
X147490000Y-107656000I-51000J0D01*
G01*
X145740000Y-107656000D01*
G75*
G02*
X145689000Y-107605000I0J51000D01*
G01*
G37*
G36*
G01*
X145689000Y-108255000D02*
X145689000Y-107805000D01*
G75*
G02*
X145740000Y-107754000I51000J0D01*
G01*
X147490000Y-107754000D01*
G75*
G02*
X147541000Y-107805000I0J-51000D01*
G01*
X147541000Y-108255000D01*
G75*
G02*
X147490000Y-108306000I-51000J0D01*
G01*
X145740000Y-108306000D01*
G75*
G02*
X145689000Y-108255000I0J51000D01*
G01*
G37*
G36*
G01*
X145689000Y-108905000D02*
X145689000Y-108455000D01*
G75*
G02*
X145740000Y-108404000I51000J0D01*
G01*
X147490000Y-108404000D01*
G75*
G02*
X147541000Y-108455000I0J-51000D01*
G01*
X147541000Y-108905000D01*
G75*
G02*
X147490000Y-108956000I-51000J0D01*
G01*
X145740000Y-108956000D01*
G75*
G02*
X145689000Y-108905000I0J51000D01*
G01*
G37*
G36*
G01*
X145689000Y-109555000D02*
X145689000Y-109105000D01*
G75*
G02*
X145740000Y-109054000I51000J0D01*
G01*
X147490000Y-109054000D01*
G75*
G02*
X147541000Y-109105000I0J-51000D01*
G01*
X147541000Y-109555000D01*
G75*
G02*
X147490000Y-109606000I-51000J0D01*
G01*
X145740000Y-109606000D01*
G75*
G02*
X145689000Y-109555000I0J51000D01*
G01*
G37*
G36*
G01*
X145689000Y-110205000D02*
X145689000Y-109755000D01*
G75*
G02*
X145740000Y-109704000I51000J0D01*
G01*
X147490000Y-109704000D01*
G75*
G02*
X147541000Y-109755000I0J-51000D01*
G01*
X147541000Y-110205000D01*
G75*
G02*
X147490000Y-110256000I-51000J0D01*
G01*
X145740000Y-110256000D01*
G75*
G02*
X145689000Y-110205000I0J51000D01*
G01*
G37*
G36*
G01*
X145689000Y-110855000D02*
X145689000Y-110405000D01*
G75*
G02*
X145740000Y-110354000I51000J0D01*
G01*
X147490000Y-110354000D01*
G75*
G02*
X147541000Y-110405000I0J-51000D01*
G01*
X147541000Y-110855000D01*
G75*
G02*
X147490000Y-110906000I-51000J0D01*
G01*
X145740000Y-110906000D01*
G75*
G02*
X145689000Y-110855000I0J51000D01*
G01*
G37*
G36*
G01*
X145689000Y-111505000D02*
X145689000Y-111055000D01*
G75*
G02*
X145740000Y-111004000I51000J0D01*
G01*
X147490000Y-111004000D01*
G75*
G02*
X147541000Y-111055000I0J-51000D01*
G01*
X147541000Y-111505000D01*
G75*
G02*
X147490000Y-111556000I-51000J0D01*
G01*
X145740000Y-111556000D01*
G75*
G02*
X145689000Y-111505000I0J51000D01*
G01*
G37*
G36*
G01*
X145689000Y-112155000D02*
X145689000Y-111705000D01*
G75*
G02*
X145740000Y-111654000I51000J0D01*
G01*
X147490000Y-111654000D01*
G75*
G02*
X147541000Y-111705000I0J-51000D01*
G01*
X147541000Y-112155000D01*
G75*
G02*
X147490000Y-112206000I-51000J0D01*
G01*
X145740000Y-112206000D01*
G75*
G02*
X145689000Y-112155000I0J51000D01*
G01*
G37*
G36*
G01*
X145689000Y-112805000D02*
X145689000Y-112355000D01*
G75*
G02*
X145740000Y-112304000I51000J0D01*
G01*
X147490000Y-112304000D01*
G75*
G02*
X147541000Y-112355000I0J-51000D01*
G01*
X147541000Y-112805000D01*
G75*
G02*
X147490000Y-112856000I-51000J0D01*
G01*
X145740000Y-112856000D01*
G75*
G02*
X145689000Y-112805000I0J51000D01*
G01*
G37*
G36*
G01*
X145689000Y-113455000D02*
X145689000Y-113005000D01*
G75*
G02*
X145740000Y-112954000I51000J0D01*
G01*
X147490000Y-112954000D01*
G75*
G02*
X147541000Y-113005000I0J-51000D01*
G01*
X147541000Y-113455000D01*
G75*
G02*
X147490000Y-113506000I-51000J0D01*
G01*
X145740000Y-113506000D01*
G75*
G02*
X145689000Y-113455000I0J51000D01*
G01*
G37*
G36*
G01*
X145689000Y-114105000D02*
X145689000Y-113655000D01*
G75*
G02*
X145740000Y-113604000I51000J0D01*
G01*
X147490000Y-113604000D01*
G75*
G02*
X147541000Y-113655000I0J-51000D01*
G01*
X147541000Y-114105000D01*
G75*
G02*
X147490000Y-114156000I-51000J0D01*
G01*
X145740000Y-114156000D01*
G75*
G02*
X145689000Y-114105000I0J51000D01*
G01*
G37*
G36*
G01*
X145689000Y-114755000D02*
X145689000Y-114305000D01*
G75*
G02*
X145740000Y-114254000I51000J0D01*
G01*
X147490000Y-114254000D01*
G75*
G02*
X147541000Y-114305000I0J-51000D01*
G01*
X147541000Y-114755000D01*
G75*
G02*
X147490000Y-114806000I-51000J0D01*
G01*
X145740000Y-114806000D01*
G75*
G02*
X145689000Y-114755000I0J51000D01*
G01*
G37*
G36*
G01*
X145689000Y-115405000D02*
X145689000Y-114955000D01*
G75*
G02*
X145740000Y-114904000I51000J0D01*
G01*
X147490000Y-114904000D01*
G75*
G02*
X147541000Y-114955000I0J-51000D01*
G01*
X147541000Y-115405000D01*
G75*
G02*
X147490000Y-115456000I-51000J0D01*
G01*
X145740000Y-115456000D01*
G75*
G02*
X145689000Y-115405000I0J51000D01*
G01*
G37*
G36*
G01*
X138489000Y-115405000D02*
X138489000Y-114955000D01*
G75*
G02*
X138540000Y-114904000I51000J0D01*
G01*
X140290000Y-114904000D01*
G75*
G02*
X140341000Y-114955000I0J-51000D01*
G01*
X140341000Y-115405000D01*
G75*
G02*
X140290000Y-115456000I-51000J0D01*
G01*
X138540000Y-115456000D01*
G75*
G02*
X138489000Y-115405000I0J51000D01*
G01*
G37*
G36*
G01*
X138489000Y-114755000D02*
X138489000Y-114305000D01*
G75*
G02*
X138540000Y-114254000I51000J0D01*
G01*
X140290000Y-114254000D01*
G75*
G02*
X140341000Y-114305000I0J-51000D01*
G01*
X140341000Y-114755000D01*
G75*
G02*
X140290000Y-114806000I-51000J0D01*
G01*
X138540000Y-114806000D01*
G75*
G02*
X138489000Y-114755000I0J51000D01*
G01*
G37*
G36*
G01*
X138489000Y-114105000D02*
X138489000Y-113655000D01*
G75*
G02*
X138540000Y-113604000I51000J0D01*
G01*
X140290000Y-113604000D01*
G75*
G02*
X140341000Y-113655000I0J-51000D01*
G01*
X140341000Y-114105000D01*
G75*
G02*
X140290000Y-114156000I-51000J0D01*
G01*
X138540000Y-114156000D01*
G75*
G02*
X138489000Y-114105000I0J51000D01*
G01*
G37*
G36*
G01*
X138489000Y-113455000D02*
X138489000Y-113005000D01*
G75*
G02*
X138540000Y-112954000I51000J0D01*
G01*
X140290000Y-112954000D01*
G75*
G02*
X140341000Y-113005000I0J-51000D01*
G01*
X140341000Y-113455000D01*
G75*
G02*
X140290000Y-113506000I-51000J0D01*
G01*
X138540000Y-113506000D01*
G75*
G02*
X138489000Y-113455000I0J51000D01*
G01*
G37*
G36*
G01*
X138489000Y-112805000D02*
X138489000Y-112355000D01*
G75*
G02*
X138540000Y-112304000I51000J0D01*
G01*
X140290000Y-112304000D01*
G75*
G02*
X140341000Y-112355000I0J-51000D01*
G01*
X140341000Y-112805000D01*
G75*
G02*
X140290000Y-112856000I-51000J0D01*
G01*
X138540000Y-112856000D01*
G75*
G02*
X138489000Y-112805000I0J51000D01*
G01*
G37*
G36*
G01*
X138489000Y-112155000D02*
X138489000Y-111705000D01*
G75*
G02*
X138540000Y-111654000I51000J0D01*
G01*
X140290000Y-111654000D01*
G75*
G02*
X140341000Y-111705000I0J-51000D01*
G01*
X140341000Y-112155000D01*
G75*
G02*
X140290000Y-112206000I-51000J0D01*
G01*
X138540000Y-112206000D01*
G75*
G02*
X138489000Y-112155000I0J51000D01*
G01*
G37*
G36*
G01*
X138489000Y-111505000D02*
X138489000Y-111055000D01*
G75*
G02*
X138540000Y-111004000I51000J0D01*
G01*
X140290000Y-111004000D01*
G75*
G02*
X140341000Y-111055000I0J-51000D01*
G01*
X140341000Y-111505000D01*
G75*
G02*
X140290000Y-111556000I-51000J0D01*
G01*
X138540000Y-111556000D01*
G75*
G02*
X138489000Y-111505000I0J51000D01*
G01*
G37*
G36*
G01*
X138489000Y-110855000D02*
X138489000Y-110405000D01*
G75*
G02*
X138540000Y-110354000I51000J0D01*
G01*
X140290000Y-110354000D01*
G75*
G02*
X140341000Y-110405000I0J-51000D01*
G01*
X140341000Y-110855000D01*
G75*
G02*
X140290000Y-110906000I-51000J0D01*
G01*
X138540000Y-110906000D01*
G75*
G02*
X138489000Y-110855000I0J51000D01*
G01*
G37*
G36*
G01*
X138489000Y-110205000D02*
X138489000Y-109755000D01*
G75*
G02*
X138540000Y-109704000I51000J0D01*
G01*
X140290000Y-109704000D01*
G75*
G02*
X140341000Y-109755000I0J-51000D01*
G01*
X140341000Y-110205000D01*
G75*
G02*
X140290000Y-110256000I-51000J0D01*
G01*
X138540000Y-110256000D01*
G75*
G02*
X138489000Y-110205000I0J51000D01*
G01*
G37*
G36*
G01*
X138489000Y-109555000D02*
X138489000Y-109105000D01*
G75*
G02*
X138540000Y-109054000I51000J0D01*
G01*
X140290000Y-109054000D01*
G75*
G02*
X140341000Y-109105000I0J-51000D01*
G01*
X140341000Y-109555000D01*
G75*
G02*
X140290000Y-109606000I-51000J0D01*
G01*
X138540000Y-109606000D01*
G75*
G02*
X138489000Y-109555000I0J51000D01*
G01*
G37*
G36*
G01*
X138489000Y-108905000D02*
X138489000Y-108455000D01*
G75*
G02*
X138540000Y-108404000I51000J0D01*
G01*
X140290000Y-108404000D01*
G75*
G02*
X140341000Y-108455000I0J-51000D01*
G01*
X140341000Y-108905000D01*
G75*
G02*
X140290000Y-108956000I-51000J0D01*
G01*
X138540000Y-108956000D01*
G75*
G02*
X138489000Y-108905000I0J51000D01*
G01*
G37*
G36*
G01*
X138489000Y-108255000D02*
X138489000Y-107805000D01*
G75*
G02*
X138540000Y-107754000I51000J0D01*
G01*
X140290000Y-107754000D01*
G75*
G02*
X140341000Y-107805000I0J-51000D01*
G01*
X140341000Y-108255000D01*
G75*
G02*
X140290000Y-108306000I-51000J0D01*
G01*
X138540000Y-108306000D01*
G75*
G02*
X138489000Y-108255000I0J51000D01*
G01*
G37*
G36*
G01*
X138489000Y-107605000D02*
X138489000Y-107155000D01*
G75*
G02*
X138540000Y-107104000I51000J0D01*
G01*
X140290000Y-107104000D01*
G75*
G02*
X140341000Y-107155000I0J-51000D01*
G01*
X140341000Y-107605000D01*
G75*
G02*
X140290000Y-107656000I-51000J0D01*
G01*
X138540000Y-107656000D01*
G75*
G02*
X138489000Y-107605000I0J51000D01*
G01*
G37*
G36*
G01*
X138489000Y-106955000D02*
X138489000Y-106505000D01*
G75*
G02*
X138540000Y-106454000I51000J0D01*
G01*
X140290000Y-106454000D01*
G75*
G02*
X140341000Y-106505000I0J-51000D01*
G01*
X140341000Y-106955000D01*
G75*
G02*
X140290000Y-107006000I-51000J0D01*
G01*
X138540000Y-107006000D01*
G75*
G02*
X138489000Y-106955000I0J51000D01*
G01*
G37*
D13*
X179387000Y-86464000D03*
D14*
X181877000Y-87714000D03*
X181877000Y-92214000D03*
D13*
X179387000Y-93474000D03*
X120740000Y-93536000D03*
D14*
X118250000Y-92286000D03*
X118250000Y-87786000D03*
D13*
X120740000Y-86526000D03*
G36*
G01*
X135553875Y-113209000D02*
X136506125Y-113209000D01*
G75*
G02*
X136781000Y-113483875I0J-274875D01*
G01*
X136781000Y-114061125D01*
G75*
G02*
X136506125Y-114336000I-274875J0D01*
G01*
X135553875Y-114336000D01*
G75*
G02*
X135279000Y-114061125I0J274875D01*
G01*
X135279000Y-113483875D01*
G75*
G02*
X135553875Y-113209000I274875J0D01*
G01*
G37*
G36*
G01*
X135553875Y-111384000D02*
X136506125Y-111384000D01*
G75*
G02*
X136781000Y-111658875I0J-274875D01*
G01*
X136781000Y-112236125D01*
G75*
G02*
X136506125Y-112511000I-274875J0D01*
G01*
X135553875Y-112511000D01*
G75*
G02*
X135279000Y-112236125I0J274875D01*
G01*
X135279000Y-111658875D01*
G75*
G02*
X135553875Y-111384000I274875J0D01*
G01*
G37*
G36*
G01*
X142856125Y-96636000D02*
X141903875Y-96636000D01*
G75*
G02*
X141629000Y-96361125I0J274875D01*
G01*
X141629000Y-95783875D01*
G75*
G02*
X141903875Y-95509000I274875J0D01*
G01*
X142856125Y-95509000D01*
G75*
G02*
X143131000Y-95783875I0J-274875D01*
G01*
X143131000Y-96361125D01*
G75*
G02*
X142856125Y-96636000I-274875J0D01*
G01*
G37*
G36*
G01*
X142856125Y-98461000D02*
X141903875Y-98461000D01*
G75*
G02*
X141629000Y-98186125I0J274875D01*
G01*
X141629000Y-97608875D01*
G75*
G02*
X141903875Y-97334000I274875J0D01*
G01*
X142856125Y-97334000D01*
G75*
G02*
X143131000Y-97608875I0J-274875D01*
G01*
X143131000Y-98186125D01*
G75*
G02*
X142856125Y-98461000I-274875J0D01*
G01*
G37*
G36*
G01*
X146666125Y-96636000D02*
X145713875Y-96636000D01*
G75*
G02*
X145439000Y-96361125I0J274875D01*
G01*
X145439000Y-95783875D01*
G75*
G02*
X145713875Y-95509000I274875J0D01*
G01*
X146666125Y-95509000D01*
G75*
G02*
X146941000Y-95783875I0J-274875D01*
G01*
X146941000Y-96361125D01*
G75*
G02*
X146666125Y-96636000I-274875J0D01*
G01*
G37*
G36*
G01*
X146666125Y-98461000D02*
X145713875Y-98461000D01*
G75*
G02*
X145439000Y-98186125I0J274875D01*
G01*
X145439000Y-97608875D01*
G75*
G02*
X145713875Y-97334000I274875J0D01*
G01*
X146666125Y-97334000D01*
G75*
G02*
X146941000Y-97608875I0J-274875D01*
G01*
X146941000Y-98186125D01*
G75*
G02*
X146666125Y-98461000I-274875J0D01*
G01*
G37*
D10*
X134760000Y-101430000D03*
X132220000Y-101430000D03*
G36*
G01*
X130530000Y-102331000D02*
X128830000Y-102331000D01*
G75*
G02*
X128779000Y-102280000I0J51000D01*
G01*
X128779000Y-100580000D01*
G75*
G02*
X128830000Y-100529000I51000J0D01*
G01*
X130530000Y-100529000D01*
G75*
G02*
X130581000Y-100580000I0J-51000D01*
G01*
X130581000Y-102280000D01*
G75*
G02*
X130530000Y-102331000I-51000J0D01*
G01*
G37*
G36*
G01*
X139464000Y-122667501D02*
X139464000Y-120767499D01*
G75*
G02*
X139514999Y-120716500I50999J0D01*
G01*
X140715001Y-120716500D01*
G75*
G02*
X140766000Y-120767499I0J-50999D01*
G01*
X140766000Y-122667501D01*
G75*
G02*
X140715001Y-122718500I-50999J0D01*
G01*
X139514999Y-122718500D01*
G75*
G02*
X139464000Y-122667501I0J50999D01*
G01*
G37*
G36*
G01*
X145264000Y-122667501D02*
X145264000Y-120767499D01*
G75*
G02*
X145314999Y-120716500I50999J0D01*
G01*
X146515001Y-120716500D01*
G75*
G02*
X146566000Y-120767499I0J-50999D01*
G01*
X146566000Y-122667501D01*
G75*
G02*
X146515001Y-122718500I-50999J0D01*
G01*
X145314999Y-122718500D01*
G75*
G02*
X145264000Y-122667501I0J50999D01*
G01*
G37*
D15*
X146515000Y-121717500D03*
X139515000Y-121717500D03*
G36*
G01*
X141214000Y-122667500D02*
X141214000Y-120767500D01*
G75*
G02*
X141265000Y-120716500I51000J0D01*
G01*
X142765000Y-120716500D01*
G75*
G02*
X142816000Y-120767500I0J-51000D01*
G01*
X142816000Y-122667500D01*
G75*
G02*
X142765000Y-122718500I-51000J0D01*
G01*
X141265000Y-122718500D01*
G75*
G02*
X141214000Y-122667500I0J51000D01*
G01*
G37*
D16*
X145515000Y-119017500D03*
G36*
G01*
X142764000Y-119692500D02*
X142764000Y-118342500D01*
G75*
G02*
X142815000Y-118291500I51000J0D01*
G01*
X143215000Y-118291500D01*
G75*
G02*
X143266000Y-118342500I0J-51000D01*
G01*
X143266000Y-119692500D01*
G75*
G02*
X143215000Y-119743500I-51000J0D01*
G01*
X142815000Y-119743500D01*
G75*
G02*
X142764000Y-119692500I0J51000D01*
G01*
G37*
G36*
G01*
X143414000Y-119692500D02*
X143414000Y-118342500D01*
G75*
G02*
X143465000Y-118291500I51000J0D01*
G01*
X143865000Y-118291500D01*
G75*
G02*
X143916000Y-118342500I0J-51000D01*
G01*
X143916000Y-119692500D01*
G75*
G02*
X143865000Y-119743500I-51000J0D01*
G01*
X143465000Y-119743500D01*
G75*
G02*
X143414000Y-119692500I0J51000D01*
G01*
G37*
G36*
G01*
X144064000Y-119692500D02*
X144064000Y-118342500D01*
G75*
G02*
X144115000Y-118291500I51000J0D01*
G01*
X144515000Y-118291500D01*
G75*
G02*
X144566000Y-118342500I0J-51000D01*
G01*
X144566000Y-119692500D01*
G75*
G02*
X144515000Y-119743500I-51000J0D01*
G01*
X144115000Y-119743500D01*
G75*
G02*
X144064000Y-119692500I0J51000D01*
G01*
G37*
G36*
G01*
X141464000Y-119692500D02*
X141464000Y-118342500D01*
G75*
G02*
X141515000Y-118291500I51000J0D01*
G01*
X141915000Y-118291500D01*
G75*
G02*
X141966000Y-118342500I0J-51000D01*
G01*
X141966000Y-119692500D01*
G75*
G02*
X141915000Y-119743500I-51000J0D01*
G01*
X141515000Y-119743500D01*
G75*
G02*
X141464000Y-119692500I0J51000D01*
G01*
G37*
G36*
G01*
X142114000Y-119692500D02*
X142114000Y-118342500D01*
G75*
G02*
X142165000Y-118291500I51000J0D01*
G01*
X142565000Y-118291500D01*
G75*
G02*
X142616000Y-118342500I0J-51000D01*
G01*
X142616000Y-119692500D01*
G75*
G02*
X142565000Y-119743500I-51000J0D01*
G01*
X142165000Y-119743500D01*
G75*
G02*
X142114000Y-119692500I0J51000D01*
G01*
G37*
X140515000Y-119017500D03*
G36*
G01*
X143214000Y-122667500D02*
X143214000Y-120767500D01*
G75*
G02*
X143265000Y-120716500I51000J0D01*
G01*
X144765000Y-120716500D01*
G75*
G02*
X144816000Y-120767500I0J-51000D01*
G01*
X144816000Y-122667500D01*
G75*
G02*
X144765000Y-122718500I-51000J0D01*
G01*
X143265000Y-122718500D01*
G75*
G02*
X143214000Y-122667500I0J51000D01*
G01*
G37*
D10*
X149365000Y-118575000D03*
G36*
G01*
X150266000Y-120265000D02*
X150266000Y-121965000D01*
G75*
G02*
X150215000Y-122016000I-51000J0D01*
G01*
X148515000Y-122016000D01*
G75*
G02*
X148464000Y-121965000I0J51000D01*
G01*
X148464000Y-120265000D01*
G75*
G02*
X148515000Y-120214000I51000J0D01*
G01*
X150215000Y-120214000D01*
G75*
G02*
X150266000Y-120265000I0J-51000D01*
G01*
G37*
G36*
G01*
X138088250Y-101829000D02*
X139051750Y-101829000D01*
G75*
G02*
X139321000Y-102098250I0J-269250D01*
G01*
X139321000Y-102636750D01*
G75*
G02*
X139051750Y-102906000I-269250J0D01*
G01*
X138088250Y-102906000D01*
G75*
G02*
X137819000Y-102636750I0J269250D01*
G01*
X137819000Y-102098250D01*
G75*
G02*
X138088250Y-101829000I269250J0D01*
G01*
G37*
G36*
G01*
X138088250Y-99954000D02*
X139051750Y-99954000D01*
G75*
G02*
X139321000Y-100223250I0J-269250D01*
G01*
X139321000Y-100761750D01*
G75*
G02*
X139051750Y-101031000I-269250J0D01*
G01*
X138088250Y-101031000D01*
G75*
G02*
X137819000Y-100761750I0J269250D01*
G01*
X137819000Y-100223250D01*
G75*
G02*
X138088250Y-99954000I269250J0D01*
G01*
G37*
G36*
G01*
X141898250Y-101829000D02*
X142861750Y-101829000D01*
G75*
G02*
X143131000Y-102098250I0J-269250D01*
G01*
X143131000Y-102636750D01*
G75*
G02*
X142861750Y-102906000I-269250J0D01*
G01*
X141898250Y-102906000D01*
G75*
G02*
X141629000Y-102636750I0J269250D01*
G01*
X141629000Y-102098250D01*
G75*
G02*
X141898250Y-101829000I269250J0D01*
G01*
G37*
G36*
G01*
X141898250Y-99954000D02*
X142861750Y-99954000D01*
G75*
G02*
X143131000Y-100223250I0J-269250D01*
G01*
X143131000Y-100761750D01*
G75*
G02*
X142861750Y-101031000I-269250J0D01*
G01*
X141898250Y-101031000D01*
G75*
G02*
X141629000Y-100761750I0J269250D01*
G01*
X141629000Y-100223250D01*
G75*
G02*
X141898250Y-99954000I269250J0D01*
G01*
G37*
G36*
G01*
X145708250Y-101829000D02*
X146671750Y-101829000D01*
G75*
G02*
X146941000Y-102098250I0J-269250D01*
G01*
X146941000Y-102636750D01*
G75*
G02*
X146671750Y-102906000I-269250J0D01*
G01*
X145708250Y-102906000D01*
G75*
G02*
X145439000Y-102636750I0J269250D01*
G01*
X145439000Y-102098250D01*
G75*
G02*
X145708250Y-101829000I269250J0D01*
G01*
G37*
G36*
G01*
X145708250Y-99954000D02*
X146671750Y-99954000D01*
G75*
G02*
X146941000Y-100223250I0J-269250D01*
G01*
X146941000Y-100761750D01*
G75*
G02*
X146671750Y-101031000I-269250J0D01*
G01*
X145708250Y-101031000D01*
G75*
G02*
X145439000Y-100761750I0J269250D01*
G01*
X145439000Y-100223250D01*
G75*
G02*
X145708250Y-99954000I269250J0D01*
G01*
G37*
G36*
G01*
X166632990Y-70813513D02*
X167252315Y-70075430D01*
G75*
G02*
X167631643Y-70042244I206257J-173071D01*
G01*
X168044158Y-70388385D01*
G75*
G02*
X168077344Y-70767713I-173071J-206257D01*
G01*
X167458019Y-71505796D01*
G75*
G02*
X167078691Y-71538982I-206257J173071D01*
G01*
X166666176Y-71192841D01*
G75*
G02*
X166632990Y-70813513I173071J206257D01*
G01*
G37*
G36*
G01*
X165196656Y-69608287D02*
X165815981Y-68870204D01*
G75*
G02*
X166195309Y-68837018I206257J-173071D01*
G01*
X166607824Y-69183159D01*
G75*
G02*
X166641010Y-69562487I-173071J-206257D01*
G01*
X166021685Y-70300570D01*
G75*
G02*
X165642357Y-70333756I-206257J173071D01*
G01*
X165229842Y-69987615D01*
G75*
G02*
X165196656Y-69608287I173071J206257D01*
G01*
G37*
G36*
G01*
X174436125Y-97084246D02*
X175341519Y-97413782D01*
G75*
G02*
X175502442Y-97758883I-92089J-253012D01*
G01*
X175318264Y-98264907D01*
G75*
G02*
X174973163Y-98425830I-253012J92089D01*
G01*
X174067769Y-98096294D01*
G75*
G02*
X173906846Y-97751193I92089J253012D01*
G01*
X174091024Y-97245169D01*
G75*
G02*
X174436125Y-97084246I253012J-92089D01*
G01*
G37*
G36*
G01*
X173794837Y-98846170D02*
X174700231Y-99175706D01*
G75*
G02*
X174861154Y-99520807I-92089J-253012D01*
G01*
X174676976Y-100026831D01*
G75*
G02*
X174331875Y-100187754I-253012J92089D01*
G01*
X173426481Y-99858218D01*
G75*
G02*
X173265558Y-99513117I92089J253012D01*
G01*
X173449736Y-99007093D01*
G75*
G02*
X173794837Y-98846170I253012J-92089D01*
G01*
G37*
G36*
G01*
X133367010Y-109186487D02*
X132747685Y-109924570D01*
G75*
G02*
X132368357Y-109957756I-206257J173071D01*
G01*
X131955842Y-109611615D01*
G75*
G02*
X131922656Y-109232287I173071J206257D01*
G01*
X132541981Y-108494204D01*
G75*
G02*
X132921309Y-108461018I206257J-173071D01*
G01*
X133333824Y-108807159D01*
G75*
G02*
X133367010Y-109186487I-173071J-206257D01*
G01*
G37*
G36*
G01*
X134803344Y-110391713D02*
X134184019Y-111129796D01*
G75*
G02*
X133804691Y-111162982I-206257J173071D01*
G01*
X133392176Y-110816841D01*
G75*
G02*
X133358990Y-110437513I173071J206257D01*
G01*
X133978315Y-109699430D01*
G75*
G02*
X134357643Y-109666244I206257J-173071D01*
G01*
X134770158Y-110012385D01*
G75*
G02*
X134803344Y-110391713I-173071J-206257D01*
G01*
G37*
G36*
G01*
X126332163Y-80899830D02*
X125426769Y-80570294D01*
G75*
G02*
X125265846Y-80225193I92089J253012D01*
G01*
X125450024Y-79719169D01*
G75*
G02*
X125795125Y-79558246I253012J-92089D01*
G01*
X126700519Y-79887782D01*
G75*
G02*
X126861442Y-80232883I-92089J-253012D01*
G01*
X126677264Y-80738907D01*
G75*
G02*
X126332163Y-80899830I-253012J92089D01*
G01*
G37*
G36*
G01*
X125690875Y-82661754D02*
X124785481Y-82332218D01*
G75*
G02*
X124624558Y-81987117I92089J253012D01*
G01*
X124808736Y-81481093D01*
G75*
G02*
X125153837Y-81320170I253012J-92089D01*
G01*
X126059231Y-81649706D01*
G75*
G02*
X126220154Y-81994807I-92089J-253012D01*
G01*
X126035976Y-82500831D01*
G75*
G02*
X125690875Y-82661754I-253012J92089D01*
G01*
G37*
G36*
G01*
X173940769Y-81522706D02*
X174846163Y-81193170D01*
G75*
G02*
X175191264Y-81354093I92089J-253012D01*
G01*
X175375442Y-81860117D01*
G75*
G02*
X175214519Y-82205218I-253012J-92089D01*
G01*
X174309125Y-82534754D01*
G75*
G02*
X173964024Y-82373831I-92089J253012D01*
G01*
X173779846Y-81867807D01*
G75*
G02*
X173940769Y-81522706I253012J92089D01*
G01*
G37*
G36*
G01*
X173299481Y-79760782D02*
X174204875Y-79431246D01*
G75*
G02*
X174549976Y-79592169I92089J-253012D01*
G01*
X174734154Y-80098193D01*
G75*
G02*
X174573231Y-80443294I-253012J-92089D01*
G01*
X173667837Y-80772830D01*
G75*
G02*
X173322736Y-80611907I-92089J253012D01*
G01*
X173138558Y-80105883D01*
G75*
G02*
X173299481Y-79760782I253012J92089D01*
G01*
G37*
G36*
G01*
X166275685Y-109445430D02*
X166895010Y-110183513D01*
G75*
G02*
X166861824Y-110562841I-206257J-173071D01*
G01*
X166449309Y-110908982D01*
G75*
G02*
X166069981Y-110875796I-173071J206257D01*
G01*
X165450656Y-110137713D01*
G75*
G02*
X165483842Y-109758385I206257J173071D01*
G01*
X165896357Y-109412244D01*
G75*
G02*
X166275685Y-109445430I173071J-206257D01*
G01*
G37*
G36*
G01*
X167712019Y-108240204D02*
X168331344Y-108978287D01*
G75*
G02*
X168298158Y-109357615I-206257J-173071D01*
G01*
X167885643Y-109703756D01*
G75*
G02*
X167506315Y-109670570I-173071J206257D01*
G01*
X166886990Y-108932487D01*
G75*
G02*
X166920176Y-108553159I206257J173071D01*
G01*
X167332691Y-108207018D01*
G75*
G02*
X167712019Y-108240204I173071J-206257D01*
G01*
G37*
G36*
G01*
X126059231Y-98477294D02*
X125153837Y-98806830D01*
G75*
G02*
X124808736Y-98645907I-92089J253012D01*
G01*
X124624558Y-98139883D01*
G75*
G02*
X124785481Y-97794782I253012J92089D01*
G01*
X125690875Y-97465246D01*
G75*
G02*
X126035976Y-97626169I92089J-253012D01*
G01*
X126220154Y-98132193D01*
G75*
G02*
X126059231Y-98477294I-253012J-92089D01*
G01*
G37*
G36*
G01*
X126700519Y-100239218D02*
X125795125Y-100568754D01*
G75*
G02*
X125450024Y-100407831I-92089J253012D01*
G01*
X125265846Y-99901807D01*
G75*
G02*
X125426769Y-99556706I253012J92089D01*
G01*
X126332163Y-99227170D01*
G75*
G02*
X126677264Y-99388093I92089J-253012D01*
G01*
X126861442Y-99894117D01*
G75*
G02*
X126700519Y-100239218I-253012J-92089D01*
G01*
G37*
G36*
G01*
X134232315Y-70046570D02*
X133612990Y-69308487D01*
G75*
G02*
X133646176Y-68929159I206257J173071D01*
G01*
X134058691Y-68583018D01*
G75*
G02*
X134438019Y-68616204I173071J-206257D01*
G01*
X135057344Y-69354287D01*
G75*
G02*
X135024158Y-69733615I-206257J-173071D01*
G01*
X134611643Y-70079756D01*
G75*
G02*
X134232315Y-70046570I-173071J206257D01*
G01*
G37*
G36*
G01*
X132795981Y-71251796D02*
X132176656Y-70513713D01*
G75*
G02*
X132209842Y-70134385I206257J173071D01*
G01*
X132622357Y-69788244D01*
G75*
G02*
X133001685Y-69821430I173071J-206257D01*
G01*
X133621010Y-70559513D01*
G75*
G02*
X133587824Y-70938841I-206257J-173071D01*
G01*
X133175309Y-71284982D01*
G75*
G02*
X132795981Y-71251796I-173071J206257D01*
G01*
G37*
G36*
G01*
X171043231Y-75744162D02*
X171832484Y-75191521D01*
G75*
G02*
X172207476Y-75257643I154435J-220557D01*
G01*
X172516347Y-75698756D01*
G75*
G02*
X172450225Y-76073748I-220557J-154435D01*
G01*
X171660972Y-76626389D01*
G75*
G02*
X171285980Y-76560267I-154435J220557D01*
G01*
X170977109Y-76119154D01*
G75*
G02*
X171043231Y-75744162I220557J154435D01*
G01*
G37*
G36*
G01*
X169967775Y-74208252D02*
X170757028Y-73655611D01*
G75*
G02*
X171132020Y-73721733I154435J-220557D01*
G01*
X171440891Y-74162846D01*
G75*
G02*
X171374769Y-74537838I-220557J-154435D01*
G01*
X170585516Y-75090479D01*
G75*
G02*
X170210524Y-75024357I-154435J220557D01*
G01*
X169901653Y-74583244D01*
G75*
G02*
X169967775Y-74208252I220557J154435D01*
G01*
G37*
G36*
G01*
X170585516Y-104909521D02*
X171374769Y-105462162D01*
G75*
G02*
X171440891Y-105837154I-154435J-220557D01*
G01*
X171132020Y-106278267D01*
G75*
G02*
X170757028Y-106344389I-220557J154435D01*
G01*
X169967775Y-105791748D01*
G75*
G02*
X169901653Y-105416756I154435J220557D01*
G01*
X170210524Y-104975643D01*
G75*
G02*
X170585516Y-104909521I220557J-154435D01*
G01*
G37*
G36*
G01*
X171660972Y-103373611D02*
X172450225Y-103926252D01*
G75*
G02*
X172516347Y-104301244I-154435J-220557D01*
G01*
X172207476Y-104742357D01*
G75*
G02*
X171832484Y-104808479I-220557J154435D01*
G01*
X171043231Y-104255838D01*
G75*
G02*
X170977109Y-103880846I154435J220557D01*
G01*
X171285980Y-103439733D01*
G75*
G02*
X171660972Y-103373611I220557J-154435D01*
G01*
G37*
G36*
G01*
X129210769Y-104636838D02*
X128421516Y-105189479D01*
G75*
G02*
X128046524Y-105123357I-154435J220557D01*
G01*
X127737653Y-104682244D01*
G75*
G02*
X127803775Y-104307252I220557J154435D01*
G01*
X128593028Y-103754611D01*
G75*
G02*
X128968020Y-103820733I154435J-220557D01*
G01*
X129276891Y-104261846D01*
G75*
G02*
X129210769Y-104636838I-220557J-154435D01*
G01*
G37*
G36*
G01*
X130286225Y-106172748D02*
X129496972Y-106725389D01*
G75*
G02*
X129121980Y-106659267I-154435J220557D01*
G01*
X128813109Y-106218154D01*
G75*
G02*
X128879231Y-105843162I220557J154435D01*
G01*
X129668484Y-105290521D01*
G75*
G02*
X130043476Y-105356643I154435J-220557D01*
G01*
X130352347Y-105797756D01*
G75*
G02*
X130286225Y-106172748I-220557J-154435D01*
G01*
G37*
G36*
G01*
X129668484Y-74709479D02*
X128879231Y-74156838D01*
G75*
G02*
X128813109Y-73781846I154435J220557D01*
G01*
X129121980Y-73340733D01*
G75*
G02*
X129496972Y-73274611I220557J-154435D01*
G01*
X130286225Y-73827252D01*
G75*
G02*
X130352347Y-74202244I-154435J-220557D01*
G01*
X130043476Y-74643357D01*
G75*
G02*
X129668484Y-74709479I-220557J154435D01*
G01*
G37*
G36*
G01*
X128593028Y-76245389D02*
X127803775Y-75692748D01*
G75*
G02*
X127737653Y-75317756I154435J220557D01*
G01*
X128046524Y-74876643D01*
G75*
G02*
X128421516Y-74810521I220557J-154435D01*
G01*
X129210769Y-75363162D01*
G75*
G02*
X129276891Y-75738154I-154435J-220557D01*
G01*
X128968020Y-76179267D01*
G75*
G02*
X128593028Y-76245389I-220557J154435D01*
G01*
G37*
G36*
G01*
X143803250Y-81509000D02*
X144766750Y-81509000D01*
G75*
G02*
X145036000Y-81778250I0J-269250D01*
G01*
X145036000Y-82316750D01*
G75*
G02*
X144766750Y-82586000I-269250J0D01*
G01*
X143803250Y-82586000D01*
G75*
G02*
X143534000Y-82316750I0J269250D01*
G01*
X143534000Y-81778250D01*
G75*
G02*
X143803250Y-81509000I269250J0D01*
G01*
G37*
G36*
G01*
X143803250Y-79634000D02*
X144766750Y-79634000D01*
G75*
G02*
X145036000Y-79903250I0J-269250D01*
G01*
X145036000Y-80441750D01*
G75*
G02*
X144766750Y-80711000I-269250J0D01*
G01*
X143803250Y-80711000D01*
G75*
G02*
X143534000Y-80441750I0J269250D01*
G01*
X143534000Y-79903250D01*
G75*
G02*
X143803250Y-79634000I269250J0D01*
G01*
G37*
G36*
G01*
X147613250Y-81509000D02*
X148576750Y-81509000D01*
G75*
G02*
X148846000Y-81778250I0J-269250D01*
G01*
X148846000Y-82316750D01*
G75*
G02*
X148576750Y-82586000I-269250J0D01*
G01*
X147613250Y-82586000D01*
G75*
G02*
X147344000Y-82316750I0J269250D01*
G01*
X147344000Y-81778250D01*
G75*
G02*
X147613250Y-81509000I269250J0D01*
G01*
G37*
G36*
G01*
X147613250Y-79634000D02*
X148576750Y-79634000D01*
G75*
G02*
X148846000Y-79903250I0J-269250D01*
G01*
X148846000Y-80441750D01*
G75*
G02*
X148576750Y-80711000I-269250J0D01*
G01*
X147613250Y-80711000D01*
G75*
G02*
X147344000Y-80441750I0J269250D01*
G01*
X147344000Y-79903250D01*
G75*
G02*
X147613250Y-79634000I269250J0D01*
G01*
G37*
G36*
G01*
X151423250Y-81509000D02*
X152386750Y-81509000D01*
G75*
G02*
X152656000Y-81778250I0J-269250D01*
G01*
X152656000Y-82316750D01*
G75*
G02*
X152386750Y-82586000I-269250J0D01*
G01*
X151423250Y-82586000D01*
G75*
G02*
X151154000Y-82316750I0J269250D01*
G01*
X151154000Y-81778250D01*
G75*
G02*
X151423250Y-81509000I269250J0D01*
G01*
G37*
G36*
G01*
X151423250Y-79634000D02*
X152386750Y-79634000D01*
G75*
G02*
X152656000Y-79903250I0J-269250D01*
G01*
X152656000Y-80441750D01*
G75*
G02*
X152386750Y-80711000I-269250J0D01*
G01*
X151423250Y-80711000D01*
G75*
G02*
X151154000Y-80441750I0J269250D01*
G01*
X151154000Y-79903250D01*
G75*
G02*
X151423250Y-79634000I269250J0D01*
G01*
G37*
G36*
G01*
X155233250Y-81509000D02*
X156196750Y-81509000D01*
G75*
G02*
X156466000Y-81778250I0J-269250D01*
G01*
X156466000Y-82316750D01*
G75*
G02*
X156196750Y-82586000I-269250J0D01*
G01*
X155233250Y-82586000D01*
G75*
G02*
X154964000Y-82316750I0J269250D01*
G01*
X154964000Y-81778250D01*
G75*
G02*
X155233250Y-81509000I269250J0D01*
G01*
G37*
G36*
G01*
X155233250Y-79634000D02*
X156196750Y-79634000D01*
G75*
G02*
X156466000Y-79903250I0J-269250D01*
G01*
X156466000Y-80441750D01*
G75*
G02*
X156196750Y-80711000I-269250J0D01*
G01*
X155233250Y-80711000D01*
G75*
G02*
X154964000Y-80441750I0J269250D01*
G01*
X154964000Y-79903250D01*
G75*
G02*
X155233250Y-79634000I269250J0D01*
G01*
G37*
G36*
G01*
X136530500Y-106746000D02*
X135529500Y-106746000D01*
G75*
G02*
X135254000Y-106470500I0J275500D01*
G01*
X135254000Y-105919500D01*
G75*
G02*
X135529500Y-105644000I275500J0D01*
G01*
X136530500Y-105644000D01*
G75*
G02*
X136806000Y-105919500I0J-275500D01*
G01*
X136806000Y-106470500D01*
G75*
G02*
X136530500Y-106746000I-275500J0D01*
G01*
G37*
G36*
G01*
X136530500Y-108646000D02*
X135529500Y-108646000D01*
G75*
G02*
X135254000Y-108370500I0J275500D01*
G01*
X135254000Y-107819500D01*
G75*
G02*
X135529500Y-107544000I275500J0D01*
G01*
X136530500Y-107544000D01*
G75*
G02*
X136806000Y-107819500I0J-275500D01*
G01*
X136806000Y-108370500D01*
G75*
G02*
X136530500Y-108646000I-275500J0D01*
G01*
G37*
G36*
G01*
X150236000Y-107914500D02*
X150236000Y-108915500D01*
G75*
G02*
X149960500Y-109191000I-275500J0D01*
G01*
X149409500Y-109191000D01*
G75*
G02*
X149134000Y-108915500I0J275500D01*
G01*
X149134000Y-107914500D01*
G75*
G02*
X149409500Y-107639000I275500J0D01*
G01*
X149960500Y-107639000D01*
G75*
G02*
X150236000Y-107914500I0J-275500D01*
G01*
G37*
G36*
G01*
X152136000Y-107914500D02*
X152136000Y-108915500D01*
G75*
G02*
X151860500Y-109191000I-275500J0D01*
G01*
X151309500Y-109191000D01*
G75*
G02*
X151034000Y-108915500I0J275500D01*
G01*
X151034000Y-107914500D01*
G75*
G02*
X151309500Y-107639000I275500J0D01*
G01*
X151860500Y-107639000D01*
G75*
G02*
X152136000Y-107914500I0J-275500D01*
G01*
G37*
G36*
G01*
X150236000Y-105374500D02*
X150236000Y-106375500D01*
G75*
G02*
X149960500Y-106651000I-275500J0D01*
G01*
X149409500Y-106651000D01*
G75*
G02*
X149134000Y-106375500I0J275500D01*
G01*
X149134000Y-105374500D01*
G75*
G02*
X149409500Y-105099000I275500J0D01*
G01*
X149960500Y-105099000D01*
G75*
G02*
X150236000Y-105374500I0J-275500D01*
G01*
G37*
G36*
G01*
X152136000Y-105374500D02*
X152136000Y-106375500D01*
G75*
G02*
X151860500Y-106651000I-275500J0D01*
G01*
X151309500Y-106651000D01*
G75*
G02*
X151034000Y-106375500I0J275500D01*
G01*
X151034000Y-105374500D01*
G75*
G02*
X151309500Y-105099000I275500J0D01*
G01*
X151860500Y-105099000D01*
G75*
G02*
X152136000Y-105374500I0J-275500D01*
G01*
G37*
G36*
G01*
X150236000Y-102834500D02*
X150236000Y-103835500D01*
G75*
G02*
X149960500Y-104111000I-275500J0D01*
G01*
X149409500Y-104111000D01*
G75*
G02*
X149134000Y-103835500I0J275500D01*
G01*
X149134000Y-102834500D01*
G75*
G02*
X149409500Y-102559000I275500J0D01*
G01*
X149960500Y-102559000D01*
G75*
G02*
X150236000Y-102834500I0J-275500D01*
G01*
G37*
G36*
G01*
X152136000Y-102834500D02*
X152136000Y-103835500D01*
G75*
G02*
X151860500Y-104111000I-275500J0D01*
G01*
X151309500Y-104111000D01*
G75*
G02*
X151034000Y-103835500I0J275500D01*
G01*
X151034000Y-102834500D01*
G75*
G02*
X151309500Y-102559000I275500J0D01*
G01*
X151860500Y-102559000D01*
G75*
G02*
X152136000Y-102834500I0J-275500D01*
G01*
G37*
G36*
G01*
X157449000Y-58446000D02*
X157449000Y-57546000D01*
G75*
G02*
X157500000Y-57495000I51000J0D01*
G01*
X159500000Y-57495000D01*
G75*
G02*
X159551000Y-57546000I0J-51000D01*
G01*
X159551000Y-58446000D01*
G75*
G02*
X159500000Y-58497000I-51000J0D01*
G01*
X157500000Y-58497000D01*
G75*
G02*
X157449000Y-58446000I0J51000D01*
G01*
G37*
G36*
G01*
X157449000Y-59716000D02*
X157449000Y-58816000D01*
G75*
G02*
X157500000Y-58765000I51000J0D01*
G01*
X159500000Y-58765000D01*
G75*
G02*
X159551000Y-58816000I0J-51000D01*
G01*
X159551000Y-59716000D01*
G75*
G02*
X159500000Y-59767000I-51000J0D01*
G01*
X157500000Y-59767000D01*
G75*
G02*
X157449000Y-59716000I0J51000D01*
G01*
G37*
G36*
G01*
X157449000Y-60986000D02*
X157449000Y-60086000D01*
G75*
G02*
X157500000Y-60035000I51000J0D01*
G01*
X159500000Y-60035000D01*
G75*
G02*
X159551000Y-60086000I0J-51000D01*
G01*
X159551000Y-60986000D01*
G75*
G02*
X159500000Y-61037000I-51000J0D01*
G01*
X157500000Y-61037000D01*
G75*
G02*
X157449000Y-60986000I0J51000D01*
G01*
G37*
G36*
G01*
X157449000Y-62256000D02*
X157449000Y-61356000D01*
G75*
G02*
X157500000Y-61305000I51000J0D01*
G01*
X159500000Y-61305000D01*
G75*
G02*
X159551000Y-61356000I0J-51000D01*
G01*
X159551000Y-62256000D01*
G75*
G02*
X159500000Y-62307000I-51000J0D01*
G01*
X157500000Y-62307000D01*
G75*
G02*
X157449000Y-62256000I0J51000D01*
G01*
G37*
G36*
G01*
X157449000Y-63526000D02*
X157449000Y-62626000D01*
G75*
G02*
X157500000Y-62575000I51000J0D01*
G01*
X159500000Y-62575000D01*
G75*
G02*
X159551000Y-62626000I0J-51000D01*
G01*
X159551000Y-63526000D01*
G75*
G02*
X159500000Y-63577000I-51000J0D01*
G01*
X157500000Y-63577000D01*
G75*
G02*
X157449000Y-63526000I0J51000D01*
G01*
G37*
G36*
G01*
X157449000Y-64796000D02*
X157449000Y-63896000D01*
G75*
G02*
X157500000Y-63845000I51000J0D01*
G01*
X159500000Y-63845000D01*
G75*
G02*
X159551000Y-63896000I0J-51000D01*
G01*
X159551000Y-64796000D01*
G75*
G02*
X159500000Y-64847000I-51000J0D01*
G01*
X157500000Y-64847000D01*
G75*
G02*
X157449000Y-64796000I0J51000D01*
G01*
G37*
G36*
G01*
X157449000Y-66066000D02*
X157449000Y-65166000D01*
G75*
G02*
X157500000Y-65115000I51000J0D01*
G01*
X159500000Y-65115000D01*
G75*
G02*
X159551000Y-65166000I0J-51000D01*
G01*
X159551000Y-66066000D01*
G75*
G02*
X159500000Y-66117000I-51000J0D01*
G01*
X157500000Y-66117000D01*
G75*
G02*
X157449000Y-66066000I0J51000D01*
G01*
G37*
G36*
G01*
X157449000Y-67336000D02*
X157449000Y-66436000D01*
G75*
G02*
X157500000Y-66385000I51000J0D01*
G01*
X159500000Y-66385000D01*
G75*
G02*
X159551000Y-66436000I0J-51000D01*
G01*
X159551000Y-67336000D01*
G75*
G02*
X159500000Y-67387000I-51000J0D01*
G01*
X157500000Y-67387000D01*
G75*
G02*
X157449000Y-67336000I0J51000D01*
G01*
G37*
G36*
G01*
X157449000Y-68606000D02*
X157449000Y-67706000D01*
G75*
G02*
X157500000Y-67655000I51000J0D01*
G01*
X159500000Y-67655000D01*
G75*
G02*
X159551000Y-67706000I0J-51000D01*
G01*
X159551000Y-68606000D01*
G75*
G02*
X159500000Y-68657000I-51000J0D01*
G01*
X157500000Y-68657000D01*
G75*
G02*
X157449000Y-68606000I0J51000D01*
G01*
G37*
G36*
G01*
X157449000Y-69876000D02*
X157449000Y-68976000D01*
G75*
G02*
X157500000Y-68925000I51000J0D01*
G01*
X159500000Y-68925000D01*
G75*
G02*
X159551000Y-68976000I0J-51000D01*
G01*
X159551000Y-69876000D01*
G75*
G02*
X159500000Y-69927000I-51000J0D01*
G01*
X157500000Y-69927000D01*
G75*
G02*
X157449000Y-69876000I0J51000D01*
G01*
G37*
G36*
G01*
X157449000Y-71146000D02*
X157449000Y-70246000D01*
G75*
G02*
X157500000Y-70195000I51000J0D01*
G01*
X159500000Y-70195000D01*
G75*
G02*
X159551000Y-70246000I0J-51000D01*
G01*
X159551000Y-71146000D01*
G75*
G02*
X159500000Y-71197000I-51000J0D01*
G01*
X157500000Y-71197000D01*
G75*
G02*
X157449000Y-71146000I0J51000D01*
G01*
G37*
G36*
G01*
X157449000Y-72416000D02*
X157449000Y-71516000D01*
G75*
G02*
X157500000Y-71465000I51000J0D01*
G01*
X159500000Y-71465000D01*
G75*
G02*
X159551000Y-71516000I0J-51000D01*
G01*
X159551000Y-72416000D01*
G75*
G02*
X159500000Y-72467000I-51000J0D01*
G01*
X157500000Y-72467000D01*
G75*
G02*
X157449000Y-72416000I0J51000D01*
G01*
G37*
G36*
G01*
X157449000Y-73686000D02*
X157449000Y-72786000D01*
G75*
G02*
X157500000Y-72735000I51000J0D01*
G01*
X159500000Y-72735000D01*
G75*
G02*
X159551000Y-72786000I0J-51000D01*
G01*
X159551000Y-73686000D01*
G75*
G02*
X159500000Y-73737000I-51000J0D01*
G01*
X157500000Y-73737000D01*
G75*
G02*
X157449000Y-73686000I0J51000D01*
G01*
G37*
G36*
G01*
X157449000Y-74956000D02*
X157449000Y-74056000D01*
G75*
G02*
X157500000Y-74005000I51000J0D01*
G01*
X159500000Y-74005000D01*
G75*
G02*
X159551000Y-74056000I0J-51000D01*
G01*
X159551000Y-74956000D01*
G75*
G02*
X159500000Y-75007000I-51000J0D01*
G01*
X157500000Y-75007000D01*
G75*
G02*
X157449000Y-74956000I0J51000D01*
G01*
G37*
G36*
G01*
X156165000Y-76557000D02*
X155265000Y-76557000D01*
G75*
G02*
X155214000Y-76506000I0J51000D01*
G01*
X155214000Y-74506000D01*
G75*
G02*
X155265000Y-74455000I51000J0D01*
G01*
X156165000Y-74455000D01*
G75*
G02*
X156216000Y-74506000I0J-51000D01*
G01*
X156216000Y-76506000D01*
G75*
G02*
X156165000Y-76557000I-51000J0D01*
G01*
G37*
G36*
G01*
X154895000Y-76557000D02*
X153995000Y-76557000D01*
G75*
G02*
X153944000Y-76506000I0J51000D01*
G01*
X153944000Y-74506000D01*
G75*
G02*
X153995000Y-74455000I51000J0D01*
G01*
X154895000Y-74455000D01*
G75*
G02*
X154946000Y-74506000I0J-51000D01*
G01*
X154946000Y-76506000D01*
G75*
G02*
X154895000Y-76557000I-51000J0D01*
G01*
G37*
G36*
G01*
X153625000Y-76557000D02*
X152725000Y-76557000D01*
G75*
G02*
X152674000Y-76506000I0J51000D01*
G01*
X152674000Y-74506000D01*
G75*
G02*
X152725000Y-74455000I51000J0D01*
G01*
X153625000Y-74455000D01*
G75*
G02*
X153676000Y-74506000I0J-51000D01*
G01*
X153676000Y-76506000D01*
G75*
G02*
X153625000Y-76557000I-51000J0D01*
G01*
G37*
G36*
G01*
X152355000Y-76557000D02*
X151455000Y-76557000D01*
G75*
G02*
X151404000Y-76506000I0J51000D01*
G01*
X151404000Y-74506000D01*
G75*
G02*
X151455000Y-74455000I51000J0D01*
G01*
X152355000Y-74455000D01*
G75*
G02*
X152406000Y-74506000I0J-51000D01*
G01*
X152406000Y-76506000D01*
G75*
G02*
X152355000Y-76557000I-51000J0D01*
G01*
G37*
G36*
G01*
X151085000Y-76557000D02*
X150185000Y-76557000D01*
G75*
G02*
X150134000Y-76506000I0J51000D01*
G01*
X150134000Y-74506000D01*
G75*
G02*
X150185000Y-74455000I51000J0D01*
G01*
X151085000Y-74455000D01*
G75*
G02*
X151136000Y-74506000I0J-51000D01*
G01*
X151136000Y-76506000D01*
G75*
G02*
X151085000Y-76557000I-51000J0D01*
G01*
G37*
G36*
G01*
X149815000Y-76557000D02*
X148915000Y-76557000D01*
G75*
G02*
X148864000Y-76506000I0J51000D01*
G01*
X148864000Y-74506000D01*
G75*
G02*
X148915000Y-74455000I51000J0D01*
G01*
X149815000Y-74455000D01*
G75*
G02*
X149866000Y-74506000I0J-51000D01*
G01*
X149866000Y-76506000D01*
G75*
G02*
X149815000Y-76557000I-51000J0D01*
G01*
G37*
G36*
G01*
X148545000Y-76557000D02*
X147645000Y-76557000D01*
G75*
G02*
X147594000Y-76506000I0J51000D01*
G01*
X147594000Y-74506000D01*
G75*
G02*
X147645000Y-74455000I51000J0D01*
G01*
X148545000Y-74455000D01*
G75*
G02*
X148596000Y-74506000I0J-51000D01*
G01*
X148596000Y-76506000D01*
G75*
G02*
X148545000Y-76557000I-51000J0D01*
G01*
G37*
G36*
G01*
X147275000Y-76557000D02*
X146375000Y-76557000D01*
G75*
G02*
X146324000Y-76506000I0J51000D01*
G01*
X146324000Y-74506000D01*
G75*
G02*
X146375000Y-74455000I51000J0D01*
G01*
X147275000Y-74455000D01*
G75*
G02*
X147326000Y-74506000I0J-51000D01*
G01*
X147326000Y-76506000D01*
G75*
G02*
X147275000Y-76557000I-51000J0D01*
G01*
G37*
G36*
G01*
X146005000Y-76557000D02*
X145105000Y-76557000D01*
G75*
G02*
X145054000Y-76506000I0J51000D01*
G01*
X145054000Y-74506000D01*
G75*
G02*
X145105000Y-74455000I51000J0D01*
G01*
X146005000Y-74455000D01*
G75*
G02*
X146056000Y-74506000I0J-51000D01*
G01*
X146056000Y-76506000D01*
G75*
G02*
X146005000Y-76557000I-51000J0D01*
G01*
G37*
G36*
G01*
X144735000Y-76557000D02*
X143835000Y-76557000D01*
G75*
G02*
X143784000Y-76506000I0J51000D01*
G01*
X143784000Y-74506000D01*
G75*
G02*
X143835000Y-74455000I51000J0D01*
G01*
X144735000Y-74455000D01*
G75*
G02*
X144786000Y-74506000I0J-51000D01*
G01*
X144786000Y-76506000D01*
G75*
G02*
X144735000Y-76557000I-51000J0D01*
G01*
G37*
G36*
G01*
X140449000Y-74956000D02*
X140449000Y-74056000D01*
G75*
G02*
X140500000Y-74005000I51000J0D01*
G01*
X142500000Y-74005000D01*
G75*
G02*
X142551000Y-74056000I0J-51000D01*
G01*
X142551000Y-74956000D01*
G75*
G02*
X142500000Y-75007000I-51000J0D01*
G01*
X140500000Y-75007000D01*
G75*
G02*
X140449000Y-74956000I0J51000D01*
G01*
G37*
G36*
G01*
X140449000Y-73686000D02*
X140449000Y-72786000D01*
G75*
G02*
X140500000Y-72735000I51000J0D01*
G01*
X142500000Y-72735000D01*
G75*
G02*
X142551000Y-72786000I0J-51000D01*
G01*
X142551000Y-73686000D01*
G75*
G02*
X142500000Y-73737000I-51000J0D01*
G01*
X140500000Y-73737000D01*
G75*
G02*
X140449000Y-73686000I0J51000D01*
G01*
G37*
G36*
G01*
X140449000Y-72416000D02*
X140449000Y-71516000D01*
G75*
G02*
X140500000Y-71465000I51000J0D01*
G01*
X142500000Y-71465000D01*
G75*
G02*
X142551000Y-71516000I0J-51000D01*
G01*
X142551000Y-72416000D01*
G75*
G02*
X142500000Y-72467000I-51000J0D01*
G01*
X140500000Y-72467000D01*
G75*
G02*
X140449000Y-72416000I0J51000D01*
G01*
G37*
G36*
G01*
X140449000Y-71146000D02*
X140449000Y-70246000D01*
G75*
G02*
X140500000Y-70195000I51000J0D01*
G01*
X142500000Y-70195000D01*
G75*
G02*
X142551000Y-70246000I0J-51000D01*
G01*
X142551000Y-71146000D01*
G75*
G02*
X142500000Y-71197000I-51000J0D01*
G01*
X140500000Y-71197000D01*
G75*
G02*
X140449000Y-71146000I0J51000D01*
G01*
G37*
G36*
G01*
X140449000Y-69876000D02*
X140449000Y-68976000D01*
G75*
G02*
X140500000Y-68925000I51000J0D01*
G01*
X142500000Y-68925000D01*
G75*
G02*
X142551000Y-68976000I0J-51000D01*
G01*
X142551000Y-69876000D01*
G75*
G02*
X142500000Y-69927000I-51000J0D01*
G01*
X140500000Y-69927000D01*
G75*
G02*
X140449000Y-69876000I0J51000D01*
G01*
G37*
G36*
G01*
X140449000Y-68606000D02*
X140449000Y-67706000D01*
G75*
G02*
X140500000Y-67655000I51000J0D01*
G01*
X142500000Y-67655000D01*
G75*
G02*
X142551000Y-67706000I0J-51000D01*
G01*
X142551000Y-68606000D01*
G75*
G02*
X142500000Y-68657000I-51000J0D01*
G01*
X140500000Y-68657000D01*
G75*
G02*
X140449000Y-68606000I0J51000D01*
G01*
G37*
G36*
G01*
X140449000Y-67336000D02*
X140449000Y-66436000D01*
G75*
G02*
X140500000Y-66385000I51000J0D01*
G01*
X142500000Y-66385000D01*
G75*
G02*
X142551000Y-66436000I0J-51000D01*
G01*
X142551000Y-67336000D01*
G75*
G02*
X142500000Y-67387000I-51000J0D01*
G01*
X140500000Y-67387000D01*
G75*
G02*
X140449000Y-67336000I0J51000D01*
G01*
G37*
G36*
G01*
X140449000Y-66066000D02*
X140449000Y-65166000D01*
G75*
G02*
X140500000Y-65115000I51000J0D01*
G01*
X142500000Y-65115000D01*
G75*
G02*
X142551000Y-65166000I0J-51000D01*
G01*
X142551000Y-66066000D01*
G75*
G02*
X142500000Y-66117000I-51000J0D01*
G01*
X140500000Y-66117000D01*
G75*
G02*
X140449000Y-66066000I0J51000D01*
G01*
G37*
G36*
G01*
X140449000Y-64796000D02*
X140449000Y-63896000D01*
G75*
G02*
X140500000Y-63845000I51000J0D01*
G01*
X142500000Y-63845000D01*
G75*
G02*
X142551000Y-63896000I0J-51000D01*
G01*
X142551000Y-64796000D01*
G75*
G02*
X142500000Y-64847000I-51000J0D01*
G01*
X140500000Y-64847000D01*
G75*
G02*
X140449000Y-64796000I0J51000D01*
G01*
G37*
G36*
G01*
X140449000Y-63526000D02*
X140449000Y-62626000D01*
G75*
G02*
X140500000Y-62575000I51000J0D01*
G01*
X142500000Y-62575000D01*
G75*
G02*
X142551000Y-62626000I0J-51000D01*
G01*
X142551000Y-63526000D01*
G75*
G02*
X142500000Y-63577000I-51000J0D01*
G01*
X140500000Y-63577000D01*
G75*
G02*
X140449000Y-63526000I0J51000D01*
G01*
G37*
G36*
G01*
X140449000Y-62256000D02*
X140449000Y-61356000D01*
G75*
G02*
X140500000Y-61305000I51000J0D01*
G01*
X142500000Y-61305000D01*
G75*
G02*
X142551000Y-61356000I0J-51000D01*
G01*
X142551000Y-62256000D01*
G75*
G02*
X142500000Y-62307000I-51000J0D01*
G01*
X140500000Y-62307000D01*
G75*
G02*
X140449000Y-62256000I0J51000D01*
G01*
G37*
G36*
G01*
X140449000Y-60986000D02*
X140449000Y-60086000D01*
G75*
G02*
X140500000Y-60035000I51000J0D01*
G01*
X142500000Y-60035000D01*
G75*
G02*
X142551000Y-60086000I0J-51000D01*
G01*
X142551000Y-60986000D01*
G75*
G02*
X142500000Y-61037000I-51000J0D01*
G01*
X140500000Y-61037000D01*
G75*
G02*
X140449000Y-60986000I0J51000D01*
G01*
G37*
G36*
G01*
X140449000Y-59716000D02*
X140449000Y-58816000D01*
G75*
G02*
X140500000Y-58765000I51000J0D01*
G01*
X142500000Y-58765000D01*
G75*
G02*
X142551000Y-58816000I0J-51000D01*
G01*
X142551000Y-59716000D01*
G75*
G02*
X142500000Y-59767000I-51000J0D01*
G01*
X140500000Y-59767000D01*
G75*
G02*
X140449000Y-59716000I0J51000D01*
G01*
G37*
G36*
G01*
X140449000Y-58446000D02*
X140449000Y-57546000D01*
G75*
G02*
X140500000Y-57495000I51000J0D01*
G01*
X142500000Y-57495000D01*
G75*
G02*
X142551000Y-57546000I0J-51000D01*
G01*
X142551000Y-58446000D01*
G75*
G02*
X142500000Y-58497000I-51000J0D01*
G01*
X140500000Y-58497000D01*
G75*
G02*
X140449000Y-58446000I0J51000D01*
G01*
G37*
G36*
G01*
X146449000Y-67996000D02*
X146449000Y-62996000D01*
G75*
G02*
X146500000Y-62945000I51000J0D01*
G01*
X151500000Y-62945000D01*
G75*
G02*
X151551000Y-62996000I0J-51000D01*
G01*
X151551000Y-67996000D01*
G75*
G02*
X151500000Y-68047000I-51000J0D01*
G01*
X146500000Y-68047000D01*
G75*
G02*
X146449000Y-67996000I0J51000D01*
G01*
G37*
D17*
X173495000Y-93810000D03*
X170955000Y-93810000D03*
G36*
G01*
X167464000Y-94496622D02*
X167464000Y-93123378D01*
G75*
G02*
X167728378Y-92859000I264378J0D01*
G01*
X169101622Y-92859000D01*
G75*
G02*
X169366000Y-93123378I0J-264378D01*
G01*
X169366000Y-94496622D01*
G75*
G02*
X169101622Y-94761000I-264378J0D01*
G01*
X167728378Y-94761000D01*
G75*
G02*
X167464000Y-94496622I0J264378D01*
G01*
G37*
X131585000Y-93810000D03*
X129045000Y-93810000D03*
G36*
G01*
X125554000Y-94496622D02*
X125554000Y-93123378D01*
G75*
G02*
X125818378Y-92859000I264378J0D01*
G01*
X127191622Y-92859000D01*
G75*
G02*
X127456000Y-93123378I0J-264378D01*
G01*
X127456000Y-94496622D01*
G75*
G02*
X127191622Y-94761000I-264378J0D01*
G01*
X125818378Y-94761000D01*
G75*
G02*
X125554000Y-94496622I0J264378D01*
G01*
G37*
X171249753Y-66613681D03*
G36*
G01*
X167996983Y-65059149D02*
X169154001Y-63680269D01*
G75*
G02*
X169225851Y-63673983I39068J-32782D01*
G01*
X170604731Y-64831001D01*
G75*
G02*
X170611017Y-64902851I-32782J-39068D01*
G01*
X169453999Y-66281731D01*
G75*
G02*
X169382149Y-66288017I-39068J32782D01*
G01*
X168003269Y-65130999D01*
G75*
G02*
X167996983Y-65059149I32782J39068D01*
G01*
G37*
G36*
G01*
X179578538Y-98450535D02*
X181269984Y-99066171D01*
G75*
G02*
X181300465Y-99131538I-17443J-47924D01*
G01*
X180684829Y-100822984D01*
G75*
G02*
X180619462Y-100853465I-47924J17443D01*
G01*
X178928016Y-100237829D01*
G75*
G02*
X178897535Y-100172462I17443J47924D01*
G01*
X179513171Y-98481016D01*
G75*
G02*
X179578538Y-98450535I47924J-17443D01*
G01*
G37*
X179230269Y-102038819D03*
X180078731Y-80194819D03*
G36*
G01*
X178039016Y-77222171D02*
X179730462Y-76606535D01*
G75*
G02*
X179795829Y-76637016I17443J-47924D01*
G01*
X180411465Y-78328462D01*
G75*
G02*
X180380984Y-78393829I-47924J-17443D01*
G01*
X178689538Y-79009465D01*
G75*
G02*
X178624171Y-78978984I-17443J47924D01*
G01*
X178008535Y-77287538D01*
G75*
G02*
X178039016Y-77222171I47924J17443D01*
G01*
G37*
X169390247Y-114873681D03*
G36*
G01*
X171485999Y-111940269D02*
X172643017Y-113319149D01*
G75*
G02*
X172636731Y-113390999I-39068J-32782D01*
G01*
X171257851Y-114548017D01*
G75*
G02*
X171186001Y-114541731I-32782J39068D01*
G01*
X170028983Y-113162851D01*
G75*
G02*
X170035269Y-113091001I39068J32782D01*
G01*
X171414149Y-111933983D01*
G75*
G02*
X171485999Y-111940269I32782J-39068D01*
G01*
G37*
D11*
X125925825Y-107089175D03*
X124600000Y-106540000D03*
X123274175Y-107089175D03*
X122725000Y-108415000D03*
X123274175Y-109740825D03*
X124600000Y-110290000D03*
X125925825Y-109740825D03*
X126475000Y-108415000D03*
D12*
X124600000Y-108415000D03*
D11*
X176725825Y-70894175D03*
X175400000Y-70345000D03*
X174074175Y-70894175D03*
X173525000Y-72220000D03*
X174074175Y-73545825D03*
X175400000Y-74095000D03*
X176725825Y-73545825D03*
X177275000Y-72220000D03*
D12*
X175400000Y-72220000D03*
D11*
X125925825Y-70894175D03*
X124600000Y-70345000D03*
X123274175Y-70894175D03*
X122725000Y-72220000D03*
X123274175Y-73545825D03*
X124600000Y-74095000D03*
X125925825Y-73545825D03*
X126475000Y-72220000D03*
D12*
X124600000Y-72220000D03*
D17*
X128750247Y-113386319D03*
G36*
G01*
X132003017Y-114940851D02*
X130845999Y-116319731D01*
G75*
G02*
X130774149Y-116326017I-39068J32782D01*
G01*
X129395269Y-115168999D01*
G75*
G02*
X129388983Y-115097149I32782J39068D01*
G01*
X130546001Y-113718269D01*
G75*
G02*
X130617851Y-113711983I39068J-32782D01*
G01*
X131996731Y-114869001D01*
G75*
G02*
X132003017Y-114940851I-32782J-39068D01*
G01*
G37*
X121023731Y-78088181D03*
G36*
G01*
X120675462Y-81676465D02*
X118984016Y-81060829D01*
G75*
G02*
X118953535Y-80995462I17443J47924D01*
G01*
X119569171Y-79304016D01*
G75*
G02*
X119634538Y-79273535I47924J-17443D01*
G01*
X121325984Y-79889171D01*
G75*
G02*
X121356465Y-79954538I-17443J-47924D01*
G01*
X120740829Y-81645984D01*
G75*
G02*
X120675462Y-81676465I-47924J17443D01*
G01*
G37*
X119921269Y-99678181D03*
G36*
G01*
X121960984Y-102650829D02*
X120269538Y-103266465D01*
G75*
G02*
X120204171Y-103235984I-17443J47924D01*
G01*
X119588535Y-101544538D01*
G75*
G02*
X119619016Y-101479171I47924J17443D01*
G01*
X121310462Y-100863535D01*
G75*
G02*
X121375829Y-100894016I17443J-47924D01*
G01*
X121991465Y-102585462D01*
G75*
G02*
X121960984Y-102650829I-47924J-17443D01*
G01*
G37*
X130609753Y-64999319D03*
G36*
G01*
X128514001Y-67932731D02*
X127356983Y-66553851D01*
G75*
G02*
X127363269Y-66482001I39068J32782D01*
G01*
X128742149Y-65324983D01*
G75*
G02*
X128813999Y-65331269I32782J-39068D01*
G01*
X129971017Y-66710149D01*
G75*
G02*
X129964731Y-66781999I-39068J-32782D01*
G01*
X128585851Y-67939017D01*
G75*
G02*
X128514001Y-67932731I-32782J39068D01*
G01*
G37*
D18*
G36*
X144065732Y-118290500D02*
G01*
X144066000Y-118291500D01*
X144066000Y-119743500D01*
X144065000Y-119745232D01*
X144064000Y-119745500D01*
X143916000Y-119745500D01*
X143914268Y-119744500D01*
X143914000Y-119743500D01*
X143914000Y-118291500D01*
X143915000Y-118289768D01*
X143916000Y-118289500D01*
X144064000Y-118289500D01*
X144065732Y-118290500D01*
G37*
G36*
X143415732Y-118290500D02*
G01*
X143416000Y-118291500D01*
X143416000Y-119743500D01*
X143415000Y-119745232D01*
X143414000Y-119745500D01*
X143266000Y-119745500D01*
X143264268Y-119744500D01*
X143264000Y-119743500D01*
X143264000Y-118291500D01*
X143265000Y-118289768D01*
X143266000Y-118289500D01*
X143414000Y-118289500D01*
X143415732Y-118290500D01*
G37*
G36*
X142765732Y-118290500D02*
G01*
X142766000Y-118291500D01*
X142766000Y-119743500D01*
X142765000Y-119745232D01*
X142764000Y-119745500D01*
X142616000Y-119745500D01*
X142614268Y-119744500D01*
X142614000Y-119743500D01*
X142614000Y-118291500D01*
X142615000Y-118289768D01*
X142616000Y-118289500D01*
X142764000Y-118289500D01*
X142765732Y-118290500D01*
G37*
G36*
X142115732Y-118290500D02*
G01*
X142116000Y-118291500D01*
X142116000Y-119743500D01*
X142115000Y-119745232D01*
X142114000Y-119745500D01*
X141966000Y-119745500D01*
X141964268Y-119744500D01*
X141964000Y-119743500D01*
X141964000Y-118291500D01*
X141965000Y-118289768D01*
X141966000Y-118289500D01*
X142114000Y-118289500D01*
X142115732Y-118290500D01*
G37*
G36*
X144567990Y-118663532D02*
G01*
X144570372Y-118687719D01*
X144577372Y-118710794D01*
X144588737Y-118732058D01*
X144604032Y-118750695D01*
X144622669Y-118765990D01*
X144643933Y-118777355D01*
X144667008Y-118784355D01*
X144690999Y-118786718D01*
X144714990Y-118784355D01*
X144738065Y-118777355D01*
X144759329Y-118765990D01*
X144777966Y-118750695D01*
X144793261Y-118732058D01*
X144801823Y-118716039D01*
X144803522Y-118714983D01*
X144805285Y-118715926D01*
X144805435Y-118717747D01*
X144774338Y-118792821D01*
X144744737Y-118941638D01*
X144744737Y-119093362D01*
X144774338Y-119242179D01*
X144805435Y-119317253D01*
X144805174Y-119319236D01*
X144803326Y-119320001D01*
X144801823Y-119318961D01*
X144793261Y-119302942D01*
X144777966Y-119284305D01*
X144759329Y-119269010D01*
X144738065Y-119257645D01*
X144714990Y-119250645D01*
X144690999Y-119248282D01*
X144667008Y-119250645D01*
X144643933Y-119257645D01*
X144622669Y-119269010D01*
X144604032Y-119284305D01*
X144588737Y-119302942D01*
X144577372Y-119324206D01*
X144570372Y-119347281D01*
X144567990Y-119371468D01*
X144566825Y-119373094D01*
X144564835Y-119372898D01*
X144564000Y-119371272D01*
X144564000Y-118663728D01*
X144565000Y-118661996D01*
X144567000Y-118661996D01*
X144567990Y-118663532D01*
G37*
G36*
X141465165Y-118662102D02*
G01*
X141466000Y-118663728D01*
X141466000Y-119371272D01*
X141465000Y-119373004D01*
X141463000Y-119373004D01*
X141462010Y-119371468D01*
X141459628Y-119347281D01*
X141452628Y-119324206D01*
X141441263Y-119302942D01*
X141425968Y-119284305D01*
X141407331Y-119269010D01*
X141386067Y-119257645D01*
X141362992Y-119250645D01*
X141339001Y-119248282D01*
X141315010Y-119250645D01*
X141291935Y-119257645D01*
X141270671Y-119269010D01*
X141252034Y-119284305D01*
X141236739Y-119302942D01*
X141228177Y-119318961D01*
X141226478Y-119320017D01*
X141224715Y-119319074D01*
X141224565Y-119317253D01*
X141255662Y-119242179D01*
X141285263Y-119093362D01*
X141285263Y-118941638D01*
X141255662Y-118792821D01*
X141224565Y-118717747D01*
X141224826Y-118715764D01*
X141226674Y-118714999D01*
X141228177Y-118716039D01*
X141236739Y-118732058D01*
X141252034Y-118750695D01*
X141270671Y-118765990D01*
X141291935Y-118777355D01*
X141315010Y-118784355D01*
X141339001Y-118786718D01*
X141362992Y-118784355D01*
X141386067Y-118777355D01*
X141407331Y-118765990D01*
X141425968Y-118750695D01*
X141441263Y-118732058D01*
X141452628Y-118710794D01*
X141459628Y-118687719D01*
X141462010Y-118663532D01*
X141463175Y-118661906D01*
X141465165Y-118662102D01*
G37*
G36*
X158152165Y-118363874D02*
G01*
X158153000Y-118365500D01*
X158153000Y-118421860D01*
X158152990Y-118422056D01*
X158138697Y-118567175D01*
X158138621Y-118567560D01*
X158098080Y-118701206D01*
X158097930Y-118701568D01*
X158032100Y-118824727D01*
X158031882Y-118825053D01*
X157943286Y-118933009D01*
X157943009Y-118933286D01*
X157835053Y-119021882D01*
X157834727Y-119022100D01*
X157711568Y-119087930D01*
X157711206Y-119088080D01*
X157577560Y-119128621D01*
X157577175Y-119128697D01*
X157432056Y-119142990D01*
X157431860Y-119143000D01*
X157375500Y-119143000D01*
X157373768Y-119142000D01*
X157373768Y-119140000D01*
X157375304Y-119139010D01*
X157526398Y-119124129D01*
X157671502Y-119080112D01*
X157805229Y-119008634D01*
X157922440Y-118912440D01*
X158018634Y-118795229D01*
X158090112Y-118661502D01*
X158134129Y-118516398D01*
X158149010Y-118365304D01*
X158150175Y-118363678D01*
X158152165Y-118363874D01*
G37*
G36*
X154550990Y-118365304D02*
G01*
X154565871Y-118516398D01*
X154609888Y-118661502D01*
X154681366Y-118795229D01*
X154777560Y-118912440D01*
X154894771Y-119008634D01*
X155028498Y-119080112D01*
X155173602Y-119124129D01*
X155324696Y-119139010D01*
X155326322Y-119140175D01*
X155326126Y-119142165D01*
X155324500Y-119143000D01*
X155268140Y-119143000D01*
X155267944Y-119142990D01*
X155122825Y-119128697D01*
X155122440Y-119128621D01*
X154988794Y-119088080D01*
X154988432Y-119087930D01*
X154865273Y-119022100D01*
X154864947Y-119021882D01*
X154756991Y-118933286D01*
X154756714Y-118933009D01*
X154668118Y-118825053D01*
X154667900Y-118824727D01*
X154602070Y-118701568D01*
X154601920Y-118701206D01*
X154561379Y-118567560D01*
X154561303Y-118567175D01*
X154547010Y-118422056D01*
X154547000Y-118421860D01*
X154547000Y-118365500D01*
X154548000Y-118363768D01*
X154550000Y-118363768D01*
X154550990Y-118365304D01*
G37*
G36*
X155326232Y-116038000D02*
G01*
X155326232Y-116040000D01*
X155324696Y-116040990D01*
X155173602Y-116055871D01*
X155028498Y-116099888D01*
X154894771Y-116171366D01*
X154777560Y-116267560D01*
X154681366Y-116384771D01*
X154609888Y-116518498D01*
X154565871Y-116663602D01*
X154550990Y-116814696D01*
X154549825Y-116816322D01*
X154547835Y-116816126D01*
X154547000Y-116814500D01*
X154547000Y-116758140D01*
X154547010Y-116757944D01*
X154561303Y-116612825D01*
X154561379Y-116612440D01*
X154601920Y-116478794D01*
X154602070Y-116478432D01*
X154667900Y-116355273D01*
X154668118Y-116354947D01*
X154756714Y-116246991D01*
X154756991Y-116246714D01*
X154864947Y-116158118D01*
X154865273Y-116157900D01*
X154988432Y-116092070D01*
X154988794Y-116091920D01*
X155122440Y-116051379D01*
X155122825Y-116051303D01*
X155267944Y-116037010D01*
X155268140Y-116037000D01*
X155324500Y-116037000D01*
X155326232Y-116038000D01*
G37*
G36*
X157432056Y-116037010D02*
G01*
X157577175Y-116051303D01*
X157577560Y-116051379D01*
X157711206Y-116091920D01*
X157711568Y-116092070D01*
X157834727Y-116157900D01*
X157835053Y-116158118D01*
X157943009Y-116246714D01*
X157943286Y-116246991D01*
X158031882Y-116354947D01*
X158032100Y-116355273D01*
X158097930Y-116478432D01*
X158098080Y-116478794D01*
X158138621Y-116612440D01*
X158138697Y-116612825D01*
X158152990Y-116757944D01*
X158153000Y-116758140D01*
X158153000Y-116814500D01*
X158152000Y-116816232D01*
X158150000Y-116816232D01*
X158149010Y-116814696D01*
X158134129Y-116663602D01*
X158090112Y-116518498D01*
X158018634Y-116384771D01*
X157922440Y-116267560D01*
X157805229Y-116171366D01*
X157671502Y-116099888D01*
X157526398Y-116055871D01*
X157375304Y-116040990D01*
X157373678Y-116039825D01*
X157373874Y-116037835D01*
X157375500Y-116037000D01*
X157431860Y-116037000D01*
X157432056Y-116037010D01*
G37*
G36*
X162852165Y-115488874D02*
G01*
X162853000Y-115490500D01*
X162853000Y-115546860D01*
X162852990Y-115547056D01*
X162836295Y-115716562D01*
X162836219Y-115716947D01*
X162788565Y-115874041D01*
X162788415Y-115874403D01*
X162711033Y-116019174D01*
X162710815Y-116019500D01*
X162606674Y-116146397D01*
X162606397Y-116146674D01*
X162479500Y-116250815D01*
X162479174Y-116251033D01*
X162334403Y-116328415D01*
X162334041Y-116328565D01*
X162176947Y-116376219D01*
X162176562Y-116376295D01*
X162007056Y-116392990D01*
X162006860Y-116393000D01*
X161950500Y-116393000D01*
X161948768Y-116392000D01*
X161948768Y-116390000D01*
X161950304Y-116389010D01*
X162125784Y-116371727D01*
X162294337Y-116320597D01*
X162449675Y-116237567D01*
X162585829Y-116125829D01*
X162697567Y-115989675D01*
X162780597Y-115834337D01*
X162831727Y-115665784D01*
X162849010Y-115490304D01*
X162850175Y-115488678D01*
X162852165Y-115488874D01*
G37*
G36*
X159250990Y-115490304D02*
G01*
X159268273Y-115665784D01*
X159319403Y-115834337D01*
X159402433Y-115989675D01*
X159514171Y-116125829D01*
X159650325Y-116237567D01*
X159805663Y-116320597D01*
X159974216Y-116371727D01*
X160149696Y-116389010D01*
X160151322Y-116390175D01*
X160151126Y-116392165D01*
X160149500Y-116393000D01*
X160093140Y-116393000D01*
X160092944Y-116392990D01*
X159923438Y-116376295D01*
X159923053Y-116376219D01*
X159765959Y-116328565D01*
X159765597Y-116328415D01*
X159620826Y-116251033D01*
X159620500Y-116250815D01*
X159493603Y-116146674D01*
X159493326Y-116146397D01*
X159389185Y-116019500D01*
X159388967Y-116019174D01*
X159311585Y-115874403D01*
X159311435Y-115874041D01*
X159263781Y-115716947D01*
X159263705Y-115716562D01*
X159247010Y-115547056D01*
X159247000Y-115546860D01*
X159247000Y-115490500D01*
X159248000Y-115488768D01*
X159250000Y-115488768D01*
X159250990Y-115490304D01*
G37*
G36*
X147542732Y-114805000D02*
G01*
X147543000Y-114806000D01*
X147543000Y-114904000D01*
X147542000Y-114905732D01*
X147541000Y-114906000D01*
X145689000Y-114906000D01*
X145687268Y-114905000D01*
X145687000Y-114904000D01*
X145687000Y-114806000D01*
X145688000Y-114804268D01*
X145689000Y-114804000D01*
X147541000Y-114804000D01*
X147542732Y-114805000D01*
G37*
G36*
X140342732Y-114805000D02*
G01*
X140343000Y-114806000D01*
X140343000Y-114904000D01*
X140342000Y-114905732D01*
X140341000Y-114906000D01*
X138489000Y-114906000D01*
X138487268Y-114905000D01*
X138487000Y-114904000D01*
X138487000Y-114806000D01*
X138488000Y-114804268D01*
X138489000Y-114804000D01*
X140341000Y-114804000D01*
X140342732Y-114805000D01*
G37*
G36*
X140342732Y-114155000D02*
G01*
X140343000Y-114156000D01*
X140343000Y-114254000D01*
X140342000Y-114255732D01*
X140341000Y-114256000D01*
X138489000Y-114256000D01*
X138487268Y-114255000D01*
X138487000Y-114254000D01*
X138487000Y-114156000D01*
X138488000Y-114154268D01*
X138489000Y-114154000D01*
X140341000Y-114154000D01*
X140342732Y-114155000D01*
G37*
G36*
X147542732Y-114155000D02*
G01*
X147543000Y-114156000D01*
X147543000Y-114254000D01*
X147542000Y-114255732D01*
X147541000Y-114256000D01*
X145689000Y-114256000D01*
X145687268Y-114255000D01*
X145687000Y-114254000D01*
X145687000Y-114156000D01*
X145688000Y-114154268D01*
X145689000Y-114154000D01*
X147541000Y-114154000D01*
X147542732Y-114155000D01*
G37*
G36*
X160151232Y-112788000D02*
G01*
X160151232Y-112790000D01*
X160149696Y-112790990D01*
X159974216Y-112808273D01*
X159805663Y-112859403D01*
X159650325Y-112942433D01*
X159514171Y-113054171D01*
X159402433Y-113190325D01*
X159319403Y-113345663D01*
X159268273Y-113514216D01*
X159250990Y-113689696D01*
X159249825Y-113691322D01*
X159247835Y-113691126D01*
X159247000Y-113689500D01*
X159247000Y-113633140D01*
X159247010Y-113632944D01*
X159263705Y-113463438D01*
X159263781Y-113463053D01*
X159311435Y-113305959D01*
X159311585Y-113305597D01*
X159388967Y-113160826D01*
X159389185Y-113160500D01*
X159493326Y-113033603D01*
X159493603Y-113033326D01*
X159620500Y-112929185D01*
X159620826Y-112928967D01*
X159765597Y-112851585D01*
X159765959Y-112851435D01*
X159923053Y-112803781D01*
X159923438Y-112803705D01*
X160092944Y-112787010D01*
X160093140Y-112787000D01*
X160149500Y-112787000D01*
X160151232Y-112788000D01*
G37*
G36*
X162007056Y-112787010D02*
G01*
X162176562Y-112803705D01*
X162176947Y-112803781D01*
X162334041Y-112851435D01*
X162334403Y-112851585D01*
X162479174Y-112928967D01*
X162479500Y-112929185D01*
X162606397Y-113033326D01*
X162606674Y-113033603D01*
X162710815Y-113160500D01*
X162711033Y-113160826D01*
X162788415Y-113305597D01*
X162788565Y-113305959D01*
X162836219Y-113463053D01*
X162836295Y-113463438D01*
X162852990Y-113632944D01*
X162853000Y-113633140D01*
X162853000Y-113689500D01*
X162852000Y-113691232D01*
X162850000Y-113691232D01*
X162849010Y-113689696D01*
X162831727Y-113514216D01*
X162780597Y-113345663D01*
X162697567Y-113190325D01*
X162585829Y-113054171D01*
X162449675Y-112942433D01*
X162294337Y-112859403D01*
X162125784Y-112808273D01*
X161950304Y-112790990D01*
X161948678Y-112789825D01*
X161948874Y-112787835D01*
X161950500Y-112787000D01*
X162006860Y-112787000D01*
X162007056Y-112787010D01*
G37*
G36*
X140342732Y-113505000D02*
G01*
X140343000Y-113506000D01*
X140343000Y-113604000D01*
X140342000Y-113605732D01*
X140341000Y-113606000D01*
X138489000Y-113606000D01*
X138487268Y-113605000D01*
X138487000Y-113604000D01*
X138487000Y-113506000D01*
X138488000Y-113504268D01*
X138489000Y-113504000D01*
X140341000Y-113504000D01*
X140342732Y-113505000D01*
G37*
G36*
X147542732Y-113505000D02*
G01*
X147543000Y-113506000D01*
X147543000Y-113604000D01*
X147542000Y-113605732D01*
X147541000Y-113606000D01*
X145689000Y-113606000D01*
X145687268Y-113605000D01*
X145687000Y-113604000D01*
X145687000Y-113506000D01*
X145688000Y-113504268D01*
X145689000Y-113504000D01*
X147541000Y-113504000D01*
X147542732Y-113505000D01*
G37*
G36*
X140342732Y-112855000D02*
G01*
X140343000Y-112856000D01*
X140343000Y-112954000D01*
X140342000Y-112955732D01*
X140341000Y-112956000D01*
X138489000Y-112956000D01*
X138487268Y-112955000D01*
X138487000Y-112954000D01*
X138487000Y-112856000D01*
X138488000Y-112854268D01*
X138489000Y-112854000D01*
X140341000Y-112854000D01*
X140342732Y-112855000D01*
G37*
G36*
X147542732Y-112855000D02*
G01*
X147543000Y-112856000D01*
X147543000Y-112954000D01*
X147542000Y-112955732D01*
X147541000Y-112956000D01*
X145689000Y-112956000D01*
X145687268Y-112955000D01*
X145687000Y-112954000D01*
X145687000Y-112856000D01*
X145688000Y-112854268D01*
X145689000Y-112854000D01*
X147541000Y-112854000D01*
X147542732Y-112855000D01*
G37*
G36*
X140342732Y-112205000D02*
G01*
X140343000Y-112206000D01*
X140343000Y-112304000D01*
X140342000Y-112305732D01*
X140341000Y-112306000D01*
X138489000Y-112306000D01*
X138487268Y-112305000D01*
X138487000Y-112304000D01*
X138487000Y-112206000D01*
X138488000Y-112204268D01*
X138489000Y-112204000D01*
X140341000Y-112204000D01*
X140342732Y-112205000D01*
G37*
G36*
X147542732Y-112205000D02*
G01*
X147543000Y-112206000D01*
X147543000Y-112304000D01*
X147542000Y-112305732D01*
X147541000Y-112306000D01*
X145689000Y-112306000D01*
X145687268Y-112305000D01*
X145687000Y-112304000D01*
X145687000Y-112206000D01*
X145688000Y-112204268D01*
X145689000Y-112204000D01*
X147541000Y-112204000D01*
X147542732Y-112205000D01*
G37*
G36*
X140342732Y-111555000D02*
G01*
X140343000Y-111556000D01*
X140343000Y-111654000D01*
X140342000Y-111655732D01*
X140341000Y-111656000D01*
X138489000Y-111656000D01*
X138487268Y-111655000D01*
X138487000Y-111654000D01*
X138487000Y-111556000D01*
X138488000Y-111554268D01*
X138489000Y-111554000D01*
X140341000Y-111554000D01*
X140342732Y-111555000D01*
G37*
G36*
X147542732Y-111555000D02*
G01*
X147543000Y-111556000D01*
X147543000Y-111654000D01*
X147542000Y-111655732D01*
X147541000Y-111656000D01*
X145689000Y-111656000D01*
X145687268Y-111655000D01*
X145687000Y-111654000D01*
X145687000Y-111556000D01*
X145688000Y-111554268D01*
X145689000Y-111554000D01*
X147541000Y-111554000D01*
X147542732Y-111555000D01*
G37*
G36*
X140342732Y-110905000D02*
G01*
X140343000Y-110906000D01*
X140343000Y-111004000D01*
X140342000Y-111005732D01*
X140341000Y-111006000D01*
X138489000Y-111006000D01*
X138487268Y-111005000D01*
X138487000Y-111004000D01*
X138487000Y-110906000D01*
X138488000Y-110904268D01*
X138489000Y-110904000D01*
X140341000Y-110904000D01*
X140342732Y-110905000D01*
G37*
G36*
X147542732Y-110905000D02*
G01*
X147543000Y-110906000D01*
X147543000Y-111004000D01*
X147542000Y-111005732D01*
X147541000Y-111006000D01*
X145689000Y-111006000D01*
X145687268Y-111005000D01*
X145687000Y-111004000D01*
X145687000Y-110906000D01*
X145688000Y-110904268D01*
X145689000Y-110904000D01*
X147541000Y-110904000D01*
X147542732Y-110905000D01*
G37*
G36*
X147542732Y-110255000D02*
G01*
X147543000Y-110256000D01*
X147543000Y-110354000D01*
X147542000Y-110355732D01*
X147541000Y-110356000D01*
X145689000Y-110356000D01*
X145687268Y-110355000D01*
X145687000Y-110354000D01*
X145687000Y-110256000D01*
X145688000Y-110254268D01*
X145689000Y-110254000D01*
X147541000Y-110254000D01*
X147542732Y-110255000D01*
G37*
G36*
X140342732Y-110255000D02*
G01*
X140343000Y-110256000D01*
X140343000Y-110354000D01*
X140342000Y-110355732D01*
X140341000Y-110356000D01*
X138489000Y-110356000D01*
X138487268Y-110355000D01*
X138487000Y-110354000D01*
X138487000Y-110256000D01*
X138488000Y-110254268D01*
X138489000Y-110254000D01*
X140341000Y-110254000D01*
X140342732Y-110255000D01*
G37*
G36*
X147542732Y-109605000D02*
G01*
X147543000Y-109606000D01*
X147543000Y-109704000D01*
X147542000Y-109705732D01*
X147541000Y-109706000D01*
X145689000Y-109706000D01*
X145687268Y-109705000D01*
X145687000Y-109704000D01*
X145687000Y-109606000D01*
X145688000Y-109604268D01*
X145689000Y-109604000D01*
X147541000Y-109604000D01*
X147542732Y-109605000D01*
G37*
G36*
X140342732Y-109605000D02*
G01*
X140343000Y-109606000D01*
X140343000Y-109704000D01*
X140342000Y-109705732D01*
X140341000Y-109706000D01*
X138489000Y-109706000D01*
X138487268Y-109705000D01*
X138487000Y-109704000D01*
X138487000Y-109606000D01*
X138488000Y-109604268D01*
X138489000Y-109604000D01*
X140341000Y-109604000D01*
X140342732Y-109605000D01*
G37*
G36*
X140342732Y-108955000D02*
G01*
X140343000Y-108956000D01*
X140343000Y-109054000D01*
X140342000Y-109055732D01*
X140341000Y-109056000D01*
X138489000Y-109056000D01*
X138487268Y-109055000D01*
X138487000Y-109054000D01*
X138487000Y-108956000D01*
X138488000Y-108954268D01*
X138489000Y-108954000D01*
X140341000Y-108954000D01*
X140342732Y-108955000D01*
G37*
G36*
X147542732Y-108955000D02*
G01*
X147543000Y-108956000D01*
X147543000Y-109054000D01*
X147542000Y-109055732D01*
X147541000Y-109056000D01*
X145689000Y-109056000D01*
X145687268Y-109055000D01*
X145687000Y-109054000D01*
X145687000Y-108956000D01*
X145688000Y-108954268D01*
X145689000Y-108954000D01*
X147541000Y-108954000D01*
X147542732Y-108955000D01*
G37*
G36*
X140342732Y-108305000D02*
G01*
X140343000Y-108306000D01*
X140343000Y-108404000D01*
X140342000Y-108405732D01*
X140341000Y-108406000D01*
X138489000Y-108406000D01*
X138487268Y-108405000D01*
X138487000Y-108404000D01*
X138487000Y-108306000D01*
X138488000Y-108304268D01*
X138489000Y-108304000D01*
X140341000Y-108304000D01*
X140342732Y-108305000D01*
G37*
G36*
X147542732Y-108305000D02*
G01*
X147543000Y-108306000D01*
X147543000Y-108404000D01*
X147542000Y-108405732D01*
X147541000Y-108406000D01*
X145689000Y-108406000D01*
X145687268Y-108405000D01*
X145687000Y-108404000D01*
X145687000Y-108306000D01*
X145688000Y-108304268D01*
X145689000Y-108304000D01*
X147541000Y-108304000D01*
X147542732Y-108305000D01*
G37*
G36*
X147542732Y-107655000D02*
G01*
X147543000Y-107656000D01*
X147543000Y-107754000D01*
X147542000Y-107755732D01*
X147541000Y-107756000D01*
X145689000Y-107756000D01*
X145687268Y-107755000D01*
X145687000Y-107754000D01*
X145687000Y-107656000D01*
X145688000Y-107654268D01*
X145689000Y-107654000D01*
X147541000Y-107654000D01*
X147542732Y-107655000D01*
G37*
G36*
X140342732Y-107655000D02*
G01*
X140343000Y-107656000D01*
X140343000Y-107754000D01*
X140342000Y-107755732D01*
X140341000Y-107756000D01*
X138489000Y-107756000D01*
X138487268Y-107755000D01*
X138487000Y-107754000D01*
X138487000Y-107656000D01*
X138488000Y-107654268D01*
X138489000Y-107654000D01*
X140341000Y-107654000D01*
X140342732Y-107655000D01*
G37*
G36*
X140342732Y-107005000D02*
G01*
X140343000Y-107006000D01*
X140343000Y-107104000D01*
X140342000Y-107105732D01*
X140341000Y-107106000D01*
X138489000Y-107106000D01*
X138487268Y-107105000D01*
X138487000Y-107104000D01*
X138487000Y-107006000D01*
X138488000Y-107004268D01*
X138489000Y-107004000D01*
X140341000Y-107004000D01*
X140342732Y-107005000D01*
G37*
G36*
X147542732Y-107005000D02*
G01*
X147543000Y-107006000D01*
X147543000Y-107104000D01*
X147542000Y-107105732D01*
X147541000Y-107106000D01*
X145689000Y-107106000D01*
X145687268Y-107105000D01*
X145687000Y-107104000D01*
X145687000Y-107006000D01*
X145688000Y-107004268D01*
X145689000Y-107004000D01*
X147541000Y-107004000D01*
X147542732Y-107005000D01*
G37*
G36*
X167465990Y-94496426D02*
G01*
X167471050Y-94547805D01*
X167485982Y-94597026D01*
X167510227Y-94642387D01*
X167542856Y-94682144D01*
X167582613Y-94714773D01*
X167627974Y-94739018D01*
X167677195Y-94753950D01*
X167728574Y-94759010D01*
X167730200Y-94760175D01*
X167730004Y-94762165D01*
X167728378Y-94763000D01*
X167644269Y-94763000D01*
X167644073Y-94762990D01*
X167604081Y-94759051D01*
X167603696Y-94758975D01*
X167571139Y-94749099D01*
X167570777Y-94748949D01*
X167540781Y-94732916D01*
X167540455Y-94732698D01*
X167514159Y-94711118D01*
X167513882Y-94710841D01*
X167492302Y-94684545D01*
X167492084Y-94684219D01*
X167476051Y-94654223D01*
X167475901Y-94653861D01*
X167466025Y-94621304D01*
X167465949Y-94620919D01*
X167462010Y-94580927D01*
X167462000Y-94580731D01*
X167462000Y-94496622D01*
X167463000Y-94494890D01*
X167465000Y-94494890D01*
X167465990Y-94496426D01*
G37*
G36*
X127457165Y-94494996D02*
G01*
X127458000Y-94496622D01*
X127458000Y-94580731D01*
X127457990Y-94580927D01*
X127454051Y-94620919D01*
X127453975Y-94621304D01*
X127444099Y-94653861D01*
X127443949Y-94654223D01*
X127427916Y-94684219D01*
X127427698Y-94684545D01*
X127406118Y-94710841D01*
X127405841Y-94711118D01*
X127379545Y-94732698D01*
X127379219Y-94732916D01*
X127349223Y-94748949D01*
X127348861Y-94749099D01*
X127316304Y-94758975D01*
X127315919Y-94759051D01*
X127275927Y-94762990D01*
X127275731Y-94763000D01*
X127191622Y-94763000D01*
X127189890Y-94762000D01*
X127189890Y-94760000D01*
X127191426Y-94759010D01*
X127242805Y-94753950D01*
X127292026Y-94739018D01*
X127337387Y-94714773D01*
X127377144Y-94682144D01*
X127409773Y-94642387D01*
X127434018Y-94597026D01*
X127448950Y-94547805D01*
X127454010Y-94496426D01*
X127455175Y-94494800D01*
X127457165Y-94494996D01*
G37*
G36*
X169367165Y-94494996D02*
G01*
X169368000Y-94496622D01*
X169368000Y-94580731D01*
X169367990Y-94580927D01*
X169364051Y-94620919D01*
X169363975Y-94621304D01*
X169354099Y-94653861D01*
X169353949Y-94654223D01*
X169337916Y-94684219D01*
X169337698Y-94684545D01*
X169316118Y-94710841D01*
X169315841Y-94711118D01*
X169289545Y-94732698D01*
X169289219Y-94732916D01*
X169259223Y-94748949D01*
X169258861Y-94749099D01*
X169226304Y-94758975D01*
X169225919Y-94759051D01*
X169185927Y-94762990D01*
X169185731Y-94763000D01*
X169101622Y-94763000D01*
X169099890Y-94762000D01*
X169099890Y-94760000D01*
X169101426Y-94759010D01*
X169152805Y-94753950D01*
X169202026Y-94739018D01*
X169247387Y-94714773D01*
X169287144Y-94682144D01*
X169319773Y-94642387D01*
X169344018Y-94597026D01*
X169358950Y-94547805D01*
X169364010Y-94496426D01*
X169365175Y-94494800D01*
X169367165Y-94494996D01*
G37*
G36*
X125555990Y-94496426D02*
G01*
X125561050Y-94547805D01*
X125575982Y-94597026D01*
X125600227Y-94642387D01*
X125632856Y-94682144D01*
X125672613Y-94714773D01*
X125717974Y-94739018D01*
X125767195Y-94753950D01*
X125818574Y-94759010D01*
X125820200Y-94760175D01*
X125820004Y-94762165D01*
X125818378Y-94763000D01*
X125734269Y-94763000D01*
X125734073Y-94762990D01*
X125694081Y-94759051D01*
X125693696Y-94758975D01*
X125661139Y-94749099D01*
X125660777Y-94748949D01*
X125630781Y-94732916D01*
X125630455Y-94732698D01*
X125604159Y-94711118D01*
X125603882Y-94710841D01*
X125582302Y-94684545D01*
X125582084Y-94684219D01*
X125566051Y-94654223D01*
X125565901Y-94653861D01*
X125556025Y-94621304D01*
X125555949Y-94620919D01*
X125552010Y-94580927D01*
X125552000Y-94580731D01*
X125552000Y-94496622D01*
X125553000Y-94494890D01*
X125555000Y-94494890D01*
X125555990Y-94496426D01*
G37*
G36*
X125820110Y-92858000D02*
G01*
X125820110Y-92860000D01*
X125818574Y-92860990D01*
X125767195Y-92866050D01*
X125717974Y-92880982D01*
X125672613Y-92905227D01*
X125632856Y-92937856D01*
X125600227Y-92977613D01*
X125575982Y-93022974D01*
X125561050Y-93072195D01*
X125555990Y-93123574D01*
X125554825Y-93125200D01*
X125552835Y-93125004D01*
X125552000Y-93123378D01*
X125552000Y-93039269D01*
X125552010Y-93039073D01*
X125555949Y-92999081D01*
X125556025Y-92998696D01*
X125565901Y-92966139D01*
X125566051Y-92965777D01*
X125582084Y-92935781D01*
X125582302Y-92935455D01*
X125603882Y-92909159D01*
X125604159Y-92908882D01*
X125630455Y-92887302D01*
X125630781Y-92887084D01*
X125660777Y-92871051D01*
X125661139Y-92870901D01*
X125693696Y-92861025D01*
X125694081Y-92860949D01*
X125734073Y-92857010D01*
X125734269Y-92857000D01*
X125818378Y-92857000D01*
X125820110Y-92858000D01*
G37*
G36*
X167730110Y-92858000D02*
G01*
X167730110Y-92860000D01*
X167728574Y-92860990D01*
X167677195Y-92866050D01*
X167627974Y-92880982D01*
X167582613Y-92905227D01*
X167542856Y-92937856D01*
X167510227Y-92977613D01*
X167485982Y-93022974D01*
X167471050Y-93072195D01*
X167465990Y-93123574D01*
X167464825Y-93125200D01*
X167462835Y-93125004D01*
X167462000Y-93123378D01*
X167462000Y-93039269D01*
X167462010Y-93039073D01*
X167465949Y-92999081D01*
X167466025Y-92998696D01*
X167475901Y-92966139D01*
X167476051Y-92965777D01*
X167492084Y-92935781D01*
X167492302Y-92935455D01*
X167513882Y-92909159D01*
X167514159Y-92908882D01*
X167540455Y-92887302D01*
X167540781Y-92887084D01*
X167570777Y-92871051D01*
X167571139Y-92870901D01*
X167603696Y-92861025D01*
X167604081Y-92860949D01*
X167644073Y-92857010D01*
X167644269Y-92857000D01*
X167728378Y-92857000D01*
X167730110Y-92858000D01*
G37*
G36*
X169185927Y-92857010D02*
G01*
X169225919Y-92860949D01*
X169226304Y-92861025D01*
X169258861Y-92870901D01*
X169259223Y-92871051D01*
X169289219Y-92887084D01*
X169289545Y-92887302D01*
X169315841Y-92908882D01*
X169316118Y-92909159D01*
X169337698Y-92935455D01*
X169337916Y-92935781D01*
X169353949Y-92965777D01*
X169354099Y-92966139D01*
X169363975Y-92998696D01*
X169364051Y-92999081D01*
X169367990Y-93039073D01*
X169368000Y-93039269D01*
X169368000Y-93123378D01*
X169367000Y-93125110D01*
X169365000Y-93125110D01*
X169364010Y-93123574D01*
X169358950Y-93072195D01*
X169344018Y-93022974D01*
X169319773Y-92977613D01*
X169287144Y-92937856D01*
X169247387Y-92905227D01*
X169202026Y-92880982D01*
X169152805Y-92866050D01*
X169101426Y-92860990D01*
X169099800Y-92859825D01*
X169099996Y-92857835D01*
X169101622Y-92857000D01*
X169185731Y-92857000D01*
X169185927Y-92857010D01*
G37*
G36*
X127275927Y-92857010D02*
G01*
X127315919Y-92860949D01*
X127316304Y-92861025D01*
X127348861Y-92870901D01*
X127349223Y-92871051D01*
X127379219Y-92887084D01*
X127379545Y-92887302D01*
X127405841Y-92908882D01*
X127406118Y-92909159D01*
X127427698Y-92935455D01*
X127427916Y-92935781D01*
X127443949Y-92965777D01*
X127444099Y-92966139D01*
X127453975Y-92998696D01*
X127454051Y-92999081D01*
X127457990Y-93039073D01*
X127458000Y-93039269D01*
X127458000Y-93123378D01*
X127457000Y-93125110D01*
X127455000Y-93125110D01*
X127454010Y-93123574D01*
X127448950Y-93072195D01*
X127434018Y-93022974D01*
X127409773Y-92977613D01*
X127377144Y-92937856D01*
X127337387Y-92905227D01*
X127292026Y-92880982D01*
X127242805Y-92866050D01*
X127191426Y-92860990D01*
X127189800Y-92859825D01*
X127189996Y-92857835D01*
X127191622Y-92857000D01*
X127275731Y-92857000D01*
X127275927Y-92857010D01*
G37*
M02*
