G04 #@! TF.GenerationSoftware,KiCad,Pcbnew,8.0.5*
G04 #@! TF.CreationDate,2024-12-08T19:55:37-06:00*
G04 #@! TF.ProjectId,kbxIrBlaster,6b627849-7242-46c6-9173-7465722e6b69,rev?*
G04 #@! TF.SameCoordinates,Original*
G04 #@! TF.FileFunction,Copper,L1,Top*
G04 #@! TF.FilePolarity,Positive*
%FSLAX46Y46*%
G04 Gerber Fmt 4.6, Leading zero omitted, Abs format (unit mm)*
G04 Created by KiCad (PCBNEW 8.0.5) date 2024-12-08 19:55:37*
%MOMM*%
%LPD*%
G01*
G04 APERTURE LIST*
G04 Aperture macros list*
%AMRoundRect*
0 Rectangle with rounded corners*
0 $1 Rounding radius*
0 $2 $3 $4 $5 $6 $7 $8 $9 X,Y pos of 4 corners*
0 Add a 4 corners polygon primitive as box body*
4,1,4,$2,$3,$4,$5,$6,$7,$8,$9,$2,$3,0*
0 Add four circle primitives for the rounded corners*
1,1,$1+$1,$2,$3*
1,1,$1+$1,$4,$5*
1,1,$1+$1,$6,$7*
1,1,$1+$1,$8,$9*
0 Add four rect primitives between the rounded corners*
20,1,$1+$1,$2,$3,$4,$5,0*
20,1,$1+$1,$4,$5,$6,$7,0*
20,1,$1+$1,$6,$7,$8,$9,0*
20,1,$1+$1,$8,$9,$2,$3,0*%
%AMRotRect*
0 Rectangle, with rotation*
0 The origin of the aperture is its center*
0 $1 length*
0 $2 width*
0 $3 Rotation angle, in degrees counterclockwise*
0 Add horizontal line*
21,1,$1,$2,0,0,$3*%
%AMFreePoly0*
4,1,6,0.725000,-0.725000,-0.725000,-0.725000,-0.725000,0.125000,-0.125000,0.725000,0.725000,0.725000,0.725000,-0.725000,0.725000,-0.725000,$1*%
%AMFreePoly1*
4,1,19,0.550000,-0.750000,0.000000,-0.750000,0.000000,-0.744911,-0.071157,-0.744911,-0.207708,-0.704816,-0.327430,-0.627875,-0.420627,-0.520320,-0.479746,-0.390866,-0.500000,-0.250000,-0.500000,0.250000,-0.479746,0.390866,-0.420627,0.520320,-0.327430,0.627875,-0.207708,0.704816,-0.071157,0.744911,0.000000,0.744911,0.000000,0.750000,0.550000,0.750000,0.550000,-0.750000,0.550000,-0.750000,
$1*%
%AMFreePoly2*
4,1,19,0.000000,0.744911,0.071157,0.744911,0.207708,0.704816,0.327430,0.627875,0.420627,0.520320,0.479746,0.390866,0.500000,0.250000,0.500000,-0.250000,0.479746,-0.390866,0.420627,-0.520320,0.327430,-0.627875,0.207708,-0.704816,0.071157,-0.744911,0.000000,-0.744911,0.000000,-0.750000,-0.550000,-0.750000,-0.550000,0.750000,0.000000,0.750000,0.000000,0.744911,0.000000,0.744911,
$1*%
G04 Aperture macros list end*
G04 #@! TA.AperFunction,ComponentPad*
%ADD10O,1.700000X1.700000*%
G04 #@! TD*
G04 #@! TA.AperFunction,ComponentPad*
%ADD11R,1.700000X1.700000*%
G04 #@! TD*
G04 #@! TA.AperFunction,ComponentPad*
%ADD12C,0.800000*%
G04 #@! TD*
G04 #@! TA.AperFunction,ComponentPad*
%ADD13C,5.000000*%
G04 #@! TD*
G04 #@! TA.AperFunction,SMDPad,CuDef*
%ADD14R,0.600000X1.450000*%
G04 #@! TD*
G04 #@! TA.AperFunction,SMDPad,CuDef*
%ADD15R,0.300000X1.450000*%
G04 #@! TD*
G04 #@! TA.AperFunction,ComponentPad*
%ADD16O,1.000000X2.100000*%
G04 #@! TD*
G04 #@! TA.AperFunction,ComponentPad*
%ADD17O,1.000000X1.600000*%
G04 #@! TD*
G04 #@! TA.AperFunction,SMDPad,CuDef*
%ADD18RoundRect,0.150000X0.512500X0.150000X-0.512500X0.150000X-0.512500X-0.150000X0.512500X-0.150000X0*%
G04 #@! TD*
G04 #@! TA.AperFunction,SMDPad,CuDef*
%ADD19RoundRect,0.250000X0.262500X0.450000X-0.262500X0.450000X-0.262500X-0.450000X0.262500X-0.450000X0*%
G04 #@! TD*
G04 #@! TA.AperFunction,SMDPad,CuDef*
%ADD20R,0.700000X0.700000*%
G04 #@! TD*
G04 #@! TA.AperFunction,SMDPad,CuDef*
%ADD21RoundRect,0.250000X-0.262500X-0.450000X0.262500X-0.450000X0.262500X0.450000X-0.262500X0.450000X0*%
G04 #@! TD*
G04 #@! TA.AperFunction,SMDPad,CuDef*
%ADD22RoundRect,0.225000X0.225000X0.250000X-0.225000X0.250000X-0.225000X-0.250000X0.225000X-0.250000X0*%
G04 #@! TD*
G04 #@! TA.AperFunction,SMDPad,CuDef*
%ADD23RoundRect,0.218750X0.256250X-0.218750X0.256250X0.218750X-0.256250X0.218750X-0.256250X-0.218750X0*%
G04 #@! TD*
G04 #@! TA.AperFunction,SMDPad,CuDef*
%ADD24R,0.800000X0.400000*%
G04 #@! TD*
G04 #@! TA.AperFunction,SMDPad,CuDef*
%ADD25R,0.400000X0.800000*%
G04 #@! TD*
G04 #@! TA.AperFunction,SMDPad,CuDef*
%ADD26FreePoly0,0.000000*%
G04 #@! TD*
G04 #@! TA.AperFunction,SMDPad,CuDef*
%ADD27R,1.450000X1.450000*%
G04 #@! TD*
G04 #@! TA.AperFunction,SMDPad,CuDef*
%ADD28RoundRect,0.135000X-0.185000X0.135000X-0.185000X-0.135000X0.185000X-0.135000X0.185000X0.135000X0*%
G04 #@! TD*
G04 #@! TA.AperFunction,SMDPad,CuDef*
%ADD29RoundRect,0.140000X0.140000X0.170000X-0.140000X0.170000X-0.140000X-0.170000X0.140000X-0.170000X0*%
G04 #@! TD*
G04 #@! TA.AperFunction,SMDPad,CuDef*
%ADD30FreePoly1,270.000000*%
G04 #@! TD*
G04 #@! TA.AperFunction,SMDPad,CuDef*
%ADD31R,1.500000X1.000000*%
G04 #@! TD*
G04 #@! TA.AperFunction,SMDPad,CuDef*
%ADD32FreePoly2,270.000000*%
G04 #@! TD*
G04 #@! TA.AperFunction,SMDPad,CuDef*
%ADD33RoundRect,0.225000X0.250000X-0.225000X0.250000X0.225000X-0.250000X0.225000X-0.250000X-0.225000X0*%
G04 #@! TD*
G04 #@! TA.AperFunction,SMDPad,CuDef*
%ADD34RoundRect,0.050000X-0.285000X-0.100000X0.285000X-0.100000X0.285000X0.100000X-0.285000X0.100000X0*%
G04 #@! TD*
G04 #@! TA.AperFunction,SMDPad,CuDef*
%ADD35RoundRect,0.135000X0.185000X-0.135000X0.185000X0.135000X-0.185000X0.135000X-0.185000X-0.135000X0*%
G04 #@! TD*
G04 #@! TA.AperFunction,SMDPad,CuDef*
%ADD36RoundRect,0.225000X-0.250000X0.225000X-0.250000X-0.225000X0.250000X-0.225000X0.250000X0.225000X0*%
G04 #@! TD*
G04 #@! TA.AperFunction,SMDPad,CuDef*
%ADD37RoundRect,0.140000X-0.140000X-0.170000X0.140000X-0.170000X0.140000X0.170000X-0.140000X0.170000X0*%
G04 #@! TD*
G04 #@! TA.AperFunction,SMDPad,CuDef*
%ADD38RoundRect,0.150000X0.150000X-0.512500X0.150000X0.512500X-0.150000X0.512500X-0.150000X-0.512500X0*%
G04 #@! TD*
G04 #@! TA.AperFunction,SMDPad,CuDef*
%ADD39RoundRect,0.250000X1.250000X0.550000X-1.250000X0.550000X-1.250000X-0.550000X1.250000X-0.550000X0*%
G04 #@! TD*
G04 #@! TA.AperFunction,ComponentPad*
%ADD40RotRect,1.800000X1.800000X320.000000*%
G04 #@! TD*
G04 #@! TA.AperFunction,ComponentPad*
%ADD41C,1.800000*%
G04 #@! TD*
G04 #@! TA.AperFunction,ComponentPad*
%ADD42RotRect,1.800000X1.800000X70.000000*%
G04 #@! TD*
G04 #@! TA.AperFunction,ComponentPad*
%ADD43RotRect,1.800000X1.800000X140.000000*%
G04 #@! TD*
G04 #@! TA.AperFunction,ComponentPad*
%ADD44RotRect,1.800000X1.800000X290.000000*%
G04 #@! TD*
G04 #@! TA.AperFunction,ComponentPad*
%ADD45RotRect,1.800000X1.800000X250.000000*%
G04 #@! TD*
G04 #@! TA.AperFunction,ComponentPad*
%ADD46RotRect,1.800000X1.800000X220.000000*%
G04 #@! TD*
G04 #@! TA.AperFunction,ComponentPad*
%ADD47RotRect,1.800000X1.800000X40.000000*%
G04 #@! TD*
G04 #@! TA.AperFunction,ComponentPad*
%ADD48RotRect,1.800000X1.800000X110.000000*%
G04 #@! TD*
G04 #@! TA.AperFunction,ViaPad*
%ADD49C,0.800000*%
G04 #@! TD*
G04 #@! TA.AperFunction,ViaPad*
%ADD50C,1.000000*%
G04 #@! TD*
G04 #@! TA.AperFunction,Conductor*
%ADD51C,0.600000*%
G04 #@! TD*
G04 #@! TA.AperFunction,Conductor*
%ADD52C,0.450000*%
G04 #@! TD*
G04 #@! TA.AperFunction,Conductor*
%ADD53C,0.250000*%
G04 #@! TD*
G04 #@! TA.AperFunction,Conductor*
%ADD54C,0.750000*%
G04 #@! TD*
G04 #@! TA.AperFunction,Conductor*
%ADD55C,0.200000*%
G04 #@! TD*
G04 #@! TA.AperFunction,Conductor*
%ADD56C,0.500000*%
G04 #@! TD*
G04 #@! TA.AperFunction,Conductor*
%ADD57C,0.300000*%
G04 #@! TD*
G04 #@! TA.AperFunction,Conductor*
%ADD58C,0.400000*%
G04 #@! TD*
G04 APERTURE END LIST*
D10*
X129975000Y-91276328D03*
D11*
X129975000Y-88736328D03*
D12*
X130625000Y-78000000D03*
X131174175Y-76674175D03*
X131174175Y-79325825D03*
X132500000Y-76125000D03*
D13*
X132500000Y-78000000D03*
D12*
X132500000Y-79875000D03*
X133825825Y-76674175D03*
X133825825Y-79325825D03*
X134375000Y-78000000D03*
X130625000Y-102000000D03*
X131174175Y-100674175D03*
X131174175Y-103325825D03*
X132500000Y-100125000D03*
D13*
X132500000Y-102000000D03*
D12*
X132500000Y-103875000D03*
X133825825Y-100674175D03*
X133825825Y-103325825D03*
X134375000Y-102000000D03*
X165625000Y-102000000D03*
X166174175Y-100674175D03*
X166174175Y-103325825D03*
X167500000Y-100125000D03*
D13*
X167500000Y-102000000D03*
D12*
X167500000Y-103875000D03*
X168825825Y-100674175D03*
X168825825Y-103325825D03*
X169375000Y-102000000D03*
X165625000Y-78000000D03*
X166174175Y-76674175D03*
X166174175Y-79325825D03*
X167500000Y-76125000D03*
D13*
X167500000Y-78000000D03*
D12*
X167500000Y-79875000D03*
X168825825Y-76674175D03*
X168825825Y-79325825D03*
X169375000Y-78000000D03*
D14*
X146750000Y-106255000D03*
X147550000Y-106255000D03*
D15*
X148750000Y-106255000D03*
X149750000Y-106255000D03*
X150250000Y-106255000D03*
X151250000Y-106255000D03*
D14*
X152450000Y-106255000D03*
X153250000Y-106255000D03*
X153250000Y-106255000D03*
X152450000Y-106255000D03*
D15*
X151750000Y-106255000D03*
X150750000Y-106255000D03*
X149250000Y-106255000D03*
X148250000Y-106255000D03*
D14*
X147550000Y-106255000D03*
X146750000Y-106255000D03*
D16*
X145680000Y-107170000D03*
D17*
X145680000Y-111350000D03*
D16*
X154320000Y-107170000D03*
D17*
X154320000Y-111350000D03*
D18*
X151137500Y-104050000D03*
X151137500Y-103100000D03*
X151137500Y-102150000D03*
X148862500Y-102150000D03*
X148862500Y-103100000D03*
X148862500Y-104050000D03*
D19*
X143402199Y-103900000D03*
X141577199Y-103900000D03*
D20*
X150915000Y-90550000D03*
X150915000Y-89450000D03*
X149085000Y-89450000D03*
X149085000Y-90550000D03*
D21*
X161787500Y-79400000D03*
X163612500Y-79400000D03*
D19*
X143402199Y-106000000D03*
X141577199Y-106000000D03*
D22*
X142275000Y-77300000D03*
X140725000Y-77300000D03*
D23*
X147382717Y-92587500D03*
X147382717Y-91012500D03*
D11*
X141210000Y-95050000D03*
D10*
X143750000Y-95050000D03*
X141210000Y-92510000D03*
X143750000Y-92510000D03*
X141210000Y-89970000D03*
X143750000Y-89970000D03*
X141210000Y-87430000D03*
X143750000Y-87430000D03*
X141210000Y-84890000D03*
X143750000Y-84890000D03*
D11*
X152540000Y-98793735D03*
D10*
X150000000Y-98793735D03*
X147460000Y-98793735D03*
D19*
X163612500Y-81500000D03*
X161787500Y-81500000D03*
D24*
X144095300Y-73200000D03*
X144095300Y-74000000D03*
X144095300Y-74800000D03*
X144095300Y-75600000D03*
X144095300Y-76400000D03*
X144095300Y-77200000D03*
X144095300Y-78000000D03*
X144095300Y-78800000D03*
X144095300Y-79600000D03*
X144095300Y-80400000D03*
X144095300Y-81200000D03*
D25*
X145195300Y-82100000D03*
X145995300Y-82100000D03*
X146795300Y-82100000D03*
X147595300Y-82100000D03*
X148395300Y-82100000D03*
X149195300Y-82100000D03*
X149995300Y-82100000D03*
X150795300Y-82100000D03*
X151595300Y-82100000D03*
X152395300Y-82100000D03*
X153195300Y-82100000D03*
X153995300Y-82100000D03*
X154795300Y-82100000D03*
D24*
X155895300Y-81200000D03*
X155895300Y-80400000D03*
X155895300Y-79600000D03*
X155895300Y-78800000D03*
X155895300Y-78000000D03*
X155895300Y-77200000D03*
X155895300Y-76400000D03*
X155895300Y-75600000D03*
X155895300Y-74800000D03*
X155895300Y-74000000D03*
X155895300Y-73200000D03*
D25*
X154795300Y-72300000D03*
X153995300Y-72300000D03*
X153195300Y-72300000D03*
X152395300Y-72300000D03*
X151595300Y-72300000D03*
X150795300Y-72300000D03*
X149995300Y-72300000D03*
X149195300Y-72300000D03*
X148395300Y-72300000D03*
X147595300Y-72300000D03*
X146795300Y-72300000D03*
X145995300Y-72300000D03*
X145195300Y-72300000D03*
D26*
X148020300Y-75225000D03*
D27*
X148020300Y-77200000D03*
X148020300Y-79175000D03*
X149995300Y-75225000D03*
X149995300Y-77200000D03*
X149995300Y-79175000D03*
X151970300Y-75225000D03*
X151970300Y-77200000D03*
X151970300Y-79175000D03*
D20*
X155945300Y-72250000D03*
X155945300Y-82150000D03*
X144045300Y-82150000D03*
X144045300Y-72250000D03*
D19*
X163612500Y-83600000D03*
X161787500Y-83600000D03*
D28*
X151595300Y-83690000D03*
X151595300Y-84710000D03*
D19*
X138412500Y-87200000D03*
X136587500Y-87200000D03*
X138412500Y-89300000D03*
X136587500Y-89300000D03*
D21*
X161787500Y-93100000D03*
X163612500Y-93100000D03*
X161787500Y-95200000D03*
X163612500Y-95200000D03*
D28*
X153100000Y-83689652D03*
X153100000Y-84709652D03*
D29*
X142480000Y-75900000D03*
X141520000Y-75900000D03*
D21*
X161787500Y-91000000D03*
X163612500Y-91000000D03*
D30*
X147100000Y-84400000D03*
D31*
X147100000Y-85700000D03*
D32*
X147100000Y-87000000D03*
D33*
X138400000Y-83075000D03*
X138400000Y-81525000D03*
D34*
X146660000Y-94050000D03*
X146660000Y-94550000D03*
X146660000Y-95050000D03*
X146660000Y-95550000D03*
X148140000Y-95550000D03*
X148140000Y-95050000D03*
X148140000Y-94550000D03*
X148140000Y-94050000D03*
D35*
X149000000Y-84701844D03*
X149000000Y-83681844D03*
D36*
X138400000Y-78325000D03*
X138400000Y-79875000D03*
D29*
X142480000Y-74800000D03*
X141520000Y-74800000D03*
D37*
X149120000Y-91900000D03*
X150080000Y-91900000D03*
D38*
X140250000Y-81437500D03*
X141200000Y-81437500D03*
X142150000Y-81437500D03*
X142150000Y-79162500D03*
X140250000Y-79162500D03*
D19*
X138412500Y-85100000D03*
X136587500Y-85100000D03*
X143402199Y-108100000D03*
X141577199Y-108100000D03*
D39*
X143900000Y-99800000D03*
X139500000Y-99800000D03*
D40*
X136973293Y-103580446D03*
D41*
X138919046Y-105213127D03*
D42*
X167163924Y-97598108D03*
D41*
X168032656Y-95211288D03*
D43*
X162976707Y-76519554D03*
D41*
X161030954Y-74886873D03*
D44*
X131963924Y-95201892D03*
D41*
X132832656Y-97588712D03*
D45*
X132836076Y-82401892D03*
D41*
X131967344Y-84788712D03*
D46*
X138926707Y-74830446D03*
D41*
X136980954Y-76463127D03*
D47*
X161073293Y-105169555D03*
D41*
X163019046Y-103536874D03*
D48*
X167986076Y-84798108D03*
D41*
X167117344Y-82411288D03*
D49*
X147400000Y-95900000D03*
X153500000Y-85100000D03*
X150600000Y-92200000D03*
X127800000Y-85600000D03*
X154100000Y-73900000D03*
X146600000Y-101900000D03*
X149100000Y-87900000D03*
X146200000Y-92100000D03*
X170600000Y-96100000D03*
X139900000Y-88700000D03*
X158800000Y-82800000D03*
X143100000Y-78400000D03*
X145350000Y-80600000D03*
X138700000Y-91400000D03*
X138700000Y-96000000D03*
X142450000Y-83700000D03*
X163300000Y-73100000D03*
X138400000Y-110100000D03*
X157900000Y-77100000D03*
X153800000Y-78700000D03*
X147500000Y-89500000D03*
D50*
X148500000Y-91500000D03*
X143045298Y-77200000D03*
D49*
X144800000Y-78800000D03*
X147700000Y-81149998D03*
X148500000Y-89000000D03*
D50*
X163700000Y-71800000D03*
D49*
X148500000Y-104900000D03*
X151500000Y-104900000D03*
X148700000Y-80700000D03*
X154981258Y-77595608D03*
X156600000Y-77200000D03*
X145700000Y-85700000D03*
X153600000Y-75400000D03*
X151200000Y-91200000D03*
D50*
X128000000Y-84200000D03*
X137300000Y-109100000D03*
X172000000Y-95800000D03*
X135700000Y-86700000D03*
X141600000Y-102900000D03*
X164500000Y-93500000D03*
X159600000Y-81400000D03*
D49*
X151000000Y-84400000D03*
X149900000Y-83200000D03*
X151300000Y-86100000D03*
D51*
X129975000Y-91276328D02*
X133641223Y-91276328D01*
X133906235Y-91273726D02*
X134434624Y-91232139D01*
X134434624Y-91232139D02*
X134650156Y-91229788D01*
X133641223Y-91276328D02*
X133906235Y-91273726D01*
X134650156Y-91229788D02*
X134878933Y-91217327D01*
X134878933Y-91217327D02*
G75*
G03*
X137926927Y-89785595I-434333J4884927D01*
G01*
X137926915Y-89785584D02*
X138412500Y-89300000D01*
D52*
X144045300Y-72250000D02*
X144095300Y-72300000D01*
X144095300Y-72300000D02*
X145195300Y-72300000D01*
X154165000Y-107170000D02*
X154320000Y-107170000D01*
X145835000Y-107170000D02*
X145680000Y-107170000D01*
X154795300Y-72300000D02*
X155895300Y-72300000D01*
X155895300Y-72300000D02*
X155945300Y-72250000D01*
X146750000Y-106255000D02*
G75*
G02*
X145835000Y-107170000I-915000J0D01*
G01*
X153250000Y-106255000D02*
G75*
G03*
X154165000Y-107170000I915000J0D01*
G01*
X140920797Y-91253169D02*
X141107176Y-91255382D01*
D51*
X145700000Y-109400000D02*
X153393196Y-109400000D01*
D52*
X138412500Y-87200000D02*
X138412500Y-85100000D01*
X148500000Y-91500000D02*
X148826905Y-91173095D01*
D53*
X140250000Y-81437500D02*
X140250000Y-81450000D01*
X142150000Y-81437500D02*
X142150000Y-81650000D01*
D51*
X143996647Y-108694448D02*
X143402199Y-108100000D01*
D52*
X148500000Y-91500000D02*
X148744436Y-91744436D01*
D51*
X161787500Y-91000000D02*
X161787500Y-93100000D01*
D52*
X161787500Y-79400000D02*
X163612500Y-81500000D01*
D54*
X143402199Y-100297801D02*
X143900000Y-99800000D01*
D51*
X157106426Y-106887253D02*
X161787500Y-95200000D01*
D52*
X138412500Y-89300000D02*
X138412500Y-87200000D01*
X139973134Y-90860634D02*
X138412500Y-89300000D01*
D51*
X163612500Y-83600000D02*
X161787500Y-91000000D01*
D54*
X143402199Y-103900000D02*
X143402199Y-100297801D01*
D52*
X139800000Y-92373966D02*
X139800000Y-95700000D01*
X149120000Y-91900000D02*
X149120000Y-90634497D01*
D51*
X163612500Y-81500000D02*
X163612500Y-83600000D01*
D52*
X147382717Y-91012500D02*
X147320910Y-91014333D01*
X143778248Y-92481751D02*
X143750000Y-92510000D01*
X138412500Y-85100000D02*
X138412500Y-83105177D01*
X145030662Y-99800000D02*
X143900000Y-99800000D01*
X138762760Y-82924740D02*
X140250000Y-81437500D01*
X148500000Y-91500000D02*
X148457824Y-91457824D01*
D54*
X143402199Y-108100000D02*
X143402199Y-106000000D01*
D52*
X147382717Y-91012500D02*
X147968427Y-91012500D01*
D54*
X143402199Y-103900000D02*
X143402199Y-106000000D01*
D51*
X161787500Y-93100000D02*
X161787500Y-95200000D01*
D52*
X143605004Y-92365004D02*
X143750000Y-92510000D01*
D53*
X140250000Y-81450000D02*
G75*
G03*
X141300000Y-82500000I1050000J0D01*
G01*
D52*
X141107176Y-91255382D02*
G75*
G02*
X143604985Y-92365023I-182276J-3776418D01*
G01*
X138412500Y-83105177D02*
G75*
G03*
X138399993Y-83075007I-42700J-23D01*
G01*
D53*
X142150000Y-81650000D02*
G75*
G02*
X141300000Y-82500000I-850000J0D01*
G01*
D52*
X147320910Y-91014333D02*
G75*
G03*
X143778246Y-92481749I-10J-5010067D01*
G01*
X147968427Y-91012500D02*
G75*
G03*
X149084992Y-90549992I-27J1579100D01*
G01*
X139800000Y-95700000D02*
G75*
G03*
X143900000Y-99800000I4100000J0D01*
G01*
D51*
X145700000Y-109400000D02*
G75*
G02*
X143996648Y-108694447I0J2408900D01*
G01*
D52*
X138400000Y-83075000D02*
G75*
G03*
X138762756Y-82924736I0J513000D01*
G01*
X148744436Y-91744436D02*
G75*
G03*
X149120000Y-91900008I375564J375536D01*
G01*
X147460000Y-98793735D02*
G75*
G02*
X145030662Y-99799974I-2429300J2429335D01*
G01*
X148457824Y-91457824D02*
G75*
G03*
X147382717Y-91012479I-1075124J-1075076D01*
G01*
X140920797Y-91253169D02*
G75*
G02*
X139973141Y-90860627I3J1340169D01*
G01*
X139800000Y-92373966D02*
G75*
G02*
X140920797Y-91253200I1120800J-34D01*
G01*
D51*
X157106426Y-106887253D02*
G75*
G02*
X153393196Y-109399996I-3713226J1487253D01*
G01*
D52*
X148826905Y-91173095D02*
G75*
G03*
X149084996Y-90550000I-623105J623095D01*
G01*
X149120000Y-90634497D02*
G75*
G03*
X149084999Y-90550001I-119500J-3D01*
G01*
X140527405Y-79047595D02*
X142275000Y-77300000D01*
X138521555Y-78446554D02*
X138400000Y-78325000D01*
X144095300Y-74800000D02*
X142480000Y-74800000D01*
X142480000Y-76805087D02*
X142480000Y-75900000D01*
X142516421Y-77200000D02*
X143045298Y-77200000D01*
X142480000Y-75900000D02*
X142480000Y-74800000D01*
X142275000Y-77300000D02*
G75*
G02*
X142516421Y-77200009I241400J-241400D01*
G01*
X140250000Y-79162500D02*
G75*
G03*
X140527403Y-79047593I0J392300D01*
G01*
X140250000Y-79162500D02*
G75*
G02*
X138521553Y-78446556I0J2444400D01*
G01*
X142275000Y-77300000D02*
G75*
G03*
X142479994Y-76805087I-494900J494900D01*
G01*
D55*
X144095300Y-78800000D02*
X144800000Y-78800000D01*
X145434314Y-87334315D02*
X144653554Y-86553554D01*
X151700000Y-81400000D02*
X151747625Y-81398006D01*
X148500000Y-89000000D02*
X147824265Y-88324265D01*
X151747625Y-81398006D02*
X152493306Y-81398006D01*
X148303558Y-81400000D02*
X151700000Y-81400000D01*
X141614903Y-85294903D02*
X141210000Y-84890000D01*
X148854540Y-89354541D02*
X148500000Y-89000000D01*
X152493306Y-81398006D02*
G75*
G02*
X153195294Y-82100000I-6J-701994D01*
G01*
X143800000Y-86200000D02*
G75*
G02*
X141614902Y-85294904I0J3090200D01*
G01*
X149085000Y-89450000D02*
G75*
G02*
X148854544Y-89354537I0J325900D01*
G01*
X144653554Y-86553554D02*
G75*
G03*
X143800000Y-86199998I-853554J-853546D01*
G01*
X146800000Y-87900000D02*
G75*
G02*
X145434308Y-87334321I0J1931400D01*
G01*
X147700000Y-81149998D02*
G75*
G03*
X148303558Y-81400018I603600J603598D01*
G01*
X147824265Y-88324265D02*
G75*
G03*
X146800000Y-87899992I-1024265J-1024235D01*
G01*
D56*
X164700000Y-75600000D02*
X164700000Y-74214213D01*
X163612500Y-79400000D02*
X163612500Y-79001193D01*
X164700000Y-76375736D02*
X164700000Y-75600000D01*
X164700000Y-74214213D02*
G75*
G03*
X163700004Y-71799996I-3414200J13D01*
G01*
X163612500Y-79001193D02*
G75*
G02*
X164400002Y-77100002I2688700J-7D01*
G01*
X164400000Y-77100000D02*
G75*
G03*
X164700015Y-76375736I-724300J724300D01*
G01*
D55*
X148750000Y-106255000D02*
X148750000Y-105503553D01*
X148750000Y-105503553D02*
G75*
G03*
X148499986Y-104900014I-853600J-47D01*
G01*
X151750000Y-106255000D02*
X151750000Y-105503553D01*
X151750000Y-105503553D02*
G75*
G03*
X151499986Y-104900014I-853600J-47D01*
G01*
X148700000Y-80700000D02*
X152595300Y-80700000D01*
X152595300Y-80700000D02*
G75*
G02*
X153995300Y-82100000I0J-1400000D01*
G01*
X154981258Y-77314042D02*
X154981258Y-77595608D01*
X155895300Y-76400000D02*
G75*
G03*
X154981300Y-77314042I0J-914000D01*
G01*
D52*
X152413249Y-107034779D02*
X152448009Y-106905030D01*
X149229789Y-107705000D02*
X150831387Y-107705000D01*
X152300988Y-107154268D02*
X152405753Y-107052876D01*
D57*
X149100000Y-95800000D02*
X149100000Y-97617158D01*
D52*
X151817193Y-107477525D02*
X152069684Y-107331751D01*
X151547835Y-107589095D02*
X151817193Y-107477525D01*
D57*
X147800000Y-100765685D02*
X147800000Y-102037500D01*
D52*
X147550000Y-106979290D02*
X147550989Y-107009618D01*
X152069684Y-107331751D02*
X152300988Y-107154268D01*
X148862500Y-103100000D02*
X148862499Y-103100000D01*
X147550000Y-106255000D02*
X147550000Y-106979290D01*
X151266219Y-107664552D02*
X151547835Y-107589095D01*
X152448009Y-106905030D02*
X152450000Y-106837868D01*
X150977162Y-107702605D02*
X151266219Y-107664552D01*
D57*
X148140000Y-95050000D02*
X148350000Y-95050000D01*
X148346447Y-99653554D02*
X148200000Y-99800000D01*
D52*
X147550000Y-106255000D02*
X147550000Y-104412499D01*
X150831387Y-107705000D02*
X150977162Y-107702605D01*
D57*
X148700000Y-98582842D02*
X148700000Y-98800000D01*
D52*
X152405753Y-107052876D02*
X152413249Y-107034779D01*
X152450000Y-106837868D02*
X152450000Y-106255000D01*
D57*
X149100000Y-97617158D02*
G75*
G02*
X148900013Y-98100013I-682800J-42D01*
G01*
X148350000Y-95050000D02*
G75*
G02*
X149100000Y-95800000I0J-750000D01*
G01*
D52*
X148862499Y-103100000D02*
G75*
G03*
X147550000Y-104412499I1J-1312500D01*
G01*
D57*
X148900000Y-98100000D02*
G75*
G03*
X148700018Y-98582842I482800J-482800D01*
G01*
D52*
X147550989Y-107009618D02*
G75*
G03*
X149229789Y-107705002I1678811J1678818D01*
G01*
D57*
X148700000Y-98800000D02*
G75*
G02*
X148346445Y-99653552I-1207100J0D01*
G01*
X147800000Y-102037500D02*
G75*
G03*
X148862500Y-103100000I1062500J0D01*
G01*
X148200000Y-99800000D02*
G75*
G03*
X147799994Y-100765685I965700J-965700D01*
G01*
D55*
X155895300Y-77200000D02*
X156600000Y-77200000D01*
X153100000Y-83689652D02*
X153021056Y-83610708D01*
X152902292Y-83887360D02*
X153100000Y-83689652D01*
X152400000Y-85100000D02*
X152400000Y-90500000D01*
X151000000Y-93600000D02*
X151197918Y-93402082D01*
X150000000Y-98793735D02*
X150000000Y-96014213D01*
X150000000Y-96014213D02*
G75*
G02*
X150999996Y-93599996I3414200J13D01*
G01*
X152400000Y-85100000D02*
G75*
G02*
X152902299Y-83887367I1714900J0D01*
G01*
X151197918Y-93402082D02*
G75*
G03*
X152399989Y-90500000I-2902118J2902082D01*
G01*
X153021056Y-83610708D02*
G75*
G02*
X152395311Y-82100000I1510744J1510708D01*
G01*
X151595300Y-83690000D02*
X151595300Y-82100000D01*
D57*
X145995300Y-82100000D02*
X145995300Y-84987083D01*
D55*
X149000000Y-83681844D02*
X148896680Y-83578524D01*
X147500000Y-83000000D02*
X146895300Y-83000000D01*
X148896680Y-83578524D02*
G75*
G03*
X147500000Y-82999999I-1396680J-1396676D01*
G01*
X146895300Y-83000000D02*
G75*
G02*
X145995300Y-82100000I0J900000D01*
G01*
D57*
X145995300Y-84987083D02*
G75*
G02*
X145700005Y-85700005I-1008200J-17D01*
G01*
D55*
X150580000Y-105280000D02*
X150750000Y-105450000D01*
X149800000Y-106205000D02*
X149750000Y-106255000D01*
X149750000Y-106255000D02*
X149750000Y-105330000D01*
X149750000Y-105330000D02*
X149800000Y-105280000D01*
X148862499Y-102150000D02*
X148950000Y-102150000D01*
X149800000Y-105280000D02*
X150580000Y-105280000D01*
X150750000Y-105450000D02*
X150750000Y-106255000D01*
X149800000Y-103000000D02*
X149800000Y-106205000D01*
X148950000Y-102150000D02*
G75*
G02*
X149800000Y-103000000I0J-850000D01*
G01*
X150200000Y-107230000D02*
X150250000Y-107180000D01*
X149250000Y-104050000D02*
X149250000Y-106255000D01*
X149250000Y-107130000D02*
X149350000Y-107230000D01*
X149250000Y-106255000D02*
X149250000Y-107130000D01*
X150250000Y-107180000D02*
X150250000Y-106255000D01*
X149350000Y-107230000D02*
X150200000Y-107230000D01*
X148862499Y-104050000D02*
X149250000Y-104050000D01*
X155895300Y-80400000D02*
X156300000Y-80400000D01*
X151300000Y-101600000D02*
X151291744Y-101600000D01*
X151291744Y-101600000D02*
X151165058Y-101600000D01*
X151165058Y-101600000D02*
X150600000Y-101600000D01*
X156700000Y-95570741D02*
X156700000Y-96200000D01*
X150200000Y-102000000D02*
X150200000Y-103300000D01*
X150950000Y-104050000D02*
X151137499Y-104050000D01*
X156700000Y-80800000D02*
X156700000Y-95570741D01*
X150600000Y-101600000D02*
G75*
G03*
X150200000Y-102000000I0J-400000D01*
G01*
X156300000Y-80400000D02*
G75*
G02*
X156700000Y-80800000I0J-400000D01*
G01*
X156700000Y-96200000D02*
G75*
G02*
X151300000Y-101600000I-5400000J0D01*
G01*
X150200000Y-103300000D02*
G75*
G03*
X150950000Y-104050000I750000J0D01*
G01*
X157100000Y-82200000D02*
X157100000Y-95570741D01*
X157100000Y-80804700D02*
X157100000Y-82200000D01*
X157100000Y-95570741D02*
X157100000Y-96187499D01*
X155895300Y-79600000D02*
G75*
G02*
X157100000Y-80804700I0J-1204700D01*
G01*
X157100000Y-96187499D02*
G75*
G02*
X151137499Y-102150000I-5962500J-1D01*
G01*
D57*
X148331370Y-74100000D02*
X152300000Y-74100000D01*
X146400000Y-74900000D02*
X145469009Y-75830991D01*
X148331370Y-74100000D02*
G75*
G03*
X146400009Y-74900009I30J-2731400D01*
G01*
X145469009Y-75830991D02*
G75*
G02*
X144095300Y-76400005I-1373709J1373691D01*
G01*
X152300000Y-74100000D02*
G75*
G02*
X153600000Y-75400000I0J-1300000D01*
G01*
X144244454Y-84395547D02*
X143750000Y-84890000D01*
X146700000Y-86600000D02*
X146400000Y-86600000D01*
X147100000Y-87000000D02*
X146700000Y-86600000D01*
X144795319Y-85935320D02*
X143750000Y-84890000D01*
X146400000Y-86600000D02*
G75*
G02*
X144795311Y-85935328I0J2269400D01*
G01*
X145195300Y-82100000D02*
G75*
G02*
X144244455Y-84395548I-3246400J0D01*
G01*
D55*
X150795300Y-82100000D02*
X150795300Y-82214291D01*
X148400000Y-85100000D02*
X148124264Y-84824264D01*
X149600000Y-85100000D02*
X149570711Y-85129289D01*
X149158579Y-85300000D02*
X148882842Y-85300000D01*
X148882842Y-85300000D02*
G75*
G02*
X148399987Y-85100013I-42J682800D01*
G01*
X150795300Y-82214291D02*
G75*
G02*
X149600003Y-85100003I-4081000J-9D01*
G01*
X148124264Y-84824264D02*
G75*
G03*
X147100000Y-84399992I-1024264J-1024236D01*
G01*
X149570711Y-85129289D02*
G75*
G02*
X149158579Y-85299997I-412111J412089D01*
G01*
D57*
X146660000Y-94550000D02*
X147382717Y-94550000D01*
D58*
X147382717Y-94550000D02*
X147382717Y-92587500D01*
D57*
X148140000Y-94550000D02*
X147382717Y-94550000D01*
D53*
X151200000Y-91200000D02*
X151173095Y-91173095D01*
X151173095Y-91173095D02*
G75*
G02*
X150915004Y-90550000I623105J623095D01*
G01*
D56*
X130633965Y-86833965D02*
X128000000Y-84200000D01*
X136587500Y-89300000D02*
G75*
G02*
X130633959Y-86833971I0J8419600D01*
G01*
X137300000Y-109100000D02*
X141577199Y-108100000D01*
X169736745Y-93536746D02*
X171999998Y-95799999D01*
X171999998Y-95799999D02*
X172000000Y-95800000D01*
X163612500Y-91000000D02*
G75*
G02*
X169736747Y-93536744I0J-8661000D01*
G01*
X135925996Y-86925996D02*
X135700000Y-86700000D01*
X136587500Y-87200000D02*
G75*
G02*
X135925998Y-86925994I0J935500D01*
G01*
X141600000Y-103877199D02*
X141577199Y-103900000D01*
X141600000Y-102900000D02*
X141600000Y-103877199D01*
X164444714Y-93444715D02*
X164500000Y-93500000D01*
X163612500Y-93100000D02*
G75*
G02*
X164444708Y-93444721I0J-1176900D01*
G01*
X161787500Y-83600000D02*
X159600000Y-81400000D01*
X136507950Y-84907951D02*
X136500000Y-84900000D01*
X131967345Y-84788712D02*
X135835985Y-84788712D01*
X136587500Y-85100000D02*
G75*
G03*
X136507951Y-84907950I-271600J0D01*
G01*
X135835985Y-84788712D02*
G75*
G02*
X136587505Y-85099995I15J-1062788D01*
G01*
X141577199Y-106000000D02*
X138919046Y-105213127D01*
X163639751Y-95211288D02*
X168032655Y-95211288D01*
X163612500Y-95200000D02*
G75*
G03*
X163639751Y-95211308I27300J27300D01*
G01*
D57*
X146660000Y-95050000D02*
X143750000Y-95050000D01*
D55*
X148140000Y-94050000D02*
X148550000Y-94050000D01*
X151108263Y-84508262D02*
X151000000Y-84400000D01*
X152000000Y-90600000D02*
X152000000Y-85687032D01*
X152000000Y-85687032D02*
G75*
G03*
X151595309Y-84709991I-1381700J32D01*
G01*
X151595300Y-84710000D02*
G75*
G02*
X151108257Y-84508268I0J688800D01*
G01*
X148550000Y-94050000D02*
G75*
G03*
X152000000Y-90600000I0J3450000D01*
G01*
X149000000Y-84701844D02*
X149474432Y-84227412D01*
X149474432Y-84227412D02*
G75*
G03*
X149899994Y-83200000I-1027432J1027412D01*
G01*
D56*
X160800000Y-79500000D02*
X160800000Y-75117827D01*
X161787500Y-81500000D02*
X161515946Y-81228446D01*
X160800000Y-75117827D02*
X161030954Y-74886873D01*
X161515946Y-81228446D02*
G75*
G02*
X160800003Y-79500000I1728454J1728446D01*
G01*
D53*
X150334315Y-85700000D02*
X147100000Y-85700000D01*
X151300000Y-86100000D02*
G75*
G03*
X150334315Y-85699994I-965700J-965700D01*
G01*
G04 #@! TA.AperFunction,Conductor*
G36*
X136696188Y-69018907D02*
G01*
X136713818Y-69035345D01*
X137552224Y-70034106D01*
X138863649Y-71596357D01*
X138868829Y-71604891D01*
X138878140Y-71614202D01*
X138883959Y-71620552D01*
X138887624Y-71624918D01*
X138888873Y-71625500D01*
X138889438Y-71625500D01*
X138894588Y-71625500D01*
X138903195Y-71625875D01*
X138908305Y-71626321D01*
X138908305Y-71626320D01*
X138916296Y-71627018D01*
X138926154Y-71625500D01*
X143388015Y-71625500D01*
X143446206Y-71644407D01*
X143482170Y-71693907D01*
X143482170Y-71755093D01*
X143470331Y-71779501D01*
X143456036Y-71800894D01*
X143441300Y-71874980D01*
X143441300Y-71995999D01*
X143441301Y-71996000D01*
X144200300Y-71996000D01*
X144258491Y-72014907D01*
X144294455Y-72064407D01*
X144299300Y-72095000D01*
X144299300Y-72851993D01*
X144295300Y-72864303D01*
X144295300Y-72999999D01*
X144295301Y-73000000D01*
X144749298Y-73000000D01*
X144761970Y-72987327D01*
X144768206Y-72968136D01*
X144817706Y-72932172D01*
X144878892Y-72932172D01*
X144886957Y-72936084D01*
X144887186Y-72935532D01*
X144896194Y-72939263D01*
X144970280Y-72953999D01*
X144995300Y-72953998D01*
X144995300Y-72500001D01*
X145395300Y-72500001D01*
X145395300Y-72953998D01*
X145395301Y-72953999D01*
X145420312Y-72953999D01*
X145420322Y-72953998D01*
X145494404Y-72939263D01*
X145494407Y-72939262D01*
X145540298Y-72908599D01*
X145599186Y-72891990D01*
X145650302Y-72908599D01*
X145696193Y-72939263D01*
X145770280Y-72953999D01*
X145795300Y-72953998D01*
X145795300Y-72500001D01*
X146195300Y-72500001D01*
X146195300Y-72953998D01*
X146195301Y-72953999D01*
X146220312Y-72953999D01*
X146220322Y-72953998D01*
X146294404Y-72939263D01*
X146294407Y-72939262D01*
X146340298Y-72908599D01*
X146399186Y-72891990D01*
X146450302Y-72908599D01*
X146496193Y-72939263D01*
X146570280Y-72953999D01*
X146595300Y-72953998D01*
X146595300Y-72500001D01*
X146995300Y-72500001D01*
X146995300Y-72953998D01*
X146995301Y-72953999D01*
X147020312Y-72953999D01*
X147020322Y-72953998D01*
X147094404Y-72939263D01*
X147094407Y-72939262D01*
X147140298Y-72908599D01*
X147199186Y-72891990D01*
X147250302Y-72908599D01*
X147296193Y-72939263D01*
X147370280Y-72953999D01*
X147395300Y-72953998D01*
X147395300Y-72500001D01*
X147795300Y-72500001D01*
X147795300Y-72953998D01*
X147795301Y-72953999D01*
X147820312Y-72953999D01*
X147820322Y-72953998D01*
X147894404Y-72939263D01*
X147894407Y-72939262D01*
X147940298Y-72908599D01*
X147999186Y-72891990D01*
X148050302Y-72908599D01*
X148096193Y-72939263D01*
X148170280Y-72953999D01*
X148195300Y-72953998D01*
X148195300Y-72500001D01*
X148595300Y-72500001D01*
X148595300Y-72953998D01*
X148595301Y-72953999D01*
X148620312Y-72953999D01*
X148620322Y-72953998D01*
X148694404Y-72939263D01*
X148694407Y-72939262D01*
X148740298Y-72908599D01*
X148799186Y-72891990D01*
X148850302Y-72908599D01*
X148896193Y-72939263D01*
X148970280Y-72953999D01*
X148995300Y-72953998D01*
X148995300Y-72500001D01*
X149395300Y-72500001D01*
X149395300Y-72953998D01*
X149395301Y-72953999D01*
X149420312Y-72953999D01*
X149420322Y-72953998D01*
X149494404Y-72939263D01*
X149494407Y-72939262D01*
X149540298Y-72908599D01*
X149599186Y-72891990D01*
X149650302Y-72908599D01*
X149696193Y-72939263D01*
X149770280Y-72953999D01*
X149795300Y-72953998D01*
X149795300Y-72500001D01*
X150195300Y-72500001D01*
X150195300Y-72953998D01*
X150195301Y-72953999D01*
X150220312Y-72953999D01*
X150220322Y-72953998D01*
X150294404Y-72939263D01*
X150294407Y-72939262D01*
X150340298Y-72908599D01*
X150399186Y-72891990D01*
X150450302Y-72908599D01*
X150496193Y-72939263D01*
X150570280Y-72953999D01*
X150595300Y-72953998D01*
X150595300Y-72500001D01*
X150995300Y-72500001D01*
X150995300Y-72953998D01*
X150995301Y-72953999D01*
X151020312Y-72953999D01*
X151020322Y-72953998D01*
X151094404Y-72939263D01*
X151094407Y-72939262D01*
X151140298Y-72908599D01*
X151199186Y-72891990D01*
X151250302Y-72908599D01*
X151296193Y-72939263D01*
X151370280Y-72953999D01*
X151395300Y-72953998D01*
X151395300Y-72500001D01*
X151795300Y-72500001D01*
X151795300Y-72953998D01*
X151795301Y-72953999D01*
X151820312Y-72953999D01*
X151820322Y-72953998D01*
X151894404Y-72939263D01*
X151894407Y-72939262D01*
X151940298Y-72908599D01*
X151999186Y-72891990D01*
X152050302Y-72908599D01*
X152096193Y-72939263D01*
X152170280Y-72953999D01*
X152195300Y-72953998D01*
X152195300Y-72500001D01*
X152595300Y-72500001D01*
X152595300Y-72953998D01*
X152595301Y-72953999D01*
X152620312Y-72953999D01*
X152620322Y-72953998D01*
X152694404Y-72939263D01*
X152694407Y-72939262D01*
X152740298Y-72908599D01*
X152799186Y-72891990D01*
X152850302Y-72908599D01*
X152896193Y-72939263D01*
X152970280Y-72953999D01*
X152995300Y-72953998D01*
X152995300Y-72500001D01*
X153395300Y-72500001D01*
X153395300Y-72953998D01*
X153395301Y-72953999D01*
X153420312Y-72953999D01*
X153420322Y-72953998D01*
X153494404Y-72939263D01*
X153494407Y-72939262D01*
X153540298Y-72908599D01*
X153599186Y-72891990D01*
X153650302Y-72908599D01*
X153696193Y-72939263D01*
X153770280Y-72953999D01*
X153795300Y-72953998D01*
X153795300Y-72500001D01*
X154195300Y-72500001D01*
X154195300Y-72953998D01*
X154195301Y-72953999D01*
X154220312Y-72953999D01*
X154220322Y-72953998D01*
X154294404Y-72939263D01*
X154294407Y-72939262D01*
X154340298Y-72908599D01*
X154399186Y-72891990D01*
X154450302Y-72908599D01*
X154496193Y-72939263D01*
X154570280Y-72953999D01*
X154595300Y-72953998D01*
X154595300Y-72500001D01*
X154595299Y-72500000D01*
X154195301Y-72500000D01*
X154195300Y-72500001D01*
X153795300Y-72500001D01*
X153795299Y-72500000D01*
X153395301Y-72500000D01*
X153395300Y-72500001D01*
X152995300Y-72500001D01*
X152995299Y-72500000D01*
X152595301Y-72500000D01*
X152595300Y-72500001D01*
X152195300Y-72500001D01*
X152195299Y-72500000D01*
X151795301Y-72500000D01*
X151795300Y-72500001D01*
X151395300Y-72500001D01*
X151395299Y-72500000D01*
X150995301Y-72500000D01*
X150995300Y-72500001D01*
X150595300Y-72500001D01*
X150595299Y-72500000D01*
X150195301Y-72500000D01*
X150195300Y-72500001D01*
X149795300Y-72500001D01*
X149795299Y-72500000D01*
X149395301Y-72500000D01*
X149395300Y-72500001D01*
X148995300Y-72500001D01*
X148995299Y-72500000D01*
X148595301Y-72500000D01*
X148595300Y-72500001D01*
X148195300Y-72500001D01*
X148195299Y-72500000D01*
X147795301Y-72500000D01*
X147795300Y-72500001D01*
X147395300Y-72500001D01*
X147395299Y-72500000D01*
X146995301Y-72500000D01*
X146995300Y-72500001D01*
X146595300Y-72500001D01*
X146595299Y-72500000D01*
X146195301Y-72500000D01*
X146195300Y-72500001D01*
X145795300Y-72500001D01*
X145795299Y-72500000D01*
X145395301Y-72500000D01*
X145395300Y-72500001D01*
X144995300Y-72500001D01*
X144995300Y-72199000D01*
X145014207Y-72140809D01*
X145063707Y-72104845D01*
X145094300Y-72100000D01*
X154896300Y-72100000D01*
X154954491Y-72118907D01*
X154990455Y-72168407D01*
X154995300Y-72199000D01*
X154995300Y-72953998D01*
X154995301Y-72953999D01*
X155020312Y-72953999D01*
X155020322Y-72953998D01*
X155094404Y-72939263D01*
X155103416Y-72935531D01*
X155104952Y-72939241D01*
X155145562Y-72927733D01*
X155202992Y-72948838D01*
X155237049Y-72999669D01*
X155240800Y-73026661D01*
X155240800Y-73425063D01*
X155240801Y-73425070D01*
X155255565Y-73499300D01*
X155255566Y-73499302D01*
X155286100Y-73544998D01*
X155302709Y-73603886D01*
X155286101Y-73655001D01*
X155255566Y-73700698D01*
X155240800Y-73774933D01*
X155240800Y-74225063D01*
X155240801Y-74225070D01*
X155255565Y-74299300D01*
X155255566Y-74299302D01*
X155286100Y-74344998D01*
X155302709Y-74403886D01*
X155286101Y-74455001D01*
X155255566Y-74500698D01*
X155240800Y-74574933D01*
X155240800Y-75025063D01*
X155240801Y-75025070D01*
X155255565Y-75099300D01*
X155255566Y-75099302D01*
X155286100Y-75144998D01*
X155302709Y-75203886D01*
X155286101Y-75255001D01*
X155255566Y-75300698D01*
X155240800Y-75374933D01*
X155240800Y-75825063D01*
X155240801Y-75825070D01*
X155255565Y-75899300D01*
X155255566Y-75899302D01*
X155286100Y-75944998D01*
X155302709Y-76003886D01*
X155286101Y-76055001D01*
X155255566Y-76100698D01*
X155240800Y-76174932D01*
X155240324Y-76179769D01*
X155238047Y-76179544D01*
X155221893Y-76229263D01*
X155199993Y-76251163D01*
X155068882Y-76346425D01*
X155068877Y-76346429D01*
X154927688Y-76487625D01*
X154810324Y-76649171D01*
X154719679Y-76827086D01*
X154666868Y-76989644D01*
X154630905Y-77039145D01*
X154618725Y-77046711D01*
X154606733Y-77053005D01*
X154606728Y-77053008D01*
X154487760Y-77158405D01*
X154487760Y-77158406D01*
X154397470Y-77289214D01*
X154397468Y-77289217D01*
X154341111Y-77437818D01*
X154341108Y-77437827D01*
X154321951Y-77595606D01*
X154321951Y-77595609D01*
X154341108Y-77753388D01*
X154341111Y-77753397D01*
X154397468Y-77901998D01*
X154397470Y-77902001D01*
X154397471Y-77902003D01*
X154477310Y-78017670D01*
X154487760Y-78032809D01*
X154487760Y-78032810D01*
X154606722Y-78138201D01*
X154606729Y-78138207D01*
X154747465Y-78212071D01*
X154901787Y-78250108D01*
X154901790Y-78250108D01*
X155060726Y-78250108D01*
X155060729Y-78250108D01*
X155136552Y-78231419D01*
X155197575Y-78235850D01*
X155244340Y-78275305D01*
X155250487Y-78290850D01*
X155251835Y-78290293D01*
X155255566Y-78299302D01*
X155286100Y-78344998D01*
X155302709Y-78403886D01*
X155286101Y-78455001D01*
X155255566Y-78500698D01*
X155240800Y-78574933D01*
X155240800Y-79025063D01*
X155240801Y-79025070D01*
X155255565Y-79099300D01*
X155255566Y-79099302D01*
X155286100Y-79144998D01*
X155302709Y-79203886D01*
X155286101Y-79255001D01*
X155255566Y-79300698D01*
X155240800Y-79374933D01*
X155240800Y-79825063D01*
X155240801Y-79825070D01*
X155255565Y-79899300D01*
X155255566Y-79899302D01*
X155286100Y-79944998D01*
X155302709Y-80003886D01*
X155286101Y-80055001D01*
X155255566Y-80100698D01*
X155240800Y-80174933D01*
X155240800Y-80625063D01*
X155240801Y-80625070D01*
X155255565Y-80699300D01*
X155255566Y-80699302D01*
X155286100Y-80744998D01*
X155302709Y-80803886D01*
X155286101Y-80855001D01*
X155255566Y-80900698D01*
X155240800Y-80974933D01*
X155240800Y-81372738D01*
X155221893Y-81430929D01*
X155172393Y-81466893D01*
X155111207Y-81466893D01*
X155103882Y-81463338D01*
X155103609Y-81463998D01*
X155094604Y-81460268D01*
X155094601Y-81460266D01*
X155020367Y-81445500D01*
X155020366Y-81445500D01*
X154570236Y-81445500D01*
X154570229Y-81445501D01*
X154495999Y-81460265D01*
X154495998Y-81460266D01*
X154450300Y-81490801D01*
X154391412Y-81507409D01*
X154340298Y-81490800D01*
X154294601Y-81460266D01*
X154294598Y-81460265D01*
X154275375Y-81456441D01*
X154221991Y-81426544D01*
X154204639Y-81400473D01*
X154139122Y-81257010D01*
X154092365Y-81184255D01*
X154003443Y-81045888D01*
X154003434Y-81045876D01*
X153839096Y-80856221D01*
X153839094Y-80856219D01*
X153839088Y-80856212D01*
X153838209Y-80855450D01*
X153649423Y-80691865D01*
X153649411Y-80691856D01*
X153438298Y-80556183D01*
X153438296Y-80556181D01*
X153438290Y-80556178D01*
X153254890Y-80472422D01*
X153209995Y-80451919D01*
X152969200Y-80381216D01*
X152969195Y-80381215D01*
X152720789Y-80345500D01*
X152720784Y-80345500D01*
X152641971Y-80345500D01*
X149302542Y-80345500D01*
X149244351Y-80326593D01*
X149221066Y-80302738D01*
X149193497Y-80262798D01*
X149193497Y-80262797D01*
X149074535Y-80157406D01*
X149074533Y-80157404D01*
X149074529Y-80157401D01*
X149074525Y-80157399D01*
X149074524Y-80157398D01*
X148933791Y-80083536D01*
X148779473Y-80045500D01*
X148779471Y-80045500D01*
X148620529Y-80045500D01*
X148620526Y-80045500D01*
X148466208Y-80083536D01*
X148325475Y-80157398D01*
X148325464Y-80157406D01*
X148206502Y-80262797D01*
X148206502Y-80262798D01*
X148116212Y-80393606D01*
X148116210Y-80393609D01*
X148081297Y-80485668D01*
X148042984Y-80533373D01*
X147983947Y-80549446D01*
X147942724Y-80538222D01*
X147933794Y-80533535D01*
X147933791Y-80533534D01*
X147779473Y-80495498D01*
X147779471Y-80495498D01*
X147620529Y-80495498D01*
X147620526Y-80495498D01*
X147466208Y-80533534D01*
X147325475Y-80607396D01*
X147325464Y-80607404D01*
X147206502Y-80712795D01*
X147206502Y-80712796D01*
X147116212Y-80843604D01*
X147116210Y-80843607D01*
X147059853Y-80992208D01*
X147059850Y-80992217D01*
X147040693Y-81149996D01*
X147040693Y-81149999D01*
X147059850Y-81307777D01*
X147059850Y-81307779D01*
X147059851Y-81307780D01*
X147061411Y-81311893D01*
X147064368Y-81373005D01*
X147030840Y-81424186D01*
X147008728Y-81432572D01*
X146995300Y-81446001D01*
X146995300Y-82201000D01*
X146976393Y-82259191D01*
X146926893Y-82295155D01*
X146896300Y-82300000D01*
X146694300Y-82300000D01*
X146636109Y-82281093D01*
X146600145Y-82231593D01*
X146595300Y-82201000D01*
X146595300Y-81446000D01*
X146595299Y-81445999D01*
X146570282Y-81446000D01*
X146496195Y-81460736D01*
X146496189Y-81460738D01*
X146450748Y-81491101D01*
X146391860Y-81507709D01*
X146340747Y-81491100D01*
X146294601Y-81460266D01*
X146220367Y-81445500D01*
X146220366Y-81445500D01*
X145770236Y-81445500D01*
X145770229Y-81445501D01*
X145695999Y-81460265D01*
X145695998Y-81460266D01*
X145650300Y-81490801D01*
X145591412Y-81507409D01*
X145540298Y-81490800D01*
X145494601Y-81460266D01*
X145420367Y-81445500D01*
X145420366Y-81445500D01*
X144970236Y-81445500D01*
X144970229Y-81445501D01*
X144895999Y-81460265D01*
X144886989Y-81463998D01*
X144885504Y-81460414D01*
X144844338Y-81471991D01*
X144786951Y-81450770D01*
X144760667Y-81411368D01*
X144749299Y-81400000D01*
X144295301Y-81400000D01*
X144295300Y-81400001D01*
X144295300Y-81527061D01*
X144298081Y-81532520D01*
X144299300Y-81548007D01*
X144299300Y-82753998D01*
X144299301Y-82753999D01*
X144420312Y-82753999D01*
X144420322Y-82753998D01*
X144494404Y-82739263D01*
X144494408Y-82739261D01*
X144545877Y-82704870D01*
X144604765Y-82688260D01*
X144662169Y-82709436D01*
X144696162Y-82760309D01*
X144696913Y-82811238D01*
X144669611Y-82920237D01*
X144666791Y-82929535D01*
X144576112Y-83182966D01*
X144572394Y-83191942D01*
X144457311Y-83435265D01*
X144452731Y-83443833D01*
X144314353Y-83674703D01*
X144308955Y-83682781D01*
X144216042Y-83808059D01*
X144166192Y-83843535D01*
X144105009Y-83842935D01*
X144100762Y-83841400D01*
X144053553Y-83823111D01*
X143852347Y-83785500D01*
X143647653Y-83785500D01*
X143446446Y-83823111D01*
X143255572Y-83897056D01*
X143255567Y-83897059D01*
X143081542Y-84004811D01*
X143081540Y-84004812D01*
X143081538Y-84004814D01*
X143011251Y-84068889D01*
X142932662Y-84140533D01*
X142930268Y-84142715D01*
X142893895Y-84190881D01*
X142806913Y-84306063D01*
X142806908Y-84306072D01*
X142715672Y-84489298D01*
X142659655Y-84686177D01*
X142640768Y-84890000D01*
X142659655Y-85093822D01*
X142715672Y-85290701D01*
X142802497Y-85465069D01*
X142811510Y-85525587D01*
X142783230Y-85579844D01*
X142728459Y-85607117D01*
X142675990Y-85600661D01*
X142618160Y-85576707D01*
X142608158Y-85571890D01*
X142349388Y-85428874D01*
X142339988Y-85422968D01*
X142321114Y-85409576D01*
X142286170Y-85384782D01*
X142249655Y-85335691D01*
X142248239Y-85276954D01*
X142300345Y-85093821D01*
X142319232Y-84890000D01*
X142300345Y-84686179D01*
X142244328Y-84489299D01*
X142153088Y-84306065D01*
X142029732Y-84142715D01*
X141878462Y-84004814D01*
X141771686Y-83938701D01*
X141704432Y-83897059D01*
X141704427Y-83897056D01*
X141631105Y-83868651D01*
X141513556Y-83823112D01*
X141513555Y-83823111D01*
X141513553Y-83823111D01*
X141312347Y-83785500D01*
X141107653Y-83785500D01*
X140906446Y-83823111D01*
X140715572Y-83897056D01*
X140715567Y-83897059D01*
X140541542Y-84004811D01*
X140541540Y-84004812D01*
X140541538Y-84004814D01*
X140471251Y-84068889D01*
X140392662Y-84140533D01*
X140390268Y-84142715D01*
X140353895Y-84190881D01*
X140266913Y-84306063D01*
X140266908Y-84306072D01*
X140175672Y-84489298D01*
X140119655Y-84686177D01*
X140100768Y-84890000D01*
X140119655Y-85093822D01*
X140175672Y-85290701D01*
X140229639Y-85399082D01*
X140266912Y-85473935D01*
X140390268Y-85637285D01*
X140541538Y-85775186D01*
X140715573Y-85882944D01*
X140906444Y-85956888D01*
X141107653Y-85994500D01*
X141312347Y-85994500D01*
X141513556Y-85956888D01*
X141685299Y-85890353D01*
X141746389Y-85886964D01*
X141776062Y-85900354D01*
X142026932Y-86067980D01*
X142026936Y-86067982D01*
X142323691Y-86226600D01*
X142325427Y-86227528D01*
X142638118Y-86357049D01*
X142638120Y-86357049D01*
X142638126Y-86357052D01*
X142958697Y-86454296D01*
X143008894Y-86489281D01*
X143028940Y-86547089D01*
X143011179Y-86605640D01*
X142996656Y-86622194D01*
X142974273Y-86642599D01*
X142930268Y-86682715D01*
X142915895Y-86701748D01*
X142806913Y-86846063D01*
X142806908Y-86846072D01*
X142715672Y-87029298D01*
X142659655Y-87226177D01*
X142640768Y-87430000D01*
X142659655Y-87633822D01*
X142679294Y-87702846D01*
X142715672Y-87830701D01*
X142806912Y-88013935D01*
X142930268Y-88177285D01*
X143081538Y-88315186D01*
X143255573Y-88422944D01*
X143446444Y-88496888D01*
X143647653Y-88534500D01*
X143852347Y-88534500D01*
X144053556Y-88496888D01*
X144244427Y-88422944D01*
X144418462Y-88315186D01*
X144569732Y-88177285D01*
X144693088Y-88013935D01*
X144784328Y-87830701D01*
X144840345Y-87633821D01*
X144854141Y-87484929D01*
X144878337Y-87428734D01*
X144930944Y-87397491D01*
X144991869Y-87403137D01*
X145022723Y-87424063D01*
X145156487Y-87557827D01*
X145156499Y-87557851D01*
X145183642Y-87584993D01*
X145274415Y-87675764D01*
X145475146Y-87835839D01*
X145580290Y-87901904D01*
X145692539Y-87972434D01*
X145847461Y-88047039D01*
X145923857Y-88083829D01*
X146166193Y-88168625D01*
X146416499Y-88225755D01*
X146671628Y-88254500D01*
X146743853Y-88254500D01*
X146796108Y-88254500D01*
X146803875Y-88254805D01*
X146963376Y-88267357D01*
X146978713Y-88269786D01*
X147130504Y-88306229D01*
X147145259Y-88311023D01*
X147289480Y-88370763D01*
X147303312Y-88377811D01*
X147433183Y-88457398D01*
X147436406Y-88459373D01*
X147448973Y-88468505D01*
X147570710Y-88572481D01*
X147576403Y-88577742D01*
X147613293Y-88614633D01*
X147613295Y-88614634D01*
X147613296Y-88614635D01*
X147823711Y-88825050D01*
X147851488Y-88879567D01*
X147851985Y-88906985D01*
X147840693Y-88999995D01*
X147840693Y-89000001D01*
X147859850Y-89157780D01*
X147859853Y-89157789D01*
X147916210Y-89306390D01*
X147916212Y-89306393D01*
X147916213Y-89306395D01*
X147977520Y-89395213D01*
X148006502Y-89437201D01*
X148006502Y-89437202D01*
X148055545Y-89480650D01*
X148125471Y-89542599D01*
X148266207Y-89616463D01*
X148405193Y-89650720D01*
X148457168Y-89683004D01*
X148480241Y-89739672D01*
X148480501Y-89746843D01*
X148480501Y-89825070D01*
X148495265Y-89899300D01*
X148495266Y-89899302D01*
X148525800Y-89944998D01*
X148542409Y-90003886D01*
X148525801Y-90055001D01*
X148495266Y-90100698D01*
X148480500Y-90174932D01*
X148480500Y-90341671D01*
X148461593Y-90399862D01*
X148419386Y-90433135D01*
X148315401Y-90476208D01*
X148300628Y-90481008D01*
X148286417Y-90484420D01*
X148148011Y-90517650D01*
X148132667Y-90520081D01*
X148085589Y-90523786D01*
X148026094Y-90509502D01*
X147998570Y-90484422D01*
X147977047Y-90455670D01*
X147921944Y-90414421D01*
X147868106Y-90374118D01*
X147868104Y-90374117D01*
X147740598Y-90326559D01*
X147740597Y-90326558D01*
X147702561Y-90322469D01*
X147684239Y-90320500D01*
X147081195Y-90320500D01*
X147066237Y-90322108D01*
X147024837Y-90326558D01*
X146897327Y-90374118D01*
X146788389Y-90455668D01*
X146788383Y-90455674D01*
X146731717Y-90531372D01*
X146681709Y-90566625D01*
X146667951Y-90569824D01*
X146249130Y-90636158D01*
X146249124Y-90636159D01*
X146249120Y-90636160D01*
X146005409Y-90694670D01*
X145829670Y-90736861D01*
X145829668Y-90736861D01*
X145829667Y-90736862D01*
X145743938Y-90764717D01*
X145419411Y-90870161D01*
X145020874Y-91035240D01*
X144636505Y-91231085D01*
X144636503Y-91231086D01*
X144268715Y-91456466D01*
X144268712Y-91456468D01*
X144249520Y-91470412D01*
X144191329Y-91489317D01*
X144155571Y-91482632D01*
X144053555Y-91443111D01*
X143852347Y-91405500D01*
X143647653Y-91405500D01*
X143446452Y-91443110D01*
X143446440Y-91443113D01*
X143356489Y-91477960D01*
X143295398Y-91481350D01*
X143269714Y-91470490D01*
X143246399Y-91456472D01*
X142970057Y-91290322D01*
X142941751Y-91276328D01*
X142656010Y-91135060D01*
X142330278Y-91006103D01*
X142033770Y-90916075D01*
X141983583Y-90881077D01*
X141963552Y-90823263D01*
X141981328Y-90764717D01*
X141995835Y-90748185D01*
X142029732Y-90717285D01*
X142153088Y-90553935D01*
X142244328Y-90370701D01*
X142300345Y-90173821D01*
X142319232Y-89970000D01*
X142640768Y-89970000D01*
X142659655Y-90173822D01*
X142715672Y-90370701D01*
X142730192Y-90399862D01*
X142806912Y-90553935D01*
X142930268Y-90717285D01*
X143081538Y-90855186D01*
X143255573Y-90962944D01*
X143446444Y-91036888D01*
X143647653Y-91074500D01*
X143852347Y-91074500D01*
X144053556Y-91036888D01*
X144244427Y-90962944D01*
X144418462Y-90855186D01*
X144569732Y-90717285D01*
X144693088Y-90553935D01*
X144784328Y-90370701D01*
X144840345Y-90173821D01*
X144859232Y-89970000D01*
X144840345Y-89766179D01*
X144784328Y-89569299D01*
X144693088Y-89386065D01*
X144569732Y-89222715D01*
X144418462Y-89084814D01*
X144282612Y-89000699D01*
X144244432Y-88977059D01*
X144244427Y-88977056D01*
X144053556Y-88903112D01*
X144053555Y-88903111D01*
X144053553Y-88903111D01*
X143852347Y-88865500D01*
X143647653Y-88865500D01*
X143446446Y-88903111D01*
X143255572Y-88977056D01*
X143255567Y-88977059D01*
X143081542Y-89084811D01*
X143081540Y-89084812D01*
X143081538Y-89084814D01*
X142959574Y-89195999D01*
X142930269Y-89222714D01*
X142806913Y-89386063D01*
X142806908Y-89386072D01*
X142715672Y-89569298D01*
X142659655Y-89766177D01*
X142640768Y-89970000D01*
X142319232Y-89970000D01*
X142300345Y-89766179D01*
X142244328Y-89569299D01*
X142153088Y-89386065D01*
X142029732Y-89222715D01*
X141878462Y-89084814D01*
X141742612Y-89000699D01*
X141704432Y-88977059D01*
X141704427Y-88977056D01*
X141513556Y-88903112D01*
X141513555Y-88903111D01*
X141513553Y-88903111D01*
X141312347Y-88865500D01*
X141107653Y-88865500D01*
X140906446Y-88903111D01*
X140715572Y-88977056D01*
X140715567Y-88977059D01*
X140541542Y-89084811D01*
X140541540Y-89084812D01*
X140541538Y-89084814D01*
X140419574Y-89195999D01*
X140390269Y-89222714D01*
X140266913Y-89386063D01*
X140266908Y-89386072D01*
X140175672Y-89569298D01*
X140119655Y-89766177D01*
X140100768Y-89970000D01*
X140110208Y-90071873D01*
X140096750Y-90131560D01*
X140050780Y-90171937D01*
X139989855Y-90177583D01*
X139941626Y-90151011D01*
X139208495Y-89417880D01*
X139180718Y-89363363D01*
X139179499Y-89347876D01*
X139179499Y-88801751D01*
X139179499Y-88801748D01*
X139179499Y-88801746D01*
X139173040Y-88741658D01*
X139122342Y-88605733D01*
X139097450Y-88572481D01*
X139035406Y-88489598D01*
X139035401Y-88489593D01*
X138931672Y-88411944D01*
X138896418Y-88361936D01*
X138892000Y-88332690D01*
X138892000Y-88167309D01*
X138910907Y-88109118D01*
X138931673Y-88088055D01*
X139035398Y-88010409D01*
X139035400Y-88010406D01*
X139035404Y-88010404D01*
X139122342Y-87894267D01*
X139173040Y-87758342D01*
X139179500Y-87698255D01*
X139179500Y-87430000D01*
X140100768Y-87430000D01*
X140119655Y-87633822D01*
X140139294Y-87702846D01*
X140175672Y-87830701D01*
X140266912Y-88013935D01*
X140390268Y-88177285D01*
X140541538Y-88315186D01*
X140715573Y-88422944D01*
X140906444Y-88496888D01*
X141107653Y-88534500D01*
X141312347Y-88534500D01*
X141513556Y-88496888D01*
X141704427Y-88422944D01*
X141878462Y-88315186D01*
X142029732Y-88177285D01*
X142153088Y-88013935D01*
X142244328Y-87830701D01*
X142300345Y-87633821D01*
X142319232Y-87430000D01*
X142300345Y-87226179D01*
X142244328Y-87029299D01*
X142153088Y-86846065D01*
X142029732Y-86682715D01*
X141878462Y-86544814D01*
X141725332Y-86450000D01*
X141704432Y-86437059D01*
X141704427Y-86437056D01*
X141532789Y-86370563D01*
X141513556Y-86363112D01*
X141513555Y-86363111D01*
X141513553Y-86363111D01*
X141312347Y-86325500D01*
X141107653Y-86325500D01*
X140906446Y-86363111D01*
X140715572Y-86437056D01*
X140715567Y-86437059D01*
X140541542Y-86544811D01*
X140541540Y-86544812D01*
X140541538Y-86544814D01*
X140390268Y-86682715D01*
X140375895Y-86701748D01*
X140266913Y-86846063D01*
X140266908Y-86846072D01*
X140175672Y-87029298D01*
X140119655Y-87226177D01*
X140100768Y-87430000D01*
X139179500Y-87430000D01*
X139179499Y-86701746D01*
X139173040Y-86641658D01*
X139122342Y-86505733D01*
X139080622Y-86450001D01*
X139035406Y-86389598D01*
X139035401Y-86389593D01*
X138931672Y-86311944D01*
X138896418Y-86261936D01*
X138892000Y-86232690D01*
X138892000Y-86067309D01*
X138910907Y-86009118D01*
X138931673Y-85988055D01*
X139035398Y-85910409D01*
X139035400Y-85910406D01*
X139035404Y-85910404D01*
X139122342Y-85794267D01*
X139173040Y-85658342D01*
X139179500Y-85598255D01*
X139179499Y-84601746D01*
X139173040Y-84541658D01*
X139122342Y-84405733D01*
X139095495Y-84369869D01*
X139035406Y-84289598D01*
X139035401Y-84289593D01*
X138931672Y-84211944D01*
X138896418Y-84161936D01*
X138892000Y-84132690D01*
X138892000Y-83767366D01*
X138910907Y-83709175D01*
X138931665Y-83688117D01*
X138992544Y-83642544D01*
X139075175Y-83532163D01*
X139095426Y-83477869D01*
X139123358Y-83402978D01*
X139123357Y-83402978D01*
X139123360Y-83402973D01*
X139129500Y-83345864D01*
X139129500Y-83277122D01*
X139148407Y-83218931D01*
X139158490Y-83207124D01*
X139983246Y-82382367D01*
X140037763Y-82354591D01*
X140064251Y-82354591D01*
X140064282Y-82354195D01*
X140068160Y-82354500D01*
X140068166Y-82354500D01*
X140141875Y-82354500D01*
X140200066Y-82373407D01*
X140211872Y-82383490D01*
X140368743Y-82540361D01*
X140550779Y-82672618D01*
X140751263Y-82774769D01*
X140751265Y-82774769D01*
X140751266Y-82774770D01*
X140751269Y-82774772D01*
X140965252Y-82844300D01*
X140965256Y-82844301D01*
X141187493Y-82879500D01*
X141187496Y-82879500D01*
X141396767Y-82879500D01*
X141587910Y-82849226D01*
X141587914Y-82849225D01*
X141771957Y-82789425D01*
X141771959Y-82789423D01*
X141771964Y-82789422D01*
X141944399Y-82701563D01*
X142100966Y-82587810D01*
X142237810Y-82450966D01*
X142271932Y-82404001D01*
X143441301Y-82404001D01*
X143441301Y-82525022D01*
X143456036Y-82599104D01*
X143456037Y-82599107D01*
X143512174Y-82683121D01*
X143512178Y-82683125D01*
X143596193Y-82739263D01*
X143670281Y-82753999D01*
X143791300Y-82753999D01*
X143791300Y-82404001D01*
X143791299Y-82404000D01*
X143441302Y-82404000D01*
X143441301Y-82404001D01*
X142271932Y-82404001D01*
X142280681Y-82391959D01*
X142330180Y-82355996D01*
X142345283Y-82352369D01*
X142426555Y-82339498D01*
X142540723Y-82281326D01*
X142631326Y-82190723D01*
X142689498Y-82076555D01*
X142702415Y-81995000D01*
X142704500Y-81981836D01*
X142704500Y-81774980D01*
X143441300Y-81774980D01*
X143441300Y-81895999D01*
X143441301Y-81896000D01*
X143791299Y-81896000D01*
X143791300Y-81895999D01*
X143791300Y-81602000D01*
X143810207Y-81543809D01*
X143859707Y-81507845D01*
X143890300Y-81503000D01*
X143895299Y-81503000D01*
X143895300Y-81502999D01*
X143895300Y-81400001D01*
X143895299Y-81400000D01*
X143441302Y-81400000D01*
X143441301Y-81400001D01*
X143441301Y-81425022D01*
X143456036Y-81499104D01*
X143456037Y-81499107D01*
X143486701Y-81544999D01*
X143503309Y-81603888D01*
X143486701Y-81655001D01*
X143456036Y-81700894D01*
X143441300Y-81774980D01*
X142704500Y-81774980D01*
X142704500Y-80893163D01*
X142698527Y-80855451D01*
X142689498Y-80798445D01*
X142689495Y-80798440D01*
X142689495Y-80798438D01*
X142631328Y-80684281D01*
X142631327Y-80684279D01*
X142631326Y-80684277D01*
X142540723Y-80593674D01*
X142540720Y-80593672D01*
X142540718Y-80593671D01*
X142426561Y-80535504D01*
X142426556Y-80535502D01*
X142426555Y-80535502D01*
X142402874Y-80531751D01*
X142331837Y-80520500D01*
X142331834Y-80520500D01*
X141968166Y-80520500D01*
X141968163Y-80520500D01*
X141873445Y-80535502D01*
X141873438Y-80535504D01*
X141759281Y-80593671D01*
X141759279Y-80593672D01*
X141668672Y-80684279D01*
X141668671Y-80684281D01*
X141610504Y-80798438D01*
X141610502Y-80798445D01*
X141595500Y-80893163D01*
X141595500Y-81962411D01*
X141576593Y-82020602D01*
X141556769Y-82040952D01*
X141545589Y-82049531D01*
X141523205Y-82062454D01*
X141433815Y-82099480D01*
X141408852Y-82106169D01*
X141311987Y-82118921D01*
X141287982Y-82119145D01*
X141161882Y-82104937D01*
X141140275Y-82100006D01*
X141070827Y-82075705D01*
X141019607Y-82057783D01*
X140999634Y-82048164D01*
X140891395Y-81980152D01*
X140874063Y-81966331D01*
X140833496Y-81925764D01*
X140805719Y-81871247D01*
X140804500Y-81855760D01*
X140804500Y-80893163D01*
X140798527Y-80855451D01*
X140789498Y-80798445D01*
X140789495Y-80798440D01*
X140789495Y-80798438D01*
X140731328Y-80684281D01*
X140731327Y-80684279D01*
X140731326Y-80684277D01*
X140640723Y-80593674D01*
X140640720Y-80593672D01*
X140640718Y-80593671D01*
X140526561Y-80535504D01*
X140526556Y-80535502D01*
X140526555Y-80535502D01*
X140502874Y-80531751D01*
X140431837Y-80520500D01*
X140431834Y-80520500D01*
X140068166Y-80520500D01*
X140068163Y-80520500D01*
X139973445Y-80535502D01*
X139973438Y-80535504D01*
X139859281Y-80593671D01*
X139859279Y-80593672D01*
X139768672Y-80684279D01*
X139768671Y-80684281D01*
X139710504Y-80798438D01*
X139710502Y-80798445D01*
X139695500Y-80893163D01*
X139695500Y-81272876D01*
X139676593Y-81331067D01*
X139666503Y-81342880D01*
X139249694Y-81759688D01*
X139195178Y-81787465D01*
X139141729Y-81779000D01*
X137671001Y-81779000D01*
X137671000Y-81779001D01*
X137671000Y-81795816D01*
X137670999Y-81795816D01*
X137677132Y-81852860D01*
X137677134Y-81852868D01*
X137725267Y-81981920D01*
X137807809Y-82092182D01*
X137807817Y-82092190D01*
X137918080Y-82174733D01*
X138004526Y-82206975D01*
X138052441Y-82245025D01*
X138068839Y-82303972D01*
X138047458Y-82361300D01*
X138004527Y-82392491D01*
X137917837Y-82424824D01*
X137807460Y-82507452D01*
X137807452Y-82507460D01*
X137724823Y-82617838D01*
X137676641Y-82747021D01*
X137676639Y-82747032D01*
X137673804Y-82773406D01*
X137670500Y-82804136D01*
X137670500Y-83345864D01*
X137672919Y-83368365D01*
X137676639Y-83402967D01*
X137676641Y-83402978D01*
X137724823Y-83532161D01*
X137805171Y-83639492D01*
X137807456Y-83642544D01*
X137856514Y-83679269D01*
X137893329Y-83706828D01*
X137928582Y-83756836D01*
X137933000Y-83786081D01*
X137933000Y-84132690D01*
X137914093Y-84190881D01*
X137893328Y-84211944D01*
X137789598Y-84289593D01*
X137789593Y-84289598D01*
X137702657Y-84405733D01*
X137651960Y-84541657D01*
X137651959Y-84541658D01*
X137647243Y-84585532D01*
X137645749Y-84599435D01*
X137645500Y-84601748D01*
X137645500Y-85598248D01*
X137645501Y-85598254D01*
X137651959Y-85658339D01*
X137651960Y-85658341D01*
X137702657Y-85794266D01*
X137789593Y-85910401D01*
X137789601Y-85910409D01*
X137893327Y-85988055D01*
X137928581Y-86038062D01*
X137933000Y-86067309D01*
X137933000Y-86232690D01*
X137914093Y-86290881D01*
X137893328Y-86311944D01*
X137789598Y-86389593D01*
X137789593Y-86389598D01*
X137702657Y-86505733D01*
X137651960Y-86641657D01*
X137651959Y-86641658D01*
X137645500Y-86701748D01*
X137645500Y-87698248D01*
X137645501Y-87698254D01*
X137651959Y-87758339D01*
X137651960Y-87758341D01*
X137702657Y-87894266D01*
X137789593Y-88010401D01*
X137789601Y-88010409D01*
X137893327Y-88088055D01*
X137928581Y-88138062D01*
X137933000Y-88167309D01*
X137933000Y-88332690D01*
X137914093Y-88390881D01*
X137893328Y-88411944D01*
X137789598Y-88489593D01*
X137789593Y-88489598D01*
X137702657Y-88605733D01*
X137651960Y-88741657D01*
X137651959Y-88741658D01*
X137645500Y-88801748D01*
X137645500Y-89241809D01*
X137626593Y-89300000D01*
X137616502Y-89311814D01*
X137586540Y-89341775D01*
X137582818Y-89345087D01*
X137534723Y-89393587D01*
X137531604Y-89396597D01*
X137520676Y-89406692D01*
X137465102Y-89432290D01*
X137405097Y-89420333D01*
X137363579Y-89375389D01*
X137354499Y-89333972D01*
X137354499Y-88801751D01*
X137354499Y-88801748D01*
X137354499Y-88801746D01*
X137348040Y-88741658D01*
X137297342Y-88605733D01*
X137272450Y-88572481D01*
X137210406Y-88489598D01*
X137210401Y-88489593D01*
X137094266Y-88402657D01*
X136958342Y-88351960D01*
X136958341Y-88351959D01*
X136925529Y-88348432D01*
X136869693Y-88323412D01*
X136839227Y-88270351D01*
X136845767Y-88209516D01*
X136886817Y-88164145D01*
X136925529Y-88151567D01*
X136958342Y-88148040D01*
X137094267Y-88097342D01*
X137210404Y-88010404D01*
X137297342Y-87894267D01*
X137348040Y-87758342D01*
X137354500Y-87698255D01*
X137354499Y-86701746D01*
X137348040Y-86641658D01*
X137297342Y-86505733D01*
X137255622Y-86450001D01*
X137210406Y-86389598D01*
X137210401Y-86389593D01*
X137094266Y-86302657D01*
X136958342Y-86251960D01*
X136958341Y-86251959D01*
X136925529Y-86248432D01*
X136869693Y-86223412D01*
X136839227Y-86170351D01*
X136845767Y-86109516D01*
X136886817Y-86064145D01*
X136925529Y-86051567D01*
X136958342Y-86048040D01*
X137094267Y-85997342D01*
X137210404Y-85910404D01*
X137297342Y-85794267D01*
X137348040Y-85658342D01*
X137354500Y-85598255D01*
X137354499Y-84601746D01*
X137348040Y-84541658D01*
X137297342Y-84405733D01*
X137270495Y-84369869D01*
X137210406Y-84289598D01*
X137210401Y-84289593D01*
X137094266Y-84202657D01*
X136958342Y-84151960D01*
X136958341Y-84151959D01*
X136917790Y-84147600D01*
X136898255Y-84145500D01*
X136898251Y-84145500D01*
X136276751Y-84145500D01*
X136276745Y-84145501D01*
X136216660Y-84151959D01*
X136216658Y-84151960D01*
X136080736Y-84202656D01*
X136080731Y-84202659D01*
X135998166Y-84264465D01*
X135940251Y-84284201D01*
X135938840Y-84284211D01*
X135938705Y-84284211D01*
X135835978Y-84284212D01*
X133067140Y-84284212D01*
X133008949Y-84265305D01*
X132978519Y-84229340D01*
X132974009Y-84220282D01*
X132953125Y-84178342D01*
X132824185Y-84007598D01*
X132666066Y-83863454D01*
X132484154Y-83750819D01*
X132284641Y-83673527D01*
X132284640Y-83673526D01*
X132284638Y-83673526D01*
X132074324Y-83634212D01*
X131860364Y-83634212D01*
X131650049Y-83673526D01*
X131612399Y-83688112D01*
X131450534Y-83750819D01*
X131268622Y-83863454D01*
X131268619Y-83863456D01*
X131177127Y-83946862D01*
X131110503Y-84007598D01*
X131078588Y-84049860D01*
X130981564Y-84178340D01*
X130981559Y-84178349D01*
X130886653Y-84368948D01*
X130886193Y-84369872D01*
X130827640Y-84575664D01*
X130807898Y-84788712D01*
X130827640Y-85001760D01*
X130886193Y-85207552D01*
X130981563Y-85399082D01*
X131110503Y-85569826D01*
X131268622Y-85713970D01*
X131450534Y-85826605D01*
X131650047Y-85903897D01*
X131860364Y-85943212D01*
X132074324Y-85943212D01*
X132284641Y-85903897D01*
X132484154Y-85826605D01*
X132666066Y-85713970D01*
X132824185Y-85569826D01*
X132953125Y-85399082D01*
X132978519Y-85348084D01*
X133021382Y-85304421D01*
X133067140Y-85293212D01*
X135721500Y-85293212D01*
X135779691Y-85312119D01*
X135815655Y-85361619D01*
X135820500Y-85392212D01*
X135820500Y-85598248D01*
X135820501Y-85598254D01*
X135826959Y-85658339D01*
X135826960Y-85658341D01*
X135877658Y-85794268D01*
X135881050Y-85800480D01*
X135879445Y-85801356D01*
X135896243Y-85850638D01*
X135878171Y-85909094D01*
X135829192Y-85945764D01*
X135786169Y-85950435D01*
X135744712Y-85945764D01*
X135700000Y-85940726D01*
X135699998Y-85940726D01*
X135699997Y-85940726D01*
X135699996Y-85940726D01*
X135531051Y-85959761D01*
X135531039Y-85959764D01*
X135370562Y-86015918D01*
X135370561Y-86015918D01*
X135226603Y-86106373D01*
X135106373Y-86226603D01*
X135015918Y-86370561D01*
X135015918Y-86370562D01*
X134959764Y-86531039D01*
X134959761Y-86531051D01*
X134940726Y-86699995D01*
X134940726Y-86700004D01*
X134959761Y-86868948D01*
X134959764Y-86868960D01*
X135015918Y-87029437D01*
X135015918Y-87029438D01*
X135106373Y-87173396D01*
X135106376Y-87173400D01*
X135226600Y-87293624D01*
X135226602Y-87293625D01*
X135226603Y-87293626D01*
X135366281Y-87381392D01*
X135370563Y-87384082D01*
X135434827Y-87406568D01*
X135531039Y-87440235D01*
X135531043Y-87440236D01*
X135531046Y-87440237D01*
X135531047Y-87440237D01*
X135531051Y-87440238D01*
X135615523Y-87449755D01*
X135700000Y-87459274D01*
X135710412Y-87458100D01*
X135770352Y-87470370D01*
X135811635Y-87515529D01*
X135820500Y-87556476D01*
X135820500Y-87698248D01*
X135820501Y-87698254D01*
X135826959Y-87758339D01*
X135826960Y-87758341D01*
X135877657Y-87894266D01*
X135964593Y-88010401D01*
X135964598Y-88010406D01*
X136068327Y-88088055D01*
X136080733Y-88097342D01*
X136216658Y-88148040D01*
X136249469Y-88151567D01*
X136305305Y-88176586D01*
X136335772Y-88229646D01*
X136329233Y-88290481D01*
X136288184Y-88335853D01*
X136249468Y-88348433D01*
X136216660Y-88351959D01*
X136216658Y-88351960D01*
X136080733Y-88402657D01*
X135964598Y-88489593D01*
X135964593Y-88489598D01*
X135877657Y-88605732D01*
X135848921Y-88682778D01*
X135810870Y-88730692D01*
X135751922Y-88747089D01*
X135746460Y-88746703D01*
X135557611Y-88728104D01*
X135551187Y-88727259D01*
X135046541Y-88643942D01*
X135040187Y-88642678D01*
X134542077Y-88526535D01*
X134535820Y-88524858D01*
X134046391Y-88376392D01*
X134040256Y-88374310D01*
X133561565Y-88194144D01*
X133555580Y-88191665D01*
X133089692Y-87980575D01*
X133083882Y-87977709D01*
X132632826Y-87736614D01*
X132627216Y-87733375D01*
X132192868Y-87463282D01*
X132187481Y-87459683D01*
X131771741Y-87161769D01*
X131766601Y-87157825D01*
X131371229Y-86833353D01*
X131366359Y-86829082D01*
X130992096Y-86478549D01*
X130989767Y-86476296D01*
X128788270Y-84274799D01*
X128760493Y-84220282D01*
X128759274Y-84204795D01*
X128759274Y-84199996D01*
X128740238Y-84031051D01*
X128740235Y-84031039D01*
X128710780Y-83946862D01*
X128684082Y-83870563D01*
X128679616Y-83863456D01*
X128593626Y-83726603D01*
X128593625Y-83726602D01*
X128593624Y-83726600D01*
X128473400Y-83606376D01*
X128473397Y-83606374D01*
X128473396Y-83606373D01*
X128329438Y-83515918D01*
X128168960Y-83459764D01*
X128168948Y-83459761D01*
X128000004Y-83440726D01*
X127999996Y-83440726D01*
X127831051Y-83459761D01*
X127831039Y-83459764D01*
X127670562Y-83515918D01*
X127670561Y-83515918D01*
X127526603Y-83606373D01*
X127406373Y-83726603D01*
X127315918Y-83870561D01*
X127315918Y-83870562D01*
X127259764Y-84031039D01*
X127259761Y-84031051D01*
X127240726Y-84199995D01*
X127240726Y-84200004D01*
X127259761Y-84368948D01*
X127259764Y-84368960D01*
X127315918Y-84529437D01*
X127315918Y-84529438D01*
X127406373Y-84673396D01*
X127406376Y-84673400D01*
X127526600Y-84793624D01*
X127526602Y-84793625D01*
X127526603Y-84793626D01*
X127653282Y-84873224D01*
X127670563Y-84884082D01*
X127687476Y-84890000D01*
X127831039Y-84940235D01*
X127831043Y-84940236D01*
X127831046Y-84940237D01*
X127831047Y-84940237D01*
X127831051Y-84940238D01*
X127999997Y-84959274D01*
X128004795Y-84959274D01*
X128062986Y-84978181D01*
X128074799Y-84988270D01*
X130249789Y-87163260D01*
X130249802Y-87163286D01*
X130277224Y-87190707D01*
X130277224Y-87190708D01*
X130329785Y-87243268D01*
X130467896Y-87381378D01*
X130467911Y-87381392D01*
X130555202Y-87458726D01*
X130586221Y-87511466D01*
X130580315Y-87572366D01*
X130539742Y-87618163D01*
X130489553Y-87631828D01*
X129099936Y-87631828D01*
X129099929Y-87631829D01*
X129025699Y-87646593D01*
X129025697Y-87646594D01*
X128941519Y-87702841D01*
X128941514Y-87702846D01*
X128918951Y-87736614D01*
X128885266Y-87787027D01*
X128879194Y-87817554D01*
X128870500Y-87861261D01*
X128870500Y-89611391D01*
X128870501Y-89611398D01*
X128885265Y-89685628D01*
X128885266Y-89685630D01*
X128941513Y-89769808D01*
X128941516Y-89769812D01*
X129025699Y-89826062D01*
X129099933Y-89840828D01*
X130850066Y-89840827D01*
X130924301Y-89826062D01*
X131008484Y-89769812D01*
X131064734Y-89685629D01*
X131079500Y-89611395D01*
X131079499Y-88105229D01*
X131098406Y-88047039D01*
X131147906Y-88011075D01*
X131209092Y-88011075D01*
X131239554Y-88027299D01*
X131296109Y-88071607D01*
X131296112Y-88071610D01*
X131739969Y-88377981D01*
X131739971Y-88377982D01*
X131749160Y-88383537D01*
X132201476Y-88656971D01*
X132201496Y-88656982D01*
X132201507Y-88656989D01*
X132201515Y-88656993D01*
X132201527Y-88657000D01*
X132363461Y-88741989D01*
X132679046Y-88907620D01*
X133170847Y-89128961D01*
X133675114Y-89320203D01*
X134190009Y-89480650D01*
X134713651Y-89609716D01*
X134890054Y-89642043D01*
X135244129Y-89706930D01*
X135414701Y-89727640D01*
X135740085Y-89767149D01*
X135795571Y-89792932D01*
X135825307Y-89846406D01*
X135826584Y-89854844D01*
X135826959Y-89858340D01*
X135826960Y-89858342D01*
X135845869Y-89909039D01*
X135877657Y-89994266D01*
X135964593Y-90110401D01*
X135964601Y-90110409D01*
X136080065Y-90196842D01*
X136115319Y-90246850D01*
X136114447Y-90308029D01*
X136077780Y-90357011D01*
X136058864Y-90367460D01*
X135946329Y-90414421D01*
X135938188Y-90417407D01*
X135583381Y-90530168D01*
X135575011Y-90532430D01*
X135211685Y-90613716D01*
X135203148Y-90615236D01*
X134837664Y-90663943D01*
X134829937Y-90664666D01*
X134810799Y-90665701D01*
X134810800Y-90665702D01*
X134734398Y-90669853D01*
X134734385Y-90669854D01*
X134657984Y-90674026D01*
X134657973Y-90674026D01*
X134634101Y-90675334D01*
X134629767Y-90675476D01*
X134492209Y-90676976D01*
X134473098Y-90675326D01*
X134463890Y-90673620D01*
X134413157Y-90677613D01*
X134406473Y-90677912D01*
X134355577Y-90678468D01*
X134355572Y-90678468D01*
X134346559Y-90680989D01*
X134327670Y-90684341D01*
X133885114Y-90719172D01*
X133878318Y-90719472D01*
X133638973Y-90721823D01*
X133638001Y-90721828D01*
X130989612Y-90721828D01*
X130931421Y-90702921D01*
X130910611Y-90682492D01*
X130794732Y-90529043D01*
X130643462Y-90391142D01*
X130469427Y-90283384D01*
X130278556Y-90209440D01*
X130278555Y-90209439D01*
X130278553Y-90209439D01*
X130077347Y-90171828D01*
X129872653Y-90171828D01*
X129671446Y-90209439D01*
X129480572Y-90283384D01*
X129480567Y-90283387D01*
X129306542Y-90391139D01*
X129306540Y-90391140D01*
X129306538Y-90391142D01*
X129185211Y-90501746D01*
X129167766Y-90517650D01*
X129155268Y-90529043D01*
X129125336Y-90568679D01*
X129031913Y-90692391D01*
X129031908Y-90692400D01*
X128940672Y-90875626D01*
X128884655Y-91072505D01*
X128865768Y-91276328D01*
X128884655Y-91480150D01*
X128904108Y-91548521D01*
X128940672Y-91677029D01*
X129031912Y-91860263D01*
X129155268Y-92023613D01*
X129306538Y-92161514D01*
X129480573Y-92269272D01*
X129671444Y-92343216D01*
X129872653Y-92380828D01*
X130077347Y-92380828D01*
X130278556Y-92343216D01*
X130469427Y-92269272D01*
X130643462Y-92161514D01*
X130794732Y-92023613D01*
X130910609Y-91870165D01*
X130960764Y-91835124D01*
X130989612Y-91830828D01*
X133561999Y-91830828D01*
X133573426Y-91831520D01*
X133573668Y-91831517D01*
X133573670Y-91831518D01*
X133643445Y-91830833D01*
X133644417Y-91830828D01*
X133714481Y-91830828D01*
X133725885Y-91830022D01*
X133848399Y-91828820D01*
X133867411Y-91830472D01*
X133876967Y-91832244D01*
X133927360Y-91828277D01*
X133934127Y-91827978D01*
X133984677Y-91827483D01*
X133994037Y-91824875D01*
X134012827Y-91821550D01*
X134456112Y-91786662D01*
X134462776Y-91786364D01*
X134591373Y-91784962D01*
X134610838Y-91786679D01*
X134612637Y-91787018D01*
X134613301Y-91787144D01*
X134666225Y-91784240D01*
X134670533Y-91784098D01*
X134729201Y-91783459D01*
X134730620Y-91783061D01*
X134751878Y-91779550D01*
X134756622Y-91779291D01*
X134756643Y-91779296D01*
X134756643Y-91779290D01*
X134832759Y-91775145D01*
X134832759Y-91775150D01*
X134832784Y-91775143D01*
X134839556Y-91774776D01*
X134841132Y-91774691D01*
X134857354Y-91775494D01*
X134860970Y-91775609D01*
X134860978Y-91775611D01*
X134916788Y-91770647D01*
X134920131Y-91770408D01*
X134976106Y-91767383D01*
X134976116Y-91767379D01*
X134978617Y-91766938D01*
X134995770Y-91763597D01*
X135139868Y-91750764D01*
X135559316Y-91680247D01*
X135559323Y-91680245D01*
X135559330Y-91680244D01*
X135972000Y-91577313D01*
X135995901Y-91569331D01*
X136375436Y-91442580D01*
X136767161Y-91276869D01*
X137144807Y-91081184D01*
X137506083Y-90856710D01*
X137508157Y-90855186D01*
X137631242Y-90764717D01*
X137848800Y-90604810D01*
X138170880Y-90327009D01*
X138213760Y-90283779D01*
X138268164Y-90255781D01*
X138284047Y-90254499D01*
X138647876Y-90254499D01*
X138706067Y-90273406D01*
X138717880Y-90283495D01*
X139668963Y-91234578D01*
X139696739Y-91289093D01*
X139687168Y-91349525D01*
X139673777Y-91369411D01*
X139636441Y-91412498D01*
X139636429Y-91412514D01*
X139512685Y-91605057D01*
X139512676Y-91605075D01*
X139417582Y-91813288D01*
X139417582Y-91813289D01*
X139353086Y-92032920D01*
X139353084Y-92032933D01*
X139320502Y-92259501D01*
X139320501Y-92307314D01*
X139320500Y-92307345D01*
X139320500Y-92310839D01*
X139320500Y-92373951D01*
X139320499Y-92423513D01*
X139320498Y-92443961D01*
X139320500Y-92443990D01*
X139320500Y-95899952D01*
X139355352Y-96298309D01*
X139355352Y-96298312D01*
X139424792Y-96692127D01*
X139528288Y-97078382D01*
X139528290Y-97078390D01*
X139528292Y-97078394D01*
X139665063Y-97454168D01*
X139774910Y-97689735D01*
X139834062Y-97816589D01*
X139867484Y-97874477D01*
X140034009Y-98162908D01*
X140034012Y-98162912D01*
X140034013Y-98162914D01*
X140034016Y-98162919D01*
X140263370Y-98490470D01*
X140263372Y-98490472D01*
X140263377Y-98490479D01*
X140304707Y-98539734D01*
X140341317Y-98583364D01*
X140364237Y-98640094D01*
X140349435Y-98699462D01*
X140302564Y-98738791D01*
X140265478Y-98746000D01*
X139754001Y-98746000D01*
X139754000Y-98746001D01*
X139754000Y-99545999D01*
X139754001Y-99546000D01*
X141253997Y-99546000D01*
X141258903Y-99541094D01*
X141313420Y-99513316D01*
X141373852Y-99522887D01*
X141385692Y-99530001D01*
X141437080Y-99565983D01*
X141437084Y-99565985D01*
X141437092Y-99565991D01*
X141783408Y-99765936D01*
X142088342Y-99908128D01*
X142133087Y-99949854D01*
X142145500Y-99997851D01*
X142145500Y-100398248D01*
X142145501Y-100398254D01*
X142151959Y-100458339D01*
X142151960Y-100458341D01*
X142202657Y-100594266D01*
X142289593Y-100710401D01*
X142289598Y-100710406D01*
X142405139Y-100796897D01*
X142405733Y-100797342D01*
X142541658Y-100848040D01*
X142601745Y-100854500D01*
X142673699Y-100854499D01*
X142731889Y-100873406D01*
X142767853Y-100922905D01*
X142772699Y-100953499D01*
X142772699Y-103065456D01*
X142753792Y-103123647D01*
X142752953Y-103124784D01*
X142692356Y-103205733D01*
X142641659Y-103341657D01*
X142641658Y-103341658D01*
X142635199Y-103401748D01*
X142635199Y-104398248D01*
X142635200Y-104398254D01*
X142641658Y-104458339D01*
X142641658Y-104458340D01*
X142641659Y-104458342D01*
X142692357Y-104594267D01*
X142751226Y-104672907D01*
X142752953Y-104675214D01*
X142772689Y-104733128D01*
X142772699Y-104734542D01*
X142772699Y-105165456D01*
X142753792Y-105223647D01*
X142752953Y-105224784D01*
X142692356Y-105305733D01*
X142641659Y-105441657D01*
X142641658Y-105441658D01*
X142635199Y-105501748D01*
X142635199Y-106498248D01*
X142635200Y-106498254D01*
X142641658Y-106558339D01*
X142641658Y-106558340D01*
X142641659Y-106558342D01*
X142692357Y-106694267D01*
X142693655Y-106696001D01*
X142752953Y-106775214D01*
X142772689Y-106833128D01*
X142772699Y-106834542D01*
X142772699Y-107265456D01*
X142753792Y-107323647D01*
X142752953Y-107324784D01*
X142692356Y-107405733D01*
X142641659Y-107541657D01*
X142641658Y-107541658D01*
X142635199Y-107601748D01*
X142635199Y-108598248D01*
X142635200Y-108598254D01*
X142641658Y-108658339D01*
X142641659Y-108658341D01*
X142692356Y-108794266D01*
X142779292Y-108910401D01*
X142779297Y-108910406D01*
X142895432Y-108997342D01*
X143031357Y-109048040D01*
X143091444Y-109054500D01*
X143531508Y-109054499D01*
X143589699Y-109073406D01*
X143601511Y-109083495D01*
X143660463Y-109142446D01*
X143660471Y-109142453D01*
X143707495Y-109189476D01*
X143707502Y-109189483D01*
X143804331Y-109268948D01*
X143932573Y-109374194D01*
X144174668Y-109535957D01*
X144431453Y-109673212D01*
X144700455Y-109784636D01*
X144700457Y-109784636D01*
X144700463Y-109784639D01*
X144979078Y-109869156D01*
X144979082Y-109869156D01*
X144979083Y-109869157D01*
X145264654Y-109925961D01*
X145296849Y-109929132D01*
X145554409Y-109954500D01*
X145554417Y-109954500D01*
X153473541Y-109954500D01*
X153473640Y-109954491D01*
X153586851Y-109954488D01*
X153972764Y-109921611D01*
X154354494Y-109856094D01*
X154729284Y-109758410D01*
X155094429Y-109629265D01*
X155447294Y-109469589D01*
X155785331Y-109280537D01*
X156076513Y-109083495D01*
X156106088Y-109063482D01*
X156106089Y-109063481D01*
X156106101Y-109063473D01*
X156407286Y-108819963D01*
X156686714Y-108551765D01*
X156942368Y-108260816D01*
X157172401Y-107949216D01*
X157178104Y-107939935D01*
X157375145Y-107619227D01*
X157375149Y-107619220D01*
X157375153Y-107619214D01*
X157549161Y-107273192D01*
X157591209Y-107168221D01*
X157591232Y-107168175D01*
X157594028Y-107161192D01*
X157594030Y-107161191D01*
X158445228Y-105036002D01*
X159546846Y-105036002D01*
X159546846Y-105036006D01*
X159557868Y-105136655D01*
X159594268Y-105203004D01*
X159594271Y-105203010D01*
X160267931Y-106005845D01*
X160783516Y-106620294D01*
X160842544Y-106667671D01*
X160842545Y-106667671D01*
X160842548Y-106667673D01*
X160939742Y-106696001D01*
X160939742Y-106696000D01*
X160939746Y-106696002D01*
X161040391Y-106684980D01*
X161051669Y-106678793D01*
X161106747Y-106648576D01*
X161106748Y-106648576D01*
X161285898Y-106498251D01*
X162524032Y-105459332D01*
X162571409Y-105400304D01*
X162571410Y-105400300D01*
X162571411Y-105400299D01*
X162599739Y-105303107D01*
X162599739Y-105303105D01*
X162599740Y-105303102D01*
X162588718Y-105202457D01*
X162588717Y-105202455D01*
X162588717Y-105202454D01*
X162552314Y-105136100D01*
X162552314Y-105136099D01*
X161873023Y-104326554D01*
X161363070Y-103718816D01*
X161304042Y-103671439D01*
X161304041Y-103671438D01*
X161304037Y-103671436D01*
X161206843Y-103643108D01*
X161206840Y-103643108D01*
X161156517Y-103648619D01*
X161106192Y-103654130D01*
X161039838Y-103690533D01*
X161039837Y-103690533D01*
X159622554Y-104879778D01*
X159622550Y-104879782D01*
X159575178Y-104938804D01*
X159575174Y-104938810D01*
X159546846Y-105036002D01*
X158445228Y-105036002D01*
X159045671Y-103536874D01*
X161859600Y-103536874D01*
X161879342Y-103749922D01*
X161937895Y-103955714D01*
X162033265Y-104147244D01*
X162162205Y-104317988D01*
X162320324Y-104462132D01*
X162502236Y-104574767D01*
X162701749Y-104652059D01*
X162912066Y-104691374D01*
X163126026Y-104691374D01*
X163336343Y-104652059D01*
X163535856Y-104574767D01*
X163717768Y-104462132D01*
X163875887Y-104317988D01*
X164004827Y-104147244D01*
X164100197Y-103955714D01*
X164158750Y-103749922D01*
X164178492Y-103536874D01*
X164158750Y-103323826D01*
X164100197Y-103118034D01*
X164004827Y-102926504D01*
X163875887Y-102755760D01*
X163717768Y-102611616D01*
X163535856Y-102498981D01*
X163336343Y-102421689D01*
X163336342Y-102421688D01*
X163336340Y-102421688D01*
X163126026Y-102382374D01*
X162912066Y-102382374D01*
X162701751Y-102421688D01*
X162671468Y-102433420D01*
X162502236Y-102498981D01*
X162386629Y-102570562D01*
X162320321Y-102611618D01*
X162162206Y-102755759D01*
X162033266Y-102926502D01*
X162033261Y-102926511D01*
X161962331Y-103068959D01*
X161937895Y-103118034D01*
X161879342Y-103323826D01*
X161859600Y-103536874D01*
X159045671Y-103536874D01*
X161204334Y-98147329D01*
X165751142Y-98147329D01*
X165751142Y-98147331D01*
X165766431Y-98209807D01*
X165775209Y-98245677D01*
X165835076Y-98327327D01*
X165899783Y-98366592D01*
X167638340Y-98999373D01*
X167638345Y-98999373D01*
X167638346Y-98999374D01*
X167713145Y-99010889D01*
X167713147Y-99010889D01*
X167713147Y-99010888D01*
X167713148Y-99010889D01*
X167811493Y-98986823D01*
X167893143Y-98926956D01*
X167932408Y-98862249D01*
X168565189Y-97123692D01*
X168576705Y-97048884D01*
X168552639Y-96950539D01*
X168492772Y-96868889D01*
X168492771Y-96868888D01*
X168428065Y-96829624D01*
X168211981Y-96750976D01*
X166689508Y-96196843D01*
X166689505Y-96196842D01*
X166689501Y-96196841D01*
X166614702Y-96185326D01*
X166614700Y-96185326D01*
X166516354Y-96209393D01*
X166434704Y-96269260D01*
X166395440Y-96333966D01*
X166091196Y-97169872D01*
X165772150Y-98046449D01*
X165762657Y-98072530D01*
X165751142Y-98147329D01*
X161204334Y-98147329D01*
X161977610Y-96216688D01*
X162016797Y-96169701D01*
X162069512Y-96154499D01*
X162098249Y-96154499D01*
X162098254Y-96154499D01*
X162158342Y-96148040D01*
X162294267Y-96097342D01*
X162410404Y-96010404D01*
X162497342Y-95894267D01*
X162548040Y-95758342D01*
X162554500Y-95698255D01*
X162554499Y-94701746D01*
X162548040Y-94641658D01*
X162497342Y-94505733D01*
X162445714Y-94436765D01*
X162410406Y-94389598D01*
X162410401Y-94389593D01*
X162381672Y-94368087D01*
X162346418Y-94318079D01*
X162342000Y-94288833D01*
X162342000Y-94011165D01*
X162360907Y-93952974D01*
X162381674Y-93931910D01*
X162388109Y-93927093D01*
X162410404Y-93910404D01*
X162497342Y-93794267D01*
X162548040Y-93658342D01*
X162554500Y-93598255D01*
X162554499Y-92601746D01*
X162548040Y-92541658D01*
X162497342Y-92405733D01*
X162453517Y-92347189D01*
X162410406Y-92289598D01*
X162410401Y-92289593D01*
X162381672Y-92268087D01*
X162346418Y-92218079D01*
X162342000Y-92188833D01*
X162342000Y-91911165D01*
X162360907Y-91852974D01*
X162381674Y-91831910D01*
X162383113Y-91830833D01*
X162410404Y-91810404D01*
X162497342Y-91694267D01*
X162548040Y-91558342D01*
X162554500Y-91498255D01*
X162554499Y-90501748D01*
X162845500Y-90501748D01*
X162845500Y-91498248D01*
X162845501Y-91498254D01*
X162851959Y-91558339D01*
X162851959Y-91558340D01*
X162851960Y-91558342D01*
X162856059Y-91569331D01*
X162902657Y-91694266D01*
X162989593Y-91810401D01*
X162989598Y-91810406D01*
X163069431Y-91870167D01*
X163105733Y-91897342D01*
X163241658Y-91948040D01*
X163274469Y-91951567D01*
X163330305Y-91976586D01*
X163360772Y-92029646D01*
X163354233Y-92090481D01*
X163313184Y-92135853D01*
X163274468Y-92148433D01*
X163241660Y-92151959D01*
X163241658Y-92151960D01*
X163105733Y-92202657D01*
X162989598Y-92289593D01*
X162989593Y-92289598D01*
X162902657Y-92405733D01*
X162851960Y-92541657D01*
X162851959Y-92541658D01*
X162847075Y-92587093D01*
X162845799Y-92598969D01*
X162845500Y-92601748D01*
X162845500Y-93598248D01*
X162845501Y-93598254D01*
X162851959Y-93658339D01*
X162851959Y-93658340D01*
X162851960Y-93658342D01*
X162859192Y-93677731D01*
X162902657Y-93794266D01*
X162989593Y-93910401D01*
X162989598Y-93910406D01*
X163073744Y-93973396D01*
X163105733Y-93997342D01*
X163241658Y-94048040D01*
X163274469Y-94051567D01*
X163330305Y-94076586D01*
X163360772Y-94129646D01*
X163354233Y-94190481D01*
X163313184Y-94235853D01*
X163274468Y-94248433D01*
X163241660Y-94251959D01*
X163241658Y-94251960D01*
X163105733Y-94302657D01*
X162989598Y-94389593D01*
X162989593Y-94389598D01*
X162902657Y-94505733D01*
X162851960Y-94641657D01*
X162851959Y-94641658D01*
X162845500Y-94701748D01*
X162845500Y-95698248D01*
X162845501Y-95698254D01*
X162851959Y-95758339D01*
X162851959Y-95758340D01*
X162851960Y-95758342D01*
X162865098Y-95793565D01*
X162902657Y-95894266D01*
X162989593Y-96010401D01*
X162989598Y-96010406D01*
X163086736Y-96083121D01*
X163105733Y-96097342D01*
X163241658Y-96148040D01*
X163301745Y-96154500D01*
X163923254Y-96154499D01*
X163983342Y-96148040D01*
X164119267Y-96097342D01*
X164235404Y-96010404D01*
X164322342Y-95894267D01*
X164358515Y-95797285D01*
X164364891Y-95780191D01*
X164402942Y-95732276D01*
X164457649Y-95715788D01*
X166932860Y-95715788D01*
X166991051Y-95734695D01*
X167021481Y-95770660D01*
X167046875Y-95821658D01*
X167175815Y-95992402D01*
X167333934Y-96136546D01*
X167515846Y-96249181D01*
X167715359Y-96326473D01*
X167925676Y-96365788D01*
X168139636Y-96365788D01*
X168349953Y-96326473D01*
X168549466Y-96249181D01*
X168731378Y-96136546D01*
X168889497Y-95992402D01*
X169018437Y-95821658D01*
X169113807Y-95630128D01*
X169172360Y-95424336D01*
X169192102Y-95211288D01*
X169172360Y-94998240D01*
X169113807Y-94792448D01*
X169018437Y-94600918D01*
X168889497Y-94430174D01*
X168731378Y-94286030D01*
X168549466Y-94173395D01*
X168349953Y-94096103D01*
X168349952Y-94096102D01*
X168349950Y-94096102D01*
X168139636Y-94056788D01*
X167925676Y-94056788D01*
X167715361Y-94096102D01*
X167642018Y-94124515D01*
X167515846Y-94173395D01*
X167356020Y-94272355D01*
X167333931Y-94286032D01*
X167208036Y-94400801D01*
X167175815Y-94430174D01*
X167170838Y-94436765D01*
X167046876Y-94600916D01*
X167046871Y-94600925D01*
X167021481Y-94651916D01*
X166978618Y-94695579D01*
X166932860Y-94706788D01*
X164466069Y-94706788D01*
X164407878Y-94687881D01*
X164373311Y-94642385D01*
X164373039Y-94641657D01*
X164322342Y-94505733D01*
X164270714Y-94436765D01*
X164241739Y-94398058D01*
X164222003Y-94340143D01*
X164240078Y-94281688D01*
X164289060Y-94245022D01*
X164332076Y-94240353D01*
X164396601Y-94247623D01*
X164499996Y-94259274D01*
X164500000Y-94259274D01*
X164500004Y-94259274D01*
X164668948Y-94240238D01*
X164668950Y-94240237D01*
X164668954Y-94240237D01*
X164829437Y-94184082D01*
X164973400Y-94093624D01*
X165093624Y-93973400D01*
X165184082Y-93829437D01*
X165240237Y-93668954D01*
X165242880Y-93645500D01*
X165259274Y-93500004D01*
X165259274Y-93499995D01*
X165240238Y-93331051D01*
X165240235Y-93331039D01*
X165203439Y-93225883D01*
X165184082Y-93170563D01*
X165167599Y-93144331D01*
X165093626Y-93026603D01*
X165093625Y-93026602D01*
X165093624Y-93026600D01*
X164973400Y-92906376D01*
X164973397Y-92906374D01*
X164973396Y-92906373D01*
X164829438Y-92815918D01*
X164668960Y-92759764D01*
X164668948Y-92759761D01*
X164500004Y-92740726D01*
X164500003Y-92740726D01*
X164500001Y-92740726D01*
X164500000Y-92740726D01*
X164489582Y-92741899D01*
X164429641Y-92729626D01*
X164388361Y-92684464D01*
X164379499Y-92643522D01*
X164379499Y-92601751D01*
X164379499Y-92601748D01*
X164379499Y-92601746D01*
X164373040Y-92541658D01*
X164322342Y-92405733D01*
X164278517Y-92347189D01*
X164235406Y-92289598D01*
X164235401Y-92289593D01*
X164119266Y-92202657D01*
X163983342Y-92151960D01*
X163983341Y-92151959D01*
X163950529Y-92148432D01*
X163894693Y-92123412D01*
X163864227Y-92070351D01*
X163870767Y-92009516D01*
X163911817Y-91964145D01*
X163950529Y-91951567D01*
X163983342Y-91948040D01*
X164119267Y-91897342D01*
X164235404Y-91810404D01*
X164322342Y-91694267D01*
X164351452Y-91616219D01*
X164389502Y-91568306D01*
X164448449Y-91551908D01*
X164453891Y-91552292D01*
X164673912Y-91573962D01*
X164680313Y-91574804D01*
X165200584Y-91660701D01*
X165206889Y-91661956D01*
X165720419Y-91781693D01*
X165726643Y-91783361D01*
X166231225Y-91936425D01*
X166237329Y-91938497D01*
X166730821Y-92124233D01*
X166736806Y-92126713D01*
X167217083Y-92344324D01*
X167222893Y-92347189D01*
X167687896Y-92595738D01*
X167693480Y-92598961D01*
X168042374Y-92815918D01*
X168141255Y-92877406D01*
X168146641Y-92881005D01*
X168575223Y-93188121D01*
X168580363Y-93192065D01*
X168987946Y-93526560D01*
X168992801Y-93530817D01*
X169358194Y-93873044D01*
X169378750Y-93892297D01*
X169381078Y-93894550D01*
X171211730Y-95725202D01*
X171239507Y-95779719D01*
X171240726Y-95795206D01*
X171240726Y-95800004D01*
X171259761Y-95968948D01*
X171259764Y-95968960D01*
X171315918Y-96129437D01*
X171315918Y-96129438D01*
X171406373Y-96273396D01*
X171406376Y-96273400D01*
X171526600Y-96393624D01*
X171526602Y-96393625D01*
X171526603Y-96393626D01*
X171653764Y-96473527D01*
X171670563Y-96484082D01*
X171726886Y-96503790D01*
X171831039Y-96540235D01*
X171831043Y-96540236D01*
X171831046Y-96540237D01*
X171831047Y-96540237D01*
X171831051Y-96540238D01*
X171999996Y-96559274D01*
X172000000Y-96559274D01*
X172000004Y-96559274D01*
X172168948Y-96540238D01*
X172168950Y-96540237D01*
X172168954Y-96540237D01*
X172329437Y-96484082D01*
X172473400Y-96393624D01*
X172593624Y-96273400D01*
X172684082Y-96129437D01*
X172739740Y-95970375D01*
X172740235Y-95968960D01*
X172740238Y-95968948D01*
X172759274Y-95800004D01*
X172759274Y-95799995D01*
X172740238Y-95631051D01*
X172740235Y-95631039D01*
X172711878Y-95550000D01*
X172684082Y-95470563D01*
X172681386Y-95466273D01*
X172593626Y-95326603D01*
X172593625Y-95326602D01*
X172593624Y-95326600D01*
X172473400Y-95206376D01*
X172473397Y-95206374D01*
X172473396Y-95206373D01*
X172329438Y-95115918D01*
X172168960Y-95059764D01*
X172168948Y-95059761D01*
X172000004Y-95040726D01*
X171995204Y-95040726D01*
X171937013Y-95021819D01*
X171925200Y-95011730D01*
X170122478Y-93209008D01*
X170122473Y-93208999D01*
X170007409Y-93093936D01*
X169897647Y-92984174D01*
X169483044Y-92616868D01*
X169047020Y-92275265D01*
X169047001Y-92275251D01*
X169046993Y-92275246D01*
X168591190Y-91960627D01*
X168591145Y-91960599D01*
X168117174Y-91674074D01*
X168117159Y-91674065D01*
X168117145Y-91674057D01*
X167896663Y-91558339D01*
X167626710Y-91416656D01*
X167626700Y-91416651D01*
X167626688Y-91416645D01*
X167222147Y-91234576D01*
X167121597Y-91189322D01*
X167121594Y-91189321D01*
X167121583Y-91189316D01*
X166715323Y-91035242D01*
X166603682Y-90992902D01*
X166603675Y-90992900D01*
X166603673Y-90992899D01*
X166166650Y-90856717D01*
X166074857Y-90828113D01*
X166074854Y-90828112D01*
X166074850Y-90828111D01*
X165940397Y-90794971D01*
X165537056Y-90695557D01*
X165537011Y-90695548D01*
X164992212Y-90595709D01*
X164471055Y-90532430D01*
X164459721Y-90531053D01*
X164404234Y-90505271D01*
X164374499Y-90451797D01*
X164373224Y-90443370D01*
X164373040Y-90441658D01*
X164322342Y-90305733D01*
X164279154Y-90248040D01*
X164235406Y-90189598D01*
X164235401Y-90189593D01*
X164119266Y-90102657D01*
X163983342Y-90051960D01*
X163983341Y-90051959D01*
X163942790Y-90047600D01*
X163923255Y-90045500D01*
X163923251Y-90045500D01*
X163301751Y-90045500D01*
X163301745Y-90045501D01*
X163241660Y-90051959D01*
X163241658Y-90051960D01*
X163105733Y-90102657D01*
X162989598Y-90189593D01*
X162989593Y-90189598D01*
X162902657Y-90305733D01*
X162851960Y-90441657D01*
X162851959Y-90441658D01*
X162845500Y-90501748D01*
X162554499Y-90501748D01*
X162554499Y-90501746D01*
X162548040Y-90441658D01*
X162527579Y-90386804D01*
X162524218Y-90328504D01*
X163933886Y-84612589D01*
X163966176Y-84560621D01*
X163995405Y-84543540D01*
X164119267Y-84497342D01*
X164235404Y-84410404D01*
X164322342Y-84294267D01*
X164339269Y-84248884D01*
X166573295Y-84248884D01*
X166573295Y-84248885D01*
X166584808Y-84323689D01*
X166584809Y-84323692D01*
X167217593Y-86062248D01*
X167231001Y-86084345D01*
X167252823Y-86120309D01*
X167256857Y-86126956D01*
X167338507Y-86186823D01*
X167436852Y-86210889D01*
X167511660Y-86199375D01*
X169250216Y-85566591D01*
X169314924Y-85527327D01*
X169374791Y-85445677D01*
X169398857Y-85347332D01*
X169387343Y-85272524D01*
X168754559Y-83533968D01*
X168715295Y-83469260D01*
X168633645Y-83409393D01*
X168535300Y-83385327D01*
X168535299Y-83385327D01*
X168535298Y-83385327D01*
X168460494Y-83396840D01*
X168460491Y-83396841D01*
X167554480Y-83726603D01*
X166721936Y-84029625D01*
X166721934Y-84029625D01*
X166721934Y-84029626D01*
X166657228Y-84068888D01*
X166597361Y-84150538D01*
X166573295Y-84248884D01*
X164339269Y-84248884D01*
X164373040Y-84158342D01*
X164379500Y-84098255D01*
X164379499Y-83101746D01*
X164373040Y-83041658D01*
X164322342Y-82905733D01*
X164311748Y-82891581D01*
X164235406Y-82789598D01*
X164235401Y-82789593D01*
X164206672Y-82768087D01*
X164171418Y-82718079D01*
X164167000Y-82688833D01*
X164167000Y-82411288D01*
X165957898Y-82411288D01*
X165977640Y-82624336D01*
X166034138Y-82822906D01*
X166036194Y-82830130D01*
X166069632Y-82897284D01*
X166131563Y-83021658D01*
X166260503Y-83192402D01*
X166418622Y-83336546D01*
X166600534Y-83449181D01*
X166800047Y-83526473D01*
X167010364Y-83565788D01*
X167224324Y-83565788D01*
X167434641Y-83526473D01*
X167634154Y-83449181D01*
X167816066Y-83336546D01*
X167974185Y-83192402D01*
X168103125Y-83021658D01*
X168198495Y-82830128D01*
X168257048Y-82624336D01*
X168276790Y-82411288D01*
X168257048Y-82198240D01*
X168198495Y-81992448D01*
X168103125Y-81800918D01*
X167974185Y-81630174D01*
X167816066Y-81486030D01*
X167634154Y-81373395D01*
X167434641Y-81296103D01*
X167434640Y-81296102D01*
X167434638Y-81296102D01*
X167224324Y-81256788D01*
X167010364Y-81256788D01*
X166800049Y-81296102D01*
X166737110Y-81320485D01*
X166600534Y-81373395D01*
X166418622Y-81486030D01*
X166418619Y-81486032D01*
X166289337Y-81603888D01*
X166260503Y-81630174D01*
X166242134Y-81654499D01*
X166131564Y-81800916D01*
X166131559Y-81800925D01*
X166041478Y-81981834D01*
X166036193Y-81992448D01*
X165977640Y-82198240D01*
X165957898Y-82411288D01*
X164167000Y-82411288D01*
X164167000Y-82411165D01*
X164185907Y-82352974D01*
X164206674Y-82331910D01*
X164235404Y-82310404D01*
X164322342Y-82194267D01*
X164373040Y-82058342D01*
X164379500Y-81998255D01*
X164379499Y-81001746D01*
X164373040Y-80941658D01*
X164322342Y-80805733D01*
X164276877Y-80744998D01*
X164235406Y-80689598D01*
X164235401Y-80689593D01*
X164119266Y-80602657D01*
X163983342Y-80551960D01*
X163983341Y-80551959D01*
X163950529Y-80548432D01*
X163894693Y-80523412D01*
X163864227Y-80470351D01*
X163870767Y-80409516D01*
X163911817Y-80364145D01*
X163950529Y-80351567D01*
X163983342Y-80348040D01*
X164119267Y-80297342D01*
X164235404Y-80210404D01*
X164322342Y-80094267D01*
X164373040Y-79958342D01*
X164379500Y-79898255D01*
X164379499Y-78901746D01*
X164373040Y-78841658D01*
X164322342Y-78705733D01*
X164282847Y-78652973D01*
X164235406Y-78589598D01*
X164235400Y-78589592D01*
X164220143Y-78578171D01*
X164184889Y-78528162D01*
X164184340Y-78471510D01*
X164188362Y-78457549D01*
X164238035Y-78285131D01*
X164241695Y-78274672D01*
X164331180Y-78058636D01*
X164335995Y-78048641D01*
X164336868Y-78047062D01*
X164449099Y-77843994D01*
X164454996Y-77834609D01*
X164590314Y-77643896D01*
X164597219Y-77635238D01*
X164754926Y-77458762D01*
X164758714Y-77454755D01*
X164803700Y-77409770D01*
X164803702Y-77409765D01*
X164808418Y-77405050D01*
X164808545Y-77404903D01*
X164827576Y-77385874D01*
X164949570Y-77226889D01*
X165049771Y-77053342D01*
X165093810Y-76947027D01*
X165126461Y-76868206D01*
X165126461Y-76868205D01*
X165126463Y-76868201D01*
X165178334Y-76674634D01*
X165204496Y-76475952D01*
X165204496Y-76450147D01*
X165204500Y-76450116D01*
X165204500Y-76374597D01*
X165204500Y-76362445D01*
X165204502Y-76309335D01*
X165204500Y-76309330D01*
X165204501Y-76303283D01*
X165204500Y-76303249D01*
X165204500Y-74141517D01*
X165204494Y-74141423D01*
X165204494Y-74043111D01*
X165181032Y-73774933D01*
X165174672Y-73702233D01*
X165115252Y-73365242D01*
X165026688Y-73034712D01*
X164909653Y-72713159D01*
X164765038Y-72403030D01*
X164593944Y-72106685D01*
X164564340Y-72064407D01*
X164469647Y-71929171D01*
X164451758Y-71870659D01*
X164452366Y-71861300D01*
X164459274Y-71800002D01*
X164459274Y-71799995D01*
X164440238Y-71631051D01*
X164440235Y-71631039D01*
X164417283Y-71565447D01*
X164384082Y-71470563D01*
X164293624Y-71326600D01*
X164173400Y-71206376D01*
X164173397Y-71206374D01*
X164173396Y-71206373D01*
X164029438Y-71115918D01*
X163868960Y-71059764D01*
X163868948Y-71059761D01*
X163700004Y-71040726D01*
X163699996Y-71040726D01*
X163531051Y-71059761D01*
X163531039Y-71059764D01*
X163370562Y-71115918D01*
X163370561Y-71115918D01*
X163226603Y-71206373D01*
X163106373Y-71326603D01*
X163015918Y-71470561D01*
X163015918Y-71470562D01*
X162959764Y-71631039D01*
X162959761Y-71631051D01*
X162940726Y-71799995D01*
X162940726Y-71800004D01*
X162959761Y-71968948D01*
X162959764Y-71968960D01*
X163015918Y-72129437D01*
X163015918Y-72129438D01*
X163059627Y-72199000D01*
X163106376Y-72273400D01*
X163226600Y-72393624D01*
X163226602Y-72393625D01*
X163226603Y-72393626D01*
X163241569Y-72403030D01*
X163370563Y-72484082D01*
X163416057Y-72500001D01*
X163531039Y-72540235D01*
X163531043Y-72540236D01*
X163531046Y-72540237D01*
X163531047Y-72540237D01*
X163531051Y-72540238D01*
X163631739Y-72551583D01*
X163687447Y-72576886D01*
X163700170Y-72590983D01*
X163702226Y-72593755D01*
X163707625Y-72601836D01*
X163721522Y-72625022D01*
X163793734Y-72745501D01*
X163849421Y-72838408D01*
X163853998Y-72846971D01*
X163896146Y-72936084D01*
X163971929Y-73096316D01*
X163975647Y-73105292D01*
X164068568Y-73364989D01*
X164071388Y-73374286D01*
X164138403Y-73641831D01*
X164140299Y-73651360D01*
X164180770Y-73924201D01*
X164181722Y-73933869D01*
X164184635Y-73993157D01*
X164194386Y-74191658D01*
X164195381Y-74211901D01*
X164195500Y-74216759D01*
X164195500Y-75822843D01*
X164176593Y-75881034D01*
X164127093Y-75916998D01*
X164065907Y-75916998D01*
X164032864Y-75898681D01*
X163010166Y-75040537D01*
X163010163Y-75040535D01*
X162943808Y-75004130D01*
X162943807Y-75004129D01*
X162893482Y-74998618D01*
X162843160Y-74993107D01*
X162843159Y-74993107D01*
X162843158Y-74993107D01*
X162843154Y-74993107D01*
X162745961Y-75021436D01*
X162745957Y-75021438D01*
X162686930Y-75068813D01*
X162686924Y-75068818D01*
X161497690Y-76486094D01*
X161490295Y-76499574D01*
X161445728Y-76541496D01*
X161385032Y-76549216D01*
X161331390Y-76519785D01*
X161305291Y-76464445D01*
X161304500Y-76451954D01*
X161304500Y-76086823D01*
X161323407Y-76028632D01*
X161367734Y-75994510D01*
X161547764Y-75924766D01*
X161729676Y-75812131D01*
X161887795Y-75667987D01*
X162016735Y-75497243D01*
X162112105Y-75305713D01*
X162170658Y-75099921D01*
X162190400Y-74886873D01*
X162170658Y-74673825D01*
X162112105Y-74468033D01*
X162016735Y-74276503D01*
X161887795Y-74105759D01*
X161729676Y-73961615D01*
X161547764Y-73848980D01*
X161348251Y-73771688D01*
X161348250Y-73771687D01*
X161348248Y-73771687D01*
X161137934Y-73732373D01*
X160923974Y-73732373D01*
X160713659Y-73771687D01*
X160677217Y-73785805D01*
X160514144Y-73848980D01*
X160332232Y-73961615D01*
X160332229Y-73961617D01*
X160174114Y-74105758D01*
X160045174Y-74276501D01*
X160045169Y-74276510D01*
X159956292Y-74455001D01*
X159949803Y-74468033D01*
X159891250Y-74673825D01*
X159871508Y-74886873D01*
X159891250Y-75099921D01*
X159949803Y-75305713D01*
X160045173Y-75497243D01*
X160157509Y-75646000D01*
X160174118Y-75667993D01*
X160263195Y-75749196D01*
X160293461Y-75802371D01*
X160295500Y-75822358D01*
X160295500Y-79572995D01*
X160295503Y-79573040D01*
X160295503Y-79644870D01*
X160304811Y-79739375D01*
X160323902Y-79933210D01*
X160380428Y-80217389D01*
X160464532Y-80494644D01*
X160568417Y-80745447D01*
X160575412Y-80762333D01*
X160575416Y-80762341D01*
X160575421Y-80762351D01*
X160711993Y-81017860D01*
X160711995Y-81017864D01*
X160872961Y-81258767D01*
X160913183Y-81307777D01*
X160998028Y-81411162D01*
X161020328Y-81468138D01*
X161020500Y-81473966D01*
X161020500Y-81873131D01*
X161001593Y-81931322D01*
X160952093Y-81967286D01*
X160890907Y-81967286D01*
X160851297Y-81942935D01*
X160823428Y-81914907D01*
X160512299Y-81602000D01*
X160387899Y-81476889D01*
X160360277Y-81422293D01*
X160359927Y-81405561D01*
X160359274Y-81405561D01*
X160359274Y-81399996D01*
X160340238Y-81231051D01*
X160340235Y-81231039D01*
X160311877Y-81149998D01*
X160284082Y-81070563D01*
X160250966Y-81017860D01*
X160193626Y-80926603D01*
X160193625Y-80926602D01*
X160193624Y-80926600D01*
X160073400Y-80806376D01*
X160073397Y-80806374D01*
X160073396Y-80806373D01*
X159929438Y-80715918D01*
X159768960Y-80659764D01*
X159768948Y-80659761D01*
X159600004Y-80640726D01*
X159599996Y-80640726D01*
X159431051Y-80659761D01*
X159431039Y-80659764D01*
X159270562Y-80715918D01*
X159270561Y-80715918D01*
X159126603Y-80806373D01*
X159006373Y-80926603D01*
X158915918Y-81070561D01*
X158915918Y-81070562D01*
X158859764Y-81231039D01*
X158859761Y-81231051D01*
X158840726Y-81399995D01*
X158840726Y-81400000D01*
X158859761Y-81568948D01*
X158859764Y-81568960D01*
X158915918Y-81729437D01*
X158915918Y-81729438D01*
X159006373Y-81873396D01*
X159006376Y-81873400D01*
X159126600Y-81993624D01*
X159126602Y-81993625D01*
X159126603Y-81993626D01*
X159258583Y-82076555D01*
X159270563Y-82084082D01*
X159316072Y-82100006D01*
X159431039Y-82140235D01*
X159431043Y-82140236D01*
X159431046Y-82140237D01*
X159431047Y-82140237D01*
X159431051Y-82140238D01*
X159599996Y-82159274D01*
X159602339Y-82159274D01*
X159603582Y-82159678D01*
X159605525Y-82159897D01*
X159605480Y-82160294D01*
X159660530Y-82178181D01*
X159672542Y-82188470D01*
X159778621Y-82295155D01*
X160975096Y-83498467D01*
X160991703Y-83515168D01*
X161019325Y-83569764D01*
X161020500Y-83584972D01*
X161020500Y-84098248D01*
X161020501Y-84098254D01*
X161026959Y-84158339D01*
X161026959Y-84158340D01*
X161026960Y-84158342D01*
X161043489Y-84202657D01*
X161077657Y-84294266D01*
X161164593Y-84410401D01*
X161164598Y-84410406D01*
X161266952Y-84487026D01*
X161280733Y-84497342D01*
X161416658Y-84548040D01*
X161476745Y-84554500D01*
X162098254Y-84554499D01*
X162158342Y-84548040D01*
X162294267Y-84497342D01*
X162410404Y-84410404D01*
X162497342Y-84294267D01*
X162548040Y-84158342D01*
X162554500Y-84098255D01*
X162554499Y-83101746D01*
X162548040Y-83041658D01*
X162497342Y-82905733D01*
X162486748Y-82891581D01*
X162410406Y-82789598D01*
X162410401Y-82789593D01*
X162294266Y-82702657D01*
X162158342Y-82651960D01*
X162158341Y-82651959D01*
X162125529Y-82648432D01*
X162069693Y-82623412D01*
X162039227Y-82570351D01*
X162045767Y-82509516D01*
X162086817Y-82464145D01*
X162125529Y-82451567D01*
X162158342Y-82448040D01*
X162294267Y-82397342D01*
X162410404Y-82310404D01*
X162497342Y-82194267D01*
X162548040Y-82058342D01*
X162554500Y-81998255D01*
X162554499Y-81278409D01*
X162573406Y-81220219D01*
X162622906Y-81184255D01*
X162684092Y-81184255D01*
X162728224Y-81213470D01*
X162821225Y-81320485D01*
X162845124Y-81376810D01*
X162845500Y-81385425D01*
X162845500Y-81998248D01*
X162845501Y-81998254D01*
X162851959Y-82058339D01*
X162851959Y-82058340D01*
X162851960Y-82058342D01*
X162861560Y-82084081D01*
X162902657Y-82194266D01*
X162940654Y-82245025D01*
X162989596Y-82310404D01*
X162989599Y-82310406D01*
X162989601Y-82310408D01*
X163018326Y-82331910D01*
X163053581Y-82381917D01*
X163058000Y-82411165D01*
X163058000Y-82688833D01*
X163039093Y-82747024D01*
X163018328Y-82768087D01*
X162989598Y-82789593D01*
X162989593Y-82789598D01*
X162902657Y-82905733D01*
X162851960Y-83041657D01*
X162851959Y-83041658D01*
X162845500Y-83101748D01*
X162845500Y-84098248D01*
X162845501Y-84098254D01*
X162851959Y-84158339D01*
X162851960Y-84158344D01*
X162872418Y-84213193D01*
X162875780Y-84271494D01*
X161466112Y-89987408D01*
X161433821Y-90039379D01*
X161404589Y-90056461D01*
X161280733Y-90102657D01*
X161164598Y-90189593D01*
X161164593Y-90189598D01*
X161077657Y-90305733D01*
X161026960Y-90441657D01*
X161026959Y-90441658D01*
X161020500Y-90501748D01*
X161020500Y-91498248D01*
X161020501Y-91498254D01*
X161026959Y-91558339D01*
X161026959Y-91558340D01*
X161026960Y-91558342D01*
X161031059Y-91569331D01*
X161077657Y-91694266D01*
X161085318Y-91704500D01*
X161164596Y-91810404D01*
X161164599Y-91810406D01*
X161164601Y-91810408D01*
X161168450Y-91813289D01*
X161191880Y-91830828D01*
X161193326Y-91831910D01*
X161228581Y-91881917D01*
X161233000Y-91911165D01*
X161233000Y-92188833D01*
X161214093Y-92247024D01*
X161193328Y-92268087D01*
X161164598Y-92289593D01*
X161164593Y-92289598D01*
X161077657Y-92405733D01*
X161026960Y-92541657D01*
X161026959Y-92541658D01*
X161022075Y-92587093D01*
X161020799Y-92598969D01*
X161020500Y-92601748D01*
X161020500Y-93598248D01*
X161020501Y-93598254D01*
X161026959Y-93658339D01*
X161026959Y-93658340D01*
X161026960Y-93658342D01*
X161034192Y-93677731D01*
X161077657Y-93794266D01*
X161077658Y-93794267D01*
X161164596Y-93910404D01*
X161164599Y-93910406D01*
X161164601Y-93910408D01*
X161193326Y-93931910D01*
X161228581Y-93981917D01*
X161233000Y-94011165D01*
X161233000Y-94288833D01*
X161214093Y-94347024D01*
X161193328Y-94368087D01*
X161164598Y-94389593D01*
X161164593Y-94389598D01*
X161077657Y-94505733D01*
X161026960Y-94641657D01*
X161026959Y-94641658D01*
X161020500Y-94701748D01*
X161020500Y-95604539D01*
X161013402Y-95641349D01*
X156613196Y-106627359D01*
X156613195Y-106627359D01*
X156613196Y-106627360D01*
X156592596Y-106678793D01*
X156590659Y-106683302D01*
X156451208Y-106986939D01*
X156446675Y-106995643D01*
X156279091Y-107281865D01*
X156273720Y-107290076D01*
X156078628Y-107558301D01*
X156072470Y-107565940D01*
X155851797Y-107813521D01*
X155844914Y-107820514D01*
X155600794Y-108045055D01*
X155593251Y-108051331D01*
X155328115Y-108250594D01*
X155319989Y-108256093D01*
X155036436Y-108428128D01*
X155027805Y-108432796D01*
X154806594Y-108538615D01*
X154745942Y-108546670D01*
X154692138Y-108517535D01*
X154665735Y-108462340D01*
X154676817Y-108402167D01*
X154708872Y-108366991D01*
X154800648Y-108305667D01*
X154800650Y-108305666D01*
X154905666Y-108200650D01*
X154905669Y-108200646D01*
X154988182Y-108077160D01*
X154988188Y-108077148D01*
X155045023Y-107939935D01*
X155045023Y-107939933D01*
X155073999Y-107794264D01*
X155074000Y-107794260D01*
X155074000Y-107424001D01*
X155073999Y-107424000D01*
X154620000Y-107424000D01*
X154620000Y-106916000D01*
X155073999Y-106916000D01*
X155074000Y-106915999D01*
X155074000Y-106545739D01*
X155073999Y-106545735D01*
X155045023Y-106400066D01*
X155045023Y-106400064D01*
X154988188Y-106262851D01*
X154988182Y-106262839D01*
X154905669Y-106139353D01*
X154905666Y-106139349D01*
X154800650Y-106034333D01*
X154800646Y-106034330D01*
X154677152Y-105951813D01*
X154574000Y-105909085D01*
X154574000Y-106459939D01*
X154560060Y-106435795D01*
X154504205Y-106379940D01*
X154435796Y-106340444D01*
X154359496Y-106320000D01*
X154280504Y-106320000D01*
X154204204Y-106340444D01*
X154135795Y-106379940D01*
X154079940Y-106435795D01*
X154066000Y-106459939D01*
X154066000Y-105909086D01*
X154065999Y-105909085D01*
X153962848Y-105951813D01*
X153958000Y-105955053D01*
X153899111Y-105971661D01*
X153841708Y-105950483D01*
X153807716Y-105899609D01*
X153803999Y-105872737D01*
X153803999Y-105504987D01*
X153803998Y-105504977D01*
X153789263Y-105430895D01*
X153789262Y-105430892D01*
X153733125Y-105346878D01*
X153733121Y-105346874D01*
X153649106Y-105290736D01*
X153575019Y-105276000D01*
X153504001Y-105276000D01*
X153504000Y-105276001D01*
X153504000Y-106410000D01*
X153485093Y-106468191D01*
X153435593Y-106504155D01*
X153405000Y-106509000D01*
X153103500Y-106509000D01*
X153045309Y-106490093D01*
X153009345Y-106440593D01*
X153004500Y-106410000D01*
X153004499Y-105504937D01*
X153004498Y-105504927D01*
X152997902Y-105471764D01*
X152996000Y-105452452D01*
X152996000Y-105275999D01*
X152924987Y-105276000D01*
X152924976Y-105276001D01*
X152870594Y-105286818D01*
X152831968Y-105286818D01*
X152775069Y-105275500D01*
X152201005Y-105275500D01*
X152142814Y-105256593D01*
X152106850Y-105207093D01*
X152106850Y-105145907D01*
X152108439Y-105141393D01*
X152110237Y-105136653D01*
X152140149Y-105057782D01*
X152158152Y-104909516D01*
X152159307Y-104900001D01*
X152159307Y-104899998D01*
X152140149Y-104742219D01*
X152140146Y-104742210D01*
X152083789Y-104593609D01*
X152083786Y-104593604D01*
X152070783Y-104574766D01*
X152013558Y-104491861D01*
X151996063Y-104433232D01*
X152006825Y-104390678D01*
X152039496Y-104326558D01*
X152039498Y-104326555D01*
X152054500Y-104231834D01*
X152054500Y-103868166D01*
X152039498Y-103773445D01*
X152039495Y-103773440D01*
X152039495Y-103773438D01*
X151981328Y-103659281D01*
X151981327Y-103659279D01*
X151981326Y-103659277D01*
X151966696Y-103644647D01*
X151938921Y-103590133D01*
X151948492Y-103529701D01*
X151966700Y-103504641D01*
X151980916Y-103490425D01*
X151980918Y-103490422D01*
X152039013Y-103376405D01*
X152039016Y-103376396D01*
X152042563Y-103354000D01*
X150982500Y-103354000D01*
X150924309Y-103335093D01*
X150888345Y-103285593D01*
X150883500Y-103255000D01*
X150883500Y-102945000D01*
X150902407Y-102886809D01*
X150951907Y-102850845D01*
X150982500Y-102846000D01*
X152042563Y-102846000D01*
X152039016Y-102823603D01*
X152039015Y-102823600D01*
X151980916Y-102709575D01*
X151966698Y-102695357D01*
X151938921Y-102640840D01*
X151948492Y-102580408D01*
X151966697Y-102555351D01*
X151981326Y-102540723D01*
X152009021Y-102486367D01*
X152052285Y-102443104D01*
X152082473Y-102433420D01*
X152312725Y-102398716D01*
X152773603Y-102293524D01*
X153225332Y-102154184D01*
X153665385Y-101981476D01*
X154091301Y-101776366D01*
X154500698Y-101540000D01*
X154891287Y-101273701D01*
X155260883Y-100978958D01*
X155260886Y-100978955D01*
X155260890Y-100978952D01*
X155457099Y-100796897D01*
X155607420Y-100657420D01*
X155828083Y-100419601D01*
X155928952Y-100310890D01*
X155928958Y-100310883D01*
X156223701Y-99941287D01*
X156490000Y-99550698D01*
X156726366Y-99141301D01*
X156931476Y-98715385D01*
X157104184Y-98275332D01*
X157243524Y-97823603D01*
X157348716Y-97362725D01*
X157419173Y-96895274D01*
X157419174Y-96895265D01*
X157454500Y-96423872D01*
X157454500Y-80693178D01*
X157434802Y-80556183D01*
X157422759Y-80472422D01*
X157359924Y-80258424D01*
X157267273Y-80055546D01*
X157146692Y-79867919D01*
X157109560Y-79825067D01*
X157000645Y-79699372D01*
X157000643Y-79699370D01*
X157000637Y-79699363D01*
X156978035Y-79679778D01*
X156832092Y-79553317D01*
X156832088Y-79553314D01*
X156832081Y-79553308D01*
X156644454Y-79432727D01*
X156641616Y-79431431D01*
X156599073Y-79412002D01*
X156553995Y-79370630D01*
X156543101Y-79341259D01*
X156535034Y-79300700D01*
X156535033Y-79300697D01*
X156504499Y-79255001D01*
X156487890Y-79196114D01*
X156504496Y-79145002D01*
X156535034Y-79099301D01*
X156549800Y-79025067D01*
X156549799Y-78574934D01*
X156535034Y-78500699D01*
X156535033Y-78500697D01*
X156504499Y-78455001D01*
X156487890Y-78396114D01*
X156504496Y-78345002D01*
X156535034Y-78299301D01*
X156549800Y-78225067D01*
X156549799Y-77953499D01*
X156568706Y-77895310D01*
X156618206Y-77859346D01*
X156648799Y-77854500D01*
X156679468Y-77854500D01*
X156679471Y-77854500D01*
X156833793Y-77816463D01*
X156974529Y-77742599D01*
X157093498Y-77637201D01*
X157183787Y-77506395D01*
X157185826Y-77501020D01*
X157220432Y-77409770D01*
X157240149Y-77357782D01*
X157259307Y-77200000D01*
X157240149Y-77042218D01*
X157214632Y-76974936D01*
X157183789Y-76893609D01*
X157183787Y-76893606D01*
X157183787Y-76893605D01*
X157093498Y-76762799D01*
X157093497Y-76762798D01*
X157093497Y-76762797D01*
X156974535Y-76657406D01*
X156974533Y-76657404D01*
X156974529Y-76657401D01*
X156974525Y-76657399D01*
X156974524Y-76657398D01*
X156833791Y-76583536D01*
X156679473Y-76545500D01*
X156679471Y-76545500D01*
X156648800Y-76545500D01*
X156590609Y-76526593D01*
X156554645Y-76477093D01*
X156549800Y-76446500D01*
X156549799Y-76174936D01*
X156549798Y-76174932D01*
X156535034Y-76100699D01*
X156535033Y-76100697D01*
X156504499Y-76055001D01*
X156487890Y-75996114D01*
X156504496Y-75945002D01*
X156535034Y-75899301D01*
X156549800Y-75825067D01*
X156549799Y-75374934D01*
X156535034Y-75300699D01*
X156535033Y-75300697D01*
X156504499Y-75255001D01*
X156487890Y-75196114D01*
X156504496Y-75145002D01*
X156535034Y-75099301D01*
X156549800Y-75025067D01*
X156549799Y-74574934D01*
X156535034Y-74500699D01*
X156535033Y-74500697D01*
X156504499Y-74455001D01*
X156487890Y-74396114D01*
X156504496Y-74345002D01*
X156535034Y-74299301D01*
X156549800Y-74225067D01*
X156549799Y-73774934D01*
X156535034Y-73700699D01*
X156535033Y-73700697D01*
X156504499Y-73655001D01*
X156487890Y-73596114D01*
X156504496Y-73545002D01*
X156535034Y-73499301D01*
X156549800Y-73425067D01*
X156549799Y-72974934D01*
X156535034Y-72900699D01*
X156532562Y-72897000D01*
X156504199Y-72854552D01*
X156487590Y-72795664D01*
X156504199Y-72744547D01*
X156534563Y-72699104D01*
X156549299Y-72625019D01*
X156549300Y-72625016D01*
X156549300Y-72504001D01*
X156549299Y-72504000D01*
X155790300Y-72504000D01*
X155732109Y-72485093D01*
X155696145Y-72435593D01*
X155691300Y-72405000D01*
X155691300Y-72095000D01*
X155710207Y-72036809D01*
X155759707Y-72000845D01*
X155790300Y-71996000D01*
X156549298Y-71996000D01*
X156549299Y-71995999D01*
X156549299Y-71874987D01*
X156549298Y-71874977D01*
X156534563Y-71800895D01*
X156534562Y-71800893D01*
X156520269Y-71779501D01*
X156503661Y-71720613D01*
X156524839Y-71663209D01*
X156575713Y-71629217D01*
X156602585Y-71625500D01*
X161073839Y-71625500D01*
X161083703Y-71627019D01*
X161091694Y-71626321D01*
X161091695Y-71626322D01*
X161096816Y-71625874D01*
X161105425Y-71625500D01*
X161111124Y-71625500D01*
X161112376Y-71624915D01*
X161112736Y-71624485D01*
X161112740Y-71624485D01*
X161116061Y-71620527D01*
X161121859Y-71614202D01*
X161125500Y-71610562D01*
X161125500Y-71610559D01*
X161131169Y-71604891D01*
X161136345Y-71596364D01*
X163286178Y-69035348D01*
X163338071Y-69002936D01*
X163362002Y-69000000D01*
X163472125Y-69000000D01*
X163526760Y-69016441D01*
X164188098Y-69454093D01*
X164191329Y-69456325D01*
X164991776Y-70032950D01*
X164994915Y-70035306D01*
X165771913Y-70643264D01*
X165774930Y-70645723D01*
X166527180Y-71283997D01*
X166530112Y-71286586D01*
X167165573Y-71870659D01*
X167256474Y-71954209D01*
X167259282Y-71956895D01*
X167958604Y-72652810D01*
X167961312Y-72655615D01*
X168632451Y-73378683D01*
X168635065Y-73381613D01*
X169277016Y-74130750D01*
X169279511Y-74133782D01*
X169891220Y-74907757D01*
X169893594Y-74910886D01*
X170474150Y-75708548D01*
X170476397Y-75711769D01*
X171024824Y-76531772D01*
X171026943Y-76535079D01*
X171542449Y-77376240D01*
X171544434Y-77379628D01*
X172026164Y-78240556D01*
X172028013Y-78244020D01*
X172475218Y-79123372D01*
X172476929Y-79126908D01*
X172888915Y-80023327D01*
X172890483Y-80026927D01*
X173137143Y-80625066D01*
X173232148Y-80855451D01*
X173266576Y-80938936D01*
X173267998Y-80942589D01*
X173289050Y-80999999D01*
X173607637Y-81868834D01*
X173608916Y-81872547D01*
X173711464Y-82190720D01*
X173911458Y-82811238D01*
X173911553Y-82811530D01*
X173912681Y-82815287D01*
X173931881Y-82884091D01*
X174177835Y-83765524D01*
X174178815Y-83769326D01*
X174406073Y-84729325D01*
X174406901Y-84733163D01*
X174587497Y-85658339D01*
X174595909Y-85701430D01*
X174596584Y-85705294D01*
X174597923Y-85713970D01*
X174747039Y-86680295D01*
X174747561Y-86684187D01*
X174859230Y-87664392D01*
X174859597Y-87668302D01*
X174932304Y-88652174D01*
X174932515Y-88656095D01*
X174966143Y-89642043D01*
X174966199Y-89645970D01*
X174960697Y-90632475D01*
X174960598Y-90636401D01*
X174915972Y-91621964D01*
X174915716Y-91625883D01*
X174832044Y-92608835D01*
X174831634Y-92612741D01*
X174709034Y-93591669D01*
X174708468Y-93595555D01*
X174547152Y-94568772D01*
X174546434Y-94572633D01*
X174346632Y-95538766D01*
X174345760Y-95542595D01*
X174107809Y-96499998D01*
X174106786Y-96503790D01*
X173831051Y-97451001D01*
X173829879Y-97454749D01*
X173516787Y-98390299D01*
X173515467Y-98393997D01*
X173165531Y-99316359D01*
X173164066Y-99320003D01*
X172777804Y-100227808D01*
X172776195Y-100231390D01*
X172354244Y-101123136D01*
X172352494Y-101126652D01*
X171895509Y-102000961D01*
X171893621Y-102004405D01*
X171402317Y-102859908D01*
X171400294Y-102863274D01*
X170875447Y-103698618D01*
X170873292Y-103701901D01*
X170315735Y-104515760D01*
X170313452Y-104518955D01*
X169724049Y-105310071D01*
X169721641Y-105313173D01*
X169101315Y-106080304D01*
X169098785Y-106083308D01*
X168448556Y-106825195D01*
X168445910Y-106828097D01*
X167766725Y-107543657D01*
X167763965Y-107546451D01*
X167056960Y-108234488D01*
X167054092Y-108237170D01*
X166320366Y-108896615D01*
X166317394Y-108899182D01*
X165558069Y-109529027D01*
X165554997Y-109531474D01*
X164771301Y-110130699D01*
X164768135Y-110133022D01*
X163961289Y-110700695D01*
X163958033Y-110702891D01*
X163129280Y-111238136D01*
X163125939Y-111240200D01*
X162276660Y-111742125D01*
X162273240Y-111744056D01*
X161404681Y-112211926D01*
X161401187Y-112213719D01*
X160514796Y-112646753D01*
X160511234Y-112648407D01*
X159608340Y-113045958D01*
X159604716Y-113047469D01*
X158686759Y-113408900D01*
X158683077Y-113410266D01*
X157751514Y-113735004D01*
X157747780Y-113736223D01*
X156804084Y-114023756D01*
X156800306Y-114024826D01*
X156143597Y-114196772D01*
X156118521Y-114200000D01*
X143881474Y-114200000D01*
X143856399Y-114196772D01*
X143668808Y-114147655D01*
X143199693Y-114024827D01*
X143195915Y-114023757D01*
X142252219Y-113736224D01*
X142248485Y-113735005D01*
X141316922Y-113410267D01*
X141313240Y-113408901D01*
X140395283Y-113047470D01*
X140391659Y-113045959D01*
X139488774Y-112648413D01*
X139485221Y-112646763D01*
X138598791Y-112213709D01*
X138595316Y-112211926D01*
X138215186Y-112007160D01*
X137726759Y-111744057D01*
X137723339Y-111742126D01*
X136874059Y-111240201D01*
X136870718Y-111238137D01*
X136464425Y-110975735D01*
X144926000Y-110975735D01*
X144926000Y-111095999D01*
X144926001Y-111096000D01*
X145380000Y-111096000D01*
X145380000Y-111604000D01*
X144926001Y-111604000D01*
X144926000Y-111604001D01*
X144926000Y-111724264D01*
X144954976Y-111869933D01*
X144954976Y-111869935D01*
X145011811Y-112007148D01*
X145011817Y-112007160D01*
X145094330Y-112130646D01*
X145094333Y-112130650D01*
X145199349Y-112235666D01*
X145199353Y-112235669D01*
X145322848Y-112318186D01*
X145425999Y-112360913D01*
X145426000Y-112360912D01*
X145426000Y-111810060D01*
X145439940Y-111834205D01*
X145495795Y-111890060D01*
X145564204Y-111929556D01*
X145640504Y-111950000D01*
X145719496Y-111950000D01*
X145795796Y-111929556D01*
X145864205Y-111890060D01*
X145920060Y-111834205D01*
X145934000Y-111810060D01*
X145934000Y-112360913D01*
X146037151Y-112318186D01*
X146160646Y-112235669D01*
X146160650Y-112235666D01*
X146265666Y-112130650D01*
X146265669Y-112130646D01*
X146348182Y-112007160D01*
X146348188Y-112007148D01*
X146405023Y-111869935D01*
X146405023Y-111869933D01*
X146433999Y-111724264D01*
X146434000Y-111724260D01*
X146434000Y-111604001D01*
X146433999Y-111604000D01*
X145980000Y-111604000D01*
X145980000Y-111096000D01*
X146433999Y-111096000D01*
X146434000Y-111095999D01*
X146434000Y-110975739D01*
X146433999Y-110975735D01*
X153566000Y-110975735D01*
X153566000Y-111095999D01*
X153566001Y-111096000D01*
X154020000Y-111096000D01*
X154020000Y-111604000D01*
X153566001Y-111604000D01*
X153566000Y-111604001D01*
X153566000Y-111724264D01*
X153594976Y-111869933D01*
X153594976Y-111869935D01*
X153651811Y-112007148D01*
X153651817Y-112007160D01*
X153734330Y-112130646D01*
X153734333Y-112130650D01*
X153839349Y-112235666D01*
X153839353Y-112235669D01*
X153962848Y-112318186D01*
X154065999Y-112360913D01*
X154066000Y-112360912D01*
X154066000Y-111810060D01*
X154079940Y-111834205D01*
X154135795Y-111890060D01*
X154204204Y-111929556D01*
X154280504Y-111950000D01*
X154359496Y-111950000D01*
X154435796Y-111929556D01*
X154504205Y-111890060D01*
X154560060Y-111834205D01*
X154574000Y-111810060D01*
X154574000Y-112360913D01*
X154677151Y-112318186D01*
X154800646Y-112235669D01*
X154800650Y-112235666D01*
X154905666Y-112130650D01*
X154905669Y-112130646D01*
X154988182Y-112007160D01*
X154988188Y-112007148D01*
X155045023Y-111869935D01*
X155045023Y-111869933D01*
X155073999Y-111724264D01*
X155074000Y-111724260D01*
X155074000Y-111604001D01*
X155073999Y-111604000D01*
X154620000Y-111604000D01*
X154620000Y-111096000D01*
X155073999Y-111096000D01*
X155074000Y-111095999D01*
X155074000Y-110975739D01*
X155073999Y-110975735D01*
X155045023Y-110830066D01*
X155045023Y-110830064D01*
X154988188Y-110692851D01*
X154988182Y-110692839D01*
X154905669Y-110569353D01*
X154905666Y-110569349D01*
X154800650Y-110464333D01*
X154800646Y-110464330D01*
X154677152Y-110381813D01*
X154574000Y-110339085D01*
X154574000Y-110889939D01*
X154560060Y-110865795D01*
X154504205Y-110809940D01*
X154435796Y-110770444D01*
X154359496Y-110750000D01*
X154280504Y-110750000D01*
X154204204Y-110770444D01*
X154135795Y-110809940D01*
X154079940Y-110865795D01*
X154066000Y-110889939D01*
X154066000Y-110339086D01*
X154065999Y-110339085D01*
X153962847Y-110381813D01*
X153839353Y-110464330D01*
X153839349Y-110464333D01*
X153734333Y-110569349D01*
X153734330Y-110569353D01*
X153651817Y-110692839D01*
X153651811Y-110692851D01*
X153594976Y-110830064D01*
X153594976Y-110830066D01*
X153566000Y-110975735D01*
X146433999Y-110975735D01*
X146405023Y-110830066D01*
X146405023Y-110830064D01*
X146348188Y-110692851D01*
X146348182Y-110692839D01*
X146265669Y-110569353D01*
X146265666Y-110569349D01*
X146160650Y-110464333D01*
X146160646Y-110464330D01*
X146037152Y-110381813D01*
X145934000Y-110339085D01*
X145934000Y-110889939D01*
X145920060Y-110865795D01*
X145864205Y-110809940D01*
X145795796Y-110770444D01*
X145719496Y-110750000D01*
X145640504Y-110750000D01*
X145564204Y-110770444D01*
X145495795Y-110809940D01*
X145439940Y-110865795D01*
X145426000Y-110889939D01*
X145426000Y-110339086D01*
X145425999Y-110339085D01*
X145322847Y-110381813D01*
X145199353Y-110464330D01*
X145199349Y-110464333D01*
X145094333Y-110569349D01*
X145094330Y-110569353D01*
X145011817Y-110692839D01*
X145011811Y-110692851D01*
X144954976Y-110830064D01*
X144954976Y-110830066D01*
X144926000Y-110975735D01*
X136464425Y-110975735D01*
X136041965Y-110702892D01*
X136038709Y-110700696D01*
X135231863Y-110133023D01*
X135228697Y-110130700D01*
X134445002Y-109531475D01*
X134441930Y-109529028D01*
X134362467Y-109463115D01*
X133924699Y-109099995D01*
X136540726Y-109099995D01*
X136540726Y-109100004D01*
X136559761Y-109268948D01*
X136559764Y-109268960D01*
X136615918Y-109429437D01*
X136615918Y-109429438D01*
X136706373Y-109573396D01*
X136706376Y-109573400D01*
X136826600Y-109693624D01*
X136970563Y-109784082D01*
X137034827Y-109806568D01*
X137131039Y-109840235D01*
X137131043Y-109840236D01*
X137131046Y-109840237D01*
X137131047Y-109840237D01*
X137131051Y-109840238D01*
X137299996Y-109859274D01*
X137300000Y-109859274D01*
X137300004Y-109859274D01*
X137468948Y-109840238D01*
X137468950Y-109840237D01*
X137468954Y-109840237D01*
X137629437Y-109784082D01*
X137773400Y-109693624D01*
X137893624Y-109573400D01*
X137941266Y-109497576D01*
X137988233Y-109458365D01*
X138002542Y-109453851D01*
X140797845Y-108800315D01*
X140858811Y-108805478D01*
X140899636Y-108837388D01*
X140954289Y-108910398D01*
X140954297Y-108910406D01*
X141070432Y-108997342D01*
X141206357Y-109048040D01*
X141266444Y-109054500D01*
X141887953Y-109054499D01*
X141948041Y-109048040D01*
X142083966Y-108997342D01*
X142200103Y-108910404D01*
X142287041Y-108794267D01*
X142337739Y-108658342D01*
X142344199Y-108598255D01*
X142344198Y-107601746D01*
X142337739Y-107541658D01*
X142287041Y-107405733D01*
X142283398Y-107400866D01*
X142200105Y-107289598D01*
X142200100Y-107289593D01*
X142083965Y-107202657D01*
X141948041Y-107151960D01*
X141948040Y-107151959D01*
X141915228Y-107148432D01*
X141859392Y-107123412D01*
X141828926Y-107070351D01*
X141835466Y-107009516D01*
X141876516Y-106964145D01*
X141915228Y-106951567D01*
X141948041Y-106948040D01*
X142083966Y-106897342D01*
X142200103Y-106810404D01*
X142287041Y-106694267D01*
X142337739Y-106558342D01*
X142344199Y-106498255D01*
X142344198Y-105501746D01*
X142337739Y-105441658D01*
X142287041Y-105305733D01*
X142264784Y-105276001D01*
X142200105Y-105189598D01*
X142200100Y-105189593D01*
X142083965Y-105102657D01*
X141948041Y-105051960D01*
X141948040Y-105051959D01*
X141915228Y-105048432D01*
X141859392Y-105023412D01*
X141828926Y-104970351D01*
X141835466Y-104909516D01*
X141876516Y-104864145D01*
X141915228Y-104851567D01*
X141948041Y-104848040D01*
X142083966Y-104797342D01*
X142200103Y-104710404D01*
X142287041Y-104594267D01*
X142337739Y-104458342D01*
X142344199Y-104398255D01*
X142344198Y-103401746D01*
X142337739Y-103341658D01*
X142302295Y-103246633D01*
X142299675Y-103185507D01*
X142301599Y-103179371D01*
X142340237Y-103068954D01*
X142357146Y-102918886D01*
X142359274Y-102900004D01*
X142359274Y-102899995D01*
X142340238Y-102731051D01*
X142340235Y-102731039D01*
X142308673Y-102640840D01*
X142284082Y-102570563D01*
X142265332Y-102540723D01*
X142193626Y-102426603D01*
X142193625Y-102426602D01*
X142193624Y-102426600D01*
X142073400Y-102306376D01*
X142073397Y-102306374D01*
X142073396Y-102306373D01*
X141929438Y-102215918D01*
X141768960Y-102159764D01*
X141768948Y-102159761D01*
X141600004Y-102140726D01*
X141599996Y-102140726D01*
X141431051Y-102159761D01*
X141431039Y-102159764D01*
X141270562Y-102215918D01*
X141270561Y-102215918D01*
X141126603Y-102306373D01*
X141006373Y-102426603D01*
X140915918Y-102570561D01*
X140915918Y-102570562D01*
X140859764Y-102731039D01*
X140859761Y-102731051D01*
X140840726Y-102899995D01*
X140840726Y-102900004D01*
X140859761Y-103068948D01*
X140859764Y-103068959D01*
X140877373Y-103119284D01*
X140878745Y-103180454D01*
X140869563Y-103198871D01*
X140870750Y-103199519D01*
X140867355Y-103205735D01*
X140816659Y-103341657D01*
X140816658Y-103341658D01*
X140810199Y-103401748D01*
X140810199Y-104398248D01*
X140810200Y-104398254D01*
X140816658Y-104458339D01*
X140816658Y-104458340D01*
X140816659Y-104458342D01*
X140821213Y-104470552D01*
X140867356Y-104594266D01*
X140954292Y-104710401D01*
X140954297Y-104710406D01*
X140996783Y-104742210D01*
X141070432Y-104797342D01*
X141206357Y-104848040D01*
X141239168Y-104851567D01*
X141295004Y-104876586D01*
X141325471Y-104929646D01*
X141318932Y-104990481D01*
X141277883Y-105035853D01*
X141239167Y-105048433D01*
X141206359Y-105051959D01*
X141206357Y-105051960D01*
X141070432Y-105102657D01*
X140954298Y-105189593D01*
X140954294Y-105189597D01*
X140934384Y-105216194D01*
X140884375Y-105251446D01*
X140827030Y-105251792D01*
X140118512Y-105042055D01*
X140068082Y-105007408D01*
X140051392Y-104974220D01*
X140000197Y-104794287D01*
X139904827Y-104602757D01*
X139775887Y-104432013D01*
X139617768Y-104287869D01*
X139435856Y-104175234D01*
X139236343Y-104097942D01*
X139236342Y-104097941D01*
X139236340Y-104097941D01*
X139026026Y-104058627D01*
X138812066Y-104058627D01*
X138601751Y-104097941D01*
X138528408Y-104126354D01*
X138402236Y-104175234D01*
X138310824Y-104231834D01*
X138220321Y-104287871D01*
X138099240Y-104398251D01*
X138062205Y-104432013D01*
X138033102Y-104470552D01*
X137933266Y-104602755D01*
X137933261Y-104602764D01*
X137837896Y-104794284D01*
X137837895Y-104794287D01*
X137779342Y-105000079D01*
X137759600Y-105213127D01*
X137779342Y-105426175D01*
X137837895Y-105631967D01*
X137933265Y-105823497D01*
X138062205Y-105994241D01*
X138220324Y-106138385D01*
X138402236Y-106251020D01*
X138601749Y-106328312D01*
X138812066Y-106367627D01*
X139026026Y-106367627D01*
X139236343Y-106328312D01*
X139435856Y-106251020D01*
X139617768Y-106138385D01*
X139735728Y-106030850D01*
X139791468Y-106005621D01*
X139830523Y-106009084D01*
X140739300Y-106278103D01*
X140789730Y-106312750D01*
X140810165Y-106370422D01*
X140810199Y-106373030D01*
X140810199Y-106498248D01*
X140810200Y-106498254D01*
X140816658Y-106558339D01*
X140816659Y-106558341D01*
X140867356Y-106694266D01*
X140954292Y-106810401D01*
X140954297Y-106810406D01*
X140977930Y-106828097D01*
X141070432Y-106897342D01*
X141206357Y-106948040D01*
X141239168Y-106951567D01*
X141295004Y-106976586D01*
X141325471Y-107029646D01*
X141318932Y-107090481D01*
X141277883Y-107135853D01*
X141239167Y-107148433D01*
X141206359Y-107151959D01*
X141206357Y-107151960D01*
X141070432Y-107202657D01*
X140954297Y-107289593D01*
X140954292Y-107289598D01*
X140867356Y-107405733D01*
X140816659Y-107541657D01*
X140816658Y-107541658D01*
X140810199Y-107601748D01*
X140810199Y-107682694D01*
X140791292Y-107740885D01*
X140741792Y-107776849D01*
X140733737Y-107779094D01*
X137772845Y-108471344D01*
X137711878Y-108466181D01*
X137697636Y-108458770D01*
X137629436Y-108415917D01*
X137468960Y-108359764D01*
X137468948Y-108359761D01*
X137300004Y-108340726D01*
X137299996Y-108340726D01*
X137131051Y-108359761D01*
X137131039Y-108359764D01*
X136970562Y-108415918D01*
X136970561Y-108415918D01*
X136826603Y-108506373D01*
X136706373Y-108626603D01*
X136615918Y-108770561D01*
X136615918Y-108770562D01*
X136559764Y-108931039D01*
X136559761Y-108931051D01*
X136540726Y-109099995D01*
X133924699Y-109099995D01*
X133682601Y-108899179D01*
X133679633Y-108896616D01*
X133622755Y-108845496D01*
X132945897Y-108237161D01*
X132943038Y-108234488D01*
X132891685Y-108184513D01*
X132236033Y-107546451D01*
X132233273Y-107543657D01*
X132231375Y-107541657D01*
X131554080Y-106828088D01*
X131551442Y-106825195D01*
X131538478Y-106810404D01*
X130901205Y-106083300D01*
X130898683Y-106080305D01*
X130861506Y-106034330D01*
X130536145Y-105631969D01*
X130278358Y-105313174D01*
X130275950Y-105310072D01*
X129686546Y-104518956D01*
X129684263Y-104515761D01*
X129218057Y-103835244D01*
X129134991Y-103713994D01*
X135446846Y-103713994D01*
X135446846Y-103713998D01*
X135475175Y-103811191D01*
X135475177Y-103811195D01*
X135522552Y-103870223D01*
X135522554Y-103870225D01*
X135522557Y-103870228D01*
X136939833Y-105059462D01*
X136939837Y-105059465D01*
X136986207Y-105084905D01*
X137006191Y-105095869D01*
X137006192Y-105095870D01*
X137006193Y-105095870D01*
X137006195Y-105095871D01*
X137106840Y-105106893D01*
X137106843Y-105106892D01*
X137106845Y-105106892D01*
X137178170Y-105086102D01*
X137204042Y-105078562D01*
X137263070Y-105031187D01*
X138452312Y-103613902D01*
X138488718Y-103547544D01*
X138499740Y-103446899D01*
X138499739Y-103446895D01*
X138499739Y-103446893D01*
X138471410Y-103349700D01*
X138471409Y-103349699D01*
X138471409Y-103349697D01*
X138424034Y-103290669D01*
X138424030Y-103290666D01*
X138424028Y-103290663D01*
X137006752Y-102101429D01*
X137006749Y-102101427D01*
X136940394Y-102065022D01*
X136940393Y-102065021D01*
X136890068Y-102059510D01*
X136839746Y-102053999D01*
X136839745Y-102053999D01*
X136839744Y-102053999D01*
X136839740Y-102053999D01*
X136742547Y-102082328D01*
X136742543Y-102082330D01*
X136683516Y-102129705D01*
X136683510Y-102129710D01*
X135494276Y-103546986D01*
X135494274Y-103546989D01*
X135457869Y-103613344D01*
X135457868Y-103613345D01*
X135446846Y-103713994D01*
X129134991Y-103713994D01*
X129126701Y-103701893D01*
X129124552Y-103698619D01*
X129124551Y-103698618D01*
X128599701Y-102863269D01*
X128597681Y-102859908D01*
X128576831Y-102823603D01*
X128106376Y-102004405D01*
X128104489Y-102000962D01*
X127647504Y-101126653D01*
X127645754Y-101123137D01*
X127577532Y-100978958D01*
X127223798Y-100231380D01*
X127222194Y-100227809D01*
X127218357Y-100218792D01*
X127148240Y-100054001D01*
X137746001Y-100054001D01*
X137746001Y-100398210D01*
X137752452Y-100458231D01*
X137803102Y-100594027D01*
X137889950Y-100710044D01*
X137889955Y-100710049D01*
X138005972Y-100796897D01*
X138141767Y-100847547D01*
X138141765Y-100847547D01*
X138201792Y-100853999D01*
X139245998Y-100853999D01*
X139246000Y-100853998D01*
X139246000Y-100054001D01*
X139754000Y-100054001D01*
X139754000Y-100853998D01*
X139754001Y-100853999D01*
X140798205Y-100853999D01*
X140798210Y-100853998D01*
X140858231Y-100847547D01*
X140994027Y-100796897D01*
X141110044Y-100710049D01*
X141110049Y-100710044D01*
X141196897Y-100594027D01*
X141247547Y-100458233D01*
X141253999Y-100398207D01*
X141254000Y-100398207D01*
X141254000Y-100054001D01*
X141253999Y-100054000D01*
X139754001Y-100054000D01*
X139754000Y-100054001D01*
X139246000Y-100054001D01*
X139245999Y-100054000D01*
X137746002Y-100054000D01*
X137746001Y-100054001D01*
X127148240Y-100054001D01*
X126835928Y-99319994D01*
X126834467Y-99316359D01*
X126832787Y-99311932D01*
X126791001Y-99201792D01*
X137746000Y-99201792D01*
X137746000Y-99545999D01*
X137746001Y-99546000D01*
X139245999Y-99546000D01*
X139246000Y-99545999D01*
X139246000Y-98746001D01*
X139245999Y-98746000D01*
X138201795Y-98746000D01*
X138201789Y-98746001D01*
X138141768Y-98752452D01*
X138005972Y-98803102D01*
X137889955Y-98889950D01*
X137889950Y-98889955D01*
X137803102Y-99005972D01*
X137752452Y-99141766D01*
X137746000Y-99201792D01*
X126791001Y-99201792D01*
X126530048Y-98513970D01*
X126484531Y-98393997D01*
X126483211Y-98390299D01*
X126422804Y-98209798D01*
X126214951Y-97588712D01*
X131673210Y-97588712D01*
X131692952Y-97801760D01*
X131751505Y-98007552D01*
X131846875Y-98199082D01*
X131975815Y-98369826D01*
X132133934Y-98513970D01*
X132315846Y-98626605D01*
X132515359Y-98703897D01*
X132725676Y-98743212D01*
X132939636Y-98743212D01*
X133149953Y-98703897D01*
X133349466Y-98626605D01*
X133531378Y-98513970D01*
X133689497Y-98369826D01*
X133818437Y-98199082D01*
X133913807Y-98007552D01*
X133972360Y-97801760D01*
X133992102Y-97588712D01*
X133972360Y-97375664D01*
X133913807Y-97169872D01*
X133818437Y-96978342D01*
X133689497Y-96807598D01*
X133531378Y-96663454D01*
X133349466Y-96550819D01*
X133149953Y-96473527D01*
X133149952Y-96473526D01*
X133149950Y-96473526D01*
X132939636Y-96434212D01*
X132725676Y-96434212D01*
X132515361Y-96473526D01*
X132488116Y-96484081D01*
X132315846Y-96550819D01*
X132133934Y-96663454D01*
X132133931Y-96663456D01*
X131975816Y-96807597D01*
X131846876Y-96978340D01*
X131846871Y-96978349D01*
X131751506Y-97169869D01*
X131751505Y-97169872D01*
X131692952Y-97375664D01*
X131673210Y-97588712D01*
X126214951Y-97588712D01*
X126170107Y-97454712D01*
X126168958Y-97451038D01*
X125893202Y-96503755D01*
X125892198Y-96500035D01*
X125654235Y-95542585D01*
X125653366Y-95538766D01*
X125649863Y-95521829D01*
X125490177Y-94749672D01*
X125470116Y-94652668D01*
X130551143Y-94652668D01*
X130551143Y-94652669D01*
X130562656Y-94727473D01*
X130562657Y-94727476D01*
X131195441Y-96466032D01*
X131234705Y-96530740D01*
X131316355Y-96590607D01*
X131414700Y-96614673D01*
X131489508Y-96603159D01*
X133228064Y-95970375D01*
X133292772Y-95931111D01*
X133352639Y-95849461D01*
X133376705Y-95751116D01*
X133365191Y-95676308D01*
X132732407Y-93937752D01*
X132693143Y-93873044D01*
X132611493Y-93813177D01*
X132513148Y-93789111D01*
X132513147Y-93789111D01*
X132513146Y-93789111D01*
X132438342Y-93800624D01*
X132438339Y-93800625D01*
X131504117Y-94140655D01*
X130699784Y-94433409D01*
X130699782Y-94433409D01*
X130699782Y-94433410D01*
X130635076Y-94472672D01*
X130575209Y-94554322D01*
X130551143Y-94652668D01*
X125470116Y-94652668D01*
X125453564Y-94572633D01*
X125452846Y-94568772D01*
X125408746Y-94302715D01*
X125291527Y-93595535D01*
X125290964Y-93591669D01*
X125289113Y-93576888D01*
X125168359Y-92612693D01*
X125167959Y-92608883D01*
X125084279Y-91625843D01*
X125084028Y-91622003D01*
X125039398Y-90636354D01*
X125039302Y-90632522D01*
X125033799Y-89645922D01*
X125033854Y-89642092D01*
X125067484Y-88656069D01*
X125067692Y-88652199D01*
X125140402Y-87668290D01*
X125140768Y-87664392D01*
X125252439Y-86684166D01*
X125252959Y-86680295D01*
X125258921Y-86641660D01*
X125403422Y-85705245D01*
X125404079Y-85701485D01*
X125593106Y-84733113D01*
X125593914Y-84729374D01*
X125821187Y-83769308D01*
X125822163Y-83765524D01*
X126049416Y-82951113D01*
X131423294Y-82951113D01*
X131423294Y-82951115D01*
X131445452Y-83041660D01*
X131447361Y-83049461D01*
X131507228Y-83131111D01*
X131571935Y-83170376D01*
X133310492Y-83803157D01*
X133310497Y-83803157D01*
X133310498Y-83803158D01*
X133385297Y-83814673D01*
X133385299Y-83814673D01*
X133385299Y-83814672D01*
X133385300Y-83814673D01*
X133483645Y-83790607D01*
X133565295Y-83730740D01*
X133604560Y-83666033D01*
X134237341Y-81927476D01*
X134242068Y-81896768D01*
X134248857Y-81852670D01*
X134248857Y-81852668D01*
X134236193Y-81800918D01*
X134224791Y-81754323D01*
X134164924Y-81672673D01*
X134164923Y-81672672D01*
X134100217Y-81633408D01*
X134010349Y-81600699D01*
X133058301Y-81254183D01*
X137671000Y-81254183D01*
X137671000Y-81270999D01*
X137671001Y-81271000D01*
X138145999Y-81271000D01*
X138146000Y-81270999D01*
X138146000Y-80821001D01*
X138654000Y-80821001D01*
X138654000Y-81270999D01*
X138654001Y-81271000D01*
X139128999Y-81271000D01*
X139129000Y-81270999D01*
X139129000Y-81254183D01*
X139122867Y-81197139D01*
X139122865Y-81197131D01*
X139074732Y-81068079D01*
X138992190Y-80957817D01*
X138992182Y-80957809D01*
X138881920Y-80875267D01*
X138752868Y-80827134D01*
X138752860Y-80827132D01*
X138695816Y-80821000D01*
X138654001Y-80821000D01*
X138654000Y-80821001D01*
X138146000Y-80821001D01*
X138145999Y-80821000D01*
X138104184Y-80821000D01*
X138047139Y-80827132D01*
X138047131Y-80827134D01*
X137918079Y-80875267D01*
X137807817Y-80957809D01*
X137807809Y-80957817D01*
X137725267Y-81068079D01*
X137677134Y-81197131D01*
X137677132Y-81197139D01*
X137671000Y-81254183D01*
X133058301Y-81254183D01*
X132361660Y-81000627D01*
X132361657Y-81000626D01*
X132361653Y-81000625D01*
X132286854Y-80989110D01*
X132286852Y-80989110D01*
X132188506Y-81013177D01*
X132106856Y-81073044D01*
X132067592Y-81137750D01*
X131651451Y-82281093D01*
X131444669Y-82849225D01*
X131434809Y-82876314D01*
X131423294Y-82951113D01*
X126049416Y-82951113D01*
X126087330Y-82815240D01*
X126088425Y-82811596D01*
X126391091Y-81872519D01*
X126392361Y-81868833D01*
X126398288Y-81852670D01*
X126732016Y-80942545D01*
X126733402Y-80938987D01*
X127060487Y-80145816D01*
X137670999Y-80145816D01*
X137677132Y-80202860D01*
X137677134Y-80202868D01*
X137725267Y-80331920D01*
X137807809Y-80442182D01*
X137807817Y-80442190D01*
X137918079Y-80524732D01*
X138047131Y-80572865D01*
X138047139Y-80572867D01*
X138104184Y-80579000D01*
X138145999Y-80579000D01*
X138146000Y-80578999D01*
X138146000Y-80129001D01*
X138654000Y-80129001D01*
X138654000Y-80578999D01*
X138654001Y-80579000D01*
X138695816Y-80579000D01*
X138752860Y-80572867D01*
X138752868Y-80572865D01*
X138881920Y-80524732D01*
X138992182Y-80442190D01*
X138992190Y-80442182D01*
X139074732Y-80331920D01*
X139122865Y-80202868D01*
X139122867Y-80202860D01*
X139129000Y-80145816D01*
X139129000Y-80129001D01*
X139128999Y-80129000D01*
X138654001Y-80129000D01*
X138654000Y-80129001D01*
X138146000Y-80129001D01*
X138145999Y-80129000D01*
X137671001Y-80129000D01*
X137671000Y-80129001D01*
X137671000Y-80145816D01*
X137670999Y-80145816D01*
X127060487Y-80145816D01*
X127109544Y-80026855D01*
X127111069Y-80023356D01*
X127523074Y-79126901D01*
X127524776Y-79123383D01*
X127524782Y-79123372D01*
X127972009Y-78243973D01*
X127973797Y-78240621D01*
X128078144Y-78054136D01*
X137670500Y-78054136D01*
X137670500Y-78595864D01*
X137672898Y-78618166D01*
X137676639Y-78652967D01*
X137676641Y-78652978D01*
X137724823Y-78782161D01*
X137807452Y-78892539D01*
X137807456Y-78892544D01*
X137807459Y-78892546D01*
X137807460Y-78892547D01*
X137917838Y-78975176D01*
X138004526Y-79007508D01*
X138052441Y-79045558D01*
X138068839Y-79104505D01*
X138047458Y-79161833D01*
X138004527Y-79193024D01*
X137918079Y-79225267D01*
X137807817Y-79307809D01*
X137807809Y-79307817D01*
X137725267Y-79418079D01*
X137677134Y-79547131D01*
X137677132Y-79547139D01*
X137671000Y-79604183D01*
X137671000Y-79620999D01*
X137671001Y-79621000D01*
X139128999Y-79621000D01*
X139129000Y-79620999D01*
X139129000Y-79604186D01*
X139125950Y-79575822D01*
X139138528Y-79515944D01*
X139183899Y-79474894D01*
X139244734Y-79468352D01*
X139262275Y-79473777D01*
X139263783Y-79474402D01*
X139538696Y-79557795D01*
X139615814Y-79573134D01*
X139669197Y-79603030D01*
X139694814Y-79658595D01*
X139695500Y-79670232D01*
X139695500Y-79706836D01*
X139710502Y-79801554D01*
X139710504Y-79801561D01*
X139768671Y-79915718D01*
X139768674Y-79915723D01*
X139859277Y-80006326D01*
X139859279Y-80006327D01*
X139859281Y-80006328D01*
X139973438Y-80064495D01*
X139973440Y-80064495D01*
X139973445Y-80064498D01*
X140037654Y-80074667D01*
X140068163Y-80079500D01*
X140068166Y-80079500D01*
X140431837Y-80079500D01*
X140459387Y-80075136D01*
X140526555Y-80064498D01*
X140640723Y-80006326D01*
X140731326Y-79915723D01*
X140789498Y-79801555D01*
X140804500Y-79706834D01*
X140804500Y-79489622D01*
X140823407Y-79431431D01*
X140833505Y-79419610D01*
X140837481Y-79415635D01*
X140837485Y-79415632D01*
X140866468Y-79386646D01*
X140866469Y-79386647D01*
X140888651Y-79364464D01*
X141426496Y-78826619D01*
X141481013Y-78798842D01*
X141541445Y-78808413D01*
X141584710Y-78851678D01*
X141595500Y-78896623D01*
X141595500Y-79706836D01*
X141610502Y-79801554D01*
X141610504Y-79801561D01*
X141668671Y-79915718D01*
X141668674Y-79915723D01*
X141759277Y-80006326D01*
X141759279Y-80006327D01*
X141759281Y-80006328D01*
X141873438Y-80064495D01*
X141873440Y-80064495D01*
X141873445Y-80064498D01*
X141937654Y-80074667D01*
X141968163Y-80079500D01*
X141968166Y-80079500D01*
X142331837Y-80079500D01*
X142359387Y-80075136D01*
X142426555Y-80064498D01*
X142540723Y-80006326D01*
X142631326Y-79915723D01*
X142689498Y-79801555D01*
X142704500Y-79706834D01*
X142704500Y-78618166D01*
X142689498Y-78523445D01*
X142689495Y-78523440D01*
X142689495Y-78523438D01*
X142631328Y-78409281D01*
X142631327Y-78409279D01*
X142631326Y-78409277D01*
X142540723Y-78318674D01*
X142540720Y-78318672D01*
X142540718Y-78318671D01*
X142426561Y-78260504D01*
X142426556Y-78260502D01*
X142426555Y-78260502D01*
X142402874Y-78256751D01*
X142331837Y-78245500D01*
X142331834Y-78245500D01*
X142246624Y-78245500D01*
X142188433Y-78226593D01*
X142152469Y-78177093D01*
X142152469Y-78115907D01*
X142176620Y-78076496D01*
X142194620Y-78058496D01*
X142249137Y-78030719D01*
X142264624Y-78029500D01*
X142545861Y-78029500D01*
X142545864Y-78029500D01*
X142602973Y-78023360D01*
X142673591Y-77997021D01*
X142732161Y-77975176D01*
X142732161Y-77975175D01*
X142732163Y-77975175D01*
X142767661Y-77948600D01*
X142825574Y-77928863D01*
X142859689Y-77934409D01*
X142876340Y-77940236D01*
X142876343Y-77940236D01*
X142876344Y-77940237D01*
X142876345Y-77940237D01*
X142876349Y-77940238D01*
X143045294Y-77959274D01*
X143045298Y-77959274D01*
X143045302Y-77959274D01*
X143214246Y-77940238D01*
X143214247Y-77940237D01*
X143214252Y-77940237D01*
X143309104Y-77907046D01*
X143370271Y-77905673D01*
X143420566Y-77940517D01*
X143440775Y-77998269D01*
X143440800Y-78000491D01*
X143440800Y-78225063D01*
X143440801Y-78225070D01*
X143455565Y-78299300D01*
X143455566Y-78299302D01*
X143486100Y-78344998D01*
X143502709Y-78403886D01*
X143486101Y-78455001D01*
X143455566Y-78500698D01*
X143440800Y-78574933D01*
X143440800Y-79025063D01*
X143440801Y-79025070D01*
X143455565Y-79099300D01*
X143455566Y-79099302D01*
X143486100Y-79144998D01*
X143502709Y-79203886D01*
X143486101Y-79255001D01*
X143455566Y-79300698D01*
X143440800Y-79374933D01*
X143440800Y-79825063D01*
X143440801Y-79825070D01*
X143455565Y-79899300D01*
X143455566Y-79899302D01*
X143486100Y-79944998D01*
X143502709Y-80003886D01*
X143486101Y-80055001D01*
X143455566Y-80100698D01*
X143440800Y-80174933D01*
X143440800Y-80625063D01*
X143440801Y-80625070D01*
X143455565Y-80699300D01*
X143455566Y-80699302D01*
X143486400Y-80745447D01*
X143503009Y-80804335D01*
X143486401Y-80855450D01*
X143456036Y-80900894D01*
X143441300Y-80974980D01*
X143441300Y-80999999D01*
X143441301Y-81000000D01*
X144749298Y-81000000D01*
X144749299Y-80999999D01*
X144749299Y-80974987D01*
X144749298Y-80974977D01*
X144734563Y-80900895D01*
X144734562Y-80900892D01*
X144704199Y-80855451D01*
X144687590Y-80796563D01*
X144704198Y-80745449D01*
X144735034Y-80699301D01*
X144749800Y-80625067D01*
X144749799Y-80174934D01*
X144735034Y-80100699D01*
X144735033Y-80100697D01*
X144704499Y-80055001D01*
X144687890Y-79996114D01*
X144704496Y-79945002D01*
X144735034Y-79899301D01*
X144749800Y-79825067D01*
X144749799Y-79553499D01*
X144768706Y-79495310D01*
X144818206Y-79459346D01*
X144848799Y-79454500D01*
X144879468Y-79454500D01*
X144879471Y-79454500D01*
X145033793Y-79416463D01*
X145174529Y-79342599D01*
X145293498Y-79237201D01*
X145383787Y-79106395D01*
X145386478Y-79099301D01*
X145433552Y-78975176D01*
X145440149Y-78957782D01*
X145456075Y-78826619D01*
X145459307Y-78800001D01*
X145459307Y-78799998D01*
X145446535Y-78694812D01*
X145440149Y-78642218D01*
X145420191Y-78589593D01*
X145383789Y-78493609D01*
X145383787Y-78493606D01*
X145383787Y-78493605D01*
X145293498Y-78362799D01*
X145293497Y-78362798D01*
X145293497Y-78362797D01*
X145174535Y-78257406D01*
X145174533Y-78257404D01*
X145174529Y-78257401D01*
X145174525Y-78257399D01*
X145174524Y-78257398D01*
X145033791Y-78183536D01*
X144879473Y-78145500D01*
X144879471Y-78145500D01*
X144848800Y-78145500D01*
X144790609Y-78126593D01*
X144754645Y-78077093D01*
X144749800Y-78046500D01*
X144749799Y-77774936D01*
X144749798Y-77774929D01*
X144746323Y-77757460D01*
X144735034Y-77700699D01*
X144704498Y-77655000D01*
X144687890Y-77596114D01*
X144704496Y-77545002D01*
X144735034Y-77499301D01*
X144749800Y-77425067D01*
X144749799Y-76974934D01*
X144735034Y-76900699D01*
X144708272Y-76860648D01*
X144691664Y-76801761D01*
X144712841Y-76744358D01*
X144757890Y-76712203D01*
X144994959Y-76629248D01*
X145232485Y-76514861D01*
X145455710Y-76374597D01*
X145661827Y-76210223D01*
X145755035Y-76117014D01*
X145755036Y-76117014D01*
X145796160Y-76075890D01*
X145796161Y-76075887D01*
X146644898Y-75227150D01*
X146644901Y-75227149D01*
X146684085Y-75187964D01*
X146688085Y-75184183D01*
X146876456Y-75015843D01*
X146885114Y-75008939D01*
X147088875Y-74864363D01*
X147098252Y-74858469D01*
X147316927Y-74737611D01*
X147326908Y-74732805D01*
X147557727Y-74637195D01*
X147568187Y-74633535D01*
X147808263Y-74564369D01*
X147819072Y-74561902D01*
X148065371Y-74520052D01*
X148076394Y-74518810D01*
X148328383Y-74504656D01*
X148333935Y-74504500D01*
X148389533Y-74504500D01*
X152241842Y-74504500D01*
X152295139Y-74504500D01*
X152304842Y-74504976D01*
X152465001Y-74520751D01*
X152484030Y-74524536D01*
X152633366Y-74569836D01*
X152651289Y-74577261D01*
X152788917Y-74650824D01*
X152805044Y-74661600D01*
X152888885Y-74730406D01*
X152925676Y-74760600D01*
X152939399Y-74774323D01*
X153038393Y-74894947D01*
X153049176Y-74911085D01*
X153061319Y-74933804D01*
X153072074Y-74994037D01*
X153055485Y-75036708D01*
X153016211Y-75093607D01*
X153016210Y-75093609D01*
X152959853Y-75242210D01*
X152959850Y-75242219D01*
X152940693Y-75399998D01*
X152940693Y-75400001D01*
X152959850Y-75557780D01*
X152959853Y-75557789D01*
X153016210Y-75706390D01*
X153016212Y-75706393D01*
X153016213Y-75706395D01*
X153098129Y-75825070D01*
X153106502Y-75837201D01*
X153106502Y-75837202D01*
X153225464Y-75942593D01*
X153225471Y-75942599D01*
X153366207Y-76016463D01*
X153520529Y-76054500D01*
X153520532Y-76054500D01*
X153679468Y-76054500D01*
X153679471Y-76054500D01*
X153833793Y-76016463D01*
X153974529Y-75942599D01*
X154076502Y-75852257D01*
X154093497Y-75837202D01*
X154093497Y-75837201D01*
X154093498Y-75837201D01*
X154183787Y-75706395D01*
X154240149Y-75557782D01*
X154259307Y-75400000D01*
X154256696Y-75378500D01*
X154240149Y-75242219D01*
X154240146Y-75242210D01*
X154183789Y-75093609D01*
X154183787Y-75093606D01*
X154183787Y-75093605D01*
X154093498Y-74962799D01*
X154093497Y-74962798D01*
X154093497Y-74962797D01*
X153974529Y-74857400D01*
X153940731Y-74839662D01*
X153897993Y-74795878D01*
X153896685Y-74793128D01*
X153871334Y-74737617D01*
X153799825Y-74581033D01*
X153668008Y-74375922D01*
X153665521Y-74373052D01*
X153508350Y-74191667D01*
X153508348Y-74191665D01*
X153508342Y-74191658D01*
X153508332Y-74191649D01*
X153324089Y-74032001D01*
X153324085Y-74031998D01*
X153324078Y-74031992D01*
X153118967Y-73900175D01*
X152897183Y-73798890D01*
X152897178Y-73798888D01*
X152897177Y-73798888D01*
X152663244Y-73730199D01*
X152663238Y-73730198D01*
X152421913Y-73695500D01*
X152421908Y-73695500D01*
X152353253Y-73695500D01*
X148397509Y-73695500D01*
X148397497Y-73695499D01*
X148372384Y-73695499D01*
X148372350Y-73695488D01*
X148177312Y-73695488D01*
X147870687Y-73725692D01*
X147837101Y-73732373D01*
X147568494Y-73785804D01*
X147568492Y-73785804D01*
X147568490Y-73785805D01*
X147273646Y-73875247D01*
X146989002Y-73993153D01*
X146988984Y-73993162D01*
X146717256Y-74138405D01*
X146461077Y-74309580D01*
X146461071Y-74309585D01*
X146222912Y-74505038D01*
X146222905Y-74505044D01*
X146113975Y-74613975D01*
X146072850Y-74655098D01*
X146072851Y-74655099D01*
X146072849Y-74655101D01*
X145224110Y-75503840D01*
X145224106Y-75503843D01*
X145200604Y-75527346D01*
X145185278Y-75542672D01*
X145180550Y-75547100D01*
X145036582Y-75673359D01*
X145026307Y-75681243D01*
X144903800Y-75763099D01*
X144844912Y-75779707D01*
X144787508Y-75758529D01*
X144753516Y-75707655D01*
X144749799Y-75680787D01*
X144749799Y-75374934D01*
X144735034Y-75300699D01*
X144735033Y-75300697D01*
X144704499Y-75255001D01*
X144687890Y-75196114D01*
X144704496Y-75145002D01*
X144735034Y-75099301D01*
X144749800Y-75025067D01*
X144749799Y-74574934D01*
X144735034Y-74500699D01*
X144735033Y-74500697D01*
X144704199Y-74454552D01*
X144687590Y-74395664D01*
X144704199Y-74344547D01*
X144734563Y-74299104D01*
X144749299Y-74225019D01*
X144749300Y-74225016D01*
X144749300Y-74200001D01*
X144749299Y-74200000D01*
X143441302Y-74200000D01*
X143441301Y-74200001D01*
X143441301Y-74221500D01*
X143422394Y-74279691D01*
X143372894Y-74315655D01*
X143342301Y-74320500D01*
X142905298Y-74320500D01*
X142860352Y-74309709D01*
X142854771Y-74306865D01*
X142743427Y-74250132D01*
X142743428Y-74250132D01*
X142651046Y-74235500D01*
X142308953Y-74235500D01*
X142216573Y-74250132D01*
X142216569Y-74250133D01*
X142105229Y-74306865D01*
X142105226Y-74306867D01*
X142069648Y-74342444D01*
X142015131Y-74370221D01*
X141954699Y-74360648D01*
X141929642Y-74342443D01*
X141894473Y-74307274D01*
X141783267Y-74250612D01*
X141783268Y-74250612D01*
X141774000Y-74249143D01*
X141774000Y-76450854D01*
X141808704Y-76480495D01*
X141806059Y-76483591D01*
X141833169Y-76510648D01*
X141842800Y-76571071D01*
X141815077Y-76625614D01*
X141804333Y-76634933D01*
X141707460Y-76707452D01*
X141707452Y-76707460D01*
X141624824Y-76817837D01*
X141592491Y-76904527D01*
X141554440Y-76952441D01*
X141495493Y-76968839D01*
X141438166Y-76947457D01*
X141406975Y-76904526D01*
X141374733Y-76818080D01*
X141292190Y-76707817D01*
X141292182Y-76707809D01*
X141183877Y-76626732D01*
X141171556Y-76609253D01*
X141127009Y-76604786D01*
X141052871Y-76577134D01*
X141052860Y-76577132D01*
X140995816Y-76571000D01*
X140979001Y-76571000D01*
X140979000Y-76571001D01*
X140979000Y-77455000D01*
X140960093Y-77513191D01*
X140910593Y-77549155D01*
X140880000Y-77554000D01*
X140021001Y-77554000D01*
X140021000Y-77554001D01*
X140021000Y-77595816D01*
X140020999Y-77595816D01*
X140027132Y-77652860D01*
X140027134Y-77652868D01*
X140075267Y-77781920D01*
X140157809Y-77892182D01*
X140157817Y-77892190D01*
X140268079Y-77974732D01*
X140397131Y-78022865D01*
X140397139Y-78022867D01*
X140454184Y-78029000D01*
X140628876Y-78029000D01*
X140687067Y-78047907D01*
X140723031Y-78097407D01*
X140723031Y-78158593D01*
X140698879Y-78198004D01*
X140650170Y-78246712D01*
X140595653Y-78274489D01*
X140535223Y-78264918D01*
X140526559Y-78260503D01*
X140526555Y-78260502D01*
X140502874Y-78256751D01*
X140431837Y-78245500D01*
X140431834Y-78245500D01*
X140068166Y-78245500D01*
X140068163Y-78245500D01*
X139973445Y-78260502D01*
X139973438Y-78260504D01*
X139859281Y-78318671D01*
X139859279Y-78318672D01*
X139768672Y-78409279D01*
X139712232Y-78520047D01*
X139668967Y-78563311D01*
X139608535Y-78572882D01*
X139586138Y-78566565D01*
X139402602Y-78490543D01*
X139392599Y-78485726D01*
X139209479Y-78384519D01*
X139200083Y-78378615D01*
X139171210Y-78358129D01*
X139134694Y-78309034D01*
X139129500Y-78277389D01*
X139129500Y-78054138D01*
X139129500Y-78054136D01*
X139123360Y-77997027D01*
X139115210Y-77975175D01*
X139075176Y-77867838D01*
X138992547Y-77757460D01*
X138992546Y-77757459D01*
X138992544Y-77757456D01*
X138987110Y-77753388D01*
X138882161Y-77674823D01*
X138752978Y-77626641D01*
X138752973Y-77626640D01*
X138752971Y-77626639D01*
X138752967Y-77626639D01*
X138723049Y-77623422D01*
X138695864Y-77620500D01*
X138104136Y-77620500D01*
X138080674Y-77623022D01*
X138047032Y-77626639D01*
X138047021Y-77626641D01*
X137917838Y-77674823D01*
X137807460Y-77757452D01*
X137807452Y-77757460D01*
X137724823Y-77867838D01*
X137676641Y-77997021D01*
X137676639Y-77997032D01*
X137673862Y-78022865D01*
X137670500Y-78054136D01*
X128078144Y-78054136D01*
X128455575Y-77379609D01*
X128457537Y-77376259D01*
X128973066Y-76535060D01*
X128975161Y-76531791D01*
X129021084Y-76463127D01*
X135821508Y-76463127D01*
X135841250Y-76676175D01*
X135895887Y-76868205D01*
X135899804Y-76881969D01*
X135979598Y-77042219D01*
X135995173Y-77073497D01*
X136124113Y-77244241D01*
X136282232Y-77388385D01*
X136464144Y-77501020D01*
X136663657Y-77578312D01*
X136873974Y-77617627D01*
X137087934Y-77617627D01*
X137298251Y-77578312D01*
X137497764Y-77501020D01*
X137679676Y-77388385D01*
X137837795Y-77244241D01*
X137966735Y-77073497D01*
X138001249Y-77004183D01*
X140021000Y-77004183D01*
X140021000Y-77045999D01*
X140021001Y-77046000D01*
X140470999Y-77046000D01*
X140471000Y-77045999D01*
X140471000Y-76571001D01*
X140470999Y-76571000D01*
X140454184Y-76571000D01*
X140397139Y-76577132D01*
X140397131Y-76577134D01*
X140268079Y-76625267D01*
X140157817Y-76707809D01*
X140157809Y-76707817D01*
X140075267Y-76818079D01*
X140027134Y-76947131D01*
X140027132Y-76947139D01*
X140021000Y-77004183D01*
X138001249Y-77004183D01*
X138062105Y-76881967D01*
X138120658Y-76676175D01*
X138140400Y-76463127D01*
X138120658Y-76250079D01*
X138062105Y-76044287D01*
X137966735Y-75852757D01*
X137837795Y-75682013D01*
X137679676Y-75537869D01*
X137497764Y-75425234D01*
X137298251Y-75347942D01*
X137298250Y-75347941D01*
X137298248Y-75347941D01*
X137087934Y-75308627D01*
X136873974Y-75308627D01*
X136663659Y-75347941D01*
X136593996Y-75374929D01*
X136464144Y-75425234D01*
X136282232Y-75537869D01*
X136282229Y-75537871D01*
X136139499Y-75667987D01*
X136124113Y-75682013D01*
X136104075Y-75708548D01*
X135995174Y-75852755D01*
X135995169Y-75852764D01*
X135913631Y-76016516D01*
X135899803Y-76044287D01*
X135841250Y-76250079D01*
X135821508Y-76463127D01*
X129021084Y-76463127D01*
X129523604Y-75711763D01*
X129525848Y-75708547D01*
X129532831Y-75698953D01*
X130106424Y-74910858D01*
X130108756Y-74907784D01*
X130275433Y-74696893D01*
X137400260Y-74696893D01*
X137400260Y-74696897D01*
X137411282Y-74797546D01*
X137447685Y-74863900D01*
X137447685Y-74863901D01*
X138103945Y-75645999D01*
X138636930Y-76281185D01*
X138695958Y-76328562D01*
X138695959Y-76328562D01*
X138695962Y-76328564D01*
X138793156Y-76356892D01*
X138793156Y-76356891D01*
X138793160Y-76356893D01*
X138893805Y-76345871D01*
X138960161Y-76309467D01*
X138960162Y-76309467D01*
X139145440Y-76154000D01*
X140994394Y-76154000D01*
X141000613Y-76193268D01*
X141057274Y-76304473D01*
X141145526Y-76392725D01*
X141206550Y-76423818D01*
X141234384Y-76451653D01*
X141244620Y-76448489D01*
X141258691Y-76449698D01*
X141265999Y-76450855D01*
X141266000Y-76450854D01*
X141266000Y-76154001D01*
X141265999Y-76154000D01*
X140994394Y-76154000D01*
X139145440Y-76154000D01*
X139208550Y-76101044D01*
X139750851Y-75645999D01*
X140994393Y-75645999D01*
X140994393Y-75646000D01*
X141265999Y-75646000D01*
X141266000Y-75645999D01*
X141266000Y-75054001D01*
X141265999Y-75054000D01*
X140994394Y-75054000D01*
X141000613Y-75093268D01*
X141057274Y-75204473D01*
X141132797Y-75279996D01*
X141160574Y-75334513D01*
X141151003Y-75394945D01*
X141132797Y-75420004D01*
X141057274Y-75495526D01*
X141000613Y-75606729D01*
X140994393Y-75645999D01*
X139750851Y-75645999D01*
X140377446Y-75120223D01*
X140424823Y-75061195D01*
X140424824Y-75061191D01*
X140424825Y-75061190D01*
X140453153Y-74963998D01*
X140453153Y-74963996D01*
X140453154Y-74963993D01*
X140442132Y-74863348D01*
X140442131Y-74863346D01*
X140442131Y-74863345D01*
X140405728Y-74796991D01*
X140405728Y-74796990D01*
X140195121Y-74545999D01*
X140994393Y-74545999D01*
X140994393Y-74546000D01*
X141265999Y-74546000D01*
X141266000Y-74545999D01*
X141266000Y-74249143D01*
X141256732Y-74250612D01*
X141145526Y-74307274D01*
X141057274Y-74395526D01*
X141000613Y-74506729D01*
X140994393Y-74545999D01*
X140195121Y-74545999D01*
X139763824Y-74032001D01*
X139548158Y-73774980D01*
X143441300Y-73774980D01*
X143441300Y-73799999D01*
X143441301Y-73800000D01*
X143895299Y-73800000D01*
X143895300Y-73799999D01*
X143895300Y-73400001D01*
X144295300Y-73400001D01*
X144295300Y-73799999D01*
X144295301Y-73800000D01*
X144749298Y-73800000D01*
X144749299Y-73799999D01*
X144749299Y-73774987D01*
X144749298Y-73774977D01*
X144734563Y-73700895D01*
X144734562Y-73700892D01*
X144703899Y-73655002D01*
X144687290Y-73596114D01*
X144703899Y-73544998D01*
X144734563Y-73499106D01*
X144749299Y-73425019D01*
X144749300Y-73425016D01*
X144749300Y-73400001D01*
X144749299Y-73400000D01*
X144295301Y-73400000D01*
X144295300Y-73400001D01*
X143895300Y-73400001D01*
X143895299Y-73400000D01*
X143441302Y-73400000D01*
X143441301Y-73400001D01*
X143441301Y-73425022D01*
X143456036Y-73499104D01*
X143456037Y-73499107D01*
X143486701Y-73544999D01*
X143503309Y-73603888D01*
X143486701Y-73655001D01*
X143456036Y-73700894D01*
X143441300Y-73774980D01*
X139548158Y-73774980D01*
X139216484Y-73379707D01*
X139157456Y-73332330D01*
X139157455Y-73332329D01*
X139157451Y-73332327D01*
X139060257Y-73303999D01*
X139060254Y-73303999D01*
X139009931Y-73309510D01*
X138959606Y-73315021D01*
X138893252Y-73351424D01*
X138893251Y-73351424D01*
X137475968Y-74540669D01*
X137475964Y-74540673D01*
X137428592Y-74599695D01*
X137428588Y-74599701D01*
X137400260Y-74696893D01*
X130275433Y-74696893D01*
X130720506Y-74133758D01*
X130722962Y-74130773D01*
X131364955Y-73381586D01*
X131367523Y-73378707D01*
X131742255Y-72974980D01*
X143441300Y-72974980D01*
X143441300Y-72999999D01*
X143441301Y-73000000D01*
X143895299Y-73000000D01*
X143895300Y-72999999D01*
X143895300Y-72897001D01*
X143895299Y-72897000D01*
X143890300Y-72897000D01*
X143832109Y-72878093D01*
X143796145Y-72828593D01*
X143791300Y-72798000D01*
X143791300Y-72504001D01*
X143791299Y-72504000D01*
X143441302Y-72504000D01*
X143441301Y-72504001D01*
X143441301Y-72625022D01*
X143456036Y-72699104D01*
X143456037Y-72699107D01*
X143486701Y-72744999D01*
X143503309Y-72803888D01*
X143486701Y-72855001D01*
X143456036Y-72900894D01*
X143441300Y-72974980D01*
X131742255Y-72974980D01*
X132038705Y-72655593D01*
X132041394Y-72652810D01*
X132740717Y-71956893D01*
X132743495Y-71954236D01*
X133469912Y-71286562D01*
X133472782Y-71284028D01*
X134225093Y-70645701D01*
X134228060Y-70643283D01*
X135005108Y-70035287D01*
X135008196Y-70032968D01*
X135808681Y-69456316D01*
X135811901Y-69454092D01*
X136473237Y-69016441D01*
X136527872Y-69000000D01*
X136637997Y-69000000D01*
X136696188Y-69018907D01*
G37*
G04 #@! TD.AperFunction*
G04 #@! TA.AperFunction,Conductor*
G36*
X146990450Y-99796316D02*
G01*
X147156444Y-99860623D01*
X147357653Y-99898235D01*
X147460801Y-99898235D01*
X147518992Y-99917142D01*
X147554956Y-99966642D01*
X147554956Y-100027828D01*
X147552265Y-100035121D01*
X147485850Y-100195456D01*
X147469961Y-100254756D01*
X147431511Y-100398255D01*
X147425791Y-100419601D01*
X147395500Y-100649657D01*
X147395500Y-100710044D01*
X147395500Y-100765681D01*
X147395500Y-100797342D01*
X147395499Y-100831811D01*
X147395500Y-100831824D01*
X147395500Y-102142427D01*
X147425363Y-102350125D01*
X147425363Y-102350127D01*
X147484482Y-102551468D01*
X147484483Y-102551471D01*
X147484484Y-102551473D01*
X147566489Y-102731039D01*
X147571657Y-102742356D01*
X147580271Y-102755759D01*
X147685106Y-102918886D01*
X147688388Y-102922673D01*
X147712206Y-102979030D01*
X147698349Y-103038626D01*
X147680568Y-103059880D01*
X147680709Y-103060021D01*
X147679135Y-103061594D01*
X147678864Y-103061919D01*
X147678431Y-103062298D01*
X147512309Y-103228420D01*
X147369312Y-103414778D01*
X147251852Y-103618225D01*
X147161963Y-103835238D01*
X147161959Y-103835251D01*
X147101161Y-104062149D01*
X147101161Y-104062154D01*
X147070500Y-104295044D01*
X147070500Y-105177000D01*
X147051593Y-105235191D01*
X147026788Y-105253212D01*
X147004000Y-105276001D01*
X147004000Y-105452447D01*
X147002098Y-105471761D01*
X146995500Y-105504930D01*
X146995500Y-105504933D01*
X146995500Y-106251020D01*
X146995501Y-106410000D01*
X146976594Y-106468191D01*
X146927094Y-106504155D01*
X146896501Y-106509000D01*
X146252000Y-106509000D01*
X146193809Y-106490093D01*
X146157845Y-106440593D01*
X146153000Y-106410000D01*
X146153000Y-106100000D01*
X146171907Y-106041809D01*
X146221407Y-106005845D01*
X146252000Y-106001000D01*
X146495999Y-106001000D01*
X146496000Y-106000999D01*
X146496000Y-105275999D01*
X146424987Y-105276000D01*
X146424976Y-105276001D01*
X146350895Y-105290736D01*
X146350892Y-105290737D01*
X146266878Y-105346874D01*
X146266874Y-105346878D01*
X146210736Y-105430893D01*
X146196000Y-105504980D01*
X146196000Y-105872736D01*
X146177093Y-105930927D01*
X146127593Y-105966891D01*
X146066407Y-105966891D01*
X146041999Y-105955052D01*
X146037152Y-105951813D01*
X145934000Y-105909085D01*
X145934000Y-106459939D01*
X145920060Y-106435795D01*
X145864205Y-106379940D01*
X145795796Y-106340444D01*
X145719496Y-106320000D01*
X145640504Y-106320000D01*
X145564204Y-106340444D01*
X145495795Y-106379940D01*
X145439940Y-106435795D01*
X145426000Y-106459939D01*
X145426000Y-105909086D01*
X145425999Y-105909085D01*
X145322847Y-105951813D01*
X145199353Y-106034330D01*
X145199349Y-106034333D01*
X145094333Y-106139349D01*
X145094330Y-106139353D01*
X145011817Y-106262839D01*
X145011811Y-106262851D01*
X144954976Y-106400064D01*
X144954976Y-106400066D01*
X144926000Y-106545735D01*
X144926000Y-106915999D01*
X144926001Y-106916000D01*
X145380000Y-106916000D01*
X145380000Y-107424000D01*
X144926001Y-107424000D01*
X144926000Y-107424001D01*
X144926000Y-107794264D01*
X144954976Y-107939933D01*
X144954976Y-107939935D01*
X145011811Y-108077148D01*
X145011817Y-108077160D01*
X145094330Y-108200646D01*
X145094333Y-108200650D01*
X145199349Y-108305666D01*
X145199353Y-108305669D01*
X145322848Y-108388186D01*
X145425999Y-108430913D01*
X145426000Y-108430912D01*
X145426000Y-107880060D01*
X145439940Y-107904205D01*
X145495795Y-107960060D01*
X145564204Y-107999556D01*
X145640504Y-108020000D01*
X145719496Y-108020000D01*
X145795796Y-107999556D01*
X145864205Y-107960060D01*
X145920060Y-107904205D01*
X145934000Y-107880060D01*
X145934000Y-108430913D01*
X146037151Y-108388186D01*
X146160646Y-108305669D01*
X146160650Y-108305666D01*
X146265666Y-108200650D01*
X146265669Y-108200646D01*
X146348182Y-108077160D01*
X146348188Y-108077148D01*
X146402962Y-107944911D01*
X146442698Y-107898385D01*
X146502193Y-107884101D01*
X146558721Y-107907515D01*
X146580162Y-107933296D01*
X146649481Y-108053360D01*
X146649483Y-108053362D01*
X146649485Y-108053365D01*
X146756635Y-108160515D01*
X146756637Y-108160516D01*
X146756639Y-108160518D01*
X146887861Y-108236279D01*
X146887859Y-108236279D01*
X146887863Y-108236280D01*
X146887865Y-108236281D01*
X147034234Y-108275500D01*
X147034236Y-108275500D01*
X147185764Y-108275500D01*
X147185766Y-108275500D01*
X147332135Y-108236281D01*
X147332137Y-108236279D01*
X147332139Y-108236279D01*
X147463360Y-108160518D01*
X147463360Y-108160517D01*
X147463365Y-108160515D01*
X147570515Y-108053365D01*
X147575852Y-108044122D01*
X147641236Y-107930873D01*
X147646281Y-107922135D01*
X147661333Y-107865956D01*
X147694655Y-107814645D01*
X147751776Y-107792717D01*
X147803624Y-107804270D01*
X147939827Y-107877072D01*
X148008202Y-107913620D01*
X148008205Y-107913621D01*
X148008212Y-107913625D01*
X148267253Y-108020923D01*
X148267255Y-108020923D01*
X148267261Y-108020926D01*
X148535559Y-108102314D01*
X148535563Y-108102314D01*
X148535564Y-108102315D01*
X148810561Y-108157016D01*
X149089595Y-108184500D01*
X149089598Y-108184500D01*
X149229787Y-108184500D01*
X149292914Y-108184501D01*
X149292918Y-108184500D01*
X150762020Y-108184500D01*
X150773327Y-108185148D01*
X150776141Y-108185471D01*
X150776145Y-108185472D01*
X150834516Y-108184513D01*
X150836141Y-108184500D01*
X150894509Y-108184500D01*
X150894514Y-108184500D01*
X150894518Y-108184498D01*
X150897307Y-108184131D01*
X150908611Y-108183294D01*
X150942360Y-108182740D01*
X150956894Y-108183574D01*
X150977159Y-108186243D01*
X151006904Y-108182326D01*
X151018171Y-108181495D01*
X151048158Y-108181003D01*
X151067805Y-108175390D01*
X151082067Y-108172431D01*
X151291212Y-108144899D01*
X151304133Y-108144052D01*
X151329343Y-108144052D01*
X151329344Y-108144052D01*
X151353706Y-108137523D01*
X151366374Y-108135003D01*
X151391390Y-108131711D01*
X151414691Y-108122058D01*
X151426938Y-108117901D01*
X151635319Y-108062067D01*
X151648003Y-108059544D01*
X151673007Y-108056254D01*
X151696301Y-108046605D01*
X151708563Y-108042442D01*
X151732912Y-108035919D01*
X151732914Y-108035917D01*
X151732916Y-108035917D01*
X151754746Y-108023313D01*
X151766358Y-108017586D01*
X151965658Y-107935035D01*
X151977910Y-107930875D01*
X152002271Y-107924349D01*
X152024120Y-107911733D01*
X152035711Y-107906018D01*
X152059009Y-107896369D01*
X152079008Y-107881021D01*
X152089768Y-107873831D01*
X152195416Y-107812836D01*
X152255263Y-107800116D01*
X152311158Y-107825003D01*
X152340539Y-107872949D01*
X152348915Y-107904205D01*
X152353720Y-107922139D01*
X152429481Y-108053360D01*
X152429483Y-108053362D01*
X152429485Y-108053365D01*
X152536635Y-108160515D01*
X152536637Y-108160516D01*
X152536639Y-108160518D01*
X152667861Y-108236279D01*
X152667859Y-108236279D01*
X152667863Y-108236280D01*
X152667865Y-108236281D01*
X152814234Y-108275500D01*
X152814236Y-108275500D01*
X152965764Y-108275500D01*
X152965766Y-108275500D01*
X153112135Y-108236281D01*
X153112137Y-108236279D01*
X153112139Y-108236279D01*
X153243360Y-108160518D01*
X153243360Y-108160517D01*
X153243365Y-108160515D01*
X153350515Y-108053365D01*
X153419838Y-107933293D01*
X153465306Y-107892355D01*
X153526156Y-107885959D01*
X153579144Y-107916552D01*
X153597037Y-107944910D01*
X153651813Y-108077151D01*
X153651817Y-108077160D01*
X153734330Y-108200646D01*
X153734333Y-108200650D01*
X153839349Y-108305666D01*
X153839353Y-108305669D01*
X153962848Y-108388186D01*
X154065999Y-108430913D01*
X154066000Y-108430912D01*
X154066000Y-107880060D01*
X154079940Y-107904205D01*
X154135795Y-107960060D01*
X154204204Y-107999556D01*
X154280504Y-108020000D01*
X154359496Y-108020000D01*
X154435796Y-107999556D01*
X154504205Y-107960060D01*
X154560060Y-107904205D01*
X154574000Y-107880060D01*
X154574000Y-108430912D01*
X154606765Y-108452805D01*
X154644645Y-108500855D01*
X154647047Y-108561993D01*
X154613055Y-108612867D01*
X154585435Y-108628219D01*
X154407664Y-108692514D01*
X154398283Y-108695390D01*
X154076750Y-108776766D01*
X154067130Y-108778699D01*
X153739122Y-108827845D01*
X153729358Y-108828816D01*
X153395570Y-108845378D01*
X153390664Y-108845500D01*
X145703241Y-108845500D01*
X145696766Y-108845288D01*
X145464428Y-108830059D01*
X145451589Y-108828369D01*
X145226407Y-108783578D01*
X145213898Y-108780226D01*
X144996489Y-108706425D01*
X144984525Y-108701469D01*
X144778620Y-108599928D01*
X144767406Y-108593453D01*
X144576505Y-108465897D01*
X144566236Y-108458018D01*
X144392516Y-108305669D01*
X144391176Y-108304494D01*
X144386447Y-108300066D01*
X144198194Y-108111813D01*
X144170417Y-108057296D01*
X144169198Y-108041809D01*
X144169198Y-107601751D01*
X144169198Y-107601748D01*
X144169198Y-107601746D01*
X144162739Y-107541658D01*
X144112041Y-107405733D01*
X144108398Y-107400866D01*
X144051445Y-107324784D01*
X144031709Y-107266868D01*
X144031699Y-107265456D01*
X144031699Y-106834542D01*
X144050606Y-106776351D01*
X144051445Y-106775214D01*
X144110742Y-106696002D01*
X144112041Y-106694267D01*
X144162739Y-106558342D01*
X144169199Y-106498255D01*
X144169198Y-105501746D01*
X144162739Y-105441658D01*
X144112041Y-105305733D01*
X144110072Y-105303103D01*
X144051445Y-105224784D01*
X144031709Y-105166868D01*
X144031699Y-105165456D01*
X144031699Y-104734542D01*
X144050606Y-104676351D01*
X144051445Y-104675214D01*
X144053172Y-104672907D01*
X144112041Y-104594267D01*
X144162739Y-104458342D01*
X144169199Y-104398255D01*
X144169198Y-103401746D01*
X144162739Y-103341658D01*
X144112041Y-103205733D01*
X144092283Y-103179339D01*
X144051445Y-103124784D01*
X144031709Y-103066868D01*
X144031699Y-103065456D01*
X144031699Y-100953499D01*
X144050606Y-100895308D01*
X144100106Y-100859344D01*
X144130699Y-100854499D01*
X145198249Y-100854499D01*
X145198254Y-100854499D01*
X145258342Y-100848040D01*
X145394267Y-100797342D01*
X145510404Y-100710404D01*
X145597342Y-100594267D01*
X145648040Y-100458342D01*
X145654500Y-100398255D01*
X145654499Y-100312945D01*
X145673406Y-100254756D01*
X145722905Y-100218792D01*
X145736299Y-100215452D01*
X145878846Y-100190320D01*
X146209071Y-100101840D01*
X146530328Y-99984916D01*
X146840172Y-99840436D01*
X146905194Y-99802895D01*
X146965041Y-99790175D01*
X146990450Y-99796316D01*
G37*
G04 #@! TD.AperFunction*
G04 #@! TA.AperFunction,Conductor*
G36*
X156158491Y-81914907D02*
G01*
X156194455Y-81964407D01*
X156199300Y-81995000D01*
X156199300Y-82753998D01*
X156199301Y-82753999D01*
X156246500Y-82753999D01*
X156304691Y-82772906D01*
X156340655Y-82822406D01*
X156345500Y-82852999D01*
X156345500Y-96197964D01*
X156345415Y-96202055D01*
X156328436Y-96612553D01*
X156327761Y-96620708D01*
X156277191Y-97026403D01*
X156275844Y-97034473D01*
X156191948Y-97434593D01*
X156189939Y-97442525D01*
X156073288Y-97834348D01*
X156070632Y-97842086D01*
X155922020Y-98222945D01*
X155918739Y-98230425D01*
X155739182Y-98597715D01*
X155735287Y-98604912D01*
X155526020Y-98956106D01*
X155521545Y-98962956D01*
X155283985Y-99295679D01*
X155278959Y-99302135D01*
X155014745Y-99614093D01*
X155009204Y-99620114D01*
X154720114Y-99909204D01*
X154714093Y-99914745D01*
X154402135Y-100178959D01*
X154395679Y-100183985D01*
X154062956Y-100421545D01*
X154056106Y-100426020D01*
X153704912Y-100635287D01*
X153697715Y-100639182D01*
X153330425Y-100818739D01*
X153322945Y-100822020D01*
X152985995Y-100953499D01*
X152942087Y-100970632D01*
X152934348Y-100973288D01*
X152542525Y-101089939D01*
X152534593Y-101091948D01*
X152134473Y-101175844D01*
X152126403Y-101177191D01*
X151720708Y-101227761D01*
X151712553Y-101228436D01*
X151302055Y-101245415D01*
X151297964Y-101245500D01*
X150525685Y-101245500D01*
X150379921Y-101274494D01*
X150242610Y-101331370D01*
X150119037Y-101413938D01*
X150013938Y-101519037D01*
X149931370Y-101642610D01*
X149885983Y-101752185D01*
X149846246Y-101798711D01*
X149786751Y-101812994D01*
X149730223Y-101789579D01*
X149711159Y-101765397D01*
X149710906Y-101765581D01*
X149706327Y-101759279D01*
X149706326Y-101759277D01*
X149615723Y-101668674D01*
X149615720Y-101668672D01*
X149615718Y-101668671D01*
X149501561Y-101610504D01*
X149501556Y-101610502D01*
X149501555Y-101610502D01*
X149477874Y-101606751D01*
X149406837Y-101595500D01*
X149406834Y-101595500D01*
X148318166Y-101595500D01*
X148318161Y-101595500D01*
X148314284Y-101595805D01*
X148314190Y-101594613D01*
X148258541Y-101585791D01*
X148215283Y-101542519D01*
X148204500Y-101497588D01*
X148204500Y-100769582D01*
X148204805Y-100761814D01*
X148208851Y-100710404D01*
X148215724Y-100623077D01*
X148218151Y-100607759D01*
X148249728Y-100476237D01*
X148254523Y-100461479D01*
X148306286Y-100336514D01*
X148313337Y-100322677D01*
X148319300Y-100312947D01*
X148384005Y-100207358D01*
X148393133Y-100194796D01*
X148483544Y-100088938D01*
X148488807Y-100083242D01*
X148527149Y-100044901D01*
X148527149Y-100044900D01*
X148670127Y-99901924D01*
X148670128Y-99901921D01*
X148675760Y-99896290D01*
X148675781Y-99896265D01*
X148689049Y-99882998D01*
X148707161Y-99864886D01*
X148835769Y-99697282D01*
X148941400Y-99514325D01*
X148952662Y-99487133D01*
X148992398Y-99440608D01*
X149051892Y-99426323D01*
X149108421Y-99449736D01*
X149123126Y-99465351D01*
X149180268Y-99541020D01*
X149331538Y-99678921D01*
X149505573Y-99786679D01*
X149696444Y-99860623D01*
X149897653Y-99898235D01*
X150102347Y-99898235D01*
X150303556Y-99860623D01*
X150494427Y-99786679D01*
X150668462Y-99678921D01*
X150819732Y-99541020D01*
X150943088Y-99377670D01*
X151034328Y-99194436D01*
X151090345Y-98997556D01*
X151109232Y-98793735D01*
X151090345Y-98589914D01*
X151034328Y-98393034D01*
X150943088Y-98209800D01*
X150819732Y-98046450D01*
X150679614Y-97918715D01*
X151436000Y-97918715D01*
X151436000Y-98539734D01*
X151436001Y-98539735D01*
X152109297Y-98539735D01*
X152074075Y-98600742D01*
X152040000Y-98727909D01*
X152040000Y-98859561D01*
X152074075Y-98986728D01*
X152109297Y-99047735D01*
X151436002Y-99047735D01*
X151436001Y-99047736D01*
X151436001Y-99668757D01*
X151450736Y-99742839D01*
X151450737Y-99742842D01*
X151506874Y-99826856D01*
X151506878Y-99826860D01*
X151590893Y-99882998D01*
X151664981Y-99897734D01*
X152285998Y-99897734D01*
X152286000Y-99897733D01*
X152286000Y-99224437D01*
X152347007Y-99259660D01*
X152474174Y-99293735D01*
X152605826Y-99293735D01*
X152732993Y-99259660D01*
X152794000Y-99224437D01*
X152794000Y-99897733D01*
X152794001Y-99897734D01*
X153415012Y-99897734D01*
X153415022Y-99897733D01*
X153489104Y-99882998D01*
X153489107Y-99882997D01*
X153573121Y-99826860D01*
X153573125Y-99826856D01*
X153629263Y-99742841D01*
X153643999Y-99668754D01*
X153644000Y-99668751D01*
X153644000Y-99047736D01*
X153643999Y-99047735D01*
X152970703Y-99047735D01*
X153005925Y-98986728D01*
X153040000Y-98859561D01*
X153040000Y-98727909D01*
X153005925Y-98600742D01*
X152970703Y-98539735D01*
X153643998Y-98539735D01*
X153643999Y-98539734D01*
X153643999Y-97918722D01*
X153643998Y-97918712D01*
X153629263Y-97844630D01*
X153629262Y-97844627D01*
X153573125Y-97760613D01*
X153573121Y-97760609D01*
X153489106Y-97704471D01*
X153415019Y-97689735D01*
X152794001Y-97689735D01*
X152794000Y-97689736D01*
X152794000Y-98363032D01*
X152732993Y-98327810D01*
X152605826Y-98293735D01*
X152474174Y-98293735D01*
X152347007Y-98327810D01*
X152286000Y-98363032D01*
X152286000Y-97689736D01*
X152285999Y-97689735D01*
X151664986Y-97689735D01*
X151664977Y-97689736D01*
X151590895Y-97704471D01*
X151590892Y-97704472D01*
X151506878Y-97760609D01*
X151506874Y-97760613D01*
X151450736Y-97844628D01*
X151436000Y-97918715D01*
X150679614Y-97918715D01*
X150668462Y-97908549D01*
X150522805Y-97818362D01*
X150494432Y-97800794D01*
X150494431Y-97800793D01*
X150494427Y-97800791D01*
X150481726Y-97795870D01*
X150417735Y-97771079D01*
X150370305Y-97732427D01*
X150354500Y-97678765D01*
X150354500Y-96016646D01*
X150354619Y-96011789D01*
X150356723Y-95968948D01*
X150368994Y-95719141D01*
X150369944Y-95709504D01*
X150412578Y-95422090D01*
X150414466Y-95412592D01*
X150485070Y-95130723D01*
X150487879Y-95121463D01*
X150585772Y-94847869D01*
X150589478Y-94838922D01*
X150713711Y-94576251D01*
X150718272Y-94567717D01*
X150867653Y-94318490D01*
X150873039Y-94310429D01*
X151046133Y-94077038D01*
X151052279Y-94069550D01*
X151248961Y-93852543D01*
X151252272Y-93849066D01*
X151420942Y-93680396D01*
X151420973Y-93680380D01*
X151448596Y-93652756D01*
X151448597Y-93652757D01*
X151586248Y-93515105D01*
X151836509Y-93216852D01*
X152059823Y-92897923D01*
X152254491Y-92560745D01*
X152419032Y-92207883D01*
X152552192Y-91842024D01*
X152652960Y-91465951D01*
X152720567Y-91082527D01*
X152738668Y-90875627D01*
X152754500Y-90694677D01*
X152754500Y-85328993D01*
X152773407Y-85270802D01*
X152822907Y-85234838D01*
X152838972Y-85233573D01*
X152846000Y-85227571D01*
X152846000Y-84963653D01*
X153354000Y-84963653D01*
X153354000Y-85227572D01*
X153406700Y-85219226D01*
X153406703Y-85219225D01*
X153516498Y-85163282D01*
X153603630Y-85076150D01*
X153659572Y-84966358D01*
X153660001Y-84963652D01*
X153354001Y-84963652D01*
X153354000Y-84963653D01*
X152846000Y-84963653D01*
X152846000Y-84631255D01*
X152851253Y-84599435D01*
X152855975Y-84585522D01*
X152860924Y-84573577D01*
X152891852Y-84510863D01*
X152934547Y-84467037D01*
X152980641Y-84455652D01*
X153660001Y-84455652D01*
X153659572Y-84452945D01*
X153603630Y-84343153D01*
X153530486Y-84270009D01*
X153502709Y-84215492D01*
X153512280Y-84155060D01*
X153530483Y-84130004D01*
X153604040Y-84056448D01*
X153660054Y-83946514D01*
X153674500Y-83855305D01*
X153674499Y-83524000D01*
X153664326Y-83459763D01*
X153660055Y-83432794D01*
X153660054Y-83432792D01*
X153660054Y-83432790D01*
X153604040Y-83322856D01*
X153516796Y-83235612D01*
X153516793Y-83235610D01*
X153406868Y-83179600D01*
X153406863Y-83179598D01*
X153406862Y-83179598D01*
X153376459Y-83174782D01*
X153315655Y-83165152D01*
X153315653Y-83165152D01*
X153157836Y-83165152D01*
X153099645Y-83146245D01*
X153075520Y-83121153D01*
X153062556Y-83101751D01*
X152992147Y-82996373D01*
X152985675Y-82985162D01*
X152942340Y-82897284D01*
X152933561Y-82836732D01*
X152962051Y-82782584D01*
X153016927Y-82755523D01*
X153031119Y-82754499D01*
X153420366Y-82754499D01*
X153494601Y-82739734D01*
X153540298Y-82709199D01*
X153599185Y-82692590D01*
X153650299Y-82709198D01*
X153695999Y-82739734D01*
X153770233Y-82754500D01*
X154220366Y-82754499D01*
X154294601Y-82739734D01*
X154340298Y-82709199D01*
X154399185Y-82692590D01*
X154450299Y-82709198D01*
X154495999Y-82739734D01*
X154570233Y-82754500D01*
X155020366Y-82754499D01*
X155094601Y-82739734D01*
X155178784Y-82683484D01*
X155213286Y-82631848D01*
X155261334Y-82593970D01*
X155322472Y-82591568D01*
X155373346Y-82625560D01*
X155377915Y-82631849D01*
X155412174Y-82683121D01*
X155412178Y-82683125D01*
X155496193Y-82739263D01*
X155570281Y-82753999D01*
X155691300Y-82753999D01*
X155691300Y-81995000D01*
X155710207Y-81936809D01*
X155759707Y-81900845D01*
X155790300Y-81896000D01*
X156100300Y-81896000D01*
X156158491Y-81914907D01*
G37*
G04 #@! TD.AperFunction*
G04 #@! TA.AperFunction,Conductor*
G36*
X146764680Y-91551388D02*
G01*
X146787445Y-91568387D01*
X146788384Y-91569326D01*
X146788387Y-91569330D01*
X146836113Y-91605057D01*
X146892507Y-91647273D01*
X146897330Y-91650883D01*
X147024836Y-91698441D01*
X147053914Y-91701567D01*
X147109750Y-91726586D01*
X147140217Y-91779647D01*
X147133677Y-91840481D01*
X147092628Y-91885854D01*
X147053914Y-91898432D01*
X147051110Y-91898734D01*
X147024837Y-91901558D01*
X146897327Y-91949118D01*
X146788389Y-92030668D01*
X146788385Y-92030672D01*
X146706835Y-92139610D01*
X146659275Y-92267120D01*
X146653217Y-92323481D01*
X146653217Y-92851518D01*
X146659275Y-92907879D01*
X146659276Y-92907881D01*
X146706834Y-93035387D01*
X146788387Y-93144330D01*
X146888546Y-93219307D01*
X146923799Y-93269314D01*
X146928217Y-93298560D01*
X146928217Y-94046500D01*
X146909310Y-94104691D01*
X146859810Y-94140655D01*
X146829217Y-94145500D01*
X146329535Y-94145500D01*
X146304079Y-94148453D01*
X146199935Y-94194437D01*
X146119437Y-94274935D01*
X146073453Y-94379079D01*
X146070500Y-94404535D01*
X146070500Y-94546500D01*
X146051593Y-94604691D01*
X146002093Y-94640655D01*
X145971500Y-94645500D01*
X144843734Y-94645500D01*
X144785543Y-94626593D01*
X144755113Y-94590628D01*
X144746239Y-94572807D01*
X144693088Y-94466065D01*
X144569732Y-94302715D01*
X144418462Y-94164814D01*
X144275969Y-94076586D01*
X144244432Y-94057059D01*
X144244427Y-94057056D01*
X144140716Y-94016878D01*
X144053556Y-93983112D01*
X144053555Y-93983111D01*
X144053553Y-93983111D01*
X143852347Y-93945500D01*
X143647653Y-93945500D01*
X143446446Y-93983111D01*
X143255572Y-94057056D01*
X143255567Y-94057059D01*
X143081542Y-94164811D01*
X143081540Y-94164812D01*
X143081538Y-94164814D01*
X142948571Y-94286030D01*
X142930331Y-94302658D01*
X142930268Y-94302715D01*
X142903328Y-94338390D01*
X142806913Y-94466063D01*
X142806908Y-94466072D01*
X142715672Y-94649298D01*
X142659655Y-94846177D01*
X142640768Y-95050000D01*
X142659655Y-95253822D01*
X142715501Y-95450099D01*
X142715672Y-95450701D01*
X142806912Y-95633935D01*
X142930268Y-95797285D01*
X143081538Y-95935186D01*
X143255573Y-96042944D01*
X143446444Y-96116888D01*
X143647653Y-96154500D01*
X143852347Y-96154500D01*
X144053556Y-96116888D01*
X144244427Y-96042944D01*
X144418462Y-95935186D01*
X144569732Y-95797285D01*
X144693088Y-95633935D01*
X144755113Y-95509372D01*
X144797976Y-95465709D01*
X144843734Y-95454500D01*
X146990460Y-95454500D01*
X147015923Y-95451546D01*
X147120065Y-95405563D01*
X147200563Y-95325065D01*
X147246546Y-95220923D01*
X147249500Y-95195460D01*
X147249500Y-95103500D01*
X147268407Y-95045309D01*
X147317907Y-95009345D01*
X147348500Y-95004500D01*
X147449042Y-95004500D01*
X147449042Y-95006965D01*
X147498725Y-95016166D01*
X147540849Y-95060541D01*
X147550500Y-95103176D01*
X147550500Y-95195464D01*
X147553453Y-95220920D01*
X147553453Y-95220922D01*
X147553454Y-95220923D01*
X147599437Y-95325065D01*
X147679935Y-95405563D01*
X147784077Y-95451546D01*
X147809540Y-95454500D01*
X148086747Y-95454500D01*
X148291842Y-95454500D01*
X148343511Y-95454500D01*
X148356432Y-95455347D01*
X148372883Y-95457512D01*
X148426503Y-95464572D01*
X148451458Y-95471258D01*
X148510712Y-95495801D01*
X148533091Y-95508723D01*
X148583965Y-95547761D01*
X148602238Y-95566034D01*
X148641276Y-95616908D01*
X148654199Y-95639290D01*
X148678622Y-95698254D01*
X148678739Y-95698535D01*
X148685428Y-95723498D01*
X148690080Y-95758836D01*
X148694653Y-95793565D01*
X148695500Y-95806488D01*
X148695500Y-97552101D01*
X148695496Y-97552159D01*
X148695499Y-97610692D01*
X148694653Y-97623614D01*
X148687720Y-97676298D01*
X148681031Y-97701264D01*
X148663206Y-97744301D01*
X148650283Y-97766685D01*
X148618100Y-97808627D01*
X148609563Y-97818362D01*
X148553448Y-97874478D01*
X148452846Y-98012947D01*
X148444751Y-98028835D01*
X148401486Y-98072098D01*
X148341053Y-98081668D01*
X148286537Y-98053889D01*
X148282922Y-98049733D01*
X148282815Y-98049832D01*
X148279736Y-98046455D01*
X148279735Y-98046454D01*
X148279732Y-98046450D01*
X148128462Y-97908549D01*
X147982805Y-97818362D01*
X147954432Y-97800794D01*
X147954427Y-97800791D01*
X147850716Y-97760613D01*
X147763556Y-97726847D01*
X147763555Y-97726846D01*
X147763553Y-97726846D01*
X147562347Y-97689235D01*
X147357653Y-97689235D01*
X147156446Y-97726846D01*
X146965572Y-97800791D01*
X146965567Y-97800794D01*
X146791542Y-97908546D01*
X146791540Y-97908547D01*
X146791538Y-97908549D01*
X146640268Y-98046450D01*
X146620900Y-98072098D01*
X146516913Y-98209798D01*
X146516908Y-98209807D01*
X146425672Y-98393033D01*
X146369655Y-98589912D01*
X146350768Y-98793735D01*
X146363230Y-98928228D01*
X146349772Y-98987915D01*
X146306979Y-99026857D01*
X146166312Y-99093386D01*
X146157336Y-99097104D01*
X145893353Y-99191555D01*
X145884056Y-99194375D01*
X145770077Y-99222924D01*
X145709036Y-99218722D01*
X145662123Y-99179444D01*
X145651001Y-99147325D01*
X145649465Y-99147689D01*
X145648040Y-99141665D01*
X145648040Y-99141658D01*
X145597342Y-99005733D01*
X145560192Y-98956106D01*
X145510406Y-98889598D01*
X145510401Y-98889593D01*
X145394266Y-98802657D01*
X145258342Y-98751960D01*
X145258341Y-98751959D01*
X145217790Y-98747600D01*
X145198255Y-98745500D01*
X145198251Y-98745500D01*
X142601751Y-98745500D01*
X142601745Y-98745501D01*
X142541660Y-98751959D01*
X142541658Y-98751960D01*
X142405733Y-98802657D01*
X142297470Y-98883701D01*
X142239555Y-98903437D01*
X142187246Y-98889362D01*
X141892726Y-98712834D01*
X141884648Y-98707436D01*
X141607087Y-98501582D01*
X141599577Y-98495419D01*
X141428910Y-98340736D01*
X141343518Y-98263341D01*
X141336658Y-98256481D01*
X141104580Y-98000422D01*
X141098417Y-97992912D01*
X140967649Y-97816592D01*
X140892561Y-97715349D01*
X140887165Y-97707273D01*
X140883563Y-97701264D01*
X140709503Y-97410861D01*
X140704925Y-97402297D01*
X140594996Y-97169872D01*
X140557171Y-97089898D01*
X140553455Y-97080925D01*
X140437031Y-96755540D01*
X140434218Y-96746269D01*
X140350244Y-96411027D01*
X140348355Y-96401525D01*
X140328477Y-96267522D01*
X140338641Y-96207190D01*
X140382328Y-96164352D01*
X140426405Y-96153999D01*
X140955999Y-96153999D01*
X140956000Y-96153998D01*
X140956000Y-95480702D01*
X141017007Y-95515925D01*
X141144174Y-95550000D01*
X141275826Y-95550000D01*
X141402993Y-95515925D01*
X141464000Y-95480702D01*
X141464000Y-96153998D01*
X141464001Y-96153999D01*
X142085012Y-96153999D01*
X142085022Y-96153998D01*
X142159104Y-96139263D01*
X142159107Y-96139262D01*
X142243121Y-96083125D01*
X142243125Y-96083121D01*
X142299263Y-95999106D01*
X142313999Y-95925019D01*
X142314000Y-95925016D01*
X142314000Y-95304001D01*
X142313999Y-95304000D01*
X141640703Y-95304000D01*
X141675925Y-95242993D01*
X141710000Y-95115826D01*
X141710000Y-94984174D01*
X141675925Y-94857007D01*
X141640703Y-94796000D01*
X142313998Y-94796000D01*
X142313999Y-94795999D01*
X142313999Y-94174987D01*
X142313998Y-94174977D01*
X142299263Y-94100895D01*
X142299262Y-94100892D01*
X142243125Y-94016878D01*
X142243121Y-94016874D01*
X142159106Y-93960736D01*
X142085019Y-93946000D01*
X141464001Y-93946000D01*
X141464000Y-93946001D01*
X141464000Y-94619297D01*
X141402993Y-94584075D01*
X141275826Y-94550000D01*
X141144174Y-94550000D01*
X141017007Y-94584075D01*
X140956000Y-94619297D01*
X140956000Y-93946001D01*
X140955999Y-93946000D01*
X140378500Y-93946000D01*
X140320309Y-93927093D01*
X140284345Y-93877593D01*
X140279500Y-93847000D01*
X140279500Y-93380519D01*
X140298407Y-93322328D01*
X140347907Y-93286364D01*
X140409093Y-93286364D01*
X140445191Y-93307354D01*
X140541538Y-93395186D01*
X140715573Y-93502944D01*
X140906444Y-93576888D01*
X141107653Y-93614500D01*
X141312347Y-93614500D01*
X141513556Y-93576888D01*
X141704427Y-93502944D01*
X141878462Y-93395186D01*
X142029732Y-93257285D01*
X142153088Y-93093935D01*
X142244328Y-92910701D01*
X142300345Y-92713821D01*
X142319232Y-92510000D01*
X142300345Y-92306179D01*
X142271054Y-92203231D01*
X142273315Y-92142092D01*
X142311083Y-92093955D01*
X142369933Y-92077211D01*
X142410605Y-92087623D01*
X142533917Y-92149377D01*
X142541897Y-92153845D01*
X142615459Y-92199633D01*
X142654871Y-92246433D01*
X142660462Y-92301860D01*
X142659656Y-92306173D01*
X142659655Y-92306176D01*
X142659655Y-92306179D01*
X142646885Y-92443990D01*
X142640768Y-92510000D01*
X142659655Y-92713822D01*
X142672727Y-92759764D01*
X142715672Y-92910701D01*
X142806912Y-93093935D01*
X142930268Y-93257285D01*
X143081538Y-93395186D01*
X143255573Y-93502944D01*
X143446444Y-93576888D01*
X143647653Y-93614500D01*
X143852347Y-93614500D01*
X144053556Y-93576888D01*
X144244427Y-93502944D01*
X144418462Y-93395186D01*
X144569732Y-93257285D01*
X144693088Y-93093935D01*
X144784328Y-92910701D01*
X144840345Y-92713821D01*
X144859232Y-92510000D01*
X144840345Y-92306179D01*
X144840343Y-92306173D01*
X144839950Y-92301928D01*
X144853408Y-92242241D01*
X144885334Y-92209298D01*
X145051986Y-92103130D01*
X145059441Y-92098826D01*
X145402384Y-91920301D01*
X145410187Y-91916663D01*
X145741834Y-91779291D01*
X145767367Y-91768715D01*
X145775474Y-91765763D01*
X146144210Y-91649502D01*
X146152509Y-91647278D01*
X146529981Y-91563595D01*
X146538443Y-91562102D01*
X146704519Y-91540238D01*
X146764680Y-91551388D01*
G37*
G04 #@! TD.AperFunction*
G04 #@! TA.AperFunction,Conductor*
G36*
X150338185Y-86079804D02*
G01*
X150480831Y-86091032D01*
X150496153Y-86093460D01*
X150577339Y-86112952D01*
X150629507Y-86144920D01*
X150652504Y-86197280D01*
X150659851Y-86257781D01*
X150659853Y-86257789D01*
X150716210Y-86406390D01*
X150716212Y-86406393D01*
X150716213Y-86406395D01*
X150773425Y-86489281D01*
X150806502Y-86537201D01*
X150806502Y-86537202D01*
X150924409Y-86641658D01*
X150925471Y-86642599D01*
X151066207Y-86716463D01*
X151220529Y-86754500D01*
X151220532Y-86754500D01*
X151379468Y-86754500D01*
X151379471Y-86754500D01*
X151522809Y-86719170D01*
X151583832Y-86723602D01*
X151630597Y-86763056D01*
X151645500Y-86815293D01*
X151645500Y-88885910D01*
X151626593Y-88944101D01*
X151577093Y-88980065D01*
X151515907Y-88980065D01*
X151466407Y-88944101D01*
X151464185Y-88940913D01*
X151448124Y-88916877D01*
X151448121Y-88916874D01*
X151364106Y-88860736D01*
X151290019Y-88846000D01*
X151169001Y-88846000D01*
X151169000Y-88846001D01*
X151169000Y-89605000D01*
X151150093Y-89663191D01*
X151100593Y-89699155D01*
X151070000Y-89704000D01*
X150311002Y-89704000D01*
X150311001Y-89704001D01*
X150311001Y-89825022D01*
X150325736Y-89899104D01*
X150325738Y-89899110D01*
X150356100Y-89944549D01*
X150372709Y-90003437D01*
X150356101Y-90054550D01*
X150325267Y-90100696D01*
X150325267Y-90100697D01*
X150325266Y-90100699D01*
X150311118Y-90171828D01*
X150310500Y-90174933D01*
X150310500Y-90925063D01*
X150310501Y-90925070D01*
X150325265Y-90999300D01*
X150325266Y-90999302D01*
X150381513Y-91083480D01*
X150381516Y-91083484D01*
X150465699Y-91139734D01*
X150465701Y-91139734D01*
X150474708Y-91143465D01*
X150474148Y-91144816D01*
X150518112Y-91169436D01*
X150543692Y-91224704D01*
X150549961Y-91276328D01*
X150558848Y-91349525D01*
X150559851Y-91357780D01*
X150559853Y-91357789D01*
X150616210Y-91506390D01*
X150616212Y-91506393D01*
X150616213Y-91506395D01*
X150654663Y-91562099D01*
X150706502Y-91637201D01*
X150706502Y-91637202D01*
X150782466Y-91704500D01*
X150825471Y-91742599D01*
X150966207Y-91816463D01*
X151120529Y-91854500D01*
X151120532Y-91854500D01*
X151218646Y-91854500D01*
X151276837Y-91873407D01*
X151312801Y-91922907D01*
X151312801Y-91984093D01*
X151306856Y-91998445D01*
X151233134Y-92143133D01*
X151227952Y-92152107D01*
X151057143Y-92415129D01*
X151051052Y-92423513D01*
X150853669Y-92667261D01*
X150846736Y-92674962D01*
X150624962Y-92896736D01*
X150617261Y-92903669D01*
X150373513Y-93101052D01*
X150365129Y-93107143D01*
X150102107Y-93277952D01*
X150093133Y-93283134D01*
X149813676Y-93425524D01*
X149804209Y-93429738D01*
X149511404Y-93542135D01*
X149501549Y-93545338D01*
X149198598Y-93626514D01*
X149188462Y-93628668D01*
X148878690Y-93677731D01*
X148868384Y-93678814D01*
X148620479Y-93691805D01*
X148575310Y-93683506D01*
X148495923Y-93648454D01*
X148470464Y-93645500D01*
X148470460Y-93645500D01*
X147936217Y-93645500D01*
X147878026Y-93626593D01*
X147842062Y-93577093D01*
X147837217Y-93546500D01*
X147837217Y-93298560D01*
X147856124Y-93240369D01*
X147876886Y-93219308D01*
X147977047Y-93144330D01*
X148058600Y-93035387D01*
X148106158Y-92907881D01*
X148112217Y-92851522D01*
X148112217Y-92323478D01*
X148111111Y-92313192D01*
X148123687Y-92253314D01*
X148169058Y-92212263D01*
X148229893Y-92205721D01*
X148242241Y-92209163D01*
X148331039Y-92240235D01*
X148331043Y-92240236D01*
X148331046Y-92240237D01*
X148331047Y-92240237D01*
X148331051Y-92240238D01*
X148499996Y-92259274D01*
X148500000Y-92259274D01*
X148500002Y-92259274D01*
X148524010Y-92256568D01*
X148558268Y-92252708D01*
X148618209Y-92264980D01*
X148651069Y-92299349D01*
X148652285Y-92298467D01*
X148656863Y-92304768D01*
X148656865Y-92304771D01*
X148745229Y-92393135D01*
X148856573Y-92449868D01*
X148948955Y-92464500D01*
X149291044Y-92464499D01*
X149291046Y-92464499D01*
X149310882Y-92461357D01*
X149383427Y-92449868D01*
X149494771Y-92393135D01*
X149583135Y-92304771D01*
X149639868Y-92193427D01*
X149654500Y-92101045D01*
X149654499Y-91698956D01*
X149644719Y-91637201D01*
X149639869Y-91606575D01*
X149610290Y-91548521D01*
X149599500Y-91503577D01*
X149599500Y-91141927D01*
X149616184Y-91086926D01*
X149624487Y-91074500D01*
X149674734Y-90999301D01*
X149689500Y-90925067D01*
X149689499Y-90174934D01*
X149674734Y-90100699D01*
X149674733Y-90100697D01*
X149644199Y-90055001D01*
X149627590Y-89996114D01*
X149644196Y-89945002D01*
X149674734Y-89899301D01*
X149689500Y-89825067D01*
X149689499Y-89074980D01*
X150311000Y-89074980D01*
X150311000Y-89195999D01*
X150311001Y-89196000D01*
X150660999Y-89196000D01*
X150661000Y-89195999D01*
X150661000Y-88846001D01*
X150660999Y-88846000D01*
X150539986Y-88846000D01*
X150539976Y-88846001D01*
X150465895Y-88860736D01*
X150465892Y-88860737D01*
X150381878Y-88916874D01*
X150381874Y-88916878D01*
X150325736Y-89000893D01*
X150311000Y-89074980D01*
X149689499Y-89074980D01*
X149689499Y-89074934D01*
X149674734Y-89000699D01*
X149618484Y-88916516D01*
X149534301Y-88860266D01*
X149460067Y-88845500D01*
X149209728Y-88845500D01*
X149151537Y-88826593D01*
X149117162Y-88781607D01*
X149083787Y-88693605D01*
X148993498Y-88562799D01*
X148993497Y-88562798D01*
X148993497Y-88562797D01*
X148874535Y-88457406D01*
X148874533Y-88457404D01*
X148874529Y-88457401D01*
X148874525Y-88457399D01*
X148874524Y-88457398D01*
X148733791Y-88383536D01*
X148579473Y-88345500D01*
X148579471Y-88345500D01*
X148420529Y-88345500D01*
X148420525Y-88345500D01*
X148415614Y-88346711D01*
X148354590Y-88342272D01*
X148321929Y-88320589D01*
X148037379Y-88036040D01*
X148037291Y-88035963D01*
X147991370Y-87990040D01*
X147876512Y-87901904D01*
X147803861Y-87846155D01*
X147777094Y-87830701D01*
X147754322Y-87817553D01*
X147713383Y-87772084D01*
X147706988Y-87711234D01*
X147737581Y-87658246D01*
X147750301Y-87648534D01*
X147793027Y-87621075D01*
X147793035Y-87621070D01*
X147901696Y-87526916D01*
X147950067Y-87471094D01*
X148027799Y-87350140D01*
X148058482Y-87282953D01*
X148098989Y-87144998D01*
X148102040Y-87123774D01*
X148109500Y-87071894D01*
X148109500Y-86450001D01*
X148109499Y-86449997D01*
X148106925Y-86437059D01*
X148089747Y-86350694D01*
X148089746Y-86350693D01*
X148088470Y-86344276D01*
X148088471Y-86305646D01*
X148089732Y-86299302D01*
X148089734Y-86299301D01*
X148099151Y-86251959D01*
X148104499Y-86225075D01*
X148104500Y-86225065D01*
X148104500Y-86178500D01*
X148123407Y-86120309D01*
X148172907Y-86084345D01*
X148203500Y-86079500D01*
X150330418Y-86079500D01*
X150338185Y-86079804D01*
G37*
G04 #@! TD.AperFunction*
M02*
