G04 #@! TF.GenerationSoftware,KiCad,Pcbnew,8.0.5*
G04 #@! TF.CreationDate,2024-12-08T19:55:37-06:00*
G04 #@! TF.ProjectId,kbxIrBlaster,6b627849-7242-46c6-9173-7465722e6b69,rev?*
G04 #@! TF.SameCoordinates,Original*
G04 #@! TF.FileFunction,Paste,Top*
G04 #@! TF.FilePolarity,Positive*
%FSLAX46Y46*%
G04 Gerber Fmt 4.6, Leading zero omitted, Abs format (unit mm)*
G04 Created by KiCad (PCBNEW 8.0.5) date 2024-12-08 19:55:37*
%MOMM*%
%LPD*%
G01*
G04 APERTURE LIST*
G04 Aperture macros list*
%AMRoundRect*
0 Rectangle with rounded corners*
0 $1 Rounding radius*
0 $2 $3 $4 $5 $6 $7 $8 $9 X,Y pos of 4 corners*
0 Add a 4 corners polygon primitive as box body*
4,1,4,$2,$3,$4,$5,$6,$7,$8,$9,$2,$3,0*
0 Add four circle primitives for the rounded corners*
1,1,$1+$1,$2,$3*
1,1,$1+$1,$4,$5*
1,1,$1+$1,$6,$7*
1,1,$1+$1,$8,$9*
0 Add four rect primitives between the rounded corners*
20,1,$1+$1,$2,$3,$4,$5,0*
20,1,$1+$1,$4,$5,$6,$7,0*
20,1,$1+$1,$6,$7,$8,$9,0*
20,1,$1+$1,$8,$9,$2,$3,0*%
%AMFreePoly0*
4,1,6,0.725000,-0.725000,-0.725000,-0.725000,-0.725000,0.125000,-0.125000,0.725000,0.725000,0.725000,0.725000,-0.725000,0.725000,-0.725000,$1*%
G04 Aperture macros list end*
%ADD10R,0.600000X1.450000*%
%ADD11R,0.300000X1.450000*%
%ADD12RoundRect,0.150000X0.512500X0.150000X-0.512500X0.150000X-0.512500X-0.150000X0.512500X-0.150000X0*%
%ADD13RoundRect,0.250000X0.262500X0.450000X-0.262500X0.450000X-0.262500X-0.450000X0.262500X-0.450000X0*%
%ADD14R,0.700000X0.700000*%
%ADD15RoundRect,0.250000X-0.262500X-0.450000X0.262500X-0.450000X0.262500X0.450000X-0.262500X0.450000X0*%
%ADD16RoundRect,0.225000X0.225000X0.250000X-0.225000X0.250000X-0.225000X-0.250000X0.225000X-0.250000X0*%
%ADD17RoundRect,0.218750X0.256250X-0.218750X0.256250X0.218750X-0.256250X0.218750X-0.256250X-0.218750X0*%
%ADD18R,0.800000X0.400000*%
%ADD19R,0.400000X0.800000*%
%ADD20FreePoly0,0.000000*%
%ADD21R,1.450000X1.450000*%
%ADD22RoundRect,0.135000X-0.185000X0.135000X-0.185000X-0.135000X0.185000X-0.135000X0.185000X0.135000X0*%
%ADD23RoundRect,0.140000X0.140000X0.170000X-0.140000X0.170000X-0.140000X-0.170000X0.140000X-0.170000X0*%
%ADD24RoundRect,0.225000X0.250000X-0.225000X0.250000X0.225000X-0.250000X0.225000X-0.250000X-0.225000X0*%
%ADD25RoundRect,0.050000X-0.285000X-0.100000X0.285000X-0.100000X0.285000X0.100000X-0.285000X0.100000X0*%
%ADD26RoundRect,0.135000X0.185000X-0.135000X0.185000X0.135000X-0.185000X0.135000X-0.185000X-0.135000X0*%
%ADD27RoundRect,0.225000X-0.250000X0.225000X-0.250000X-0.225000X0.250000X-0.225000X0.250000X0.225000X0*%
%ADD28RoundRect,0.140000X-0.140000X-0.170000X0.140000X-0.170000X0.140000X0.170000X-0.140000X0.170000X0*%
%ADD29RoundRect,0.150000X0.150000X-0.512500X0.150000X0.512500X-0.150000X0.512500X-0.150000X-0.512500X0*%
%ADD30RoundRect,0.250000X1.250000X0.550000X-1.250000X0.550000X-1.250000X-0.550000X1.250000X-0.550000X0*%
G04 APERTURE END LIST*
D10*
X146750000Y-106255000D03*
X147550000Y-106255000D03*
D11*
X148750000Y-106255000D03*
X149750000Y-106255000D03*
X150250000Y-106255000D03*
X151250000Y-106255000D03*
D10*
X152450000Y-106255000D03*
X153250000Y-106255000D03*
X153250000Y-106255000D03*
X152450000Y-106255000D03*
D11*
X151750000Y-106255000D03*
X150750000Y-106255000D03*
X149250000Y-106255000D03*
X148250000Y-106255000D03*
D10*
X147550000Y-106255000D03*
X146750000Y-106255000D03*
D12*
X151137500Y-104050000D03*
X151137500Y-103100000D03*
X151137500Y-102150000D03*
X148862500Y-102150000D03*
X148862500Y-103100000D03*
X148862500Y-104050000D03*
D13*
X143402199Y-103900000D03*
X141577199Y-103900000D03*
D14*
X150915000Y-90550000D03*
X150915000Y-89450000D03*
X149085000Y-89450000D03*
X149085000Y-90550000D03*
D15*
X161787500Y-79400000D03*
X163612500Y-79400000D03*
D13*
X143402199Y-106000000D03*
X141577199Y-106000000D03*
D16*
X142275000Y-77300000D03*
X140725000Y-77300000D03*
D17*
X147382717Y-92587500D03*
X147382717Y-91012500D03*
D13*
X163612500Y-81500000D03*
X161787500Y-81500000D03*
D18*
X144095300Y-73200000D03*
X144095300Y-74000000D03*
X144095300Y-74800000D03*
X144095300Y-75600000D03*
X144095300Y-76400000D03*
X144095300Y-77200000D03*
X144095300Y-78000000D03*
X144095300Y-78800000D03*
X144095300Y-79600000D03*
X144095300Y-80400000D03*
X144095300Y-81200000D03*
D19*
X145195300Y-82100000D03*
X145995300Y-82100000D03*
X146795300Y-82100000D03*
X147595300Y-82100000D03*
X148395300Y-82100000D03*
X149195300Y-82100000D03*
X149995300Y-82100000D03*
X150795300Y-82100000D03*
X151595300Y-82100000D03*
X152395300Y-82100000D03*
X153195300Y-82100000D03*
X153995300Y-82100000D03*
X154795300Y-82100000D03*
D18*
X155895300Y-81200000D03*
X155895300Y-80400000D03*
X155895300Y-79600000D03*
X155895300Y-78800000D03*
X155895300Y-78000000D03*
X155895300Y-77200000D03*
X155895300Y-76400000D03*
X155895300Y-75600000D03*
X155895300Y-74800000D03*
X155895300Y-74000000D03*
X155895300Y-73200000D03*
D19*
X154795300Y-72300000D03*
X153995300Y-72300000D03*
X153195300Y-72300000D03*
X152395300Y-72300000D03*
X151595300Y-72300000D03*
X150795300Y-72300000D03*
X149995300Y-72300000D03*
X149195300Y-72300000D03*
X148395300Y-72300000D03*
X147595300Y-72300000D03*
X146795300Y-72300000D03*
X145995300Y-72300000D03*
X145195300Y-72300000D03*
D20*
X148020300Y-75225000D03*
D21*
X148020300Y-77200000D03*
X148020300Y-79175000D03*
X149995300Y-75225000D03*
X149995300Y-77200000D03*
X149995300Y-79175000D03*
X151970300Y-75225000D03*
X151970300Y-77200000D03*
X151970300Y-79175000D03*
D14*
X155945300Y-72250000D03*
X155945300Y-82150000D03*
X144045300Y-82150000D03*
X144045300Y-72250000D03*
D13*
X163612500Y-83600000D03*
X161787500Y-83600000D03*
D22*
X151595300Y-83690000D03*
X151595300Y-84710000D03*
D13*
X138412500Y-87200000D03*
X136587500Y-87200000D03*
X138412500Y-89300000D03*
X136587500Y-89300000D03*
D15*
X161787500Y-93100000D03*
X163612500Y-93100000D03*
X161787500Y-95200000D03*
X163612500Y-95200000D03*
D22*
X153100000Y-83689652D03*
X153100000Y-84709652D03*
D23*
X142480000Y-75900000D03*
X141520000Y-75900000D03*
D15*
X161787500Y-91000000D03*
X163612500Y-91000000D03*
D24*
X138400000Y-83075000D03*
X138400000Y-81525000D03*
D25*
X146660000Y-94050000D03*
X146660000Y-94550000D03*
X146660000Y-95050000D03*
X146660000Y-95550000D03*
X148140000Y-95550000D03*
X148140000Y-95050000D03*
X148140000Y-94550000D03*
X148140000Y-94050000D03*
D26*
X149000000Y-84701844D03*
X149000000Y-83681844D03*
D27*
X138400000Y-78325000D03*
X138400000Y-79875000D03*
D23*
X142480000Y-74800000D03*
X141520000Y-74800000D03*
D28*
X149120000Y-91900000D03*
X150080000Y-91900000D03*
D29*
X140250000Y-81437500D03*
X141200000Y-81437500D03*
X142150000Y-81437500D03*
X142150000Y-79162500D03*
X140250000Y-79162500D03*
D13*
X138412500Y-85100000D03*
X136587500Y-85100000D03*
X143402199Y-108100000D03*
X141577199Y-108100000D03*
D30*
X143900000Y-99800000D03*
X139500000Y-99800000D03*
M02*
