G04 #@! TF.GenerationSoftware,KiCad,Pcbnew,(6.0.0-0)*
G04 #@! TF.CreationDate,2022-04-14T23:47:31-05:00*
G04 #@! TF.ProjectId,kbxIrBlaster,6b627849-7242-46c6-9173-7465722e6b69,rev?*
G04 #@! TF.SameCoordinates,Original*
G04 #@! TF.FileFunction,Legend,Top*
G04 #@! TF.FilePolarity,Positive*
%FSLAX46Y46*%
G04 Gerber Fmt 4.6, Leading zero omitted, Abs format (unit mm)*
G04 Created by KiCad (PCBNEW (6.0.0-0)) date 2022-04-14 23:47:31*
%MOMM*%
%LPD*%
G01*
G04 APERTURE LIST*
%ADD10C,0.160000*%
%ADD11C,0.200000*%
%ADD12C,0.180000*%
%ADD13C,0.150000*%
%ADD14C,0.500000*%
G04 APERTURE END LIST*
D10*
X196503166Y-95729333D02*
X195803166Y-95729333D01*
X196303166Y-95496000D01*
X195803166Y-95262666D01*
X196503166Y-95262666D01*
X196503166Y-94929333D02*
X196036500Y-94929333D01*
X195803166Y-94929333D02*
X195836500Y-94962666D01*
X195869833Y-94929333D01*
X195836500Y-94896000D01*
X195803166Y-94929333D01*
X195869833Y-94929333D01*
X196469833Y-94296000D02*
X196503166Y-94362666D01*
X196503166Y-94496000D01*
X196469833Y-94562666D01*
X196436500Y-94596000D01*
X196369833Y-94629333D01*
X196169833Y-94629333D01*
X196103166Y-94596000D01*
X196069833Y-94562666D01*
X196036500Y-94496000D01*
X196036500Y-94362666D01*
X196069833Y-94296000D01*
X196503166Y-93996000D02*
X196036500Y-93996000D01*
X196169833Y-93996000D02*
X196103166Y-93962666D01*
X196069833Y-93929333D01*
X196036500Y-93862666D01*
X196036500Y-93796000D01*
X196503166Y-93462666D02*
X196469833Y-93529333D01*
X196436500Y-93562666D01*
X196369833Y-93596000D01*
X196169833Y-93596000D01*
X196103166Y-93562666D01*
X196069833Y-93529333D01*
X196036500Y-93462666D01*
X196036500Y-93362666D01*
X196069833Y-93296000D01*
X196103166Y-93262666D01*
X196169833Y-93229333D01*
X196369833Y-93229333D01*
X196436500Y-93262666D01*
X196469833Y-93296000D01*
X196503166Y-93362666D01*
X196503166Y-93462666D01*
X196236500Y-92929333D02*
X196236500Y-92396000D01*
X195803166Y-92062666D02*
X196369833Y-92062666D01*
X196436500Y-92029333D01*
X196469833Y-91996000D01*
X196503166Y-91929333D01*
X196503166Y-91796000D01*
X196469833Y-91729333D01*
X196436500Y-91696000D01*
X196369833Y-91662666D01*
X195803166Y-91662666D01*
X196469833Y-91362666D02*
X196503166Y-91262666D01*
X196503166Y-91096000D01*
X196469833Y-91029333D01*
X196436500Y-90996000D01*
X196369833Y-90962666D01*
X196303166Y-90962666D01*
X196236500Y-90996000D01*
X196203166Y-91029333D01*
X196169833Y-91096000D01*
X196136500Y-91229333D01*
X196103166Y-91296000D01*
X196069833Y-91329333D01*
X196003166Y-91362666D01*
X195936500Y-91362666D01*
X195869833Y-91329333D01*
X195836500Y-91296000D01*
X195803166Y-91229333D01*
X195803166Y-91062666D01*
X195836500Y-90962666D01*
X196136500Y-90429333D02*
X196169833Y-90329333D01*
X196203166Y-90296000D01*
X196269833Y-90262666D01*
X196369833Y-90262666D01*
X196436500Y-90296000D01*
X196469833Y-90329333D01*
X196503166Y-90396000D01*
X196503166Y-90662666D01*
X195803166Y-90662666D01*
X195803166Y-90429333D01*
X195836500Y-90362666D01*
X195869833Y-90329333D01*
X195936500Y-90296000D01*
X196003166Y-90296000D01*
X196069833Y-90329333D01*
X196103166Y-90362666D01*
X196136500Y-90429333D01*
X196136500Y-90662666D01*
X197630166Y-95729333D02*
X196930166Y-95729333D01*
X196930166Y-95462666D01*
X196963500Y-95396000D01*
X196996833Y-95362666D01*
X197063500Y-95329333D01*
X197163500Y-95329333D01*
X197230166Y-95362666D01*
X197263500Y-95396000D01*
X197296833Y-95462666D01*
X197296833Y-95729333D01*
X197630166Y-94929333D02*
X197596833Y-94996000D01*
X197563500Y-95029333D01*
X197496833Y-95062666D01*
X197296833Y-95062666D01*
X197230166Y-95029333D01*
X197196833Y-94996000D01*
X197163500Y-94929333D01*
X197163500Y-94829333D01*
X197196833Y-94762666D01*
X197230166Y-94729333D01*
X197296833Y-94696000D01*
X197496833Y-94696000D01*
X197563500Y-94729333D01*
X197596833Y-94762666D01*
X197630166Y-94829333D01*
X197630166Y-94929333D01*
X197163500Y-94462666D02*
X197630166Y-94329333D01*
X197296833Y-94196000D01*
X197630166Y-94062666D01*
X197163500Y-93929333D01*
X197596833Y-93396000D02*
X197630166Y-93462666D01*
X197630166Y-93596000D01*
X197596833Y-93662666D01*
X197530166Y-93696000D01*
X197263500Y-93696000D01*
X197196833Y-93662666D01*
X197163500Y-93596000D01*
X197163500Y-93462666D01*
X197196833Y-93396000D01*
X197263500Y-93362666D01*
X197330166Y-93362666D01*
X197396833Y-93696000D01*
X197630166Y-93062666D02*
X197163500Y-93062666D01*
X197296833Y-93062666D02*
X197230166Y-93029333D01*
X197196833Y-92996000D01*
X197163500Y-92929333D01*
X197163500Y-92862666D01*
X197630166Y-92096000D02*
X197163500Y-92096000D01*
X196930166Y-92096000D02*
X196963500Y-92129333D01*
X196996833Y-92096000D01*
X196963500Y-92062666D01*
X196930166Y-92096000D01*
X196996833Y-92096000D01*
X197163500Y-91762666D02*
X197630166Y-91762666D01*
X197230166Y-91762666D02*
X197196833Y-91729333D01*
X197163500Y-91662666D01*
X197163500Y-91562666D01*
X197196833Y-91496000D01*
X197263500Y-91462666D01*
X197630166Y-91462666D01*
X197163500Y-91129333D02*
X197863500Y-91129333D01*
X197196833Y-91129333D02*
X197163500Y-91062666D01*
X197163500Y-90929333D01*
X197196833Y-90862666D01*
X197230166Y-90829333D01*
X197296833Y-90796000D01*
X197496833Y-90796000D01*
X197563500Y-90829333D01*
X197596833Y-90862666D01*
X197630166Y-90929333D01*
X197630166Y-91062666D01*
X197596833Y-91129333D01*
X197163500Y-90196000D02*
X197630166Y-90196000D01*
X197163500Y-90496000D02*
X197530166Y-90496000D01*
X197596833Y-90462666D01*
X197630166Y-90396000D01*
X197630166Y-90296000D01*
X197596833Y-90229333D01*
X197563500Y-90196000D01*
X197163500Y-89962666D02*
X197163500Y-89696000D01*
X196930166Y-89862666D02*
X197530166Y-89862666D01*
X197596833Y-89829333D01*
X197630166Y-89762666D01*
X197630166Y-89696000D01*
X197630166Y-88829333D02*
X197596833Y-88896000D01*
X197563500Y-88929333D01*
X197496833Y-88962666D01*
X197296833Y-88962666D01*
X197230166Y-88929333D01*
X197196833Y-88896000D01*
X197163500Y-88829333D01*
X197163500Y-88729333D01*
X197196833Y-88662666D01*
X197230166Y-88629333D01*
X197296833Y-88596000D01*
X197496833Y-88596000D01*
X197563500Y-88629333D01*
X197596833Y-88662666D01*
X197630166Y-88729333D01*
X197630166Y-88829333D01*
X197163500Y-88296000D02*
X197630166Y-88296000D01*
X197230166Y-88296000D02*
X197196833Y-88262666D01*
X197163500Y-88196000D01*
X197163500Y-88096000D01*
X197196833Y-88029333D01*
X197263500Y-87996000D01*
X197630166Y-87996000D01*
X197630166Y-87562666D02*
X197596833Y-87629333D01*
X197530166Y-87662666D01*
X196930166Y-87662666D01*
X197163500Y-87362666D02*
X197630166Y-87196000D01*
X197163500Y-87029333D02*
X197630166Y-87196000D01*
X197796833Y-87262666D01*
X197830166Y-87296000D01*
X197863500Y-87362666D01*
D11*
X149693333Y-77607142D02*
X149645714Y-77654761D01*
X149502857Y-77702380D01*
X149407619Y-77702380D01*
X149264761Y-77654761D01*
X149169523Y-77559523D01*
X149121904Y-77464285D01*
X149074285Y-77273809D01*
X149074285Y-77130952D01*
X149121904Y-76940476D01*
X149169523Y-76845238D01*
X149264761Y-76750000D01*
X149407619Y-76702380D01*
X149502857Y-76702380D01*
X149645714Y-76750000D01*
X149693333Y-76797619D01*
X150550476Y-77035714D02*
X150550476Y-77702380D01*
X150312380Y-76654761D02*
X150074285Y-77369047D01*
X150693333Y-77369047D01*
X153971666Y-88777380D02*
X153971666Y-89491666D01*
X153924047Y-89634523D01*
X153828809Y-89729761D01*
X153685952Y-89777380D01*
X153590714Y-89777380D01*
X154924047Y-88777380D02*
X154447857Y-88777380D01*
X154400238Y-89253571D01*
X154447857Y-89205952D01*
X154543095Y-89158333D01*
X154781190Y-89158333D01*
X154876428Y-89205952D01*
X154924047Y-89253571D01*
X154971666Y-89348809D01*
X154971666Y-89586904D01*
X154924047Y-89682142D01*
X154876428Y-89729761D01*
X154781190Y-89777380D01*
X154543095Y-89777380D01*
X154447857Y-89729761D01*
X154400238Y-89682142D01*
D10*
X156654571Y-73920000D02*
X156583142Y-73884285D01*
X156476000Y-73884285D01*
X156368857Y-73920000D01*
X156297428Y-73991428D01*
X156261714Y-74062857D01*
X156226000Y-74205714D01*
X156226000Y-74312857D01*
X156261714Y-74455714D01*
X156297428Y-74527142D01*
X156368857Y-74598571D01*
X156476000Y-74634285D01*
X156547428Y-74634285D01*
X156654571Y-74598571D01*
X156690285Y-74562857D01*
X156690285Y-74312857D01*
X156547428Y-74312857D01*
X157011714Y-74634285D02*
X157011714Y-73884285D01*
X157440285Y-74634285D01*
X157440285Y-73884285D01*
X157797428Y-74634285D02*
X157797428Y-73884285D01*
X157976000Y-73884285D01*
X158083142Y-73920000D01*
X158154571Y-73991428D01*
X158190285Y-74062857D01*
X158226000Y-74205714D01*
X158226000Y-74312857D01*
X158190285Y-74455714D01*
X158154571Y-74527142D01*
X158083142Y-74598571D01*
X157976000Y-74634285D01*
X157797428Y-74634285D01*
X156146571Y-84044285D02*
X156575142Y-84044285D01*
X156360857Y-84794285D02*
X156360857Y-84044285D01*
X156753714Y-84044285D02*
X157253714Y-84794285D01*
X157253714Y-84044285D02*
X156753714Y-84794285D01*
X156130714Y-78964285D02*
X156380714Y-79714285D01*
X156630714Y-78964285D01*
X156880714Y-79428571D02*
X157452142Y-79428571D01*
X157166428Y-79714285D02*
X157166428Y-79142857D01*
X156593000Y-82254285D02*
X156343000Y-81897142D01*
X156164428Y-82254285D02*
X156164428Y-81504285D01*
X156450142Y-81504285D01*
X156521571Y-81540000D01*
X156557285Y-81575714D01*
X156593000Y-81647142D01*
X156593000Y-81754285D01*
X156557285Y-81825714D01*
X156521571Y-81861428D01*
X156450142Y-81897142D01*
X156164428Y-81897142D01*
X156843000Y-81504285D02*
X157343000Y-82254285D01*
X157343000Y-81504285D02*
X156843000Y-82254285D01*
X156474000Y-76424285D02*
X156474000Y-76960000D01*
X156438285Y-77067142D01*
X156366857Y-77138571D01*
X156259714Y-77174285D01*
X156188285Y-77174285D01*
X156831142Y-77174285D02*
X156831142Y-76424285D01*
X157116857Y-76424285D01*
X157188285Y-76460000D01*
X157224000Y-76495714D01*
X157259714Y-76567142D01*
X157259714Y-76674285D01*
X157224000Y-76745714D01*
X157188285Y-76781428D01*
X157116857Y-76817142D01*
X156831142Y-76817142D01*
X157902571Y-76424285D02*
X157759714Y-76424285D01*
X157688285Y-76460000D01*
X157652571Y-76495714D01*
X157581142Y-76602857D01*
X157545428Y-76745714D01*
X157545428Y-77031428D01*
X157581142Y-77102857D01*
X157616857Y-77138571D01*
X157688285Y-77174285D01*
X157831142Y-77174285D01*
X157902571Y-77138571D01*
X157938285Y-77102857D01*
X157974000Y-77031428D01*
X157974000Y-76852857D01*
X157938285Y-76781428D01*
X157902571Y-76745714D01*
X157831142Y-76710000D01*
X157688285Y-76710000D01*
X157616857Y-76745714D01*
X157581142Y-76781428D01*
X157545428Y-76852857D01*
D11*
X147851761Y-73723333D02*
X147899380Y-73580476D01*
X147899380Y-73342380D01*
X147851761Y-73247142D01*
X147804142Y-73199523D01*
X147708904Y-73151904D01*
X147613666Y-73151904D01*
X147518428Y-73199523D01*
X147470809Y-73247142D01*
X147423190Y-73342380D01*
X147375571Y-73532857D01*
X147327952Y-73628095D01*
X147280333Y-73675714D01*
X147185095Y-73723333D01*
X147089857Y-73723333D01*
X146994619Y-73675714D01*
X146947000Y-73628095D01*
X146899380Y-73532857D01*
X146899380Y-73294761D01*
X146947000Y-73151904D01*
X146899380Y-72818571D02*
X147899380Y-72580476D01*
X147185095Y-72390000D01*
X147899380Y-72199523D01*
X146899380Y-71961428D01*
X146994619Y-71628095D02*
X146947000Y-71580476D01*
X146899380Y-71485238D01*
X146899380Y-71247142D01*
X146947000Y-71151904D01*
X146994619Y-71104285D01*
X147089857Y-71056666D01*
X147185095Y-71056666D01*
X147327952Y-71104285D01*
X147899380Y-71675714D01*
X147899380Y-71056666D01*
D10*
X140789428Y-73407857D02*
X140825142Y-73300714D01*
X140860857Y-73265000D01*
X140932285Y-73229285D01*
X141039428Y-73229285D01*
X141110857Y-73265000D01*
X141146571Y-73300714D01*
X141182285Y-73372142D01*
X141182285Y-73657857D01*
X140432285Y-73657857D01*
X140432285Y-73407857D01*
X140468000Y-73336428D01*
X140503714Y-73300714D01*
X140575142Y-73265000D01*
X140646571Y-73265000D01*
X140718000Y-73300714D01*
X140753714Y-73336428D01*
X140789428Y-73407857D01*
X140789428Y-73657857D01*
X140432285Y-72765000D02*
X140432285Y-72622142D01*
X140468000Y-72550714D01*
X140539428Y-72479285D01*
X140682285Y-72443571D01*
X140932285Y-72443571D01*
X141075142Y-72479285D01*
X141146571Y-72550714D01*
X141182285Y-72622142D01*
X141182285Y-72765000D01*
X141146571Y-72836428D01*
X141075142Y-72907857D01*
X140932285Y-72943571D01*
X140682285Y-72943571D01*
X140539428Y-72907857D01*
X140468000Y-72836428D01*
X140432285Y-72765000D01*
X140432285Y-71979285D02*
X140432285Y-71836428D01*
X140468000Y-71765000D01*
X140539428Y-71693571D01*
X140682285Y-71657857D01*
X140932285Y-71657857D01*
X141075142Y-71693571D01*
X141146571Y-71765000D01*
X141182285Y-71836428D01*
X141182285Y-71979285D01*
X141146571Y-72050714D01*
X141075142Y-72122142D01*
X140932285Y-72157857D01*
X140682285Y-72157857D01*
X140539428Y-72122142D01*
X140468000Y-72050714D01*
X140432285Y-71979285D01*
X140432285Y-71443571D02*
X140432285Y-71015000D01*
X141182285Y-71229285D02*
X140432285Y-71229285D01*
D11*
X166917619Y-94075238D02*
X166870000Y-94170476D01*
X166774761Y-94265714D01*
X166631904Y-94408571D01*
X166584285Y-94503809D01*
X166584285Y-94599047D01*
X166822380Y-94551428D02*
X166774761Y-94646666D01*
X166679523Y-94741904D01*
X166489047Y-94789523D01*
X166155714Y-94789523D01*
X165965238Y-94741904D01*
X165870000Y-94646666D01*
X165822380Y-94551428D01*
X165822380Y-94360952D01*
X165870000Y-94265714D01*
X165965238Y-94170476D01*
X166155714Y-94122857D01*
X166489047Y-94122857D01*
X166679523Y-94170476D01*
X166774761Y-94265714D01*
X166822380Y-94360952D01*
X166822380Y-94551428D01*
X166822380Y-93170476D02*
X166822380Y-93741904D01*
X166822380Y-93456190D02*
X165822380Y-93456190D01*
X165965238Y-93551428D01*
X166060476Y-93646666D01*
X166108095Y-93741904D01*
X142607142Y-81566666D02*
X142654761Y-81614285D01*
X142702380Y-81757142D01*
X142702380Y-81852380D01*
X142654761Y-81995238D01*
X142559523Y-82090476D01*
X142464285Y-82138095D01*
X142273809Y-82185714D01*
X142130952Y-82185714D01*
X141940476Y-82138095D01*
X141845238Y-82090476D01*
X141750000Y-81995238D01*
X141702380Y-81852380D01*
X141702380Y-81757142D01*
X141750000Y-81614285D01*
X141797619Y-81566666D01*
X141702380Y-81233333D02*
X141702380Y-80614285D01*
X142083333Y-80947619D01*
X142083333Y-80804761D01*
X142130952Y-80709523D01*
X142178571Y-80661904D01*
X142273809Y-80614285D01*
X142511904Y-80614285D01*
X142607142Y-80661904D01*
X142654761Y-80709523D01*
X142702380Y-80804761D01*
X142702380Y-81090476D01*
X142654761Y-81185714D01*
X142607142Y-81233333D01*
X149693333Y-88552380D02*
X149360000Y-88076190D01*
X149121904Y-88552380D02*
X149121904Y-87552380D01*
X149502857Y-87552380D01*
X149598095Y-87600000D01*
X149645714Y-87647619D01*
X149693333Y-87742857D01*
X149693333Y-87885714D01*
X149645714Y-87980952D01*
X149598095Y-88028571D01*
X149502857Y-88076190D01*
X149121904Y-88076190D01*
X150026666Y-87552380D02*
X150693333Y-87552380D01*
X150264761Y-88552380D01*
X142583333Y-83383380D02*
X142250000Y-82907190D01*
X142011904Y-83383380D02*
X142011904Y-82383380D01*
X142392857Y-82383380D01*
X142488095Y-82431000D01*
X142535714Y-82478619D01*
X142583333Y-82573857D01*
X142583333Y-82716714D01*
X142535714Y-82811952D01*
X142488095Y-82859571D01*
X142392857Y-82907190D01*
X142011904Y-82907190D01*
X143440476Y-82383380D02*
X143250000Y-82383380D01*
X143154761Y-82431000D01*
X143107142Y-82478619D01*
X143011904Y-82621476D01*
X142964285Y-82811952D01*
X142964285Y-83192904D01*
X143011904Y-83288142D01*
X143059523Y-83335761D01*
X143154761Y-83383380D01*
X143345238Y-83383380D01*
X143440476Y-83335761D01*
X143488095Y-83288142D01*
X143535714Y-83192904D01*
X143535714Y-82954809D01*
X143488095Y-82859571D01*
X143440476Y-82811952D01*
X143345238Y-82764333D01*
X143154761Y-82764333D01*
X143059523Y-82811952D01*
X143011904Y-82859571D01*
X142964285Y-82954809D01*
X149693333Y-85207142D02*
X149645714Y-85254761D01*
X149502857Y-85302380D01*
X149407619Y-85302380D01*
X149264761Y-85254761D01*
X149169523Y-85159523D01*
X149121904Y-85064285D01*
X149074285Y-84873809D01*
X149074285Y-84730952D01*
X149121904Y-84540476D01*
X149169523Y-84445238D01*
X149264761Y-84350000D01*
X149407619Y-84302380D01*
X149502857Y-84302380D01*
X149645714Y-84350000D01*
X149693333Y-84397619D01*
X150645714Y-85302380D02*
X150074285Y-85302380D01*
X150360000Y-85302380D02*
X150360000Y-84302380D01*
X150264761Y-84445238D01*
X150169523Y-84540476D01*
X150074285Y-84588095D01*
X148994904Y-73477380D02*
X148994904Y-72477380D01*
X149233000Y-72477380D01*
X149375857Y-72525000D01*
X149471095Y-72620238D01*
X149518714Y-72715476D01*
X149566333Y-72905952D01*
X149566333Y-73048809D01*
X149518714Y-73239285D01*
X149471095Y-73334523D01*
X149375857Y-73429761D01*
X149233000Y-73477380D01*
X148994904Y-73477380D01*
X150518714Y-73477380D02*
X149947285Y-73477380D01*
X150233000Y-73477380D02*
X150233000Y-72477380D01*
X150137761Y-72620238D01*
X150042523Y-72715476D01*
X149947285Y-72763095D01*
X142583333Y-85923380D02*
X142250000Y-85447190D01*
X142011904Y-85923380D02*
X142011904Y-84923380D01*
X142392857Y-84923380D01*
X142488095Y-84971000D01*
X142535714Y-85018619D01*
X142583333Y-85113857D01*
X142583333Y-85256714D01*
X142535714Y-85351952D01*
X142488095Y-85399571D01*
X142392857Y-85447190D01*
X142011904Y-85447190D01*
X143488095Y-84923380D02*
X143011904Y-84923380D01*
X142964285Y-85399571D01*
X143011904Y-85351952D01*
X143107142Y-85304333D01*
X143345238Y-85304333D01*
X143440476Y-85351952D01*
X143488095Y-85399571D01*
X143535714Y-85494809D01*
X143535714Y-85732904D01*
X143488095Y-85828142D01*
X143440476Y-85875761D01*
X143345238Y-85923380D01*
X143107142Y-85923380D01*
X143011904Y-85875761D01*
X142964285Y-85828142D01*
X149121904Y-80843380D02*
X149121904Y-79843380D01*
X149360000Y-79843380D01*
X149502857Y-79891000D01*
X149598095Y-79986238D01*
X149645714Y-80081476D01*
X149693333Y-80271952D01*
X149693333Y-80414809D01*
X149645714Y-80605285D01*
X149598095Y-80700523D01*
X149502857Y-80795761D01*
X149360000Y-80843380D01*
X149121904Y-80843380D01*
X150026666Y-79843380D02*
X150645714Y-79843380D01*
X150312380Y-80224333D01*
X150455238Y-80224333D01*
X150550476Y-80271952D01*
X150598095Y-80319571D01*
X150645714Y-80414809D01*
X150645714Y-80652904D01*
X150598095Y-80748142D01*
X150550476Y-80795761D01*
X150455238Y-80843380D01*
X150169523Y-80843380D01*
X150074285Y-80795761D01*
X150026666Y-80748142D01*
X147851761Y-90233333D02*
X147899380Y-90090476D01*
X147899380Y-89852380D01*
X147851761Y-89757142D01*
X147804142Y-89709523D01*
X147708904Y-89661904D01*
X147613666Y-89661904D01*
X147518428Y-89709523D01*
X147470809Y-89757142D01*
X147423190Y-89852380D01*
X147375571Y-90042857D01*
X147327952Y-90138095D01*
X147280333Y-90185714D01*
X147185095Y-90233333D01*
X147089857Y-90233333D01*
X146994619Y-90185714D01*
X146947000Y-90138095D01*
X146899380Y-90042857D01*
X146899380Y-89804761D01*
X146947000Y-89661904D01*
X146899380Y-89328571D02*
X147899380Y-89090476D01*
X147185095Y-88900000D01*
X147899380Y-88709523D01*
X146899380Y-88471428D01*
X147899380Y-87566666D02*
X147899380Y-88138095D01*
X147899380Y-87852380D02*
X146899380Y-87852380D01*
X147042238Y-87947619D01*
X147137476Y-88042857D01*
X147185095Y-88138095D01*
D10*
X141182285Y-89989285D02*
X140825142Y-90239285D01*
X141182285Y-90417857D02*
X140432285Y-90417857D01*
X140432285Y-90132142D01*
X140468000Y-90060714D01*
X140503714Y-90025000D01*
X140575142Y-89989285D01*
X140682285Y-89989285D01*
X140753714Y-90025000D01*
X140789428Y-90060714D01*
X140825142Y-90132142D01*
X140825142Y-90417857D01*
X140789428Y-89667857D02*
X140789428Y-89417857D01*
X141182285Y-89310714D02*
X141182285Y-89667857D01*
X140432285Y-89667857D01*
X140432285Y-89310714D01*
X141146571Y-89025000D02*
X141182285Y-88917857D01*
X141182285Y-88739285D01*
X141146571Y-88667857D01*
X141110857Y-88632142D01*
X141039428Y-88596428D01*
X140968000Y-88596428D01*
X140896571Y-88632142D01*
X140860857Y-88667857D01*
X140825142Y-88739285D01*
X140789428Y-88882142D01*
X140753714Y-88953571D01*
X140718000Y-88989285D01*
X140646571Y-89025000D01*
X140575142Y-89025000D01*
X140503714Y-88989285D01*
X140468000Y-88953571D01*
X140432285Y-88882142D01*
X140432285Y-88703571D01*
X140468000Y-88596428D01*
X140789428Y-88275000D02*
X140789428Y-88025000D01*
X141182285Y-87917857D02*
X141182285Y-88275000D01*
X140432285Y-88275000D01*
X140432285Y-87917857D01*
X140432285Y-87703571D02*
X140432285Y-87275000D01*
X141182285Y-87489285D02*
X140432285Y-87489285D01*
D11*
X142583333Y-75857142D02*
X142535714Y-75904761D01*
X142392857Y-75952380D01*
X142297619Y-75952380D01*
X142154761Y-75904761D01*
X142059523Y-75809523D01*
X142011904Y-75714285D01*
X141964285Y-75523809D01*
X141964285Y-75380952D01*
X142011904Y-75190476D01*
X142059523Y-75095238D01*
X142154761Y-75000000D01*
X142297619Y-74952380D01*
X142392857Y-74952380D01*
X142535714Y-75000000D01*
X142583333Y-75047619D01*
X142964285Y-75047619D02*
X143011904Y-75000000D01*
X143107142Y-74952380D01*
X143345238Y-74952380D01*
X143440476Y-75000000D01*
X143488095Y-75047619D01*
X143535714Y-75142857D01*
X143535714Y-75238095D01*
X143488095Y-75380952D01*
X142916666Y-75952380D01*
X143535714Y-75952380D01*
X140422380Y-76326904D02*
X141231904Y-76326904D01*
X141327142Y-76279285D01*
X141374761Y-76231666D01*
X141422380Y-76136428D01*
X141422380Y-75945952D01*
X141374761Y-75850714D01*
X141327142Y-75803095D01*
X141231904Y-75755476D01*
X140422380Y-75755476D01*
X140422380Y-75374523D02*
X140422380Y-74755476D01*
X140803333Y-75088809D01*
X140803333Y-74945952D01*
X140850952Y-74850714D01*
X140898571Y-74803095D01*
X140993809Y-74755476D01*
X141231904Y-74755476D01*
X141327142Y-74803095D01*
X141374761Y-74850714D01*
X141422380Y-74945952D01*
X141422380Y-75231666D01*
X141374761Y-75326904D01*
X141327142Y-75374523D01*
X158702380Y-92083333D02*
X159416666Y-92083333D01*
X159559523Y-92130952D01*
X159654761Y-92226190D01*
X159702380Y-92369047D01*
X159702380Y-92464285D01*
X158702380Y-91178571D02*
X158702380Y-91369047D01*
X158750000Y-91464285D01*
X158797619Y-91511904D01*
X158940476Y-91607142D01*
X159130952Y-91654761D01*
X159511904Y-91654761D01*
X159607142Y-91607142D01*
X159654761Y-91559523D01*
X159702380Y-91464285D01*
X159702380Y-91273809D01*
X159654761Y-91178571D01*
X159607142Y-91130952D01*
X159511904Y-91083333D01*
X159273809Y-91083333D01*
X159178571Y-91130952D01*
X159130952Y-91178571D01*
X159083333Y-91273809D01*
X159083333Y-91464285D01*
X159130952Y-91559523D01*
X159178571Y-91607142D01*
X159273809Y-91654761D01*
D10*
X146542142Y-91525285D02*
X146113571Y-91525285D01*
X146327857Y-91525285D02*
X146327857Y-90775285D01*
X146256428Y-90882428D01*
X146185000Y-90953857D01*
X146113571Y-90989571D01*
X147185000Y-91025285D02*
X147185000Y-91525285D01*
X147006428Y-90739571D02*
X146827857Y-91275285D01*
X147292142Y-91275285D01*
X153376428Y-90775285D02*
X153840714Y-90775285D01*
X153590714Y-91061000D01*
X153697857Y-91061000D01*
X153769285Y-91096714D01*
X153805000Y-91132428D01*
X153840714Y-91203857D01*
X153840714Y-91382428D01*
X153805000Y-91453857D01*
X153769285Y-91489571D01*
X153697857Y-91525285D01*
X153483571Y-91525285D01*
X153412142Y-91489571D01*
X153376428Y-91453857D01*
X154055000Y-90775285D02*
X154305000Y-91525285D01*
X154555000Y-90775285D01*
X154733571Y-90775285D02*
X155197857Y-90775285D01*
X154947857Y-91061000D01*
X155055000Y-91061000D01*
X155126428Y-91096714D01*
X155162142Y-91132428D01*
X155197857Y-91203857D01*
X155197857Y-91382428D01*
X155162142Y-91453857D01*
X155126428Y-91489571D01*
X155055000Y-91525285D01*
X154840714Y-91525285D01*
X154769285Y-91489571D01*
X154733571Y-91453857D01*
X151622142Y-91525285D02*
X151193571Y-91525285D01*
X151407857Y-91525285D02*
X151407857Y-90775285D01*
X151336428Y-90882428D01*
X151265000Y-90953857D01*
X151193571Y-90989571D01*
X151872142Y-90775285D02*
X152336428Y-90775285D01*
X152086428Y-91061000D01*
X152193571Y-91061000D01*
X152265000Y-91096714D01*
X152300714Y-91132428D01*
X152336428Y-91203857D01*
X152336428Y-91382428D01*
X152300714Y-91453857D01*
X152265000Y-91489571D01*
X152193571Y-91525285D01*
X151979285Y-91525285D01*
X151907857Y-91489571D01*
X151872142Y-91453857D01*
X149082142Y-91525285D02*
X148653571Y-91525285D01*
X148867857Y-91525285D02*
X148867857Y-90775285D01*
X148796428Y-90882428D01*
X148725000Y-90953857D01*
X148653571Y-90989571D01*
X149367857Y-90846714D02*
X149403571Y-90811000D01*
X149475000Y-90775285D01*
X149653571Y-90775285D01*
X149725000Y-90811000D01*
X149760714Y-90846714D01*
X149796428Y-90918142D01*
X149796428Y-90989571D01*
X149760714Y-91096714D01*
X149332142Y-91525285D01*
X149796428Y-91525285D01*
X125757857Y-90775285D02*
X126222142Y-90775285D01*
X125972142Y-91061000D01*
X126079285Y-91061000D01*
X126150714Y-91096714D01*
X126186428Y-91132428D01*
X126222142Y-91203857D01*
X126222142Y-91382428D01*
X126186428Y-91453857D01*
X126150714Y-91489571D01*
X126079285Y-91525285D01*
X125865000Y-91525285D01*
X125793571Y-91489571D01*
X125757857Y-91453857D01*
X126579285Y-91525285D02*
X126722142Y-91525285D01*
X126793571Y-91489571D01*
X126829285Y-91453857D01*
X126900714Y-91346714D01*
X126936428Y-91203857D01*
X126936428Y-90918142D01*
X126900714Y-90846714D01*
X126865000Y-90811000D01*
X126793571Y-90775285D01*
X126650714Y-90775285D01*
X126579285Y-90811000D01*
X126543571Y-90846714D01*
X126507857Y-90918142D01*
X126507857Y-91096714D01*
X126543571Y-91168142D01*
X126579285Y-91203857D01*
X126650714Y-91239571D01*
X126793571Y-91239571D01*
X126865000Y-91203857D01*
X126900714Y-91168142D01*
X126936428Y-91096714D01*
X123217857Y-90775285D02*
X123682142Y-90775285D01*
X123432142Y-91061000D01*
X123539285Y-91061000D01*
X123610714Y-91096714D01*
X123646428Y-91132428D01*
X123682142Y-91203857D01*
X123682142Y-91382428D01*
X123646428Y-91453857D01*
X123610714Y-91489571D01*
X123539285Y-91525285D01*
X123325000Y-91525285D01*
X123253571Y-91489571D01*
X123217857Y-91453857D01*
X124325000Y-90775285D02*
X124182142Y-90775285D01*
X124110714Y-90811000D01*
X124075000Y-90846714D01*
X124003571Y-90953857D01*
X123967857Y-91096714D01*
X123967857Y-91382428D01*
X124003571Y-91453857D01*
X124039285Y-91489571D01*
X124110714Y-91525285D01*
X124253571Y-91525285D01*
X124325000Y-91489571D01*
X124360714Y-91453857D01*
X124396428Y-91382428D01*
X124396428Y-91203857D01*
X124360714Y-91132428D01*
X124325000Y-91096714D01*
X124253571Y-91061000D01*
X124110714Y-91061000D01*
X124039285Y-91096714D01*
X124003571Y-91132428D01*
X123967857Y-91203857D01*
X130837857Y-90775285D02*
X131302142Y-90775285D01*
X131052142Y-91061000D01*
X131159285Y-91061000D01*
X131230714Y-91096714D01*
X131266428Y-91132428D01*
X131302142Y-91203857D01*
X131302142Y-91382428D01*
X131266428Y-91453857D01*
X131230714Y-91489571D01*
X131159285Y-91525285D01*
X130945000Y-91525285D01*
X130873571Y-91489571D01*
X130837857Y-91453857D01*
X131980714Y-90775285D02*
X131623571Y-90775285D01*
X131587857Y-91132428D01*
X131623571Y-91096714D01*
X131695000Y-91061000D01*
X131873571Y-91061000D01*
X131945000Y-91096714D01*
X131980714Y-91132428D01*
X132016428Y-91203857D01*
X132016428Y-91382428D01*
X131980714Y-91453857D01*
X131945000Y-91489571D01*
X131873571Y-91525285D01*
X131695000Y-91525285D01*
X131623571Y-91489571D01*
X131587857Y-91453857D01*
X135917857Y-90775285D02*
X136382142Y-90775285D01*
X136132142Y-91061000D01*
X136239285Y-91061000D01*
X136310714Y-91096714D01*
X136346428Y-91132428D01*
X136382142Y-91203857D01*
X136382142Y-91382428D01*
X136346428Y-91453857D01*
X136310714Y-91489571D01*
X136239285Y-91525285D01*
X136025000Y-91525285D01*
X135953571Y-91489571D01*
X135917857Y-91453857D01*
X136632142Y-90775285D02*
X137096428Y-90775285D01*
X136846428Y-91061000D01*
X136953571Y-91061000D01*
X137025000Y-91096714D01*
X137060714Y-91132428D01*
X137096428Y-91203857D01*
X137096428Y-91382428D01*
X137060714Y-91453857D01*
X137025000Y-91489571D01*
X136953571Y-91525285D01*
X136739285Y-91525285D01*
X136667857Y-91489571D01*
X136632142Y-91453857D01*
X133377857Y-90775285D02*
X133842142Y-90775285D01*
X133592142Y-91061000D01*
X133699285Y-91061000D01*
X133770714Y-91096714D01*
X133806428Y-91132428D01*
X133842142Y-91203857D01*
X133842142Y-91382428D01*
X133806428Y-91453857D01*
X133770714Y-91489571D01*
X133699285Y-91525285D01*
X133485000Y-91525285D01*
X133413571Y-91489571D01*
X133377857Y-91453857D01*
X134127857Y-90846714D02*
X134163571Y-90811000D01*
X134235000Y-90775285D01*
X134413571Y-90775285D01*
X134485000Y-90811000D01*
X134520714Y-90846714D01*
X134556428Y-90918142D01*
X134556428Y-90989571D01*
X134520714Y-91096714D01*
X134092142Y-91525285D01*
X134556428Y-91525285D01*
X141033571Y-90846714D02*
X141069285Y-90811000D01*
X141140714Y-90775285D01*
X141319285Y-90775285D01*
X141390714Y-90811000D01*
X141426428Y-90846714D01*
X141462142Y-90918142D01*
X141462142Y-90989571D01*
X141426428Y-91096714D01*
X140997857Y-91525285D01*
X141462142Y-91525285D01*
X142105000Y-90775285D02*
X141962142Y-90775285D01*
X141890714Y-90811000D01*
X141855000Y-90846714D01*
X141783571Y-90953857D01*
X141747857Y-91096714D01*
X141747857Y-91382428D01*
X141783571Y-91453857D01*
X141819285Y-91489571D01*
X141890714Y-91525285D01*
X142033571Y-91525285D01*
X142105000Y-91489571D01*
X142140714Y-91453857D01*
X142176428Y-91382428D01*
X142176428Y-91203857D01*
X142140714Y-91132428D01*
X142105000Y-91096714D01*
X142033571Y-91061000D01*
X141890714Y-91061000D01*
X141819285Y-91096714D01*
X141783571Y-91132428D01*
X141747857Y-91203857D01*
X120874285Y-91525285D02*
X120624285Y-91168142D01*
X120445714Y-91525285D02*
X120445714Y-90775285D01*
X120731428Y-90775285D01*
X120802857Y-90811000D01*
X120838571Y-90846714D01*
X120874285Y-90918142D01*
X120874285Y-91025285D01*
X120838571Y-91096714D01*
X120802857Y-91132428D01*
X120731428Y-91168142D01*
X120445714Y-91168142D01*
X121160000Y-91489571D02*
X121267142Y-91525285D01*
X121445714Y-91525285D01*
X121517142Y-91489571D01*
X121552857Y-91453857D01*
X121588571Y-91382428D01*
X121588571Y-91311000D01*
X121552857Y-91239571D01*
X121517142Y-91203857D01*
X121445714Y-91168142D01*
X121302857Y-91132428D01*
X121231428Y-91096714D01*
X121195714Y-91061000D01*
X121160000Y-90989571D01*
X121160000Y-90918142D01*
X121195714Y-90846714D01*
X121231428Y-90811000D01*
X121302857Y-90775285D01*
X121481428Y-90775285D01*
X121588571Y-90811000D01*
X121802857Y-90775285D02*
X122231428Y-90775285D01*
X122017142Y-91525285D02*
X122017142Y-90775285D01*
X138493571Y-90846714D02*
X138529285Y-90811000D01*
X138600714Y-90775285D01*
X138779285Y-90775285D01*
X138850714Y-90811000D01*
X138886428Y-90846714D01*
X138922142Y-90918142D01*
X138922142Y-90989571D01*
X138886428Y-91096714D01*
X138457857Y-91525285D01*
X138922142Y-91525285D01*
X139600714Y-90775285D02*
X139243571Y-90775285D01*
X139207857Y-91132428D01*
X139243571Y-91096714D01*
X139315000Y-91061000D01*
X139493571Y-91061000D01*
X139565000Y-91096714D01*
X139600714Y-91132428D01*
X139636428Y-91203857D01*
X139636428Y-91382428D01*
X139600714Y-91453857D01*
X139565000Y-91489571D01*
X139493571Y-91525285D01*
X139315000Y-91525285D01*
X139243571Y-91489571D01*
X139207857Y-91453857D01*
X128297857Y-90775285D02*
X128762142Y-90775285D01*
X128512142Y-91061000D01*
X128619285Y-91061000D01*
X128690714Y-91096714D01*
X128726428Y-91132428D01*
X128762142Y-91203857D01*
X128762142Y-91382428D01*
X128726428Y-91453857D01*
X128690714Y-91489571D01*
X128619285Y-91525285D01*
X128405000Y-91525285D01*
X128333571Y-91489571D01*
X128297857Y-91453857D01*
X129405000Y-91025285D02*
X129405000Y-91525285D01*
X129226428Y-90739571D02*
X129047857Y-91275285D01*
X129512142Y-91275285D01*
X143573571Y-90846714D02*
X143609285Y-90811000D01*
X143680714Y-90775285D01*
X143859285Y-90775285D01*
X143930714Y-90811000D01*
X143966428Y-90846714D01*
X144002142Y-90918142D01*
X144002142Y-90989571D01*
X143966428Y-91096714D01*
X143537857Y-91525285D01*
X144002142Y-91525285D01*
X144252142Y-90775285D02*
X144752142Y-90775285D01*
X144430714Y-91525285D01*
X156273571Y-90811000D02*
X156202142Y-90775285D01*
X156095000Y-90775285D01*
X155987857Y-90811000D01*
X155916428Y-90882428D01*
X155880714Y-90953857D01*
X155845000Y-91096714D01*
X155845000Y-91203857D01*
X155880714Y-91346714D01*
X155916428Y-91418142D01*
X155987857Y-91489571D01*
X156095000Y-91525285D01*
X156166428Y-91525285D01*
X156273571Y-91489571D01*
X156309285Y-91453857D01*
X156309285Y-91203857D01*
X156166428Y-91203857D01*
X156630714Y-91525285D02*
X156630714Y-90775285D01*
X157059285Y-91525285D01*
X157059285Y-90775285D01*
X157416428Y-91525285D02*
X157416428Y-90775285D01*
X157595000Y-90775285D01*
X157702142Y-90811000D01*
X157773571Y-90882428D01*
X157809285Y-90953857D01*
X157845000Y-91096714D01*
X157845000Y-91203857D01*
X157809285Y-91346714D01*
X157773571Y-91418142D01*
X157702142Y-91489571D01*
X157595000Y-91525285D01*
X157416428Y-91525285D01*
D11*
X158702380Y-69583333D02*
X159416666Y-69583333D01*
X159559523Y-69630952D01*
X159654761Y-69726190D01*
X159702380Y-69869047D01*
X159702380Y-69964285D01*
X158702380Y-69202380D02*
X158702380Y-68535714D01*
X159702380Y-68964285D01*
D10*
X144287857Y-69891714D02*
X144716428Y-69891714D01*
X144502142Y-69891714D02*
X144502142Y-70641714D01*
X144573571Y-70534571D01*
X144645000Y-70463142D01*
X144716428Y-70427428D01*
X143645000Y-70641714D02*
X143787857Y-70641714D01*
X143859285Y-70606000D01*
X143895000Y-70570285D01*
X143966428Y-70463142D01*
X144002142Y-70320285D01*
X144002142Y-70034571D01*
X143966428Y-69963142D01*
X143930714Y-69927428D01*
X143859285Y-69891714D01*
X143716428Y-69891714D01*
X143645000Y-69927428D01*
X143609285Y-69963142D01*
X143573571Y-70034571D01*
X143573571Y-70213142D01*
X143609285Y-70284571D01*
X143645000Y-70320285D01*
X143716428Y-70356000D01*
X143859285Y-70356000D01*
X143930714Y-70320285D01*
X143966428Y-70284571D01*
X144002142Y-70213142D01*
X141747857Y-69891714D02*
X142176428Y-69891714D01*
X141962142Y-69891714D02*
X141962142Y-70641714D01*
X142033571Y-70534571D01*
X142105000Y-70463142D01*
X142176428Y-70427428D01*
X141497857Y-70641714D02*
X140997857Y-70641714D01*
X141319285Y-69891714D01*
X146542142Y-70391714D02*
X146542142Y-69891714D01*
X146720714Y-70677428D02*
X146899285Y-70141714D01*
X146435000Y-70141714D01*
X134127857Y-69891714D02*
X134556428Y-69891714D01*
X134342142Y-69891714D02*
X134342142Y-70641714D01*
X134413571Y-70534571D01*
X134485000Y-70463142D01*
X134556428Y-70427428D01*
X133770714Y-69891714D02*
X133627857Y-69891714D01*
X133556428Y-69927428D01*
X133520714Y-69963142D01*
X133449285Y-70070285D01*
X133413571Y-70213142D01*
X133413571Y-70498857D01*
X133449285Y-70570285D01*
X133485000Y-70606000D01*
X133556428Y-70641714D01*
X133699285Y-70641714D01*
X133770714Y-70606000D01*
X133806428Y-70570285D01*
X133842142Y-70498857D01*
X133842142Y-70320285D01*
X133806428Y-70248857D01*
X133770714Y-70213142D01*
X133699285Y-70177428D01*
X133556428Y-70177428D01*
X133485000Y-70213142D01*
X133449285Y-70248857D01*
X133413571Y-70320285D01*
X149260714Y-70641714D02*
X149189285Y-70641714D01*
X149117857Y-70606000D01*
X149082142Y-70570285D01*
X149046428Y-70498857D01*
X149010714Y-70356000D01*
X149010714Y-70177428D01*
X149046428Y-70034571D01*
X149082142Y-69963142D01*
X149117857Y-69927428D01*
X149189285Y-69891714D01*
X149260714Y-69891714D01*
X149332142Y-69927428D01*
X149367857Y-69963142D01*
X149403571Y-70034571D01*
X149439285Y-70177428D01*
X149439285Y-70356000D01*
X149403571Y-70498857D01*
X149367857Y-70570285D01*
X149332142Y-70606000D01*
X149260714Y-70641714D01*
X132016428Y-70570285D02*
X131980714Y-70606000D01*
X131909285Y-70641714D01*
X131730714Y-70641714D01*
X131659285Y-70606000D01*
X131623571Y-70570285D01*
X131587857Y-70498857D01*
X131587857Y-70427428D01*
X131623571Y-70320285D01*
X132052142Y-69891714D01*
X131587857Y-69891714D01*
X130873571Y-69891714D02*
X131302142Y-69891714D01*
X131087857Y-69891714D02*
X131087857Y-70641714D01*
X131159285Y-70534571D01*
X131230714Y-70463142D01*
X131302142Y-70427428D01*
X151979285Y-70570285D02*
X151943571Y-70606000D01*
X151872142Y-70641714D01*
X151693571Y-70641714D01*
X151622142Y-70606000D01*
X151586428Y-70570285D01*
X151550714Y-70498857D01*
X151550714Y-70427428D01*
X151586428Y-70320285D01*
X152015000Y-69891714D01*
X151550714Y-69891714D01*
X124396428Y-70570285D02*
X124360714Y-70606000D01*
X124289285Y-70641714D01*
X124110714Y-70641714D01*
X124039285Y-70606000D01*
X124003571Y-70570285D01*
X123967857Y-70498857D01*
X123967857Y-70427428D01*
X124003571Y-70320285D01*
X124432142Y-69891714D01*
X123967857Y-69891714D01*
X123682142Y-70570285D02*
X123646428Y-70606000D01*
X123575000Y-70641714D01*
X123396428Y-70641714D01*
X123325000Y-70606000D01*
X123289285Y-70570285D01*
X123253571Y-70498857D01*
X123253571Y-70427428D01*
X123289285Y-70320285D01*
X123717857Y-69891714D01*
X123253571Y-69891714D01*
X121856428Y-70570285D02*
X121820714Y-70606000D01*
X121749285Y-70641714D01*
X121570714Y-70641714D01*
X121499285Y-70606000D01*
X121463571Y-70570285D01*
X121427857Y-70498857D01*
X121427857Y-70427428D01*
X121463571Y-70320285D01*
X121892142Y-69891714D01*
X121427857Y-69891714D01*
X121177857Y-70641714D02*
X120713571Y-70641714D01*
X120963571Y-70356000D01*
X120856428Y-70356000D01*
X120785000Y-70320285D01*
X120749285Y-70284571D01*
X120713571Y-70213142D01*
X120713571Y-70034571D01*
X120749285Y-69963142D01*
X120785000Y-69927428D01*
X120856428Y-69891714D01*
X121070714Y-69891714D01*
X121142142Y-69927428D01*
X121177857Y-69963142D01*
X154447857Y-69891714D02*
X154876428Y-69891714D01*
X154662142Y-69891714D02*
X154662142Y-70641714D01*
X154733571Y-70534571D01*
X154805000Y-70463142D01*
X154876428Y-70427428D01*
X153769285Y-70641714D02*
X154126428Y-70641714D01*
X154162142Y-70284571D01*
X154126428Y-70320285D01*
X154055000Y-70356000D01*
X153876428Y-70356000D01*
X153805000Y-70320285D01*
X153769285Y-70284571D01*
X153733571Y-70213142D01*
X153733571Y-70034571D01*
X153769285Y-69963142D01*
X153805000Y-69927428D01*
X153876428Y-69891714D01*
X154055000Y-69891714D01*
X154126428Y-69927428D01*
X154162142Y-69963142D01*
X138886428Y-70641714D02*
X139243571Y-70641714D01*
X139279285Y-70284571D01*
X139243571Y-70320285D01*
X139172142Y-70356000D01*
X138993571Y-70356000D01*
X138922142Y-70320285D01*
X138886428Y-70284571D01*
X138850714Y-70213142D01*
X138850714Y-70034571D01*
X138886428Y-69963142D01*
X138922142Y-69927428D01*
X138993571Y-69891714D01*
X139172142Y-69891714D01*
X139243571Y-69927428D01*
X139279285Y-69963142D01*
X129030000Y-69891714D02*
X129280000Y-70248857D01*
X129458571Y-69891714D02*
X129458571Y-70641714D01*
X129172857Y-70641714D01*
X129101428Y-70606000D01*
X129065714Y-70570285D01*
X129030000Y-70498857D01*
X129030000Y-70391714D01*
X129065714Y-70320285D01*
X129101428Y-70284571D01*
X129172857Y-70248857D01*
X129458571Y-70248857D01*
X128780000Y-70641714D02*
X128280000Y-69891714D01*
X128280000Y-70641714D02*
X128780000Y-69891714D01*
X126936428Y-70641714D02*
X126507857Y-70641714D01*
X126722142Y-69891714D02*
X126722142Y-70641714D01*
X126329285Y-70641714D02*
X125829285Y-69891714D01*
X125829285Y-70641714D02*
X126329285Y-69891714D01*
X136667857Y-69891714D02*
X137096428Y-69891714D01*
X136882142Y-69891714D02*
X136882142Y-70641714D01*
X136953571Y-70534571D01*
X137025000Y-70463142D01*
X137096428Y-70427428D01*
X136239285Y-70320285D02*
X136310714Y-70356000D01*
X136346428Y-70391714D01*
X136382142Y-70463142D01*
X136382142Y-70498857D01*
X136346428Y-70570285D01*
X136310714Y-70606000D01*
X136239285Y-70641714D01*
X136096428Y-70641714D01*
X136025000Y-70606000D01*
X135989285Y-70570285D01*
X135953571Y-70498857D01*
X135953571Y-70463142D01*
X135989285Y-70391714D01*
X136025000Y-70356000D01*
X136096428Y-70320285D01*
X136239285Y-70320285D01*
X136310714Y-70284571D01*
X136346428Y-70248857D01*
X136382142Y-70177428D01*
X136382142Y-70034571D01*
X136346428Y-69963142D01*
X136310714Y-69927428D01*
X136239285Y-69891714D01*
X136096428Y-69891714D01*
X136025000Y-69927428D01*
X135989285Y-69963142D01*
X135953571Y-70034571D01*
X135953571Y-70177428D01*
X135989285Y-70248857D01*
X136025000Y-70284571D01*
X136096428Y-70320285D01*
X157559285Y-70641714D02*
X157309285Y-69891714D01*
X157059285Y-70641714D01*
X156809285Y-70177428D02*
X156237857Y-70177428D01*
X156523571Y-69891714D02*
X156523571Y-70463142D01*
D11*
X163663333Y-73792142D02*
X163615714Y-73839761D01*
X163472857Y-73887380D01*
X163377619Y-73887380D01*
X163234761Y-73839761D01*
X163139523Y-73744523D01*
X163091904Y-73649285D01*
X163044285Y-73458809D01*
X163044285Y-73315952D01*
X163091904Y-73125476D01*
X163139523Y-73030238D01*
X163234761Y-72935000D01*
X163377619Y-72887380D01*
X163472857Y-72887380D01*
X163615714Y-72935000D01*
X163663333Y-72982619D01*
X164568095Y-72887380D02*
X164091904Y-72887380D01*
X164044285Y-73363571D01*
X164091904Y-73315952D01*
X164187142Y-73268333D01*
X164425238Y-73268333D01*
X164520476Y-73315952D01*
X164568095Y-73363571D01*
X164615714Y-73458809D01*
X164615714Y-73696904D01*
X164568095Y-73792142D01*
X164520476Y-73839761D01*
X164425238Y-73887380D01*
X164187142Y-73887380D01*
X164091904Y-73839761D01*
X164044285Y-73792142D01*
X166917619Y-71088238D02*
X166870000Y-71183476D01*
X166774761Y-71278714D01*
X166631904Y-71421571D01*
X166584285Y-71516809D01*
X166584285Y-71612047D01*
X166822380Y-71564428D02*
X166774761Y-71659666D01*
X166679523Y-71754904D01*
X166489047Y-71802523D01*
X166155714Y-71802523D01*
X165965238Y-71754904D01*
X165870000Y-71659666D01*
X165822380Y-71564428D01*
X165822380Y-71373952D01*
X165870000Y-71278714D01*
X165965238Y-71183476D01*
X166155714Y-71135857D01*
X166489047Y-71135857D01*
X166679523Y-71183476D01*
X166774761Y-71278714D01*
X166822380Y-71373952D01*
X166822380Y-71564428D01*
X165822380Y-70802523D02*
X165822380Y-70183476D01*
X166203333Y-70516809D01*
X166203333Y-70373952D01*
X166250952Y-70278714D01*
X166298571Y-70231095D01*
X166393809Y-70183476D01*
X166631904Y-70183476D01*
X166727142Y-70231095D01*
X166774761Y-70278714D01*
X166822380Y-70373952D01*
X166822380Y-70659666D01*
X166774761Y-70754904D01*
X166727142Y-70802523D01*
X164057380Y-85510904D02*
X164866904Y-85510904D01*
X164962142Y-85463285D01*
X165009761Y-85415666D01*
X165057380Y-85320428D01*
X165057380Y-85129952D01*
X165009761Y-85034714D01*
X164962142Y-84987095D01*
X164866904Y-84939476D01*
X164057380Y-84939476D01*
X165057380Y-83939476D02*
X165057380Y-84510904D01*
X165057380Y-84225190D02*
X164057380Y-84225190D01*
X164200238Y-84320428D01*
X164295476Y-84415666D01*
X164343095Y-84510904D01*
X197952380Y-79488095D02*
X196952380Y-79488095D01*
X196952380Y-79250000D01*
X197000000Y-79107142D01*
X197095238Y-79011904D01*
X197190476Y-78964285D01*
X197380952Y-78916666D01*
X197523809Y-78916666D01*
X197714285Y-78964285D01*
X197809523Y-79011904D01*
X197904761Y-79107142D01*
X197952380Y-79250000D01*
X197952380Y-79488095D01*
X197047619Y-78535714D02*
X197000000Y-78488095D01*
X196952380Y-78392857D01*
X196952380Y-78154761D01*
X197000000Y-78059523D01*
X197047619Y-78011904D01*
X197142857Y-77964285D01*
X197238095Y-77964285D01*
X197380952Y-78011904D01*
X197952380Y-78583333D01*
X197952380Y-77964285D01*
X197952380Y-84488095D02*
X196952380Y-84488095D01*
X196952380Y-84250000D01*
X197000000Y-84107142D01*
X197095238Y-84011904D01*
X197190476Y-83964285D01*
X197380952Y-83916666D01*
X197523809Y-83916666D01*
X197714285Y-83964285D01*
X197809523Y-84011904D01*
X197904761Y-84107142D01*
X197952380Y-84250000D01*
X197952380Y-84488095D01*
X197285714Y-83059523D02*
X197952380Y-83059523D01*
X196904761Y-83297619D02*
X197619047Y-83535714D01*
X197619047Y-82916666D01*
X198313147Y-64857380D02*
X198313147Y-65571666D01*
X198265528Y-65714523D01*
X198170290Y-65809761D01*
X198027433Y-65857380D01*
X197932195Y-65857380D01*
X198932195Y-65285952D02*
X198836957Y-65238333D01*
X198789338Y-65190714D01*
X198741719Y-65095476D01*
X198741719Y-65047857D01*
X198789338Y-64952619D01*
X198836957Y-64905000D01*
X198932195Y-64857380D01*
X199122671Y-64857380D01*
X199217909Y-64905000D01*
X199265528Y-64952619D01*
X199313147Y-65047857D01*
X199313147Y-65095476D01*
X199265528Y-65190714D01*
X199217909Y-65238333D01*
X199122671Y-65285952D01*
X198932195Y-65285952D01*
X198836957Y-65333571D01*
X198789338Y-65381190D01*
X198741719Y-65476428D01*
X198741719Y-65666904D01*
X198789338Y-65762142D01*
X198836957Y-65809761D01*
X198932195Y-65857380D01*
X199122671Y-65857380D01*
X199217909Y-65809761D01*
X199265528Y-65762142D01*
X199313147Y-65666904D01*
X199313147Y-65476428D01*
X199265528Y-65381190D01*
X199217909Y-65333571D01*
X199122671Y-65285952D01*
D12*
X198757142Y-85200000D02*
X198757142Y-85371428D01*
X198800000Y-85457142D01*
X198842857Y-85500000D01*
X198971428Y-85585714D01*
X199142857Y-85628571D01*
X199485714Y-85628571D01*
X199571428Y-85585714D01*
X199614285Y-85542857D01*
X199657142Y-85457142D01*
X199657142Y-85285714D01*
X199614285Y-85200000D01*
X199571428Y-85157142D01*
X199485714Y-85114285D01*
X199271428Y-85114285D01*
X199185714Y-85157142D01*
X199142857Y-85200000D01*
X199100000Y-85285714D01*
X199100000Y-85457142D01*
X199142857Y-85542857D01*
X199185714Y-85585714D01*
X199271428Y-85628571D01*
X198757142Y-84857142D02*
X199657142Y-84557142D01*
X198757142Y-84257142D01*
X199657142Y-83957142D02*
X198757142Y-83957142D01*
X198757142Y-83742857D01*
X198800000Y-83614285D01*
X198885714Y-83528571D01*
X198971428Y-83485714D01*
X199142857Y-83442857D01*
X199271428Y-83442857D01*
X199442857Y-83485714D01*
X199528571Y-83528571D01*
X199614285Y-83614285D01*
X199657142Y-83742857D01*
X199657142Y-83957142D01*
X199571428Y-82542857D02*
X199614285Y-82585714D01*
X199657142Y-82714285D01*
X199657142Y-82800000D01*
X199614285Y-82928571D01*
X199528571Y-83014285D01*
X199442857Y-83057142D01*
X199271428Y-83100000D01*
X199142857Y-83100000D01*
X198971428Y-83057142D01*
X198885714Y-83014285D01*
X198800000Y-82928571D01*
X198757142Y-82800000D01*
X198757142Y-82714285D01*
X198800000Y-82585714D01*
X198842857Y-82542857D01*
X199657142Y-81471428D02*
X199057142Y-81471428D01*
X199142857Y-81471428D02*
X199100000Y-81428571D01*
X199057142Y-81342857D01*
X199057142Y-81214285D01*
X199100000Y-81128571D01*
X199185714Y-81085714D01*
X199657142Y-81085714D01*
X199185714Y-81085714D02*
X199100000Y-81042857D01*
X199057142Y-80957142D01*
X199057142Y-80828571D01*
X199100000Y-80742857D01*
X199185714Y-80700000D01*
X199657142Y-80700000D01*
X199657142Y-79885714D02*
X199185714Y-79885714D01*
X199100000Y-79928571D01*
X199057142Y-80014285D01*
X199057142Y-80185714D01*
X199100000Y-80271428D01*
X199614285Y-79885714D02*
X199657142Y-79971428D01*
X199657142Y-80185714D01*
X199614285Y-80271428D01*
X199528571Y-80314285D01*
X199442857Y-80314285D01*
X199357142Y-80271428D01*
X199314285Y-80185714D01*
X199314285Y-79971428D01*
X199271428Y-79885714D01*
X199657142Y-79542857D02*
X199057142Y-79071428D01*
X199057142Y-79542857D02*
X199657142Y-79071428D01*
X199614285Y-78685714D02*
X199657142Y-78685714D01*
X199742857Y-78728571D01*
X199785714Y-78771428D01*
X199657142Y-77142857D02*
X199657142Y-77657142D01*
X199657142Y-77400000D02*
X198757142Y-77400000D01*
X198885714Y-77485714D01*
X198971428Y-77571428D01*
X199014285Y-77657142D01*
X199400000Y-76800000D02*
X199400000Y-76371428D01*
X199657142Y-76885714D02*
X198757142Y-76585714D01*
X199657142Y-76285714D01*
D11*
X201325000Y-77230000D02*
X201325000Y-78030000D01*
X201725000Y-77630000D02*
X200925000Y-77630000D01*
X201325000Y-83330000D02*
X201325000Y-84130000D01*
X191494814Y-89097380D02*
X191161481Y-88621190D01*
X190923385Y-89097380D02*
X190923385Y-88097380D01*
X191304338Y-88097380D01*
X191399576Y-88145000D01*
X191447195Y-88192619D01*
X191494814Y-88287857D01*
X191494814Y-88430714D01*
X191447195Y-88525952D01*
X191399576Y-88573571D01*
X191304338Y-88621190D01*
X190923385Y-88621190D01*
X192447195Y-89097380D02*
X191875766Y-89097380D01*
X192161481Y-89097380D02*
X192161481Y-88097380D01*
X192066242Y-88240238D01*
X191971004Y-88335476D01*
X191875766Y-88383095D01*
X191494814Y-85922380D02*
X191161481Y-85446190D01*
X190923385Y-85922380D02*
X190923385Y-84922380D01*
X191304338Y-84922380D01*
X191399576Y-84970000D01*
X191447195Y-85017619D01*
X191494814Y-85112857D01*
X191494814Y-85255714D01*
X191447195Y-85350952D01*
X191399576Y-85398571D01*
X191304338Y-85446190D01*
X190923385Y-85446190D01*
X191875766Y-85017619D02*
X191923385Y-84970000D01*
X192018623Y-84922380D01*
X192256719Y-84922380D01*
X192351957Y-84970000D01*
X192399576Y-85017619D01*
X192447195Y-85112857D01*
X192447195Y-85208095D01*
X192399576Y-85350952D01*
X191828147Y-85922380D01*
X192447195Y-85922380D01*
X164057380Y-77382904D02*
X164866904Y-77382904D01*
X164962142Y-77335285D01*
X165009761Y-77287666D01*
X165057380Y-77192428D01*
X165057380Y-77001952D01*
X165009761Y-76906714D01*
X164962142Y-76859095D01*
X164866904Y-76811476D01*
X164057380Y-76811476D01*
X164152619Y-76382904D02*
X164105000Y-76335285D01*
X164057380Y-76240047D01*
X164057380Y-76001952D01*
X164105000Y-75906714D01*
X164152619Y-75859095D01*
X164247857Y-75811476D01*
X164343095Y-75811476D01*
X164485952Y-75859095D01*
X165057380Y-76430523D01*
X165057380Y-75811476D01*
X166917619Y-67405238D02*
X166870000Y-67500476D01*
X166774761Y-67595714D01*
X166631904Y-67738571D01*
X166584285Y-67833809D01*
X166584285Y-67929047D01*
X166822380Y-67881428D02*
X166774761Y-67976666D01*
X166679523Y-68071904D01*
X166489047Y-68119523D01*
X166155714Y-68119523D01*
X165965238Y-68071904D01*
X165870000Y-67976666D01*
X165822380Y-67881428D01*
X165822380Y-67690952D01*
X165870000Y-67595714D01*
X165965238Y-67500476D01*
X166155714Y-67452857D01*
X166489047Y-67452857D01*
X166679523Y-67500476D01*
X166774761Y-67595714D01*
X166822380Y-67690952D01*
X166822380Y-67881428D01*
X166155714Y-66595714D02*
X166822380Y-66595714D01*
X165774761Y-66833809D02*
X166489047Y-67071904D01*
X166489047Y-66452857D01*
X191494814Y-82747380D02*
X191161481Y-82271190D01*
X190923385Y-82747380D02*
X190923385Y-81747380D01*
X191304338Y-81747380D01*
X191399576Y-81795000D01*
X191447195Y-81842619D01*
X191494814Y-81937857D01*
X191494814Y-82080714D01*
X191447195Y-82175952D01*
X191399576Y-82223571D01*
X191304338Y-82271190D01*
X190923385Y-82271190D01*
X191828147Y-81747380D02*
X192447195Y-81747380D01*
X192113861Y-82128333D01*
X192256719Y-82128333D01*
X192351957Y-82175952D01*
X192399576Y-82223571D01*
X192447195Y-82318809D01*
X192447195Y-82556904D01*
X192399576Y-82652142D01*
X192351957Y-82699761D01*
X192256719Y-82747380D01*
X191971004Y-82747380D01*
X191875766Y-82699761D01*
X191828147Y-82652142D01*
X191494814Y-79572380D02*
X191161481Y-79096190D01*
X190923385Y-79572380D02*
X190923385Y-78572380D01*
X191304338Y-78572380D01*
X191399576Y-78620000D01*
X191447195Y-78667619D01*
X191494814Y-78762857D01*
X191494814Y-78905714D01*
X191447195Y-79000952D01*
X191399576Y-79048571D01*
X191304338Y-79096190D01*
X190923385Y-79096190D01*
X192351957Y-78905714D02*
X192351957Y-79572380D01*
X192113861Y-78524761D02*
X191875766Y-79239047D01*
X192494814Y-79239047D01*
X166917619Y-90392238D02*
X166870000Y-90487476D01*
X166774761Y-90582714D01*
X166631904Y-90725571D01*
X166584285Y-90820809D01*
X166584285Y-90916047D01*
X166822380Y-90868428D02*
X166774761Y-90963666D01*
X166679523Y-91058904D01*
X166489047Y-91106523D01*
X166155714Y-91106523D01*
X165965238Y-91058904D01*
X165870000Y-90963666D01*
X165822380Y-90868428D01*
X165822380Y-90677952D01*
X165870000Y-90582714D01*
X165965238Y-90487476D01*
X166155714Y-90439857D01*
X166489047Y-90439857D01*
X166679523Y-90487476D01*
X166774761Y-90582714D01*
X166822380Y-90677952D01*
X166822380Y-90868428D01*
X165917619Y-90058904D02*
X165870000Y-90011285D01*
X165822380Y-89916047D01*
X165822380Y-89677952D01*
X165870000Y-89582714D01*
X165917619Y-89535095D01*
X166012857Y-89487476D01*
X166108095Y-89487476D01*
X166250952Y-89535095D01*
X166822380Y-90106523D01*
X166822380Y-89487476D01*
X198916666Y-95702380D02*
X198916666Y-96416666D01*
X198869047Y-96559523D01*
X198773809Y-96654761D01*
X198630952Y-96702380D01*
X198535714Y-96702380D01*
X199440476Y-96702380D02*
X199630952Y-96702380D01*
X199726190Y-96654761D01*
X199773809Y-96607142D01*
X199869047Y-96464285D01*
X199916666Y-96273809D01*
X199916666Y-95892857D01*
X199869047Y-95797619D01*
X199821428Y-95750000D01*
X199726190Y-95702380D01*
X199535714Y-95702380D01*
X199440476Y-95750000D01*
X199392857Y-95797619D01*
X199345238Y-95892857D01*
X199345238Y-96130952D01*
X199392857Y-96226190D01*
X199440476Y-96273809D01*
X199535714Y-96321428D01*
X199726190Y-96321428D01*
X199821428Y-96273809D01*
X199869047Y-96226190D01*
X199916666Y-96130952D01*
X144653095Y-80732380D02*
X144653095Y-81541904D01*
X144700714Y-81637142D01*
X144748333Y-81684761D01*
X144843571Y-81732380D01*
X145034047Y-81732380D01*
X145129285Y-81684761D01*
X145176904Y-81637142D01*
X145224523Y-81541904D01*
X145224523Y-80732380D01*
X146129285Y-81065714D02*
X146129285Y-81732380D01*
X145891190Y-80684761D02*
X145653095Y-81399047D01*
X146272142Y-81399047D01*
X175166666Y-80702380D02*
X175166666Y-81416666D01*
X175119047Y-81559523D01*
X175023809Y-81654761D01*
X174880952Y-81702380D01*
X174785714Y-81702380D01*
X175595238Y-80797619D02*
X175642857Y-80750000D01*
X175738095Y-80702380D01*
X175976190Y-80702380D01*
X176071428Y-80750000D01*
X176119047Y-80797619D01*
X176166666Y-80892857D01*
X176166666Y-80988095D01*
X176119047Y-81130952D01*
X175547619Y-81702380D01*
X176166666Y-81702380D01*
X175166666Y-79452380D02*
X175166666Y-80166666D01*
X175119047Y-80309523D01*
X175023809Y-80404761D01*
X174880952Y-80452380D01*
X174785714Y-80452380D01*
X175547619Y-79452380D02*
X176166666Y-79452380D01*
X175833333Y-79833333D01*
X175976190Y-79833333D01*
X176071428Y-79880952D01*
X176119047Y-79928571D01*
X176166666Y-80023809D01*
X176166666Y-80261904D01*
X176119047Y-80357142D01*
X176071428Y-80404761D01*
X175976190Y-80452380D01*
X175690476Y-80452380D01*
X175595238Y-80404761D01*
X175547619Y-80357142D01*
X184666666Y-79452380D02*
X184666666Y-80166666D01*
X184619047Y-80309523D01*
X184523809Y-80404761D01*
X184380952Y-80452380D01*
X184285714Y-80452380D01*
X185571428Y-79785714D02*
X185571428Y-80452380D01*
X185333333Y-79404761D02*
X185095238Y-80119047D01*
X185714285Y-80119047D01*
X184666666Y-80702380D02*
X184666666Y-81416666D01*
X184619047Y-81559523D01*
X184523809Y-81654761D01*
X184380952Y-81702380D01*
X184285714Y-81702380D01*
X185666666Y-81702380D02*
X185095238Y-81702380D01*
X185380952Y-81702380D02*
X185380952Y-80702380D01*
X185285714Y-80845238D01*
X185190476Y-80940476D01*
X185095238Y-80988095D01*
D13*
X150121252Y-78005000D02*
X149598748Y-78005000D01*
X150121252Y-79475000D02*
X149598748Y-79475000D01*
X155635000Y-86995000D02*
X155635000Y-88325000D01*
X155635000Y-88325000D02*
X154305000Y-88325000D01*
X155635000Y-85725000D02*
X152975000Y-85725000D01*
X155635000Y-72965000D02*
X152975000Y-72965000D01*
X152975000Y-85725000D02*
X152975000Y-72965000D01*
X155635000Y-85725000D02*
X155635000Y-72965000D01*
X141945000Y-72440000D02*
X141945000Y-72340000D01*
X141945000Y-73940000D02*
X146345000Y-73940000D01*
X146345000Y-72440000D02*
X146345000Y-72340000D01*
X146345000Y-70840000D02*
X141945000Y-70840000D01*
X168910000Y-95540000D02*
X169560000Y-95540000D01*
X168910000Y-92420000D02*
X169560000Y-92420000D01*
X168910000Y-92420000D02*
X167235000Y-92420000D01*
X168910000Y-95540000D02*
X168260000Y-95540000D01*
X142975000Y-78478748D02*
X142975000Y-79001252D01*
X141505000Y-78478748D02*
X141505000Y-79001252D01*
X150087064Y-88800000D02*
X149632936Y-88800000D01*
X150087064Y-90270000D02*
X149632936Y-90270000D01*
X145187936Y-83666000D02*
X145642064Y-83666000D01*
X145187936Y-82196000D02*
X145642064Y-82196000D01*
X149598748Y-87095000D02*
X150121252Y-87095000D01*
X149598748Y-85625000D02*
X150121252Y-85625000D01*
X147660000Y-73930000D02*
X151510000Y-73930000D01*
X147660000Y-73930000D02*
X147660000Y-75930000D01*
X147660000Y-75930000D02*
X151510000Y-75930000D01*
X145187936Y-84736000D02*
X145642064Y-84736000D01*
X145187936Y-86206000D02*
X145642064Y-86206000D01*
X147910000Y-81050000D02*
X151810000Y-81050000D01*
X147910000Y-84050000D02*
X151810000Y-84050000D01*
X147910000Y-81850000D02*
X147910000Y-81050000D01*
X146345000Y-87350000D02*
X141945000Y-87350000D01*
X141945000Y-88850000D02*
X141945000Y-88950000D01*
X146345000Y-88850000D02*
X146345000Y-88950000D01*
X141945000Y-90450000D02*
X146345000Y-90450000D01*
X145153748Y-76300000D02*
X145676252Y-76300000D01*
X145153748Y-74830000D02*
X145676252Y-74830000D01*
X113675000Y-71525000D02*
X120095000Y-71525000D01*
X113675000Y-89765000D02*
X120095000Y-89765000D01*
X139420000Y-71525000D02*
X139420000Y-72525000D01*
X138640000Y-89765000D02*
X139420000Y-89765000D01*
X113675000Y-89765000D02*
X113675000Y-71525000D01*
X139420000Y-89765000D02*
X139420000Y-88765000D01*
X120095000Y-89765000D02*
X120095000Y-90145000D01*
X138640000Y-71525000D02*
X139420000Y-71525000D01*
X122555000Y-94675000D02*
X158175000Y-94675000D01*
X122555000Y-92015000D02*
X158175000Y-92015000D01*
X121285000Y-94675000D02*
X119955000Y-94675000D01*
X122555000Y-94675000D02*
X122555000Y-92015000D01*
X119955000Y-94675000D02*
X119955000Y-93345000D01*
X158175000Y-94675000D02*
X158175000Y-92015000D01*
X122555000Y-66615000D02*
X158175000Y-66615000D01*
X119955000Y-69275000D02*
X119955000Y-67945000D01*
X121285000Y-69275000D02*
X119955000Y-69275000D01*
X122555000Y-69275000D02*
X122555000Y-66615000D01*
X122555000Y-69275000D02*
X158175000Y-69275000D01*
X158175000Y-69275000D02*
X158175000Y-66615000D01*
X164091252Y-71020000D02*
X163568748Y-71020000D01*
X164091252Y-72490000D02*
X163568748Y-72490000D01*
X168910000Y-69433000D02*
X167235000Y-69433000D01*
X168910000Y-72553000D02*
X169560000Y-72553000D01*
X168910000Y-69433000D02*
X169560000Y-69433000D01*
X168910000Y-72553000D02*
X168260000Y-72553000D01*
X165495000Y-82109000D02*
X165495000Y-84709000D01*
X168165000Y-82109000D02*
X168505000Y-82109000D01*
X165845000Y-82109000D02*
X165495000Y-82109000D01*
X168505000Y-82109000D02*
X168505000Y-87199000D01*
X168506736Y-86808917D02*
G75*
G03*
X168505000Y-82609000I-101738J2099917D01*
G01*
X194471481Y-80940000D02*
X196471481Y-80940000D01*
X196471481Y-80940000D02*
X196471481Y-77090000D01*
X194471481Y-80940000D02*
X194471481Y-77090000D01*
X194471481Y-81620000D02*
X194471481Y-85470000D01*
X196471481Y-81620000D02*
X194471481Y-81620000D01*
X196471481Y-81620000D02*
X196471481Y-85470000D01*
X192246481Y-75920000D02*
X191196481Y-75920000D01*
X206096481Y-66520000D02*
X206096481Y-75720000D01*
X197296481Y-66520000D02*
X206096481Y-66520000D01*
X191196481Y-74870000D02*
X191196481Y-75920000D01*
X191396481Y-69220000D02*
X191396481Y-66520000D01*
X206096481Y-75720000D02*
X191396481Y-75720000D01*
X191396481Y-66520000D02*
X193296481Y-66520000D01*
X191396481Y-75720000D02*
X191396481Y-73120000D01*
X191888545Y-87730000D02*
X191434417Y-87730000D01*
X191888545Y-86260000D02*
X191434417Y-86260000D01*
X191888545Y-84555000D02*
X191434417Y-84555000D01*
X191888545Y-83085000D02*
X191434417Y-83085000D01*
X168165000Y-73981000D02*
X168505000Y-73981000D01*
X165495000Y-73981000D02*
X165495000Y-76581000D01*
X165845000Y-73981000D02*
X165495000Y-73981000D01*
X168505000Y-73981000D02*
X168505000Y-79071000D01*
X168506736Y-78680917D02*
G75*
G03*
X168505000Y-74481000I-101738J2099917D01*
G01*
X168910000Y-68870000D02*
X169560000Y-68870000D01*
X168910000Y-65750000D02*
X167235000Y-65750000D01*
X168910000Y-68870000D02*
X168260000Y-68870000D01*
X168910000Y-65750000D02*
X169560000Y-65750000D01*
X191888545Y-81380000D02*
X191434417Y-81380000D01*
X191888545Y-79910000D02*
X191434417Y-79910000D01*
X191888545Y-78205000D02*
X191434417Y-78205000D01*
X191888545Y-76735000D02*
X191434417Y-76735000D01*
X168910000Y-88737000D02*
X167235000Y-88737000D01*
X168910000Y-91857000D02*
X169560000Y-91857000D01*
X168910000Y-91857000D02*
X168260000Y-91857000D01*
X168910000Y-88737000D02*
X169560000Y-88737000D01*
X198661981Y-87540000D02*
X198661981Y-87990000D01*
X198111981Y-93140000D02*
X198561981Y-93140000D01*
X200511981Y-95340000D02*
X198661981Y-95340000D01*
X198111981Y-93140000D02*
X198111981Y-92690000D01*
X203061981Y-87540000D02*
X202811981Y-87540000D01*
X198661981Y-95340000D02*
X198661981Y-94890000D01*
X200511981Y-87540000D02*
X198661981Y-87540000D01*
X203061981Y-95340000D02*
X202811981Y-95340000D01*
X146975000Y-78740000D02*
X146975000Y-79540000D01*
X146975000Y-78740000D02*
X146975000Y-76940000D01*
X143855000Y-78740000D02*
X143855000Y-79540000D01*
X143855000Y-78740000D02*
X143855000Y-77940000D01*
X201325000Y-82645000D02*
X201325000Y-81745000D01*
X201325000Y-80645000D02*
X201325000Y-78645000D01*
X200575000Y-79970000D02*
G75*
G03*
X202000000Y-79895000I750000J-675000D01*
G01*
X202250000Y-83645000D02*
G75*
G03*
X202250000Y-83645000I-925000J0D01*
G01*
D14*
X201500000Y-80645000D02*
G75*
G03*
X201500000Y-80645000I-175000J0D01*
G01*
D13*
X202250000Y-77645000D02*
G75*
G03*
X202250000Y-77645000I-925000J0D01*
G01*
X171280000Y-82130000D02*
X179720000Y-82130000D01*
X171580000Y-100370000D02*
X171580000Y-96370000D01*
X171580000Y-96370000D02*
X171280000Y-96370000D01*
X171280000Y-96370000D02*
X171280000Y-82130000D01*
X177820000Y-96370000D02*
X177820000Y-100370000D01*
X179720000Y-82130000D02*
X179720000Y-96370000D01*
X179720000Y-96370000D02*
X177820000Y-96370000D01*
X177820000Y-100370000D02*
X171580000Y-100370000D01*
X173180000Y-64958681D02*
X173180000Y-60958681D01*
X179720000Y-79198681D02*
X171280000Y-79198681D01*
X179720000Y-64958681D02*
X179720000Y-79198681D01*
X173180000Y-60958681D02*
X179420000Y-60958681D01*
X171280000Y-79198681D02*
X171280000Y-64958681D01*
X179420000Y-60958681D02*
X179420000Y-64958681D01*
X179420000Y-64958681D02*
X179720000Y-64958681D01*
X171280000Y-64958681D02*
X173180000Y-64958681D01*
X188920000Y-60958681D02*
X188920000Y-64958681D01*
X189220000Y-79198681D02*
X180780000Y-79198681D01*
X182680000Y-64958681D02*
X182680000Y-60958681D01*
X182680000Y-60958681D02*
X188920000Y-60958681D01*
X180780000Y-64958681D02*
X182680000Y-64958681D01*
X188920000Y-64958681D02*
X189220000Y-64958681D01*
X180780000Y-79198681D02*
X180780000Y-64958681D01*
X189220000Y-64958681D02*
X189220000Y-79198681D01*
X187320000Y-100370000D02*
X181080000Y-100370000D01*
X187320000Y-96370000D02*
X187320000Y-100370000D01*
X189220000Y-82130000D02*
X189220000Y-96370000D01*
X189220000Y-96370000D02*
X187320000Y-96370000D01*
X180780000Y-96370000D02*
X180780000Y-82130000D01*
X181080000Y-96370000D02*
X180780000Y-96370000D01*
X181080000Y-100370000D02*
X181080000Y-96370000D01*
X180780000Y-82130000D02*
X189220000Y-82130000D01*
M02*
