G04 #@! TF.GenerationSoftware,KiCad,Pcbnew,(6.0.0-0)*
G04 #@! TF.CreationDate,2022-04-14T23:47:31-05:00*
G04 #@! TF.ProjectId,kbxIrBlaster,6b627849-7242-46c6-9173-7465722e6b69,rev?*
G04 #@! TF.SameCoordinates,Original*
G04 #@! TF.FileFunction,Paste,Top*
G04 #@! TF.FilePolarity,Positive*
%FSLAX46Y46*%
G04 Gerber Fmt 4.6, Leading zero omitted, Abs format (unit mm)*
G04 Created by KiCad (PCBNEW (6.0.0-0)) date 2022-04-14 23:47:31*
%MOMM*%
%LPD*%
G01*
G04 APERTURE LIST*
G04 Aperture macros list*
%AMRoundRect*
0 Rectangle with rounded corners*
0 $1 Rounding radius*
0 $2 $3 $4 $5 $6 $7 $8 $9 X,Y pos of 4 corners*
0 Add a 4 corners polygon primitive as box body*
4,1,4,$2,$3,$4,$5,$6,$7,$8,$9,$2,$3,0*
0 Add four circle primitives for the rounded corners*
1,1,$1+$1,$2,$3*
1,1,$1+$1,$4,$5*
1,1,$1+$1,$6,$7*
1,1,$1+$1,$8,$9*
0 Add four rect primitives between the rounded corners*
20,1,$1+$1,$2,$3,$4,$5,0*
20,1,$1+$1,$4,$5,$6,$7,0*
20,1,$1+$1,$6,$7,$8,$9,0*
20,1,$1+$1,$8,$9,$2,$3,0*%
G04 Aperture macros list end*
%ADD10RoundRect,0.250000X0.337500X0.475000X-0.337500X0.475000X-0.337500X-0.475000X0.337500X-0.475000X0*%
%ADD11R,0.900000X1.000000*%
%ADD12RoundRect,0.150000X-0.587500X-0.150000X0.587500X-0.150000X0.587500X0.150000X-0.587500X0.150000X0*%
%ADD13RoundRect,0.250000X-0.475000X0.337500X-0.475000X-0.337500X0.475000X-0.337500X0.475000X0.337500X0*%
%ADD14RoundRect,0.250000X0.350000X0.450000X-0.350000X0.450000X-0.350000X-0.450000X0.350000X-0.450000X0*%
%ADD15RoundRect,0.250000X-0.350000X-0.450000X0.350000X-0.450000X0.350000X0.450000X-0.350000X0.450000X0*%
%ADD16RoundRect,0.250000X-0.337500X-0.475000X0.337500X-0.475000X0.337500X0.475000X-0.337500X0.475000X0*%
%ADD17R,1.100000X1.100000*%
%ADD18R,1.000000X0.800000*%
%ADD19R,0.900000X2.000000*%
%ADD20R,2.000000X0.900000*%
%ADD21R,5.000000X5.000000*%
%ADD22R,1.350000X0.400000*%
%ADD23R,1.900000X1.500000*%
%ADD24RoundRect,0.150000X-0.150000X0.512500X-0.150000X-0.512500X0.150000X-0.512500X0.150000X0.512500X0*%
G04 APERTURE END LIST*
D10*
X150897500Y-78740000D03*
X148822500Y-78740000D03*
D11*
X142095000Y-71590000D03*
X146195000Y-71590000D03*
X146195000Y-73190000D03*
X142095000Y-73190000D03*
D12*
X167972500Y-93030000D03*
X167972500Y-94930000D03*
X169847500Y-93980000D03*
D13*
X142240000Y-77702500D03*
X142240000Y-79777500D03*
D14*
X150860000Y-89535000D03*
X148860000Y-89535000D03*
D15*
X144415000Y-82931000D03*
X146415000Y-82931000D03*
D16*
X148822500Y-86360000D03*
X150897500Y-86360000D03*
D17*
X148460000Y-74930000D03*
X151260000Y-74930000D03*
D15*
X144415000Y-85471000D03*
X146415000Y-85471000D03*
D18*
X148610000Y-81850000D03*
X148610000Y-83250000D03*
X151110000Y-83250000D03*
X151110000Y-81850000D03*
D11*
X142095000Y-89700000D03*
X146195000Y-89700000D03*
X146195000Y-88100000D03*
X142095000Y-88100000D03*
D16*
X144377500Y-75565000D03*
X146452500Y-75565000D03*
D19*
X121285000Y-89145000D03*
X122555000Y-89145000D03*
X123825000Y-89145000D03*
X125095000Y-89145000D03*
X126365000Y-89145000D03*
X127635000Y-89145000D03*
X128905000Y-89145000D03*
X130175000Y-89145000D03*
X131445000Y-89145000D03*
X132715000Y-89145000D03*
X133985000Y-89145000D03*
X135255000Y-89145000D03*
X136525000Y-89145000D03*
X137795000Y-89145000D03*
D20*
X138795000Y-86360000D03*
X138795000Y-85090000D03*
X138795000Y-83820000D03*
X138795000Y-82550000D03*
X138795000Y-81280000D03*
X138795000Y-80010000D03*
X138795000Y-78740000D03*
X138795000Y-77470000D03*
X138795000Y-76200000D03*
X138795000Y-74930000D03*
D19*
X137795000Y-72145000D03*
X136525000Y-72145000D03*
X135255000Y-72145000D03*
X133985000Y-72145000D03*
X132715000Y-72145000D03*
X131445000Y-72145000D03*
X130175000Y-72145000D03*
X128905000Y-72145000D03*
X127635000Y-72145000D03*
X126365000Y-72145000D03*
X125095000Y-72145000D03*
X123825000Y-72145000D03*
X122555000Y-72145000D03*
X121285000Y-72145000D03*
D21*
X128785000Y-81645000D03*
D10*
X164867500Y-71755000D03*
X162792500Y-71755000D03*
D12*
X167972500Y-70043000D03*
X167972500Y-71943000D03*
X169847500Y-70993000D03*
D17*
X195471481Y-80140000D03*
X195471481Y-77340000D03*
X195471481Y-82420000D03*
X195471481Y-85220000D03*
D14*
X192661481Y-86995000D03*
X190661481Y-86995000D03*
X192661481Y-83820000D03*
X190661481Y-83820000D03*
D12*
X167972500Y-66360000D03*
X167972500Y-68260000D03*
X169847500Y-67310000D03*
D14*
X192661481Y-80645000D03*
X190661481Y-80645000D03*
X192661481Y-77470000D03*
X190661481Y-77470000D03*
D12*
X167972500Y-89347000D03*
X167972500Y-91247000D03*
X169847500Y-90297000D03*
D22*
X198961981Y-92740000D03*
X198961981Y-92090000D03*
X198961981Y-91440000D03*
X198961981Y-90790000D03*
X198961981Y-90140000D03*
D23*
X201661981Y-92440000D03*
X201661981Y-90440000D03*
D24*
X146365000Y-77602500D03*
X145415000Y-77602500D03*
X144465000Y-77602500D03*
X144465000Y-79877500D03*
X146365000Y-79877500D03*
M02*
