M48
; DRILL file {KiCad (6.0.0-0)} date Thursday, April 14, 2022 at 11:47:29 PM
; FORMAT={-:-/ absolute / inch / decimal}
; #@! TF.CreationDate,2022-04-14T23:47:29-05:00
; #@! TF.GenerationSoftware,Kicad,Pcbnew,(6.0.0-0)
; #@! TF.FileFunction,Plated,1,2,PTH
FMAT,2
INCH
; #@! TA.AperFunction,Plated,PTH,ViaDrill
T1C0.0157
; #@! TA.AperFunction,Plated,PTH,ComponentDrill
T2C0.0197
; #@! TA.AperFunction,Plated,PTH,ComponentDrill
T3C0.0236
; #@! TA.AperFunction,Plated,PTH,ComponentDrill
T4C0.0335
; #@! TA.AperFunction,Plated,PTH,ComponentDrill
T5C0.0354
; #@! TA.AperFunction,Plated,PTH,ComponentDrill
T6C0.0394
; #@! TA.AperFunction,Plated,PTH,ComponentDrill
T7C0.0984
%
G90
G05
T1
X4.775Y-2.84
X4.775Y-3.51
X4.825Y-3.5096
X5.025Y-3.475
X5.075Y-3.425
X5.3472Y-2.9535
X5.375Y-2.925
X5.465Y-3.4
X5.495Y-2.85
X5.495Y-2.89
X5.5943Y-3.5315
X5.6Y-3.1404
X5.6846Y-3.265
X5.6846Y-3.365
X5.9Y-3.05
X5.9404Y-3.525
X6.075Y-2.8156
X6.6106Y-3.6626
X6.63Y-2.62
X6.63Y-2.785
X6.63Y-3.55
T2
X6.3012Y-2.65
X6.3012Y-3.7
X6.3228Y-2.5978
X6.3228Y-2.7022
X6.3228Y-3.6478
X6.3228Y-3.7522
X6.375Y-2.5762
X6.375Y-2.7238
X6.375Y-3.6262
X6.375Y-3.7738
X6.4272Y-2.5978
X6.4272Y-2.7022
X6.4272Y-3.6478
X6.4272Y-3.7522
X6.4488Y-2.65
X6.4488Y-3.7
X7.5148Y-3.7
X7.5364Y-3.6478
X7.5364Y-3.7522
X7.5886Y-3.6262
X7.5886Y-3.7738
X7.6408Y-3.6478
X7.6408Y-3.7522
X7.6624Y-3.7
T4
X7.8331Y-3.5016
X7.8331Y-3.6984
T5
X6.575Y-2.915
X6.575Y-3.015
X6.575Y-3.115
X6.575Y-3.235
X6.575Y-3.335
X6.575Y-3.435
T6
X4.775Y-2.675
X4.775Y-3.675
X4.875Y-2.675
X4.875Y-3.675
X4.975Y-2.675
X4.975Y-3.675
X5.075Y-2.675
X5.075Y-3.675
X5.175Y-2.675
X5.175Y-3.675
X5.275Y-2.675
X5.275Y-3.675
X5.375Y-2.675
X5.375Y-3.675
X5.475Y-2.675
X5.475Y-3.675
X5.575Y-2.675
X5.575Y-3.675
X5.675Y-2.675
X5.675Y-3.675
X5.775Y-2.675
X5.775Y-3.675
X5.875Y-2.675
X5.875Y-3.675
X5.975Y-2.675
X5.975Y-3.675
X6.075Y-2.675
X6.075Y-2.925
X6.075Y-3.025
X6.075Y-3.125
X6.075Y-3.225
X6.075Y-3.325
X6.075Y-3.425
X6.075Y-3.675
X6.175Y-2.675
X6.175Y-3.675
T7
X6.375Y-2.65
X6.375Y-3.7
X7.5886Y-3.7
T3
G00X7.9257Y-3.4622
M15
G01X7.9532Y-3.4622
M16
G05
G00X7.9532Y-3.7378
M15
G01X7.9257Y-3.7378
M16
G05
T6
G00X6.8543Y-3.4311
M15
G01X6.815Y-3.4311
M16
G05
G00X6.8543Y-3.6476
M15
G01X6.815Y-3.6476
M16
G05
G00X6.8858Y-2.6094
M15
G01X6.9252Y-2.6094
M16
G05
G00X6.9331Y-3.7421
M15
G01X6.8937Y-3.7421
M16
G05
G00X6.9646Y-2.7039
M15
G01X7.0039Y-2.7039
M16
G05
G00X6.9646Y-2.9204
M15
G01X7.0039Y-2.9204
M16
G05
G00X7.2283Y-3.4311
M15
G01X7.189Y-3.4311
M16
G05
G00X7.2283Y-3.6476
M15
G01X7.189Y-3.6476
M16
G05
G00X7.2598Y-2.6094
M15
G01X7.2992Y-2.6094
M16
G05
G00X7.3071Y-3.7421
M15
G01X7.2677Y-3.7421
M16
G05
G00X7.3386Y-2.7039
M15
G01X7.378Y-2.7039
M16
G05
G00X7.3386Y-2.9204
M15
G01X7.378Y-2.9204
M16
G05
G00X7.5707Y-2.8394
M15
G01X7.5707Y-2.7606
M16
G05
G00X7.7282Y-2.615
M15
G01X7.6495Y-2.615
M16
G05
G00X7.8069Y-2.8394
M15
G01X7.8069Y-2.7606
M16
G05
T0
M30
