G04 #@! TF.GenerationSoftware,KiCad,Pcbnew,(6.0.0-0)*
G04 #@! TF.CreationDate,2022-04-14T23:47:31-05:00*
G04 #@! TF.ProjectId,kbxIrBlaster,6b627849-7242-46c6-9173-7465722e6b69,rev?*
G04 #@! TF.SameCoordinates,Original*
G04 #@! TF.FileFunction,Soldermask,Top*
G04 #@! TF.FilePolarity,Negative*
%FSLAX46Y46*%
G04 Gerber Fmt 4.6, Leading zero omitted, Abs format (unit mm)*
G04 Created by KiCad (PCBNEW (6.0.0-0)) date 2022-04-14 23:47:31*
%MOMM*%
%LPD*%
G01*
G04 APERTURE LIST*
G04 Aperture macros list*
%AMRoundRect*
0 Rectangle with rounded corners*
0 $1 Rounding radius*
0 $2 $3 $4 $5 $6 $7 $8 $9 X,Y pos of 4 corners*
0 Add a 4 corners polygon primitive as box body*
4,1,4,$2,$3,$4,$5,$6,$7,$8,$9,$2,$3,0*
0 Add four circle primitives for the rounded corners*
1,1,$1+$1,$2,$3*
1,1,$1+$1,$4,$5*
1,1,$1+$1,$6,$7*
1,1,$1+$1,$8,$9*
0 Add four rect primitives between the rounded corners*
20,1,$1+$1,$2,$3,$4,$5,0*
20,1,$1+$1,$4,$5,$6,$7,0*
20,1,$1+$1,$6,$7,$8,$9,0*
20,1,$1+$1,$8,$9,$2,$3,0*%
G04 Aperture macros list end*
%ADD10RoundRect,0.301000X0.337500X0.475000X-0.337500X0.475000X-0.337500X-0.475000X0.337500X-0.475000X0*%
%ADD11RoundRect,0.051000X0.850000X0.850000X-0.850000X0.850000X-0.850000X-0.850000X0.850000X-0.850000X0*%
%ADD12O,1.802000X1.802000*%
%ADD13RoundRect,0.051000X-0.450000X-0.500000X0.450000X-0.500000X0.450000X0.500000X-0.450000X0.500000X0*%
%ADD14RoundRect,0.201000X-0.587500X-0.150000X0.587500X-0.150000X0.587500X0.150000X-0.587500X0.150000X0*%
%ADD15RoundRect,0.301000X-0.475000X0.337500X-0.475000X-0.337500X0.475000X-0.337500X0.475000X0.337500X0*%
%ADD16RoundRect,0.301000X0.350000X0.450000X-0.350000X0.450000X-0.350000X-0.450000X0.350000X-0.450000X0*%
%ADD17RoundRect,0.301000X-0.350000X-0.450000X0.350000X-0.450000X0.350000X0.450000X-0.350000X0.450000X0*%
%ADD18RoundRect,0.301000X-0.337500X-0.475000X0.337500X-0.475000X0.337500X0.475000X-0.337500X0.475000X0*%
%ADD19RoundRect,0.051000X-0.550000X-0.550000X0.550000X-0.550000X0.550000X0.550000X-0.550000X0.550000X0*%
%ADD20RoundRect,0.051000X-0.500000X-0.400000X0.500000X-0.400000X0.500000X0.400000X-0.500000X0.400000X0*%
%ADD21RoundRect,0.051000X0.450000X0.500000X-0.450000X0.500000X-0.450000X-0.500000X0.450000X-0.500000X0*%
%ADD22RoundRect,0.051000X0.450000X-1.000000X0.450000X1.000000X-0.450000X1.000000X-0.450000X-1.000000X0*%
%ADD23RoundRect,0.051000X1.000000X0.450000X-1.000000X0.450000X-1.000000X-0.450000X1.000000X-0.450000X0*%
%ADD24RoundRect,0.051000X2.500000X-2.500000X2.500000X2.500000X-2.500000X2.500000X-2.500000X-2.500000X0*%
%ADD25RoundRect,0.051000X0.850000X-0.850000X0.850000X0.850000X-0.850000X0.850000X-0.850000X-0.850000X0*%
%ADD26C,0.902000*%
%ADD27C,5.102000*%
%ADD28RoundRect,0.301200X0.649800X-0.649800X0.649800X0.649800X-0.649800X0.649800X-0.649800X-0.649800X0*%
%ADD29C,1.902000*%
%ADD30RoundRect,0.051000X0.550000X-0.550000X0.550000X0.550000X-0.550000X0.550000X-0.550000X-0.550000X0*%
%ADD31RoundRect,0.051000X-0.550000X0.550000X-0.550000X-0.550000X0.550000X-0.550000X0.550000X0.550000X0*%
%ADD32RoundRect,0.051000X1.750000X1.750000X-1.750000X1.750000X-1.750000X-1.750000X1.750000X-1.750000X0*%
%ADD33RoundRect,0.801000X0.750000X1.000000X-0.750000X1.000000X-0.750000X-1.000000X0.750000X-1.000000X0*%
%ADD34RoundRect,0.926000X0.875000X0.875000X-0.875000X0.875000X-0.875000X-0.875000X0.875000X-0.875000X0*%
%ADD35RoundRect,0.051000X0.675000X-0.200000X0.675000X0.200000X-0.675000X0.200000X-0.675000X-0.200000X0*%
%ADD36RoundRect,0.051000X0.950000X-0.750000X0.950000X0.750000X-0.950000X0.750000X-0.950000X-0.750000X0*%
%ADD37RoundRect,0.051000X0.950000X-0.600000X0.950000X0.600000X-0.950000X0.600000X-0.950000X-0.600000X0*%
%ADD38O,2.002000X1.302000*%
%ADD39C,1.552000*%
%ADD40RoundRect,0.201000X-0.150000X0.512500X-0.150000X-0.512500X0.150000X-0.512500X0.150000X0.512500X0*%
%ADD41O,2.902000X1.902000*%
G04 APERTURE END LIST*
D10*
X150897500Y-78740000D03*
X148822500Y-78740000D03*
D11*
X154305000Y-86995000D03*
D12*
X154305000Y-84455000D03*
X154305000Y-81915000D03*
X154305000Y-79375000D03*
X154305000Y-76835000D03*
X154305000Y-74295000D03*
D13*
X142095000Y-71590000D03*
X146195000Y-71590000D03*
X146195000Y-73190000D03*
X142095000Y-73190000D03*
D14*
X167972500Y-93030000D03*
X167972500Y-94930000D03*
X169847500Y-93980000D03*
D15*
X142240000Y-77702500D03*
X142240000Y-79777500D03*
D16*
X150860000Y-89535000D03*
X148860000Y-89535000D03*
D17*
X144415000Y-82931000D03*
X146415000Y-82931000D03*
D18*
X148822500Y-86360000D03*
X150897500Y-86360000D03*
D19*
X148460000Y-74930000D03*
X151260000Y-74930000D03*
D17*
X144415000Y-85471000D03*
X146415000Y-85471000D03*
D20*
X148610000Y-81850000D03*
X148610000Y-83250000D03*
X151110000Y-83250000D03*
X151110000Y-81850000D03*
D21*
X142095000Y-89700000D03*
X146195000Y-89700000D03*
X146195000Y-88100000D03*
X142095000Y-88100000D03*
D18*
X144377500Y-75565000D03*
X146452500Y-75565000D03*
D22*
X121285000Y-89145000D03*
X122555000Y-89145000D03*
X123825000Y-89145000D03*
X125095000Y-89145000D03*
X126365000Y-89145000D03*
X127635000Y-89145000D03*
X128905000Y-89145000D03*
X130175000Y-89145000D03*
X131445000Y-89145000D03*
X132715000Y-89145000D03*
X133985000Y-89145000D03*
X135255000Y-89145000D03*
X136525000Y-89145000D03*
X137795000Y-89145000D03*
D23*
X138795000Y-86360000D03*
X138795000Y-85090000D03*
X138795000Y-83820000D03*
X138795000Y-82550000D03*
X138795000Y-81280000D03*
X138795000Y-80010000D03*
X138795000Y-78740000D03*
X138795000Y-77470000D03*
X138795000Y-76200000D03*
X138795000Y-74930000D03*
D22*
X137795000Y-72145000D03*
X136525000Y-72145000D03*
X135255000Y-72145000D03*
X133985000Y-72145000D03*
X132715000Y-72145000D03*
X131445000Y-72145000D03*
X130175000Y-72145000D03*
X128905000Y-72145000D03*
X127635000Y-72145000D03*
X126365000Y-72145000D03*
X125095000Y-72145000D03*
X123825000Y-72145000D03*
X122555000Y-72145000D03*
X121285000Y-72145000D03*
D24*
X128785000Y-81645000D03*
D25*
X121285000Y-93345000D03*
D12*
X123825000Y-93345000D03*
X126365000Y-93345000D03*
X128905000Y-93345000D03*
X131445000Y-93345000D03*
X133985000Y-93345000D03*
X136525000Y-93345000D03*
X139065000Y-93345000D03*
X141605000Y-93345000D03*
X144145000Y-93345000D03*
X146685000Y-93345000D03*
X149225000Y-93345000D03*
X151765000Y-93345000D03*
X154305000Y-93345000D03*
X156845000Y-93345000D03*
D25*
X121285000Y-67945000D03*
D12*
X123825000Y-67945000D03*
X126365000Y-67945000D03*
X128905000Y-67945000D03*
X131445000Y-67945000D03*
X133985000Y-67945000D03*
X136525000Y-67945000D03*
X139065000Y-67945000D03*
X141605000Y-67945000D03*
X144145000Y-67945000D03*
X146685000Y-67945000D03*
X149225000Y-67945000D03*
X151765000Y-67945000D03*
X154305000Y-67945000D03*
X156845000Y-67945000D03*
D26*
X161925000Y-65435000D03*
X160599175Y-65984175D03*
X161925000Y-69185000D03*
X163800000Y-67310000D03*
D27*
X161925000Y-67310000D03*
D26*
X163250825Y-68635825D03*
X160050000Y-67310000D03*
X160599175Y-68635825D03*
X163250825Y-65984175D03*
D10*
X164867500Y-71755000D03*
X162792500Y-71755000D03*
D26*
X163800000Y-93980000D03*
X160050000Y-93980000D03*
X163250825Y-92654175D03*
X160599175Y-95305825D03*
D27*
X161925000Y-93980000D03*
D26*
X163250825Y-95305825D03*
X161925000Y-92105000D03*
X161925000Y-95855000D03*
X160599175Y-92654175D03*
D14*
X167972500Y-70043000D03*
X167972500Y-71943000D03*
X169847500Y-70993000D03*
D28*
X167005000Y-87249000D03*
D29*
X167005000Y-84709000D03*
X167005000Y-82169000D03*
D30*
X195471481Y-80140000D03*
X195471481Y-77340000D03*
D31*
X195471481Y-82420000D03*
X195471481Y-85220000D03*
D26*
X190875000Y-93980000D03*
D27*
X192750000Y-93980000D03*
D26*
X192750000Y-95855000D03*
X192750000Y-92105000D03*
X194075825Y-95305825D03*
X191424175Y-95305825D03*
X191424175Y-92654175D03*
X194075825Y-92654175D03*
X194625000Y-93980000D03*
D32*
X192296481Y-71120000D03*
D33*
X198296481Y-71120000D03*
D34*
X195296481Y-66420000D03*
D16*
X192661481Y-86995000D03*
X190661481Y-86995000D03*
X192661481Y-83820000D03*
X190661481Y-83820000D03*
D28*
X167005000Y-79121000D03*
D29*
X167005000Y-76581000D03*
X167005000Y-74041000D03*
D14*
X167972500Y-66360000D03*
X167972500Y-68260000D03*
X169847500Y-67310000D03*
D16*
X192661481Y-80645000D03*
X190661481Y-80645000D03*
X192661481Y-77470000D03*
X190661481Y-77470000D03*
D14*
X167972500Y-89347000D03*
X167972500Y-91247000D03*
X169847500Y-90297000D03*
D35*
X198961981Y-92740000D03*
X198961981Y-92090000D03*
X198961981Y-91440000D03*
X198961981Y-90790000D03*
X198961981Y-90140000D03*
D36*
X201661981Y-92440000D03*
D37*
X201661981Y-94340000D03*
X201661981Y-88540000D03*
D38*
X201661981Y-87940000D03*
D36*
X201661981Y-90440000D03*
D39*
X198961981Y-88940000D03*
X198961981Y-93940000D03*
D38*
X201661981Y-94940000D03*
D40*
X146365000Y-77602500D03*
X145415000Y-77602500D03*
X144465000Y-77602500D03*
X144465000Y-79877500D03*
X146365000Y-79877500D03*
D41*
X173600000Y-87150000D03*
X175600000Y-95050000D03*
X173600000Y-92650000D03*
X177400000Y-74178681D03*
X175400000Y-66278681D03*
X177400000Y-68678681D03*
X186900000Y-74178681D03*
X184900000Y-66278681D03*
X186900000Y-68678681D03*
X183100000Y-87150000D03*
X185100000Y-95050000D03*
X183100000Y-92650000D03*
G36*
X199316027Y-92990000D02*
G01*
X199316027Y-92992000D01*
X199314858Y-92992919D01*
X199247846Y-93012595D01*
X199202491Y-93064938D01*
X199192634Y-93133491D01*
X199221435Y-93196555D01*
X199260921Y-93225822D01*
X199261717Y-93227657D01*
X199260526Y-93229264D01*
X199259059Y-93229313D01*
X199138722Y-93186463D01*
X198967383Y-93166032D01*
X198795778Y-93184068D01*
X198665439Y-93228439D01*
X198663477Y-93228051D01*
X198662832Y-93226158D01*
X198663499Y-93225022D01*
X198712427Y-93183434D01*
X198732572Y-93117168D01*
X198713693Y-93050535D01*
X198661732Y-93004635D01*
X198609229Y-92992952D01*
X198607755Y-92991600D01*
X198608190Y-92989648D01*
X198609663Y-92989000D01*
X199314295Y-92989000D01*
X199316027Y-92990000D01*
G37*
G36*
X198257248Y-92327886D02*
G01*
X198268243Y-92335233D01*
X198287180Y-92339000D01*
X199636782Y-92339000D01*
X199655719Y-92335233D01*
X199666714Y-92327886D01*
X199668710Y-92327755D01*
X199669821Y-92329418D01*
X199669488Y-92330660D01*
X199660272Y-92344452D01*
X199662012Y-92345615D01*
X199662897Y-92347409D01*
X199662436Y-92348560D01*
X199647903Y-92365952D01*
X199639277Y-92434670D01*
X199662063Y-92482288D01*
X199661909Y-92484282D01*
X199661370Y-92484814D01*
X199660272Y-92485548D01*
X199669488Y-92499340D01*
X199669619Y-92501336D01*
X199667956Y-92502447D01*
X199666714Y-92502114D01*
X199655719Y-92494767D01*
X199636782Y-92491000D01*
X198287180Y-92491000D01*
X198268243Y-92494767D01*
X198257248Y-92502114D01*
X198255252Y-92502245D01*
X198254141Y-92500582D01*
X198254474Y-92499340D01*
X198263690Y-92485548D01*
X198261950Y-92484385D01*
X198261065Y-92482591D01*
X198261526Y-92481440D01*
X198276059Y-92464048D01*
X198284685Y-92395330D01*
X198261899Y-92347712D01*
X198262053Y-92345718D01*
X198262592Y-92345186D01*
X198263690Y-92344452D01*
X198254474Y-92330660D01*
X198254343Y-92328664D01*
X198256006Y-92327553D01*
X198257248Y-92327886D01*
G37*
G36*
X198257248Y-91677886D02*
G01*
X198268243Y-91685233D01*
X198287180Y-91689000D01*
X199636782Y-91689000D01*
X199655719Y-91685233D01*
X199666714Y-91677886D01*
X199668710Y-91677755D01*
X199669821Y-91679418D01*
X199669488Y-91680660D01*
X199660272Y-91694452D01*
X199662012Y-91695615D01*
X199662897Y-91697409D01*
X199662436Y-91698560D01*
X199647903Y-91715952D01*
X199639277Y-91784670D01*
X199662063Y-91832288D01*
X199661909Y-91834282D01*
X199661370Y-91834814D01*
X199660272Y-91835548D01*
X199669488Y-91849340D01*
X199669619Y-91851336D01*
X199667956Y-91852447D01*
X199666714Y-91852114D01*
X199655719Y-91844767D01*
X199636782Y-91841000D01*
X198287180Y-91841000D01*
X198268243Y-91844767D01*
X198257248Y-91852114D01*
X198255252Y-91852245D01*
X198254141Y-91850582D01*
X198254474Y-91849340D01*
X198263690Y-91835548D01*
X198261950Y-91834385D01*
X198261065Y-91832591D01*
X198261526Y-91831440D01*
X198276059Y-91814048D01*
X198284685Y-91745330D01*
X198261899Y-91697712D01*
X198262053Y-91695718D01*
X198262592Y-91695186D01*
X198263690Y-91694452D01*
X198254474Y-91680660D01*
X198254343Y-91678664D01*
X198256006Y-91677553D01*
X198257248Y-91677886D01*
G37*
G36*
X198257248Y-91027886D02*
G01*
X198268243Y-91035233D01*
X198287180Y-91039000D01*
X199636782Y-91039000D01*
X199655719Y-91035233D01*
X199666714Y-91027886D01*
X199668710Y-91027755D01*
X199669821Y-91029418D01*
X199669488Y-91030660D01*
X199660272Y-91044452D01*
X199662012Y-91045615D01*
X199662897Y-91047409D01*
X199662436Y-91048560D01*
X199647903Y-91065952D01*
X199639277Y-91134670D01*
X199662063Y-91182288D01*
X199661909Y-91184282D01*
X199661370Y-91184814D01*
X199660272Y-91185548D01*
X199669488Y-91199340D01*
X199669619Y-91201336D01*
X199667956Y-91202447D01*
X199666714Y-91202114D01*
X199655719Y-91194767D01*
X199636782Y-91191000D01*
X198287180Y-91191000D01*
X198268243Y-91194767D01*
X198257248Y-91202114D01*
X198255252Y-91202245D01*
X198254141Y-91200582D01*
X198254474Y-91199340D01*
X198263690Y-91185548D01*
X198261950Y-91184385D01*
X198261065Y-91182591D01*
X198261526Y-91181440D01*
X198276059Y-91164048D01*
X198284685Y-91095330D01*
X198261899Y-91047712D01*
X198262053Y-91045718D01*
X198262592Y-91045186D01*
X198263690Y-91044452D01*
X198254474Y-91030660D01*
X198254343Y-91028664D01*
X198256006Y-91027553D01*
X198257248Y-91027886D01*
G37*
G36*
X198257248Y-90377886D02*
G01*
X198268243Y-90385233D01*
X198287180Y-90389000D01*
X199636782Y-90389000D01*
X199655719Y-90385233D01*
X199666714Y-90377886D01*
X199668710Y-90377755D01*
X199669821Y-90379418D01*
X199669488Y-90380660D01*
X199660272Y-90394452D01*
X199662012Y-90395615D01*
X199662897Y-90397409D01*
X199662436Y-90398560D01*
X199647903Y-90415952D01*
X199639277Y-90484670D01*
X199662063Y-90532288D01*
X199661909Y-90534282D01*
X199661370Y-90534814D01*
X199660272Y-90535548D01*
X199669488Y-90549340D01*
X199669619Y-90551336D01*
X199667956Y-90552447D01*
X199666714Y-90552114D01*
X199655719Y-90544767D01*
X199636782Y-90541000D01*
X198287180Y-90541000D01*
X198268243Y-90544767D01*
X198257248Y-90552114D01*
X198255252Y-90552245D01*
X198254141Y-90550582D01*
X198254474Y-90549340D01*
X198263690Y-90535548D01*
X198261950Y-90534385D01*
X198261065Y-90532591D01*
X198261526Y-90531440D01*
X198276059Y-90514048D01*
X198284685Y-90445330D01*
X198261899Y-90397712D01*
X198262053Y-90395718D01*
X198262592Y-90395186D01*
X198263690Y-90394452D01*
X198254474Y-90380660D01*
X198254343Y-90378664D01*
X198256006Y-90377553D01*
X198257248Y-90377886D01*
G37*
G36*
X198774740Y-89690997D02*
G01*
X198945770Y-89713818D01*
X199117614Y-89698178D01*
X199256964Y-89652901D01*
X199258920Y-89653317D01*
X199259538Y-89655219D01*
X199258877Y-89656327D01*
X199211536Y-89696566D01*
X199191390Y-89762832D01*
X199210268Y-89829465D01*
X199262230Y-89875364D01*
X199314733Y-89887048D01*
X199316207Y-89888400D01*
X199315772Y-89890352D01*
X199314299Y-89891000D01*
X198609667Y-89891000D01*
X198607935Y-89890000D01*
X198607935Y-89888000D01*
X198609104Y-89887081D01*
X198676116Y-89867405D01*
X198721471Y-89815062D01*
X198731328Y-89746509D01*
X198702527Y-89683445D01*
X198661586Y-89653100D01*
X198660790Y-89651265D01*
X198661981Y-89649658D01*
X198663474Y-89649618D01*
X198774740Y-89690997D01*
G37*
G36*
X145065218Y-77096609D02*
G01*
X145066000Y-77098195D01*
X145066000Y-78106795D01*
X145065000Y-78108527D01*
X145063000Y-78108527D01*
X145062017Y-78107056D01*
X145061985Y-78106817D01*
X145033846Y-78043204D01*
X144976035Y-78005070D01*
X144906780Y-78004244D01*
X144848086Y-78040983D01*
X144818015Y-78106825D01*
X144817983Y-78107067D01*
X144816764Y-78108653D01*
X144814782Y-78108391D01*
X144814000Y-78106805D01*
X144814000Y-77098205D01*
X144815000Y-77096473D01*
X144817000Y-77096473D01*
X144817983Y-77097944D01*
X144818015Y-77098183D01*
X144846154Y-77161796D01*
X144903965Y-77199930D01*
X144973220Y-77200756D01*
X145031914Y-77164017D01*
X145061985Y-77098175D01*
X145062017Y-77097933D01*
X145063236Y-77096347D01*
X145065218Y-77096609D01*
G37*
G36*
X146015218Y-77096609D02*
G01*
X146016000Y-77098195D01*
X146016000Y-78106795D01*
X146015000Y-78108527D01*
X146013000Y-78108527D01*
X146012017Y-78107056D01*
X146011985Y-78106817D01*
X145983846Y-78043204D01*
X145926035Y-78005070D01*
X145856780Y-78004244D01*
X145798086Y-78040983D01*
X145768015Y-78106825D01*
X145767983Y-78107067D01*
X145766764Y-78108653D01*
X145764782Y-78108391D01*
X145764000Y-78106805D01*
X145764000Y-77098205D01*
X145765000Y-77096473D01*
X145767000Y-77096473D01*
X145767983Y-77097944D01*
X145768015Y-77098183D01*
X145796154Y-77161796D01*
X145853965Y-77199930D01*
X145923220Y-77200756D01*
X145981914Y-77164017D01*
X146011985Y-77098175D01*
X146012017Y-77097933D01*
X146013236Y-77096347D01*
X146015218Y-77096609D01*
G37*
M02*
