G04 #@! TF.GenerationSoftware,KiCad,Pcbnew,(5.1.9-0-10_14)*
G04 #@! TF.CreationDate,2021-06-13T22:04:25-05:00*
G04 #@! TF.ProjectId,kbxIrBlaster,6b627849-7242-46c6-9173-7465722e6b69,rev?*
G04 #@! TF.SameCoordinates,Original*
G04 #@! TF.FileFunction,Soldermask,Top*
G04 #@! TF.FilePolarity,Negative*
%FSLAX46Y46*%
G04 Gerber Fmt 4.6, Leading zero omitted, Abs format (unit mm)*
G04 Created by KiCad (PCBNEW (5.1.9-0-10_14)) date 2021-06-13 22:04:25*
%MOMM*%
%LPD*%
G01*
G04 APERTURE LIST*
%ADD10O,2.002000X1.302000*%
%ADD11C,1.552000*%
%ADD12C,1.902000*%
%ADD13O,1.802000X1.802000*%
%ADD14C,0.902000*%
%ADD15C,5.102000*%
%ADD16C,0.100000*%
G04 APERTURE END LIST*
G36*
G01*
X146039999Y-79259000D02*
X146690001Y-79259000D01*
G75*
G02*
X146741000Y-79309999I0J-50999D01*
G01*
X146741000Y-80370001D01*
G75*
G02*
X146690001Y-80421000I-50999J0D01*
G01*
X146039999Y-80421000D01*
G75*
G02*
X145989000Y-80370001I0J50999D01*
G01*
X145989000Y-79309999D01*
G75*
G02*
X146039999Y-79259000I50999J0D01*
G01*
G37*
G36*
G01*
X144139999Y-79259000D02*
X144790001Y-79259000D01*
G75*
G02*
X144841000Y-79309999I0J-50999D01*
G01*
X144841000Y-80370001D01*
G75*
G02*
X144790001Y-80421000I-50999J0D01*
G01*
X144139999Y-80421000D01*
G75*
G02*
X144089000Y-80370001I0J50999D01*
G01*
X144089000Y-79309999D01*
G75*
G02*
X144139999Y-79259000I50999J0D01*
G01*
G37*
G36*
G01*
X144139999Y-77059000D02*
X144790001Y-77059000D01*
G75*
G02*
X144841000Y-77109999I0J-50999D01*
G01*
X144841000Y-78170001D01*
G75*
G02*
X144790001Y-78221000I-50999J0D01*
G01*
X144139999Y-78221000D01*
G75*
G02*
X144089000Y-78170001I0J50999D01*
G01*
X144089000Y-77109999D01*
G75*
G02*
X144139999Y-77059000I50999J0D01*
G01*
G37*
G36*
G01*
X145089999Y-77059000D02*
X145740001Y-77059000D01*
G75*
G02*
X145791000Y-77109999I0J-50999D01*
G01*
X145791000Y-78170001D01*
G75*
G02*
X145740001Y-78221000I-50999J0D01*
G01*
X145089999Y-78221000D01*
G75*
G02*
X145039000Y-78170001I0J50999D01*
G01*
X145039000Y-77109999D01*
G75*
G02*
X145089999Y-77059000I50999J0D01*
G01*
G37*
G36*
G01*
X146039999Y-77059000D02*
X146690001Y-77059000D01*
G75*
G02*
X146741000Y-77109999I0J-50999D01*
G01*
X146741000Y-78170001D01*
G75*
G02*
X146690001Y-78221000I-50999J0D01*
G01*
X146039999Y-78221000D01*
G75*
G02*
X145989000Y-78170001I0J50999D01*
G01*
X145989000Y-77109999D01*
G75*
G02*
X146039999Y-77059000I50999J0D01*
G01*
G37*
G36*
G01*
X197640501Y-94991000D02*
X195740499Y-94991000D01*
G75*
G02*
X195689500Y-94940001I0J50999D01*
G01*
X195689500Y-93739999D01*
G75*
G02*
X195740499Y-93689000I50999J0D01*
G01*
X197640501Y-93689000D01*
G75*
G02*
X197691500Y-93739999I0J-50999D01*
G01*
X197691500Y-94940001D01*
G75*
G02*
X197640501Y-94991000I-50999J0D01*
G01*
G37*
G36*
G01*
X197640501Y-89191000D02*
X195740499Y-89191000D01*
G75*
G02*
X195689500Y-89140001I0J50999D01*
G01*
X195689500Y-87939999D01*
G75*
G02*
X195740499Y-87889000I50999J0D01*
G01*
X197640501Y-87889000D01*
G75*
G02*
X197691500Y-87939999I0J-50999D01*
G01*
X197691500Y-89140001D01*
G75*
G02*
X197640501Y-89191000I-50999J0D01*
G01*
G37*
D10*
X196690500Y-87940000D03*
X196690500Y-94940000D03*
G36*
G01*
X197640500Y-93241000D02*
X195740500Y-93241000D01*
G75*
G02*
X195689500Y-93190000I0J51000D01*
G01*
X195689500Y-91690000D01*
G75*
G02*
X195740500Y-91639000I51000J0D01*
G01*
X197640500Y-91639000D01*
G75*
G02*
X197691500Y-91690000I0J-51000D01*
G01*
X197691500Y-93190000D01*
G75*
G02*
X197640500Y-93241000I-51000J0D01*
G01*
G37*
D11*
X193990500Y-88940000D03*
G36*
G01*
X194665500Y-91691000D02*
X193315500Y-91691000D01*
G75*
G02*
X193264500Y-91640000I0J51000D01*
G01*
X193264500Y-91240000D01*
G75*
G02*
X193315500Y-91189000I51000J0D01*
G01*
X194665500Y-91189000D01*
G75*
G02*
X194716500Y-91240000I0J-51000D01*
G01*
X194716500Y-91640000D01*
G75*
G02*
X194665500Y-91691000I-51000J0D01*
G01*
G37*
G36*
G01*
X194665500Y-91041000D02*
X193315500Y-91041000D01*
G75*
G02*
X193264500Y-90990000I0J51000D01*
G01*
X193264500Y-90590000D01*
G75*
G02*
X193315500Y-90539000I51000J0D01*
G01*
X194665500Y-90539000D01*
G75*
G02*
X194716500Y-90590000I0J-51000D01*
G01*
X194716500Y-90990000D01*
G75*
G02*
X194665500Y-91041000I-51000J0D01*
G01*
G37*
G36*
G01*
X194665500Y-90391000D02*
X193315500Y-90391000D01*
G75*
G02*
X193264500Y-90340000I0J51000D01*
G01*
X193264500Y-89940000D01*
G75*
G02*
X193315500Y-89889000I51000J0D01*
G01*
X194665500Y-89889000D01*
G75*
G02*
X194716500Y-89940000I0J-51000D01*
G01*
X194716500Y-90340000D01*
G75*
G02*
X194665500Y-90391000I-51000J0D01*
G01*
G37*
G36*
G01*
X194665500Y-92991000D02*
X193315500Y-92991000D01*
G75*
G02*
X193264500Y-92940000I0J51000D01*
G01*
X193264500Y-92540000D01*
G75*
G02*
X193315500Y-92489000I51000J0D01*
G01*
X194665500Y-92489000D01*
G75*
G02*
X194716500Y-92540000I0J-51000D01*
G01*
X194716500Y-92940000D01*
G75*
G02*
X194665500Y-92991000I-51000J0D01*
G01*
G37*
G36*
G01*
X194665500Y-92341000D02*
X193315500Y-92341000D01*
G75*
G02*
X193264500Y-92290000I0J51000D01*
G01*
X193264500Y-91890000D01*
G75*
G02*
X193315500Y-91839000I51000J0D01*
G01*
X194665500Y-91839000D01*
G75*
G02*
X194716500Y-91890000I0J-51000D01*
G01*
X194716500Y-92290000D01*
G75*
G02*
X194665500Y-92341000I-51000J0D01*
G01*
G37*
X193990500Y-93940000D03*
G36*
G01*
X197640500Y-91241000D02*
X195740500Y-91241000D01*
G75*
G02*
X195689500Y-91190000I0J51000D01*
G01*
X195689500Y-89690000D01*
G75*
G02*
X195740500Y-89639000I51000J0D01*
G01*
X197640500Y-89639000D01*
G75*
G02*
X197691500Y-89690000I0J-51000D01*
G01*
X197691500Y-91190000D01*
G75*
G02*
X197640500Y-91241000I-51000J0D01*
G01*
G37*
G36*
G01*
X121735000Y-73196000D02*
X120835000Y-73196000D01*
G75*
G02*
X120784000Y-73145000I0J51000D01*
G01*
X120784000Y-71145000D01*
G75*
G02*
X120835000Y-71094000I51000J0D01*
G01*
X121735000Y-71094000D01*
G75*
G02*
X121786000Y-71145000I0J-51000D01*
G01*
X121786000Y-73145000D01*
G75*
G02*
X121735000Y-73196000I-51000J0D01*
G01*
G37*
G36*
G01*
X123005000Y-73196000D02*
X122105000Y-73196000D01*
G75*
G02*
X122054000Y-73145000I0J51000D01*
G01*
X122054000Y-71145000D01*
G75*
G02*
X122105000Y-71094000I51000J0D01*
G01*
X123005000Y-71094000D01*
G75*
G02*
X123056000Y-71145000I0J-51000D01*
G01*
X123056000Y-73145000D01*
G75*
G02*
X123005000Y-73196000I-51000J0D01*
G01*
G37*
G36*
G01*
X124275000Y-73196000D02*
X123375000Y-73196000D01*
G75*
G02*
X123324000Y-73145000I0J51000D01*
G01*
X123324000Y-71145000D01*
G75*
G02*
X123375000Y-71094000I51000J0D01*
G01*
X124275000Y-71094000D01*
G75*
G02*
X124326000Y-71145000I0J-51000D01*
G01*
X124326000Y-73145000D01*
G75*
G02*
X124275000Y-73196000I-51000J0D01*
G01*
G37*
G36*
G01*
X125545000Y-73196000D02*
X124645000Y-73196000D01*
G75*
G02*
X124594000Y-73145000I0J51000D01*
G01*
X124594000Y-71145000D01*
G75*
G02*
X124645000Y-71094000I51000J0D01*
G01*
X125545000Y-71094000D01*
G75*
G02*
X125596000Y-71145000I0J-51000D01*
G01*
X125596000Y-73145000D01*
G75*
G02*
X125545000Y-73196000I-51000J0D01*
G01*
G37*
G36*
G01*
X126815000Y-73196000D02*
X125915000Y-73196000D01*
G75*
G02*
X125864000Y-73145000I0J51000D01*
G01*
X125864000Y-71145000D01*
G75*
G02*
X125915000Y-71094000I51000J0D01*
G01*
X126815000Y-71094000D01*
G75*
G02*
X126866000Y-71145000I0J-51000D01*
G01*
X126866000Y-73145000D01*
G75*
G02*
X126815000Y-73196000I-51000J0D01*
G01*
G37*
G36*
G01*
X128085000Y-73196000D02*
X127185000Y-73196000D01*
G75*
G02*
X127134000Y-73145000I0J51000D01*
G01*
X127134000Y-71145000D01*
G75*
G02*
X127185000Y-71094000I51000J0D01*
G01*
X128085000Y-71094000D01*
G75*
G02*
X128136000Y-71145000I0J-51000D01*
G01*
X128136000Y-73145000D01*
G75*
G02*
X128085000Y-73196000I-51000J0D01*
G01*
G37*
G36*
G01*
X129355000Y-73196000D02*
X128455000Y-73196000D01*
G75*
G02*
X128404000Y-73145000I0J51000D01*
G01*
X128404000Y-71145000D01*
G75*
G02*
X128455000Y-71094000I51000J0D01*
G01*
X129355000Y-71094000D01*
G75*
G02*
X129406000Y-71145000I0J-51000D01*
G01*
X129406000Y-73145000D01*
G75*
G02*
X129355000Y-73196000I-51000J0D01*
G01*
G37*
G36*
G01*
X130625000Y-73196000D02*
X129725000Y-73196000D01*
G75*
G02*
X129674000Y-73145000I0J51000D01*
G01*
X129674000Y-71145000D01*
G75*
G02*
X129725000Y-71094000I51000J0D01*
G01*
X130625000Y-71094000D01*
G75*
G02*
X130676000Y-71145000I0J-51000D01*
G01*
X130676000Y-73145000D01*
G75*
G02*
X130625000Y-73196000I-51000J0D01*
G01*
G37*
G36*
G01*
X131895000Y-73196000D02*
X130995000Y-73196000D01*
G75*
G02*
X130944000Y-73145000I0J51000D01*
G01*
X130944000Y-71145000D01*
G75*
G02*
X130995000Y-71094000I51000J0D01*
G01*
X131895000Y-71094000D01*
G75*
G02*
X131946000Y-71145000I0J-51000D01*
G01*
X131946000Y-73145000D01*
G75*
G02*
X131895000Y-73196000I-51000J0D01*
G01*
G37*
G36*
G01*
X133165000Y-73196000D02*
X132265000Y-73196000D01*
G75*
G02*
X132214000Y-73145000I0J51000D01*
G01*
X132214000Y-71145000D01*
G75*
G02*
X132265000Y-71094000I51000J0D01*
G01*
X133165000Y-71094000D01*
G75*
G02*
X133216000Y-71145000I0J-51000D01*
G01*
X133216000Y-73145000D01*
G75*
G02*
X133165000Y-73196000I-51000J0D01*
G01*
G37*
G36*
G01*
X134435000Y-73196000D02*
X133535000Y-73196000D01*
G75*
G02*
X133484000Y-73145000I0J51000D01*
G01*
X133484000Y-71145000D01*
G75*
G02*
X133535000Y-71094000I51000J0D01*
G01*
X134435000Y-71094000D01*
G75*
G02*
X134486000Y-71145000I0J-51000D01*
G01*
X134486000Y-73145000D01*
G75*
G02*
X134435000Y-73196000I-51000J0D01*
G01*
G37*
G36*
G01*
X135705000Y-73196000D02*
X134805000Y-73196000D01*
G75*
G02*
X134754000Y-73145000I0J51000D01*
G01*
X134754000Y-71145000D01*
G75*
G02*
X134805000Y-71094000I51000J0D01*
G01*
X135705000Y-71094000D01*
G75*
G02*
X135756000Y-71145000I0J-51000D01*
G01*
X135756000Y-73145000D01*
G75*
G02*
X135705000Y-73196000I-51000J0D01*
G01*
G37*
G36*
G01*
X136975000Y-73196000D02*
X136075000Y-73196000D01*
G75*
G02*
X136024000Y-73145000I0J51000D01*
G01*
X136024000Y-71145000D01*
G75*
G02*
X136075000Y-71094000I51000J0D01*
G01*
X136975000Y-71094000D01*
G75*
G02*
X137026000Y-71145000I0J-51000D01*
G01*
X137026000Y-73145000D01*
G75*
G02*
X136975000Y-73196000I-51000J0D01*
G01*
G37*
G36*
G01*
X138245000Y-73196000D02*
X137345000Y-73196000D01*
G75*
G02*
X137294000Y-73145000I0J51000D01*
G01*
X137294000Y-71145000D01*
G75*
G02*
X137345000Y-71094000I51000J0D01*
G01*
X138245000Y-71094000D01*
G75*
G02*
X138296000Y-71145000I0J-51000D01*
G01*
X138296000Y-73145000D01*
G75*
G02*
X138245000Y-73196000I-51000J0D01*
G01*
G37*
G36*
G01*
X139846000Y-74480000D02*
X139846000Y-75380000D01*
G75*
G02*
X139795000Y-75431000I-51000J0D01*
G01*
X137795000Y-75431000D01*
G75*
G02*
X137744000Y-75380000I0J51000D01*
G01*
X137744000Y-74480000D01*
G75*
G02*
X137795000Y-74429000I51000J0D01*
G01*
X139795000Y-74429000D01*
G75*
G02*
X139846000Y-74480000I0J-51000D01*
G01*
G37*
G36*
G01*
X139846000Y-75750000D02*
X139846000Y-76650000D01*
G75*
G02*
X139795000Y-76701000I-51000J0D01*
G01*
X137795000Y-76701000D01*
G75*
G02*
X137744000Y-76650000I0J51000D01*
G01*
X137744000Y-75750000D01*
G75*
G02*
X137795000Y-75699000I51000J0D01*
G01*
X139795000Y-75699000D01*
G75*
G02*
X139846000Y-75750000I0J-51000D01*
G01*
G37*
G36*
G01*
X139846000Y-77020000D02*
X139846000Y-77920000D01*
G75*
G02*
X139795000Y-77971000I-51000J0D01*
G01*
X137795000Y-77971000D01*
G75*
G02*
X137744000Y-77920000I0J51000D01*
G01*
X137744000Y-77020000D01*
G75*
G02*
X137795000Y-76969000I51000J0D01*
G01*
X139795000Y-76969000D01*
G75*
G02*
X139846000Y-77020000I0J-51000D01*
G01*
G37*
G36*
G01*
X139846000Y-78290000D02*
X139846000Y-79190000D01*
G75*
G02*
X139795000Y-79241000I-51000J0D01*
G01*
X137795000Y-79241000D01*
G75*
G02*
X137744000Y-79190000I0J51000D01*
G01*
X137744000Y-78290000D01*
G75*
G02*
X137795000Y-78239000I51000J0D01*
G01*
X139795000Y-78239000D01*
G75*
G02*
X139846000Y-78290000I0J-51000D01*
G01*
G37*
G36*
G01*
X139846000Y-79560000D02*
X139846000Y-80460000D01*
G75*
G02*
X139795000Y-80511000I-51000J0D01*
G01*
X137795000Y-80511000D01*
G75*
G02*
X137744000Y-80460000I0J51000D01*
G01*
X137744000Y-79560000D01*
G75*
G02*
X137795000Y-79509000I51000J0D01*
G01*
X139795000Y-79509000D01*
G75*
G02*
X139846000Y-79560000I0J-51000D01*
G01*
G37*
G36*
G01*
X139846000Y-80830000D02*
X139846000Y-81730000D01*
G75*
G02*
X139795000Y-81781000I-51000J0D01*
G01*
X137795000Y-81781000D01*
G75*
G02*
X137744000Y-81730000I0J51000D01*
G01*
X137744000Y-80830000D01*
G75*
G02*
X137795000Y-80779000I51000J0D01*
G01*
X139795000Y-80779000D01*
G75*
G02*
X139846000Y-80830000I0J-51000D01*
G01*
G37*
G36*
G01*
X139846000Y-82100000D02*
X139846000Y-83000000D01*
G75*
G02*
X139795000Y-83051000I-51000J0D01*
G01*
X137795000Y-83051000D01*
G75*
G02*
X137744000Y-83000000I0J51000D01*
G01*
X137744000Y-82100000D01*
G75*
G02*
X137795000Y-82049000I51000J0D01*
G01*
X139795000Y-82049000D01*
G75*
G02*
X139846000Y-82100000I0J-51000D01*
G01*
G37*
G36*
G01*
X139846000Y-83370000D02*
X139846000Y-84270000D01*
G75*
G02*
X139795000Y-84321000I-51000J0D01*
G01*
X137795000Y-84321000D01*
G75*
G02*
X137744000Y-84270000I0J51000D01*
G01*
X137744000Y-83370000D01*
G75*
G02*
X137795000Y-83319000I51000J0D01*
G01*
X139795000Y-83319000D01*
G75*
G02*
X139846000Y-83370000I0J-51000D01*
G01*
G37*
G36*
G01*
X139846000Y-84640000D02*
X139846000Y-85540000D01*
G75*
G02*
X139795000Y-85591000I-51000J0D01*
G01*
X137795000Y-85591000D01*
G75*
G02*
X137744000Y-85540000I0J51000D01*
G01*
X137744000Y-84640000D01*
G75*
G02*
X137795000Y-84589000I51000J0D01*
G01*
X139795000Y-84589000D01*
G75*
G02*
X139846000Y-84640000I0J-51000D01*
G01*
G37*
G36*
G01*
X139846000Y-85910000D02*
X139846000Y-86810000D01*
G75*
G02*
X139795000Y-86861000I-51000J0D01*
G01*
X137795000Y-86861000D01*
G75*
G02*
X137744000Y-86810000I0J51000D01*
G01*
X137744000Y-85910000D01*
G75*
G02*
X137795000Y-85859000I51000J0D01*
G01*
X139795000Y-85859000D01*
G75*
G02*
X139846000Y-85910000I0J-51000D01*
G01*
G37*
G36*
G01*
X138245000Y-90196000D02*
X137345000Y-90196000D01*
G75*
G02*
X137294000Y-90145000I0J51000D01*
G01*
X137294000Y-88145000D01*
G75*
G02*
X137345000Y-88094000I51000J0D01*
G01*
X138245000Y-88094000D01*
G75*
G02*
X138296000Y-88145000I0J-51000D01*
G01*
X138296000Y-90145000D01*
G75*
G02*
X138245000Y-90196000I-51000J0D01*
G01*
G37*
G36*
G01*
X136975000Y-90196000D02*
X136075000Y-90196000D01*
G75*
G02*
X136024000Y-90145000I0J51000D01*
G01*
X136024000Y-88145000D01*
G75*
G02*
X136075000Y-88094000I51000J0D01*
G01*
X136975000Y-88094000D01*
G75*
G02*
X137026000Y-88145000I0J-51000D01*
G01*
X137026000Y-90145000D01*
G75*
G02*
X136975000Y-90196000I-51000J0D01*
G01*
G37*
G36*
G01*
X135705000Y-90196000D02*
X134805000Y-90196000D01*
G75*
G02*
X134754000Y-90145000I0J51000D01*
G01*
X134754000Y-88145000D01*
G75*
G02*
X134805000Y-88094000I51000J0D01*
G01*
X135705000Y-88094000D01*
G75*
G02*
X135756000Y-88145000I0J-51000D01*
G01*
X135756000Y-90145000D01*
G75*
G02*
X135705000Y-90196000I-51000J0D01*
G01*
G37*
G36*
G01*
X134435000Y-90196000D02*
X133535000Y-90196000D01*
G75*
G02*
X133484000Y-90145000I0J51000D01*
G01*
X133484000Y-88145000D01*
G75*
G02*
X133535000Y-88094000I51000J0D01*
G01*
X134435000Y-88094000D01*
G75*
G02*
X134486000Y-88145000I0J-51000D01*
G01*
X134486000Y-90145000D01*
G75*
G02*
X134435000Y-90196000I-51000J0D01*
G01*
G37*
G36*
G01*
X133165000Y-90196000D02*
X132265000Y-90196000D01*
G75*
G02*
X132214000Y-90145000I0J51000D01*
G01*
X132214000Y-88145000D01*
G75*
G02*
X132265000Y-88094000I51000J0D01*
G01*
X133165000Y-88094000D01*
G75*
G02*
X133216000Y-88145000I0J-51000D01*
G01*
X133216000Y-90145000D01*
G75*
G02*
X133165000Y-90196000I-51000J0D01*
G01*
G37*
G36*
G01*
X131895000Y-90196000D02*
X130995000Y-90196000D01*
G75*
G02*
X130944000Y-90145000I0J51000D01*
G01*
X130944000Y-88145000D01*
G75*
G02*
X130995000Y-88094000I51000J0D01*
G01*
X131895000Y-88094000D01*
G75*
G02*
X131946000Y-88145000I0J-51000D01*
G01*
X131946000Y-90145000D01*
G75*
G02*
X131895000Y-90196000I-51000J0D01*
G01*
G37*
G36*
G01*
X130625000Y-90196000D02*
X129725000Y-90196000D01*
G75*
G02*
X129674000Y-90145000I0J51000D01*
G01*
X129674000Y-88145000D01*
G75*
G02*
X129725000Y-88094000I51000J0D01*
G01*
X130625000Y-88094000D01*
G75*
G02*
X130676000Y-88145000I0J-51000D01*
G01*
X130676000Y-90145000D01*
G75*
G02*
X130625000Y-90196000I-51000J0D01*
G01*
G37*
G36*
G01*
X129355000Y-90196000D02*
X128455000Y-90196000D01*
G75*
G02*
X128404000Y-90145000I0J51000D01*
G01*
X128404000Y-88145000D01*
G75*
G02*
X128455000Y-88094000I51000J0D01*
G01*
X129355000Y-88094000D01*
G75*
G02*
X129406000Y-88145000I0J-51000D01*
G01*
X129406000Y-90145000D01*
G75*
G02*
X129355000Y-90196000I-51000J0D01*
G01*
G37*
G36*
G01*
X128085000Y-90196000D02*
X127185000Y-90196000D01*
G75*
G02*
X127134000Y-90145000I0J51000D01*
G01*
X127134000Y-88145000D01*
G75*
G02*
X127185000Y-88094000I51000J0D01*
G01*
X128085000Y-88094000D01*
G75*
G02*
X128136000Y-88145000I0J-51000D01*
G01*
X128136000Y-90145000D01*
G75*
G02*
X128085000Y-90196000I-51000J0D01*
G01*
G37*
G36*
G01*
X126815000Y-90196000D02*
X125915000Y-90196000D01*
G75*
G02*
X125864000Y-90145000I0J51000D01*
G01*
X125864000Y-88145000D01*
G75*
G02*
X125915000Y-88094000I51000J0D01*
G01*
X126815000Y-88094000D01*
G75*
G02*
X126866000Y-88145000I0J-51000D01*
G01*
X126866000Y-90145000D01*
G75*
G02*
X126815000Y-90196000I-51000J0D01*
G01*
G37*
G36*
G01*
X125545000Y-90196000D02*
X124645000Y-90196000D01*
G75*
G02*
X124594000Y-90145000I0J51000D01*
G01*
X124594000Y-88145000D01*
G75*
G02*
X124645000Y-88094000I51000J0D01*
G01*
X125545000Y-88094000D01*
G75*
G02*
X125596000Y-88145000I0J-51000D01*
G01*
X125596000Y-90145000D01*
G75*
G02*
X125545000Y-90196000I-51000J0D01*
G01*
G37*
G36*
G01*
X124275000Y-90196000D02*
X123375000Y-90196000D01*
G75*
G02*
X123324000Y-90145000I0J51000D01*
G01*
X123324000Y-88145000D01*
G75*
G02*
X123375000Y-88094000I51000J0D01*
G01*
X124275000Y-88094000D01*
G75*
G02*
X124326000Y-88145000I0J-51000D01*
G01*
X124326000Y-90145000D01*
G75*
G02*
X124275000Y-90196000I-51000J0D01*
G01*
G37*
G36*
G01*
X123005000Y-90196000D02*
X122105000Y-90196000D01*
G75*
G02*
X122054000Y-90145000I0J51000D01*
G01*
X122054000Y-88145000D01*
G75*
G02*
X122105000Y-88094000I51000J0D01*
G01*
X123005000Y-88094000D01*
G75*
G02*
X123056000Y-88145000I0J-51000D01*
G01*
X123056000Y-90145000D01*
G75*
G02*
X123005000Y-90196000I-51000J0D01*
G01*
G37*
G36*
G01*
X121735000Y-90196000D02*
X120835000Y-90196000D01*
G75*
G02*
X120784000Y-90145000I0J51000D01*
G01*
X120784000Y-88145000D01*
G75*
G02*
X120835000Y-88094000I51000J0D01*
G01*
X121735000Y-88094000D01*
G75*
G02*
X121786000Y-88145000I0J-51000D01*
G01*
X121786000Y-90145000D01*
G75*
G02*
X121735000Y-90196000I-51000J0D01*
G01*
G37*
G36*
G01*
X131285000Y-84196000D02*
X126285000Y-84196000D01*
G75*
G02*
X126234000Y-84145000I0J51000D01*
G01*
X126234000Y-79145000D01*
G75*
G02*
X126285000Y-79094000I51000J0D01*
G01*
X131285000Y-79094000D01*
G75*
G02*
X131336000Y-79145000I0J-51000D01*
G01*
X131336000Y-84145000D01*
G75*
G02*
X131285000Y-84196000I-51000J0D01*
G01*
G37*
D12*
X167005000Y-74041000D03*
X167005000Y-76581000D03*
G36*
G01*
X167691622Y-80072000D02*
X166318378Y-80072000D01*
G75*
G02*
X166054000Y-79807622I0J264378D01*
G01*
X166054000Y-78434378D01*
G75*
G02*
X166318378Y-78170000I264378J0D01*
G01*
X167691622Y-78170000D01*
G75*
G02*
X167956000Y-78434378I0J-264378D01*
G01*
X167956000Y-79807622D01*
G75*
G02*
X167691622Y-80072000I-264378J0D01*
G01*
G37*
X167005000Y-82169000D03*
X167005000Y-84709000D03*
G36*
G01*
X167691622Y-88200000D02*
X166318378Y-88200000D01*
G75*
G02*
X166054000Y-87935622I0J264378D01*
G01*
X166054000Y-86562378D01*
G75*
G02*
X166318378Y-86298000I264378J0D01*
G01*
X167691622Y-86298000D01*
G75*
G02*
X167956000Y-86562378I0J-264378D01*
G01*
X167956000Y-87935622D01*
G75*
G02*
X167691622Y-88200000I-264378J0D01*
G01*
G37*
G36*
G01*
X169409000Y-71393000D02*
X169409000Y-70593000D01*
G75*
G02*
X169460000Y-70542000I51000J0D01*
G01*
X170360000Y-70542000D01*
G75*
G02*
X170411000Y-70593000I0J-51000D01*
G01*
X170411000Y-71393000D01*
G75*
G02*
X170360000Y-71444000I-51000J0D01*
G01*
X169460000Y-71444000D01*
G75*
G02*
X169409000Y-71393000I0J51000D01*
G01*
G37*
G36*
G01*
X167409000Y-72343000D02*
X167409000Y-71543000D01*
G75*
G02*
X167460000Y-71492000I51000J0D01*
G01*
X168360000Y-71492000D01*
G75*
G02*
X168411000Y-71543000I0J-51000D01*
G01*
X168411000Y-72343000D01*
G75*
G02*
X168360000Y-72394000I-51000J0D01*
G01*
X167460000Y-72394000D01*
G75*
G02*
X167409000Y-72343000I0J51000D01*
G01*
G37*
G36*
G01*
X167409000Y-70443000D02*
X167409000Y-69643000D01*
G75*
G02*
X167460000Y-69592000I51000J0D01*
G01*
X168360000Y-69592000D01*
G75*
G02*
X168411000Y-69643000I0J-51000D01*
G01*
X168411000Y-70443000D01*
G75*
G02*
X168360000Y-70494000I-51000J0D01*
G01*
X167460000Y-70494000D01*
G75*
G02*
X167409000Y-70443000I0J51000D01*
G01*
G37*
G36*
G01*
X148059000Y-83650000D02*
X148059000Y-82850000D01*
G75*
G02*
X148110000Y-82799000I51000J0D01*
G01*
X149110000Y-82799000D01*
G75*
G02*
X149161000Y-82850000I0J-51000D01*
G01*
X149161000Y-83650000D01*
G75*
G02*
X149110000Y-83701000I-51000J0D01*
G01*
X148110000Y-83701000D01*
G75*
G02*
X148059000Y-83650000I0J51000D01*
G01*
G37*
G36*
G01*
X150559000Y-83650000D02*
X150559000Y-82850000D01*
G75*
G02*
X150610000Y-82799000I51000J0D01*
G01*
X151610000Y-82799000D01*
G75*
G02*
X151661000Y-82850000I0J-51000D01*
G01*
X151661000Y-83650000D01*
G75*
G02*
X151610000Y-83701000I-51000J0D01*
G01*
X150610000Y-83701000D01*
G75*
G02*
X150559000Y-83650000I0J51000D01*
G01*
G37*
G36*
G01*
X150559000Y-82250000D02*
X150559000Y-81450000D01*
G75*
G02*
X150610000Y-81399000I51000J0D01*
G01*
X151610000Y-81399000D01*
G75*
G02*
X151661000Y-81450000I0J-51000D01*
G01*
X151661000Y-82250000D01*
G75*
G02*
X151610000Y-82301000I-51000J0D01*
G01*
X150610000Y-82301000D01*
G75*
G02*
X150559000Y-82250000I0J51000D01*
G01*
G37*
G36*
G01*
X148059000Y-82250000D02*
X148059000Y-81450000D01*
G75*
G02*
X148110000Y-81399000I51000J0D01*
G01*
X149110000Y-81399000D01*
G75*
G02*
X149161000Y-81450000I0J-51000D01*
G01*
X149161000Y-82250000D01*
G75*
G02*
X149110000Y-82301000I-51000J0D01*
G01*
X148110000Y-82301000D01*
G75*
G02*
X148059000Y-82250000I0J51000D01*
G01*
G37*
G36*
G01*
X169409000Y-90697000D02*
X169409000Y-89897000D01*
G75*
G02*
X169460000Y-89846000I51000J0D01*
G01*
X170360000Y-89846000D01*
G75*
G02*
X170411000Y-89897000I0J-51000D01*
G01*
X170411000Y-90697000D01*
G75*
G02*
X170360000Y-90748000I-51000J0D01*
G01*
X169460000Y-90748000D01*
G75*
G02*
X169409000Y-90697000I0J51000D01*
G01*
G37*
G36*
G01*
X167409000Y-91647000D02*
X167409000Y-90847000D01*
G75*
G02*
X167460000Y-90796000I51000J0D01*
G01*
X168360000Y-90796000D01*
G75*
G02*
X168411000Y-90847000I0J-51000D01*
G01*
X168411000Y-91647000D01*
G75*
G02*
X168360000Y-91698000I-51000J0D01*
G01*
X167460000Y-91698000D01*
G75*
G02*
X167409000Y-91647000I0J51000D01*
G01*
G37*
G36*
G01*
X167409000Y-89747000D02*
X167409000Y-88947000D01*
G75*
G02*
X167460000Y-88896000I51000J0D01*
G01*
X168360000Y-88896000D01*
G75*
G02*
X168411000Y-88947000I0J-51000D01*
G01*
X168411000Y-89747000D01*
G75*
G02*
X168360000Y-89798000I-51000J0D01*
G01*
X167460000Y-89798000D01*
G75*
G02*
X167409000Y-89747000I0J51000D01*
G01*
G37*
G36*
G01*
X169409000Y-67710000D02*
X169409000Y-66910000D01*
G75*
G02*
X169460000Y-66859000I51000J0D01*
G01*
X170360000Y-66859000D01*
G75*
G02*
X170411000Y-66910000I0J-51000D01*
G01*
X170411000Y-67710000D01*
G75*
G02*
X170360000Y-67761000I-51000J0D01*
G01*
X169460000Y-67761000D01*
G75*
G02*
X169409000Y-67710000I0J51000D01*
G01*
G37*
G36*
G01*
X167409000Y-68660000D02*
X167409000Y-67860000D01*
G75*
G02*
X167460000Y-67809000I51000J0D01*
G01*
X168360000Y-67809000D01*
G75*
G02*
X168411000Y-67860000I0J-51000D01*
G01*
X168411000Y-68660000D01*
G75*
G02*
X168360000Y-68711000I-51000J0D01*
G01*
X167460000Y-68711000D01*
G75*
G02*
X167409000Y-68660000I0J51000D01*
G01*
G37*
G36*
G01*
X167409000Y-66760000D02*
X167409000Y-65960000D01*
G75*
G02*
X167460000Y-65909000I51000J0D01*
G01*
X168360000Y-65909000D01*
G75*
G02*
X168411000Y-65960000I0J-51000D01*
G01*
X168411000Y-66760000D01*
G75*
G02*
X168360000Y-66811000I-51000J0D01*
G01*
X167460000Y-66811000D01*
G75*
G02*
X167409000Y-66760000I0J51000D01*
G01*
G37*
X175260000Y-69215000D03*
G36*
G01*
X171769000Y-70115000D02*
X171769000Y-68315000D01*
G75*
G02*
X171820000Y-68264000I51000J0D01*
G01*
X173620000Y-68264000D01*
G75*
G02*
X173671000Y-68315000I0J-51000D01*
G01*
X173671000Y-70115000D01*
G75*
G02*
X173620000Y-70166000I-51000J0D01*
G01*
X171820000Y-70166000D01*
G75*
G02*
X171769000Y-70115000I0J51000D01*
G01*
G37*
X173990000Y-78105000D03*
G36*
G01*
X173090000Y-74614000D02*
X174890000Y-74614000D01*
G75*
G02*
X174941000Y-74665000I0J-51000D01*
G01*
X174941000Y-76465000D01*
G75*
G02*
X174890000Y-76516000I-51000J0D01*
G01*
X173090000Y-76516000D01*
G75*
G02*
X173039000Y-76465000I0J51000D01*
G01*
X173039000Y-74665000D01*
G75*
G02*
X173090000Y-74614000I51000J0D01*
G01*
G37*
X182880000Y-69215000D03*
G36*
G01*
X179389000Y-70115000D02*
X179389000Y-68315000D01*
G75*
G02*
X179440000Y-68264000I51000J0D01*
G01*
X181240000Y-68264000D01*
G75*
G02*
X181291000Y-68315000I0J-51000D01*
G01*
X181291000Y-70115000D01*
G75*
G02*
X181240000Y-70166000I-51000J0D01*
G01*
X179440000Y-70166000D01*
G75*
G02*
X179389000Y-70115000I0J51000D01*
G01*
G37*
X181610000Y-78105000D03*
G36*
G01*
X180710000Y-74614000D02*
X182510000Y-74614000D01*
G75*
G02*
X182561000Y-74665000I0J-51000D01*
G01*
X182561000Y-76465000D01*
G75*
G02*
X182510000Y-76516000I-51000J0D01*
G01*
X180710000Y-76516000D01*
G75*
G02*
X180659000Y-76465000I0J51000D01*
G01*
X180659000Y-74665000D01*
G75*
G02*
X180710000Y-74614000I51000J0D01*
G01*
G37*
G36*
G01*
X145694000Y-73690000D02*
X145694000Y-72690000D01*
G75*
G02*
X145745000Y-72639000I51000J0D01*
G01*
X146645000Y-72639000D01*
G75*
G02*
X146696000Y-72690000I0J-51000D01*
G01*
X146696000Y-73690000D01*
G75*
G02*
X146645000Y-73741000I-51000J0D01*
G01*
X145745000Y-73741000D01*
G75*
G02*
X145694000Y-73690000I0J51000D01*
G01*
G37*
G36*
G01*
X145694000Y-72090000D02*
X145694000Y-71090000D01*
G75*
G02*
X145745000Y-71039000I51000J0D01*
G01*
X146645000Y-71039000D01*
G75*
G02*
X146696000Y-71090000I0J-51000D01*
G01*
X146696000Y-72090000D01*
G75*
G02*
X146645000Y-72141000I-51000J0D01*
G01*
X145745000Y-72141000D01*
G75*
G02*
X145694000Y-72090000I0J51000D01*
G01*
G37*
G36*
G01*
X141594000Y-73690000D02*
X141594000Y-72690000D01*
G75*
G02*
X141645000Y-72639000I51000J0D01*
G01*
X142545000Y-72639000D01*
G75*
G02*
X142596000Y-72690000I0J-51000D01*
G01*
X142596000Y-73690000D01*
G75*
G02*
X142545000Y-73741000I-51000J0D01*
G01*
X141645000Y-73741000D01*
G75*
G02*
X141594000Y-73690000I0J51000D01*
G01*
G37*
G36*
G01*
X141594000Y-72090000D02*
X141594000Y-71090000D01*
G75*
G02*
X141645000Y-71039000I51000J0D01*
G01*
X142545000Y-71039000D01*
G75*
G02*
X142596000Y-71090000I0J-51000D01*
G01*
X142596000Y-72090000D01*
G75*
G02*
X142545000Y-72141000I-51000J0D01*
G01*
X141645000Y-72141000D01*
G75*
G02*
X141594000Y-72090000I0J51000D01*
G01*
G37*
G36*
G01*
X146696000Y-89200000D02*
X146696000Y-90200000D01*
G75*
G02*
X146645000Y-90251000I-51000J0D01*
G01*
X145745000Y-90251000D01*
G75*
G02*
X145694000Y-90200000I0J51000D01*
G01*
X145694000Y-89200000D01*
G75*
G02*
X145745000Y-89149000I51000J0D01*
G01*
X146645000Y-89149000D01*
G75*
G02*
X146696000Y-89200000I0J-51000D01*
G01*
G37*
G36*
G01*
X146696000Y-87600000D02*
X146696000Y-88600000D01*
G75*
G02*
X146645000Y-88651000I-51000J0D01*
G01*
X145745000Y-88651000D01*
G75*
G02*
X145694000Y-88600000I0J51000D01*
G01*
X145694000Y-87600000D01*
G75*
G02*
X145745000Y-87549000I51000J0D01*
G01*
X146645000Y-87549000D01*
G75*
G02*
X146696000Y-87600000I0J-51000D01*
G01*
G37*
G36*
G01*
X142596000Y-89200000D02*
X142596000Y-90200000D01*
G75*
G02*
X142545000Y-90251000I-51000J0D01*
G01*
X141645000Y-90251000D01*
G75*
G02*
X141594000Y-90200000I0J51000D01*
G01*
X141594000Y-89200000D01*
G75*
G02*
X141645000Y-89149000I51000J0D01*
G01*
X142545000Y-89149000D01*
G75*
G02*
X142596000Y-89200000I0J-51000D01*
G01*
G37*
G36*
G01*
X142596000Y-87600000D02*
X142596000Y-88600000D01*
G75*
G02*
X142545000Y-88651000I-51000J0D01*
G01*
X141645000Y-88651000D01*
G75*
G02*
X141594000Y-88600000I0J51000D01*
G01*
X141594000Y-87600000D01*
G75*
G02*
X141645000Y-87549000I51000J0D01*
G01*
X142545000Y-87549000D01*
G75*
G02*
X142596000Y-87600000I0J-51000D01*
G01*
G37*
G36*
G01*
X169409000Y-94380000D02*
X169409000Y-93580000D01*
G75*
G02*
X169460000Y-93529000I51000J0D01*
G01*
X170360000Y-93529000D01*
G75*
G02*
X170411000Y-93580000I0J-51000D01*
G01*
X170411000Y-94380000D01*
G75*
G02*
X170360000Y-94431000I-51000J0D01*
G01*
X169460000Y-94431000D01*
G75*
G02*
X169409000Y-94380000I0J51000D01*
G01*
G37*
G36*
G01*
X167409000Y-95330000D02*
X167409000Y-94530000D01*
G75*
G02*
X167460000Y-94479000I51000J0D01*
G01*
X168360000Y-94479000D01*
G75*
G02*
X168411000Y-94530000I0J-51000D01*
G01*
X168411000Y-95330000D01*
G75*
G02*
X168360000Y-95381000I-51000J0D01*
G01*
X167460000Y-95381000D01*
G75*
G02*
X167409000Y-95330000I0J51000D01*
G01*
G37*
G36*
G01*
X167409000Y-93430000D02*
X167409000Y-92630000D01*
G75*
G02*
X167460000Y-92579000I51000J0D01*
G01*
X168360000Y-92579000D01*
G75*
G02*
X168411000Y-92630000I0J-51000D01*
G01*
X168411000Y-93430000D01*
G75*
G02*
X168360000Y-93481000I-51000J0D01*
G01*
X167460000Y-93481000D01*
G75*
G02*
X167409000Y-93430000I0J51000D01*
G01*
G37*
D13*
X156845000Y-67945000D03*
X154305000Y-67945000D03*
X151765000Y-67945000D03*
X149225000Y-67945000D03*
X146685000Y-67945000D03*
X144145000Y-67945000D03*
X141605000Y-67945000D03*
X139065000Y-67945000D03*
X136525000Y-67945000D03*
X133985000Y-67945000D03*
X131445000Y-67945000D03*
X128905000Y-67945000D03*
X126365000Y-67945000D03*
X123825000Y-67945000D03*
G36*
G01*
X122135000Y-68846000D02*
X120435000Y-68846000D01*
G75*
G02*
X120384000Y-68795000I0J51000D01*
G01*
X120384000Y-67095000D01*
G75*
G02*
X120435000Y-67044000I51000J0D01*
G01*
X122135000Y-67044000D01*
G75*
G02*
X122186000Y-67095000I0J-51000D01*
G01*
X122186000Y-68795000D01*
G75*
G02*
X122135000Y-68846000I-51000J0D01*
G01*
G37*
X156845000Y-93345000D03*
X154305000Y-93345000D03*
X151765000Y-93345000D03*
X149225000Y-93345000D03*
X146685000Y-93345000D03*
X144145000Y-93345000D03*
X141605000Y-93345000D03*
X139065000Y-93345000D03*
X136525000Y-93345000D03*
X133985000Y-93345000D03*
X131445000Y-93345000D03*
X128905000Y-93345000D03*
X126365000Y-93345000D03*
X123825000Y-93345000D03*
G36*
G01*
X122135000Y-94246000D02*
X120435000Y-94246000D01*
G75*
G02*
X120384000Y-94195000I0J51000D01*
G01*
X120384000Y-92495000D01*
G75*
G02*
X120435000Y-92444000I51000J0D01*
G01*
X122135000Y-92444000D01*
G75*
G02*
X122186000Y-92495000I0J-51000D01*
G01*
X122186000Y-94195000D01*
G75*
G02*
X122135000Y-94246000I-51000J0D01*
G01*
G37*
X154305000Y-74295000D03*
X154305000Y-76835000D03*
X154305000Y-79375000D03*
X154305000Y-81915000D03*
X154305000Y-84455000D03*
G36*
G01*
X155206000Y-86145000D02*
X155206000Y-87845000D01*
G75*
G02*
X155155000Y-87896000I-51000J0D01*
G01*
X153455000Y-87896000D01*
G75*
G02*
X153404000Y-87845000I0J51000D01*
G01*
X153404000Y-86145000D01*
G75*
G02*
X153455000Y-86094000I51000J0D01*
G01*
X155155000Y-86094000D01*
G75*
G02*
X155206000Y-86145000I0J-51000D01*
G01*
G37*
X193675000Y-77470000D03*
X196215000Y-77470000D03*
X193675000Y-80010000D03*
X196215000Y-80010000D03*
X193675000Y-82550000D03*
X196215000Y-82550000D03*
X193675000Y-85090000D03*
G36*
G01*
X197116000Y-84240000D02*
X197116000Y-85940000D01*
G75*
G02*
X197065000Y-85991000I-51000J0D01*
G01*
X195365000Y-85991000D01*
G75*
G02*
X195314000Y-85940000I0J51000D01*
G01*
X195314000Y-84240000D01*
G75*
G02*
X195365000Y-84189000I51000J0D01*
G01*
X197065000Y-84189000D01*
G75*
G02*
X197116000Y-84240000I0J-51000D01*
G01*
G37*
G36*
G01*
X192126000Y-65519500D02*
X192126000Y-67320500D01*
G75*
G02*
X191225500Y-68221000I-900500J0D01*
G01*
X189424500Y-68221000D01*
G75*
G02*
X188524000Y-67320500I0J900500D01*
G01*
X188524000Y-65519500D01*
G75*
G02*
X189424500Y-64619000I900500J0D01*
G01*
X191225500Y-64619000D01*
G75*
G02*
X192126000Y-65519500I0J-900500D01*
G01*
G37*
G36*
G01*
X194876000Y-70094500D02*
X194876000Y-72145500D01*
G75*
G02*
X194100500Y-72921000I-775500J0D01*
G01*
X192549500Y-72921000D01*
G75*
G02*
X191774000Y-72145500I0J775500D01*
G01*
X191774000Y-70094500D01*
G75*
G02*
X192549500Y-69319000I775500J0D01*
G01*
X194100500Y-69319000D01*
G75*
G02*
X194876000Y-70094500I0J-775500D01*
G01*
G37*
G36*
G01*
X189126000Y-69370000D02*
X189126000Y-72870000D01*
G75*
G02*
X189075000Y-72921000I-51000J0D01*
G01*
X185575000Y-72921000D01*
G75*
G02*
X185524000Y-72870000I0J51000D01*
G01*
X185524000Y-69370000D01*
G75*
G02*
X185575000Y-69319000I51000J0D01*
G01*
X189075000Y-69319000D01*
G75*
G02*
X189126000Y-69370000I0J-51000D01*
G01*
G37*
D14*
X189920825Y-92654175D03*
X188595000Y-92105000D03*
X187269175Y-92654175D03*
X186720000Y-93980000D03*
X187269175Y-95305825D03*
X188595000Y-95855000D03*
X189920825Y-95305825D03*
X190470000Y-93980000D03*
D15*
X188595000Y-93980000D03*
D14*
X163250825Y-92654175D03*
X161925000Y-92105000D03*
X160599175Y-92654175D03*
X160050000Y-93980000D03*
X160599175Y-95305825D03*
X161925000Y-95855000D03*
X163250825Y-95305825D03*
X163800000Y-93980000D03*
D15*
X161925000Y-93980000D03*
D14*
X163250825Y-65984175D03*
X161925000Y-65435000D03*
X160599175Y-65984175D03*
X160050000Y-67310000D03*
X160599175Y-68635825D03*
X161925000Y-69185000D03*
X163250825Y-68635825D03*
X163800000Y-67310000D03*
D15*
X161925000Y-67310000D03*
G36*
G01*
X189950000Y-84619000D02*
X191050000Y-84619000D01*
G75*
G02*
X191101000Y-84670000I0J-51000D01*
G01*
X191101000Y-85770000D01*
G75*
G02*
X191050000Y-85821000I-51000J0D01*
G01*
X189950000Y-85821000D01*
G75*
G02*
X189899000Y-85770000I0J51000D01*
G01*
X189899000Y-84670000D01*
G75*
G02*
X189950000Y-84619000I51000J0D01*
G01*
G37*
G36*
G01*
X189950000Y-81819000D02*
X191050000Y-81819000D01*
G75*
G02*
X191101000Y-81870000I0J-51000D01*
G01*
X191101000Y-82970000D01*
G75*
G02*
X191050000Y-83021000I-51000J0D01*
G01*
X189950000Y-83021000D01*
G75*
G02*
X189899000Y-82970000I0J51000D01*
G01*
X189899000Y-81870000D01*
G75*
G02*
X189950000Y-81819000I51000J0D01*
G01*
G37*
G36*
G01*
X191050000Y-77941000D02*
X189950000Y-77941000D01*
G75*
G02*
X189899000Y-77890000I0J51000D01*
G01*
X189899000Y-76790000D01*
G75*
G02*
X189950000Y-76739000I51000J0D01*
G01*
X191050000Y-76739000D01*
G75*
G02*
X191101000Y-76790000I0J-51000D01*
G01*
X191101000Y-77890000D01*
G75*
G02*
X191050000Y-77941000I-51000J0D01*
G01*
G37*
G36*
G01*
X191050000Y-80741000D02*
X189950000Y-80741000D01*
G75*
G02*
X189899000Y-80690000I0J51000D01*
G01*
X189899000Y-79590000D01*
G75*
G02*
X189950000Y-79539000I51000J0D01*
G01*
X191050000Y-79539000D01*
G75*
G02*
X191101000Y-79590000I0J-51000D01*
G01*
X191101000Y-80690000D01*
G75*
G02*
X191050000Y-80741000I-51000J0D01*
G01*
G37*
G36*
G01*
X150659000Y-75480000D02*
X150659000Y-74380000D01*
G75*
G02*
X150710000Y-74329000I51000J0D01*
G01*
X151810000Y-74329000D01*
G75*
G02*
X151861000Y-74380000I0J-51000D01*
G01*
X151861000Y-75480000D01*
G75*
G02*
X151810000Y-75531000I-51000J0D01*
G01*
X150710000Y-75531000D01*
G75*
G02*
X150659000Y-75480000I0J51000D01*
G01*
G37*
G36*
G01*
X147859000Y-75480000D02*
X147859000Y-74380000D01*
G75*
G02*
X147910000Y-74329000I51000J0D01*
G01*
X149010000Y-74329000D01*
G75*
G02*
X149061000Y-74380000I0J-51000D01*
G01*
X149061000Y-75480000D01*
G75*
G02*
X149010000Y-75531000I-51000J0D01*
G01*
X147910000Y-75531000D01*
G75*
G02*
X147859000Y-75480000I0J51000D01*
G01*
G37*
D12*
X173990000Y-85725000D03*
G36*
G01*
X173090000Y-82234000D02*
X174890000Y-82234000D01*
G75*
G02*
X174941000Y-82285000I0J-51000D01*
G01*
X174941000Y-84085000D01*
G75*
G02*
X174890000Y-84136000I-51000J0D01*
G01*
X173090000Y-84136000D01*
G75*
G02*
X173039000Y-84085000I0J51000D01*
G01*
X173039000Y-82285000D01*
G75*
G02*
X173090000Y-82234000I51000J0D01*
G01*
G37*
X175260000Y-92075000D03*
G36*
G01*
X171769000Y-92975000D02*
X171769000Y-91175000D01*
G75*
G02*
X171820000Y-91124000I51000J0D01*
G01*
X173620000Y-91124000D01*
G75*
G02*
X173671000Y-91175000I0J-51000D01*
G01*
X173671000Y-92975000D01*
G75*
G02*
X173620000Y-93026000I-51000J0D01*
G01*
X171820000Y-93026000D01*
G75*
G02*
X171769000Y-92975000I0J51000D01*
G01*
G37*
X181610000Y-85725000D03*
G36*
G01*
X180710000Y-82234000D02*
X182510000Y-82234000D01*
G75*
G02*
X182561000Y-82285000I0J-51000D01*
G01*
X182561000Y-84085000D01*
G75*
G02*
X182510000Y-84136000I-51000J0D01*
G01*
X180710000Y-84136000D01*
G75*
G02*
X180659000Y-84085000I0J51000D01*
G01*
X180659000Y-82285000D01*
G75*
G02*
X180710000Y-82234000I51000J0D01*
G01*
G37*
X182880000Y-92075000D03*
G36*
G01*
X179389000Y-92975000D02*
X179389000Y-91175000D01*
G75*
G02*
X179440000Y-91124000I51000J0D01*
G01*
X181240000Y-91124000D01*
G75*
G02*
X181291000Y-91175000I0J-51000D01*
G01*
X181291000Y-92975000D01*
G75*
G02*
X181240000Y-93026000I-51000J0D01*
G01*
X179440000Y-93026000D01*
G75*
G02*
X179389000Y-92975000I0J51000D01*
G01*
G37*
G36*
G01*
X186291000Y-76991172D02*
X186291000Y-77948828D01*
G75*
G02*
X186018828Y-78221000I-272172J0D01*
G01*
X185311172Y-78221000D01*
G75*
G02*
X185039000Y-77948828I0J272172D01*
G01*
X185039000Y-76991172D01*
G75*
G02*
X185311172Y-76719000I272172J0D01*
G01*
X186018828Y-76719000D01*
G75*
G02*
X186291000Y-76991172I0J-272172D01*
G01*
G37*
G36*
G01*
X188341000Y-76991172D02*
X188341000Y-77948828D01*
G75*
G02*
X188068828Y-78221000I-272172J0D01*
G01*
X187361172Y-78221000D01*
G75*
G02*
X187089000Y-77948828I0J272172D01*
G01*
X187089000Y-76991172D01*
G75*
G02*
X187361172Y-76719000I272172J0D01*
G01*
X188068828Y-76719000D01*
G75*
G02*
X188341000Y-76991172I0J-272172D01*
G01*
G37*
G36*
G01*
X186291000Y-80166172D02*
X186291000Y-81123828D01*
G75*
G02*
X186018828Y-81396000I-272172J0D01*
G01*
X185311172Y-81396000D01*
G75*
G02*
X185039000Y-81123828I0J272172D01*
G01*
X185039000Y-80166172D01*
G75*
G02*
X185311172Y-79894000I272172J0D01*
G01*
X186018828Y-79894000D01*
G75*
G02*
X186291000Y-80166172I0J-272172D01*
G01*
G37*
G36*
G01*
X188341000Y-80166172D02*
X188341000Y-81123828D01*
G75*
G02*
X188068828Y-81396000I-272172J0D01*
G01*
X187361172Y-81396000D01*
G75*
G02*
X187089000Y-81123828I0J272172D01*
G01*
X187089000Y-80166172D01*
G75*
G02*
X187361172Y-79894000I272172J0D01*
G01*
X188068828Y-79894000D01*
G75*
G02*
X188341000Y-80166172I0J-272172D01*
G01*
G37*
G36*
G01*
X149461000Y-89056172D02*
X149461000Y-90013828D01*
G75*
G02*
X149188828Y-90286000I-272172J0D01*
G01*
X148481172Y-90286000D01*
G75*
G02*
X148209000Y-90013828I0J272172D01*
G01*
X148209000Y-89056172D01*
G75*
G02*
X148481172Y-88784000I272172J0D01*
G01*
X149188828Y-88784000D01*
G75*
G02*
X149461000Y-89056172I0J-272172D01*
G01*
G37*
G36*
G01*
X151511000Y-89056172D02*
X151511000Y-90013828D01*
G75*
G02*
X151238828Y-90286000I-272172J0D01*
G01*
X150531172Y-90286000D01*
G75*
G02*
X150259000Y-90013828I0J272172D01*
G01*
X150259000Y-89056172D01*
G75*
G02*
X150531172Y-88784000I272172J0D01*
G01*
X151238828Y-88784000D01*
G75*
G02*
X151511000Y-89056172I0J-272172D01*
G01*
G37*
G36*
G01*
X145814000Y-83409828D02*
X145814000Y-82452172D01*
G75*
G02*
X146086172Y-82180000I272172J0D01*
G01*
X146793828Y-82180000D01*
G75*
G02*
X147066000Y-82452172I0J-272172D01*
G01*
X147066000Y-83409828D01*
G75*
G02*
X146793828Y-83682000I-272172J0D01*
G01*
X146086172Y-83682000D01*
G75*
G02*
X145814000Y-83409828I0J272172D01*
G01*
G37*
G36*
G01*
X143764000Y-83409828D02*
X143764000Y-82452172D01*
G75*
G02*
X144036172Y-82180000I272172J0D01*
G01*
X144743828Y-82180000D01*
G75*
G02*
X145016000Y-82452172I0J-272172D01*
G01*
X145016000Y-83409828D01*
G75*
G02*
X144743828Y-83682000I-272172J0D01*
G01*
X144036172Y-83682000D01*
G75*
G02*
X143764000Y-83409828I0J272172D01*
G01*
G37*
G36*
G01*
X145814000Y-85949828D02*
X145814000Y-84992172D01*
G75*
G02*
X146086172Y-84720000I272172J0D01*
G01*
X146793828Y-84720000D01*
G75*
G02*
X147066000Y-84992172I0J-272172D01*
G01*
X147066000Y-85949828D01*
G75*
G02*
X146793828Y-86222000I-272172J0D01*
G01*
X146086172Y-86222000D01*
G75*
G02*
X145814000Y-85949828I0J272172D01*
G01*
G37*
G36*
G01*
X143764000Y-85949828D02*
X143764000Y-84992172D01*
G75*
G02*
X144036172Y-84720000I272172J0D01*
G01*
X144743828Y-84720000D01*
G75*
G02*
X145016000Y-84992172I0J-272172D01*
G01*
X145016000Y-85949828D01*
G75*
G02*
X144743828Y-86222000I-272172J0D01*
G01*
X144036172Y-86222000D01*
G75*
G02*
X143764000Y-85949828I0J272172D01*
G01*
G37*
G36*
G01*
X186291000Y-83341172D02*
X186291000Y-84298828D01*
G75*
G02*
X186018828Y-84571000I-272172J0D01*
G01*
X185311172Y-84571000D01*
G75*
G02*
X185039000Y-84298828I0J272172D01*
G01*
X185039000Y-83341172D01*
G75*
G02*
X185311172Y-83069000I272172J0D01*
G01*
X186018828Y-83069000D01*
G75*
G02*
X186291000Y-83341172I0J-272172D01*
G01*
G37*
G36*
G01*
X188341000Y-83341172D02*
X188341000Y-84298828D01*
G75*
G02*
X188068828Y-84571000I-272172J0D01*
G01*
X187361172Y-84571000D01*
G75*
G02*
X187089000Y-84298828I0J272172D01*
G01*
X187089000Y-83341172D01*
G75*
G02*
X187361172Y-83069000I272172J0D01*
G01*
X188068828Y-83069000D01*
G75*
G02*
X188341000Y-83341172I0J-272172D01*
G01*
G37*
G36*
G01*
X186291000Y-86516172D02*
X186291000Y-87473828D01*
G75*
G02*
X186018828Y-87746000I-272172J0D01*
G01*
X185311172Y-87746000D01*
G75*
G02*
X185039000Y-87473828I0J272172D01*
G01*
X185039000Y-86516172D01*
G75*
G02*
X185311172Y-86244000I272172J0D01*
G01*
X186018828Y-86244000D01*
G75*
G02*
X186291000Y-86516172I0J-272172D01*
G01*
G37*
G36*
G01*
X188341000Y-86516172D02*
X188341000Y-87473828D01*
G75*
G02*
X188068828Y-87746000I-272172J0D01*
G01*
X187361172Y-87746000D01*
G75*
G02*
X187089000Y-87473828I0J272172D01*
G01*
X187089000Y-86516172D01*
G75*
G02*
X187361172Y-86244000I272172J0D01*
G01*
X188068828Y-86244000D01*
G75*
G02*
X188341000Y-86516172I0J-272172D01*
G01*
G37*
G36*
G01*
X163431000Y-71276172D02*
X163431000Y-72233828D01*
G75*
G02*
X163158828Y-72506000I-272172J0D01*
G01*
X162451172Y-72506000D01*
G75*
G02*
X162179000Y-72233828I0J272172D01*
G01*
X162179000Y-71276172D01*
G75*
G02*
X162451172Y-71004000I272172J0D01*
G01*
X163158828Y-71004000D01*
G75*
G02*
X163431000Y-71276172I0J-272172D01*
G01*
G37*
G36*
G01*
X165481000Y-71276172D02*
X165481000Y-72233828D01*
G75*
G02*
X165208828Y-72506000I-272172J0D01*
G01*
X164501172Y-72506000D01*
G75*
G02*
X164229000Y-72233828I0J272172D01*
G01*
X164229000Y-71276172D01*
G75*
G02*
X164501172Y-71004000I272172J0D01*
G01*
X165208828Y-71004000D01*
G75*
G02*
X165481000Y-71276172I0J-272172D01*
G01*
G37*
G36*
G01*
X149461000Y-78261172D02*
X149461000Y-79218828D01*
G75*
G02*
X149188828Y-79491000I-272172J0D01*
G01*
X148481172Y-79491000D01*
G75*
G02*
X148209000Y-79218828I0J272172D01*
G01*
X148209000Y-78261172D01*
G75*
G02*
X148481172Y-77989000I272172J0D01*
G01*
X149188828Y-77989000D01*
G75*
G02*
X149461000Y-78261172I0J-272172D01*
G01*
G37*
G36*
G01*
X151511000Y-78261172D02*
X151511000Y-79218828D01*
G75*
G02*
X151238828Y-79491000I-272172J0D01*
G01*
X150531172Y-79491000D01*
G75*
G02*
X150259000Y-79218828I0J272172D01*
G01*
X150259000Y-78261172D01*
G75*
G02*
X150531172Y-77989000I272172J0D01*
G01*
X151238828Y-77989000D01*
G75*
G02*
X151511000Y-78261172I0J-272172D01*
G01*
G37*
G36*
G01*
X141761172Y-77089000D02*
X142718828Y-77089000D01*
G75*
G02*
X142991000Y-77361172I0J-272172D01*
G01*
X142991000Y-78068828D01*
G75*
G02*
X142718828Y-78341000I-272172J0D01*
G01*
X141761172Y-78341000D01*
G75*
G02*
X141489000Y-78068828I0J272172D01*
G01*
X141489000Y-77361172D01*
G75*
G02*
X141761172Y-77089000I272172J0D01*
G01*
G37*
G36*
G01*
X141761172Y-79139000D02*
X142718828Y-79139000D01*
G75*
G02*
X142991000Y-79411172I0J-272172D01*
G01*
X142991000Y-80118828D01*
G75*
G02*
X142718828Y-80391000I-272172J0D01*
G01*
X141761172Y-80391000D01*
G75*
G02*
X141489000Y-80118828I0J272172D01*
G01*
X141489000Y-79411172D01*
G75*
G02*
X141761172Y-79139000I272172J0D01*
G01*
G37*
G36*
G01*
X145814000Y-76043828D02*
X145814000Y-75086172D01*
G75*
G02*
X146086172Y-74814000I272172J0D01*
G01*
X146793828Y-74814000D01*
G75*
G02*
X147066000Y-75086172I0J-272172D01*
G01*
X147066000Y-76043828D01*
G75*
G02*
X146793828Y-76316000I-272172J0D01*
G01*
X146086172Y-76316000D01*
G75*
G02*
X145814000Y-76043828I0J272172D01*
G01*
G37*
G36*
G01*
X143764000Y-76043828D02*
X143764000Y-75086172D01*
G75*
G02*
X144036172Y-74814000I272172J0D01*
G01*
X144743828Y-74814000D01*
G75*
G02*
X145016000Y-75086172I0J-272172D01*
G01*
X145016000Y-76043828D01*
G75*
G02*
X144743828Y-76316000I-272172J0D01*
G01*
X144036172Y-76316000D01*
G75*
G02*
X143764000Y-76043828I0J272172D01*
G01*
G37*
G36*
G01*
X150259000Y-86838828D02*
X150259000Y-85881172D01*
G75*
G02*
X150531172Y-85609000I272172J0D01*
G01*
X151238828Y-85609000D01*
G75*
G02*
X151511000Y-85881172I0J-272172D01*
G01*
X151511000Y-86838828D01*
G75*
G02*
X151238828Y-87111000I-272172J0D01*
G01*
X150531172Y-87111000D01*
G75*
G02*
X150259000Y-86838828I0J272172D01*
G01*
G37*
G36*
G01*
X148209000Y-86838828D02*
X148209000Y-85881172D01*
G75*
G02*
X148481172Y-85609000I272172J0D01*
G01*
X149188828Y-85609000D01*
G75*
G02*
X149461000Y-85881172I0J-272172D01*
G01*
X149461000Y-86838828D01*
G75*
G02*
X149188828Y-87111000I-272172J0D01*
G01*
X148481172Y-87111000D01*
G75*
G02*
X148209000Y-86838828I0J272172D01*
G01*
G37*
D16*
G36*
X194346004Y-92990000D02*
G01*
X194346004Y-92992000D01*
X194344468Y-92992990D01*
X194320281Y-92995372D01*
X194297206Y-93002372D01*
X194275942Y-93013737D01*
X194257305Y-93029032D01*
X194242010Y-93047669D01*
X194230645Y-93068933D01*
X194223645Y-93092008D01*
X194221282Y-93115999D01*
X194223645Y-93139990D01*
X194230645Y-93163065D01*
X194242010Y-93184329D01*
X194257305Y-93202966D01*
X194275942Y-93218261D01*
X194291961Y-93226823D01*
X194293017Y-93228522D01*
X194292074Y-93230285D01*
X194290253Y-93230435D01*
X194215179Y-93199338D01*
X194066362Y-93169737D01*
X193914638Y-93169737D01*
X193765821Y-93199338D01*
X193690747Y-93230435D01*
X193688764Y-93230174D01*
X193687999Y-93228326D01*
X193689039Y-93226823D01*
X193705058Y-93218261D01*
X193723695Y-93202966D01*
X193738990Y-93184329D01*
X193750355Y-93163065D01*
X193757355Y-93139990D01*
X193759718Y-93115999D01*
X193757355Y-93092008D01*
X193750355Y-93068933D01*
X193738990Y-93047669D01*
X193723695Y-93029032D01*
X193705058Y-93013737D01*
X193683794Y-93002372D01*
X193660719Y-92995372D01*
X193636532Y-92992990D01*
X193634906Y-92991825D01*
X193635102Y-92989835D01*
X193636728Y-92989000D01*
X194344272Y-92989000D01*
X194346004Y-92990000D01*
G37*
G36*
X194718232Y-92340000D02*
G01*
X194718500Y-92341000D01*
X194718500Y-92489000D01*
X194717500Y-92490732D01*
X194716500Y-92491000D01*
X193264500Y-92491000D01*
X193262768Y-92490000D01*
X193262500Y-92489000D01*
X193262500Y-92341000D01*
X193263500Y-92339268D01*
X193264500Y-92339000D01*
X194716500Y-92339000D01*
X194718232Y-92340000D01*
G37*
G36*
X194718232Y-91690000D02*
G01*
X194718500Y-91691000D01*
X194718500Y-91839000D01*
X194717500Y-91840732D01*
X194716500Y-91841000D01*
X193264500Y-91841000D01*
X193262768Y-91840000D01*
X193262500Y-91839000D01*
X193262500Y-91691000D01*
X193263500Y-91689268D01*
X193264500Y-91689000D01*
X194716500Y-91689000D01*
X194718232Y-91690000D01*
G37*
G36*
X194718232Y-91040000D02*
G01*
X194718500Y-91041000D01*
X194718500Y-91189000D01*
X194717500Y-91190732D01*
X194716500Y-91191000D01*
X193264500Y-91191000D01*
X193262768Y-91190000D01*
X193262500Y-91189000D01*
X193262500Y-91041000D01*
X193263500Y-91039268D01*
X193264500Y-91039000D01*
X194716500Y-91039000D01*
X194718232Y-91040000D01*
G37*
G36*
X194718232Y-90390000D02*
G01*
X194718500Y-90391000D01*
X194718500Y-90539000D01*
X194717500Y-90540732D01*
X194716500Y-90541000D01*
X193264500Y-90541000D01*
X193262768Y-90540000D01*
X193262500Y-90539000D01*
X193262500Y-90391000D01*
X193263500Y-90389268D01*
X193264500Y-90389000D01*
X194716500Y-90389000D01*
X194718232Y-90390000D01*
G37*
G36*
X194292236Y-89649826D02*
G01*
X194293001Y-89651674D01*
X194291961Y-89653177D01*
X194275942Y-89661739D01*
X194257305Y-89677034D01*
X194242010Y-89695671D01*
X194230645Y-89716935D01*
X194223645Y-89740010D01*
X194221282Y-89764001D01*
X194223645Y-89787992D01*
X194230645Y-89811067D01*
X194242010Y-89832331D01*
X194257305Y-89850968D01*
X194275942Y-89866263D01*
X194297206Y-89877628D01*
X194320281Y-89884628D01*
X194344468Y-89887010D01*
X194346094Y-89888175D01*
X194345898Y-89890165D01*
X194344272Y-89891000D01*
X193636728Y-89891000D01*
X193634996Y-89890000D01*
X193634996Y-89888000D01*
X193636532Y-89887010D01*
X193660719Y-89884628D01*
X193683794Y-89877628D01*
X193705058Y-89866263D01*
X193723695Y-89850968D01*
X193738990Y-89832331D01*
X193750355Y-89811067D01*
X193757355Y-89787992D01*
X193759718Y-89764001D01*
X193757355Y-89740010D01*
X193750355Y-89716935D01*
X193738990Y-89695671D01*
X193723695Y-89677034D01*
X193705058Y-89661739D01*
X193689039Y-89653177D01*
X193687983Y-89651478D01*
X193688926Y-89649715D01*
X193690747Y-89649565D01*
X193765821Y-89680662D01*
X193914638Y-89710263D01*
X194066362Y-89710263D01*
X194215179Y-89680662D01*
X194290253Y-89649565D01*
X194292236Y-89649826D01*
G37*
G36*
X167957165Y-87933996D02*
G01*
X167958000Y-87935622D01*
X167958000Y-88019731D01*
X167957990Y-88019927D01*
X167954051Y-88059919D01*
X167953975Y-88060304D01*
X167944099Y-88092861D01*
X167943949Y-88093223D01*
X167927916Y-88123219D01*
X167927698Y-88123545D01*
X167906118Y-88149841D01*
X167905841Y-88150118D01*
X167879545Y-88171698D01*
X167879219Y-88171916D01*
X167849223Y-88187949D01*
X167848861Y-88188099D01*
X167816304Y-88197975D01*
X167815919Y-88198051D01*
X167775927Y-88201990D01*
X167775731Y-88202000D01*
X167691622Y-88202000D01*
X167689890Y-88201000D01*
X167689890Y-88199000D01*
X167691426Y-88198010D01*
X167742805Y-88192950D01*
X167792026Y-88178018D01*
X167837387Y-88153773D01*
X167877144Y-88121144D01*
X167909773Y-88081387D01*
X167934018Y-88036026D01*
X167948950Y-87986805D01*
X167954010Y-87935426D01*
X167955175Y-87933800D01*
X167957165Y-87933996D01*
G37*
G36*
X166055990Y-87935426D02*
G01*
X166061050Y-87986805D01*
X166075982Y-88036026D01*
X166100227Y-88081387D01*
X166132856Y-88121144D01*
X166172613Y-88153773D01*
X166217974Y-88178018D01*
X166267195Y-88192950D01*
X166318574Y-88198010D01*
X166320200Y-88199175D01*
X166320004Y-88201165D01*
X166318378Y-88202000D01*
X166234269Y-88202000D01*
X166234073Y-88201990D01*
X166194081Y-88198051D01*
X166193696Y-88197975D01*
X166161139Y-88188099D01*
X166160777Y-88187949D01*
X166130781Y-88171916D01*
X166130455Y-88171698D01*
X166104159Y-88150118D01*
X166103882Y-88149841D01*
X166082302Y-88123545D01*
X166082084Y-88123219D01*
X166066051Y-88093223D01*
X166065901Y-88092861D01*
X166056025Y-88060304D01*
X166055949Y-88059919D01*
X166052010Y-88019927D01*
X166052000Y-88019731D01*
X166052000Y-87935622D01*
X166053000Y-87933890D01*
X166055000Y-87933890D01*
X166055990Y-87935426D01*
G37*
G36*
X166320110Y-86297000D02*
G01*
X166320110Y-86299000D01*
X166318574Y-86299990D01*
X166267195Y-86305050D01*
X166217974Y-86319982D01*
X166172613Y-86344227D01*
X166132856Y-86376856D01*
X166100227Y-86416613D01*
X166075982Y-86461974D01*
X166061050Y-86511195D01*
X166055990Y-86562574D01*
X166054825Y-86564200D01*
X166052835Y-86564004D01*
X166052000Y-86562378D01*
X166052000Y-86478269D01*
X166052010Y-86478073D01*
X166055949Y-86438081D01*
X166056025Y-86437696D01*
X166065901Y-86405139D01*
X166066051Y-86404777D01*
X166082084Y-86374781D01*
X166082302Y-86374455D01*
X166103882Y-86348159D01*
X166104159Y-86347882D01*
X166130455Y-86326302D01*
X166130781Y-86326084D01*
X166160777Y-86310051D01*
X166161139Y-86309901D01*
X166193696Y-86300025D01*
X166194081Y-86299949D01*
X166234073Y-86296010D01*
X166234269Y-86296000D01*
X166318378Y-86296000D01*
X166320110Y-86297000D01*
G37*
G36*
X167775927Y-86296010D02*
G01*
X167815919Y-86299949D01*
X167816304Y-86300025D01*
X167848861Y-86309901D01*
X167849223Y-86310051D01*
X167879219Y-86326084D01*
X167879545Y-86326302D01*
X167905841Y-86347882D01*
X167906118Y-86348159D01*
X167927698Y-86374455D01*
X167927916Y-86374781D01*
X167943949Y-86404777D01*
X167944099Y-86405139D01*
X167953975Y-86437696D01*
X167954051Y-86438081D01*
X167957990Y-86478073D01*
X167958000Y-86478269D01*
X167958000Y-86562378D01*
X167957000Y-86564110D01*
X167955000Y-86564110D01*
X167954010Y-86562574D01*
X167948950Y-86511195D01*
X167934018Y-86461974D01*
X167909773Y-86416613D01*
X167877144Y-86376856D01*
X167837387Y-86344227D01*
X167792026Y-86319982D01*
X167742805Y-86305050D01*
X167691426Y-86299990D01*
X167689800Y-86298825D01*
X167689996Y-86296835D01*
X167691622Y-86296000D01*
X167775731Y-86296000D01*
X167775927Y-86296010D01*
G37*
G36*
X166055990Y-79807426D02*
G01*
X166061050Y-79858805D01*
X166075982Y-79908026D01*
X166100227Y-79953387D01*
X166132856Y-79993144D01*
X166172613Y-80025773D01*
X166217974Y-80050018D01*
X166267195Y-80064950D01*
X166318574Y-80070010D01*
X166320200Y-80071175D01*
X166320004Y-80073165D01*
X166318378Y-80074000D01*
X166234269Y-80074000D01*
X166234073Y-80073990D01*
X166194081Y-80070051D01*
X166193696Y-80069975D01*
X166161139Y-80060099D01*
X166160777Y-80059949D01*
X166130781Y-80043916D01*
X166130455Y-80043698D01*
X166104159Y-80022118D01*
X166103882Y-80021841D01*
X166082302Y-79995545D01*
X166082084Y-79995219D01*
X166066051Y-79965223D01*
X166065901Y-79964861D01*
X166056025Y-79932304D01*
X166055949Y-79931919D01*
X166052010Y-79891927D01*
X166052000Y-79891731D01*
X166052000Y-79807622D01*
X166053000Y-79805890D01*
X166055000Y-79805890D01*
X166055990Y-79807426D01*
G37*
G36*
X167957165Y-79805996D02*
G01*
X167958000Y-79807622D01*
X167958000Y-79891731D01*
X167957990Y-79891927D01*
X167954051Y-79931919D01*
X167953975Y-79932304D01*
X167944099Y-79964861D01*
X167943949Y-79965223D01*
X167927916Y-79995219D01*
X167927698Y-79995545D01*
X167906118Y-80021841D01*
X167905841Y-80022118D01*
X167879545Y-80043698D01*
X167879219Y-80043916D01*
X167849223Y-80059949D01*
X167848861Y-80060099D01*
X167816304Y-80069975D01*
X167815919Y-80070051D01*
X167775927Y-80073990D01*
X167775731Y-80074000D01*
X167691622Y-80074000D01*
X167689890Y-80073000D01*
X167689890Y-80071000D01*
X167691426Y-80070010D01*
X167742805Y-80064950D01*
X167792026Y-80050018D01*
X167837387Y-80025773D01*
X167877144Y-79993144D01*
X167909773Y-79953387D01*
X167934018Y-79908026D01*
X167948950Y-79858805D01*
X167954010Y-79807426D01*
X167955175Y-79805800D01*
X167957165Y-79805996D01*
G37*
G36*
X166320110Y-78169000D02*
G01*
X166320110Y-78171000D01*
X166318574Y-78171990D01*
X166267195Y-78177050D01*
X166217974Y-78191982D01*
X166172613Y-78216227D01*
X166132856Y-78248856D01*
X166100227Y-78288613D01*
X166075982Y-78333974D01*
X166061050Y-78383195D01*
X166055990Y-78434574D01*
X166054825Y-78436200D01*
X166052835Y-78436004D01*
X166052000Y-78434378D01*
X166052000Y-78350269D01*
X166052010Y-78350073D01*
X166055949Y-78310081D01*
X166056025Y-78309696D01*
X166065901Y-78277139D01*
X166066051Y-78276777D01*
X166082084Y-78246781D01*
X166082302Y-78246455D01*
X166103882Y-78220159D01*
X166104159Y-78219882D01*
X166130455Y-78198302D01*
X166130781Y-78198084D01*
X166160777Y-78182051D01*
X166161139Y-78181901D01*
X166193696Y-78172025D01*
X166194081Y-78171949D01*
X166234073Y-78168010D01*
X166234269Y-78168000D01*
X166318378Y-78168000D01*
X166320110Y-78169000D01*
G37*
G36*
X167775927Y-78168010D02*
G01*
X167815919Y-78171949D01*
X167816304Y-78172025D01*
X167848861Y-78181901D01*
X167849223Y-78182051D01*
X167879219Y-78198084D01*
X167879545Y-78198302D01*
X167905841Y-78219882D01*
X167906118Y-78220159D01*
X167927698Y-78246455D01*
X167927916Y-78246781D01*
X167943949Y-78276777D01*
X167944099Y-78277139D01*
X167953975Y-78309696D01*
X167954051Y-78310081D01*
X167957990Y-78350073D01*
X167958000Y-78350269D01*
X167958000Y-78434378D01*
X167957000Y-78436110D01*
X167955000Y-78436110D01*
X167954010Y-78434574D01*
X167948950Y-78383195D01*
X167934018Y-78333974D01*
X167909773Y-78288613D01*
X167877144Y-78248856D01*
X167837387Y-78216227D01*
X167792026Y-78191982D01*
X167742805Y-78177050D01*
X167691426Y-78171990D01*
X167689800Y-78170825D01*
X167689996Y-78168835D01*
X167691622Y-78168000D01*
X167775731Y-78168000D01*
X167775927Y-78168010D01*
G37*
G36*
X145040732Y-77058000D02*
G01*
X145041000Y-77059000D01*
X145041000Y-78221000D01*
X145040000Y-78222732D01*
X145039000Y-78223000D01*
X144841000Y-78223000D01*
X144839268Y-78222000D01*
X144839000Y-78221000D01*
X144839000Y-77059000D01*
X144840000Y-77057268D01*
X144841000Y-77057000D01*
X145039000Y-77057000D01*
X145040732Y-77058000D01*
G37*
G36*
X145990732Y-77058000D02*
G01*
X145991000Y-77059000D01*
X145991000Y-78221000D01*
X145990000Y-78222732D01*
X145989000Y-78223000D01*
X145791000Y-78223000D01*
X145789268Y-78222000D01*
X145789000Y-78221000D01*
X145789000Y-77059000D01*
X145790000Y-77057268D01*
X145791000Y-77057000D01*
X145989000Y-77057000D01*
X145990732Y-77058000D01*
G37*
G36*
X194877165Y-72143874D02*
G01*
X194878000Y-72145500D01*
X194878000Y-72201860D01*
X194877990Y-72202056D01*
X194863697Y-72347175D01*
X194863621Y-72347560D01*
X194823080Y-72481206D01*
X194822930Y-72481568D01*
X194757100Y-72604727D01*
X194756882Y-72605053D01*
X194668286Y-72713009D01*
X194668009Y-72713286D01*
X194560053Y-72801882D01*
X194559727Y-72802100D01*
X194436568Y-72867930D01*
X194436206Y-72868080D01*
X194302560Y-72908621D01*
X194302175Y-72908697D01*
X194157056Y-72922990D01*
X194156860Y-72923000D01*
X194100500Y-72923000D01*
X194098768Y-72922000D01*
X194098768Y-72920000D01*
X194100304Y-72919010D01*
X194251398Y-72904129D01*
X194396502Y-72860112D01*
X194530229Y-72788634D01*
X194647440Y-72692440D01*
X194743634Y-72575229D01*
X194815112Y-72441502D01*
X194859129Y-72296398D01*
X194874010Y-72145304D01*
X194875175Y-72143678D01*
X194877165Y-72143874D01*
G37*
G36*
X191775990Y-72145304D02*
G01*
X191790871Y-72296398D01*
X191834888Y-72441502D01*
X191906366Y-72575229D01*
X192002560Y-72692440D01*
X192119771Y-72788634D01*
X192253498Y-72860112D01*
X192398602Y-72904129D01*
X192549696Y-72919010D01*
X192551322Y-72920175D01*
X192551126Y-72922165D01*
X192549500Y-72923000D01*
X192493140Y-72923000D01*
X192492944Y-72922990D01*
X192347825Y-72908697D01*
X192347440Y-72908621D01*
X192213794Y-72868080D01*
X192213432Y-72867930D01*
X192090273Y-72802100D01*
X192089947Y-72801882D01*
X191981991Y-72713286D01*
X191981714Y-72713009D01*
X191893118Y-72605053D01*
X191892900Y-72604727D01*
X191827070Y-72481568D01*
X191826920Y-72481206D01*
X191786379Y-72347560D01*
X191786303Y-72347175D01*
X191772010Y-72202056D01*
X191772000Y-72201860D01*
X191772000Y-72145500D01*
X191773000Y-72143768D01*
X191775000Y-72143768D01*
X191775990Y-72145304D01*
G37*
G36*
X192551232Y-69318000D02*
G01*
X192551232Y-69320000D01*
X192549696Y-69320990D01*
X192398602Y-69335871D01*
X192253498Y-69379888D01*
X192119771Y-69451366D01*
X192002560Y-69547560D01*
X191906366Y-69664771D01*
X191834888Y-69798498D01*
X191790871Y-69943602D01*
X191775990Y-70094696D01*
X191774825Y-70096322D01*
X191772835Y-70096126D01*
X191772000Y-70094500D01*
X191772000Y-70038140D01*
X191772010Y-70037944D01*
X191786303Y-69892825D01*
X191786379Y-69892440D01*
X191826920Y-69758794D01*
X191827070Y-69758432D01*
X191892900Y-69635273D01*
X191893118Y-69634947D01*
X191981714Y-69526991D01*
X191981991Y-69526714D01*
X192089947Y-69438118D01*
X192090273Y-69437900D01*
X192213432Y-69372070D01*
X192213794Y-69371920D01*
X192347440Y-69331379D01*
X192347825Y-69331303D01*
X192492944Y-69317010D01*
X192493140Y-69317000D01*
X192549500Y-69317000D01*
X192551232Y-69318000D01*
G37*
G36*
X194157056Y-69317010D02*
G01*
X194302175Y-69331303D01*
X194302560Y-69331379D01*
X194436206Y-69371920D01*
X194436568Y-69372070D01*
X194559727Y-69437900D01*
X194560053Y-69438118D01*
X194668009Y-69526714D01*
X194668286Y-69526991D01*
X194756882Y-69634947D01*
X194757100Y-69635273D01*
X194822930Y-69758432D01*
X194823080Y-69758794D01*
X194863621Y-69892440D01*
X194863697Y-69892825D01*
X194877990Y-70037944D01*
X194878000Y-70038140D01*
X194878000Y-70094500D01*
X194877000Y-70096232D01*
X194875000Y-70096232D01*
X194874010Y-70094696D01*
X194859129Y-69943602D01*
X194815112Y-69798498D01*
X194743634Y-69664771D01*
X194647440Y-69547560D01*
X194530229Y-69451366D01*
X194396502Y-69379888D01*
X194251398Y-69335871D01*
X194100304Y-69320990D01*
X194098678Y-69319825D01*
X194098874Y-69317835D01*
X194100500Y-69317000D01*
X194156860Y-69317000D01*
X194157056Y-69317010D01*
G37*
G36*
X188525990Y-67320304D02*
G01*
X188543273Y-67495784D01*
X188594403Y-67664337D01*
X188677433Y-67819675D01*
X188789171Y-67955829D01*
X188925325Y-68067567D01*
X189080663Y-68150597D01*
X189249216Y-68201727D01*
X189424696Y-68219010D01*
X189426322Y-68220175D01*
X189426126Y-68222165D01*
X189424500Y-68223000D01*
X189368140Y-68223000D01*
X189367944Y-68222990D01*
X189198438Y-68206295D01*
X189198053Y-68206219D01*
X189040959Y-68158565D01*
X189040597Y-68158415D01*
X188895826Y-68081033D01*
X188895500Y-68080815D01*
X188768603Y-67976674D01*
X188768326Y-67976397D01*
X188664185Y-67849500D01*
X188663967Y-67849174D01*
X188586585Y-67704403D01*
X188586435Y-67704041D01*
X188538781Y-67546947D01*
X188538705Y-67546562D01*
X188522010Y-67377056D01*
X188522000Y-67376860D01*
X188522000Y-67320500D01*
X188523000Y-67318768D01*
X188525000Y-67318768D01*
X188525990Y-67320304D01*
G37*
G36*
X192127165Y-67318874D02*
G01*
X192128000Y-67320500D01*
X192128000Y-67376860D01*
X192127990Y-67377056D01*
X192111295Y-67546562D01*
X192111219Y-67546947D01*
X192063565Y-67704041D01*
X192063415Y-67704403D01*
X191986033Y-67849174D01*
X191985815Y-67849500D01*
X191881674Y-67976397D01*
X191881397Y-67976674D01*
X191754500Y-68080815D01*
X191754174Y-68081033D01*
X191609403Y-68158415D01*
X191609041Y-68158565D01*
X191451947Y-68206219D01*
X191451562Y-68206295D01*
X191282056Y-68222990D01*
X191281860Y-68223000D01*
X191225500Y-68223000D01*
X191223768Y-68222000D01*
X191223768Y-68220000D01*
X191225304Y-68219010D01*
X191400784Y-68201727D01*
X191569337Y-68150597D01*
X191724675Y-68067567D01*
X191860829Y-67955829D01*
X191972567Y-67819675D01*
X192055597Y-67664337D01*
X192106727Y-67495784D01*
X192124010Y-67320304D01*
X192125175Y-67318678D01*
X192127165Y-67318874D01*
G37*
G36*
X189426232Y-64618000D02*
G01*
X189426232Y-64620000D01*
X189424696Y-64620990D01*
X189249216Y-64638273D01*
X189080663Y-64689403D01*
X188925325Y-64772433D01*
X188789171Y-64884171D01*
X188677433Y-65020325D01*
X188594403Y-65175663D01*
X188543273Y-65344216D01*
X188525990Y-65519696D01*
X188524825Y-65521322D01*
X188522835Y-65521126D01*
X188522000Y-65519500D01*
X188522000Y-65463140D01*
X188522010Y-65462944D01*
X188538705Y-65293438D01*
X188538781Y-65293053D01*
X188586435Y-65135959D01*
X188586585Y-65135597D01*
X188663967Y-64990826D01*
X188664185Y-64990500D01*
X188768326Y-64863603D01*
X188768603Y-64863326D01*
X188895500Y-64759185D01*
X188895826Y-64758967D01*
X189040597Y-64681585D01*
X189040959Y-64681435D01*
X189198053Y-64633781D01*
X189198438Y-64633705D01*
X189367944Y-64617010D01*
X189368140Y-64617000D01*
X189424500Y-64617000D01*
X189426232Y-64618000D01*
G37*
G36*
X191282056Y-64617010D02*
G01*
X191451562Y-64633705D01*
X191451947Y-64633781D01*
X191609041Y-64681435D01*
X191609403Y-64681585D01*
X191754174Y-64758967D01*
X191754500Y-64759185D01*
X191881397Y-64863326D01*
X191881674Y-64863603D01*
X191985815Y-64990500D01*
X191986033Y-64990826D01*
X192063415Y-65135597D01*
X192063565Y-65135959D01*
X192111219Y-65293053D01*
X192111295Y-65293438D01*
X192127990Y-65462944D01*
X192128000Y-65463140D01*
X192128000Y-65519500D01*
X192127000Y-65521232D01*
X192125000Y-65521232D01*
X192124010Y-65519696D01*
X192106727Y-65344216D01*
X192055597Y-65175663D01*
X191972567Y-65020325D01*
X191860829Y-64884171D01*
X191724675Y-64772433D01*
X191569337Y-64689403D01*
X191400784Y-64638273D01*
X191225304Y-64620990D01*
X191223678Y-64619825D01*
X191223874Y-64617835D01*
X191225500Y-64617000D01*
X191281860Y-64617000D01*
X191282056Y-64617010D01*
G37*
M02*
