G04 #@! TF.GenerationSoftware,KiCad,Pcbnew,(5.1.9-0-10_14)*
G04 #@! TF.CreationDate,2021-06-13T22:04:25-05:00*
G04 #@! TF.ProjectId,kbxIrBlaster,6b627849-7242-46c6-9173-7465722e6b69,rev?*
G04 #@! TF.SameCoordinates,Original*
G04 #@! TF.FileFunction,Soldermask,Bot*
G04 #@! TF.FilePolarity,Negative*
%FSLAX46Y46*%
G04 Gerber Fmt 4.6, Leading zero omitted, Abs format (unit mm)*
G04 Created by KiCad (PCBNEW (5.1.9-0-10_14)) date 2021-06-13 22:04:25*
%MOMM*%
%LPD*%
G01*
G04 APERTURE LIST*
%ADD10O,2.002000X1.302000*%
%ADD11C,1.552000*%
%ADD12C,0.100000*%
%ADD13C,1.902000*%
%ADD14O,1.802000X1.802000*%
%ADD15C,0.902000*%
%ADD16C,5.102000*%
G04 APERTURE END LIST*
D10*
X196690500Y-87940000D03*
X196690500Y-94940000D03*
D11*
X193990500Y-88940000D03*
X193990500Y-93940000D03*
G36*
G01*
X145499000Y-90285000D02*
X145499000Y-88785000D01*
G75*
G02*
X145550000Y-88734000I51000J0D01*
G01*
X146550000Y-88734000D01*
G75*
G02*
X146601000Y-88785000I0J-51000D01*
G01*
X146601000Y-90285000D01*
G75*
G02*
X146550000Y-90336000I-51000J0D01*
G01*
X145550000Y-90336000D01*
G75*
G02*
X145499000Y-90285000I0J51000D01*
G01*
G37*
D12*
G36*
X147356112Y-88734602D02*
G01*
X147374534Y-88734602D01*
X147379533Y-88734848D01*
X147428364Y-88739658D01*
X147433314Y-88740392D01*
X147481439Y-88749964D01*
X147486295Y-88751180D01*
X147533250Y-88765424D01*
X147537961Y-88767110D01*
X147583294Y-88785887D01*
X147587820Y-88788027D01*
X147631093Y-88811158D01*
X147635384Y-88813731D01*
X147676183Y-88840991D01*
X147680204Y-88843973D01*
X147718133Y-88875101D01*
X147721841Y-88878462D01*
X147756538Y-88913159D01*
X147759899Y-88916867D01*
X147791027Y-88954796D01*
X147794009Y-88958817D01*
X147821269Y-88999616D01*
X147823842Y-89003907D01*
X147846973Y-89047180D01*
X147849113Y-89051706D01*
X147867890Y-89097039D01*
X147869576Y-89101750D01*
X147883820Y-89148705D01*
X147885036Y-89153561D01*
X147894608Y-89201686D01*
X147895342Y-89206636D01*
X147900152Y-89255467D01*
X147900398Y-89260466D01*
X147900398Y-89278888D01*
X147901000Y-89285000D01*
X147901000Y-89785000D01*
X147900398Y-89791112D01*
X147900398Y-89809534D01*
X147900152Y-89814533D01*
X147895342Y-89863364D01*
X147894608Y-89868314D01*
X147885036Y-89916439D01*
X147883820Y-89921295D01*
X147869576Y-89968250D01*
X147867890Y-89972961D01*
X147849113Y-90018294D01*
X147846973Y-90022820D01*
X147823842Y-90066093D01*
X147821269Y-90070384D01*
X147794009Y-90111183D01*
X147791027Y-90115204D01*
X147759899Y-90153133D01*
X147756538Y-90156841D01*
X147721841Y-90191538D01*
X147718133Y-90194899D01*
X147680204Y-90226027D01*
X147676183Y-90229009D01*
X147635384Y-90256269D01*
X147631093Y-90258842D01*
X147587820Y-90281973D01*
X147583294Y-90284113D01*
X147537961Y-90302890D01*
X147533250Y-90304576D01*
X147486295Y-90318820D01*
X147481439Y-90320036D01*
X147433314Y-90329608D01*
X147428364Y-90330342D01*
X147379533Y-90335152D01*
X147374534Y-90335398D01*
X147356112Y-90335398D01*
X147350000Y-90336000D01*
X146800000Y-90336000D01*
X146790050Y-90335020D01*
X146780483Y-90332118D01*
X146771666Y-90327405D01*
X146763938Y-90321062D01*
X146757595Y-90313334D01*
X146752882Y-90304517D01*
X146749980Y-90294950D01*
X146749000Y-90285000D01*
X146749000Y-88785000D01*
X146749980Y-88775050D01*
X146752882Y-88765483D01*
X146757595Y-88756666D01*
X146763938Y-88748938D01*
X146771666Y-88742595D01*
X146780483Y-88737882D01*
X146790050Y-88734980D01*
X146800000Y-88734000D01*
X147350000Y-88734000D01*
X147356112Y-88734602D01*
G37*
G36*
X145309950Y-88734980D02*
G01*
X145319517Y-88737882D01*
X145328334Y-88742595D01*
X145336062Y-88748938D01*
X145342405Y-88756666D01*
X145347118Y-88765483D01*
X145350020Y-88775050D01*
X145351000Y-88785000D01*
X145351000Y-90285000D01*
X145350020Y-90294950D01*
X145347118Y-90304517D01*
X145342405Y-90313334D01*
X145336062Y-90321062D01*
X145328334Y-90327405D01*
X145319517Y-90332118D01*
X145309950Y-90335020D01*
X145300000Y-90336000D01*
X144750000Y-90336000D01*
X144743888Y-90335398D01*
X144725466Y-90335398D01*
X144720467Y-90335152D01*
X144671636Y-90330342D01*
X144666686Y-90329608D01*
X144618561Y-90320036D01*
X144613705Y-90318820D01*
X144566750Y-90304576D01*
X144562039Y-90302890D01*
X144516706Y-90284113D01*
X144512180Y-90281973D01*
X144468907Y-90258842D01*
X144464616Y-90256269D01*
X144423817Y-90229009D01*
X144419796Y-90226027D01*
X144381867Y-90194899D01*
X144378159Y-90191538D01*
X144343462Y-90156841D01*
X144340101Y-90153133D01*
X144308973Y-90115204D01*
X144305991Y-90111183D01*
X144278731Y-90070384D01*
X144276158Y-90066093D01*
X144253027Y-90022820D01*
X144250887Y-90018294D01*
X144232110Y-89972961D01*
X144230424Y-89968250D01*
X144216180Y-89921295D01*
X144214964Y-89916439D01*
X144205392Y-89868314D01*
X144204658Y-89863364D01*
X144199848Y-89814533D01*
X144199602Y-89809534D01*
X144199602Y-89791112D01*
X144199000Y-89785000D01*
X144199000Y-89285000D01*
X144199602Y-89278888D01*
X144199602Y-89260466D01*
X144199848Y-89255467D01*
X144204658Y-89206636D01*
X144205392Y-89201686D01*
X144214964Y-89153561D01*
X144216180Y-89148705D01*
X144230424Y-89101750D01*
X144232110Y-89097039D01*
X144250887Y-89051706D01*
X144253027Y-89047180D01*
X144276158Y-89003907D01*
X144278731Y-88999616D01*
X144305991Y-88958817D01*
X144308973Y-88954796D01*
X144340101Y-88916867D01*
X144343462Y-88913159D01*
X144378159Y-88878462D01*
X144381867Y-88875101D01*
X144419796Y-88843973D01*
X144423817Y-88840991D01*
X144464616Y-88813731D01*
X144468907Y-88811158D01*
X144512180Y-88788027D01*
X144516706Y-88785887D01*
X144562039Y-88767110D01*
X144566750Y-88765424D01*
X144613705Y-88751180D01*
X144618561Y-88749964D01*
X144666686Y-88740392D01*
X144671636Y-88739658D01*
X144720467Y-88734848D01*
X144725466Y-88734602D01*
X144743888Y-88734602D01*
X144750000Y-88734000D01*
X145300000Y-88734000D01*
X145309950Y-88734980D01*
G37*
G36*
X151108888Y-78905398D02*
G01*
X151090466Y-78905398D01*
X151085467Y-78905152D01*
X151036636Y-78900342D01*
X151031686Y-78899608D01*
X150983561Y-78890036D01*
X150978705Y-78888820D01*
X150931750Y-78874576D01*
X150927039Y-78872890D01*
X150881706Y-78854113D01*
X150877180Y-78851973D01*
X150833907Y-78828842D01*
X150829616Y-78826269D01*
X150788817Y-78799009D01*
X150784796Y-78796027D01*
X150746867Y-78764899D01*
X150743159Y-78761538D01*
X150708462Y-78726841D01*
X150705101Y-78723133D01*
X150673973Y-78685204D01*
X150670991Y-78681183D01*
X150643731Y-78640384D01*
X150641158Y-78636093D01*
X150618027Y-78592820D01*
X150615887Y-78588294D01*
X150597110Y-78542961D01*
X150595424Y-78538250D01*
X150581180Y-78491295D01*
X150579964Y-78486439D01*
X150570392Y-78438314D01*
X150569658Y-78433364D01*
X150564848Y-78384533D01*
X150564602Y-78379534D01*
X150564602Y-78361112D01*
X150564000Y-78355000D01*
X150564000Y-77855000D01*
X150564602Y-77848888D01*
X150564602Y-77830466D01*
X150564848Y-77825467D01*
X150569658Y-77776636D01*
X150570392Y-77771686D01*
X150579964Y-77723561D01*
X150581180Y-77718705D01*
X150595424Y-77671750D01*
X150597110Y-77667039D01*
X150615887Y-77621706D01*
X150618027Y-77617180D01*
X150641158Y-77573907D01*
X150643731Y-77569616D01*
X150670991Y-77528817D01*
X150673973Y-77524796D01*
X150705101Y-77486867D01*
X150708462Y-77483159D01*
X150743159Y-77448462D01*
X150746867Y-77445101D01*
X150784796Y-77413973D01*
X150788817Y-77410991D01*
X150829616Y-77383731D01*
X150833907Y-77381158D01*
X150877180Y-77358027D01*
X150881706Y-77355887D01*
X150927039Y-77337110D01*
X150931750Y-77335424D01*
X150978705Y-77321180D01*
X150983561Y-77319964D01*
X151031686Y-77310392D01*
X151036636Y-77309658D01*
X151085467Y-77304848D01*
X151090466Y-77304602D01*
X151108888Y-77304602D01*
X151115000Y-77304000D01*
X151615000Y-77304000D01*
X151624950Y-77304980D01*
X151634517Y-77307882D01*
X151643334Y-77312595D01*
X151651062Y-77318938D01*
X151657405Y-77326666D01*
X151662118Y-77335483D01*
X151665020Y-77345050D01*
X151666000Y-77355000D01*
X151666000Y-78855000D01*
X151665020Y-78864950D01*
X151662118Y-78874517D01*
X151657405Y-78883334D01*
X151651062Y-78891062D01*
X151643334Y-78897405D01*
X151634517Y-78902118D01*
X151624950Y-78905020D01*
X151615000Y-78906000D01*
X151115000Y-78906000D01*
X151108888Y-78905398D01*
G37*
G36*
X151905050Y-78905020D02*
G01*
X151895483Y-78902118D01*
X151886666Y-78897405D01*
X151878938Y-78891062D01*
X151872595Y-78883334D01*
X151867882Y-78874517D01*
X151864980Y-78864950D01*
X151864000Y-78855000D01*
X151864000Y-77355000D01*
X151864980Y-77345050D01*
X151867882Y-77335483D01*
X151872595Y-77326666D01*
X151878938Y-77318938D01*
X151886666Y-77312595D01*
X151895483Y-77307882D01*
X151905050Y-77304980D01*
X151915000Y-77304000D01*
X152415000Y-77304000D01*
X152421112Y-77304602D01*
X152439534Y-77304602D01*
X152444533Y-77304848D01*
X152493364Y-77309658D01*
X152498314Y-77310392D01*
X152546439Y-77319964D01*
X152551295Y-77321180D01*
X152598250Y-77335424D01*
X152602961Y-77337110D01*
X152648294Y-77355887D01*
X152652820Y-77358027D01*
X152696093Y-77381158D01*
X152700384Y-77383731D01*
X152741183Y-77410991D01*
X152745204Y-77413973D01*
X152783133Y-77445101D01*
X152786841Y-77448462D01*
X152821538Y-77483159D01*
X152824899Y-77486867D01*
X152856027Y-77524796D01*
X152859009Y-77528817D01*
X152886269Y-77569616D01*
X152888842Y-77573907D01*
X152911973Y-77617180D01*
X152914113Y-77621706D01*
X152932890Y-77667039D01*
X152934576Y-77671750D01*
X152948820Y-77718705D01*
X152950036Y-77723561D01*
X152959608Y-77771686D01*
X152960342Y-77776636D01*
X152965152Y-77825467D01*
X152965398Y-77830466D01*
X152965398Y-77848888D01*
X152966000Y-77855000D01*
X152966000Y-78355000D01*
X152965398Y-78361112D01*
X152965398Y-78379534D01*
X152965152Y-78384533D01*
X152960342Y-78433364D01*
X152959608Y-78438314D01*
X152950036Y-78486439D01*
X152948820Y-78491295D01*
X152934576Y-78538250D01*
X152932890Y-78542961D01*
X152914113Y-78588294D01*
X152911973Y-78592820D01*
X152888842Y-78636093D01*
X152886269Y-78640384D01*
X152859009Y-78681183D01*
X152856027Y-78685204D01*
X152824899Y-78723133D01*
X152821538Y-78726841D01*
X152786841Y-78761538D01*
X152783133Y-78764899D01*
X152745204Y-78796027D01*
X152741183Y-78799009D01*
X152700384Y-78826269D01*
X152696093Y-78828842D01*
X152652820Y-78851973D01*
X152648294Y-78854113D01*
X152602961Y-78872890D01*
X152598250Y-78874576D01*
X152551295Y-78888820D01*
X152546439Y-78890036D01*
X152498314Y-78899608D01*
X152493364Y-78900342D01*
X152444533Y-78905152D01*
X152439534Y-78905398D01*
X152421112Y-78905398D01*
X152415000Y-78906000D01*
X151915000Y-78906000D01*
X151905050Y-78905020D01*
G37*
G36*
X153504602Y-70209888D02*
G01*
X153504602Y-70191466D01*
X153504848Y-70186467D01*
X153509658Y-70137636D01*
X153510392Y-70132686D01*
X153519964Y-70084561D01*
X153521180Y-70079705D01*
X153535424Y-70032750D01*
X153537110Y-70028039D01*
X153555887Y-69982706D01*
X153558027Y-69978180D01*
X153581158Y-69934907D01*
X153583731Y-69930616D01*
X153610991Y-69889817D01*
X153613973Y-69885796D01*
X153645101Y-69847867D01*
X153648462Y-69844159D01*
X153683159Y-69809462D01*
X153686867Y-69806101D01*
X153724796Y-69774973D01*
X153728817Y-69771991D01*
X153769616Y-69744731D01*
X153773907Y-69742158D01*
X153817180Y-69719027D01*
X153821706Y-69716887D01*
X153867039Y-69698110D01*
X153871750Y-69696424D01*
X153918705Y-69682180D01*
X153923561Y-69680964D01*
X153971686Y-69671392D01*
X153976636Y-69670658D01*
X154025467Y-69665848D01*
X154030466Y-69665602D01*
X154048888Y-69665602D01*
X154055000Y-69665000D01*
X154555000Y-69665000D01*
X154561112Y-69665602D01*
X154579534Y-69665602D01*
X154584533Y-69665848D01*
X154633364Y-69670658D01*
X154638314Y-69671392D01*
X154686439Y-69680964D01*
X154691295Y-69682180D01*
X154738250Y-69696424D01*
X154742961Y-69698110D01*
X154788294Y-69716887D01*
X154792820Y-69719027D01*
X154836093Y-69742158D01*
X154840384Y-69744731D01*
X154881183Y-69771991D01*
X154885204Y-69774973D01*
X154923133Y-69806101D01*
X154926841Y-69809462D01*
X154961538Y-69844159D01*
X154964899Y-69847867D01*
X154996027Y-69885796D01*
X154999009Y-69889817D01*
X155026269Y-69930616D01*
X155028842Y-69934907D01*
X155051973Y-69978180D01*
X155054113Y-69982706D01*
X155072890Y-70028039D01*
X155074576Y-70032750D01*
X155088820Y-70079705D01*
X155090036Y-70084561D01*
X155099608Y-70132686D01*
X155100342Y-70137636D01*
X155105152Y-70186467D01*
X155105398Y-70191466D01*
X155105398Y-70209888D01*
X155106000Y-70216000D01*
X155106000Y-70716000D01*
X155105020Y-70725950D01*
X155102118Y-70735517D01*
X155097405Y-70744334D01*
X155091062Y-70752062D01*
X155083334Y-70758405D01*
X155074517Y-70763118D01*
X155064950Y-70766020D01*
X155055000Y-70767000D01*
X153555000Y-70767000D01*
X153545050Y-70766020D01*
X153535483Y-70763118D01*
X153526666Y-70758405D01*
X153518938Y-70752062D01*
X153512595Y-70744334D01*
X153507882Y-70735517D01*
X153504980Y-70725950D01*
X153504000Y-70716000D01*
X153504000Y-70216000D01*
X153504602Y-70209888D01*
G37*
G36*
X153504980Y-71006050D02*
G01*
X153507882Y-70996483D01*
X153512595Y-70987666D01*
X153518938Y-70979938D01*
X153526666Y-70973595D01*
X153535483Y-70968882D01*
X153545050Y-70965980D01*
X153555000Y-70965000D01*
X155055000Y-70965000D01*
X155064950Y-70965980D01*
X155074517Y-70968882D01*
X155083334Y-70973595D01*
X155091062Y-70979938D01*
X155097405Y-70987666D01*
X155102118Y-70996483D01*
X155105020Y-71006050D01*
X155106000Y-71016000D01*
X155106000Y-71516000D01*
X155105398Y-71522112D01*
X155105398Y-71540534D01*
X155105152Y-71545533D01*
X155100342Y-71594364D01*
X155099608Y-71599314D01*
X155090036Y-71647439D01*
X155088820Y-71652295D01*
X155074576Y-71699250D01*
X155072890Y-71703961D01*
X155054113Y-71749294D01*
X155051973Y-71753820D01*
X155028842Y-71797093D01*
X155026269Y-71801384D01*
X154999009Y-71842183D01*
X154996027Y-71846204D01*
X154964899Y-71884133D01*
X154961538Y-71887841D01*
X154926841Y-71922538D01*
X154923133Y-71925899D01*
X154885204Y-71957027D01*
X154881183Y-71960009D01*
X154840384Y-71987269D01*
X154836093Y-71989842D01*
X154792820Y-72012973D01*
X154788294Y-72015113D01*
X154742961Y-72033890D01*
X154738250Y-72035576D01*
X154691295Y-72049820D01*
X154686439Y-72051036D01*
X154638314Y-72060608D01*
X154633364Y-72061342D01*
X154584533Y-72066152D01*
X154579534Y-72066398D01*
X154561112Y-72066398D01*
X154555000Y-72067000D01*
X154055000Y-72067000D01*
X154048888Y-72066398D01*
X154030466Y-72066398D01*
X154025467Y-72066152D01*
X153976636Y-72061342D01*
X153971686Y-72060608D01*
X153923561Y-72051036D01*
X153918705Y-72049820D01*
X153871750Y-72035576D01*
X153867039Y-72033890D01*
X153821706Y-72015113D01*
X153817180Y-72012973D01*
X153773907Y-71989842D01*
X153769616Y-71987269D01*
X153728817Y-71960009D01*
X153724796Y-71957027D01*
X153686867Y-71925899D01*
X153683159Y-71922538D01*
X153648462Y-71887841D01*
X153645101Y-71884133D01*
X153613973Y-71846204D01*
X153610991Y-71842183D01*
X153583731Y-71801384D01*
X153581158Y-71797093D01*
X153558027Y-71753820D01*
X153555887Y-71749294D01*
X153537110Y-71703961D01*
X153535424Y-71699250D01*
X153521180Y-71652295D01*
X153519964Y-71647439D01*
X153510392Y-71599314D01*
X153509658Y-71594364D01*
X153504848Y-71545533D01*
X153504602Y-71540534D01*
X153504602Y-71522112D01*
X153504000Y-71516000D01*
X153504000Y-71016000D01*
X153504980Y-71006050D01*
G37*
G36*
G01*
X167851000Y-67298000D02*
X167851000Y-65798000D01*
G75*
G02*
X167902000Y-65747000I51000J0D01*
G01*
X168902000Y-65747000D01*
G75*
G02*
X168953000Y-65798000I0J-51000D01*
G01*
X168953000Y-67298000D01*
G75*
G02*
X168902000Y-67349000I-51000J0D01*
G01*
X167902000Y-67349000D01*
G75*
G02*
X167851000Y-67298000I0J51000D01*
G01*
G37*
G36*
X169708112Y-65747602D02*
G01*
X169726534Y-65747602D01*
X169731533Y-65747848D01*
X169780364Y-65752658D01*
X169785314Y-65753392D01*
X169833439Y-65762964D01*
X169838295Y-65764180D01*
X169885250Y-65778424D01*
X169889961Y-65780110D01*
X169935294Y-65798887D01*
X169939820Y-65801027D01*
X169983093Y-65824158D01*
X169987384Y-65826731D01*
X170028183Y-65853991D01*
X170032204Y-65856973D01*
X170070133Y-65888101D01*
X170073841Y-65891462D01*
X170108538Y-65926159D01*
X170111899Y-65929867D01*
X170143027Y-65967796D01*
X170146009Y-65971817D01*
X170173269Y-66012616D01*
X170175842Y-66016907D01*
X170198973Y-66060180D01*
X170201113Y-66064706D01*
X170219890Y-66110039D01*
X170221576Y-66114750D01*
X170235820Y-66161705D01*
X170237036Y-66166561D01*
X170246608Y-66214686D01*
X170247342Y-66219636D01*
X170252152Y-66268467D01*
X170252398Y-66273466D01*
X170252398Y-66291888D01*
X170253000Y-66298000D01*
X170253000Y-66798000D01*
X170252398Y-66804112D01*
X170252398Y-66822534D01*
X170252152Y-66827533D01*
X170247342Y-66876364D01*
X170246608Y-66881314D01*
X170237036Y-66929439D01*
X170235820Y-66934295D01*
X170221576Y-66981250D01*
X170219890Y-66985961D01*
X170201113Y-67031294D01*
X170198973Y-67035820D01*
X170175842Y-67079093D01*
X170173269Y-67083384D01*
X170146009Y-67124183D01*
X170143027Y-67128204D01*
X170111899Y-67166133D01*
X170108538Y-67169841D01*
X170073841Y-67204538D01*
X170070133Y-67207899D01*
X170032204Y-67239027D01*
X170028183Y-67242009D01*
X169987384Y-67269269D01*
X169983093Y-67271842D01*
X169939820Y-67294973D01*
X169935294Y-67297113D01*
X169889961Y-67315890D01*
X169885250Y-67317576D01*
X169838295Y-67331820D01*
X169833439Y-67333036D01*
X169785314Y-67342608D01*
X169780364Y-67343342D01*
X169731533Y-67348152D01*
X169726534Y-67348398D01*
X169708112Y-67348398D01*
X169702000Y-67349000D01*
X169152000Y-67349000D01*
X169142050Y-67348020D01*
X169132483Y-67345118D01*
X169123666Y-67340405D01*
X169115938Y-67334062D01*
X169109595Y-67326334D01*
X169104882Y-67317517D01*
X169101980Y-67307950D01*
X169101000Y-67298000D01*
X169101000Y-65798000D01*
X169101980Y-65788050D01*
X169104882Y-65778483D01*
X169109595Y-65769666D01*
X169115938Y-65761938D01*
X169123666Y-65755595D01*
X169132483Y-65750882D01*
X169142050Y-65747980D01*
X169152000Y-65747000D01*
X169702000Y-65747000D01*
X169708112Y-65747602D01*
G37*
G36*
X167661950Y-65747980D02*
G01*
X167671517Y-65750882D01*
X167680334Y-65755595D01*
X167688062Y-65761938D01*
X167694405Y-65769666D01*
X167699118Y-65778483D01*
X167702020Y-65788050D01*
X167703000Y-65798000D01*
X167703000Y-67298000D01*
X167702020Y-67307950D01*
X167699118Y-67317517D01*
X167694405Y-67326334D01*
X167688062Y-67334062D01*
X167680334Y-67340405D01*
X167671517Y-67345118D01*
X167661950Y-67348020D01*
X167652000Y-67349000D01*
X167102000Y-67349000D01*
X167095888Y-67348398D01*
X167077466Y-67348398D01*
X167072467Y-67348152D01*
X167023636Y-67343342D01*
X167018686Y-67342608D01*
X166970561Y-67333036D01*
X166965705Y-67331820D01*
X166918750Y-67317576D01*
X166914039Y-67315890D01*
X166868706Y-67297113D01*
X166864180Y-67294973D01*
X166820907Y-67271842D01*
X166816616Y-67269269D01*
X166775817Y-67242009D01*
X166771796Y-67239027D01*
X166733867Y-67207899D01*
X166730159Y-67204538D01*
X166695462Y-67169841D01*
X166692101Y-67166133D01*
X166660973Y-67128204D01*
X166657991Y-67124183D01*
X166630731Y-67083384D01*
X166628158Y-67079093D01*
X166605027Y-67035820D01*
X166602887Y-67031294D01*
X166584110Y-66985961D01*
X166582424Y-66981250D01*
X166568180Y-66934295D01*
X166566964Y-66929439D01*
X166557392Y-66881314D01*
X166556658Y-66876364D01*
X166551848Y-66827533D01*
X166551602Y-66822534D01*
X166551602Y-66804112D01*
X166551000Y-66798000D01*
X166551000Y-66298000D01*
X166551602Y-66291888D01*
X166551602Y-66273466D01*
X166551848Y-66268467D01*
X166556658Y-66219636D01*
X166557392Y-66214686D01*
X166566964Y-66166561D01*
X166568180Y-66161705D01*
X166582424Y-66114750D01*
X166584110Y-66110039D01*
X166602887Y-66064706D01*
X166605027Y-66060180D01*
X166628158Y-66016907D01*
X166630731Y-66012616D01*
X166657991Y-65971817D01*
X166660973Y-65967796D01*
X166692101Y-65929867D01*
X166695462Y-65926159D01*
X166730159Y-65891462D01*
X166733867Y-65888101D01*
X166771796Y-65856973D01*
X166775817Y-65853991D01*
X166816616Y-65826731D01*
X166820907Y-65824158D01*
X166864180Y-65801027D01*
X166868706Y-65798887D01*
X166914039Y-65780110D01*
X166918750Y-65778424D01*
X166965705Y-65764180D01*
X166970561Y-65762964D01*
X167018686Y-65753392D01*
X167023636Y-65752658D01*
X167072467Y-65747848D01*
X167077466Y-65747602D01*
X167095888Y-65747602D01*
X167102000Y-65747000D01*
X167652000Y-65747000D01*
X167661950Y-65747980D01*
G37*
G36*
G01*
X167851000Y-71489000D02*
X167851000Y-69989000D01*
G75*
G02*
X167902000Y-69938000I51000J0D01*
G01*
X168902000Y-69938000D01*
G75*
G02*
X168953000Y-69989000I0J-51000D01*
G01*
X168953000Y-71489000D01*
G75*
G02*
X168902000Y-71540000I-51000J0D01*
G01*
X167902000Y-71540000D01*
G75*
G02*
X167851000Y-71489000I0J51000D01*
G01*
G37*
G36*
X169708112Y-69938602D02*
G01*
X169726534Y-69938602D01*
X169731533Y-69938848D01*
X169780364Y-69943658D01*
X169785314Y-69944392D01*
X169833439Y-69953964D01*
X169838295Y-69955180D01*
X169885250Y-69969424D01*
X169889961Y-69971110D01*
X169935294Y-69989887D01*
X169939820Y-69992027D01*
X169983093Y-70015158D01*
X169987384Y-70017731D01*
X170028183Y-70044991D01*
X170032204Y-70047973D01*
X170070133Y-70079101D01*
X170073841Y-70082462D01*
X170108538Y-70117159D01*
X170111899Y-70120867D01*
X170143027Y-70158796D01*
X170146009Y-70162817D01*
X170173269Y-70203616D01*
X170175842Y-70207907D01*
X170198973Y-70251180D01*
X170201113Y-70255706D01*
X170219890Y-70301039D01*
X170221576Y-70305750D01*
X170235820Y-70352705D01*
X170237036Y-70357561D01*
X170246608Y-70405686D01*
X170247342Y-70410636D01*
X170252152Y-70459467D01*
X170252398Y-70464466D01*
X170252398Y-70482888D01*
X170253000Y-70489000D01*
X170253000Y-70989000D01*
X170252398Y-70995112D01*
X170252398Y-71013534D01*
X170252152Y-71018533D01*
X170247342Y-71067364D01*
X170246608Y-71072314D01*
X170237036Y-71120439D01*
X170235820Y-71125295D01*
X170221576Y-71172250D01*
X170219890Y-71176961D01*
X170201113Y-71222294D01*
X170198973Y-71226820D01*
X170175842Y-71270093D01*
X170173269Y-71274384D01*
X170146009Y-71315183D01*
X170143027Y-71319204D01*
X170111899Y-71357133D01*
X170108538Y-71360841D01*
X170073841Y-71395538D01*
X170070133Y-71398899D01*
X170032204Y-71430027D01*
X170028183Y-71433009D01*
X169987384Y-71460269D01*
X169983093Y-71462842D01*
X169939820Y-71485973D01*
X169935294Y-71488113D01*
X169889961Y-71506890D01*
X169885250Y-71508576D01*
X169838295Y-71522820D01*
X169833439Y-71524036D01*
X169785314Y-71533608D01*
X169780364Y-71534342D01*
X169731533Y-71539152D01*
X169726534Y-71539398D01*
X169708112Y-71539398D01*
X169702000Y-71540000D01*
X169152000Y-71540000D01*
X169142050Y-71539020D01*
X169132483Y-71536118D01*
X169123666Y-71531405D01*
X169115938Y-71525062D01*
X169109595Y-71517334D01*
X169104882Y-71508517D01*
X169101980Y-71498950D01*
X169101000Y-71489000D01*
X169101000Y-69989000D01*
X169101980Y-69979050D01*
X169104882Y-69969483D01*
X169109595Y-69960666D01*
X169115938Y-69952938D01*
X169123666Y-69946595D01*
X169132483Y-69941882D01*
X169142050Y-69938980D01*
X169152000Y-69938000D01*
X169702000Y-69938000D01*
X169708112Y-69938602D01*
G37*
G36*
X167661950Y-69938980D02*
G01*
X167671517Y-69941882D01*
X167680334Y-69946595D01*
X167688062Y-69952938D01*
X167694405Y-69960666D01*
X167699118Y-69969483D01*
X167702020Y-69979050D01*
X167703000Y-69989000D01*
X167703000Y-71489000D01*
X167702020Y-71498950D01*
X167699118Y-71508517D01*
X167694405Y-71517334D01*
X167688062Y-71525062D01*
X167680334Y-71531405D01*
X167671517Y-71536118D01*
X167661950Y-71539020D01*
X167652000Y-71540000D01*
X167102000Y-71540000D01*
X167095888Y-71539398D01*
X167077466Y-71539398D01*
X167072467Y-71539152D01*
X167023636Y-71534342D01*
X167018686Y-71533608D01*
X166970561Y-71524036D01*
X166965705Y-71522820D01*
X166918750Y-71508576D01*
X166914039Y-71506890D01*
X166868706Y-71488113D01*
X166864180Y-71485973D01*
X166820907Y-71462842D01*
X166816616Y-71460269D01*
X166775817Y-71433009D01*
X166771796Y-71430027D01*
X166733867Y-71398899D01*
X166730159Y-71395538D01*
X166695462Y-71360841D01*
X166692101Y-71357133D01*
X166660973Y-71319204D01*
X166657991Y-71315183D01*
X166630731Y-71274384D01*
X166628158Y-71270093D01*
X166605027Y-71226820D01*
X166602887Y-71222294D01*
X166584110Y-71176961D01*
X166582424Y-71172250D01*
X166568180Y-71125295D01*
X166566964Y-71120439D01*
X166557392Y-71072314D01*
X166556658Y-71067364D01*
X166551848Y-71018533D01*
X166551602Y-71013534D01*
X166551602Y-70995112D01*
X166551000Y-70989000D01*
X166551000Y-70489000D01*
X166551602Y-70482888D01*
X166551602Y-70464466D01*
X166551848Y-70459467D01*
X166556658Y-70410636D01*
X166557392Y-70405686D01*
X166566964Y-70357561D01*
X166568180Y-70352705D01*
X166582424Y-70305750D01*
X166584110Y-70301039D01*
X166602887Y-70255706D01*
X166605027Y-70251180D01*
X166628158Y-70207907D01*
X166630731Y-70203616D01*
X166657991Y-70162817D01*
X166660973Y-70158796D01*
X166692101Y-70120867D01*
X166695462Y-70117159D01*
X166730159Y-70082462D01*
X166733867Y-70079101D01*
X166771796Y-70047973D01*
X166775817Y-70044991D01*
X166816616Y-70017731D01*
X166820907Y-70015158D01*
X166864180Y-69992027D01*
X166868706Y-69989887D01*
X166914039Y-69971110D01*
X166918750Y-69969424D01*
X166965705Y-69955180D01*
X166970561Y-69953964D01*
X167018686Y-69944392D01*
X167023636Y-69943658D01*
X167072467Y-69938848D01*
X167077466Y-69938602D01*
X167095888Y-69938602D01*
X167102000Y-69938000D01*
X167652000Y-69938000D01*
X167661950Y-69938980D01*
G37*
G36*
G01*
X167851000Y-90920000D02*
X167851000Y-89420000D01*
G75*
G02*
X167902000Y-89369000I51000J0D01*
G01*
X168902000Y-89369000D01*
G75*
G02*
X168953000Y-89420000I0J-51000D01*
G01*
X168953000Y-90920000D01*
G75*
G02*
X168902000Y-90971000I-51000J0D01*
G01*
X167902000Y-90971000D01*
G75*
G02*
X167851000Y-90920000I0J51000D01*
G01*
G37*
G36*
X169708112Y-89369602D02*
G01*
X169726534Y-89369602D01*
X169731533Y-89369848D01*
X169780364Y-89374658D01*
X169785314Y-89375392D01*
X169833439Y-89384964D01*
X169838295Y-89386180D01*
X169885250Y-89400424D01*
X169889961Y-89402110D01*
X169935294Y-89420887D01*
X169939820Y-89423027D01*
X169983093Y-89446158D01*
X169987384Y-89448731D01*
X170028183Y-89475991D01*
X170032204Y-89478973D01*
X170070133Y-89510101D01*
X170073841Y-89513462D01*
X170108538Y-89548159D01*
X170111899Y-89551867D01*
X170143027Y-89589796D01*
X170146009Y-89593817D01*
X170173269Y-89634616D01*
X170175842Y-89638907D01*
X170198973Y-89682180D01*
X170201113Y-89686706D01*
X170219890Y-89732039D01*
X170221576Y-89736750D01*
X170235820Y-89783705D01*
X170237036Y-89788561D01*
X170246608Y-89836686D01*
X170247342Y-89841636D01*
X170252152Y-89890467D01*
X170252398Y-89895466D01*
X170252398Y-89913888D01*
X170253000Y-89920000D01*
X170253000Y-90420000D01*
X170252398Y-90426112D01*
X170252398Y-90444534D01*
X170252152Y-90449533D01*
X170247342Y-90498364D01*
X170246608Y-90503314D01*
X170237036Y-90551439D01*
X170235820Y-90556295D01*
X170221576Y-90603250D01*
X170219890Y-90607961D01*
X170201113Y-90653294D01*
X170198973Y-90657820D01*
X170175842Y-90701093D01*
X170173269Y-90705384D01*
X170146009Y-90746183D01*
X170143027Y-90750204D01*
X170111899Y-90788133D01*
X170108538Y-90791841D01*
X170073841Y-90826538D01*
X170070133Y-90829899D01*
X170032204Y-90861027D01*
X170028183Y-90864009D01*
X169987384Y-90891269D01*
X169983093Y-90893842D01*
X169939820Y-90916973D01*
X169935294Y-90919113D01*
X169889961Y-90937890D01*
X169885250Y-90939576D01*
X169838295Y-90953820D01*
X169833439Y-90955036D01*
X169785314Y-90964608D01*
X169780364Y-90965342D01*
X169731533Y-90970152D01*
X169726534Y-90970398D01*
X169708112Y-90970398D01*
X169702000Y-90971000D01*
X169152000Y-90971000D01*
X169142050Y-90970020D01*
X169132483Y-90967118D01*
X169123666Y-90962405D01*
X169115938Y-90956062D01*
X169109595Y-90948334D01*
X169104882Y-90939517D01*
X169101980Y-90929950D01*
X169101000Y-90920000D01*
X169101000Y-89420000D01*
X169101980Y-89410050D01*
X169104882Y-89400483D01*
X169109595Y-89391666D01*
X169115938Y-89383938D01*
X169123666Y-89377595D01*
X169132483Y-89372882D01*
X169142050Y-89369980D01*
X169152000Y-89369000D01*
X169702000Y-89369000D01*
X169708112Y-89369602D01*
G37*
G36*
X167661950Y-89369980D02*
G01*
X167671517Y-89372882D01*
X167680334Y-89377595D01*
X167688062Y-89383938D01*
X167694405Y-89391666D01*
X167699118Y-89400483D01*
X167702020Y-89410050D01*
X167703000Y-89420000D01*
X167703000Y-90920000D01*
X167702020Y-90929950D01*
X167699118Y-90939517D01*
X167694405Y-90948334D01*
X167688062Y-90956062D01*
X167680334Y-90962405D01*
X167671517Y-90967118D01*
X167661950Y-90970020D01*
X167652000Y-90971000D01*
X167102000Y-90971000D01*
X167095888Y-90970398D01*
X167077466Y-90970398D01*
X167072467Y-90970152D01*
X167023636Y-90965342D01*
X167018686Y-90964608D01*
X166970561Y-90955036D01*
X166965705Y-90953820D01*
X166918750Y-90939576D01*
X166914039Y-90937890D01*
X166868706Y-90919113D01*
X166864180Y-90916973D01*
X166820907Y-90893842D01*
X166816616Y-90891269D01*
X166775817Y-90864009D01*
X166771796Y-90861027D01*
X166733867Y-90829899D01*
X166730159Y-90826538D01*
X166695462Y-90791841D01*
X166692101Y-90788133D01*
X166660973Y-90750204D01*
X166657991Y-90746183D01*
X166630731Y-90705384D01*
X166628158Y-90701093D01*
X166605027Y-90657820D01*
X166602887Y-90653294D01*
X166584110Y-90607961D01*
X166582424Y-90603250D01*
X166568180Y-90556295D01*
X166566964Y-90551439D01*
X166557392Y-90503314D01*
X166556658Y-90498364D01*
X166551848Y-90449533D01*
X166551602Y-90444534D01*
X166551602Y-90426112D01*
X166551000Y-90420000D01*
X166551000Y-89920000D01*
X166551602Y-89913888D01*
X166551602Y-89895466D01*
X166551848Y-89890467D01*
X166556658Y-89841636D01*
X166557392Y-89836686D01*
X166566964Y-89788561D01*
X166568180Y-89783705D01*
X166582424Y-89736750D01*
X166584110Y-89732039D01*
X166602887Y-89686706D01*
X166605027Y-89682180D01*
X166628158Y-89638907D01*
X166630731Y-89634616D01*
X166657991Y-89593817D01*
X166660973Y-89589796D01*
X166692101Y-89551867D01*
X166695462Y-89548159D01*
X166730159Y-89513462D01*
X166733867Y-89510101D01*
X166771796Y-89478973D01*
X166775817Y-89475991D01*
X166816616Y-89448731D01*
X166820907Y-89446158D01*
X166864180Y-89423027D01*
X166868706Y-89420887D01*
X166914039Y-89402110D01*
X166918750Y-89400424D01*
X166965705Y-89386180D01*
X166970561Y-89384964D01*
X167018686Y-89375392D01*
X167023636Y-89374658D01*
X167072467Y-89369848D01*
X167077466Y-89369602D01*
X167095888Y-89369602D01*
X167102000Y-89369000D01*
X167652000Y-89369000D01*
X167661950Y-89369980D01*
G37*
G36*
X162919888Y-79921398D02*
G01*
X162901466Y-79921398D01*
X162896467Y-79921152D01*
X162847636Y-79916342D01*
X162842686Y-79915608D01*
X162794561Y-79906036D01*
X162789705Y-79904820D01*
X162742750Y-79890576D01*
X162738039Y-79888890D01*
X162692706Y-79870113D01*
X162688180Y-79867973D01*
X162644907Y-79844842D01*
X162640616Y-79842269D01*
X162599817Y-79815009D01*
X162595796Y-79812027D01*
X162557867Y-79780899D01*
X162554159Y-79777538D01*
X162519462Y-79742841D01*
X162516101Y-79739133D01*
X162484973Y-79701204D01*
X162481991Y-79697183D01*
X162454731Y-79656384D01*
X162452158Y-79652093D01*
X162429027Y-79608820D01*
X162426887Y-79604294D01*
X162408110Y-79558961D01*
X162406424Y-79554250D01*
X162392180Y-79507295D01*
X162390964Y-79502439D01*
X162381392Y-79454314D01*
X162380658Y-79449364D01*
X162375848Y-79400533D01*
X162375602Y-79395534D01*
X162375602Y-79377112D01*
X162375000Y-79371000D01*
X162375000Y-78871000D01*
X162375602Y-78864888D01*
X162375602Y-78846466D01*
X162375848Y-78841467D01*
X162380658Y-78792636D01*
X162381392Y-78787686D01*
X162390964Y-78739561D01*
X162392180Y-78734705D01*
X162406424Y-78687750D01*
X162408110Y-78683039D01*
X162426887Y-78637706D01*
X162429027Y-78633180D01*
X162452158Y-78589907D01*
X162454731Y-78585616D01*
X162481991Y-78544817D01*
X162484973Y-78540796D01*
X162516101Y-78502867D01*
X162519462Y-78499159D01*
X162554159Y-78464462D01*
X162557867Y-78461101D01*
X162595796Y-78429973D01*
X162599817Y-78426991D01*
X162640616Y-78399731D01*
X162644907Y-78397158D01*
X162688180Y-78374027D01*
X162692706Y-78371887D01*
X162738039Y-78353110D01*
X162742750Y-78351424D01*
X162789705Y-78337180D01*
X162794561Y-78335964D01*
X162842686Y-78326392D01*
X162847636Y-78325658D01*
X162896467Y-78320848D01*
X162901466Y-78320602D01*
X162919888Y-78320602D01*
X162926000Y-78320000D01*
X163426000Y-78320000D01*
X163435950Y-78320980D01*
X163445517Y-78323882D01*
X163454334Y-78328595D01*
X163462062Y-78334938D01*
X163468405Y-78342666D01*
X163473118Y-78351483D01*
X163476020Y-78361050D01*
X163477000Y-78371000D01*
X163477000Y-79871000D01*
X163476020Y-79880950D01*
X163473118Y-79890517D01*
X163468405Y-79899334D01*
X163462062Y-79907062D01*
X163454334Y-79913405D01*
X163445517Y-79918118D01*
X163435950Y-79921020D01*
X163426000Y-79922000D01*
X162926000Y-79922000D01*
X162919888Y-79921398D01*
G37*
G36*
X163716050Y-79921020D02*
G01*
X163706483Y-79918118D01*
X163697666Y-79913405D01*
X163689938Y-79907062D01*
X163683595Y-79899334D01*
X163678882Y-79890517D01*
X163675980Y-79880950D01*
X163675000Y-79871000D01*
X163675000Y-78371000D01*
X163675980Y-78361050D01*
X163678882Y-78351483D01*
X163683595Y-78342666D01*
X163689938Y-78334938D01*
X163697666Y-78328595D01*
X163706483Y-78323882D01*
X163716050Y-78320980D01*
X163726000Y-78320000D01*
X164226000Y-78320000D01*
X164232112Y-78320602D01*
X164250534Y-78320602D01*
X164255533Y-78320848D01*
X164304364Y-78325658D01*
X164309314Y-78326392D01*
X164357439Y-78335964D01*
X164362295Y-78337180D01*
X164409250Y-78351424D01*
X164413961Y-78353110D01*
X164459294Y-78371887D01*
X164463820Y-78374027D01*
X164507093Y-78397158D01*
X164511384Y-78399731D01*
X164552183Y-78426991D01*
X164556204Y-78429973D01*
X164594133Y-78461101D01*
X164597841Y-78464462D01*
X164632538Y-78499159D01*
X164635899Y-78502867D01*
X164667027Y-78540796D01*
X164670009Y-78544817D01*
X164697269Y-78585616D01*
X164699842Y-78589907D01*
X164722973Y-78633180D01*
X164725113Y-78637706D01*
X164743890Y-78683039D01*
X164745576Y-78687750D01*
X164759820Y-78734705D01*
X164761036Y-78739561D01*
X164770608Y-78787686D01*
X164771342Y-78792636D01*
X164776152Y-78841467D01*
X164776398Y-78846466D01*
X164776398Y-78864888D01*
X164777000Y-78871000D01*
X164777000Y-79371000D01*
X164776398Y-79377112D01*
X164776398Y-79395534D01*
X164776152Y-79400533D01*
X164771342Y-79449364D01*
X164770608Y-79454314D01*
X164761036Y-79502439D01*
X164759820Y-79507295D01*
X164745576Y-79554250D01*
X164743890Y-79558961D01*
X164725113Y-79604294D01*
X164722973Y-79608820D01*
X164699842Y-79652093D01*
X164697269Y-79656384D01*
X164670009Y-79697183D01*
X164667027Y-79701204D01*
X164635899Y-79739133D01*
X164632538Y-79742841D01*
X164597841Y-79777538D01*
X164594133Y-79780899D01*
X164556204Y-79812027D01*
X164552183Y-79815009D01*
X164511384Y-79842269D01*
X164507093Y-79844842D01*
X164463820Y-79867973D01*
X164459294Y-79870113D01*
X164413961Y-79888890D01*
X164409250Y-79890576D01*
X164362295Y-79904820D01*
X164357439Y-79906036D01*
X164309314Y-79915608D01*
X164304364Y-79916342D01*
X164255533Y-79921152D01*
X164250534Y-79921398D01*
X164232112Y-79921398D01*
X164226000Y-79922000D01*
X163726000Y-79922000D01*
X163716050Y-79921020D01*
G37*
G36*
X162919888Y-88049398D02*
G01*
X162901466Y-88049398D01*
X162896467Y-88049152D01*
X162847636Y-88044342D01*
X162842686Y-88043608D01*
X162794561Y-88034036D01*
X162789705Y-88032820D01*
X162742750Y-88018576D01*
X162738039Y-88016890D01*
X162692706Y-87998113D01*
X162688180Y-87995973D01*
X162644907Y-87972842D01*
X162640616Y-87970269D01*
X162599817Y-87943009D01*
X162595796Y-87940027D01*
X162557867Y-87908899D01*
X162554159Y-87905538D01*
X162519462Y-87870841D01*
X162516101Y-87867133D01*
X162484973Y-87829204D01*
X162481991Y-87825183D01*
X162454731Y-87784384D01*
X162452158Y-87780093D01*
X162429027Y-87736820D01*
X162426887Y-87732294D01*
X162408110Y-87686961D01*
X162406424Y-87682250D01*
X162392180Y-87635295D01*
X162390964Y-87630439D01*
X162381392Y-87582314D01*
X162380658Y-87577364D01*
X162375848Y-87528533D01*
X162375602Y-87523534D01*
X162375602Y-87505112D01*
X162375000Y-87499000D01*
X162375000Y-86999000D01*
X162375602Y-86992888D01*
X162375602Y-86974466D01*
X162375848Y-86969467D01*
X162380658Y-86920636D01*
X162381392Y-86915686D01*
X162390964Y-86867561D01*
X162392180Y-86862705D01*
X162406424Y-86815750D01*
X162408110Y-86811039D01*
X162426887Y-86765706D01*
X162429027Y-86761180D01*
X162452158Y-86717907D01*
X162454731Y-86713616D01*
X162481991Y-86672817D01*
X162484973Y-86668796D01*
X162516101Y-86630867D01*
X162519462Y-86627159D01*
X162554159Y-86592462D01*
X162557867Y-86589101D01*
X162595796Y-86557973D01*
X162599817Y-86554991D01*
X162640616Y-86527731D01*
X162644907Y-86525158D01*
X162688180Y-86502027D01*
X162692706Y-86499887D01*
X162738039Y-86481110D01*
X162742750Y-86479424D01*
X162789705Y-86465180D01*
X162794561Y-86463964D01*
X162842686Y-86454392D01*
X162847636Y-86453658D01*
X162896467Y-86448848D01*
X162901466Y-86448602D01*
X162919888Y-86448602D01*
X162926000Y-86448000D01*
X163426000Y-86448000D01*
X163435950Y-86448980D01*
X163445517Y-86451882D01*
X163454334Y-86456595D01*
X163462062Y-86462938D01*
X163468405Y-86470666D01*
X163473118Y-86479483D01*
X163476020Y-86489050D01*
X163477000Y-86499000D01*
X163477000Y-87999000D01*
X163476020Y-88008950D01*
X163473118Y-88018517D01*
X163468405Y-88027334D01*
X163462062Y-88035062D01*
X163454334Y-88041405D01*
X163445517Y-88046118D01*
X163435950Y-88049020D01*
X163426000Y-88050000D01*
X162926000Y-88050000D01*
X162919888Y-88049398D01*
G37*
G36*
X163716050Y-88049020D02*
G01*
X163706483Y-88046118D01*
X163697666Y-88041405D01*
X163689938Y-88035062D01*
X163683595Y-88027334D01*
X163678882Y-88018517D01*
X163675980Y-88008950D01*
X163675000Y-87999000D01*
X163675000Y-86499000D01*
X163675980Y-86489050D01*
X163678882Y-86479483D01*
X163683595Y-86470666D01*
X163689938Y-86462938D01*
X163697666Y-86456595D01*
X163706483Y-86451882D01*
X163716050Y-86448980D01*
X163726000Y-86448000D01*
X164226000Y-86448000D01*
X164232112Y-86448602D01*
X164250534Y-86448602D01*
X164255533Y-86448848D01*
X164304364Y-86453658D01*
X164309314Y-86454392D01*
X164357439Y-86463964D01*
X164362295Y-86465180D01*
X164409250Y-86479424D01*
X164413961Y-86481110D01*
X164459294Y-86499887D01*
X164463820Y-86502027D01*
X164507093Y-86525158D01*
X164511384Y-86527731D01*
X164552183Y-86554991D01*
X164556204Y-86557973D01*
X164594133Y-86589101D01*
X164597841Y-86592462D01*
X164632538Y-86627159D01*
X164635899Y-86630867D01*
X164667027Y-86668796D01*
X164670009Y-86672817D01*
X164697269Y-86713616D01*
X164699842Y-86717907D01*
X164722973Y-86761180D01*
X164725113Y-86765706D01*
X164743890Y-86811039D01*
X164745576Y-86815750D01*
X164759820Y-86862705D01*
X164761036Y-86867561D01*
X164770608Y-86915686D01*
X164771342Y-86920636D01*
X164776152Y-86969467D01*
X164776398Y-86974466D01*
X164776398Y-86992888D01*
X164777000Y-86999000D01*
X164777000Y-87499000D01*
X164776398Y-87505112D01*
X164776398Y-87523534D01*
X164776152Y-87528533D01*
X164771342Y-87577364D01*
X164770608Y-87582314D01*
X164761036Y-87630439D01*
X164759820Y-87635295D01*
X164745576Y-87682250D01*
X164743890Y-87686961D01*
X164725113Y-87732294D01*
X164722973Y-87736820D01*
X164699842Y-87780093D01*
X164697269Y-87784384D01*
X164670009Y-87825183D01*
X164667027Y-87829204D01*
X164635899Y-87867133D01*
X164632538Y-87870841D01*
X164597841Y-87905538D01*
X164594133Y-87908899D01*
X164556204Y-87940027D01*
X164552183Y-87943009D01*
X164511384Y-87970269D01*
X164507093Y-87972842D01*
X164463820Y-87995973D01*
X164459294Y-87998113D01*
X164413961Y-88016890D01*
X164409250Y-88018576D01*
X164362295Y-88032820D01*
X164357439Y-88034036D01*
X164309314Y-88043608D01*
X164304364Y-88044342D01*
X164255533Y-88049152D01*
X164250534Y-88049398D01*
X164232112Y-88049398D01*
X164226000Y-88050000D01*
X163726000Y-88050000D01*
X163716050Y-88049020D01*
G37*
D13*
X167005000Y-74041000D03*
X167005000Y-76581000D03*
G36*
G01*
X167691622Y-80072000D02*
X166318378Y-80072000D01*
G75*
G02*
X166054000Y-79807622I0J264378D01*
G01*
X166054000Y-78434378D01*
G75*
G02*
X166318378Y-78170000I264378J0D01*
G01*
X167691622Y-78170000D01*
G75*
G02*
X167956000Y-78434378I0J-264378D01*
G01*
X167956000Y-79807622D01*
G75*
G02*
X167691622Y-80072000I-264378J0D01*
G01*
G37*
X167005000Y-82169000D03*
X167005000Y-84709000D03*
G36*
G01*
X167691622Y-88200000D02*
X166318378Y-88200000D01*
G75*
G02*
X166054000Y-87935622I0J264378D01*
G01*
X166054000Y-86562378D01*
G75*
G02*
X166318378Y-86298000I264378J0D01*
G01*
X167691622Y-86298000D01*
G75*
G02*
X167956000Y-86562378I0J-264378D01*
G01*
X167956000Y-87935622D01*
G75*
G02*
X167691622Y-88200000I-264378J0D01*
G01*
G37*
X175260000Y-69215000D03*
G36*
G01*
X171769000Y-70115000D02*
X171769000Y-68315000D01*
G75*
G02*
X171820000Y-68264000I51000J0D01*
G01*
X173620000Y-68264000D01*
G75*
G02*
X173671000Y-68315000I0J-51000D01*
G01*
X173671000Y-70115000D01*
G75*
G02*
X173620000Y-70166000I-51000J0D01*
G01*
X171820000Y-70166000D01*
G75*
G02*
X171769000Y-70115000I0J51000D01*
G01*
G37*
X173990000Y-78105000D03*
G36*
G01*
X173090000Y-74614000D02*
X174890000Y-74614000D01*
G75*
G02*
X174941000Y-74665000I0J-51000D01*
G01*
X174941000Y-76465000D01*
G75*
G02*
X174890000Y-76516000I-51000J0D01*
G01*
X173090000Y-76516000D01*
G75*
G02*
X173039000Y-76465000I0J51000D01*
G01*
X173039000Y-74665000D01*
G75*
G02*
X173090000Y-74614000I51000J0D01*
G01*
G37*
X182880000Y-69215000D03*
G36*
G01*
X179389000Y-70115000D02*
X179389000Y-68315000D01*
G75*
G02*
X179440000Y-68264000I51000J0D01*
G01*
X181240000Y-68264000D01*
G75*
G02*
X181291000Y-68315000I0J-51000D01*
G01*
X181291000Y-70115000D01*
G75*
G02*
X181240000Y-70166000I-51000J0D01*
G01*
X179440000Y-70166000D01*
G75*
G02*
X179389000Y-70115000I0J51000D01*
G01*
G37*
X181610000Y-78105000D03*
G36*
G01*
X180710000Y-74614000D02*
X182510000Y-74614000D01*
G75*
G02*
X182561000Y-74665000I0J-51000D01*
G01*
X182561000Y-76465000D01*
G75*
G02*
X182510000Y-76516000I-51000J0D01*
G01*
X180710000Y-76516000D01*
G75*
G02*
X180659000Y-76465000I0J51000D01*
G01*
X180659000Y-74665000D01*
G75*
G02*
X180710000Y-74614000I51000J0D01*
G01*
G37*
D14*
X156845000Y-67945000D03*
X154305000Y-67945000D03*
X151765000Y-67945000D03*
X149225000Y-67945000D03*
X146685000Y-67945000D03*
X144145000Y-67945000D03*
X141605000Y-67945000D03*
X139065000Y-67945000D03*
X136525000Y-67945000D03*
X133985000Y-67945000D03*
X131445000Y-67945000D03*
X128905000Y-67945000D03*
X126365000Y-67945000D03*
X123825000Y-67945000D03*
G36*
G01*
X122135000Y-68846000D02*
X120435000Y-68846000D01*
G75*
G02*
X120384000Y-68795000I0J51000D01*
G01*
X120384000Y-67095000D01*
G75*
G02*
X120435000Y-67044000I51000J0D01*
G01*
X122135000Y-67044000D01*
G75*
G02*
X122186000Y-67095000I0J-51000D01*
G01*
X122186000Y-68795000D01*
G75*
G02*
X122135000Y-68846000I-51000J0D01*
G01*
G37*
X156845000Y-93345000D03*
X154305000Y-93345000D03*
X151765000Y-93345000D03*
X149225000Y-93345000D03*
X146685000Y-93345000D03*
X144145000Y-93345000D03*
X141605000Y-93345000D03*
X139065000Y-93345000D03*
X136525000Y-93345000D03*
X133985000Y-93345000D03*
X131445000Y-93345000D03*
X128905000Y-93345000D03*
X126365000Y-93345000D03*
X123825000Y-93345000D03*
G36*
G01*
X122135000Y-94246000D02*
X120435000Y-94246000D01*
G75*
G02*
X120384000Y-94195000I0J51000D01*
G01*
X120384000Y-92495000D01*
G75*
G02*
X120435000Y-92444000I51000J0D01*
G01*
X122135000Y-92444000D01*
G75*
G02*
X122186000Y-92495000I0J-51000D01*
G01*
X122186000Y-94195000D01*
G75*
G02*
X122135000Y-94246000I-51000J0D01*
G01*
G37*
X154305000Y-74295000D03*
X154305000Y-76835000D03*
X154305000Y-79375000D03*
X154305000Y-81915000D03*
X154305000Y-84455000D03*
G36*
G01*
X155206000Y-86145000D02*
X155206000Y-87845000D01*
G75*
G02*
X155155000Y-87896000I-51000J0D01*
G01*
X153455000Y-87896000D01*
G75*
G02*
X153404000Y-87845000I0J51000D01*
G01*
X153404000Y-86145000D01*
G75*
G02*
X153455000Y-86094000I51000J0D01*
G01*
X155155000Y-86094000D01*
G75*
G02*
X155206000Y-86145000I0J-51000D01*
G01*
G37*
X193675000Y-77470000D03*
X196215000Y-77470000D03*
X193675000Y-80010000D03*
X196215000Y-80010000D03*
X193675000Y-82550000D03*
X196215000Y-82550000D03*
X193675000Y-85090000D03*
G36*
G01*
X197116000Y-84240000D02*
X197116000Y-85940000D01*
G75*
G02*
X197065000Y-85991000I-51000J0D01*
G01*
X195365000Y-85991000D01*
G75*
G02*
X195314000Y-85940000I0J51000D01*
G01*
X195314000Y-84240000D01*
G75*
G02*
X195365000Y-84189000I51000J0D01*
G01*
X197065000Y-84189000D01*
G75*
G02*
X197116000Y-84240000I0J-51000D01*
G01*
G37*
G36*
G01*
X192126000Y-65519500D02*
X192126000Y-67320500D01*
G75*
G02*
X191225500Y-68221000I-900500J0D01*
G01*
X189424500Y-68221000D01*
G75*
G02*
X188524000Y-67320500I0J900500D01*
G01*
X188524000Y-65519500D01*
G75*
G02*
X189424500Y-64619000I900500J0D01*
G01*
X191225500Y-64619000D01*
G75*
G02*
X192126000Y-65519500I0J-900500D01*
G01*
G37*
G36*
G01*
X194876000Y-70094500D02*
X194876000Y-72145500D01*
G75*
G02*
X194100500Y-72921000I-775500J0D01*
G01*
X192549500Y-72921000D01*
G75*
G02*
X191774000Y-72145500I0J775500D01*
G01*
X191774000Y-70094500D01*
G75*
G02*
X192549500Y-69319000I775500J0D01*
G01*
X194100500Y-69319000D01*
G75*
G02*
X194876000Y-70094500I0J-775500D01*
G01*
G37*
G36*
G01*
X189126000Y-69370000D02*
X189126000Y-72870000D01*
G75*
G02*
X189075000Y-72921000I-51000J0D01*
G01*
X185575000Y-72921000D01*
G75*
G02*
X185524000Y-72870000I0J51000D01*
G01*
X185524000Y-69370000D01*
G75*
G02*
X185575000Y-69319000I51000J0D01*
G01*
X189075000Y-69319000D01*
G75*
G02*
X189126000Y-69370000I0J-51000D01*
G01*
G37*
D15*
X189920825Y-92654175D03*
X188595000Y-92105000D03*
X187269175Y-92654175D03*
X186720000Y-93980000D03*
X187269175Y-95305825D03*
X188595000Y-95855000D03*
X189920825Y-95305825D03*
X190470000Y-93980000D03*
D16*
X188595000Y-93980000D03*
D15*
X163250825Y-92654175D03*
X161925000Y-92105000D03*
X160599175Y-92654175D03*
X160050000Y-93980000D03*
X160599175Y-95305825D03*
X161925000Y-95855000D03*
X163250825Y-95305825D03*
X163800000Y-93980000D03*
D16*
X161925000Y-93980000D03*
D15*
X163250825Y-65984175D03*
X161925000Y-65435000D03*
X160599175Y-65984175D03*
X160050000Y-67310000D03*
X160599175Y-68635825D03*
X161925000Y-69185000D03*
X163250825Y-68635825D03*
X163800000Y-67310000D03*
D16*
X161925000Y-67310000D03*
D13*
X173990000Y-85725000D03*
G36*
G01*
X173090000Y-82234000D02*
X174890000Y-82234000D01*
G75*
G02*
X174941000Y-82285000I0J-51000D01*
G01*
X174941000Y-84085000D01*
G75*
G02*
X174890000Y-84136000I-51000J0D01*
G01*
X173090000Y-84136000D01*
G75*
G02*
X173039000Y-84085000I0J51000D01*
G01*
X173039000Y-82285000D01*
G75*
G02*
X173090000Y-82234000I51000J0D01*
G01*
G37*
X175260000Y-92075000D03*
G36*
G01*
X171769000Y-92975000D02*
X171769000Y-91175000D01*
G75*
G02*
X171820000Y-91124000I51000J0D01*
G01*
X173620000Y-91124000D01*
G75*
G02*
X173671000Y-91175000I0J-51000D01*
G01*
X173671000Y-92975000D01*
G75*
G02*
X173620000Y-93026000I-51000J0D01*
G01*
X171820000Y-93026000D01*
G75*
G02*
X171769000Y-92975000I0J51000D01*
G01*
G37*
X181610000Y-85725000D03*
G36*
G01*
X180710000Y-82234000D02*
X182510000Y-82234000D01*
G75*
G02*
X182561000Y-82285000I0J-51000D01*
G01*
X182561000Y-84085000D01*
G75*
G02*
X182510000Y-84136000I-51000J0D01*
G01*
X180710000Y-84136000D01*
G75*
G02*
X180659000Y-84085000I0J51000D01*
G01*
X180659000Y-82285000D01*
G75*
G02*
X180710000Y-82234000I51000J0D01*
G01*
G37*
X182880000Y-92075000D03*
G36*
G01*
X179389000Y-92975000D02*
X179389000Y-91175000D01*
G75*
G02*
X179440000Y-91124000I51000J0D01*
G01*
X181240000Y-91124000D01*
G75*
G02*
X181291000Y-91175000I0J-51000D01*
G01*
X181291000Y-92975000D01*
G75*
G02*
X181240000Y-93026000I-51000J0D01*
G01*
X179440000Y-93026000D01*
G75*
G02*
X179389000Y-92975000I0J51000D01*
G01*
G37*
D12*
G36*
X167852732Y-89368000D02*
G01*
X167853000Y-89369000D01*
X167853000Y-90971000D01*
X167852000Y-90972732D01*
X167851000Y-90973000D01*
X167787748Y-90973000D01*
X167786805Y-90972764D01*
X167773067Y-90965421D01*
X167749992Y-90958421D01*
X167726001Y-90956058D01*
X167702010Y-90958421D01*
X167678746Y-90965478D01*
X167676798Y-90965024D01*
X167676217Y-90963110D01*
X167677222Y-90961800D01*
X167679218Y-90960733D01*
X167686641Y-90954641D01*
X167692734Y-90947218D01*
X167697261Y-90938748D01*
X167700050Y-90929555D01*
X167701000Y-90919906D01*
X167701000Y-89420094D01*
X167700050Y-89410445D01*
X167697261Y-89401252D01*
X167692734Y-89392782D01*
X167686641Y-89385359D01*
X167679218Y-89379266D01*
X167673293Y-89376100D01*
X167672237Y-89374402D01*
X167673180Y-89372638D01*
X167674816Y-89372422D01*
X167676433Y-89372912D01*
X167676618Y-89372978D01*
X167690297Y-89378644D01*
X167713947Y-89383349D01*
X167738054Y-89383349D01*
X167761704Y-89378645D01*
X167783978Y-89369419D01*
X167787094Y-89367337D01*
X167788205Y-89367000D01*
X167851000Y-89367000D01*
X167852732Y-89368000D01*
G37*
G36*
X169017195Y-89367236D02*
G01*
X169030933Y-89374579D01*
X169054008Y-89381579D01*
X169077999Y-89383942D01*
X169101990Y-89381579D01*
X169125253Y-89374522D01*
X169127201Y-89374976D01*
X169127782Y-89376890D01*
X169126777Y-89378200D01*
X169124782Y-89379266D01*
X169117359Y-89385359D01*
X169111266Y-89392782D01*
X169106739Y-89401252D01*
X169103950Y-89410445D01*
X169103000Y-89420094D01*
X169103000Y-90919906D01*
X169103950Y-90929555D01*
X169106739Y-90938748D01*
X169111266Y-90947218D01*
X169117359Y-90954641D01*
X169124782Y-90960734D01*
X169130707Y-90963900D01*
X169131763Y-90965598D01*
X169130820Y-90967362D01*
X169129184Y-90967578D01*
X169127567Y-90967088D01*
X169127382Y-90967022D01*
X169113703Y-90961356D01*
X169090053Y-90956651D01*
X169065946Y-90956651D01*
X169042296Y-90961355D01*
X169020022Y-90970581D01*
X169016906Y-90972663D01*
X169015795Y-90973000D01*
X168953000Y-90973000D01*
X168951268Y-90972000D01*
X168951000Y-90971000D01*
X168951000Y-89369000D01*
X168952000Y-89367268D01*
X168953000Y-89367000D01*
X169016252Y-89367000D01*
X169017195Y-89367236D01*
G37*
G36*
X146665195Y-88732236D02*
G01*
X146678933Y-88739579D01*
X146702008Y-88746579D01*
X146725999Y-88748942D01*
X146749990Y-88746579D01*
X146773253Y-88739522D01*
X146775201Y-88739976D01*
X146775782Y-88741890D01*
X146774777Y-88743200D01*
X146772782Y-88744266D01*
X146765359Y-88750359D01*
X146759266Y-88757782D01*
X146754739Y-88766252D01*
X146751950Y-88775445D01*
X146751000Y-88785094D01*
X146751000Y-90284906D01*
X146751950Y-90294555D01*
X146754739Y-90303748D01*
X146759266Y-90312218D01*
X146765359Y-90319641D01*
X146772782Y-90325734D01*
X146778707Y-90328900D01*
X146779763Y-90330598D01*
X146778820Y-90332362D01*
X146777184Y-90332578D01*
X146775567Y-90332088D01*
X146775382Y-90332022D01*
X146761703Y-90326356D01*
X146738053Y-90321651D01*
X146713946Y-90321651D01*
X146690296Y-90326355D01*
X146668022Y-90335581D01*
X146664906Y-90337663D01*
X146663795Y-90338000D01*
X146601000Y-90338000D01*
X146599268Y-90337000D01*
X146599000Y-90336000D01*
X146599000Y-88734000D01*
X146600000Y-88732268D01*
X146601000Y-88732000D01*
X146664252Y-88732000D01*
X146665195Y-88732236D01*
G37*
G36*
X145500732Y-88733000D02*
G01*
X145501000Y-88734000D01*
X145501000Y-90336000D01*
X145500000Y-90337732D01*
X145499000Y-90338000D01*
X145435748Y-90338000D01*
X145434805Y-90337764D01*
X145421067Y-90330421D01*
X145397992Y-90323421D01*
X145374001Y-90321058D01*
X145350010Y-90323421D01*
X145326746Y-90330478D01*
X145324798Y-90330024D01*
X145324217Y-90328110D01*
X145325222Y-90326800D01*
X145327218Y-90325733D01*
X145334641Y-90319641D01*
X145340734Y-90312218D01*
X145345261Y-90303748D01*
X145348050Y-90294555D01*
X145349000Y-90284906D01*
X145349000Y-88785094D01*
X145348050Y-88775445D01*
X145345261Y-88766252D01*
X145340734Y-88757782D01*
X145334641Y-88750359D01*
X145327218Y-88744266D01*
X145321293Y-88741100D01*
X145320237Y-88739402D01*
X145321180Y-88737638D01*
X145322816Y-88737422D01*
X145324433Y-88737912D01*
X145324618Y-88737978D01*
X145338297Y-88743644D01*
X145361947Y-88748349D01*
X145386054Y-88748349D01*
X145409704Y-88743645D01*
X145431978Y-88734419D01*
X145435094Y-88732337D01*
X145436205Y-88732000D01*
X145499000Y-88732000D01*
X145500732Y-88733000D01*
G37*
G36*
X166055990Y-87935426D02*
G01*
X166061050Y-87986805D01*
X166075982Y-88036026D01*
X166100227Y-88081387D01*
X166132856Y-88121144D01*
X166172613Y-88153773D01*
X166217974Y-88178018D01*
X166267195Y-88192950D01*
X166318574Y-88198010D01*
X166320200Y-88199175D01*
X166320004Y-88201165D01*
X166318378Y-88202000D01*
X166234269Y-88202000D01*
X166234073Y-88201990D01*
X166194081Y-88198051D01*
X166193696Y-88197975D01*
X166161139Y-88188099D01*
X166160777Y-88187949D01*
X166130781Y-88171916D01*
X166130455Y-88171698D01*
X166104159Y-88150118D01*
X166103882Y-88149841D01*
X166082302Y-88123545D01*
X166082084Y-88123219D01*
X166066051Y-88093223D01*
X166065901Y-88092861D01*
X166056025Y-88060304D01*
X166055949Y-88059919D01*
X166052010Y-88019927D01*
X166052000Y-88019731D01*
X166052000Y-87935622D01*
X166053000Y-87933890D01*
X166055000Y-87933890D01*
X166055990Y-87935426D01*
G37*
G36*
X167957165Y-87933996D02*
G01*
X167958000Y-87935622D01*
X167958000Y-88019731D01*
X167957990Y-88019927D01*
X167954051Y-88059919D01*
X167953975Y-88060304D01*
X167944099Y-88092861D01*
X167943949Y-88093223D01*
X167927916Y-88123219D01*
X167927698Y-88123545D01*
X167906118Y-88149841D01*
X167905841Y-88150118D01*
X167879545Y-88171698D01*
X167879219Y-88171916D01*
X167849223Y-88187949D01*
X167848861Y-88188099D01*
X167816304Y-88197975D01*
X167815919Y-88198051D01*
X167775927Y-88201990D01*
X167775731Y-88202000D01*
X167691622Y-88202000D01*
X167689890Y-88201000D01*
X167689890Y-88199000D01*
X167691426Y-88198010D01*
X167742805Y-88192950D01*
X167792026Y-88178018D01*
X167837387Y-88153773D01*
X167877144Y-88121144D01*
X167909773Y-88081387D01*
X167934018Y-88036026D01*
X167948950Y-87986805D01*
X167954010Y-87935426D01*
X167955175Y-87933800D01*
X167957165Y-87933996D01*
G37*
G36*
X163471405Y-86472117D02*
G01*
X163472334Y-86473249D01*
X163472451Y-86473407D01*
X163480929Y-86486096D01*
X163497976Y-86503143D01*
X163518024Y-86516538D01*
X163540298Y-86525764D01*
X163563948Y-86530468D01*
X163588054Y-86530468D01*
X163611704Y-86525763D01*
X163633978Y-86516537D01*
X163654025Y-86503142D01*
X163671072Y-86486095D01*
X163679550Y-86473407D01*
X163679667Y-86473249D01*
X163680593Y-86472121D01*
X163682465Y-86471417D01*
X163684011Y-86472686D01*
X163683903Y-86474333D01*
X163680739Y-86480252D01*
X163677950Y-86489445D01*
X163677000Y-86499094D01*
X163677000Y-87998906D01*
X163677950Y-88008555D01*
X163680739Y-88017748D01*
X163683905Y-88023671D01*
X163683839Y-88025670D01*
X163682076Y-88026613D01*
X163680595Y-88025883D01*
X163679666Y-88024751D01*
X163679549Y-88024593D01*
X163671071Y-88011904D01*
X163654024Y-87994857D01*
X163633976Y-87981462D01*
X163611702Y-87972236D01*
X163588052Y-87967532D01*
X163563946Y-87967532D01*
X163540296Y-87972237D01*
X163518022Y-87981463D01*
X163497975Y-87994858D01*
X163480928Y-88011905D01*
X163472450Y-88024593D01*
X163472333Y-88024751D01*
X163471407Y-88025879D01*
X163469535Y-88026583D01*
X163467989Y-88025314D01*
X163468097Y-88023667D01*
X163471261Y-88017748D01*
X163474050Y-88008555D01*
X163475000Y-87998906D01*
X163475000Y-86499094D01*
X163474050Y-86489445D01*
X163471261Y-86480252D01*
X163468095Y-86474329D01*
X163468161Y-86472330D01*
X163469924Y-86471387D01*
X163471405Y-86472117D01*
G37*
G36*
X166320110Y-86297000D02*
G01*
X166320110Y-86299000D01*
X166318574Y-86299990D01*
X166267195Y-86305050D01*
X166217974Y-86319982D01*
X166172613Y-86344227D01*
X166132856Y-86376856D01*
X166100227Y-86416613D01*
X166075982Y-86461974D01*
X166061050Y-86511195D01*
X166055990Y-86562574D01*
X166054825Y-86564200D01*
X166052835Y-86564004D01*
X166052000Y-86562378D01*
X166052000Y-86478269D01*
X166052010Y-86478073D01*
X166055949Y-86438081D01*
X166056025Y-86437696D01*
X166065901Y-86405139D01*
X166066051Y-86404777D01*
X166082084Y-86374781D01*
X166082302Y-86374455D01*
X166103882Y-86348159D01*
X166104159Y-86347882D01*
X166130455Y-86326302D01*
X166130781Y-86326084D01*
X166160777Y-86310051D01*
X166161139Y-86309901D01*
X166193696Y-86300025D01*
X166194081Y-86299949D01*
X166234073Y-86296010D01*
X166234269Y-86296000D01*
X166318378Y-86296000D01*
X166320110Y-86297000D01*
G37*
G36*
X167775927Y-86296010D02*
G01*
X167815919Y-86299949D01*
X167816304Y-86300025D01*
X167848861Y-86309901D01*
X167849223Y-86310051D01*
X167879219Y-86326084D01*
X167879545Y-86326302D01*
X167905841Y-86347882D01*
X167906118Y-86348159D01*
X167927698Y-86374455D01*
X167927916Y-86374781D01*
X167943949Y-86404777D01*
X167944099Y-86405139D01*
X167953975Y-86437696D01*
X167954051Y-86438081D01*
X167957990Y-86478073D01*
X167958000Y-86478269D01*
X167958000Y-86562378D01*
X167957000Y-86564110D01*
X167955000Y-86564110D01*
X167954010Y-86562574D01*
X167948950Y-86511195D01*
X167934018Y-86461974D01*
X167909773Y-86416613D01*
X167877144Y-86376856D01*
X167837387Y-86344227D01*
X167792026Y-86319982D01*
X167742805Y-86305050D01*
X167691426Y-86299990D01*
X167689800Y-86298825D01*
X167689996Y-86296835D01*
X167691622Y-86296000D01*
X167775731Y-86296000D01*
X167775927Y-86296010D01*
G37*
G36*
X166055990Y-79807426D02*
G01*
X166061050Y-79858805D01*
X166075982Y-79908026D01*
X166100227Y-79953387D01*
X166132856Y-79993144D01*
X166172613Y-80025773D01*
X166217974Y-80050018D01*
X166267195Y-80064950D01*
X166318574Y-80070010D01*
X166320200Y-80071175D01*
X166320004Y-80073165D01*
X166318378Y-80074000D01*
X166234269Y-80074000D01*
X166234073Y-80073990D01*
X166194081Y-80070051D01*
X166193696Y-80069975D01*
X166161139Y-80060099D01*
X166160777Y-80059949D01*
X166130781Y-80043916D01*
X166130455Y-80043698D01*
X166104159Y-80022118D01*
X166103882Y-80021841D01*
X166082302Y-79995545D01*
X166082084Y-79995219D01*
X166066051Y-79965223D01*
X166065901Y-79964861D01*
X166056025Y-79932304D01*
X166055949Y-79931919D01*
X166052010Y-79891927D01*
X166052000Y-79891731D01*
X166052000Y-79807622D01*
X166053000Y-79805890D01*
X166055000Y-79805890D01*
X166055990Y-79807426D01*
G37*
G36*
X167957165Y-79805996D02*
G01*
X167958000Y-79807622D01*
X167958000Y-79891731D01*
X167957990Y-79891927D01*
X167954051Y-79931919D01*
X167953975Y-79932304D01*
X167944099Y-79964861D01*
X167943949Y-79965223D01*
X167927916Y-79995219D01*
X167927698Y-79995545D01*
X167906118Y-80021841D01*
X167905841Y-80022118D01*
X167879545Y-80043698D01*
X167879219Y-80043916D01*
X167849223Y-80059949D01*
X167848861Y-80060099D01*
X167816304Y-80069975D01*
X167815919Y-80070051D01*
X167775927Y-80073990D01*
X167775731Y-80074000D01*
X167691622Y-80074000D01*
X167689890Y-80073000D01*
X167689890Y-80071000D01*
X167691426Y-80070010D01*
X167742805Y-80064950D01*
X167792026Y-80050018D01*
X167837387Y-80025773D01*
X167877144Y-79993144D01*
X167909773Y-79953387D01*
X167934018Y-79908026D01*
X167948950Y-79858805D01*
X167954010Y-79807426D01*
X167955175Y-79805800D01*
X167957165Y-79805996D01*
G37*
G36*
X163471405Y-78344117D02*
G01*
X163472334Y-78345249D01*
X163472451Y-78345407D01*
X163480929Y-78358096D01*
X163497976Y-78375143D01*
X163518024Y-78388538D01*
X163540298Y-78397764D01*
X163563948Y-78402468D01*
X163588054Y-78402468D01*
X163611704Y-78397763D01*
X163633978Y-78388537D01*
X163654025Y-78375142D01*
X163671072Y-78358095D01*
X163679550Y-78345407D01*
X163679667Y-78345249D01*
X163680593Y-78344121D01*
X163682465Y-78343417D01*
X163684011Y-78344686D01*
X163683903Y-78346333D01*
X163680739Y-78352252D01*
X163677950Y-78361445D01*
X163677000Y-78371094D01*
X163677000Y-79870906D01*
X163677950Y-79880555D01*
X163680739Y-79889748D01*
X163683905Y-79895671D01*
X163683839Y-79897670D01*
X163682076Y-79898613D01*
X163680595Y-79897883D01*
X163679666Y-79896751D01*
X163679549Y-79896593D01*
X163671071Y-79883904D01*
X163654024Y-79866857D01*
X163633976Y-79853462D01*
X163611702Y-79844236D01*
X163588052Y-79839532D01*
X163563946Y-79839532D01*
X163540296Y-79844237D01*
X163518022Y-79853463D01*
X163497975Y-79866858D01*
X163480928Y-79883905D01*
X163472450Y-79896593D01*
X163472333Y-79896751D01*
X163471407Y-79897879D01*
X163469535Y-79898583D01*
X163467989Y-79897314D01*
X163468097Y-79895667D01*
X163471261Y-79889748D01*
X163474050Y-79880555D01*
X163475000Y-79870906D01*
X163475000Y-78371094D01*
X163474050Y-78361445D01*
X163471261Y-78352252D01*
X163468095Y-78346329D01*
X163468161Y-78344330D01*
X163469924Y-78343387D01*
X163471405Y-78344117D01*
G37*
G36*
X151660405Y-77328117D02*
G01*
X151661334Y-77329249D01*
X151661451Y-77329407D01*
X151669929Y-77342096D01*
X151686976Y-77359143D01*
X151707024Y-77372538D01*
X151729298Y-77381764D01*
X151752948Y-77386468D01*
X151777054Y-77386468D01*
X151800704Y-77381763D01*
X151822978Y-77372537D01*
X151843025Y-77359142D01*
X151860072Y-77342095D01*
X151868550Y-77329407D01*
X151868667Y-77329249D01*
X151869593Y-77328121D01*
X151871465Y-77327417D01*
X151873011Y-77328686D01*
X151872903Y-77330333D01*
X151869739Y-77336252D01*
X151866950Y-77345445D01*
X151866000Y-77355094D01*
X151866000Y-78854906D01*
X151866950Y-78864555D01*
X151869739Y-78873748D01*
X151872905Y-78879671D01*
X151872839Y-78881670D01*
X151871076Y-78882613D01*
X151869595Y-78881883D01*
X151868666Y-78880751D01*
X151868549Y-78880593D01*
X151860071Y-78867904D01*
X151843024Y-78850857D01*
X151822976Y-78837462D01*
X151800702Y-78828236D01*
X151777052Y-78823532D01*
X151752946Y-78823532D01*
X151729296Y-78828237D01*
X151707022Y-78837463D01*
X151686975Y-78850858D01*
X151669928Y-78867905D01*
X151661450Y-78880593D01*
X151661333Y-78880751D01*
X151660407Y-78881879D01*
X151658535Y-78882583D01*
X151656989Y-78881314D01*
X151657097Y-78879667D01*
X151660261Y-78873748D01*
X151663050Y-78864555D01*
X151664000Y-78854906D01*
X151664000Y-77355094D01*
X151663050Y-77345445D01*
X151660261Y-77336252D01*
X151657095Y-77330329D01*
X151657161Y-77328330D01*
X151658924Y-77327387D01*
X151660405Y-77328117D01*
G37*
G36*
X166320110Y-78169000D02*
G01*
X166320110Y-78171000D01*
X166318574Y-78171990D01*
X166267195Y-78177050D01*
X166217974Y-78191982D01*
X166172613Y-78216227D01*
X166132856Y-78248856D01*
X166100227Y-78288613D01*
X166075982Y-78333974D01*
X166061050Y-78383195D01*
X166055990Y-78434574D01*
X166054825Y-78436200D01*
X166052835Y-78436004D01*
X166052000Y-78434378D01*
X166052000Y-78350269D01*
X166052010Y-78350073D01*
X166055949Y-78310081D01*
X166056025Y-78309696D01*
X166065901Y-78277139D01*
X166066051Y-78276777D01*
X166082084Y-78246781D01*
X166082302Y-78246455D01*
X166103882Y-78220159D01*
X166104159Y-78219882D01*
X166130455Y-78198302D01*
X166130781Y-78198084D01*
X166160777Y-78182051D01*
X166161139Y-78181901D01*
X166193696Y-78172025D01*
X166194081Y-78171949D01*
X166234073Y-78168010D01*
X166234269Y-78168000D01*
X166318378Y-78168000D01*
X166320110Y-78169000D01*
G37*
G36*
X167775927Y-78168010D02*
G01*
X167815919Y-78171949D01*
X167816304Y-78172025D01*
X167848861Y-78181901D01*
X167849223Y-78182051D01*
X167879219Y-78198084D01*
X167879545Y-78198302D01*
X167905841Y-78219882D01*
X167906118Y-78220159D01*
X167927698Y-78246455D01*
X167927916Y-78246781D01*
X167943949Y-78276777D01*
X167944099Y-78277139D01*
X167953975Y-78309696D01*
X167954051Y-78310081D01*
X167957990Y-78350073D01*
X167958000Y-78350269D01*
X167958000Y-78434378D01*
X167957000Y-78436110D01*
X167955000Y-78436110D01*
X167954010Y-78434574D01*
X167948950Y-78383195D01*
X167934018Y-78333974D01*
X167909773Y-78288613D01*
X167877144Y-78248856D01*
X167837387Y-78216227D01*
X167792026Y-78191982D01*
X167742805Y-78177050D01*
X167691426Y-78171990D01*
X167689800Y-78170825D01*
X167689996Y-78168835D01*
X167691622Y-78168000D01*
X167775731Y-78168000D01*
X167775927Y-78168010D01*
G37*
G36*
X191775990Y-72145304D02*
G01*
X191790871Y-72296398D01*
X191834888Y-72441502D01*
X191906366Y-72575229D01*
X192002560Y-72692440D01*
X192119771Y-72788634D01*
X192253498Y-72860112D01*
X192398602Y-72904129D01*
X192549696Y-72919010D01*
X192551322Y-72920175D01*
X192551126Y-72922165D01*
X192549500Y-72923000D01*
X192493140Y-72923000D01*
X192492944Y-72922990D01*
X192347825Y-72908697D01*
X192347440Y-72908621D01*
X192213794Y-72868080D01*
X192213432Y-72867930D01*
X192090273Y-72802100D01*
X192089947Y-72801882D01*
X191981991Y-72713286D01*
X191981714Y-72713009D01*
X191893118Y-72605053D01*
X191892900Y-72604727D01*
X191827070Y-72481568D01*
X191826920Y-72481206D01*
X191786379Y-72347560D01*
X191786303Y-72347175D01*
X191772010Y-72202056D01*
X191772000Y-72201860D01*
X191772000Y-72145500D01*
X191773000Y-72143768D01*
X191775000Y-72143768D01*
X191775990Y-72145304D01*
G37*
G36*
X194877165Y-72143874D02*
G01*
X194878000Y-72145500D01*
X194878000Y-72201860D01*
X194877990Y-72202056D01*
X194863697Y-72347175D01*
X194863621Y-72347560D01*
X194823080Y-72481206D01*
X194822930Y-72481568D01*
X194757100Y-72604727D01*
X194756882Y-72605053D01*
X194668286Y-72713009D01*
X194668009Y-72713286D01*
X194560053Y-72801882D01*
X194559727Y-72802100D01*
X194436568Y-72867930D01*
X194436206Y-72868080D01*
X194302560Y-72908621D01*
X194302175Y-72908697D01*
X194157056Y-72922990D01*
X194156860Y-72923000D01*
X194100500Y-72923000D01*
X194098768Y-72922000D01*
X194098768Y-72920000D01*
X194100304Y-72919010D01*
X194251398Y-72904129D01*
X194396502Y-72860112D01*
X194530229Y-72788634D01*
X194647440Y-72692440D01*
X194743634Y-72575229D01*
X194815112Y-72441502D01*
X194859129Y-72296398D01*
X194874010Y-72145304D01*
X194875175Y-72143678D01*
X194877165Y-72143874D01*
G37*
G36*
X167852732Y-69937000D02*
G01*
X167853000Y-69938000D01*
X167853000Y-71540000D01*
X167852000Y-71541732D01*
X167851000Y-71542000D01*
X167787748Y-71542000D01*
X167786805Y-71541764D01*
X167773067Y-71534421D01*
X167749992Y-71527421D01*
X167726001Y-71525058D01*
X167702010Y-71527421D01*
X167678746Y-71534478D01*
X167676798Y-71534024D01*
X167676217Y-71532110D01*
X167677222Y-71530800D01*
X167679218Y-71529733D01*
X167686641Y-71523641D01*
X167692734Y-71516218D01*
X167697261Y-71507748D01*
X167700050Y-71498555D01*
X167701000Y-71488906D01*
X167701000Y-69989094D01*
X167700050Y-69979445D01*
X167697261Y-69970252D01*
X167692734Y-69961782D01*
X167686641Y-69954359D01*
X167679218Y-69948266D01*
X167673293Y-69945100D01*
X167672237Y-69943402D01*
X167673180Y-69941638D01*
X167674816Y-69941422D01*
X167676433Y-69941912D01*
X167676618Y-69941978D01*
X167690297Y-69947644D01*
X167713947Y-69952349D01*
X167738054Y-69952349D01*
X167761704Y-69947645D01*
X167783978Y-69938419D01*
X167787094Y-69936337D01*
X167788205Y-69936000D01*
X167851000Y-69936000D01*
X167852732Y-69937000D01*
G37*
G36*
X169017195Y-69936236D02*
G01*
X169030933Y-69943579D01*
X169054008Y-69950579D01*
X169077999Y-69952942D01*
X169101990Y-69950579D01*
X169125253Y-69943522D01*
X169127201Y-69943976D01*
X169127782Y-69945890D01*
X169126777Y-69947200D01*
X169124782Y-69948266D01*
X169117359Y-69954359D01*
X169111266Y-69961782D01*
X169106739Y-69970252D01*
X169103950Y-69979445D01*
X169103000Y-69989094D01*
X169103000Y-71488906D01*
X169103950Y-71498555D01*
X169106739Y-71507748D01*
X169111266Y-71516218D01*
X169117359Y-71523641D01*
X169124782Y-71529734D01*
X169130707Y-71532900D01*
X169131763Y-71534598D01*
X169130820Y-71536362D01*
X169129184Y-71536578D01*
X169127567Y-71536088D01*
X169127382Y-71536022D01*
X169113703Y-71530356D01*
X169090053Y-71525651D01*
X169065946Y-71525651D01*
X169042296Y-71530355D01*
X169020022Y-71539581D01*
X169016906Y-71541663D01*
X169015795Y-71542000D01*
X168953000Y-71542000D01*
X168951268Y-71541000D01*
X168951000Y-71540000D01*
X168951000Y-69938000D01*
X168952000Y-69936268D01*
X168953000Y-69936000D01*
X169016252Y-69936000D01*
X169017195Y-69936236D01*
G37*
G36*
X153530333Y-70758097D02*
G01*
X153536252Y-70761261D01*
X153545445Y-70764050D01*
X153555094Y-70765000D01*
X155054906Y-70765000D01*
X155064555Y-70764050D01*
X155073748Y-70761261D01*
X155079671Y-70758095D01*
X155081670Y-70758161D01*
X155082613Y-70759924D01*
X155081883Y-70761405D01*
X155080751Y-70762334D01*
X155080593Y-70762451D01*
X155067904Y-70770929D01*
X155050857Y-70787976D01*
X155037462Y-70808024D01*
X155028236Y-70830298D01*
X155023532Y-70853948D01*
X155023532Y-70878054D01*
X155028237Y-70901704D01*
X155037463Y-70923978D01*
X155050858Y-70944025D01*
X155067905Y-70961072D01*
X155080593Y-70969550D01*
X155080751Y-70969667D01*
X155081879Y-70970593D01*
X155082583Y-70972465D01*
X155081314Y-70974011D01*
X155079667Y-70973903D01*
X155073748Y-70970739D01*
X155064555Y-70967950D01*
X155054906Y-70967000D01*
X153555094Y-70967000D01*
X153545445Y-70967950D01*
X153536252Y-70970739D01*
X153530329Y-70973905D01*
X153528330Y-70973839D01*
X153527387Y-70972076D01*
X153528117Y-70970595D01*
X153529249Y-70969666D01*
X153529407Y-70969549D01*
X153542096Y-70961071D01*
X153559143Y-70944024D01*
X153572538Y-70923976D01*
X153581764Y-70901702D01*
X153586468Y-70878052D01*
X153586468Y-70853946D01*
X153581763Y-70830296D01*
X153572537Y-70808022D01*
X153559142Y-70787975D01*
X153542095Y-70770928D01*
X153529407Y-70762450D01*
X153529249Y-70762333D01*
X153528121Y-70761407D01*
X153527417Y-70759535D01*
X153528686Y-70757989D01*
X153530333Y-70758097D01*
G37*
G36*
X192551232Y-69318000D02*
G01*
X192551232Y-69320000D01*
X192549696Y-69320990D01*
X192398602Y-69335871D01*
X192253498Y-69379888D01*
X192119771Y-69451366D01*
X192002560Y-69547560D01*
X191906366Y-69664771D01*
X191834888Y-69798498D01*
X191790871Y-69943602D01*
X191775990Y-70094696D01*
X191774825Y-70096322D01*
X191772835Y-70096126D01*
X191772000Y-70094500D01*
X191772000Y-70038140D01*
X191772010Y-70037944D01*
X191786303Y-69892825D01*
X191786379Y-69892440D01*
X191826920Y-69758794D01*
X191827070Y-69758432D01*
X191892900Y-69635273D01*
X191893118Y-69634947D01*
X191981714Y-69526991D01*
X191981991Y-69526714D01*
X192089947Y-69438118D01*
X192090273Y-69437900D01*
X192213432Y-69372070D01*
X192213794Y-69371920D01*
X192347440Y-69331379D01*
X192347825Y-69331303D01*
X192492944Y-69317010D01*
X192493140Y-69317000D01*
X192549500Y-69317000D01*
X192551232Y-69318000D01*
G37*
G36*
X194157056Y-69317010D02*
G01*
X194302175Y-69331303D01*
X194302560Y-69331379D01*
X194436206Y-69371920D01*
X194436568Y-69372070D01*
X194559727Y-69437900D01*
X194560053Y-69438118D01*
X194668009Y-69526714D01*
X194668286Y-69526991D01*
X194756882Y-69634947D01*
X194757100Y-69635273D01*
X194822930Y-69758432D01*
X194823080Y-69758794D01*
X194863621Y-69892440D01*
X194863697Y-69892825D01*
X194877990Y-70037944D01*
X194878000Y-70038140D01*
X194878000Y-70094500D01*
X194877000Y-70096232D01*
X194875000Y-70096232D01*
X194874010Y-70094696D01*
X194859129Y-69943602D01*
X194815112Y-69798498D01*
X194743634Y-69664771D01*
X194647440Y-69547560D01*
X194530229Y-69451366D01*
X194396502Y-69379888D01*
X194251398Y-69335871D01*
X194100304Y-69320990D01*
X194098678Y-69319825D01*
X194098874Y-69317835D01*
X194100500Y-69317000D01*
X194156860Y-69317000D01*
X194157056Y-69317010D01*
G37*
G36*
X192127165Y-67318874D02*
G01*
X192128000Y-67320500D01*
X192128000Y-67376860D01*
X192127990Y-67377056D01*
X192111295Y-67546562D01*
X192111219Y-67546947D01*
X192063565Y-67704041D01*
X192063415Y-67704403D01*
X191986033Y-67849174D01*
X191985815Y-67849500D01*
X191881674Y-67976397D01*
X191881397Y-67976674D01*
X191754500Y-68080815D01*
X191754174Y-68081033D01*
X191609403Y-68158415D01*
X191609041Y-68158565D01*
X191451947Y-68206219D01*
X191451562Y-68206295D01*
X191282056Y-68222990D01*
X191281860Y-68223000D01*
X191225500Y-68223000D01*
X191223768Y-68222000D01*
X191223768Y-68220000D01*
X191225304Y-68219010D01*
X191400784Y-68201727D01*
X191569337Y-68150597D01*
X191724675Y-68067567D01*
X191860829Y-67955829D01*
X191972567Y-67819675D01*
X192055597Y-67664337D01*
X192106727Y-67495784D01*
X192124010Y-67320304D01*
X192125175Y-67318678D01*
X192127165Y-67318874D01*
G37*
G36*
X188525990Y-67320304D02*
G01*
X188543273Y-67495784D01*
X188594403Y-67664337D01*
X188677433Y-67819675D01*
X188789171Y-67955829D01*
X188925325Y-68067567D01*
X189080663Y-68150597D01*
X189249216Y-68201727D01*
X189424696Y-68219010D01*
X189426322Y-68220175D01*
X189426126Y-68222165D01*
X189424500Y-68223000D01*
X189368140Y-68223000D01*
X189367944Y-68222990D01*
X189198438Y-68206295D01*
X189198053Y-68206219D01*
X189040959Y-68158565D01*
X189040597Y-68158415D01*
X188895826Y-68081033D01*
X188895500Y-68080815D01*
X188768603Y-67976674D01*
X188768326Y-67976397D01*
X188664185Y-67849500D01*
X188663967Y-67849174D01*
X188586585Y-67704403D01*
X188586435Y-67704041D01*
X188538781Y-67546947D01*
X188538705Y-67546562D01*
X188522010Y-67377056D01*
X188522000Y-67376860D01*
X188522000Y-67320500D01*
X188523000Y-67318768D01*
X188525000Y-67318768D01*
X188525990Y-67320304D01*
G37*
G36*
X167852732Y-65746000D02*
G01*
X167853000Y-65747000D01*
X167853000Y-67349000D01*
X167852000Y-67350732D01*
X167851000Y-67351000D01*
X167787748Y-67351000D01*
X167786805Y-67350764D01*
X167773067Y-67343421D01*
X167749992Y-67336421D01*
X167726001Y-67334058D01*
X167702010Y-67336421D01*
X167678746Y-67343478D01*
X167676798Y-67343024D01*
X167676217Y-67341110D01*
X167677222Y-67339800D01*
X167679218Y-67338733D01*
X167686641Y-67332641D01*
X167692734Y-67325218D01*
X167697261Y-67316748D01*
X167700050Y-67307555D01*
X167701000Y-67297906D01*
X167701000Y-65798094D01*
X167700050Y-65788445D01*
X167697261Y-65779252D01*
X167692734Y-65770782D01*
X167686641Y-65763359D01*
X167679218Y-65757266D01*
X167673293Y-65754100D01*
X167672237Y-65752402D01*
X167673180Y-65750638D01*
X167674816Y-65750422D01*
X167676433Y-65750912D01*
X167676618Y-65750978D01*
X167690297Y-65756644D01*
X167713947Y-65761349D01*
X167738054Y-65761349D01*
X167761704Y-65756645D01*
X167783978Y-65747419D01*
X167787094Y-65745337D01*
X167788205Y-65745000D01*
X167851000Y-65745000D01*
X167852732Y-65746000D01*
G37*
G36*
X169017195Y-65745236D02*
G01*
X169030933Y-65752579D01*
X169054008Y-65759579D01*
X169077999Y-65761942D01*
X169101990Y-65759579D01*
X169125253Y-65752522D01*
X169127201Y-65752976D01*
X169127782Y-65754890D01*
X169126777Y-65756200D01*
X169124782Y-65757266D01*
X169117359Y-65763359D01*
X169111266Y-65770782D01*
X169106739Y-65779252D01*
X169103950Y-65788445D01*
X169103000Y-65798094D01*
X169103000Y-67297906D01*
X169103950Y-67307555D01*
X169106739Y-67316748D01*
X169111266Y-67325218D01*
X169117359Y-67332641D01*
X169124782Y-67338734D01*
X169130707Y-67341900D01*
X169131763Y-67343598D01*
X169130820Y-67345362D01*
X169129184Y-67345578D01*
X169127567Y-67345088D01*
X169127382Y-67345022D01*
X169113703Y-67339356D01*
X169090053Y-67334651D01*
X169065946Y-67334651D01*
X169042296Y-67339355D01*
X169020022Y-67348581D01*
X169016906Y-67350663D01*
X169015795Y-67351000D01*
X168953000Y-67351000D01*
X168951268Y-67350000D01*
X168951000Y-67349000D01*
X168951000Y-65747000D01*
X168952000Y-65745268D01*
X168953000Y-65745000D01*
X169016252Y-65745000D01*
X169017195Y-65745236D01*
G37*
G36*
X189426232Y-64618000D02*
G01*
X189426232Y-64620000D01*
X189424696Y-64620990D01*
X189249216Y-64638273D01*
X189080663Y-64689403D01*
X188925325Y-64772433D01*
X188789171Y-64884171D01*
X188677433Y-65020325D01*
X188594403Y-65175663D01*
X188543273Y-65344216D01*
X188525990Y-65519696D01*
X188524825Y-65521322D01*
X188522835Y-65521126D01*
X188522000Y-65519500D01*
X188522000Y-65463140D01*
X188522010Y-65462944D01*
X188538705Y-65293438D01*
X188538781Y-65293053D01*
X188586435Y-65135959D01*
X188586585Y-65135597D01*
X188663967Y-64990826D01*
X188664185Y-64990500D01*
X188768326Y-64863603D01*
X188768603Y-64863326D01*
X188895500Y-64759185D01*
X188895826Y-64758967D01*
X189040597Y-64681585D01*
X189040959Y-64681435D01*
X189198053Y-64633781D01*
X189198438Y-64633705D01*
X189367944Y-64617010D01*
X189368140Y-64617000D01*
X189424500Y-64617000D01*
X189426232Y-64618000D01*
G37*
G36*
X191282056Y-64617010D02*
G01*
X191451562Y-64633705D01*
X191451947Y-64633781D01*
X191609041Y-64681435D01*
X191609403Y-64681585D01*
X191754174Y-64758967D01*
X191754500Y-64759185D01*
X191881397Y-64863326D01*
X191881674Y-64863603D01*
X191985815Y-64990500D01*
X191986033Y-64990826D01*
X192063415Y-65135597D01*
X192063565Y-65135959D01*
X192111219Y-65293053D01*
X192111295Y-65293438D01*
X192127990Y-65462944D01*
X192128000Y-65463140D01*
X192128000Y-65519500D01*
X192127000Y-65521232D01*
X192125000Y-65521232D01*
X192124010Y-65519696D01*
X192106727Y-65344216D01*
X192055597Y-65175663D01*
X191972567Y-65020325D01*
X191860829Y-64884171D01*
X191724675Y-64772433D01*
X191569337Y-64689403D01*
X191400784Y-64638273D01*
X191225304Y-64620990D01*
X191223678Y-64619825D01*
X191223874Y-64617835D01*
X191225500Y-64617000D01*
X191281860Y-64617000D01*
X191282056Y-64617010D01*
G37*
M02*
