G04 #@! TF.GenerationSoftware,KiCad,Pcbnew,8.0.8*
G04 #@! TF.CreationDate,2025-01-26T21:40:06-06:00*
G04 #@! TF.ProjectId,kbxIrBlaster,6b627849-7242-46c6-9173-7465722e6b69,rev?*
G04 #@! TF.SameCoordinates,Original*
G04 #@! TF.FileFunction,Copper,L4,Bot*
G04 #@! TF.FilePolarity,Positive*
%FSLAX46Y46*%
G04 Gerber Fmt 4.6, Leading zero omitted, Abs format (unit mm)*
G04 Created by KiCad (PCBNEW 8.0.8) date 2025-01-26 21:40:06*
%MOMM*%
%LPD*%
G01*
G04 APERTURE LIST*
G04 Aperture macros list*
%AMRoundRect*
0 Rectangle with rounded corners*
0 $1 Rounding radius*
0 $2 $3 $4 $5 $6 $7 $8 $9 X,Y pos of 4 corners*
0 Add a 4 corners polygon primitive as box body*
4,1,4,$2,$3,$4,$5,$6,$7,$8,$9,$2,$3,0*
0 Add four circle primitives for the rounded corners*
1,1,$1+$1,$2,$3*
1,1,$1+$1,$4,$5*
1,1,$1+$1,$6,$7*
1,1,$1+$1,$8,$9*
0 Add four rect primitives between the rounded corners*
20,1,$1+$1,$2,$3,$4,$5,0*
20,1,$1+$1,$4,$5,$6,$7,0*
20,1,$1+$1,$6,$7,$8,$9,0*
20,1,$1+$1,$8,$9,$2,$3,0*%
%AMRotRect*
0 Rectangle, with rotation*
0 The origin of the aperture is its center*
0 $1 length*
0 $2 width*
0 $3 Rotation angle, in degrees counterclockwise*
0 Add horizontal line*
21,1,$1,$2,0,0,$3*%
G04 Aperture macros list end*
G04 #@! TA.AperFunction,ComponentPad*
%ADD10C,0.800000*%
G04 #@! TD*
G04 #@! TA.AperFunction,ComponentPad*
%ADD11C,5.000000*%
G04 #@! TD*
G04 #@! TA.AperFunction,ComponentPad*
%ADD12O,1.000000X2.100000*%
G04 #@! TD*
G04 #@! TA.AperFunction,ComponentPad*
%ADD13O,1.000000X1.600000*%
G04 #@! TD*
G04 #@! TA.AperFunction,ComponentPad*
%ADD14R,1.700000X1.700000*%
G04 #@! TD*
G04 #@! TA.AperFunction,ComponentPad*
%ADD15O,1.700000X1.700000*%
G04 #@! TD*
G04 #@! TA.AperFunction,SMDPad,CuDef*
%ADD16RoundRect,0.150000X0.587500X0.150000X-0.587500X0.150000X-0.587500X-0.150000X0.587500X-0.150000X0*%
G04 #@! TD*
G04 #@! TA.AperFunction,SMDPad,CuDef*
%ADD17RoundRect,0.250000X0.704416X0.061628X-0.061628X0.704416X-0.704416X-0.061628X0.061628X-0.704416X0*%
G04 #@! TD*
G04 #@! TA.AperFunction,SMDPad,CuDef*
%ADD18RoundRect,0.225000X0.316987X0.027733X-0.027733X0.316987X-0.316987X-0.027733X0.027733X-0.316987X0*%
G04 #@! TD*
G04 #@! TA.AperFunction,ComponentPad*
%ADD19RotRect,1.800000X1.800000X320.000000*%
G04 #@! TD*
G04 #@! TA.AperFunction,ComponentPad*
%ADD20C,1.800000*%
G04 #@! TD*
G04 #@! TA.AperFunction,SMDPad,CuDef*
%ADD21RoundRect,0.250000X0.061628X0.704416X-0.704416X0.061628X-0.061628X-0.704416X0.704416X-0.061628X0*%
G04 #@! TD*
G04 #@! TA.AperFunction,SMDPad,CuDef*
%ADD22RoundRect,0.225000X0.027733X0.316987X-0.316987X0.027733X-0.027733X-0.316987X0.316987X-0.027733X0*%
G04 #@! TD*
G04 #@! TA.AperFunction,SMDPad,CuDef*
%ADD23RoundRect,0.140000X0.170000X-0.140000X0.170000X0.140000X-0.170000X0.140000X-0.170000X-0.140000X0*%
G04 #@! TD*
G04 #@! TA.AperFunction,SMDPad,CuDef*
%ADD24RoundRect,0.135000X0.135000X0.185000X-0.135000X0.185000X-0.135000X-0.185000X0.135000X-0.185000X0*%
G04 #@! TD*
G04 #@! TA.AperFunction,SMDPad,CuDef*
%ADD25R,0.700000X0.700000*%
G04 #@! TD*
G04 #@! TA.AperFunction,ComponentPad*
%ADD26RotRect,1.800000X1.800000X70.000000*%
G04 #@! TD*
G04 #@! TA.AperFunction,SMDPad,CuDef*
%ADD27RoundRect,0.135000X-0.135000X-0.185000X0.135000X-0.185000X0.135000X0.185000X-0.135000X0.185000X0*%
G04 #@! TD*
G04 #@! TA.AperFunction,ComponentPad*
%ADD28RotRect,1.800000X1.800000X140.000000*%
G04 #@! TD*
G04 #@! TA.AperFunction,SMDPad,CuDef*
%ADD29RoundRect,0.250000X-0.704416X-0.061628X0.061628X-0.704416X0.704416X0.061628X-0.061628X0.704416X0*%
G04 #@! TD*
G04 #@! TA.AperFunction,SMDPad,CuDef*
%ADD30RoundRect,0.225000X-0.316987X-0.027733X0.027733X-0.316987X0.316987X0.027733X-0.027733X0.316987X0*%
G04 #@! TD*
G04 #@! TA.AperFunction,SMDPad,CuDef*
%ADD31RoundRect,0.243750X-0.479995X-0.192828X-0.106549X-0.506187X0.479995X0.192828X0.106549X0.506187X0*%
G04 #@! TD*
G04 #@! TA.AperFunction,SMDPad,CuDef*
%ADD32RoundRect,0.243750X-0.345367X0.385097X-0.512102X-0.073003X0.345367X-0.385097X0.512102X0.073003X0*%
G04 #@! TD*
G04 #@! TA.AperFunction,SMDPad,CuDef*
%ADD33RoundRect,0.250000X0.298836X-0.640856X0.640856X0.298836X-0.298836X0.640856X-0.640856X-0.298836X0*%
G04 #@! TD*
G04 #@! TA.AperFunction,SMDPad,CuDef*
%ADD34RoundRect,0.225000X0.134476X-0.288385X0.288385X0.134476X-0.134476X0.288385X-0.288385X-0.134476X0*%
G04 #@! TD*
G04 #@! TA.AperFunction,SMDPad,CuDef*
%ADD35RoundRect,0.243750X-0.512102X0.073003X-0.345367X-0.385097X0.512102X-0.073003X0.345367X0.385097X0*%
G04 #@! TD*
G04 #@! TA.AperFunction,ComponentPad*
%ADD36RotRect,1.800000X1.800000X290.000000*%
G04 #@! TD*
G04 #@! TA.AperFunction,ComponentPad*
%ADD37RotRect,1.800000X1.800000X250.000000*%
G04 #@! TD*
G04 #@! TA.AperFunction,SMDPad,CuDef*
%ADD38RoundRect,0.250000X-0.640856X0.298836X-0.298836X-0.640856X0.640856X-0.298836X0.298836X0.640856X0*%
G04 #@! TD*
G04 #@! TA.AperFunction,SMDPad,CuDef*
%ADD39RoundRect,0.225000X-0.288385X0.134476X-0.134476X-0.288385X0.288385X-0.134476X0.134476X0.288385X0*%
G04 #@! TD*
G04 #@! TA.AperFunction,SMDPad,CuDef*
%ADD40RoundRect,0.243750X0.345367X-0.385097X0.512102X0.073003X-0.345367X0.385097X-0.512102X-0.073003X0*%
G04 #@! TD*
G04 #@! TA.AperFunction,SMDPad,CuDef*
%ADD41RoundRect,0.250000X0.640856X-0.298836X0.298836X0.640856X-0.640856X0.298836X-0.298836X-0.640856X0*%
G04 #@! TD*
G04 #@! TA.AperFunction,SMDPad,CuDef*
%ADD42RoundRect,0.225000X0.288385X-0.134476X0.134476X0.288385X-0.288385X0.134476X-0.134476X-0.288385X0*%
G04 #@! TD*
G04 #@! TA.AperFunction,ComponentPad*
%ADD43RotRect,1.800000X1.800000X220.000000*%
G04 #@! TD*
G04 #@! TA.AperFunction,SMDPad,CuDef*
%ADD44RoundRect,0.243750X-0.106549X0.506187X-0.479995X0.192828X0.106549X-0.506187X0.479995X-0.192828X0*%
G04 #@! TD*
G04 #@! TA.AperFunction,SMDPad,CuDef*
%ADD45RoundRect,0.135000X-0.185000X0.135000X-0.185000X-0.135000X0.185000X-0.135000X0.185000X0.135000X0*%
G04 #@! TD*
G04 #@! TA.AperFunction,SMDPad,CuDef*
%ADD46RoundRect,0.135000X0.185000X-0.135000X0.185000X0.135000X-0.185000X0.135000X-0.185000X-0.135000X0*%
G04 #@! TD*
G04 #@! TA.AperFunction,SMDPad,CuDef*
%ADD47RoundRect,0.243750X0.512102X-0.073003X0.345367X0.385097X-0.512102X0.073003X-0.345367X-0.385097X0*%
G04 #@! TD*
G04 #@! TA.AperFunction,ComponentPad*
%ADD48RotRect,1.800000X1.800000X40.000000*%
G04 #@! TD*
G04 #@! TA.AperFunction,SMDPad,CuDef*
%ADD49RoundRect,0.243750X0.479995X0.192828X0.106549X0.506187X-0.479995X-0.192828X-0.106549X-0.506187X0*%
G04 #@! TD*
G04 #@! TA.AperFunction,SMDPad,CuDef*
%ADD50RoundRect,0.140000X-0.140000X-0.170000X0.140000X-0.170000X0.140000X0.170000X-0.140000X0.170000X0*%
G04 #@! TD*
G04 #@! TA.AperFunction,SMDPad,CuDef*
%ADD51RoundRect,0.250000X-0.061628X-0.704416X0.704416X-0.061628X0.061628X0.704416X-0.704416X0.061628X0*%
G04 #@! TD*
G04 #@! TA.AperFunction,SMDPad,CuDef*
%ADD52RoundRect,0.225000X-0.027733X-0.316987X0.316987X-0.027733X0.027733X0.316987X-0.316987X0.027733X0*%
G04 #@! TD*
G04 #@! TA.AperFunction,SMDPad,CuDef*
%ADD53RoundRect,0.140000X0.140000X0.170000X-0.140000X0.170000X-0.140000X-0.170000X0.140000X-0.170000X0*%
G04 #@! TD*
G04 #@! TA.AperFunction,SMDPad,CuDef*
%ADD54RoundRect,0.243750X0.106549X-0.506187X0.479995X-0.192828X-0.106549X0.506187X-0.479995X0.192828X0*%
G04 #@! TD*
G04 #@! TA.AperFunction,SMDPad,CuDef*
%ADD55R,0.800000X1.000000*%
G04 #@! TD*
G04 #@! TA.AperFunction,SMDPad,CuDef*
%ADD56RoundRect,0.200000X-0.200000X-0.700000X0.200000X-0.700000X0.200000X0.700000X-0.200000X0.700000X0*%
G04 #@! TD*
G04 #@! TA.AperFunction,ComponentPad*
%ADD57RotRect,1.800000X1.800000X110.000000*%
G04 #@! TD*
G04 #@! TA.AperFunction,SMDPad,CuDef*
%ADD58RoundRect,0.140000X-0.170000X0.140000X-0.170000X-0.140000X0.170000X-0.140000X0.170000X0.140000X0*%
G04 #@! TD*
G04 #@! TA.AperFunction,SMDPad,CuDef*
%ADD59RoundRect,0.250000X-0.298836X0.640856X-0.640856X-0.298836X0.298836X-0.640856X0.640856X0.298836X0*%
G04 #@! TD*
G04 #@! TA.AperFunction,SMDPad,CuDef*
%ADD60RoundRect,0.225000X-0.134476X0.288385X-0.288385X-0.134476X0.134476X-0.288385X0.288385X0.134476X0*%
G04 #@! TD*
G04 #@! TA.AperFunction,ViaPad*
%ADD61C,0.800000*%
G04 #@! TD*
G04 #@! TA.AperFunction,ViaPad*
%ADD62C,1.000000*%
G04 #@! TD*
G04 #@! TA.AperFunction,Conductor*
%ADD63C,0.450000*%
G04 #@! TD*
G04 #@! TA.AperFunction,Conductor*
%ADD64C,0.750000*%
G04 #@! TD*
G04 #@! TA.AperFunction,Conductor*
%ADD65C,0.500000*%
G04 #@! TD*
G04 #@! TA.AperFunction,Conductor*
%ADD66C,0.200000*%
G04 #@! TD*
G04 #@! TA.AperFunction,Conductor*
%ADD67C,0.600000*%
G04 #@! TD*
G04 #@! TA.AperFunction,Conductor*
%ADD68C,0.300000*%
G04 #@! TD*
G04 #@! TA.AperFunction,Conductor*
%ADD69C,0.250000*%
G04 #@! TD*
G04 #@! TA.AperFunction,Conductor*
%ADD70C,0.400000*%
G04 #@! TD*
G04 APERTURE END LIST*
D10*
X130625000Y-78000000D03*
X131174175Y-76674175D03*
X131174175Y-79325825D03*
X132500000Y-76125000D03*
D11*
X132500000Y-78000000D03*
D10*
X132500000Y-79875000D03*
X133825825Y-76674175D03*
X133825825Y-79325825D03*
X134375000Y-78000000D03*
X130625000Y-102000000D03*
X131174175Y-100674175D03*
X131174175Y-103325825D03*
X132500000Y-100125000D03*
D11*
X132500000Y-102000000D03*
D10*
X132500000Y-103875000D03*
X133825825Y-100674175D03*
X133825825Y-103325825D03*
X134375000Y-102000000D03*
X165625000Y-102000000D03*
X166174175Y-100674175D03*
X166174175Y-103325825D03*
X167500000Y-100125000D03*
D11*
X167500000Y-102000000D03*
D10*
X167500000Y-103875000D03*
X168825825Y-100674175D03*
X168825825Y-103325825D03*
X169375000Y-102000000D03*
X165625000Y-78000000D03*
X166174175Y-76674175D03*
X166174175Y-79325825D03*
X167500000Y-76125000D03*
D11*
X167500000Y-78000000D03*
D10*
X167500000Y-79875000D03*
X168825825Y-76674175D03*
X168825825Y-79325825D03*
X169375000Y-78000000D03*
D12*
X145680000Y-107170000D03*
D13*
X145680000Y-111350000D03*
D12*
X154320000Y-107170000D03*
D13*
X154320000Y-111350000D03*
D14*
X141210000Y-95050000D03*
D15*
X143750000Y-95050000D03*
X141210000Y-92510000D03*
X143750000Y-92510000D03*
X141210000Y-89970000D03*
X143750000Y-89970000D03*
X141210000Y-87430000D03*
X143750000Y-87430000D03*
X141210000Y-84890000D03*
X143750000Y-84890000D03*
D14*
X152540000Y-98793735D03*
D15*
X150000000Y-98793735D03*
X147460000Y-98793735D03*
D16*
X134737500Y-89050000D03*
X134737500Y-90950000D03*
X132862500Y-90000000D03*
D17*
X166669184Y-72907901D03*
X163988028Y-70658144D03*
D18*
X164910794Y-72280951D03*
D19*
X136973293Y-103580446D03*
D20*
X138919046Y-105213127D03*
D21*
X136061972Y-70658144D03*
X133380816Y-72907901D03*
D22*
X135139204Y-72280951D03*
D23*
X148100000Y-90880000D03*
X148100000Y-89920000D03*
D24*
X147910000Y-80100000D03*
X146890000Y-80100000D03*
D25*
X149450000Y-89085000D03*
X150550000Y-89085000D03*
X150550000Y-90915000D03*
X149450000Y-90915000D03*
D26*
X167163924Y-97598108D03*
D20*
X168032656Y-95211288D03*
D27*
X152090000Y-104900000D03*
X153110000Y-104900000D03*
D28*
X162976707Y-76519554D03*
D20*
X161030954Y-74886873D03*
D29*
X133380816Y-107092099D03*
X136061972Y-109341856D03*
D30*
X135139206Y-107719049D03*
D31*
X140231833Y-100197387D03*
X141668167Y-101402613D03*
D32*
X137120644Y-84319039D03*
X136479356Y-86080961D03*
D33*
X171731618Y-99773452D03*
X172928689Y-96484527D03*
D34*
X171719353Y-97906677D03*
D35*
X136479356Y-93919038D03*
X137120644Y-95680962D03*
D36*
X131963924Y-95201892D03*
D20*
X132832656Y-97588712D03*
D37*
X132836076Y-82401892D03*
D20*
X131967344Y-84788712D03*
D38*
X127071311Y-96484527D03*
X128268381Y-99773452D03*
D39*
X128280647Y-97906677D03*
D40*
X162879356Y-95680962D03*
X163520644Y-93919038D03*
D41*
X172978689Y-83515473D03*
X171781618Y-80226548D03*
D42*
X171769353Y-82093324D03*
D27*
X146890000Y-77700000D03*
X147910000Y-77700000D03*
D43*
X138926707Y-74830446D03*
D20*
X136980954Y-76463127D03*
D44*
X141718167Y-78647387D03*
X140281833Y-79852613D03*
D24*
X147910000Y-78900000D03*
X146890000Y-78900000D03*
D45*
X136500000Y-88040000D03*
X136500000Y-89060000D03*
D46*
X145700000Y-78010000D03*
X145700000Y-76990000D03*
D45*
X145700000Y-73690000D03*
X145700000Y-74710000D03*
D47*
X163520644Y-86080961D03*
X162879356Y-84319039D03*
D48*
X161073293Y-105169555D03*
D20*
X163019046Y-103536874D03*
D49*
X159718167Y-79902613D03*
X158281833Y-78697387D03*
D50*
X147463498Y-100900000D03*
X148423498Y-100900000D03*
D51*
X163938028Y-109341856D03*
X166619184Y-107092099D03*
D52*
X164860794Y-107719049D03*
D53*
X147880000Y-76500000D03*
X146920000Y-76500000D03*
D54*
X158281833Y-101302613D03*
X159718167Y-100097387D03*
D55*
X156300000Y-75050000D03*
X154900000Y-75050000D03*
X154900000Y-72550000D03*
X156300000Y-72550000D03*
D45*
X157900000Y-73490000D03*
X157900000Y-74510000D03*
X136500000Y-89940000D03*
X136500000Y-90960000D03*
D56*
X148095000Y-74300000D03*
X149365000Y-74300000D03*
X150635000Y-74300000D03*
X151905000Y-74300000D03*
D14*
X129975000Y-88736328D03*
D15*
X129975000Y-91276328D03*
D24*
X147910000Y-104900000D03*
X146890000Y-104900000D03*
D57*
X167986076Y-84798108D03*
D20*
X167117344Y-82411288D03*
D24*
X156810000Y-76550000D03*
X155790000Y-76550000D03*
D58*
X145700000Y-79120000D03*
X145700000Y-80080000D03*
D59*
X128268381Y-80226548D03*
X127071311Y-83515473D03*
D60*
X128280647Y-82093323D03*
D61*
X139500000Y-88250000D03*
X147400000Y-95900000D03*
X127800000Y-85600000D03*
X157000000Y-87200000D03*
X152000000Y-83100000D03*
X146600000Y-101900000D03*
X139500000Y-85100000D03*
X146200000Y-92100000D03*
X165100000Y-82550000D03*
X170600000Y-96100000D03*
X159500000Y-76900000D03*
X143100000Y-78400000D03*
X159500000Y-84100000D03*
X160300000Y-93100000D03*
X152400000Y-91200000D03*
X142450000Y-83700000D03*
X142000000Y-98100000D03*
X163300000Y-73100000D03*
X146800000Y-75600000D03*
X153500000Y-80000000D03*
X152000000Y-103100000D03*
X138400000Y-110100000D03*
X147500000Y-89500000D03*
X141500000Y-73200000D03*
D62*
X143400000Y-98600000D03*
X163612500Y-82550000D03*
X138900000Y-86200000D03*
X138900000Y-90100000D03*
X148500000Y-91500000D03*
X140100000Y-82400000D03*
X162514013Y-80235987D03*
X161787500Y-92050000D03*
X161787500Y-94150000D03*
X142500000Y-74200000D03*
X143045298Y-77200000D03*
D61*
X157570638Y-80411200D03*
X157000000Y-73700000D03*
X144800000Y-78800000D03*
X147700000Y-81149998D03*
X148500000Y-89000000D03*
D62*
X163700000Y-71800000D03*
D61*
X148500000Y-104900000D03*
X151500000Y-104900000D03*
X148700000Y-80700000D03*
X154700000Y-80200000D03*
X154986432Y-79196848D03*
X145700000Y-75300000D03*
X159500000Y-75500000D03*
X159500000Y-82800000D03*
X150700000Y-92700000D03*
X154399583Y-81101251D03*
X156200000Y-86100000D03*
X149300000Y-94500000D03*
X158050000Y-76900000D03*
X158050000Y-86500000D03*
X151200000Y-91200000D03*
D62*
X128000000Y-84200000D03*
X137300000Y-109100000D03*
X172000000Y-95800000D03*
X135700000Y-86700000D03*
X141600000Y-102900000D03*
X164500000Y-93500000D03*
X160900000Y-83600000D03*
D61*
X148544123Y-92607186D03*
X148500000Y-88000000D03*
D63*
X148095000Y-75105000D02*
X148095000Y-74300000D01*
X146920000Y-76500000D02*
X146920000Y-76280000D01*
X146920000Y-76280000D02*
X148095000Y-75105000D01*
X148100000Y-90880000D02*
X149365503Y-90880000D01*
X148500000Y-91500000D02*
X148255564Y-91255564D01*
X147463498Y-100900000D02*
X147463498Y-98802179D01*
X149450000Y-90915000D02*
X149426459Y-90913852D01*
X147463498Y-98802179D02*
X147460000Y-98793735D01*
X148845512Y-91154488D02*
X148500000Y-91500000D01*
X149426459Y-90913852D02*
G75*
G03*
X148845540Y-91154516I41J-821548D01*
G01*
X148255564Y-91255564D02*
G75*
G02*
X148099992Y-90880000I375536J375564D01*
G01*
X149365503Y-90880000D02*
G75*
G02*
X149449999Y-90915001I-3J-119500D01*
G01*
X146070588Y-77360589D02*
X145700000Y-76990000D01*
X147880000Y-76500000D02*
X147880000Y-76685010D01*
X147880000Y-76685010D02*
X146890000Y-77675010D01*
X146890000Y-80100000D02*
X146890000Y-86830000D01*
X146890000Y-77700000D02*
X146890000Y-78900000D01*
X146890000Y-78900000D02*
X146890000Y-80100000D01*
X143045298Y-77200000D02*
X145193016Y-77200000D01*
X146890000Y-77675010D02*
X146890000Y-77700000D01*
X148859419Y-75520582D02*
X147880000Y-76500000D01*
X146890000Y-86830000D02*
G75*
G02*
X143750000Y-89970000I-3140000J0D01*
G01*
X146890000Y-77700000D02*
G75*
G02*
X146070593Y-77360584I0J1158800D01*
G01*
X145193016Y-77200000D02*
G75*
G03*
X145699996Y-76989996I-16J717000D01*
G01*
X149365000Y-74300000D02*
G75*
G02*
X148859426Y-75520589I-1726200J0D01*
G01*
D64*
X132862500Y-90000000D02*
X131963924Y-95201892D01*
X132862500Y-90000000D02*
X129975000Y-88736328D01*
D65*
X161073293Y-105169555D02*
X158281833Y-101302613D01*
X138926707Y-74830446D02*
X136061972Y-70658144D01*
X138926707Y-74830446D02*
X141718167Y-78647387D01*
X131963924Y-95201892D02*
X127071311Y-96484527D01*
X131963924Y-95201892D02*
X136479356Y-93919038D01*
X167986076Y-84798108D02*
X172978689Y-83515473D01*
X163520644Y-86080961D02*
X167986076Y-84798108D01*
X161073293Y-105169555D02*
X163938028Y-109341856D01*
D66*
X141688041Y-87908040D02*
X141210000Y-87430000D01*
X143800000Y-88700000D02*
X143600000Y-88700000D01*
X144800000Y-78800000D02*
X144927452Y-78800000D01*
X146300000Y-80124264D02*
X146300000Y-86200000D01*
X145734143Y-79134143D02*
X146000000Y-79400000D01*
X145700000Y-79120000D02*
X145700000Y-78010000D01*
X143600000Y-88700000D02*
G75*
G02*
X141688044Y-87908037I0J2703900D01*
G01*
X145700000Y-79120000D02*
G75*
G02*
X145734146Y-79134140I0J-48300D01*
G01*
X144927452Y-78800000D02*
G75*
G02*
X145699985Y-79120015I-52J-1092600D01*
G01*
X146000000Y-79400000D02*
G75*
G02*
X146300015Y-80124264I-724300J-724300D01*
G01*
X146300000Y-86200000D02*
G75*
G02*
X143800000Y-88700000I-2500000J0D01*
G01*
X147500000Y-86910051D02*
X147500000Y-81632840D01*
X147700000Y-80606984D02*
X147700000Y-81149998D01*
X148500000Y-89000000D02*
X148270711Y-88770711D01*
X147910000Y-80100000D02*
G75*
G03*
X147699994Y-80606984I507000J-507000D01*
G01*
X147500000Y-81632840D02*
G75*
G02*
X147699988Y-81149986I682800J40D01*
G01*
X148270711Y-88770711D02*
G75*
G02*
X147500044Y-86910051I1860689J1860611D01*
G01*
D65*
X163700000Y-70946172D02*
X163988028Y-70658144D01*
X163700000Y-71800000D02*
X163700000Y-70946172D01*
D67*
X147910000Y-104900000D02*
X148500000Y-104900000D01*
X152090000Y-104900000D02*
X151500000Y-104900000D01*
D66*
X147910000Y-78900000D02*
X147985822Y-78975822D01*
X147985822Y-78975822D02*
G75*
G02*
X148699987Y-80700000I-1724222J-1724178D01*
G01*
X147572792Y-93400000D02*
X150400000Y-93400000D01*
X141210000Y-89970000D02*
X141599045Y-90359045D01*
X155100000Y-88700000D02*
X155100000Y-81165685D01*
X144432843Y-91532843D02*
X145400000Y-92500000D01*
X141599045Y-90359045D02*
G75*
G03*
X143750000Y-91250003I2150955J2150945D01*
G01*
X143750000Y-91250000D02*
G75*
G02*
X144432846Y-91532840I0J-965700D01*
G01*
X155100000Y-81165685D02*
G75*
G03*
X154699996Y-80200004I-1365700J-15D01*
G01*
X145400000Y-92500000D02*
G75*
G03*
X147572792Y-93400003I2172800J2172800D01*
G01*
X150400000Y-93400000D02*
G75*
G03*
X155100000Y-88700000I0J4700000D01*
G01*
X141210000Y-92510000D02*
X141616116Y-92916116D01*
X155500000Y-88700000D02*
X155500000Y-80436710D01*
X143750000Y-93800000D02*
X150400000Y-93800000D01*
X150400000Y-93800000D02*
G75*
G03*
X155500000Y-88700000I0J5100000D01*
G01*
X141616116Y-92916116D02*
G75*
G03*
X143750000Y-93799990I2133884J2133916D01*
G01*
X155500000Y-80436710D02*
G75*
G03*
X154986431Y-79196849I-1753400J10D01*
G01*
X145700000Y-74710000D02*
X145700000Y-75300000D01*
D68*
X159210086Y-74800086D02*
X157900000Y-73490000D01*
X159500000Y-75500000D02*
G75*
G03*
X159210080Y-74800092I-989800J0D01*
G01*
X156810000Y-80410000D02*
X156810000Y-76550000D01*
X158112132Y-81412132D02*
X159500000Y-82800000D01*
X157600000Y-81200000D02*
G75*
G02*
X156810000Y-80410000I0J790000D01*
G01*
X157600000Y-81200000D02*
G75*
G02*
X158112139Y-81412125I0J-724300D01*
G01*
D66*
X154700000Y-88700000D02*
X154700000Y-81826521D01*
X154700000Y-81826521D02*
G75*
G03*
X154399596Y-81101238I-1025700J21D01*
G01*
X154700000Y-88700000D02*
G75*
G02*
X150700000Y-92700000I-4000000J0D01*
G01*
X155900000Y-86824264D02*
X155900000Y-88700000D01*
X150400000Y-94200000D02*
X150024264Y-94200000D01*
X150024264Y-94200000D02*
G75*
G03*
X149300011Y-94500011I36J-1024300D01*
G01*
X155900000Y-88700000D02*
G75*
G02*
X150400000Y-94200000I-5500000J0D01*
G01*
X156200000Y-86100000D02*
G75*
G03*
X155899985Y-86824264I724300J-724300D01*
G01*
D68*
X136637137Y-88040000D02*
X136500000Y-88040000D01*
X143402167Y-85237832D02*
X143750000Y-84890000D01*
X141200000Y-86150000D02*
G75*
G03*
X143402160Y-85237825I0J3114300D01*
G01*
X139731888Y-86758112D02*
G75*
G02*
X141200000Y-86149993I1468112J-1468088D01*
G01*
X139731888Y-86758112D02*
G75*
G02*
X136637137Y-88040037I-3094788J3094712D01*
G01*
D65*
X136500000Y-89060000D02*
X136500000Y-89940000D01*
X134737500Y-89050000D02*
X136500000Y-89060000D01*
D69*
X151173094Y-91173094D02*
X151200000Y-91200000D01*
X150550000Y-90915000D02*
G75*
G02*
X151173096Y-91173092I0J-881200D01*
G01*
D68*
X155358665Y-75508665D02*
X154900000Y-75050000D01*
X155790000Y-76550000D02*
G75*
G03*
X155358671Y-75508659I-1472700J0D01*
G01*
D70*
X157603675Y-74510000D02*
X157900000Y-74510000D01*
X156300000Y-75050000D02*
G75*
G02*
X157603675Y-74509990I1303700J-1303700D01*
G01*
D65*
X128000000Y-84200000D02*
X127315473Y-83515473D01*
X127315473Y-83515473D02*
X127071311Y-83515473D01*
X131772463Y-74199411D02*
X133380816Y-72907901D01*
X129918052Y-76286279D02*
X130253236Y-75813078D01*
X128268381Y-80226548D02*
X128823177Y-78483737D01*
X128823177Y-78483737D02*
G75*
G02*
X129918043Y-76286272I7623123J-2426663D01*
G01*
X130253236Y-75813078D02*
G75*
G02*
X131772464Y-74199413I6528164J-4624122D01*
G01*
X129841153Y-103665407D02*
X130061892Y-103982720D01*
X131565025Y-105607330D02*
X133380816Y-107092099D01*
X128268381Y-99773452D02*
X128733678Y-101354926D01*
X129841153Y-103665407D02*
G75*
G02*
X128733681Y-101354925I6567247J4568507D01*
G01*
X131565025Y-105607330D02*
G75*
G02*
X130061886Y-103982724I5064075J6193130D01*
G01*
X136061972Y-109341856D02*
X137300000Y-109100000D01*
X172684527Y-96484527D02*
X172928689Y-96484527D01*
X172000000Y-95800000D02*
X172684527Y-96484527D01*
X171731618Y-99773452D02*
X171054968Y-101824191D01*
X170060294Y-103834956D02*
X170039812Y-103864891D01*
X168525680Y-105520662D02*
X166619184Y-107092099D01*
X170039812Y-103864891D02*
G75*
G02*
X168525673Y-105520653I-6602412J4517491D01*
G01*
X170060294Y-103834956D02*
G75*
G03*
X171054972Y-101824192I-6602394J4517456D01*
G01*
X166669184Y-72907901D02*
X168324885Y-74264778D01*
X169694476Y-75706789D02*
X169838233Y-75901888D01*
X170890817Y-77844893D02*
X171781618Y-80226548D01*
X168324885Y-74264778D02*
G75*
G02*
X169694475Y-75706790I-5070785J-6187522D01*
G01*
X170890817Y-77844893D02*
G75*
G03*
X169838228Y-75901892I-7493017J-2802607D01*
G01*
X137120644Y-84319039D02*
X140281833Y-79852613D01*
X135973678Y-86586639D02*
X136479356Y-86080961D01*
X135700000Y-86700000D02*
G75*
G03*
X135973670Y-86586631I0J387000D01*
G01*
X141600000Y-101470780D02*
X141600000Y-102900000D01*
X141668167Y-101402613D02*
X141600000Y-101470780D01*
X137120644Y-95680962D02*
X140231833Y-100197387D01*
X164500000Y-93500000D02*
X164477167Y-93522833D01*
X164477167Y-93522833D02*
G75*
G02*
X163520644Y-93919066I-956567J956533D01*
G01*
X159718167Y-100097387D02*
X162879356Y-95680962D01*
X158700000Y-80800000D02*
X160475735Y-82575735D01*
X158281833Y-78697387D02*
X158281833Y-79790456D01*
X160475735Y-82575735D02*
G75*
G02*
X160900008Y-83600000I-1024235J-1024265D01*
G01*
X158281833Y-79790456D02*
G75*
G03*
X158699987Y-80800013I1427667J-44D01*
G01*
X162879356Y-84319039D02*
X159718167Y-79902613D01*
X135712484Y-79525485D02*
X132836076Y-82401892D01*
X136980954Y-76463126D02*
G75*
G02*
X135712476Y-79525477I-4330854J26D01*
G01*
X135664370Y-100420428D02*
X132832655Y-97588712D01*
X136973293Y-103580446D02*
G75*
G03*
X135664384Y-100420414I-4468893J46D01*
G01*
X164287517Y-100474515D02*
X167163924Y-97598108D01*
X163019046Y-103536875D02*
G75*
G02*
X164287525Y-100474523I4330854J-25D01*
G01*
D66*
X147910000Y-77700000D02*
X148332269Y-78122269D01*
X149117157Y-81382842D02*
X148800000Y-81700000D01*
X148000000Y-83400000D02*
X148000000Y-86792894D01*
X148800000Y-81700000D02*
X148636397Y-81863603D01*
X148000000Y-86792894D02*
G75*
G03*
X148499998Y-88000002I1707100J-6D01*
G01*
X148636397Y-81863603D02*
G75*
G03*
X148000002Y-83400000I1536403J-1536397D01*
G01*
X149400000Y-80700000D02*
G75*
G02*
X149117161Y-81382846I-965700J0D01*
G01*
X148332269Y-78122269D02*
G75*
G02*
X149399989Y-80700000I-2577769J-2577731D01*
G01*
X150635000Y-74300000D02*
X150635000Y-74235000D01*
X147365807Y-73000000D02*
X149400000Y-73000000D01*
X145700000Y-73690000D02*
G75*
G02*
X147365807Y-73000003I1665800J-1665800D01*
G01*
X150635000Y-74235000D02*
G75*
G03*
X149400000Y-73000000I-1235000J0D01*
G01*
D65*
X164214919Y-79508862D02*
X167117345Y-82411288D01*
X162976707Y-76519554D02*
G75*
G03*
X164214902Y-79508879I4227493J-46D01*
G01*
G04 #@! TA.AperFunction,Conductor*
G36*
X136696188Y-69018907D02*
G01*
X136713818Y-69035345D01*
X137886625Y-70432465D01*
X138863649Y-71596357D01*
X138868829Y-71604891D01*
X138878140Y-71614202D01*
X138883959Y-71620552D01*
X138887624Y-71624918D01*
X138888873Y-71625500D01*
X138889438Y-71625500D01*
X138894588Y-71625500D01*
X138903195Y-71625875D01*
X138908305Y-71626321D01*
X138908305Y-71626320D01*
X138916296Y-71627018D01*
X138926154Y-71625500D01*
X161073839Y-71625500D01*
X161083703Y-71627019D01*
X161091694Y-71626321D01*
X161091695Y-71626322D01*
X161096816Y-71625874D01*
X161105425Y-71625500D01*
X161111124Y-71625500D01*
X161112376Y-71624915D01*
X161112736Y-71624485D01*
X161112740Y-71624485D01*
X161116061Y-71620527D01*
X161121859Y-71614202D01*
X161125500Y-71610562D01*
X161125500Y-71610559D01*
X161131169Y-71604891D01*
X161136345Y-71596364D01*
X163286178Y-69035348D01*
X163338071Y-69002936D01*
X163362002Y-69000000D01*
X163472125Y-69000000D01*
X163526760Y-69016441D01*
X163907675Y-69268518D01*
X163945768Y-69316399D01*
X163948442Y-69377526D01*
X163914675Y-69428550D01*
X163875617Y-69447468D01*
X163740734Y-69479060D01*
X163740726Y-69479063D01*
X163614522Y-69550597D01*
X163570945Y-69592478D01*
X162866133Y-70432441D01*
X162866123Y-70432455D01*
X162832451Y-70482630D01*
X162832449Y-70482635D01*
X162783915Y-70619346D01*
X162775862Y-70764196D01*
X162808944Y-70905437D01*
X162808947Y-70905445D01*
X162880481Y-71031649D01*
X162880483Y-71031652D01*
X162922356Y-71075220D01*
X162922362Y-71075226D01*
X163080179Y-71207650D01*
X163112602Y-71259538D01*
X163108334Y-71320574D01*
X163100369Y-71336159D01*
X163015918Y-71470561D01*
X163015918Y-71470562D01*
X162959764Y-71631039D01*
X162959761Y-71631051D01*
X162940726Y-71799995D01*
X162940726Y-71800004D01*
X162959761Y-71968948D01*
X162959764Y-71968960D01*
X163015918Y-72129437D01*
X163015918Y-72129438D01*
X163104025Y-72269659D01*
X163106376Y-72273400D01*
X163226600Y-72393624D01*
X163226602Y-72393625D01*
X163226603Y-72393626D01*
X163366719Y-72481667D01*
X163370563Y-72484082D01*
X163398936Y-72494010D01*
X163531039Y-72540235D01*
X163531043Y-72540236D01*
X163531046Y-72540237D01*
X163531047Y-72540237D01*
X163531051Y-72540238D01*
X163699996Y-72559274D01*
X163700000Y-72559274D01*
X163700004Y-72559274D01*
X163868948Y-72540238D01*
X163868950Y-72540237D01*
X163868954Y-72540237D01*
X164029437Y-72484082D01*
X164029443Y-72484077D01*
X164034453Y-72481667D01*
X164035812Y-72484490D01*
X164082780Y-72471988D01*
X164139865Y-72494010D01*
X164163560Y-72522024D01*
X164184675Y-72559274D01*
X164210656Y-72605111D01*
X164210657Y-72605112D01*
X164250453Y-72646518D01*
X164250456Y-72646521D01*
X164377753Y-72753336D01*
X164649176Y-72981087D01*
X164665444Y-72994737D01*
X164713139Y-73026743D01*
X164843077Y-73072873D01*
X164980748Y-73080525D01*
X165114998Y-73049083D01*
X165234952Y-72981090D01*
X165272937Y-72944583D01*
X165276359Y-72941294D01*
X165276359Y-72941292D01*
X165276364Y-72941289D01*
X165282963Y-72933423D01*
X165334845Y-72900997D01*
X165395881Y-72905259D01*
X165442756Y-72944583D01*
X165457653Y-73002544D01*
X165457019Y-73013954D01*
X165490100Y-73155194D01*
X165490103Y-73155202D01*
X165558204Y-73275349D01*
X165561639Y-73281409D01*
X165601808Y-73323204D01*
X165603518Y-73324983D01*
X166443481Y-74029795D01*
X166443484Y-74029797D01*
X166443491Y-74029803D01*
X166493673Y-74063479D01*
X166630386Y-74112013D01*
X166630385Y-74112013D01*
X166702810Y-74116039D01*
X166775235Y-74120066D01*
X166775235Y-74120065D01*
X166775236Y-74120066D01*
X166916477Y-74086984D01*
X166916479Y-74086983D01*
X166916484Y-74086982D01*
X167042692Y-74015446D01*
X167063098Y-73995833D01*
X167118151Y-73969142D01*
X167178382Y-73979909D01*
X167194449Y-73990638D01*
X167584468Y-74310265D01*
X167953733Y-74612884D01*
X168003890Y-74653989D01*
X168006244Y-74655980D01*
X168354567Y-74960058D01*
X168359063Y-74964235D01*
X168686672Y-75288325D01*
X168690910Y-75292787D01*
X168997687Y-75636629D01*
X169001648Y-75641357D01*
X169287410Y-76004897D01*
X169289276Y-76007349D01*
X169301540Y-76023992D01*
X169301541Y-76023995D01*
X169301542Y-76023995D01*
X169421533Y-76186840D01*
X169421534Y-76186841D01*
X169431262Y-76200044D01*
X169432857Y-76202273D01*
X169667547Y-76539989D01*
X169670552Y-76544579D01*
X169885459Y-76893613D01*
X169888204Y-76898362D01*
X170083434Y-77258742D01*
X170085913Y-77263637D01*
X170260883Y-77634283D01*
X170263087Y-77639307D01*
X170417704Y-78020180D01*
X170418698Y-78022730D01*
X170427401Y-78045996D01*
X170427402Y-78046001D01*
X170427403Y-78046001D01*
X170922867Y-79370681D01*
X170925544Y-79431808D01*
X170891780Y-79482834D01*
X170873759Y-79494236D01*
X170868617Y-79496759D01*
X170868614Y-79496761D01*
X170758227Y-79590890D01*
X170758224Y-79590893D01*
X170678829Y-79712302D01*
X170678826Y-79712309D01*
X170636852Y-79851177D01*
X170635702Y-79996243D01*
X170650180Y-80054908D01*
X171025213Y-81085300D01*
X171025214Y-81085303D01*
X171051832Y-81139552D01*
X171145960Y-81249938D01*
X171145963Y-81249941D01*
X171267372Y-81329336D01*
X171267375Y-81329337D01*
X171267378Y-81329339D01*
X171270138Y-81330173D01*
X171278307Y-81332643D01*
X171328538Y-81367578D01*
X171348641Y-81425367D01*
X171330938Y-81483935D01*
X171283524Y-81520437D01*
X171273872Y-81523949D01*
X171222301Y-81549256D01*
X171117391Y-81638713D01*
X171117385Y-81638720D01*
X171041923Y-81754121D01*
X171002028Y-81886103D01*
X171002028Y-81886104D01*
X171000936Y-82023984D01*
X171014694Y-82079732D01*
X171014696Y-82079736D01*
X171014699Y-82079748D01*
X171185260Y-82548364D01*
X171199980Y-82588806D01*
X171225285Y-82640375D01*
X171314742Y-82745285D01*
X171314744Y-82745287D01*
X171314747Y-82745290D01*
X171430147Y-82820751D01*
X171430150Y-82820753D01*
X171562132Y-82860648D01*
X171563207Y-82860656D01*
X171700012Y-82861741D01*
X171755777Y-82847978D01*
X171765429Y-82844464D01*
X171826574Y-82842327D01*
X171877300Y-82876539D01*
X171898230Y-82934034D01*
X171882149Y-82991673D01*
X171875899Y-83001231D01*
X171875897Y-83001234D01*
X171833923Y-83140102D01*
X171833923Y-83140103D01*
X171833346Y-83212840D01*
X171813977Y-83270879D01*
X171764193Y-83306449D01*
X171758983Y-83307940D01*
X169023193Y-84010782D01*
X168962128Y-84006949D01*
X168914978Y-83967955D01*
X168905529Y-83948756D01*
X168901634Y-83938054D01*
X168754559Y-83533968D01*
X168715295Y-83469260D01*
X168633645Y-83409393D01*
X168535300Y-83385327D01*
X168535299Y-83385327D01*
X168535298Y-83385327D01*
X168460494Y-83396840D01*
X168460491Y-83396841D01*
X167554480Y-83726603D01*
X166721936Y-84029625D01*
X166721934Y-84029625D01*
X166721934Y-84029626D01*
X166657228Y-84068888D01*
X166597361Y-84150538D01*
X166573295Y-84248884D01*
X166573295Y-84248885D01*
X166584808Y-84323689D01*
X166584809Y-84323692D01*
X166664529Y-84542723D01*
X166666664Y-84603872D01*
X166632449Y-84654596D01*
X166598835Y-84671734D01*
X164287740Y-85335678D01*
X164226590Y-85333573D01*
X164205254Y-85320918D01*
X164204585Y-85321942D01*
X164078746Y-85239653D01*
X163985153Y-85211363D01*
X163941599Y-85198198D01*
X163941598Y-85198197D01*
X163799465Y-85197070D01*
X163798329Y-85197061D01*
X163798328Y-85197061D01*
X163740392Y-85211359D01*
X162793343Y-85556058D01*
X162793340Y-85556059D01*
X162739767Y-85582345D01*
X162739764Y-85582347D01*
X162630745Y-85675309D01*
X162552330Y-85795222D01*
X162552330Y-85795223D01*
X162510874Y-85932371D01*
X162509739Y-86075640D01*
X162524037Y-86133576D01*
X162723377Y-86681257D01*
X162749665Y-86734833D01*
X162749666Y-86734834D01*
X162839978Y-86840747D01*
X162842629Y-86843855D01*
X162962542Y-86922269D01*
X163099689Y-86963724D01*
X163242959Y-86964861D01*
X163300903Y-86950560D01*
X164247941Y-86605865D01*
X164301523Y-86579575D01*
X164410543Y-86486612D01*
X164420488Y-86471405D01*
X164462999Y-86406395D01*
X164488958Y-86366699D01*
X164488960Y-86366689D01*
X164490907Y-86362517D01*
X164532633Y-86317766D01*
X164553291Y-86309202D01*
X166957979Y-85618371D01*
X167019126Y-85620476D01*
X167067359Y-85658121D01*
X167078341Y-85679662D01*
X167217590Y-86062242D01*
X167217592Y-86062246D01*
X167217593Y-86062248D01*
X167225719Y-86075640D01*
X167250697Y-86116805D01*
X167256857Y-86126956D01*
X167338507Y-86186823D01*
X167436852Y-86210889D01*
X167511660Y-86199375D01*
X169250216Y-85566591D01*
X169314924Y-85527327D01*
X169374791Y-85445677D01*
X169398857Y-85347332D01*
X169387343Y-85272524D01*
X169320321Y-85088386D01*
X169318186Y-85027239D01*
X169352400Y-84976514D01*
X169388713Y-84958642D01*
X172087550Y-84265294D01*
X172148613Y-84269127D01*
X172195763Y-84308121D01*
X172205211Y-84327319D01*
X172222280Y-84374214D01*
X172222285Y-84374228D01*
X172248903Y-84428477D01*
X172343031Y-84538863D01*
X172343034Y-84538866D01*
X172464443Y-84618261D01*
X172464447Y-84618262D01*
X172464449Y-84618264D01*
X172603317Y-84660238D01*
X172748384Y-84661389D01*
X172807057Y-84646908D01*
X173837438Y-84271879D01*
X173891693Y-84245259D01*
X174002081Y-84151129D01*
X174072090Y-84044071D01*
X174119762Y-84005718D01*
X174180873Y-84002710D01*
X174232081Y-84036197D01*
X174251283Y-84075449D01*
X174406073Y-84729325D01*
X174406901Y-84733163D01*
X174577140Y-85605281D01*
X174595909Y-85701430D01*
X174596584Y-85705294D01*
X174597923Y-85713970D01*
X174747039Y-86680295D01*
X174747561Y-86684187D01*
X174859230Y-87664392D01*
X174859597Y-87668302D01*
X174932304Y-88652174D01*
X174932515Y-88656095D01*
X174966143Y-89642043D01*
X174966199Y-89645970D01*
X174960697Y-90632475D01*
X174960598Y-90636401D01*
X174915972Y-91621964D01*
X174915716Y-91625883D01*
X174832044Y-92608835D01*
X174831634Y-92612741D01*
X174709034Y-93591669D01*
X174708468Y-93595555D01*
X174547152Y-94568772D01*
X174546434Y-94572633D01*
X174346632Y-95538766D01*
X174345760Y-95542595D01*
X174232378Y-95998791D01*
X174199993Y-96050703D01*
X174143280Y-96073666D01*
X174083901Y-96058908D01*
X174044537Y-96012066D01*
X174041537Y-96003560D01*
X174031480Y-95970287D01*
X174031478Y-95970285D01*
X174031477Y-95970281D01*
X173952082Y-95848872D01*
X173952079Y-95848869D01*
X173891585Y-95797285D01*
X173841693Y-95754741D01*
X173841691Y-95754740D01*
X173841690Y-95754739D01*
X173787443Y-95728121D01*
X173298057Y-95550000D01*
X172757058Y-95353093D01*
X172757052Y-95353091D01*
X172757049Y-95353090D01*
X172698386Y-95338611D01*
X172698385Y-95338610D01*
X172647828Y-95339011D01*
X172589490Y-95320565D01*
X172577047Y-95310023D01*
X172473400Y-95206376D01*
X172473397Y-95206374D01*
X172473396Y-95206373D01*
X172329438Y-95115918D01*
X172168960Y-95059764D01*
X172168948Y-95059761D01*
X172000004Y-95040726D01*
X171999996Y-95040726D01*
X171831051Y-95059761D01*
X171831039Y-95059764D01*
X171670562Y-95115918D01*
X171670561Y-95115918D01*
X171526603Y-95206373D01*
X171406373Y-95326603D01*
X171315918Y-95470561D01*
X171315918Y-95470562D01*
X171259764Y-95631039D01*
X171259761Y-95631051D01*
X171240726Y-95799995D01*
X171240726Y-95800004D01*
X171259761Y-95968948D01*
X171259764Y-95968960D01*
X171315918Y-96129437D01*
X171315918Y-96129438D01*
X171406373Y-96273396D01*
X171406376Y-96273400D01*
X171526600Y-96393624D01*
X171526602Y-96393625D01*
X171526603Y-96393626D01*
X171653764Y-96473527D01*
X171670563Y-96484082D01*
X171721479Y-96501898D01*
X171743881Y-96509737D01*
X171792561Y-96546802D01*
X171810158Y-96605402D01*
X171804214Y-96637037D01*
X171797253Y-96656162D01*
X171782773Y-96714829D01*
X171783923Y-96859897D01*
X171825897Y-96998765D01*
X171825900Y-96998772D01*
X171832147Y-97008324D01*
X171848171Y-97067374D01*
X171826426Y-97124564D01*
X171775218Y-97158052D01*
X171715436Y-97155538D01*
X171705782Y-97152025D01*
X171705777Y-97152023D01*
X171705773Y-97152022D01*
X171705761Y-97152018D01*
X171650013Y-97138260D01*
X171650012Y-97138260D01*
X171648928Y-97138268D01*
X171512133Y-97139352D01*
X171512132Y-97139352D01*
X171380150Y-97179247D01*
X171264749Y-97254709D01*
X171264742Y-97254715D01*
X171175285Y-97359625D01*
X171149980Y-97411194D01*
X171112641Y-97513784D01*
X170964699Y-97920253D01*
X170964697Y-97920258D01*
X170964696Y-97920263D01*
X170964694Y-97920268D01*
X170950936Y-97976016D01*
X170952028Y-98113896D01*
X170952028Y-98113897D01*
X170991923Y-98245879D01*
X171008064Y-98270562D01*
X171067387Y-98361283D01*
X171067389Y-98361284D01*
X171067391Y-98361287D01*
X171172301Y-98450744D01*
X171172304Y-98450745D01*
X171172306Y-98450747D01*
X171223871Y-98476050D01*
X171223874Y-98476051D01*
X171223876Y-98476052D01*
X171233519Y-98479562D01*
X171281734Y-98517230D01*
X171298601Y-98576045D01*
X171277676Y-98633541D01*
X171228307Y-98667357D01*
X171217381Y-98670659D01*
X171217372Y-98670663D01*
X171095963Y-98750058D01*
X171095960Y-98750061D01*
X171001830Y-98860450D01*
X170975212Y-98914697D01*
X170742704Y-99553512D01*
X170617236Y-99898235D01*
X170600183Y-99945087D01*
X170600181Y-99945091D01*
X170585702Y-100003754D01*
X170586852Y-100148822D01*
X170628826Y-100287690D01*
X170628829Y-100287697D01*
X170708224Y-100409106D01*
X170708226Y-100409108D01*
X170818614Y-100503238D01*
X170862497Y-100524770D01*
X170906409Y-100567376D01*
X170916891Y-100627657D01*
X170912902Y-100644667D01*
X170576315Y-101664773D01*
X170575406Y-101667400D01*
X170568789Y-101685709D01*
X170433470Y-102060085D01*
X170431430Y-102065268D01*
X170268183Y-102448058D01*
X170265854Y-102453118D01*
X170081349Y-102826099D01*
X170078740Y-102831020D01*
X169873546Y-103193041D01*
X169870665Y-103197807D01*
X169644581Y-103549045D01*
X169643042Y-103551364D01*
X169624236Y-103578851D01*
X169622629Y-103581130D01*
X169377213Y-103919004D01*
X169373814Y-103923417D01*
X169110656Y-104245881D01*
X169107018Y-104250091D01*
X169015662Y-104349992D01*
X168826158Y-104557220D01*
X168822285Y-104561223D01*
X168524568Y-104852095D01*
X168520481Y-104855868D01*
X168469908Y-104900001D01*
X168205522Y-105130713D01*
X168203399Y-105132513D01*
X168153547Y-105173605D01*
X168153546Y-105173606D01*
X167142424Y-106007026D01*
X167085495Y-106029448D01*
X167026259Y-106014125D01*
X167010853Y-106002008D01*
X166992696Y-105984556D01*
X166992691Y-105984553D01*
X166866485Y-105913018D01*
X166866477Y-105913015D01*
X166725235Y-105879933D01*
X166580386Y-105887986D01*
X166443675Y-105936520D01*
X166443666Y-105936524D01*
X166393505Y-105970187D01*
X166393482Y-105970203D01*
X165553520Y-106675017D01*
X165511638Y-106718591D01*
X165440103Y-106844797D01*
X165440100Y-106844805D01*
X165407019Y-106986045D01*
X165407653Y-106997455D01*
X165392002Y-107056604D01*
X165344572Y-107095258D01*
X165283481Y-107098651D01*
X165232965Y-107066578D01*
X165226364Y-107058711D01*
X165226361Y-107058708D01*
X165226358Y-107058704D01*
X165184955Y-107018912D01*
X165184952Y-107018910D01*
X165064998Y-106950917D01*
X165064997Y-106950916D01*
X164981697Y-106931407D01*
X164930748Y-106919475D01*
X164930746Y-106919475D01*
X164793080Y-106927126D01*
X164793073Y-106927128D01*
X164663139Y-106973256D01*
X164663138Y-106973257D01*
X164615439Y-107005266D01*
X164200454Y-107353480D01*
X164200453Y-107353481D01*
X164160657Y-107394887D01*
X164160657Y-107394888D01*
X164092662Y-107514844D01*
X164092661Y-107514845D01*
X164061220Y-107649096D01*
X164068871Y-107786762D01*
X164068873Y-107786769D01*
X164115001Y-107916703D01*
X164115002Y-107916704D01*
X164147010Y-107964403D01*
X164153610Y-107972268D01*
X164176530Y-108028999D01*
X164161727Y-108088366D01*
X164114856Y-108127695D01*
X164055195Y-108132294D01*
X164044080Y-108129690D01*
X163899231Y-108137743D01*
X163829414Y-108162529D01*
X163768251Y-108164178D01*
X163717799Y-108129562D01*
X163714691Y-108125285D01*
X162168975Y-105874049D01*
X162151624Y-105815375D01*
X162172075Y-105757709D01*
X162186948Y-105742177D01*
X162524032Y-105459332D01*
X162571409Y-105400304D01*
X162571410Y-105400300D01*
X162571411Y-105400299D01*
X162599739Y-105303107D01*
X162599739Y-105303105D01*
X162599740Y-105303102D01*
X162588718Y-105202457D01*
X162588717Y-105202455D01*
X162588717Y-105202454D01*
X162552314Y-105136100D01*
X162552314Y-105136099D01*
X161898907Y-104357401D01*
X161363070Y-103718816D01*
X161304042Y-103671439D01*
X161304041Y-103671438D01*
X161304037Y-103671436D01*
X161206843Y-103643108D01*
X161206840Y-103643108D01*
X161156517Y-103648619D01*
X161106192Y-103654130D01*
X161039838Y-103690533D01*
X160864830Y-103837381D01*
X160808100Y-103860301D01*
X160748732Y-103845498D01*
X160720925Y-103819487D01*
X160516913Y-103536874D01*
X161859600Y-103536874D01*
X161879342Y-103749922D01*
X161937895Y-103955714D01*
X162033265Y-104147244D01*
X162162205Y-104317988D01*
X162320324Y-104462132D01*
X162502236Y-104574767D01*
X162701749Y-104652059D01*
X162912066Y-104691374D01*
X163126026Y-104691374D01*
X163336343Y-104652059D01*
X163535856Y-104574767D01*
X163717768Y-104462132D01*
X163875887Y-104317988D01*
X164004827Y-104147244D01*
X164100197Y-103955714D01*
X164158750Y-103749922D01*
X164178492Y-103536874D01*
X164158750Y-103323826D01*
X164100197Y-103118034D01*
X164004827Y-102926504D01*
X163875887Y-102755760D01*
X163717768Y-102611616D01*
X163712642Y-102608442D01*
X163673121Y-102561734D01*
X163668602Y-102500716D01*
X163670334Y-102494524D01*
X163753010Y-102232313D01*
X163755962Y-102224204D01*
X163880403Y-101923777D01*
X163884038Y-101915983D01*
X164034190Y-101627545D01*
X164038497Y-101620084D01*
X164213226Y-101345817D01*
X164218165Y-101338765D01*
X164416126Y-101080776D01*
X164421646Y-101074197D01*
X164642982Y-100832652D01*
X164645938Y-100829563D01*
X166741664Y-98733837D01*
X166796179Y-98706062D01*
X166845525Y-98710812D01*
X167638340Y-98999373D01*
X167638345Y-98999373D01*
X167638346Y-98999374D01*
X167713145Y-99010889D01*
X167713147Y-99010889D01*
X167713147Y-99010888D01*
X167713148Y-99010889D01*
X167811493Y-98986823D01*
X167893143Y-98926956D01*
X167932408Y-98862249D01*
X168565189Y-97123692D01*
X168576705Y-97048884D01*
X168552639Y-96950539D01*
X168492772Y-96868889D01*
X168492771Y-96868888D01*
X168428065Y-96829624D01*
X168136136Y-96723371D01*
X166689508Y-96196843D01*
X166689505Y-96196842D01*
X166689501Y-96196841D01*
X166614702Y-96185326D01*
X166614700Y-96185326D01*
X166516354Y-96209393D01*
X166434704Y-96269260D01*
X166395440Y-96333966D01*
X166091196Y-97169872D01*
X165772150Y-98046449D01*
X165762657Y-98072530D01*
X165751142Y-98147329D01*
X165751142Y-98147332D01*
X165767403Y-98213779D01*
X165762869Y-98274796D01*
X165741244Y-98307315D01*
X163879502Y-100169059D01*
X163879404Y-100169170D01*
X163796448Y-100252127D01*
X163796441Y-100252134D01*
X163549699Y-100541032D01*
X163549686Y-100541048D01*
X163326340Y-100848458D01*
X163127829Y-101172399D01*
X163127828Y-101172401D01*
X162955322Y-101510962D01*
X162809919Y-101861991D01*
X162692498Y-102223371D01*
X162692495Y-102223382D01*
X162651168Y-102395518D01*
X162619199Y-102447687D01*
X162590669Y-102464720D01*
X162502238Y-102498980D01*
X162502237Y-102498980D01*
X162502236Y-102498981D01*
X162325449Y-102608443D01*
X162320321Y-102611618D01*
X162162206Y-102755759D01*
X162033266Y-102926502D01*
X162033261Y-102926511D01*
X161937896Y-103118031D01*
X161937895Y-103118034D01*
X161879342Y-103323826D01*
X161859600Y-103536874D01*
X160516913Y-103536874D01*
X159953043Y-102755759D01*
X159242871Y-101771975D01*
X159224142Y-101713729D01*
X159229453Y-101685815D01*
X159228999Y-101685709D01*
X159231888Y-101673374D01*
X159263286Y-101539313D01*
X159255334Y-101396258D01*
X159207401Y-101261240D01*
X159174144Y-101211681D01*
X159174143Y-101211680D01*
X159174137Y-101211671D01*
X158526330Y-100439647D01*
X158526328Y-100439645D01*
X158483301Y-100398291D01*
X158358660Y-100327641D01*
X158358657Y-100327640D01*
X158219156Y-100294967D01*
X158219153Y-100294967D01*
X158076102Y-100302919D01*
X157941083Y-100350852D01*
X157891522Y-100384109D01*
X157891519Y-100384112D01*
X157445059Y-100758738D01*
X157445057Y-100758740D01*
X157403703Y-100801767D01*
X157333053Y-100926408D01*
X157333051Y-100926412D01*
X157308287Y-101032153D01*
X157301683Y-101060352D01*
X157300380Y-101065914D01*
X157308331Y-101208964D01*
X157308333Y-101208971D01*
X157354407Y-101338754D01*
X157356265Y-101343986D01*
X157373557Y-101369755D01*
X157389519Y-101393541D01*
X157389528Y-101393554D01*
X158037335Y-102165578D01*
X158037337Y-102165580D01*
X158080364Y-102206934D01*
X158118668Y-102228646D01*
X158205009Y-102277586D01*
X158344510Y-102310259D01*
X158344515Y-102310258D01*
X158344748Y-102310279D01*
X158344932Y-102310357D01*
X158351404Y-102311873D01*
X158351141Y-102312992D01*
X158401071Y-102334185D01*
X158416393Y-102350958D01*
X159954390Y-104481507D01*
X159973120Y-104539755D01*
X159954034Y-104597888D01*
X159937756Y-104615290D01*
X159622554Y-104879777D01*
X159622550Y-104879782D01*
X159575178Y-104938804D01*
X159575174Y-104938810D01*
X159546846Y-105036002D01*
X159546846Y-105036006D01*
X159557868Y-105136655D01*
X159594271Y-105203009D01*
X159594271Y-105203010D01*
X160209764Y-105936524D01*
X160783516Y-106620294D01*
X160842544Y-106667671D01*
X160842545Y-106667671D01*
X160842548Y-106667673D01*
X160939742Y-106696001D01*
X160939742Y-106696000D01*
X160939746Y-106696002D01*
X161040391Y-106684980D01*
X161106747Y-106648576D01*
X161106748Y-106648576D01*
X161165793Y-106599030D01*
X161258021Y-106521641D01*
X161314751Y-106498721D01*
X161374119Y-106513523D01*
X161403270Y-106541442D01*
X162589820Y-108269574D01*
X162927646Y-108761596D01*
X162944997Y-108820270D01*
X162924546Y-108877936D01*
X162909669Y-108893470D01*
X162872365Y-108924772D01*
X162830482Y-108968348D01*
X162758947Y-109094554D01*
X162758944Y-109094562D01*
X162725862Y-109235803D01*
X162733915Y-109380653D01*
X162782449Y-109517364D01*
X162782453Y-109517373D01*
X162791917Y-109531475D01*
X162816125Y-109567548D01*
X162816129Y-109567553D01*
X162816132Y-109567557D01*
X163165851Y-109984334D01*
X163520948Y-110407522D01*
X163564520Y-110449401D01*
X163649262Y-110497434D01*
X163690728Y-110520937D01*
X163690729Y-110520937D01*
X163690734Y-110520939D01*
X163784894Y-110542993D01*
X163831977Y-110554021D01*
X163848976Y-110553075D01*
X163908124Y-110568721D01*
X163946782Y-110616147D01*
X163950180Y-110677238D01*
X163917022Y-110728659D01*
X163908183Y-110735085D01*
X163129280Y-111238135D01*
X163125939Y-111240200D01*
X162276660Y-111742125D01*
X162273240Y-111744056D01*
X161404681Y-112211926D01*
X161401187Y-112213719D01*
X160514796Y-112646753D01*
X160511234Y-112648407D01*
X159608340Y-113045958D01*
X159604716Y-113047469D01*
X158686759Y-113408900D01*
X158683077Y-113410266D01*
X157751514Y-113735004D01*
X157747780Y-113736223D01*
X156804084Y-114023756D01*
X156800306Y-114024826D01*
X156143597Y-114196772D01*
X156118521Y-114200000D01*
X143881474Y-114200000D01*
X143856399Y-114196772D01*
X143668808Y-114147655D01*
X143199693Y-114024827D01*
X143195915Y-114023757D01*
X142252219Y-113736224D01*
X142248485Y-113735005D01*
X141316922Y-113410267D01*
X141313240Y-113408901D01*
X140395283Y-113047470D01*
X140391659Y-113045959D01*
X139488774Y-112648413D01*
X139485221Y-112646763D01*
X138598791Y-112213709D01*
X138595316Y-112211926D01*
X138215186Y-112007160D01*
X137726759Y-111744057D01*
X137723339Y-111742126D01*
X136874059Y-111240201D01*
X136870718Y-111238136D01*
X136464426Y-110975735D01*
X144926000Y-110975735D01*
X144926000Y-111095999D01*
X144926001Y-111096000D01*
X145380000Y-111096000D01*
X145380000Y-111604000D01*
X144926001Y-111604000D01*
X144926000Y-111604001D01*
X144926000Y-111724264D01*
X144954976Y-111869933D01*
X144954976Y-111869935D01*
X145011811Y-112007148D01*
X145011817Y-112007160D01*
X145094330Y-112130646D01*
X145094333Y-112130650D01*
X145199349Y-112235666D01*
X145199353Y-112235669D01*
X145322848Y-112318186D01*
X145425999Y-112360913D01*
X145426000Y-112360912D01*
X145426000Y-111810060D01*
X145439940Y-111834205D01*
X145495795Y-111890060D01*
X145564204Y-111929556D01*
X145640504Y-111950000D01*
X145719496Y-111950000D01*
X145795796Y-111929556D01*
X145864205Y-111890060D01*
X145920060Y-111834205D01*
X145934000Y-111810060D01*
X145934000Y-112360913D01*
X146037151Y-112318186D01*
X146160646Y-112235669D01*
X146160650Y-112235666D01*
X146265666Y-112130650D01*
X146265669Y-112130646D01*
X146348182Y-112007160D01*
X146348188Y-112007148D01*
X146405023Y-111869935D01*
X146405023Y-111869933D01*
X146433999Y-111724264D01*
X146434000Y-111724260D01*
X146434000Y-111604001D01*
X146433999Y-111604000D01*
X145980000Y-111604000D01*
X145980000Y-111096000D01*
X146433999Y-111096000D01*
X146434000Y-111095999D01*
X146434000Y-110975739D01*
X146433999Y-110975735D01*
X153566000Y-110975735D01*
X153566000Y-111095999D01*
X153566001Y-111096000D01*
X154020000Y-111096000D01*
X154020000Y-111604000D01*
X153566001Y-111604000D01*
X153566000Y-111604001D01*
X153566000Y-111724264D01*
X153594976Y-111869933D01*
X153594976Y-111869935D01*
X153651811Y-112007148D01*
X153651817Y-112007160D01*
X153734330Y-112130646D01*
X153734333Y-112130650D01*
X153839349Y-112235666D01*
X153839353Y-112235669D01*
X153962848Y-112318186D01*
X154065999Y-112360913D01*
X154066000Y-112360912D01*
X154066000Y-111810060D01*
X154079940Y-111834205D01*
X154135795Y-111890060D01*
X154204204Y-111929556D01*
X154280504Y-111950000D01*
X154359496Y-111950000D01*
X154435796Y-111929556D01*
X154504205Y-111890060D01*
X154560060Y-111834205D01*
X154574000Y-111810060D01*
X154574000Y-112360913D01*
X154677151Y-112318186D01*
X154800646Y-112235669D01*
X154800650Y-112235666D01*
X154905666Y-112130650D01*
X154905669Y-112130646D01*
X154988182Y-112007160D01*
X154988188Y-112007148D01*
X155045023Y-111869935D01*
X155045023Y-111869933D01*
X155073999Y-111724264D01*
X155074000Y-111724260D01*
X155074000Y-111604001D01*
X155073999Y-111604000D01*
X154620000Y-111604000D01*
X154620000Y-111096000D01*
X155073999Y-111096000D01*
X155074000Y-111095999D01*
X155074000Y-110975739D01*
X155073999Y-110975735D01*
X155045023Y-110830066D01*
X155045023Y-110830064D01*
X154988188Y-110692851D01*
X154988182Y-110692839D01*
X154905669Y-110569353D01*
X154905666Y-110569349D01*
X154800650Y-110464333D01*
X154800646Y-110464330D01*
X154677152Y-110381813D01*
X154574000Y-110339085D01*
X154574000Y-110889939D01*
X154560060Y-110865795D01*
X154504205Y-110809940D01*
X154435796Y-110770444D01*
X154359496Y-110750000D01*
X154280504Y-110750000D01*
X154204204Y-110770444D01*
X154135795Y-110809940D01*
X154079940Y-110865795D01*
X154066000Y-110889939D01*
X154066000Y-110339086D01*
X154065999Y-110339085D01*
X153962847Y-110381813D01*
X153839353Y-110464330D01*
X153839349Y-110464333D01*
X153734333Y-110569349D01*
X153734330Y-110569353D01*
X153651817Y-110692839D01*
X153651811Y-110692851D01*
X153594976Y-110830064D01*
X153594976Y-110830066D01*
X153566000Y-110975735D01*
X146433999Y-110975735D01*
X146405023Y-110830066D01*
X146405023Y-110830064D01*
X146348188Y-110692851D01*
X146348182Y-110692839D01*
X146265669Y-110569353D01*
X146265666Y-110569349D01*
X146160650Y-110464333D01*
X146160646Y-110464330D01*
X146037152Y-110381813D01*
X145934000Y-110339085D01*
X145934000Y-110889939D01*
X145920060Y-110865795D01*
X145864205Y-110809940D01*
X145795796Y-110770444D01*
X145719496Y-110750000D01*
X145640504Y-110750000D01*
X145564204Y-110770444D01*
X145495795Y-110809940D01*
X145439940Y-110865795D01*
X145426000Y-110889939D01*
X145426000Y-110339086D01*
X145425999Y-110339085D01*
X145322847Y-110381813D01*
X145199353Y-110464330D01*
X145199349Y-110464333D01*
X145094333Y-110569349D01*
X145094330Y-110569353D01*
X145011817Y-110692839D01*
X145011811Y-110692851D01*
X144954976Y-110830064D01*
X144954976Y-110830066D01*
X144926000Y-110975735D01*
X136464426Y-110975735D01*
X136091813Y-110735085D01*
X136053189Y-110687632D01*
X136049833Y-110626539D01*
X136083028Y-110575141D01*
X136140095Y-110553071D01*
X136151007Y-110553074D01*
X136168023Y-110554021D01*
X136252193Y-110534306D01*
X136309265Y-110520939D01*
X136309267Y-110520938D01*
X136309272Y-110520937D01*
X136435480Y-110449401D01*
X136479052Y-110407524D01*
X136951035Y-109845034D01*
X137002923Y-109812612D01*
X137059571Y-109815227D01*
X137131039Y-109840235D01*
X137131043Y-109840236D01*
X137131046Y-109840237D01*
X137131047Y-109840237D01*
X137131051Y-109840238D01*
X137299996Y-109859274D01*
X137300000Y-109859274D01*
X137300004Y-109859274D01*
X137468948Y-109840238D01*
X137468950Y-109840237D01*
X137468954Y-109840237D01*
X137629437Y-109784082D01*
X137773400Y-109693624D01*
X137893624Y-109573400D01*
X137984082Y-109429437D01*
X138040237Y-109268954D01*
X138043972Y-109235805D01*
X138059274Y-109100004D01*
X138059274Y-109099995D01*
X138040238Y-108931051D01*
X138040235Y-108931039D01*
X138001475Y-108820270D01*
X137984082Y-108770563D01*
X137970933Y-108749637D01*
X137893626Y-108626603D01*
X137893625Y-108626602D01*
X137893624Y-108626600D01*
X137773400Y-108506376D01*
X137773397Y-108506374D01*
X137773396Y-108506373D01*
X137629438Y-108415918D01*
X137468960Y-108359764D01*
X137468948Y-108359761D01*
X137300004Y-108340726D01*
X137299996Y-108340726D01*
X137131051Y-108359761D01*
X137131039Y-108359764D01*
X136970562Y-108415918D01*
X136970561Y-108415918D01*
X136826603Y-108506373D01*
X136826597Y-108506377D01*
X136800593Y-108532382D01*
X136746076Y-108560158D01*
X136685644Y-108550586D01*
X136666957Y-108538217D01*
X136287665Y-108219954D01*
X136241554Y-108189010D01*
X136237485Y-108186279D01*
X136237480Y-108186277D01*
X136100769Y-108137743D01*
X136100770Y-108137743D01*
X135955921Y-108129691D01*
X135944803Y-108132295D01*
X135883834Y-108127155D01*
X135837530Y-108087160D01*
X135823578Y-108027587D01*
X135846392Y-107972264D01*
X135852992Y-107964399D01*
X135884998Y-107916704D01*
X135931128Y-107786766D01*
X135938780Y-107649095D01*
X135907338Y-107514845D01*
X135839345Y-107394891D01*
X135839342Y-107394887D01*
X135799546Y-107353481D01*
X135799545Y-107353480D01*
X135791387Y-107346635D01*
X135526657Y-107124500D01*
X135384560Y-107005266D01*
X135372920Y-106997455D01*
X135336861Y-106973257D01*
X135336860Y-106973256D01*
X135206926Y-106927128D01*
X135206925Y-106927127D01*
X135206923Y-106927127D01*
X135206922Y-106927126D01*
X135206919Y-106927126D01*
X135069253Y-106919475D01*
X135069252Y-106919475D01*
X135043777Y-106925441D01*
X134935002Y-106950916D01*
X134935001Y-106950917D01*
X134856517Y-106995404D01*
X134815048Y-107018910D01*
X134815047Y-107018910D01*
X134815045Y-107018912D01*
X134815044Y-107018912D01*
X134773638Y-107058708D01*
X134773637Y-107058709D01*
X134767032Y-107066581D01*
X134715144Y-107099004D01*
X134654108Y-107094736D01*
X134607237Y-107055407D01*
X134592347Y-106997449D01*
X134592981Y-106986048D01*
X134571919Y-106896124D01*
X134559899Y-106844805D01*
X134559896Y-106844797D01*
X134488362Y-106718593D01*
X134488361Y-106718591D01*
X134446484Y-106675019D01*
X134446482Y-106675017D01*
X134446481Y-106675016D01*
X134292410Y-106545735D01*
X144926000Y-106545735D01*
X144926000Y-106915999D01*
X144926001Y-106916000D01*
X145380000Y-106916000D01*
X145380000Y-107424000D01*
X144926001Y-107424000D01*
X144926000Y-107424001D01*
X144926000Y-107794264D01*
X144954976Y-107939933D01*
X144954976Y-107939935D01*
X145011811Y-108077148D01*
X145011817Y-108077160D01*
X145094330Y-108200646D01*
X145094333Y-108200650D01*
X145199349Y-108305666D01*
X145199353Y-108305669D01*
X145322848Y-108388186D01*
X145425999Y-108430913D01*
X145426000Y-108430912D01*
X145426000Y-107880060D01*
X145439940Y-107904205D01*
X145495795Y-107960060D01*
X145564204Y-107999556D01*
X145640504Y-108020000D01*
X145719496Y-108020000D01*
X145795796Y-107999556D01*
X145864205Y-107960060D01*
X145920060Y-107904205D01*
X145934000Y-107880060D01*
X145934000Y-108430913D01*
X146037151Y-108388186D01*
X146160646Y-108305669D01*
X146160650Y-108305666D01*
X146265666Y-108200650D01*
X146265669Y-108200646D01*
X146348182Y-108077160D01*
X146348188Y-108077148D01*
X146402962Y-107944911D01*
X146442698Y-107898385D01*
X146502193Y-107884101D01*
X146558721Y-107907515D01*
X146580162Y-107933296D01*
X146649481Y-108053360D01*
X146649483Y-108053362D01*
X146649485Y-108053365D01*
X146756635Y-108160515D01*
X146756637Y-108160516D01*
X146756639Y-108160518D01*
X146887861Y-108236279D01*
X146887859Y-108236279D01*
X146887863Y-108236280D01*
X146887865Y-108236281D01*
X147034234Y-108275500D01*
X147034236Y-108275500D01*
X147185764Y-108275500D01*
X147185766Y-108275500D01*
X147332135Y-108236281D01*
X147332137Y-108236279D01*
X147332139Y-108236279D01*
X147463360Y-108160518D01*
X147463360Y-108160517D01*
X147463365Y-108160515D01*
X147570515Y-108053365D01*
X147585398Y-108027587D01*
X147646279Y-107922139D01*
X147646279Y-107922137D01*
X147646281Y-107922135D01*
X147685500Y-107775766D01*
X147685500Y-107624234D01*
X152314500Y-107624234D01*
X152314500Y-107775766D01*
X152330585Y-107835796D01*
X152353720Y-107922139D01*
X152429481Y-108053360D01*
X152429483Y-108053362D01*
X152429485Y-108053365D01*
X152536635Y-108160515D01*
X152536637Y-108160516D01*
X152536639Y-108160518D01*
X152667861Y-108236279D01*
X152667859Y-108236279D01*
X152667863Y-108236280D01*
X152667865Y-108236281D01*
X152814234Y-108275500D01*
X152814236Y-108275500D01*
X152965764Y-108275500D01*
X152965766Y-108275500D01*
X153112135Y-108236281D01*
X153112137Y-108236279D01*
X153112139Y-108236279D01*
X153243360Y-108160518D01*
X153243360Y-108160517D01*
X153243365Y-108160515D01*
X153350515Y-108053365D01*
X153419838Y-107933293D01*
X153465306Y-107892355D01*
X153526156Y-107885959D01*
X153579144Y-107916552D01*
X153597037Y-107944910D01*
X153651813Y-108077151D01*
X153651817Y-108077160D01*
X153734330Y-108200646D01*
X153734333Y-108200650D01*
X153839349Y-108305666D01*
X153839353Y-108305669D01*
X153962848Y-108388186D01*
X154065999Y-108430913D01*
X154066000Y-108430912D01*
X154066000Y-107880060D01*
X154079940Y-107904205D01*
X154135795Y-107960060D01*
X154204204Y-107999556D01*
X154280504Y-108020000D01*
X154359496Y-108020000D01*
X154435796Y-107999556D01*
X154504205Y-107960060D01*
X154560060Y-107904205D01*
X154574000Y-107880060D01*
X154574000Y-108430913D01*
X154677151Y-108388186D01*
X154800646Y-108305669D01*
X154800650Y-108305666D01*
X154905666Y-108200650D01*
X154905669Y-108200646D01*
X154988182Y-108077160D01*
X154988188Y-108077148D01*
X155045023Y-107939935D01*
X155045023Y-107939933D01*
X155073999Y-107794264D01*
X155074000Y-107794260D01*
X155074000Y-107424001D01*
X155073999Y-107424000D01*
X154620000Y-107424000D01*
X154620000Y-106916000D01*
X155073999Y-106916000D01*
X155074000Y-106915999D01*
X155074000Y-106545739D01*
X155073999Y-106545735D01*
X155045023Y-106400066D01*
X155045023Y-106400064D01*
X154988188Y-106262851D01*
X154988182Y-106262839D01*
X154905669Y-106139353D01*
X154905666Y-106139349D01*
X154800650Y-106034333D01*
X154800646Y-106034330D01*
X154677152Y-105951813D01*
X154574000Y-105909085D01*
X154574000Y-106459939D01*
X154560060Y-106435795D01*
X154504205Y-106379940D01*
X154435796Y-106340444D01*
X154359496Y-106320000D01*
X154280504Y-106320000D01*
X154204204Y-106340444D01*
X154135795Y-106379940D01*
X154079940Y-106435795D01*
X154066000Y-106459939D01*
X154066000Y-105909086D01*
X154065999Y-105909085D01*
X153962847Y-105951813D01*
X153839353Y-106034330D01*
X153839349Y-106034333D01*
X153734333Y-106139349D01*
X153734330Y-106139353D01*
X153651817Y-106262839D01*
X153651811Y-106262851D01*
X153594976Y-106400064D01*
X153594976Y-106400066D01*
X153566000Y-106545735D01*
X153566000Y-106915999D01*
X153566001Y-106916000D01*
X154020000Y-106916000D01*
X154020000Y-107424000D01*
X153565999Y-107424000D01*
X153548935Y-107441064D01*
X153494418Y-107468841D01*
X153433986Y-107459269D01*
X153393196Y-107420561D01*
X153350515Y-107346635D01*
X153243365Y-107239485D01*
X153243362Y-107239483D01*
X153243360Y-107239481D01*
X153112138Y-107163720D01*
X153112140Y-107163720D01*
X153055347Y-107148503D01*
X152965766Y-107124500D01*
X152814234Y-107124500D01*
X152724652Y-107148503D01*
X152667860Y-107163720D01*
X152536639Y-107239481D01*
X152429481Y-107346639D01*
X152353720Y-107477860D01*
X152335711Y-107545074D01*
X152314500Y-107624234D01*
X147685500Y-107624234D01*
X147646281Y-107477865D01*
X147646279Y-107477862D01*
X147646279Y-107477860D01*
X147570518Y-107346639D01*
X147570516Y-107346637D01*
X147570515Y-107346635D01*
X147463365Y-107239485D01*
X147463362Y-107239483D01*
X147463360Y-107239481D01*
X147332138Y-107163720D01*
X147332140Y-107163720D01*
X147275347Y-107148503D01*
X147185766Y-107124500D01*
X147034234Y-107124500D01*
X146944652Y-107148503D01*
X146887860Y-107163720D01*
X146756639Y-107239481D01*
X146649483Y-107346637D01*
X146606803Y-107420561D01*
X146561333Y-107461501D01*
X146500483Y-107467896D01*
X146451063Y-107441064D01*
X146433999Y-107424000D01*
X145980000Y-107424000D01*
X145980000Y-106916000D01*
X146433999Y-106916000D01*
X146434000Y-106915999D01*
X146434000Y-106545739D01*
X146433999Y-106545735D01*
X146405023Y-106400066D01*
X146405023Y-106400064D01*
X146348188Y-106262851D01*
X146348182Y-106262839D01*
X146265669Y-106139353D01*
X146265666Y-106139349D01*
X146160650Y-106034333D01*
X146160646Y-106034330D01*
X146037152Y-105951813D01*
X145934000Y-105909085D01*
X145934000Y-106459939D01*
X145920060Y-106435795D01*
X145864205Y-106379940D01*
X145795796Y-106340444D01*
X145719496Y-106320000D01*
X145640504Y-106320000D01*
X145564204Y-106340444D01*
X145495795Y-106379940D01*
X145439940Y-106435795D01*
X145426000Y-106459939D01*
X145426000Y-105909086D01*
X145425999Y-105909085D01*
X145322847Y-105951813D01*
X145199353Y-106034330D01*
X145199349Y-106034333D01*
X145094333Y-106139349D01*
X145094330Y-106139353D01*
X145011817Y-106262839D01*
X145011811Y-106262851D01*
X144954976Y-106400064D01*
X144954976Y-106400066D01*
X144926000Y-106545735D01*
X134292410Y-106545735D01*
X133606518Y-105970204D01*
X133606513Y-105970200D01*
X133606509Y-105970197D01*
X133570796Y-105946231D01*
X133556329Y-105936522D01*
X133556324Y-105936520D01*
X133419613Y-105887986D01*
X133419614Y-105887986D01*
X133274763Y-105879933D01*
X133133522Y-105913015D01*
X133133514Y-105913018D01*
X133007307Y-105984553D01*
X132986035Y-106004998D01*
X132930978Y-106031688D01*
X132870748Y-106020919D01*
X132854767Y-106010259D01*
X131885456Y-105217654D01*
X131883353Y-105215886D01*
X131880164Y-105213127D01*
X137759600Y-105213127D01*
X137779342Y-105426175D01*
X137837895Y-105631967D01*
X137933265Y-105823497D01*
X138062205Y-105994241D01*
X138220324Y-106138385D01*
X138402236Y-106251020D01*
X138601749Y-106328312D01*
X138812066Y-106367627D01*
X139026026Y-106367627D01*
X139236343Y-106328312D01*
X139435856Y-106251020D01*
X139617768Y-106138385D01*
X139775887Y-105994241D01*
X139904827Y-105823497D01*
X140000197Y-105631967D01*
X140058750Y-105426175D01*
X140078492Y-105213127D01*
X140073013Y-105154000D01*
X146372079Y-105154000D01*
X146380427Y-105206706D01*
X146436369Y-105316498D01*
X146523501Y-105403630D01*
X146633295Y-105459573D01*
X146636000Y-105460001D01*
X146636000Y-105154001D01*
X146635999Y-105154000D01*
X146372079Y-105154000D01*
X140073013Y-105154000D01*
X140058750Y-105000079D01*
X140000197Y-104794287D01*
X139926359Y-104645999D01*
X146372079Y-104645999D01*
X146372079Y-104646000D01*
X146635999Y-104646000D01*
X146636000Y-104645999D01*
X146636000Y-104339998D01*
X147144000Y-104339998D01*
X147144000Y-105460000D01*
X147146703Y-105459573D01*
X147146704Y-105459573D01*
X147256498Y-105403630D01*
X147329643Y-105330486D01*
X147384160Y-105302709D01*
X147444592Y-105312280D01*
X147469647Y-105330483D01*
X147543204Y-105404040D01*
X147543206Y-105404041D01*
X147653131Y-105460051D01*
X147653133Y-105460051D01*
X147653138Y-105460054D01*
X147744347Y-105474500D01*
X148075652Y-105474499D01*
X148075653Y-105474499D01*
X148083993Y-105473177D01*
X148128188Y-105466178D01*
X148188618Y-105475749D01*
X148189656Y-105476285D01*
X148266207Y-105516463D01*
X148420529Y-105554500D01*
X148420532Y-105554500D01*
X148579468Y-105554500D01*
X148579471Y-105554500D01*
X148733793Y-105516463D01*
X148874529Y-105442599D01*
X148993498Y-105337201D01*
X149083787Y-105206395D01*
X149140149Y-105057782D01*
X149159307Y-104900000D01*
X149159307Y-104899998D01*
X150840693Y-104899998D01*
X150840693Y-104900001D01*
X150859850Y-105057780D01*
X150859853Y-105057789D01*
X150916210Y-105206390D01*
X150916212Y-105206393D01*
X150916213Y-105206395D01*
X150923985Y-105217654D01*
X151006502Y-105337201D01*
X151006502Y-105337202D01*
X151125464Y-105442593D01*
X151125471Y-105442599D01*
X151266207Y-105516463D01*
X151420529Y-105554500D01*
X151420532Y-105554500D01*
X151579468Y-105554500D01*
X151579471Y-105554500D01*
X151733793Y-105516463D01*
X151810316Y-105476299D01*
X151870626Y-105465999D01*
X151871811Y-105466179D01*
X151878278Y-105467203D01*
X151924347Y-105474500D01*
X152255652Y-105474499D01*
X152255654Y-105474499D01*
X152255655Y-105474498D01*
X152309324Y-105465999D01*
X152346857Y-105460055D01*
X152346857Y-105460054D01*
X152346862Y-105460054D01*
X152456796Y-105404040D01*
X152530351Y-105330484D01*
X152584866Y-105302709D01*
X152645298Y-105312280D01*
X152670357Y-105330486D01*
X152743501Y-105403630D01*
X152853295Y-105459573D01*
X152856000Y-105460001D01*
X152856000Y-105154001D01*
X153364000Y-105154001D01*
X153364000Y-105460001D01*
X153366703Y-105459573D01*
X153366704Y-105459573D01*
X153476498Y-105403630D01*
X153563630Y-105316498D01*
X153619572Y-105206706D01*
X153627920Y-105154000D01*
X153364001Y-105154000D01*
X153364000Y-105154001D01*
X152856000Y-105154001D01*
X152856000Y-104645999D01*
X153364000Y-104645999D01*
X153364001Y-104646000D01*
X153627921Y-104646000D01*
X153627920Y-104645999D01*
X153619572Y-104593293D01*
X153563630Y-104483501D01*
X153476498Y-104396369D01*
X153366705Y-104340427D01*
X153366706Y-104340427D01*
X153364000Y-104339998D01*
X153364000Y-104645999D01*
X152856000Y-104645999D01*
X152856000Y-104339998D01*
X152853293Y-104340427D01*
X152743501Y-104396369D01*
X152670357Y-104469514D01*
X152615840Y-104497291D01*
X152555408Y-104487720D01*
X152530352Y-104469516D01*
X152456796Y-104395960D01*
X152456793Y-104395958D01*
X152346868Y-104339948D01*
X152346863Y-104339946D01*
X152346862Y-104339946D01*
X152301257Y-104332723D01*
X152255654Y-104325500D01*
X151924348Y-104325500D01*
X151871808Y-104333821D01*
X151811376Y-104324247D01*
X151810317Y-104323699D01*
X151733794Y-104283537D01*
X151733791Y-104283536D01*
X151579473Y-104245500D01*
X151579471Y-104245500D01*
X151420529Y-104245500D01*
X151420526Y-104245500D01*
X151266208Y-104283536D01*
X151125475Y-104357398D01*
X151125464Y-104357406D01*
X151006502Y-104462797D01*
X151006502Y-104462798D01*
X150916212Y-104593606D01*
X150916210Y-104593609D01*
X150859853Y-104742210D01*
X150859850Y-104742219D01*
X150840693Y-104899998D01*
X149159307Y-104899998D01*
X149140149Y-104742218D01*
X149118201Y-104684347D01*
X149083789Y-104593609D01*
X149083787Y-104593606D01*
X149083787Y-104593605D01*
X148993498Y-104462799D01*
X148993497Y-104462798D01*
X148993497Y-104462797D01*
X148874535Y-104357406D01*
X148874533Y-104357404D01*
X148874529Y-104357401D01*
X148874525Y-104357399D01*
X148874524Y-104357398D01*
X148733791Y-104283536D01*
X148579473Y-104245500D01*
X148579471Y-104245500D01*
X148420529Y-104245500D01*
X148420526Y-104245500D01*
X148266210Y-104283535D01*
X148189682Y-104323700D01*
X148129370Y-104334000D01*
X148128188Y-104333820D01*
X148075656Y-104325500D01*
X147744345Y-104325500D01*
X147744342Y-104325501D01*
X147653142Y-104339944D01*
X147653138Y-104339945D01*
X147653138Y-104339946D01*
X147543204Y-104395960D01*
X147469648Y-104469515D01*
X147415134Y-104497291D01*
X147354702Y-104487720D01*
X147329643Y-104469514D01*
X147256498Y-104396369D01*
X147146705Y-104340427D01*
X147146706Y-104340427D01*
X147144000Y-104339998D01*
X146636000Y-104339998D01*
X146633293Y-104340427D01*
X146523501Y-104396369D01*
X146436369Y-104483501D01*
X146380427Y-104593293D01*
X146372079Y-104645999D01*
X139926359Y-104645999D01*
X139904827Y-104602757D01*
X139775887Y-104432013D01*
X139617768Y-104287869D01*
X139435856Y-104175234D01*
X139236343Y-104097942D01*
X139236342Y-104097941D01*
X139236340Y-104097941D01*
X139026026Y-104058627D01*
X138812066Y-104058627D01*
X138601751Y-104097941D01*
X138545224Y-104119840D01*
X138402236Y-104175234D01*
X138220324Y-104287869D01*
X138220321Y-104287871D01*
X138062206Y-104432012D01*
X138062205Y-104432013D01*
X138037555Y-104464655D01*
X137933266Y-104602755D01*
X137933261Y-104602764D01*
X137837896Y-104794284D01*
X137837895Y-104794287D01*
X137779342Y-105000079D01*
X137759600Y-105213127D01*
X131880164Y-105213127D01*
X131669843Y-105031181D01*
X131571799Y-104946364D01*
X131567769Y-104942676D01*
X131272674Y-104657273D01*
X131268832Y-104653345D01*
X131183598Y-104561223D01*
X130990024Y-104352007D01*
X130986425Y-104347894D01*
X130724742Y-104031524D01*
X130721361Y-104027197D01*
X130605567Y-103870223D01*
X130476994Y-103695924D01*
X130475401Y-103693702D01*
X130473196Y-103690533D01*
X130277191Y-103408775D01*
X130256203Y-103378604D01*
X130254452Y-103375998D01*
X129994580Y-102975546D01*
X129991303Y-102970123D01*
X129758499Y-102555195D01*
X129755565Y-102549545D01*
X129755171Y-102548724D01*
X129602119Y-102229415D01*
X129549942Y-102120560D01*
X129547376Y-102114733D01*
X129369738Y-101673374D01*
X129367556Y-101667406D01*
X129218128Y-101213925D01*
X129217190Y-101210916D01*
X129215459Y-101205033D01*
X129053720Y-100655304D01*
X129055434Y-100594144D01*
X129092771Y-100545671D01*
X129114837Y-100534332D01*
X129127130Y-100529858D01*
X129181385Y-100503238D01*
X129291773Y-100409108D01*
X129361214Y-100302920D01*
X129371169Y-100287697D01*
X129371169Y-100287695D01*
X129371172Y-100287692D01*
X129413146Y-100148824D01*
X129414297Y-100003757D01*
X129399816Y-99945084D01*
X129024787Y-98914703D01*
X128998167Y-98860448D01*
X128934045Y-98785251D01*
X128904038Y-98750061D01*
X128904035Y-98750058D01*
X128782626Y-98670663D01*
X128782617Y-98670659D01*
X128771692Y-98667357D01*
X128721461Y-98632421D01*
X128701359Y-98574632D01*
X128719063Y-98516064D01*
X128766483Y-98479561D01*
X128770988Y-98477920D01*
X128776129Y-98476050D01*
X128827694Y-98450747D01*
X128850799Y-98431046D01*
X128932608Y-98361287D01*
X128932607Y-98361287D01*
X128932613Y-98361283D01*
X129008075Y-98245882D01*
X129047971Y-98113897D01*
X129049064Y-97976018D01*
X129035301Y-97920253D01*
X128914631Y-97588712D01*
X131673210Y-97588712D01*
X131692952Y-97801760D01*
X131751505Y-98007552D01*
X131846875Y-98199082D01*
X131975815Y-98369826D01*
X132133934Y-98513970D01*
X132315846Y-98626605D01*
X132515359Y-98703897D01*
X132725676Y-98743212D01*
X132939636Y-98743212D01*
X133149953Y-98703897D01*
X133150627Y-98703635D01*
X133150932Y-98703618D01*
X133154359Y-98702644D01*
X133154578Y-98703415D01*
X133211714Y-98700232D01*
X133256411Y-98725939D01*
X135306093Y-100775621D01*
X135309080Y-100778742D01*
X135538370Y-101028969D01*
X135543921Y-101035585D01*
X135749197Y-101303106D01*
X135754151Y-101310181D01*
X135935331Y-101594579D01*
X135939649Y-101602058D01*
X136017501Y-101751612D01*
X136072741Y-101857728D01*
X136095354Y-101901166D01*
X136099001Y-101908989D01*
X136158227Y-102051972D01*
X136228045Y-102220530D01*
X136230999Y-102228646D01*
X136315584Y-102496925D01*
X136315050Y-102558108D01*
X136297004Y-102590330D01*
X135494276Y-103546986D01*
X135494274Y-103546989D01*
X135457869Y-103613344D01*
X135457868Y-103613345D01*
X135451506Y-103671439D01*
X135448824Y-103695936D01*
X135446846Y-103713994D01*
X135446846Y-103713998D01*
X135475175Y-103811191D01*
X135475177Y-103811195D01*
X135522552Y-103870223D01*
X135522554Y-103870225D01*
X135522557Y-103870228D01*
X136939833Y-105059462D01*
X136939837Y-105059465D01*
X136986207Y-105084905D01*
X137006191Y-105095869D01*
X137006192Y-105095870D01*
X137006193Y-105095870D01*
X137006195Y-105095871D01*
X137106840Y-105106893D01*
X137106843Y-105106892D01*
X137106845Y-105106892D01*
X137182070Y-105084966D01*
X137204042Y-105078562D01*
X137263070Y-105031187D01*
X138452312Y-103613902D01*
X138488718Y-103547544D01*
X138499740Y-103446899D01*
X138499739Y-103446895D01*
X138499739Y-103446893D01*
X138471410Y-103349700D01*
X138471409Y-103349699D01*
X138471409Y-103349697D01*
X138424034Y-103290669D01*
X138424030Y-103290666D01*
X138424028Y-103290663D01*
X137353932Y-102392748D01*
X137321509Y-102340860D01*
X137321303Y-102340020D01*
X137320692Y-102337476D01*
X137294751Y-102229415D01*
X137292783Y-102223359D01*
X137223250Y-102009354D01*
X137173985Y-101857728D01*
X137083515Y-101639311D01*
X140686714Y-101639311D01*
X140719385Y-101778813D01*
X140719387Y-101778817D01*
X140790038Y-101903459D01*
X140790039Y-101903460D01*
X140831391Y-101946485D01*
X140831392Y-101946486D01*
X141060136Y-102138425D01*
X141092559Y-102190313D01*
X141095500Y-102214263D01*
X141095500Y-102296468D01*
X141076593Y-102354659D01*
X141066504Y-102366471D01*
X141006377Y-102426598D01*
X141006373Y-102426603D01*
X140915918Y-102570561D01*
X140915918Y-102570562D01*
X140859764Y-102731039D01*
X140859761Y-102731051D01*
X140840726Y-102899995D01*
X140840726Y-102900004D01*
X140859761Y-103068948D01*
X140859764Y-103068960D01*
X140915918Y-103229437D01*
X140915918Y-103229438D01*
X140991482Y-103349697D01*
X141006376Y-103373400D01*
X141126600Y-103493624D01*
X141126602Y-103493625D01*
X141126603Y-103493626D01*
X141218492Y-103551364D01*
X141270563Y-103584082D01*
X141274050Y-103585302D01*
X141431039Y-103640235D01*
X141431043Y-103640236D01*
X141431046Y-103640237D01*
X141431047Y-103640237D01*
X141431051Y-103640238D01*
X141599996Y-103659274D01*
X141600000Y-103659274D01*
X141600004Y-103659274D01*
X141768948Y-103640238D01*
X141768950Y-103640237D01*
X141768954Y-103640237D01*
X141929437Y-103584082D01*
X142073400Y-103493624D01*
X142193624Y-103373400D01*
X142284082Y-103229437D01*
X142340237Y-103068954D01*
X142350432Y-102978475D01*
X142359274Y-102900004D01*
X142359274Y-102899995D01*
X142340238Y-102731051D01*
X142340235Y-102731039D01*
X142313601Y-102654925D01*
X142284082Y-102570563D01*
X142281995Y-102567242D01*
X142193626Y-102426603D01*
X142193622Y-102426598D01*
X142133496Y-102366471D01*
X142105719Y-102311954D01*
X142104500Y-102296468D01*
X142104500Y-102072990D01*
X142123407Y-102014799D01*
X142127662Y-102009354D01*
X142180415Y-101946486D01*
X142560477Y-101493545D01*
X142593735Y-101443986D01*
X142641668Y-101308968D01*
X142649620Y-101165913D01*
X142616948Y-101026412D01*
X142610984Y-101015891D01*
X142560263Y-100926408D01*
X142546297Y-100901769D01*
X142546296Y-100901768D01*
X142546295Y-100901766D01*
X142546294Y-100901765D01*
X142504942Y-100858740D01*
X142504941Y-100858739D01*
X142495869Y-100851127D01*
X142314515Y-100698953D01*
X142058485Y-100484118D01*
X142058480Y-100484114D01*
X142058476Y-100484111D01*
X142042800Y-100473591D01*
X142008916Y-100450852D01*
X141873897Y-100402919D01*
X141873898Y-100402919D01*
X141730846Y-100394967D01*
X141730845Y-100394967D01*
X141730844Y-100394967D01*
X141637843Y-100416749D01*
X141591342Y-100427640D01*
X141591339Y-100427641D01*
X141466701Y-100498289D01*
X141423670Y-100539646D01*
X141423660Y-100539656D01*
X140775864Y-101311671D01*
X140775848Y-101311693D01*
X140742601Y-101361237D01*
X140742596Y-101361246D01*
X140694667Y-101496254D01*
X140694665Y-101496261D01*
X140686714Y-101639311D01*
X137083515Y-101639311D01*
X137024429Y-101496663D01*
X136847004Y-101148444D01*
X136663173Y-100848458D01*
X136642804Y-100815218D01*
X136558334Y-100698955D01*
X136413091Y-100499044D01*
X136413082Y-100499033D01*
X136413077Y-100499027D01*
X136159289Y-100201878D01*
X136159282Y-100201871D01*
X136021105Y-100063693D01*
X135974140Y-100016727D01*
X135974140Y-100016728D01*
X133966276Y-98008863D01*
X133938499Y-97954346D01*
X133941060Y-97911766D01*
X133962237Y-97837337D01*
X133972360Y-97801760D01*
X133992102Y-97588712D01*
X133972360Y-97375664D01*
X133913807Y-97169872D01*
X133818437Y-96978342D01*
X133689497Y-96807598D01*
X133531378Y-96663454D01*
X133349466Y-96550819D01*
X133149953Y-96473527D01*
X133149952Y-96473526D01*
X133149950Y-96473526D01*
X132939636Y-96434212D01*
X132725676Y-96434212D01*
X132515361Y-96473526D01*
X132488116Y-96484081D01*
X132315846Y-96550819D01*
X132145711Y-96656162D01*
X132133931Y-96663456D01*
X131975816Y-96807597D01*
X131846876Y-96978340D01*
X131846871Y-96978349D01*
X131751506Y-97169869D01*
X131751505Y-97169872D01*
X131692952Y-97375664D01*
X131673210Y-97588712D01*
X128914631Y-97588712D01*
X128850020Y-97411195D01*
X128824717Y-97359630D01*
X128824715Y-97359628D01*
X128824714Y-97359625D01*
X128735257Y-97254715D01*
X128735254Y-97254713D01*
X128735253Y-97254711D01*
X128619852Y-97179249D01*
X128619849Y-97179247D01*
X128487867Y-97139352D01*
X128352137Y-97138277D01*
X128349988Y-97138260D01*
X128349987Y-97138260D01*
X128349986Y-97138260D01*
X128294238Y-97152018D01*
X128294214Y-97152025D01*
X128284560Y-97155539D01*
X128223412Y-97157670D01*
X128172690Y-97123451D01*
X128151768Y-97065954D01*
X128167853Y-97008322D01*
X128174102Y-96998767D01*
X128216076Y-96859899D01*
X128216698Y-96781407D01*
X128236066Y-96723371D01*
X128285849Y-96687800D01*
X128290552Y-96686440D01*
X130928368Y-95994918D01*
X130989448Y-95998451D01*
X131036789Y-96037213D01*
X131046499Y-96056822D01*
X131195438Y-96466026D01*
X131195440Y-96466030D01*
X131195441Y-96466032D01*
X131206393Y-96484081D01*
X131229565Y-96522270D01*
X131234705Y-96530740D01*
X131316355Y-96590607D01*
X131414700Y-96614673D01*
X131489508Y-96603159D01*
X133228064Y-95970375D01*
X133292772Y-95931111D01*
X133352639Y-95849461D01*
X133376705Y-95751116D01*
X133365191Y-95676308D01*
X133364948Y-95675641D01*
X136109739Y-95675641D01*
X136124037Y-95733577D01*
X136323377Y-96281258D01*
X136349665Y-96334834D01*
X136349666Y-96334835D01*
X136399797Y-96393626D01*
X136442629Y-96443856D01*
X136562542Y-96522270D01*
X136699689Y-96563725D01*
X136842959Y-96564862D01*
X136900903Y-96550561D01*
X136993783Y-96516754D01*
X137054929Y-96514619D01*
X137105654Y-96548833D01*
X137109170Y-96553622D01*
X139415966Y-99902333D01*
X139433407Y-99960980D01*
X139413045Y-100018678D01*
X139410277Y-100022130D01*
X139339533Y-100106441D01*
X139339518Y-100106461D01*
X139306267Y-100156011D01*
X139306262Y-100156020D01*
X139258333Y-100291028D01*
X139258331Y-100291035D01*
X139251768Y-100409109D01*
X139250380Y-100434087D01*
X139254307Y-100450853D01*
X139283051Y-100573587D01*
X139283053Y-100573591D01*
X139353704Y-100698233D01*
X139353705Y-100698234D01*
X139384426Y-100730198D01*
X139395060Y-100741262D01*
X139584754Y-100900434D01*
X139824624Y-101101709D01*
X139841524Y-101115889D01*
X139841536Y-101115897D01*
X139891083Y-101149147D01*
X140026102Y-101197080D01*
X140026101Y-101197080D01*
X140035048Y-101197577D01*
X140169156Y-101205033D01*
X140308657Y-101172360D01*
X140433300Y-101101709D01*
X140476332Y-101060352D01*
X141124143Y-100288319D01*
X141157401Y-100238760D01*
X141205334Y-100103742D01*
X141213286Y-99960687D01*
X141180614Y-99821186D01*
X141177542Y-99815767D01*
X141147294Y-99762402D01*
X141109963Y-99696543D01*
X141109962Y-99696542D01*
X141109961Y-99696540D01*
X141109960Y-99696539D01*
X141068608Y-99653514D01*
X141068607Y-99653513D01*
X140622151Y-99278892D01*
X140622146Y-99278888D01*
X140622142Y-99278885D01*
X140622129Y-99278876D01*
X140572582Y-99245626D01*
X140437563Y-99197693D01*
X140437564Y-99197693D01*
X140294510Y-99189741D01*
X140236127Y-99203414D01*
X140175158Y-99198274D01*
X140132026Y-99163184D01*
X139744067Y-98599995D01*
X142640726Y-98599995D01*
X142640726Y-98600004D01*
X142659761Y-98768948D01*
X142659764Y-98768960D01*
X142715918Y-98929437D01*
X142715918Y-98929438D01*
X142790250Y-99047736D01*
X142806376Y-99073400D01*
X142926600Y-99193624D01*
X142926602Y-99193625D01*
X142926603Y-99193626D01*
X143062277Y-99278876D01*
X143070563Y-99284082D01*
X143098150Y-99293735D01*
X143231039Y-99340235D01*
X143231043Y-99340236D01*
X143231046Y-99340237D01*
X143231047Y-99340237D01*
X143231051Y-99340238D01*
X143399996Y-99359274D01*
X143400000Y-99359274D01*
X143400004Y-99359274D01*
X143568948Y-99340238D01*
X143568950Y-99340237D01*
X143568954Y-99340237D01*
X143729437Y-99284082D01*
X143873400Y-99193624D01*
X143993624Y-99073400D01*
X144084082Y-98929437D01*
X144131566Y-98793735D01*
X146350768Y-98793735D01*
X146369655Y-98997557D01*
X146399014Y-99100742D01*
X146425672Y-99194436D01*
X146516912Y-99377670D01*
X146640268Y-99541020D01*
X146791538Y-99678921D01*
X146859792Y-99721182D01*
X146937115Y-99769059D01*
X146976636Y-99815767D01*
X146983998Y-99853230D01*
X146983998Y-100503577D01*
X146973208Y-100548521D01*
X146943630Y-100606571D01*
X146928998Y-100698953D01*
X146928998Y-101101046D01*
X146943630Y-101193426D01*
X146943631Y-101193430D01*
X146978183Y-101261241D01*
X147000363Y-101304771D01*
X147088727Y-101393135D01*
X147200071Y-101449868D01*
X147292453Y-101464500D01*
X147634542Y-101464499D01*
X147634544Y-101464499D01*
X147654380Y-101461357D01*
X147726925Y-101449868D01*
X147838269Y-101393135D01*
X147873849Y-101357554D01*
X147928364Y-101329779D01*
X147988796Y-101339350D01*
X148013855Y-101357556D01*
X148049024Y-101392725D01*
X148160229Y-101449387D01*
X148169497Y-101450854D01*
X148169498Y-101450854D01*
X148169498Y-101154001D01*
X148677498Y-101154001D01*
X148677498Y-101450854D01*
X148686766Y-101449387D01*
X148797971Y-101392725D01*
X148886223Y-101304473D01*
X148942884Y-101193270D01*
X148949104Y-101154000D01*
X148677499Y-101154000D01*
X148677498Y-101154001D01*
X148169498Y-101154001D01*
X148169498Y-100645999D01*
X148677498Y-100645999D01*
X148677499Y-100646000D01*
X148949103Y-100646000D01*
X148949103Y-100645999D01*
X148942884Y-100606731D01*
X148886223Y-100495526D01*
X148797971Y-100407274D01*
X148686765Y-100350612D01*
X148686766Y-100350612D01*
X148677498Y-100349143D01*
X148677498Y-100645999D01*
X148169498Y-100645999D01*
X148169498Y-100349143D01*
X148160230Y-100350612D01*
X148086943Y-100387954D01*
X148026511Y-100397525D01*
X147971994Y-100369747D01*
X147944217Y-100315231D01*
X147942998Y-100299744D01*
X147942998Y-99848898D01*
X147961905Y-99790707D01*
X147989881Y-99764727D01*
X148025231Y-99742839D01*
X148128462Y-99678921D01*
X148279732Y-99541020D01*
X148403088Y-99377670D01*
X148494328Y-99194436D01*
X148550345Y-98997556D01*
X148569232Y-98793735D01*
X148890768Y-98793735D01*
X148909655Y-98997557D01*
X148939014Y-99100742D01*
X148965672Y-99194436D01*
X149056912Y-99377670D01*
X149180268Y-99541020D01*
X149331538Y-99678921D01*
X149505573Y-99786679D01*
X149696444Y-99860623D01*
X149897653Y-99898235D01*
X150102347Y-99898235D01*
X150303556Y-99860623D01*
X150494427Y-99786679D01*
X150668462Y-99678921D01*
X150819732Y-99541020D01*
X150943088Y-99377670D01*
X151034328Y-99194436D01*
X151090345Y-98997556D01*
X151109232Y-98793735D01*
X151090345Y-98589914D01*
X151034328Y-98393034D01*
X150943088Y-98209800D01*
X150819732Y-98046450D01*
X150679614Y-97918715D01*
X151436000Y-97918715D01*
X151436000Y-98539734D01*
X151436001Y-98539735D01*
X152109297Y-98539735D01*
X152074075Y-98600742D01*
X152040000Y-98727909D01*
X152040000Y-98859561D01*
X152074075Y-98986728D01*
X152109297Y-99047735D01*
X151436002Y-99047735D01*
X151436001Y-99047736D01*
X151436001Y-99668757D01*
X151450736Y-99742839D01*
X151450737Y-99742842D01*
X151506874Y-99826856D01*
X151506878Y-99826860D01*
X151590893Y-99882998D01*
X151664981Y-99897734D01*
X152285998Y-99897734D01*
X152286000Y-99897733D01*
X152286000Y-99224437D01*
X152347007Y-99259660D01*
X152474174Y-99293735D01*
X152605826Y-99293735D01*
X152732993Y-99259660D01*
X152794000Y-99224437D01*
X152794000Y-99897733D01*
X152794001Y-99897734D01*
X153415012Y-99897734D01*
X153415022Y-99897733D01*
X153489104Y-99882998D01*
X153489107Y-99882997D01*
X153522494Y-99860688D01*
X158736714Y-99860688D01*
X158744665Y-100003738D01*
X158744667Y-100003745D01*
X158763223Y-100056015D01*
X158792599Y-100138760D01*
X158809891Y-100164529D01*
X158825853Y-100188315D01*
X158825862Y-100188328D01*
X159473669Y-100960352D01*
X159473671Y-100960354D01*
X159516698Y-101001708D01*
X159629970Y-101065914D01*
X159641343Y-101072360D01*
X159780844Y-101105033D01*
X159923898Y-101097080D01*
X160058917Y-101049147D01*
X160108476Y-101015891D01*
X160554939Y-100641262D01*
X160596297Y-100598231D01*
X160666948Y-100473588D01*
X160699620Y-100334087D01*
X160691668Y-100191032D01*
X160643735Y-100056014D01*
X160610478Y-100006455D01*
X160610475Y-100006452D01*
X160610471Y-100006446D01*
X160548231Y-99932272D01*
X160525310Y-99875543D01*
X160540112Y-99816175D01*
X160543553Y-99811032D01*
X162879427Y-96547636D01*
X162928669Y-96511324D01*
X162989853Y-96510891D01*
X162993788Y-96512231D01*
X163021370Y-96522270D01*
X163099096Y-96550560D01*
X163157041Y-96564862D01*
X163300311Y-96563725D01*
X163437458Y-96522270D01*
X163557371Y-96443856D01*
X163650334Y-96334835D01*
X163676625Y-96281255D01*
X163875959Y-95733586D01*
X163890261Y-95675641D01*
X163889125Y-95532371D01*
X163847670Y-95395224D01*
X163769255Y-95275311D01*
X163769254Y-95275310D01*
X163769253Y-95275308D01*
X163694174Y-95211288D01*
X166873210Y-95211288D01*
X166892952Y-95424336D01*
X166950267Y-95625778D01*
X166951506Y-95630130D01*
X167013554Y-95754741D01*
X167046875Y-95821658D01*
X167175815Y-95992402D01*
X167333934Y-96136546D01*
X167515846Y-96249181D01*
X167715359Y-96326473D01*
X167925676Y-96365788D01*
X168139636Y-96365788D01*
X168349953Y-96326473D01*
X168549466Y-96249181D01*
X168731378Y-96136546D01*
X168889497Y-95992402D01*
X169018437Y-95821658D01*
X169113807Y-95630128D01*
X169172360Y-95424336D01*
X169192102Y-95211288D01*
X169172360Y-94998240D01*
X169113807Y-94792448D01*
X169018437Y-94600918D01*
X168889497Y-94430174D01*
X168731378Y-94286030D01*
X168549466Y-94173395D01*
X168349953Y-94096103D01*
X168349952Y-94096102D01*
X168349950Y-94096102D01*
X168139636Y-94056788D01*
X167925676Y-94056788D01*
X167715361Y-94096102D01*
X167702989Y-94100895D01*
X167515846Y-94173395D01*
X167333934Y-94286030D01*
X167333931Y-94286032D01*
X167264332Y-94349480D01*
X167175815Y-94430174D01*
X167165419Y-94443941D01*
X167046876Y-94600916D01*
X167046871Y-94600925D01*
X166951506Y-94792445D01*
X166951505Y-94792448D01*
X166892952Y-94998240D01*
X166873210Y-95211288D01*
X163694174Y-95211288D01*
X163660234Y-95182347D01*
X163660231Y-95182345D01*
X163606659Y-95156058D01*
X163252317Y-95027089D01*
X162659616Y-94811364D01*
X162659610Y-94811362D01*
X162659607Y-94811361D01*
X162601673Y-94797062D01*
X162601671Y-94797062D01*
X162590370Y-94797151D01*
X162451320Y-94798255D01*
X162451308Y-94796778D01*
X162398820Y-94788119D01*
X162355834Y-94744578D01*
X162346650Y-94684086D01*
X162374328Y-94630195D01*
X162381124Y-94623400D01*
X162471582Y-94479437D01*
X162502138Y-94392113D01*
X162539203Y-94343433D01*
X162597803Y-94325836D01*
X162655555Y-94346044D01*
X162659817Y-94349480D01*
X162739765Y-94417652D01*
X162739768Y-94417654D01*
X162793340Y-94443941D01*
X162793343Y-94443942D01*
X162793345Y-94443943D01*
X163740384Y-94788636D01*
X163798329Y-94802938D01*
X163941599Y-94801801D01*
X164078746Y-94760346D01*
X164198659Y-94681932D01*
X164291622Y-94572911D01*
X164317913Y-94519331D01*
X164389350Y-94323055D01*
X164427019Y-94274841D01*
X164485834Y-94257975D01*
X164493466Y-94258538D01*
X164499997Y-94259274D01*
X164500000Y-94259274D01*
X164500004Y-94259274D01*
X164668948Y-94240238D01*
X164668950Y-94240237D01*
X164668954Y-94240237D01*
X164829437Y-94184082D01*
X164973400Y-94093624D01*
X165093624Y-93973400D01*
X165184082Y-93829437D01*
X165240237Y-93668954D01*
X165244151Y-93634220D01*
X165259274Y-93500004D01*
X165259274Y-93499995D01*
X165240238Y-93331051D01*
X165240235Y-93331039D01*
X165217184Y-93265163D01*
X165184082Y-93170563D01*
X165135933Y-93093935D01*
X165093626Y-93026603D01*
X165093625Y-93026602D01*
X165093624Y-93026600D01*
X164973400Y-92906376D01*
X164973397Y-92906374D01*
X164973396Y-92906373D01*
X164829438Y-92815918D01*
X164668960Y-92759764D01*
X164668948Y-92759761D01*
X164500004Y-92740726D01*
X164499996Y-92740726D01*
X164331051Y-92759761D01*
X164331039Y-92759764D01*
X164170562Y-92815918D01*
X164170561Y-92815918D01*
X164026603Y-92906373D01*
X163906373Y-93026603D01*
X163824543Y-93156835D01*
X163777574Y-93196048D01*
X163716527Y-93200163D01*
X163706857Y-93197194D01*
X163619520Y-93165406D01*
X163300904Y-93049440D01*
X163300898Y-93049438D01*
X163300895Y-93049437D01*
X163242961Y-93035138D01*
X163242959Y-93035138D01*
X163240687Y-93035156D01*
X163099691Y-93036274D01*
X162962541Y-93077730D01*
X162842633Y-93156141D01*
X162842627Y-93156145D01*
X162749666Y-93265163D01*
X162723375Y-93318744D01*
X162584571Y-93700108D01*
X162546901Y-93748323D01*
X162488086Y-93765188D01*
X162430591Y-93744261D01*
X162407715Y-93718919D01*
X162381126Y-93676603D01*
X162381125Y-93676602D01*
X162381124Y-93676600D01*
X162260900Y-93556376D01*
X162260897Y-93556374D01*
X162260896Y-93556373D01*
X162116938Y-93465918D01*
X161956460Y-93409764D01*
X161956448Y-93409761D01*
X161787504Y-93390726D01*
X161787496Y-93390726D01*
X161618551Y-93409761D01*
X161618539Y-93409764D01*
X161458062Y-93465918D01*
X161458061Y-93465918D01*
X161314103Y-93556373D01*
X161193873Y-93676603D01*
X161103418Y-93820561D01*
X161103418Y-93820562D01*
X161047264Y-93981039D01*
X161047261Y-93981051D01*
X161028226Y-94149995D01*
X161028226Y-94150004D01*
X161047261Y-94318948D01*
X161047264Y-94318960D01*
X161103418Y-94479437D01*
X161103418Y-94479438D01*
X161179754Y-94600925D01*
X161193876Y-94623400D01*
X161314100Y-94743624D01*
X161314102Y-94743625D01*
X161314103Y-94743626D01*
X161421907Y-94811364D01*
X161458063Y-94834082D01*
X161492629Y-94846177D01*
X161618539Y-94890235D01*
X161618543Y-94890236D01*
X161618546Y-94890237D01*
X161618547Y-94890237D01*
X161618551Y-94890238D01*
X161787496Y-94909274D01*
X161787500Y-94909274D01*
X161787504Y-94909274D01*
X161956448Y-94890238D01*
X161956450Y-94890237D01*
X161956454Y-94890237D01*
X161994486Y-94876928D01*
X162055655Y-94875555D01*
X162105950Y-94910399D01*
X162126159Y-94968150D01*
X162110882Y-95021420D01*
X162111106Y-95021530D01*
X162110491Y-95022781D01*
X162109938Y-95024713D01*
X162108379Y-95027086D01*
X162082087Y-95080668D01*
X162000802Y-95304000D01*
X161883690Y-95625765D01*
X161882752Y-95628342D01*
X161882750Y-95628346D01*
X161868451Y-95686280D01*
X161869586Y-95829551D01*
X161893082Y-95907284D01*
X161901516Y-95935186D01*
X161911042Y-95966699D01*
X161911044Y-95966704D01*
X161942405Y-96014662D01*
X161958428Y-96073712D01*
X161940051Y-96126466D01*
X159834088Y-99068659D01*
X159784844Y-99104973D01*
X159731010Y-99107428D01*
X159655490Y-99089741D01*
X159655487Y-99089741D01*
X159512436Y-99097693D01*
X159377417Y-99145626D01*
X159327856Y-99178883D01*
X159327853Y-99178886D01*
X158881393Y-99553512D01*
X158881391Y-99553514D01*
X158840037Y-99596541D01*
X158769387Y-99721182D01*
X158769385Y-99721186D01*
X158747139Y-99816175D01*
X158738461Y-99853230D01*
X158736714Y-99860688D01*
X153522494Y-99860688D01*
X153573121Y-99826860D01*
X153573125Y-99826856D01*
X153629263Y-99742841D01*
X153643999Y-99668754D01*
X153644000Y-99668751D01*
X153644000Y-99047736D01*
X153643999Y-99047735D01*
X152970703Y-99047735D01*
X153005925Y-98986728D01*
X153040000Y-98859561D01*
X153040000Y-98727909D01*
X153005925Y-98600742D01*
X152970703Y-98539735D01*
X153643998Y-98539735D01*
X153643999Y-98539734D01*
X153643999Y-97918722D01*
X153643998Y-97918712D01*
X153629263Y-97844630D01*
X153629262Y-97844627D01*
X153573125Y-97760613D01*
X153573121Y-97760609D01*
X153489106Y-97704471D01*
X153415019Y-97689735D01*
X152794001Y-97689735D01*
X152794000Y-97689736D01*
X152794000Y-98363032D01*
X152732993Y-98327810D01*
X152605826Y-98293735D01*
X152474174Y-98293735D01*
X152347007Y-98327810D01*
X152286000Y-98363032D01*
X152286000Y-97689736D01*
X152285999Y-97689735D01*
X151664986Y-97689735D01*
X151664977Y-97689736D01*
X151590895Y-97704471D01*
X151590892Y-97704472D01*
X151506878Y-97760609D01*
X151506874Y-97760613D01*
X151450736Y-97844628D01*
X151436000Y-97918715D01*
X150679614Y-97918715D01*
X150668462Y-97908549D01*
X150495992Y-97801760D01*
X150494432Y-97800794D01*
X150494427Y-97800791D01*
X150390716Y-97760613D01*
X150303556Y-97726847D01*
X150303555Y-97726846D01*
X150303553Y-97726846D01*
X150102347Y-97689235D01*
X149897653Y-97689235D01*
X149696446Y-97726846D01*
X149505572Y-97800791D01*
X149505567Y-97800794D01*
X149331542Y-97908546D01*
X149331540Y-97908547D01*
X149331538Y-97908549D01*
X149257528Y-97976018D01*
X149180269Y-98046449D01*
X149056913Y-98209798D01*
X149056908Y-98209807D01*
X148965672Y-98393033D01*
X148909655Y-98589912D01*
X148890768Y-98793735D01*
X148569232Y-98793735D01*
X148550345Y-98589914D01*
X148494328Y-98393034D01*
X148403088Y-98209800D01*
X148279732Y-98046450D01*
X148128462Y-97908549D01*
X147955992Y-97801760D01*
X147954432Y-97800794D01*
X147954427Y-97800791D01*
X147850716Y-97760613D01*
X147763556Y-97726847D01*
X147763555Y-97726846D01*
X147763553Y-97726846D01*
X147562347Y-97689235D01*
X147357653Y-97689235D01*
X147156446Y-97726846D01*
X146965572Y-97800791D01*
X146965567Y-97800794D01*
X146791542Y-97908546D01*
X146791540Y-97908547D01*
X146791538Y-97908549D01*
X146717528Y-97976018D01*
X146640269Y-98046449D01*
X146516913Y-98209798D01*
X146516908Y-98209807D01*
X146425672Y-98393033D01*
X146369655Y-98589912D01*
X146350768Y-98793735D01*
X144131566Y-98793735D01*
X144140237Y-98768954D01*
X144142366Y-98750058D01*
X144159274Y-98600004D01*
X144159274Y-98599995D01*
X144140238Y-98431051D01*
X144140235Y-98431039D01*
X144085563Y-98274796D01*
X144084082Y-98270563D01*
X144045906Y-98209807D01*
X143993626Y-98126603D01*
X143993625Y-98126602D01*
X143993624Y-98126600D01*
X143873400Y-98006376D01*
X143873397Y-98006374D01*
X143873396Y-98006373D01*
X143729438Y-97915918D01*
X143568960Y-97859764D01*
X143568948Y-97859761D01*
X143400004Y-97840726D01*
X143399996Y-97840726D01*
X143231051Y-97859761D01*
X143231039Y-97859764D01*
X143070562Y-97915918D01*
X143070561Y-97915918D01*
X142926603Y-98006373D01*
X142806373Y-98126603D01*
X142715918Y-98270561D01*
X142715918Y-98270562D01*
X142659764Y-98431039D01*
X142659761Y-98431051D01*
X142640726Y-98599995D01*
X139744067Y-98599995D01*
X138907876Y-97386120D01*
X138049290Y-96139735D01*
X138031849Y-96081088D01*
X138047960Y-96029392D01*
X138088958Y-95966700D01*
X138130413Y-95829553D01*
X138131549Y-95686283D01*
X138121047Y-95643731D01*
X138117250Y-95628346D01*
X138117249Y-95628342D01*
X138117248Y-95628339D01*
X137917912Y-95080670D01*
X137907654Y-95059764D01*
X137891622Y-95027089D01*
X137891621Y-95027088D01*
X137887948Y-95022781D01*
X137798659Y-94918068D01*
X137678746Y-94839654D01*
X137541599Y-94798199D01*
X137541598Y-94798198D01*
X137399465Y-94797071D01*
X137398329Y-94797062D01*
X137398328Y-94797062D01*
X137340392Y-94811360D01*
X136393343Y-95156059D01*
X136393340Y-95156060D01*
X136339767Y-95182346D01*
X136339764Y-95182348D01*
X136230745Y-95275310D01*
X136152330Y-95395223D01*
X136152330Y-95395224D01*
X136110874Y-95532372D01*
X136109739Y-95675641D01*
X133364948Y-95675641D01*
X133286778Y-95460873D01*
X133284644Y-95399727D01*
X133318858Y-95349002D01*
X133352751Y-95331784D01*
X135710066Y-94662061D01*
X135771207Y-94664345D01*
X135795088Y-94678555D01*
X135795415Y-94678057D01*
X135801341Y-94681932D01*
X135921254Y-94760346D01*
X136058401Y-94801801D01*
X136201671Y-94802938D01*
X136259615Y-94788637D01*
X137206653Y-94443942D01*
X137260235Y-94417652D01*
X137369255Y-94324689D01*
X137447670Y-94204776D01*
X137489125Y-94067629D01*
X137490261Y-93924359D01*
X137475960Y-93866415D01*
X137276624Y-93318746D01*
X137273429Y-93312235D01*
X137250334Y-93265165D01*
X137250333Y-93265164D01*
X137219833Y-93229396D01*
X137169665Y-93170562D01*
X137157372Y-93156145D01*
X137157371Y-93156144D01*
X137037458Y-93077730D01*
X136900311Y-93036275D01*
X136900310Y-93036274D01*
X136758177Y-93035147D01*
X136757041Y-93035138D01*
X136757040Y-93035138D01*
X136699104Y-93049436D01*
X135752055Y-93394135D01*
X135752052Y-93394136D01*
X135698479Y-93420422D01*
X135698476Y-93420424D01*
X135589457Y-93513386D01*
X135511035Y-93633310D01*
X135510611Y-93634220D01*
X135510040Y-93634831D01*
X135507167Y-93639226D01*
X135506405Y-93638728D01*
X135468877Y-93678962D01*
X135447949Y-93687599D01*
X132992966Y-94385070D01*
X132931823Y-94382786D01*
X132883700Y-94344998D01*
X132872880Y-94323699D01*
X132869044Y-94313161D01*
X132801573Y-94127784D01*
X132797048Y-94077072D01*
X133293342Y-91204000D01*
X133757437Y-91204000D01*
X133760983Y-91226396D01*
X133760984Y-91226399D01*
X133819083Y-91340424D01*
X133909577Y-91430918D01*
X134023597Y-91489014D01*
X134023599Y-91489015D01*
X134118203Y-91503999D01*
X134483498Y-91503999D01*
X134483500Y-91503998D01*
X134483500Y-91204001D01*
X134991500Y-91204001D01*
X134991500Y-91503998D01*
X134991501Y-91503999D01*
X135356796Y-91503999D01*
X135451398Y-91489015D01*
X135451405Y-91489013D01*
X135565422Y-91430918D01*
X135655918Y-91340422D01*
X135714013Y-91226405D01*
X135714016Y-91226396D01*
X135715979Y-91214000D01*
X135939999Y-91214000D01*
X135940427Y-91216706D01*
X135996369Y-91326498D01*
X136083501Y-91413630D01*
X136193296Y-91469573D01*
X136193299Y-91469574D01*
X136245999Y-91477920D01*
X136246000Y-91477919D01*
X136246000Y-91214001D01*
X136754000Y-91214001D01*
X136754000Y-91477920D01*
X136806700Y-91469574D01*
X136806703Y-91469573D01*
X136916498Y-91413630D01*
X137003630Y-91326498D01*
X137059572Y-91216706D01*
X137060001Y-91214000D01*
X136754001Y-91214000D01*
X136754000Y-91214001D01*
X136246000Y-91214001D01*
X136245999Y-91214000D01*
X135939999Y-91214000D01*
X135715979Y-91214000D01*
X135717563Y-91204000D01*
X134991501Y-91204000D01*
X134991500Y-91204001D01*
X134483500Y-91204001D01*
X134483499Y-91204000D01*
X133757437Y-91204000D01*
X133293342Y-91204000D01*
X133391391Y-90636392D01*
X133419927Y-90582271D01*
X133474827Y-90555258D01*
X133481195Y-90554550D01*
X133481829Y-90554500D01*
X133481834Y-90554500D01*
X133481838Y-90554499D01*
X133481842Y-90554499D01*
X133499585Y-90551688D01*
X133576555Y-90539498D01*
X133646460Y-90503878D01*
X133706892Y-90494307D01*
X133761409Y-90522084D01*
X133789187Y-90576600D01*
X133779616Y-90637032D01*
X133760985Y-90673596D01*
X133760983Y-90673603D01*
X133757436Y-90695999D01*
X133757436Y-90696000D01*
X134483499Y-90696000D01*
X134483500Y-90695999D01*
X134483500Y-90396001D01*
X134991500Y-90396001D01*
X134991500Y-90695999D01*
X134991501Y-90696000D01*
X135717563Y-90696000D01*
X135714016Y-90673603D01*
X135714015Y-90673600D01*
X135655916Y-90559575D01*
X135565422Y-90469081D01*
X135451402Y-90410985D01*
X135451400Y-90410984D01*
X135356797Y-90396000D01*
X134991501Y-90396000D01*
X134991500Y-90396001D01*
X134483500Y-90396001D01*
X134483499Y-90396000D01*
X134118202Y-90396000D01*
X134023601Y-90410984D01*
X134023599Y-90410984D01*
X133953910Y-90446493D01*
X133893478Y-90456064D01*
X133838961Y-90428286D01*
X133811184Y-90373770D01*
X133820756Y-90313338D01*
X133820756Y-90313337D01*
X133839498Y-90276555D01*
X133854500Y-90181834D01*
X133854500Y-89818166D01*
X133839498Y-89723445D01*
X133821141Y-89687419D01*
X133811570Y-89626988D01*
X133839347Y-89572471D01*
X133893863Y-89544693D01*
X133954294Y-89554263D01*
X134023445Y-89589498D01*
X134087654Y-89599667D01*
X134118163Y-89604500D01*
X134118166Y-89604500D01*
X135356837Y-89604500D01*
X135387345Y-89599667D01*
X135451555Y-89589498D01*
X135490163Y-89569825D01*
X135535668Y-89559036D01*
X135844003Y-89560785D01*
X135902084Y-89580022D01*
X135937767Y-89629725D01*
X135937663Y-89674889D01*
X135941165Y-89675444D01*
X135939946Y-89683137D01*
X135939946Y-89683138D01*
X135934478Y-89717662D01*
X135925500Y-89774345D01*
X135925500Y-90105654D01*
X135925501Y-90105657D01*
X135939944Y-90196857D01*
X135939945Y-90196860D01*
X135939946Y-90196862D01*
X135995960Y-90306796D01*
X136069515Y-90380351D01*
X136097291Y-90434866D01*
X136087720Y-90495298D01*
X136069514Y-90520357D01*
X135996369Y-90593501D01*
X135940427Y-90703293D01*
X135939999Y-90706000D01*
X137060001Y-90706000D01*
X137059572Y-90703293D01*
X137003630Y-90593501D01*
X136930486Y-90520357D01*
X136902709Y-90465840D01*
X136912280Y-90405408D01*
X136930483Y-90380352D01*
X137004040Y-90306796D01*
X137060054Y-90196862D01*
X137074500Y-90105653D01*
X137074500Y-90099995D01*
X138140726Y-90099995D01*
X138140726Y-90100004D01*
X138159761Y-90268948D01*
X138159764Y-90268960D01*
X138215918Y-90429437D01*
X138215918Y-90429438D01*
X138297689Y-90559575D01*
X138306376Y-90573400D01*
X138426600Y-90693624D01*
X138426602Y-90693625D01*
X138426603Y-90693626D01*
X138536689Y-90762798D01*
X138570563Y-90784082D01*
X138634827Y-90806568D01*
X138731039Y-90840235D01*
X138731043Y-90840236D01*
X138731046Y-90840237D01*
X138731047Y-90840237D01*
X138731051Y-90840238D01*
X138899996Y-90859274D01*
X138900000Y-90859274D01*
X138900004Y-90859274D01*
X139068948Y-90840238D01*
X139068950Y-90840237D01*
X139068954Y-90840237D01*
X139229437Y-90784082D01*
X139373400Y-90693624D01*
X139493624Y-90573400D01*
X139584082Y-90429437D01*
X139640237Y-90268954D01*
X139640238Y-90268948D01*
X139659274Y-90100004D01*
X139659274Y-90099995D01*
X139640238Y-89931051D01*
X139640235Y-89931039D01*
X139609271Y-89842550D01*
X139584082Y-89770563D01*
X139581327Y-89766179D01*
X139493626Y-89626603D01*
X139493625Y-89626602D01*
X139493624Y-89626600D01*
X139373400Y-89506376D01*
X139373397Y-89506374D01*
X139373396Y-89506373D01*
X139229438Y-89415918D01*
X139068960Y-89359764D01*
X139068948Y-89359761D01*
X138900004Y-89340726D01*
X138899996Y-89340726D01*
X138731051Y-89359761D01*
X138731039Y-89359764D01*
X138570562Y-89415918D01*
X138570561Y-89415918D01*
X138426603Y-89506373D01*
X138306373Y-89626603D01*
X138215918Y-89770561D01*
X138215918Y-89770562D01*
X138159764Y-89931039D01*
X138159761Y-89931051D01*
X138140726Y-90099995D01*
X137074500Y-90099995D01*
X137074499Y-89774348D01*
X137061062Y-89689500D01*
X137060055Y-89683142D01*
X137060054Y-89683140D01*
X137060054Y-89683138D01*
X137031598Y-89627290D01*
X137015290Y-89595282D01*
X137004500Y-89550338D01*
X137004500Y-89449661D01*
X137015290Y-89404716D01*
X137060054Y-89316862D01*
X137074500Y-89225653D01*
X137074499Y-88894348D01*
X137064467Y-88831000D01*
X137060055Y-88803142D01*
X137060054Y-88803140D01*
X137060054Y-88803138D01*
X137004040Y-88693204D01*
X136930837Y-88620001D01*
X136903062Y-88565487D01*
X136912633Y-88505055D01*
X136930838Y-88479998D01*
X136941321Y-88469515D01*
X136952546Y-88458288D01*
X137007062Y-88430510D01*
X137014774Y-88429596D01*
X137199539Y-88415055D01*
X137570617Y-88356278D01*
X137935940Y-88268568D01*
X138183239Y-88188213D01*
X138293244Y-88152469D01*
X138293245Y-88152468D01*
X138293256Y-88152465D01*
X138640360Y-88008686D01*
X138975113Y-87838116D01*
X139295452Y-87641807D01*
X139599401Y-87420970D01*
X139607965Y-87413656D01*
X139885072Y-87176978D01*
X139885081Y-87176970D01*
X139885086Y-87176966D01*
X139962966Y-87099083D01*
X140017482Y-87071306D01*
X140077914Y-87080877D01*
X140121179Y-87124141D01*
X140130751Y-87184573D01*
X140128191Y-87196179D01*
X140119655Y-87226177D01*
X140100768Y-87430000D01*
X140119655Y-87633822D01*
X140175672Y-87830701D01*
X140236416Y-87952692D01*
X140266912Y-88013935D01*
X140390268Y-88177285D01*
X140541538Y-88315186D01*
X140715573Y-88422944D01*
X140906444Y-88496888D01*
X141107653Y-88534500D01*
X141312347Y-88534500D01*
X141513556Y-88496888D01*
X141672076Y-88435476D01*
X141733164Y-88432087D01*
X141770640Y-88451263D01*
X141775906Y-88455585D01*
X142025763Y-88622535D01*
X142290781Y-88764191D01*
X142568407Y-88879189D01*
X142568417Y-88879192D01*
X142855964Y-88966419D01*
X142855968Y-88966419D01*
X142855969Y-88966420D01*
X142955536Y-88986225D01*
X143008920Y-89016122D01*
X143034536Y-89071687D01*
X143022599Y-89131696D01*
X143002919Y-89156484D01*
X142930269Y-89222714D01*
X142930268Y-89222715D01*
X142928049Y-89225654D01*
X142806913Y-89386063D01*
X142806908Y-89386072D01*
X142715672Y-89569298D01*
X142659655Y-89766177D01*
X142640768Y-89970000D01*
X142659655Y-90173822D01*
X142698543Y-90310500D01*
X142715672Y-90370701D01*
X142747622Y-90434866D01*
X142794225Y-90528456D01*
X142803238Y-90588974D01*
X142774958Y-90643231D01*
X142720187Y-90670504D01*
X142667718Y-90664048D01*
X142589112Y-90631488D01*
X142579110Y-90626671D01*
X142325081Y-90486274D01*
X142315681Y-90480368D01*
X142287440Y-90460330D01*
X142250923Y-90411236D01*
X142249507Y-90352498D01*
X142300345Y-90173821D01*
X142319232Y-89970000D01*
X142300345Y-89766179D01*
X142244328Y-89569299D01*
X142153088Y-89386065D01*
X142029732Y-89222715D01*
X141878462Y-89084814D01*
X141762739Y-89013161D01*
X141704432Y-88977059D01*
X141704427Y-88977056D01*
X141627515Y-88947260D01*
X141513556Y-88903112D01*
X141513555Y-88903111D01*
X141513553Y-88903111D01*
X141312347Y-88865500D01*
X141107653Y-88865500D01*
X140906446Y-88903111D01*
X140715572Y-88977056D01*
X140715567Y-88977059D01*
X140541542Y-89084811D01*
X140541540Y-89084812D01*
X140541538Y-89084814D01*
X140390268Y-89222715D01*
X140388049Y-89225654D01*
X140266913Y-89386063D01*
X140266908Y-89386072D01*
X140175672Y-89569298D01*
X140119655Y-89766177D01*
X140100768Y-89970000D01*
X140119655Y-90173822D01*
X140175672Y-90370701D01*
X140255534Y-90531086D01*
X140266912Y-90553935D01*
X140390268Y-90717285D01*
X140541538Y-90855186D01*
X140715573Y-90962944D01*
X140906444Y-91036888D01*
X141107653Y-91074500D01*
X141312347Y-91074500D01*
X141513556Y-91036888D01*
X141691345Y-90968011D01*
X141752434Y-90964622D01*
X141782108Y-90978012D01*
X142001793Y-91124802D01*
X142287955Y-91277758D01*
X142296097Y-91282110D01*
X142604404Y-91409816D01*
X142604414Y-91409819D01*
X142923742Y-91506687D01*
X142951017Y-91512112D01*
X142967433Y-91515377D01*
X143020818Y-91545272D01*
X143046435Y-91600837D01*
X143034499Y-91660847D01*
X143014818Y-91685636D01*
X142930269Y-91762714D01*
X142806913Y-91926063D01*
X142806908Y-91926072D01*
X142715672Y-92109298D01*
X142659655Y-92306177D01*
X142640768Y-92510000D01*
X142659655Y-92713822D01*
X142715672Y-92910701D01*
X142799278Y-93078605D01*
X142808291Y-93139123D01*
X142780011Y-93193381D01*
X142725240Y-93220653D01*
X142672773Y-93214198D01*
X142599567Y-93183875D01*
X142589586Y-93179068D01*
X142337916Y-93039976D01*
X142328517Y-93034071D01*
X142286351Y-93004152D01*
X142249834Y-92955058D01*
X142248419Y-92896322D01*
X142300345Y-92713821D01*
X142319232Y-92510000D01*
X142300345Y-92306179D01*
X142244328Y-92109299D01*
X142153088Y-91926065D01*
X142029732Y-91762715D01*
X141878462Y-91624814D01*
X141704427Y-91517056D01*
X141513556Y-91443112D01*
X141513555Y-91443111D01*
X141513553Y-91443111D01*
X141312347Y-91405500D01*
X141107653Y-91405500D01*
X140906446Y-91443111D01*
X140715572Y-91517056D01*
X140715567Y-91517059D01*
X140541542Y-91624811D01*
X140541540Y-91624812D01*
X140541538Y-91624814D01*
X140424924Y-91731122D01*
X140390269Y-91762714D01*
X140266913Y-91926063D01*
X140266908Y-91926072D01*
X140175672Y-92109298D01*
X140119655Y-92306177D01*
X140100768Y-92510000D01*
X140119655Y-92713822D01*
X140148704Y-92815918D01*
X140175672Y-92910701D01*
X140266912Y-93093935D01*
X140390268Y-93257285D01*
X140541538Y-93395186D01*
X140715573Y-93502944D01*
X140906444Y-93576888D01*
X141107653Y-93614500D01*
X141312347Y-93614500D01*
X141513556Y-93576888D01*
X141686497Y-93509889D01*
X141747587Y-93506500D01*
X141777258Y-93519888D01*
X142014215Y-93678216D01*
X142181584Y-93767675D01*
X142223990Y-93811780D01*
X142232373Y-93872388D01*
X142203531Y-93926349D01*
X142148480Y-93953051D01*
X142115602Y-93952083D01*
X142085021Y-93946000D01*
X141464001Y-93946000D01*
X141464000Y-93946001D01*
X141464000Y-94619297D01*
X141402993Y-94584075D01*
X141275826Y-94550000D01*
X141144174Y-94550000D01*
X141017007Y-94584075D01*
X140956000Y-94619297D01*
X140956000Y-93946001D01*
X140955999Y-93946000D01*
X140334986Y-93946000D01*
X140334977Y-93946001D01*
X140260895Y-93960736D01*
X140260892Y-93960737D01*
X140176878Y-94016874D01*
X140176874Y-94016878D01*
X140120736Y-94100893D01*
X140106000Y-94174980D01*
X140106000Y-94795999D01*
X140106001Y-94796000D01*
X140779297Y-94796000D01*
X140744075Y-94857007D01*
X140710000Y-94984174D01*
X140710000Y-95115826D01*
X140744075Y-95242993D01*
X140779297Y-95304000D01*
X140106002Y-95304000D01*
X140106001Y-95304001D01*
X140106001Y-95925022D01*
X140120736Y-95999104D01*
X140120737Y-95999107D01*
X140176874Y-96083121D01*
X140176878Y-96083125D01*
X140260893Y-96139263D01*
X140334981Y-96153999D01*
X140955998Y-96153999D01*
X140956000Y-96153998D01*
X140956000Y-95480702D01*
X141017007Y-95515925D01*
X141144174Y-95550000D01*
X141275826Y-95550000D01*
X141402993Y-95515925D01*
X141464000Y-95480702D01*
X141464000Y-96153998D01*
X141464001Y-96153999D01*
X142085012Y-96153999D01*
X142085022Y-96153998D01*
X142159104Y-96139263D01*
X142159107Y-96139262D01*
X142243121Y-96083125D01*
X142243125Y-96083121D01*
X142299263Y-95999106D01*
X142313999Y-95925019D01*
X142314000Y-95925016D01*
X142314000Y-95304001D01*
X142313999Y-95304000D01*
X141640703Y-95304000D01*
X141675925Y-95242993D01*
X141710000Y-95115826D01*
X141710000Y-94984174D01*
X141675925Y-94857007D01*
X141640703Y-94796000D01*
X142313998Y-94796000D01*
X142313999Y-94795999D01*
X142313999Y-94174987D01*
X142313998Y-94174977D01*
X142299263Y-94100895D01*
X142299262Y-94100892D01*
X142243125Y-94016878D01*
X142238794Y-94012547D01*
X142211017Y-93958030D01*
X142220588Y-93897598D01*
X142263853Y-93854333D01*
X142324285Y-93844762D01*
X142346682Y-93851078D01*
X142612547Y-93961202D01*
X142781811Y-94012547D01*
X142929613Y-94057382D01*
X142929615Y-94057382D01*
X142929617Y-94057383D01*
X142952024Y-94061840D01*
X142958856Y-94063199D01*
X143012240Y-94093096D01*
X143037856Y-94148661D01*
X143025919Y-94208670D01*
X143006238Y-94233458D01*
X142930271Y-94302711D01*
X142806913Y-94466063D01*
X142806908Y-94466072D01*
X142715672Y-94649298D01*
X142659655Y-94846177D01*
X142640768Y-95050000D01*
X142659655Y-95253822D01*
X142715672Y-95450701D01*
X142804125Y-95628339D01*
X142806912Y-95633935D01*
X142930268Y-95797285D01*
X143081538Y-95935186D01*
X143255573Y-96042944D01*
X143446444Y-96116888D01*
X143647653Y-96154500D01*
X143852347Y-96154500D01*
X144053556Y-96116888D01*
X144244427Y-96042944D01*
X144418462Y-95935186D01*
X144569732Y-95797285D01*
X144693088Y-95633935D01*
X144784328Y-95450701D01*
X144840345Y-95253821D01*
X144859232Y-95050000D01*
X144840345Y-94846179D01*
X144784328Y-94649299D01*
X144693088Y-94466065D01*
X144577617Y-94313157D01*
X144557640Y-94255330D01*
X144575469Y-94196799D01*
X144624295Y-94159927D01*
X144656623Y-94154500D01*
X148587617Y-94154500D01*
X148645808Y-94173407D01*
X148681772Y-94222907D01*
X148681772Y-94284093D01*
X148680183Y-94288606D01*
X148659853Y-94342210D01*
X148659850Y-94342219D01*
X148640693Y-94499998D01*
X148640693Y-94500001D01*
X148659850Y-94657780D01*
X148659853Y-94657789D01*
X148716210Y-94806390D01*
X148716212Y-94806393D01*
X148716213Y-94806395D01*
X148735324Y-94834082D01*
X148806502Y-94937201D01*
X148806502Y-94937202D01*
X148907964Y-95027089D01*
X148925471Y-95042599D01*
X149066207Y-95116463D01*
X149220529Y-95154500D01*
X149220532Y-95154500D01*
X149379468Y-95154500D01*
X149379471Y-95154500D01*
X149533793Y-95116463D01*
X149674529Y-95042599D01*
X149793498Y-94937201D01*
X149883787Y-94806395D01*
X149885099Y-94802937D01*
X149930990Y-94681932D01*
X149940149Y-94657782D01*
X149942117Y-94641567D01*
X149967899Y-94586081D01*
X150021372Y-94556345D01*
X150040395Y-94554500D01*
X150630017Y-94554500D01*
X150630024Y-94554500D01*
X151088654Y-94518405D01*
X151543038Y-94446438D01*
X151990374Y-94339042D01*
X152427906Y-94196879D01*
X152852935Y-94020826D01*
X153262840Y-93811969D01*
X153479888Y-93678962D01*
X153655078Y-93571606D01*
X153655083Y-93571602D01*
X153655095Y-93571595D01*
X154027282Y-93301185D01*
X154217032Y-93139123D01*
X154377090Y-93002421D01*
X154377091Y-93002419D01*
X154377105Y-93002408D01*
X154702408Y-92677105D01*
X154731004Y-92643624D01*
X155001173Y-92327296D01*
X155001185Y-92327282D01*
X155202646Y-92049995D01*
X161028226Y-92049995D01*
X161028226Y-92050004D01*
X161047261Y-92218948D01*
X161047264Y-92218960D01*
X161103418Y-92379437D01*
X161103418Y-92379438D01*
X161185456Y-92510000D01*
X161193876Y-92523400D01*
X161314100Y-92643624D01*
X161314102Y-92643625D01*
X161314103Y-92643626D01*
X161425817Y-92713821D01*
X161458063Y-92734082D01*
X161477051Y-92740726D01*
X161618539Y-92790235D01*
X161618543Y-92790236D01*
X161618546Y-92790237D01*
X161618547Y-92790237D01*
X161618551Y-92790238D01*
X161787496Y-92809274D01*
X161787500Y-92809274D01*
X161787504Y-92809274D01*
X161956448Y-92790238D01*
X161956450Y-92790237D01*
X161956454Y-92790237D01*
X162116937Y-92734082D01*
X162260900Y-92643624D01*
X162381124Y-92523400D01*
X162471582Y-92379437D01*
X162527737Y-92218954D01*
X162529093Y-92206922D01*
X162546774Y-92050004D01*
X162546774Y-92049995D01*
X162527738Y-91881051D01*
X162527735Y-91881039D01*
X162504783Y-91815447D01*
X162471582Y-91720563D01*
X162439065Y-91668813D01*
X162381126Y-91576603D01*
X162381125Y-91576602D01*
X162381124Y-91576600D01*
X162260900Y-91456376D01*
X162260897Y-91456374D01*
X162260896Y-91456373D01*
X162116938Y-91365918D01*
X161956460Y-91309764D01*
X161956448Y-91309761D01*
X161787504Y-91290726D01*
X161787496Y-91290726D01*
X161618551Y-91309761D01*
X161618539Y-91309764D01*
X161458062Y-91365918D01*
X161458061Y-91365918D01*
X161314103Y-91456373D01*
X161193873Y-91576603D01*
X161103418Y-91720561D01*
X161103418Y-91720562D01*
X161047264Y-91881039D01*
X161047261Y-91881051D01*
X161028226Y-92049995D01*
X155202646Y-92049995D01*
X155271595Y-91955095D01*
X155271602Y-91955083D01*
X155271606Y-91955078D01*
X155466400Y-91637202D01*
X155511969Y-91562840D01*
X155720826Y-91152935D01*
X155896879Y-90727906D01*
X156039042Y-90290374D01*
X156146438Y-89843038D01*
X156218405Y-89388654D01*
X156254500Y-88930024D01*
X156254500Y-88700000D01*
X156254500Y-88643853D01*
X156254500Y-86838216D01*
X156273407Y-86780025D01*
X156322907Y-86744061D01*
X156329808Y-86742093D01*
X156433793Y-86716463D01*
X156574529Y-86642599D01*
X156693498Y-86537201D01*
X156719177Y-86499998D01*
X157390693Y-86499998D01*
X157390693Y-86500001D01*
X157409850Y-86657780D01*
X157409853Y-86657789D01*
X157466210Y-86806390D01*
X157466212Y-86806393D01*
X157466213Y-86806395D01*
X157546195Y-86922269D01*
X157556502Y-86937201D01*
X157556502Y-86937202D01*
X157675464Y-87042593D01*
X157675471Y-87042599D01*
X157816207Y-87116463D01*
X157970529Y-87154500D01*
X157970532Y-87154500D01*
X158129468Y-87154500D01*
X158129471Y-87154500D01*
X158283793Y-87116463D01*
X158424529Y-87042599D01*
X158543498Y-86937201D01*
X158633787Y-86806395D01*
X158638631Y-86793624D01*
X158669036Y-86713452D01*
X158690149Y-86657782D01*
X158709307Y-86500000D01*
X158707681Y-86486612D01*
X158693591Y-86370563D01*
X158690149Y-86342218D01*
X158683230Y-86323975D01*
X158633789Y-86193609D01*
X158633787Y-86193606D01*
X158633787Y-86193605D01*
X158543498Y-86062799D01*
X158543497Y-86062798D01*
X158543497Y-86062797D01*
X158424535Y-85957406D01*
X158424533Y-85957404D01*
X158424529Y-85957401D01*
X158424525Y-85957399D01*
X158424524Y-85957398D01*
X158283791Y-85883536D01*
X158129473Y-85845500D01*
X158129471Y-85845500D01*
X157970529Y-85845500D01*
X157970526Y-85845500D01*
X157816208Y-85883536D01*
X157675475Y-85957398D01*
X157675464Y-85957406D01*
X157556502Y-86062797D01*
X157556502Y-86062798D01*
X157466212Y-86193606D01*
X157466210Y-86193609D01*
X157409853Y-86342210D01*
X157409850Y-86342219D01*
X157390693Y-86499998D01*
X156719177Y-86499998D01*
X156783787Y-86406395D01*
X156840149Y-86257782D01*
X156859307Y-86100000D01*
X156856349Y-86075642D01*
X156841993Y-85957406D01*
X156840149Y-85942218D01*
X156840146Y-85942210D01*
X156783789Y-85793609D01*
X156783787Y-85793606D01*
X156783787Y-85793605D01*
X156693498Y-85662799D01*
X156693497Y-85662798D01*
X156693497Y-85662797D01*
X156574535Y-85557406D01*
X156574533Y-85557404D01*
X156574529Y-85557401D01*
X156574525Y-85557399D01*
X156574524Y-85557398D01*
X156433791Y-85483536D01*
X156279473Y-85445500D01*
X156279471Y-85445500D01*
X156120529Y-85445500D01*
X156120526Y-85445500D01*
X155977192Y-85480829D01*
X155916167Y-85476397D01*
X155869403Y-85436942D01*
X155854500Y-85384706D01*
X155854500Y-80477720D01*
X155854501Y-80477716D01*
X155854501Y-80318333D01*
X155827994Y-80083063D01*
X155775310Y-79852240D01*
X155697114Y-79628768D01*
X155617938Y-79464359D01*
X155609726Y-79403730D01*
X155614567Y-79386305D01*
X155626581Y-79354630D01*
X155645739Y-79196848D01*
X155645060Y-79191259D01*
X155626581Y-79039067D01*
X155626578Y-79039058D01*
X155570221Y-78890457D01*
X155570219Y-78890454D01*
X155570219Y-78890453D01*
X155479930Y-78759647D01*
X155479929Y-78759646D01*
X155479929Y-78759645D01*
X155360967Y-78654254D01*
X155360965Y-78654252D01*
X155360961Y-78654249D01*
X155360957Y-78654247D01*
X155360956Y-78654246D01*
X155220223Y-78580384D01*
X155065905Y-78542348D01*
X155065903Y-78542348D01*
X154906961Y-78542348D01*
X154906958Y-78542348D01*
X154752640Y-78580384D01*
X154611907Y-78654246D01*
X154611896Y-78654254D01*
X154492934Y-78759645D01*
X154492934Y-78759646D01*
X154402644Y-78890454D01*
X154402642Y-78890457D01*
X154346285Y-79039058D01*
X154346282Y-79039067D01*
X154327125Y-79196846D01*
X154327125Y-79196849D01*
X154346282Y-79354628D01*
X154346285Y-79354637D01*
X154402643Y-79503239D01*
X154403403Y-79504687D01*
X154403575Y-79505698D01*
X154404768Y-79508842D01*
X154404152Y-79509075D01*
X154413707Y-79564999D01*
X154386592Y-79619848D01*
X154361754Y-79638357D01*
X154325479Y-79657396D01*
X154325473Y-79657399D01*
X154325471Y-79657401D01*
X154325469Y-79657402D01*
X154325464Y-79657406D01*
X154206502Y-79762797D01*
X154206502Y-79762798D01*
X154116212Y-79893606D01*
X154116210Y-79893609D01*
X154059853Y-80042210D01*
X154059850Y-80042219D01*
X154040693Y-80199998D01*
X154040693Y-80200001D01*
X154059850Y-80357780D01*
X154059852Y-80357786D01*
X154086507Y-80428067D01*
X154089464Y-80489181D01*
X154055934Y-80540361D01*
X154039951Y-80550833D01*
X154025059Y-80558649D01*
X154025056Y-80558650D01*
X154025054Y-80558652D01*
X154025052Y-80558653D01*
X154025047Y-80558657D01*
X153906085Y-80664048D01*
X153906085Y-80664049D01*
X153815795Y-80794857D01*
X153815793Y-80794860D01*
X153759436Y-80943461D01*
X153759433Y-80943470D01*
X153740276Y-81101249D01*
X153740276Y-81101252D01*
X153759433Y-81259031D01*
X153759436Y-81259040D01*
X153815793Y-81407641D01*
X153815795Y-81407644D01*
X153815796Y-81407646D01*
X153893649Y-81520436D01*
X153906085Y-81538452D01*
X153906085Y-81538453D01*
X154019260Y-81638717D01*
X154025054Y-81643850D01*
X154165790Y-81717714D01*
X154270192Y-81743446D01*
X154322166Y-81775729D01*
X154345239Y-81832397D01*
X154345499Y-81839569D01*
X154345499Y-81890633D01*
X154345500Y-81890646D01*
X154345500Y-88697564D01*
X154345381Y-88702422D01*
X154328184Y-89052471D01*
X154327231Y-89062139D01*
X154276167Y-89406386D01*
X154274272Y-89415915D01*
X154189708Y-89753513D01*
X154186888Y-89762810D01*
X154069641Y-90090492D01*
X154065923Y-90099468D01*
X153917122Y-90414082D01*
X153912542Y-90422650D01*
X153733624Y-90721155D01*
X153728227Y-90729233D01*
X153520903Y-91008778D01*
X153514739Y-91016288D01*
X153281024Y-91274154D01*
X153274154Y-91281024D01*
X153016288Y-91514739D01*
X153008778Y-91520903D01*
X152729233Y-91728227D01*
X152721155Y-91733624D01*
X152422650Y-91912542D01*
X152414082Y-91917122D01*
X152099468Y-92065923D01*
X152090492Y-92069641D01*
X151762810Y-92186888D01*
X151753513Y-92189708D01*
X151415925Y-92274269D01*
X151406396Y-92276165D01*
X151281751Y-92294654D01*
X151221416Y-92284489D01*
X151198293Y-92266417D01*
X151197981Y-92266770D01*
X151074535Y-92157406D01*
X151074533Y-92157404D01*
X151074529Y-92157401D01*
X151074525Y-92157399D01*
X151074524Y-92157398D01*
X150933791Y-92083536D01*
X150779473Y-92045500D01*
X150779471Y-92045500D01*
X150620529Y-92045500D01*
X150620526Y-92045500D01*
X150466208Y-92083536D01*
X150325475Y-92157398D01*
X150325464Y-92157406D01*
X150206502Y-92262797D01*
X150206502Y-92262798D01*
X150116212Y-92393606D01*
X150116210Y-92393609D01*
X150059853Y-92542210D01*
X150059850Y-92542219D01*
X150040693Y-92699998D01*
X150040693Y-92700001D01*
X150059850Y-92857780D01*
X150059853Y-92857789D01*
X150080183Y-92911394D01*
X150083140Y-92972508D01*
X150049610Y-93023688D01*
X149992400Y-93045384D01*
X149987617Y-93045500D01*
X149221306Y-93045500D01*
X149163115Y-93026593D01*
X149127151Y-92977093D01*
X149127151Y-92915907D01*
X149128739Y-92911394D01*
X149129002Y-92910701D01*
X149184272Y-92764968D01*
X149203430Y-92607186D01*
X149201702Y-92592958D01*
X149184272Y-92449405D01*
X149184269Y-92449396D01*
X149127912Y-92300795D01*
X149127910Y-92300792D01*
X149127910Y-92300791D01*
X149037621Y-92169985D01*
X149037620Y-92169984D01*
X149033653Y-92165506D01*
X149035847Y-92163562D01*
X149010783Y-92120962D01*
X149016678Y-92060061D01*
X149037441Y-92029582D01*
X149093624Y-91973400D01*
X149184082Y-91829437D01*
X149235154Y-91683479D01*
X149240235Y-91668960D01*
X149240236Y-91668956D01*
X149240237Y-91668954D01*
X149247170Y-91607413D01*
X149272474Y-91551707D01*
X149325689Y-91521511D01*
X149345548Y-91519499D01*
X149825064Y-91519499D01*
X149825066Y-91519499D01*
X149899301Y-91504734D01*
X149944998Y-91474199D01*
X150003885Y-91457590D01*
X150054999Y-91474198D01*
X150100699Y-91504734D01*
X150174933Y-91519500D01*
X150573299Y-91519499D01*
X150631490Y-91538406D01*
X150654773Y-91562259D01*
X150681402Y-91600837D01*
X150706502Y-91637201D01*
X150706502Y-91637202D01*
X150809248Y-91728227D01*
X150825471Y-91742599D01*
X150966207Y-91816463D01*
X151120529Y-91854500D01*
X151120532Y-91854500D01*
X151279468Y-91854500D01*
X151279471Y-91854500D01*
X151433793Y-91816463D01*
X151574529Y-91742599D01*
X151693498Y-91637201D01*
X151783787Y-91506395D01*
X151840149Y-91357782D01*
X151856759Y-91220983D01*
X151859307Y-91200001D01*
X151859307Y-91199998D01*
X151840149Y-91042219D01*
X151840146Y-91042210D01*
X151783789Y-90893609D01*
X151783787Y-90893606D01*
X151783787Y-90893605D01*
X151693498Y-90762799D01*
X151693497Y-90762798D01*
X151693497Y-90762797D01*
X151574535Y-90657406D01*
X151574533Y-90657404D01*
X151574529Y-90657401D01*
X151574525Y-90657399D01*
X151574524Y-90657398D01*
X151433791Y-90583536D01*
X151279473Y-90545500D01*
X151279471Y-90545500D01*
X151236855Y-90545500D01*
X151178664Y-90526593D01*
X151142700Y-90477093D01*
X151139757Y-90465815D01*
X151139734Y-90465699D01*
X151138932Y-90464499D01*
X151083486Y-90381519D01*
X151083484Y-90381516D01*
X150999301Y-90325266D01*
X150925067Y-90310500D01*
X150925066Y-90310500D01*
X150174936Y-90310500D01*
X150174929Y-90310501D01*
X150100699Y-90325265D01*
X150100698Y-90325266D01*
X150055000Y-90355801D01*
X149996112Y-90372409D01*
X149944998Y-90355800D01*
X149899301Y-90325266D01*
X149825067Y-90310500D01*
X149825066Y-90310500D01*
X149074936Y-90310500D01*
X149074929Y-90310501D01*
X149000699Y-90325265D01*
X149000697Y-90325266D01*
X148913075Y-90383815D01*
X148858073Y-90400500D01*
X148496420Y-90400500D01*
X148451475Y-90389709D01*
X148393427Y-90360132D01*
X148393428Y-90360132D01*
X148301046Y-90345500D01*
X147898953Y-90345500D01*
X147806573Y-90360132D01*
X147806569Y-90360133D01*
X147695230Y-90416864D01*
X147606864Y-90505230D01*
X147550132Y-90616571D01*
X147535500Y-90708953D01*
X147535500Y-91051046D01*
X147550132Y-91143426D01*
X147550133Y-91143430D01*
X147587470Y-91216706D01*
X147606865Y-91254771D01*
X147695229Y-91343135D01*
X147695231Y-91343136D01*
X147701531Y-91347713D01*
X147700521Y-91349101D01*
X147737119Y-91385693D01*
X147747291Y-91441728D01*
X147740726Y-91500002D01*
X147740726Y-91500004D01*
X147759761Y-91668948D01*
X147759764Y-91668960D01*
X147815918Y-91829437D01*
X147815918Y-91829438D01*
X147894874Y-91955095D01*
X147906376Y-91973400D01*
X148013658Y-92080682D01*
X148041434Y-92135197D01*
X148031863Y-92195629D01*
X148025129Y-92206922D01*
X147960335Y-92300792D01*
X147960333Y-92300795D01*
X147903976Y-92449396D01*
X147903973Y-92449405D01*
X147884816Y-92607184D01*
X147884816Y-92607187D01*
X147903973Y-92764966D01*
X147903974Y-92764968D01*
X147957603Y-92906376D01*
X147959507Y-92911394D01*
X147962463Y-92972508D01*
X147928933Y-93023688D01*
X147871723Y-93045384D01*
X147866940Y-93045500D01*
X147575566Y-93045500D01*
X147570016Y-93045344D01*
X147541652Y-93043751D01*
X147273991Y-93028718D01*
X147262960Y-93027475D01*
X146973401Y-92978277D01*
X146962577Y-92975807D01*
X146680339Y-92894495D01*
X146669860Y-92890828D01*
X146398505Y-92778428D01*
X146388503Y-92773611D01*
X146131441Y-92631538D01*
X146122041Y-92625631D01*
X145882498Y-92455666D01*
X145873824Y-92448749D01*
X145652702Y-92251142D01*
X145648669Y-92247330D01*
X144712509Y-91311170D01*
X144712501Y-91311155D01*
X144622325Y-91220981D01*
X144533643Y-91152935D01*
X144485029Y-91115633D01*
X144485024Y-91115630D01*
X144376267Y-91052839D01*
X144335326Y-91007370D01*
X144328930Y-90946520D01*
X144359523Y-90893532D01*
X144373644Y-90882935D01*
X144418462Y-90855186D01*
X144569732Y-90717285D01*
X144693088Y-90553935D01*
X144784328Y-90370701D01*
X144791993Y-90343758D01*
X144826100Y-90292965D01*
X144858468Y-90276116D01*
X144970843Y-90242029D01*
X145299402Y-90105935D01*
X145452659Y-90024017D01*
X145613036Y-89938295D01*
X145623895Y-89931039D01*
X145908734Y-89740716D01*
X146183639Y-89515107D01*
X146435107Y-89263639D01*
X146660716Y-88988734D01*
X146858293Y-88693039D01*
X146859454Y-88690868D01*
X146947523Y-88526101D01*
X147025935Y-88379402D01*
X147162029Y-88050843D01*
X147162030Y-88050837D01*
X147162033Y-88050832D01*
X147170495Y-88022936D01*
X147205479Y-87972739D01*
X147263287Y-87952692D01*
X147321838Y-87970453D01*
X147356697Y-88013790D01*
X147428931Y-88188190D01*
X147428941Y-88188213D01*
X147515900Y-88350907D01*
X147567226Y-88446936D01*
X147730209Y-88690868D01*
X147730214Y-88690874D01*
X147730216Y-88690877D01*
X147832299Y-88815271D01*
X147854598Y-88872248D01*
X147854048Y-88890007D01*
X147840693Y-88999998D01*
X147840693Y-89000001D01*
X147859850Y-89157780D01*
X147859853Y-89157789D01*
X147916210Y-89306390D01*
X147916212Y-89306393D01*
X147916213Y-89306395D01*
X147973000Y-89388665D01*
X148006502Y-89437201D01*
X148006502Y-89437202D01*
X148125464Y-89542593D01*
X148125471Y-89542599D01*
X148266207Y-89616463D01*
X148420529Y-89654500D01*
X148420532Y-89654500D01*
X148579468Y-89654500D01*
X148579471Y-89654500D01*
X148733793Y-89616463D01*
X148789225Y-89587369D01*
X148849535Y-89577068D01*
X148904383Y-89604184D01*
X148915026Y-89616993D01*
X148916513Y-89618480D01*
X148916516Y-89618484D01*
X149000699Y-89674734D01*
X149074933Y-89689500D01*
X149825066Y-89689499D01*
X149899301Y-89674734D01*
X149945447Y-89643899D01*
X150004334Y-89627290D01*
X150055451Y-89643899D01*
X150100893Y-89674263D01*
X150174981Y-89688999D01*
X150296000Y-89688999D01*
X150296000Y-89339001D01*
X150804000Y-89339001D01*
X150804000Y-89688998D01*
X150804001Y-89688999D01*
X150925012Y-89688999D01*
X150925022Y-89688998D01*
X150999104Y-89674263D01*
X150999107Y-89674262D01*
X151083121Y-89618125D01*
X151083125Y-89618121D01*
X151139263Y-89534106D01*
X151153999Y-89460019D01*
X151154000Y-89460016D01*
X151154000Y-89339001D01*
X151153999Y-89339000D01*
X150804001Y-89339000D01*
X150804000Y-89339001D01*
X150296000Y-89339001D01*
X150296000Y-88481001D01*
X150804000Y-88481001D01*
X150804000Y-88830999D01*
X150804001Y-88831000D01*
X151153998Y-88831000D01*
X151153999Y-88830999D01*
X151153999Y-88709987D01*
X151153998Y-88709977D01*
X151139263Y-88635895D01*
X151139262Y-88635892D01*
X151083125Y-88551878D01*
X151083121Y-88551874D01*
X150999106Y-88495736D01*
X150925019Y-88481000D01*
X150804001Y-88481000D01*
X150804000Y-88481001D01*
X150296000Y-88481001D01*
X150295999Y-88481000D01*
X150174986Y-88481000D01*
X150174976Y-88481001D01*
X150100895Y-88495736D01*
X150100889Y-88495738D01*
X150055448Y-88526101D01*
X149996560Y-88542709D01*
X149945447Y-88526100D01*
X149899301Y-88495266D01*
X149825067Y-88480500D01*
X149825066Y-88480500D01*
X149152238Y-88480500D01*
X149094047Y-88461593D01*
X149058083Y-88412093D01*
X149058083Y-88350907D01*
X149070760Y-88325267D01*
X149083787Y-88306395D01*
X149140149Y-88157782D01*
X149158252Y-88008686D01*
X149159307Y-88000001D01*
X149159307Y-87999998D01*
X149142461Y-87861257D01*
X149140149Y-87842218D01*
X149126387Y-87805930D01*
X149083789Y-87693609D01*
X149083787Y-87693606D01*
X149083787Y-87693605D01*
X148993498Y-87562799D01*
X148993497Y-87562798D01*
X148993497Y-87562797D01*
X148874535Y-87457406D01*
X148874533Y-87457404D01*
X148874529Y-87457401D01*
X148874525Y-87457399D01*
X148874524Y-87457398D01*
X148734831Y-87384082D01*
X148733793Y-87383537D01*
X148733792Y-87383536D01*
X148733791Y-87383536D01*
X148579473Y-87345500D01*
X148579471Y-87345500D01*
X148540280Y-87345500D01*
X148482089Y-87326593D01*
X148446534Y-87278322D01*
X148442017Y-87265014D01*
X148402674Y-87149113D01*
X148399327Y-87136624D01*
X148367338Y-86975800D01*
X148365649Y-86962967D01*
X148365507Y-86960805D01*
X148359488Y-86868954D01*
X148354712Y-86796076D01*
X148354500Y-86789602D01*
X148354500Y-83403240D01*
X148354712Y-83396765D01*
X148358263Y-83342593D01*
X148369631Y-83169134D01*
X148371321Y-83156303D01*
X148373843Y-83143624D01*
X148415194Y-82935736D01*
X148418539Y-82923255D01*
X148490827Y-82710298D01*
X148495772Y-82698362D01*
X148595236Y-82496668D01*
X148601708Y-82485459D01*
X148632789Y-82438943D01*
X148726643Y-82298479D01*
X148734513Y-82288222D01*
X148884919Y-82116715D01*
X148889319Y-82112018D01*
X149083671Y-81917668D01*
X149083671Y-81917666D01*
X149091817Y-81909521D01*
X149091820Y-81909516D01*
X149341700Y-81659637D01*
X149341714Y-81659630D01*
X149367832Y-81633511D01*
X149367833Y-81633512D01*
X149429018Y-81572326D01*
X149534368Y-81435029D01*
X149620896Y-81285155D01*
X149687122Y-81125269D01*
X149731912Y-80958107D01*
X149754500Y-80786529D01*
X149754500Y-80700000D01*
X149754500Y-80643853D01*
X149754500Y-80636163D01*
X149754489Y-80636023D01*
X149754489Y-80525349D01*
X149736224Y-80316585D01*
X149724048Y-80177404D01*
X149663396Y-79833427D01*
X149572995Y-79496045D01*
X149453535Y-79167826D01*
X149305922Y-78851267D01*
X149131282Y-78548778D01*
X148930943Y-78262661D01*
X148926529Y-78257401D01*
X148832635Y-78145500D01*
X148706430Y-77995092D01*
X148670612Y-77959274D01*
X148615941Y-77904602D01*
X148463495Y-77752155D01*
X148435718Y-77697639D01*
X148434499Y-77682152D01*
X148434499Y-77484344D01*
X148434498Y-77484342D01*
X148420055Y-77393142D01*
X148420054Y-77393140D01*
X148420054Y-77393138D01*
X148364040Y-77283204D01*
X148276796Y-77195960D01*
X148246082Y-77180310D01*
X148202819Y-77137046D01*
X148193248Y-77076614D01*
X148221022Y-77022102D01*
X148233941Y-77009183D01*
X148248903Y-76998316D01*
X148248466Y-76997715D01*
X148254764Y-76993138D01*
X148254771Y-76993135D01*
X148343135Y-76904771D01*
X148399868Y-76793427D01*
X148414500Y-76701045D01*
X148414499Y-76684624D01*
X148433403Y-76626435D01*
X148443488Y-76614625D01*
X149146733Y-75911381D01*
X149146739Y-75911377D01*
X149153842Y-75904274D01*
X149153845Y-75904273D01*
X149169480Y-75888637D01*
X149169509Y-75888622D01*
X149198488Y-75859641D01*
X149198489Y-75859642D01*
X149286075Y-75772053D01*
X149440532Y-75578365D01*
X149489249Y-75500828D01*
X149536217Y-75461616D01*
X149573076Y-75454499D01*
X149619749Y-75454499D01*
X149625888Y-75453923D01*
X149650451Y-75451621D01*
X149779773Y-75406369D01*
X149780380Y-75405921D01*
X149890005Y-75325014D01*
X149890006Y-75325012D01*
X149890010Y-75325010D01*
X149920344Y-75283908D01*
X149970112Y-75248316D01*
X150031295Y-75248773D01*
X150079656Y-75283909D01*
X150109987Y-75325007D01*
X150109994Y-75325014D01*
X150220223Y-75406367D01*
X150220229Y-75406370D01*
X150274140Y-75425234D01*
X150349549Y-75451621D01*
X150380251Y-75454500D01*
X150889748Y-75454499D01*
X150889749Y-75454499D01*
X150895888Y-75453923D01*
X150920451Y-75451621D01*
X151049773Y-75406369D01*
X151050380Y-75405921D01*
X151160005Y-75325014D01*
X151160006Y-75325012D01*
X151160010Y-75325010D01*
X151190655Y-75283486D01*
X151240421Y-75247895D01*
X151301604Y-75248351D01*
X151349965Y-75283487D01*
X151380343Y-75324648D01*
X151380351Y-75324656D01*
X151490462Y-75405921D01*
X151619638Y-75451122D01*
X151619639Y-75451123D01*
X151650317Y-75454000D01*
X151650999Y-75454000D01*
X151651000Y-75453999D01*
X151651000Y-74554001D01*
X152159000Y-74554001D01*
X152159000Y-75453999D01*
X152159001Y-75454000D01*
X152159683Y-75454000D01*
X152190360Y-75451123D01*
X152190361Y-75451122D01*
X152319537Y-75405921D01*
X152429648Y-75324656D01*
X152429656Y-75324648D01*
X152510921Y-75214537D01*
X152556122Y-75085361D01*
X152556123Y-75085360D01*
X152559000Y-75054683D01*
X152559000Y-74554001D01*
X152558999Y-74554000D01*
X152159001Y-74554000D01*
X152159000Y-74554001D01*
X151651000Y-74554001D01*
X151651000Y-74524933D01*
X154245500Y-74524933D01*
X154245500Y-75575063D01*
X154245501Y-75575070D01*
X154260265Y-75649300D01*
X154260266Y-75649302D01*
X154316513Y-75733480D01*
X154316516Y-75733484D01*
X154400699Y-75789734D01*
X154474933Y-75804500D01*
X155035377Y-75804499D01*
X155093568Y-75823406D01*
X155110658Y-75839205D01*
X155176431Y-75916218D01*
X155185562Y-75928786D01*
X155264998Y-76058417D01*
X155272050Y-76072257D01*
X155290360Y-76116463D01*
X155297167Y-76132895D01*
X155301968Y-76193892D01*
X155293913Y-76215725D01*
X155279946Y-76243136D01*
X155265500Y-76334345D01*
X155265500Y-76765654D01*
X155265501Y-76765657D01*
X155279944Y-76856857D01*
X155279945Y-76856860D01*
X155279946Y-76856862D01*
X155335960Y-76966796D01*
X155423204Y-77054040D01*
X155423206Y-77054041D01*
X155533131Y-77110051D01*
X155533133Y-77110051D01*
X155533138Y-77110054D01*
X155624347Y-77124500D01*
X155955652Y-77124499D01*
X155955654Y-77124499D01*
X155955655Y-77124498D01*
X156009494Y-77115972D01*
X156046857Y-77110055D01*
X156046857Y-77110054D01*
X156046862Y-77110054D01*
X156156796Y-77054040D01*
X156229997Y-76980838D01*
X156284511Y-76953062D01*
X156344943Y-76962633D01*
X156369997Y-76980834D01*
X156376498Y-76987334D01*
X156404280Y-77041848D01*
X156405500Y-77057343D01*
X156405500Y-80504012D01*
X156434910Y-80689708D01*
X156492268Y-80866235D01*
X156493013Y-80868529D01*
X156537752Y-80956334D01*
X156551315Y-80982954D01*
X156578372Y-81036055D01*
X156688886Y-81188165D01*
X156821835Y-81321114D01*
X156973945Y-81431628D01*
X157141471Y-81516987D01*
X157320287Y-81575088D01*
X157320288Y-81575088D01*
X157320291Y-81575089D01*
X157505988Y-81604500D01*
X157505991Y-81604500D01*
X157541842Y-81604500D01*
X157593512Y-81604500D01*
X157606432Y-81605347D01*
X157625043Y-81607796D01*
X157669847Y-81613695D01*
X157694801Y-81620380D01*
X157747857Y-81642355D01*
X157770234Y-81655275D01*
X157820906Y-81694155D01*
X157830645Y-81702694D01*
X158816056Y-82688105D01*
X158843833Y-82742622D01*
X158844330Y-82770041D01*
X158840693Y-82799997D01*
X158840693Y-82800002D01*
X158859850Y-82957780D01*
X158859853Y-82957789D01*
X158916210Y-83106390D01*
X158916212Y-83106393D01*
X158916213Y-83106395D01*
X158988992Y-83211834D01*
X159006502Y-83237201D01*
X159006502Y-83237202D01*
X159121763Y-83339314D01*
X159125471Y-83342599D01*
X159266207Y-83416463D01*
X159420529Y-83454500D01*
X159420532Y-83454500D01*
X159579468Y-83454500D01*
X159579471Y-83454500D01*
X159733793Y-83416463D01*
X159874529Y-83342599D01*
X159993498Y-83237201D01*
X160083787Y-83106395D01*
X160083788Y-83106390D01*
X160086887Y-83101902D01*
X160135503Y-83064752D01*
X160196671Y-83063273D01*
X160247026Y-83098030D01*
X160252779Y-83106420D01*
X160253407Y-83107445D01*
X160267685Y-83166941D01*
X160252818Y-83211834D01*
X160215918Y-83270562D01*
X160159764Y-83431039D01*
X160159761Y-83431051D01*
X160140726Y-83599995D01*
X160140726Y-83600004D01*
X160159761Y-83768948D01*
X160159764Y-83768960D01*
X160215918Y-83929437D01*
X160215918Y-83929438D01*
X160306373Y-84073396D01*
X160306376Y-84073400D01*
X160426600Y-84193624D01*
X160426602Y-84193625D01*
X160426603Y-84193626D01*
X160551143Y-84271880D01*
X160570563Y-84284082D01*
X160633382Y-84306063D01*
X160731039Y-84340235D01*
X160731043Y-84340236D01*
X160731046Y-84340237D01*
X160731047Y-84340237D01*
X160731051Y-84340238D01*
X160899996Y-84359274D01*
X160900000Y-84359274D01*
X160900004Y-84359274D01*
X161068948Y-84340238D01*
X161068950Y-84340237D01*
X161068954Y-84340237D01*
X161229437Y-84284082D01*
X161373400Y-84193624D01*
X161493624Y-84073400D01*
X161584082Y-83929437D01*
X161640237Y-83768954D01*
X161641973Y-83753544D01*
X161667273Y-83697838D01*
X161720487Y-83667640D01*
X161781288Y-83674488D01*
X161820853Y-83707005D01*
X161940051Y-83873534D01*
X161958546Y-83931857D01*
X161942405Y-83985337D01*
X161911045Y-84033293D01*
X161911042Y-84033301D01*
X161869586Y-84170449D01*
X161868451Y-84313718D01*
X161882749Y-84371654D01*
X162082089Y-84919335D01*
X162108377Y-84972911D01*
X162108378Y-84972912D01*
X162201341Y-85081933D01*
X162321254Y-85160347D01*
X162458401Y-85201802D01*
X162601671Y-85202939D01*
X162659615Y-85188638D01*
X163606653Y-84843943D01*
X163660235Y-84817653D01*
X163769255Y-84724690D01*
X163847670Y-84604777D01*
X163889125Y-84467630D01*
X163890261Y-84324360D01*
X163875960Y-84266416D01*
X163676624Y-83718747D01*
X163650334Y-83665166D01*
X163594770Y-83600004D01*
X163557372Y-83556146D01*
X163557371Y-83556145D01*
X163451900Y-83487175D01*
X163438212Y-83478224D01*
X163399858Y-83430552D01*
X163396849Y-83369441D01*
X163430335Y-83318232D01*
X163487526Y-83296487D01*
X163503479Y-83296990D01*
X163612496Y-83309274D01*
X163612500Y-83309274D01*
X163612504Y-83309274D01*
X163781448Y-83290238D01*
X163781450Y-83290237D01*
X163781454Y-83290237D01*
X163785687Y-83288756D01*
X163837682Y-83270562D01*
X163941937Y-83234082D01*
X164085900Y-83143624D01*
X164206124Y-83023400D01*
X164296582Y-82879437D01*
X164352737Y-82718954D01*
X164361591Y-82640374D01*
X164371774Y-82550004D01*
X164371774Y-82549995D01*
X164352738Y-82381051D01*
X164352735Y-82381039D01*
X164325914Y-82304391D01*
X164296582Y-82220563D01*
X164260200Y-82162662D01*
X164206126Y-82076603D01*
X164206125Y-82076602D01*
X164206124Y-82076600D01*
X164085900Y-81956376D01*
X164085897Y-81956374D01*
X164085896Y-81956373D01*
X163941938Y-81865918D01*
X163781460Y-81809764D01*
X163781448Y-81809761D01*
X163612504Y-81790726D01*
X163612496Y-81790726D01*
X163443551Y-81809761D01*
X163443539Y-81809764D01*
X163283062Y-81865918D01*
X163283061Y-81865918D01*
X163139103Y-81956373D01*
X163018873Y-82076603D01*
X162928418Y-82220561D01*
X162928418Y-82220562D01*
X162872264Y-82381039D01*
X162872261Y-82381051D01*
X162853226Y-82549995D01*
X162853226Y-82550004D01*
X162872261Y-82718948D01*
X162872264Y-82718960D01*
X162928418Y-82879437D01*
X162928418Y-82879438D01*
X163004948Y-83001234D01*
X163018876Y-83023400D01*
X163139100Y-83143624D01*
X163139102Y-83143625D01*
X163139103Y-83143626D01*
X163249256Y-83212840D01*
X163283063Y-83234082D01*
X163291977Y-83237201D01*
X163310404Y-83243649D01*
X163359084Y-83280714D01*
X163376681Y-83339314D01*
X163356473Y-83397066D01*
X163306178Y-83431910D01*
X163276921Y-83436090D01*
X163159521Y-83435158D01*
X163157041Y-83435139D01*
X163157040Y-83435139D01*
X163099101Y-83449438D01*
X162993787Y-83487769D01*
X162932639Y-83489904D01*
X162881914Y-83455689D01*
X162879425Y-83452361D01*
X162848669Y-83409393D01*
X160577206Y-80235982D01*
X161754739Y-80235982D01*
X161754739Y-80235991D01*
X161773774Y-80404935D01*
X161773777Y-80404947D01*
X161829931Y-80565424D01*
X161829931Y-80565425D01*
X161920386Y-80709383D01*
X161920389Y-80709387D01*
X162040613Y-80829611D01*
X162040615Y-80829612D01*
X162040616Y-80829613D01*
X162117930Y-80878193D01*
X162184576Y-80920069D01*
X162238495Y-80938936D01*
X162345052Y-80976222D01*
X162345056Y-80976223D01*
X162345059Y-80976224D01*
X162345060Y-80976224D01*
X162345064Y-80976225D01*
X162514009Y-80995261D01*
X162514013Y-80995261D01*
X162514017Y-80995261D01*
X162682961Y-80976225D01*
X162682963Y-80976224D01*
X162682967Y-80976224D01*
X162843450Y-80920069D01*
X162987413Y-80829611D01*
X163107637Y-80709387D01*
X163198095Y-80565424D01*
X163254250Y-80404941D01*
X163255012Y-80398179D01*
X163273287Y-80235991D01*
X163273287Y-80235982D01*
X163254251Y-80067038D01*
X163254248Y-80067026D01*
X163211194Y-79943986D01*
X163198095Y-79906550D01*
X163163968Y-79852238D01*
X163107639Y-79762590D01*
X163107638Y-79762589D01*
X163107637Y-79762587D01*
X162987413Y-79642363D01*
X162987410Y-79642361D01*
X162987409Y-79642360D01*
X162843451Y-79551905D01*
X162682973Y-79495751D01*
X162682961Y-79495748D01*
X162514017Y-79476713D01*
X162514009Y-79476713D01*
X162345064Y-79495748D01*
X162345052Y-79495751D01*
X162184575Y-79551905D01*
X162184574Y-79551905D01*
X162040616Y-79642360D01*
X161920386Y-79762590D01*
X161829931Y-79906548D01*
X161829931Y-79906549D01*
X161773777Y-80067026D01*
X161773774Y-80067038D01*
X161754739Y-80235982D01*
X160577206Y-80235982D01*
X160543565Y-80188983D01*
X160525071Y-80130661D01*
X160544390Y-80072606D01*
X160548220Y-80067739D01*
X160610477Y-79993545D01*
X160643735Y-79943986D01*
X160691668Y-79808968D01*
X160699620Y-79665913D01*
X160666948Y-79526412D01*
X160650140Y-79496760D01*
X160631776Y-79464362D01*
X160596297Y-79401769D01*
X160596296Y-79401768D01*
X160596295Y-79401766D01*
X160596294Y-79401765D01*
X160554942Y-79358740D01*
X160554941Y-79358739D01*
X160550052Y-79354637D01*
X160410098Y-79237201D01*
X160108485Y-78984118D01*
X160108480Y-78984114D01*
X160108476Y-78984111D01*
X160069253Y-78957789D01*
X160058916Y-78950852D01*
X159923897Y-78902919D01*
X159923898Y-78902919D01*
X159780846Y-78894967D01*
X159780845Y-78894967D01*
X159780844Y-78894967D01*
X159691686Y-78915849D01*
X159641342Y-78927640D01*
X159641339Y-78927641D01*
X159516701Y-78998289D01*
X159473670Y-79039646D01*
X159473660Y-79039656D01*
X158961171Y-79650419D01*
X158909283Y-79682842D01*
X158848247Y-79678574D01*
X158801376Y-79639245D01*
X158786333Y-79586783D01*
X158786333Y-79286526D01*
X158805240Y-79228335D01*
X158809495Y-79222890D01*
X158822945Y-79206862D01*
X159174143Y-78788319D01*
X159207401Y-78738760D01*
X159255334Y-78603742D01*
X159263286Y-78460687D01*
X159230614Y-78321186D01*
X159226515Y-78313955D01*
X159182752Y-78236747D01*
X159159963Y-78196543D01*
X159159962Y-78196542D01*
X159159961Y-78196540D01*
X159159960Y-78196539D01*
X159118608Y-78153514D01*
X159118607Y-78153513D01*
X159109057Y-78145500D01*
X158962746Y-78022730D01*
X158672151Y-77778892D01*
X158672146Y-77778888D01*
X158672142Y-77778885D01*
X158672129Y-77778876D01*
X158622582Y-77745626D01*
X158487564Y-77697693D01*
X158349031Y-77689992D01*
X158291980Y-77667884D01*
X158258819Y-77616464D01*
X158262216Y-77555373D01*
X158300872Y-77507946D01*
X158308520Y-77503485D01*
X158344991Y-77484344D01*
X158424529Y-77442599D01*
X158543498Y-77337201D01*
X158633787Y-77206395D01*
X158690149Y-77057782D01*
X158709307Y-76900000D01*
X158708814Y-76895942D01*
X158692214Y-76759225D01*
X158690149Y-76742218D01*
X158681912Y-76720500D01*
X158656352Y-76653102D01*
X161450260Y-76653102D01*
X161450260Y-76653106D01*
X161478589Y-76750299D01*
X161478591Y-76750303D01*
X161525966Y-76809331D01*
X161525968Y-76809333D01*
X161525971Y-76809336D01*
X162604661Y-77714462D01*
X162637084Y-77766350D01*
X162637289Y-77767188D01*
X162646366Y-77804997D01*
X162761272Y-78158649D01*
X162835981Y-78339014D01*
X162903567Y-78502184D01*
X163069368Y-78827593D01*
X163072380Y-78833503D01*
X163072381Y-78833506D01*
X163266663Y-79150550D01*
X163331548Y-79239856D01*
X163485226Y-79451377D01*
X163485232Y-79451384D01*
X163485239Y-79451393D01*
X163726711Y-79734123D01*
X163726718Y-79734130D01*
X163805572Y-79812985D01*
X163805575Y-79812988D01*
X163811217Y-79818630D01*
X163811218Y-79818632D01*
X164895088Y-80902502D01*
X165983722Y-81991136D01*
X166011499Y-82045653D01*
X166008939Y-82088232D01*
X165977640Y-82198238D01*
X165962617Y-82360357D01*
X165957898Y-82411288D01*
X165977640Y-82624336D01*
X166036193Y-82830128D01*
X166131563Y-83021658D01*
X166260503Y-83192402D01*
X166418622Y-83336546D01*
X166600534Y-83449181D01*
X166800047Y-83526473D01*
X167010364Y-83565788D01*
X167224324Y-83565788D01*
X167434641Y-83526473D01*
X167634154Y-83449181D01*
X167816066Y-83336546D01*
X167974185Y-83192402D01*
X168103125Y-83021658D01*
X168198495Y-82830128D01*
X168257048Y-82624336D01*
X168276790Y-82411288D01*
X168257048Y-82198240D01*
X168198495Y-81992448D01*
X168103125Y-81800918D01*
X167974185Y-81630174D01*
X167816066Y-81486030D01*
X167634154Y-81373395D01*
X167434641Y-81296103D01*
X167434640Y-81296102D01*
X167434638Y-81296102D01*
X167224324Y-81256788D01*
X167010364Y-81256788D01*
X166800055Y-81296101D01*
X166800050Y-81296102D01*
X166800047Y-81296103D01*
X166800043Y-81296104D01*
X166800031Y-81296108D01*
X166799340Y-81296376D01*
X166799029Y-81296393D01*
X166795646Y-81297356D01*
X166795428Y-81296592D01*
X166738248Y-81299757D01*
X166693588Y-81274060D01*
X164573175Y-79153647D01*
X164570188Y-79150526D01*
X164565561Y-79145477D01*
X164506186Y-79080679D01*
X164355148Y-78915849D01*
X164349597Y-78909233D01*
X164265780Y-78800000D01*
X164157134Y-78658408D01*
X164152200Y-78651361D01*
X163982317Y-78384696D01*
X163978020Y-78377253D01*
X163832023Y-78096792D01*
X163828382Y-78088981D01*
X163794411Y-78006967D01*
X163707396Y-77796891D01*
X163704445Y-77788782D01*
X163703070Y-77784421D01*
X163642757Y-77593127D01*
X163643291Y-77531946D01*
X163661334Y-77499729D01*
X164455726Y-76553010D01*
X164492132Y-76486652D01*
X164503154Y-76386007D01*
X164503153Y-76386003D01*
X164503153Y-76386001D01*
X164474824Y-76288808D01*
X164474823Y-76288807D01*
X164474823Y-76288805D01*
X164427448Y-76229777D01*
X164427444Y-76229774D01*
X164427442Y-76229771D01*
X163010166Y-75040537D01*
X163010163Y-75040535D01*
X162943808Y-75004130D01*
X162943807Y-75004129D01*
X162893482Y-74998618D01*
X162843160Y-74993107D01*
X162843159Y-74993107D01*
X162843158Y-74993107D01*
X162843154Y-74993107D01*
X162745961Y-75021436D01*
X162745957Y-75021438D01*
X162686930Y-75068813D01*
X162686924Y-75068818D01*
X161497690Y-76486094D01*
X161497688Y-76486097D01*
X161461283Y-76552452D01*
X161461282Y-76552453D01*
X161450260Y-76653102D01*
X158656352Y-76653102D01*
X158633789Y-76593609D01*
X158633787Y-76593606D01*
X158633787Y-76593605D01*
X158543498Y-76462799D01*
X158543497Y-76462798D01*
X158543497Y-76462797D01*
X158424535Y-76357406D01*
X158424533Y-76357404D01*
X158424529Y-76357401D01*
X158424525Y-76357399D01*
X158424524Y-76357398D01*
X158283791Y-76283536D01*
X158129473Y-76245500D01*
X158129471Y-76245500D01*
X157970529Y-76245500D01*
X157970526Y-76245500D01*
X157816208Y-76283536D01*
X157675475Y-76357398D01*
X157675464Y-76357406D01*
X157556502Y-76462797D01*
X157556500Y-76462800D01*
X157514974Y-76522961D01*
X157466357Y-76560110D01*
X157405190Y-76561588D01*
X157354835Y-76526831D01*
X157334528Y-76469114D01*
X157334499Y-76466722D01*
X157334499Y-76334345D01*
X157334498Y-76334342D01*
X157320055Y-76243142D01*
X157320054Y-76243140D01*
X157320054Y-76243138D01*
X157264040Y-76133204D01*
X157176796Y-76045960D01*
X157176793Y-76045958D01*
X157066868Y-75989948D01*
X157066863Y-75989946D01*
X157066862Y-75989946D01*
X157035678Y-75985007D01*
X156975655Y-75975500D01*
X156847641Y-75975500D01*
X156789450Y-75956593D01*
X156753486Y-75907093D01*
X156753486Y-75845907D01*
X156789450Y-75796407D01*
X156792639Y-75794185D01*
X156799299Y-75789734D01*
X156799301Y-75789734D01*
X156883484Y-75733484D01*
X156939734Y-75649301D01*
X156954500Y-75575067D01*
X156954499Y-75189778D01*
X156973406Y-75131588D01*
X157009709Y-75100990D01*
X157066253Y-75073106D01*
X157078194Y-75068159D01*
X157237989Y-75013914D01*
X157250493Y-75010564D01*
X157416001Y-74977640D01*
X157428827Y-74975952D01*
X157470555Y-74973217D01*
X157521975Y-74983794D01*
X157593138Y-75020054D01*
X157684347Y-75034500D01*
X158115652Y-75034499D01*
X158115654Y-75034499D01*
X158115655Y-75034498D01*
X158161257Y-75027276D01*
X158206857Y-75020055D01*
X158206857Y-75020054D01*
X158206862Y-75020054D01*
X158316796Y-74964040D01*
X158404040Y-74876796D01*
X158447055Y-74792373D01*
X158490317Y-74749111D01*
X158550749Y-74739539D01*
X158605266Y-74767316D01*
X158605267Y-74767316D01*
X158878647Y-75040696D01*
X158878664Y-75040715D01*
X158882941Y-75044992D01*
X158882942Y-75044993D01*
X158898249Y-75060300D01*
X158904973Y-75067023D01*
X158932752Y-75121539D01*
X158923181Y-75181971D01*
X158916450Y-75193261D01*
X158916215Y-75193600D01*
X158916210Y-75193609D01*
X158859853Y-75342210D01*
X158859850Y-75342219D01*
X158840693Y-75499998D01*
X158840693Y-75500001D01*
X158859850Y-75657780D01*
X158859853Y-75657789D01*
X158916210Y-75806390D01*
X158916212Y-75806393D01*
X158916213Y-75806395D01*
X158992188Y-75916463D01*
X159006502Y-75937201D01*
X159006502Y-75937202D01*
X159121939Y-76039470D01*
X159125471Y-76042599D01*
X159266207Y-76116463D01*
X159420529Y-76154500D01*
X159420532Y-76154500D01*
X159579468Y-76154500D01*
X159579471Y-76154500D01*
X159733793Y-76116463D01*
X159874529Y-76042599D01*
X159993498Y-75937201D01*
X160083787Y-75806395D01*
X160094358Y-75778521D01*
X160132670Y-75730818D01*
X160191706Y-75714744D01*
X160248916Y-75736440D01*
X160253602Y-75740451D01*
X160332232Y-75812131D01*
X160514144Y-75924766D01*
X160713657Y-76002058D01*
X160923974Y-76041373D01*
X161137934Y-76041373D01*
X161348251Y-76002058D01*
X161547764Y-75924766D01*
X161729676Y-75812131D01*
X161887795Y-75667987D01*
X162016735Y-75497243D01*
X162112105Y-75305713D01*
X162170658Y-75099921D01*
X162190400Y-74886873D01*
X162170658Y-74673825D01*
X162112105Y-74468033D01*
X162016735Y-74276503D01*
X161887795Y-74105759D01*
X161729676Y-73961615D01*
X161547764Y-73848980D01*
X161348251Y-73771688D01*
X161348250Y-73771687D01*
X161348248Y-73771687D01*
X161137934Y-73732373D01*
X160923974Y-73732373D01*
X160713659Y-73771687D01*
X160640316Y-73800100D01*
X160514144Y-73848980D01*
X160344416Y-73954071D01*
X160332229Y-73961617D01*
X160194710Y-74086982D01*
X160174113Y-74105759D01*
X160163310Y-74120065D01*
X160045174Y-74276501D01*
X160045169Y-74276510D01*
X159949804Y-74468030D01*
X159949803Y-74468033D01*
X159891250Y-74673825D01*
X159885660Y-74734146D01*
X159861465Y-74790343D01*
X159808857Y-74821586D01*
X159747933Y-74815940D01*
X159701963Y-74775562D01*
X159701347Y-74774512D01*
X159672001Y-74723684D01*
X159671998Y-74723681D01*
X159671997Y-74723678D01*
X159560728Y-74578676D01*
X159496106Y-74514057D01*
X158503495Y-73521446D01*
X158475718Y-73466929D01*
X158474499Y-73451442D01*
X158474499Y-73324344D01*
X158474498Y-73324342D01*
X158460055Y-73233142D01*
X158460054Y-73233140D01*
X158460054Y-73233138D01*
X158404040Y-73123204D01*
X158316796Y-73035960D01*
X158316793Y-73035958D01*
X158206868Y-72979948D01*
X158206863Y-72979946D01*
X158206862Y-72979946D01*
X158161257Y-72972723D01*
X158115654Y-72965500D01*
X157684345Y-72965500D01*
X157684342Y-72965501D01*
X157593142Y-72979944D01*
X157483203Y-73035960D01*
X157417665Y-73101498D01*
X157363148Y-73129274D01*
X157302716Y-73119702D01*
X157301655Y-73119153D01*
X157233794Y-73083537D01*
X157233791Y-73083536D01*
X157079473Y-73045500D01*
X157079471Y-73045500D01*
X156920529Y-73045500D01*
X156920526Y-73045500D01*
X156766208Y-73083536D01*
X156625475Y-73157398D01*
X156625464Y-73157406D01*
X156506502Y-73262797D01*
X156506502Y-73262798D01*
X156416212Y-73393606D01*
X156416210Y-73393609D01*
X156359853Y-73542210D01*
X156359850Y-73542219D01*
X156340693Y-73699998D01*
X156340693Y-73700001D01*
X156359850Y-73857780D01*
X156359853Y-73857789D01*
X156416210Y-74006390D01*
X156416212Y-74006393D01*
X156416213Y-74006395D01*
X156433232Y-74031051D01*
X156508614Y-74140262D01*
X156526109Y-74198893D01*
X156505801Y-74256610D01*
X156455446Y-74291367D01*
X156427138Y-74295500D01*
X155874936Y-74295500D01*
X155874929Y-74295501D01*
X155800699Y-74310265D01*
X155800697Y-74310266D01*
X155716519Y-74366513D01*
X155716513Y-74366519D01*
X155682315Y-74417700D01*
X155634264Y-74455579D01*
X155573126Y-74457981D01*
X155522253Y-74423987D01*
X155517685Y-74417700D01*
X155483486Y-74366519D01*
X155483485Y-74366518D01*
X155483484Y-74366516D01*
X155399301Y-74310266D01*
X155325067Y-74295500D01*
X155325066Y-74295500D01*
X154474936Y-74295500D01*
X154474929Y-74295501D01*
X154400699Y-74310265D01*
X154400697Y-74310266D01*
X154316519Y-74366513D01*
X154316514Y-74366518D01*
X154279016Y-74422638D01*
X154260266Y-74450699D01*
X154247664Y-74514056D01*
X154245500Y-74524933D01*
X151651000Y-74524933D01*
X151651000Y-73146001D01*
X152159000Y-73146001D01*
X152159000Y-74045999D01*
X152159001Y-74046000D01*
X152558999Y-74046000D01*
X152559000Y-74045999D01*
X152559000Y-73545316D01*
X152556123Y-73514639D01*
X152556122Y-73514638D01*
X152510921Y-73385462D01*
X152429656Y-73275351D01*
X152429648Y-73275343D01*
X152319537Y-73194078D01*
X152190361Y-73148877D01*
X152190360Y-73148876D01*
X152159683Y-73146000D01*
X152159001Y-73146000D01*
X152159000Y-73146001D01*
X151651000Y-73146001D01*
X151650999Y-73146000D01*
X151650317Y-73146000D01*
X151619639Y-73148876D01*
X151619638Y-73148877D01*
X151490462Y-73194078D01*
X151380351Y-73275343D01*
X151380345Y-73275349D01*
X151349965Y-73316513D01*
X151300197Y-73352105D01*
X151239013Y-73351647D01*
X151190654Y-73316511D01*
X151160012Y-73274992D01*
X151160005Y-73274985D01*
X151049776Y-73193632D01*
X151049770Y-73193629D01*
X150920455Y-73148380D01*
X150920446Y-73148378D01*
X150889759Y-73145500D01*
X150889749Y-73145500D01*
X150604364Y-73145500D01*
X150546173Y-73126593D01*
X150529547Y-73111334D01*
X150526817Y-73108183D01*
X150526807Y-73108174D01*
X150354996Y-72959299D01*
X150354992Y-72959296D01*
X150354985Y-72959290D01*
X150206173Y-72863654D01*
X150163714Y-72836367D01*
X150163708Y-72836364D01*
X150046233Y-72782715D01*
X149956892Y-72741914D01*
X149956887Y-72741912D01*
X149956886Y-72741912D01*
X149738737Y-72677858D01*
X149738733Y-72677857D01*
X149513687Y-72645500D01*
X149513683Y-72645500D01*
X149446671Y-72645500D01*
X147319136Y-72645500D01*
X147313935Y-72645500D01*
X147313879Y-72645503D01*
X147213598Y-72645503D01*
X146911099Y-72679585D01*
X146614312Y-72747324D01*
X146326985Y-72847865D01*
X146326982Y-72847866D01*
X146052716Y-72979944D01*
X145794957Y-73141905D01*
X145792448Y-73143906D01*
X145735162Y-73165401D01*
X145730728Y-73165500D01*
X145484345Y-73165500D01*
X145484342Y-73165501D01*
X145393142Y-73179944D01*
X145283204Y-73235960D01*
X145195958Y-73323206D01*
X145139948Y-73433131D01*
X145139946Y-73433138D01*
X145125500Y-73524345D01*
X145125501Y-73855652D01*
X145125501Y-73855657D01*
X145139944Y-73946857D01*
X145139945Y-73946860D01*
X145139946Y-73946862D01*
X145195960Y-74056796D01*
X145269162Y-74129998D01*
X145296938Y-74184513D01*
X145287367Y-74244945D01*
X145269163Y-74270000D01*
X145228899Y-74310265D01*
X145195958Y-74343206D01*
X145139948Y-74453131D01*
X145139946Y-74453138D01*
X145125500Y-74544345D01*
X145125500Y-74875655D01*
X145132765Y-74921523D01*
X145123193Y-74981955D01*
X145116467Y-74993237D01*
X145116214Y-74993603D01*
X145116210Y-74993610D01*
X145059853Y-75142210D01*
X145059850Y-75142219D01*
X145040693Y-75299998D01*
X145040693Y-75300001D01*
X145059850Y-75457780D01*
X145059853Y-75457789D01*
X145116210Y-75606390D01*
X145116212Y-75606393D01*
X145116213Y-75606395D01*
X145187809Y-75710119D01*
X145206502Y-75737201D01*
X145206502Y-75737202D01*
X145321640Y-75839205D01*
X145325471Y-75842599D01*
X145466207Y-75916463D01*
X145620529Y-75954500D01*
X145620532Y-75954500D01*
X145779468Y-75954500D01*
X145779471Y-75954500D01*
X145933793Y-75916463D01*
X146074529Y-75842599D01*
X146193498Y-75737201D01*
X146283787Y-75606395D01*
X146340149Y-75457782D01*
X146359307Y-75300000D01*
X146358152Y-75290490D01*
X146340149Y-75142219D01*
X146340146Y-75142210D01*
X146283789Y-74993609D01*
X146283783Y-74993597D01*
X146283536Y-74993240D01*
X146283458Y-74992978D01*
X146281004Y-74988303D01*
X146281919Y-74987822D01*
X146266045Y-74934608D01*
X146267235Y-74921521D01*
X146269307Y-74908437D01*
X146274500Y-74875653D01*
X146274499Y-74554001D01*
X147441000Y-74554001D01*
X147441000Y-75054683D01*
X147443876Y-75085360D01*
X147443877Y-75085361D01*
X147489078Y-75214537D01*
X147570343Y-75324648D01*
X147570351Y-75324656D01*
X147680462Y-75405921D01*
X147809638Y-75451122D01*
X147809639Y-75451123D01*
X147840317Y-75454000D01*
X147840999Y-75454000D01*
X147841000Y-75453999D01*
X147841000Y-74554001D01*
X147840999Y-74554000D01*
X147441001Y-74554000D01*
X147441000Y-74554001D01*
X146274499Y-74554001D01*
X146274499Y-74544348D01*
X146269702Y-74514056D01*
X146260055Y-74453142D01*
X146260054Y-74453140D01*
X146260054Y-74453138D01*
X146204040Y-74343204D01*
X146130837Y-74270001D01*
X146103062Y-74215487D01*
X146112633Y-74155055D01*
X146130836Y-74129999D01*
X146204040Y-74056796D01*
X146260054Y-73946862D01*
X146274500Y-73855653D01*
X146274499Y-73734324D01*
X146293406Y-73676134D01*
X146325608Y-73647678D01*
X146492617Y-73555377D01*
X146502593Y-73550572D01*
X146699692Y-73468931D01*
X146710148Y-73465273D01*
X146915140Y-73406216D01*
X146925950Y-73403749D01*
X147136256Y-73368017D01*
X147147275Y-73366775D01*
X147354669Y-73355129D01*
X147413828Y-73370744D01*
X147452510Y-73418149D01*
X147455941Y-73479239D01*
X147453664Y-73486670D01*
X147443876Y-73514641D01*
X147441000Y-73545316D01*
X147441000Y-74045999D01*
X147441001Y-74046000D01*
X147996000Y-74046000D01*
X148054191Y-74064907D01*
X148090155Y-74114407D01*
X148095000Y-74145000D01*
X148095000Y-74299999D01*
X148095001Y-74300000D01*
X148250000Y-74300000D01*
X148308191Y-74318907D01*
X148344155Y-74368407D01*
X148349000Y-74399000D01*
X148349000Y-75311876D01*
X148330093Y-75370067D01*
X148320004Y-75381880D01*
X147795379Y-75906504D01*
X147740862Y-75934281D01*
X147725380Y-75935500D01*
X147708953Y-75935500D01*
X147616573Y-75950132D01*
X147616569Y-75950133D01*
X147505229Y-76006865D01*
X147505226Y-76006867D01*
X147469648Y-76042444D01*
X147415131Y-76070221D01*
X147354699Y-76060648D01*
X147329642Y-76042443D01*
X147294473Y-76007274D01*
X147183267Y-75950612D01*
X147183268Y-75950612D01*
X147174000Y-75949143D01*
X147174000Y-76401000D01*
X147155093Y-76459191D01*
X147105593Y-76495155D01*
X147075000Y-76500000D01*
X146920001Y-76500000D01*
X146920000Y-76500001D01*
X146920000Y-76655000D01*
X146901093Y-76713191D01*
X146851593Y-76749155D01*
X146821000Y-76754000D01*
X146377326Y-76754000D01*
X146360958Y-76764029D01*
X146299962Y-76759225D01*
X146253438Y-76719485D01*
X146249658Y-76712736D01*
X146204040Y-76623204D01*
X146116796Y-76535960D01*
X146116793Y-76535958D01*
X146006868Y-76479948D01*
X146006863Y-76479946D01*
X146006862Y-76479946D01*
X145961257Y-76472723D01*
X145915654Y-76465500D01*
X145484345Y-76465500D01*
X145484342Y-76465501D01*
X145393142Y-76479944D01*
X145283204Y-76535960D01*
X145195959Y-76623205D01*
X145173927Y-76666446D01*
X145130662Y-76709710D01*
X145085718Y-76720500D01*
X143673830Y-76720500D01*
X143615639Y-76701593D01*
X143603827Y-76691504D01*
X143518699Y-76606377D01*
X143518694Y-76606373D01*
X143374736Y-76515918D01*
X143214258Y-76459764D01*
X143214246Y-76459761D01*
X143045302Y-76440726D01*
X143045294Y-76440726D01*
X142876349Y-76459761D01*
X142876337Y-76459764D01*
X142715860Y-76515918D01*
X142715859Y-76515918D01*
X142571901Y-76606373D01*
X142451671Y-76726603D01*
X142361216Y-76870561D01*
X142361216Y-76870562D01*
X142305062Y-77031039D01*
X142305059Y-77031051D01*
X142286024Y-77199995D01*
X142286024Y-77200004D01*
X142305059Y-77368948D01*
X142305062Y-77368960D01*
X142361216Y-77529437D01*
X142361216Y-77529438D01*
X142448377Y-77668153D01*
X142451674Y-77673400D01*
X142571898Y-77793624D01*
X142571900Y-77793625D01*
X142571901Y-77793626D01*
X142636827Y-77834422D01*
X142715861Y-77884082D01*
X142774501Y-77904601D01*
X142876337Y-77940235D01*
X142876341Y-77940236D01*
X142876344Y-77940237D01*
X142876345Y-77940237D01*
X142876349Y-77940238D01*
X143045294Y-77959274D01*
X143045298Y-77959274D01*
X143045302Y-77959274D01*
X143214246Y-77940238D01*
X143214248Y-77940237D01*
X143214252Y-77940237D01*
X143374735Y-77884082D01*
X143518698Y-77793624D01*
X143578729Y-77733593D01*
X143603827Y-77708496D01*
X143658344Y-77680719D01*
X143673830Y-77679500D01*
X145035695Y-77679500D01*
X145093886Y-77698407D01*
X145129850Y-77747907D01*
X145133476Y-77793987D01*
X145125500Y-77844344D01*
X145125500Y-78079776D01*
X145106593Y-78137967D01*
X145057093Y-78173931D01*
X145002808Y-78175899D01*
X144879474Y-78145500D01*
X144879471Y-78145500D01*
X144720529Y-78145500D01*
X144720526Y-78145500D01*
X144566208Y-78183536D01*
X144425475Y-78257398D01*
X144425464Y-78257406D01*
X144306502Y-78362797D01*
X144306502Y-78362798D01*
X144216212Y-78493606D01*
X144216210Y-78493609D01*
X144159853Y-78642210D01*
X144159850Y-78642219D01*
X144140693Y-78799998D01*
X144140693Y-78800001D01*
X144159850Y-78957780D01*
X144159853Y-78957789D01*
X144216210Y-79106390D01*
X144216212Y-79106393D01*
X144216213Y-79106395D01*
X144285633Y-79206967D01*
X144306502Y-79237201D01*
X144306502Y-79237202D01*
X144413804Y-79332263D01*
X144425471Y-79342599D01*
X144566207Y-79416463D01*
X144720529Y-79454500D01*
X144720532Y-79454500D01*
X144879468Y-79454500D01*
X144879471Y-79454500D01*
X145033793Y-79416463D01*
X145050141Y-79407882D01*
X145110452Y-79397582D01*
X145165300Y-79424698D01*
X145184357Y-79450597D01*
X145206865Y-79494771D01*
X145242445Y-79530351D01*
X145270221Y-79584866D01*
X145260650Y-79645298D01*
X145242444Y-79670357D01*
X145207274Y-79705526D01*
X145150612Y-79816731D01*
X145149145Y-79825999D01*
X145149146Y-79826000D01*
X145601000Y-79826000D01*
X145659191Y-79844907D01*
X145695155Y-79894407D01*
X145700000Y-79925000D01*
X145700000Y-80079999D01*
X145700001Y-80080000D01*
X145846500Y-80080000D01*
X145904691Y-80098907D01*
X145940655Y-80148407D01*
X145945500Y-80179000D01*
X145945500Y-86197015D01*
X145945319Y-86202993D01*
X145930218Y-86452634D01*
X145928777Y-86464501D01*
X145884235Y-86707560D01*
X145881374Y-86719168D01*
X145807859Y-86955085D01*
X145803620Y-86966263D01*
X145702201Y-87191607D01*
X145696645Y-87202192D01*
X145568811Y-87413656D01*
X145562020Y-87423495D01*
X145409627Y-87618010D01*
X145401700Y-87626959D01*
X145226959Y-87801700D01*
X145218010Y-87809627D01*
X145023495Y-87962020D01*
X145013656Y-87968811D01*
X144879028Y-88050196D01*
X144819448Y-88064120D01*
X144763063Y-88040364D01*
X144731409Y-87988003D01*
X144736579Y-87927036D01*
X144739173Y-87921383D01*
X144784328Y-87830701D01*
X144840345Y-87633821D01*
X144859232Y-87430000D01*
X144840345Y-87226179D01*
X144784328Y-87029299D01*
X144693088Y-86846065D01*
X144569732Y-86682715D01*
X144418462Y-86544814D01*
X144324461Y-86486611D01*
X144244432Y-86437059D01*
X144244427Y-86437056D01*
X144072789Y-86370563D01*
X144053556Y-86363112D01*
X144053555Y-86363111D01*
X144053553Y-86363111D01*
X143852347Y-86325500D01*
X143647653Y-86325500D01*
X143446446Y-86363111D01*
X143255572Y-86437056D01*
X143255567Y-86437059D01*
X143081542Y-86544811D01*
X143081540Y-86544812D01*
X143081538Y-86544814D01*
X142930268Y-86682715D01*
X142917219Y-86699995D01*
X142806913Y-86846063D01*
X142806908Y-86846072D01*
X142715672Y-87029298D01*
X142659655Y-87226177D01*
X142640768Y-87430000D01*
X142659655Y-87633822D01*
X142715672Y-87830701D01*
X142808952Y-88018032D01*
X142807348Y-88018830D01*
X142820214Y-88071318D01*
X142797068Y-88127957D01*
X142745051Y-88160174D01*
X142684032Y-88155663D01*
X142683597Y-88155484D01*
X142585762Y-88114959D01*
X142575760Y-88110142D01*
X142354905Y-87988079D01*
X142345504Y-87982172D01*
X142282552Y-87937505D01*
X142246036Y-87888412D01*
X142244620Y-87829674D01*
X142300345Y-87633821D01*
X142319232Y-87430000D01*
X142300345Y-87226179D01*
X142244328Y-87029299D01*
X142153088Y-86846065D01*
X142029732Y-86682715D01*
X141972569Y-86630604D01*
X141942305Y-86577432D01*
X141949076Y-86516622D01*
X141990296Y-86471405D01*
X142019953Y-86460347D01*
X142056041Y-86453169D01*
X142386892Y-86352806D01*
X142706313Y-86220495D01*
X143011228Y-86057513D01*
X143223496Y-85915676D01*
X143282381Y-85899069D01*
X143314254Y-85905677D01*
X143446444Y-85956888D01*
X143647653Y-85994500D01*
X143852347Y-85994500D01*
X144053556Y-85956888D01*
X144244427Y-85882944D01*
X144418462Y-85775186D01*
X144569732Y-85637285D01*
X144693088Y-85473935D01*
X144784328Y-85290701D01*
X144840345Y-85093821D01*
X144859232Y-84890000D01*
X144840345Y-84686179D01*
X144784328Y-84489299D01*
X144693088Y-84306065D01*
X144569732Y-84142715D01*
X144418462Y-84004814D01*
X144310641Y-83938054D01*
X144244432Y-83897059D01*
X144244427Y-83897056D01*
X144173604Y-83869619D01*
X144053556Y-83823112D01*
X144053555Y-83823111D01*
X144053553Y-83823111D01*
X143852347Y-83785500D01*
X143647653Y-83785500D01*
X143446446Y-83823111D01*
X143255572Y-83897056D01*
X143255567Y-83897059D01*
X143081542Y-84004811D01*
X143081540Y-84004812D01*
X143081538Y-84004814D01*
X142930268Y-84142715D01*
X142891823Y-84193624D01*
X142806913Y-84306063D01*
X142806908Y-84306072D01*
X142715672Y-84489298D01*
X142659655Y-84686177D01*
X142640768Y-84890000D01*
X142659655Y-85093822D01*
X142693433Y-85212540D01*
X142691172Y-85273684D01*
X142655504Y-85320370D01*
X142646258Y-85326931D01*
X142636854Y-85332840D01*
X142380616Y-85474459D01*
X142370615Y-85479276D01*
X142337655Y-85492929D01*
X142276658Y-85497730D01*
X142224489Y-85465761D01*
X142201073Y-85409234D01*
X142211147Y-85357337D01*
X142216129Y-85347332D01*
X142244328Y-85290701D01*
X142300345Y-85093821D01*
X142319232Y-84890000D01*
X142300345Y-84686179D01*
X142244328Y-84489299D01*
X142153088Y-84306065D01*
X142029732Y-84142715D01*
X141878462Y-84004814D01*
X141770641Y-83938054D01*
X141704432Y-83897059D01*
X141704427Y-83897056D01*
X141633604Y-83869619D01*
X141513556Y-83823112D01*
X141513555Y-83823111D01*
X141513553Y-83823111D01*
X141312347Y-83785500D01*
X141107653Y-83785500D01*
X140906446Y-83823111D01*
X140715572Y-83897056D01*
X140715567Y-83897059D01*
X140541542Y-84004811D01*
X140541540Y-84004812D01*
X140541538Y-84004814D01*
X140390268Y-84142715D01*
X140351823Y-84193624D01*
X140266913Y-84306063D01*
X140266908Y-84306072D01*
X140175672Y-84489298D01*
X140119655Y-84686177D01*
X140100768Y-84890000D01*
X140119655Y-85093822D01*
X140175672Y-85290701D01*
X140229639Y-85399082D01*
X140266912Y-85473935D01*
X140390268Y-85637285D01*
X140461096Y-85701853D01*
X140491361Y-85755026D01*
X140484590Y-85815836D01*
X140443370Y-85861053D01*
X140427098Y-85868457D01*
X140249174Y-85930717D01*
X139998133Y-86051612D01*
X139799471Y-86176441D01*
X139740140Y-86191391D01*
X139683353Y-86168612D01*
X139650801Y-86116805D01*
X139648425Y-86103716D01*
X139640237Y-86031046D01*
X139584082Y-85870563D01*
X139578106Y-85861053D01*
X139493626Y-85726603D01*
X139493625Y-85726602D01*
X139493624Y-85726600D01*
X139373400Y-85606376D01*
X139373397Y-85606374D01*
X139373396Y-85606373D01*
X139229438Y-85515918D01*
X139068960Y-85459764D01*
X139068948Y-85459761D01*
X138900004Y-85440726D01*
X138899996Y-85440726D01*
X138731051Y-85459761D01*
X138731039Y-85459764D01*
X138570562Y-85515918D01*
X138570561Y-85515918D01*
X138426603Y-85606373D01*
X138306373Y-85726603D01*
X138215918Y-85870561D01*
X138215918Y-85870562D01*
X138159764Y-86031039D01*
X138159761Y-86031051D01*
X138140726Y-86199995D01*
X138140726Y-86200004D01*
X138159761Y-86368948D01*
X138159764Y-86368960D01*
X138215918Y-86529437D01*
X138215918Y-86529438D01*
X138306373Y-86673396D01*
X138306376Y-86673400D01*
X138426600Y-86793624D01*
X138426602Y-86793625D01*
X138426603Y-86793626D01*
X138570559Y-86884080D01*
X138570560Y-86884080D01*
X138570563Y-86884082D01*
X138634199Y-86906349D01*
X138682879Y-86943414D01*
X138700476Y-87002014D01*
X138680268Y-87059766D01*
X138654694Y-87083288D01*
X138626853Y-87101025D01*
X138619374Y-87105344D01*
X138319670Y-87261364D01*
X138311843Y-87265014D01*
X137999681Y-87394320D01*
X137991565Y-87397274D01*
X137669318Y-87498882D01*
X137660975Y-87501117D01*
X137331113Y-87574248D01*
X137322608Y-87575748D01*
X137003390Y-87617777D01*
X136943229Y-87606627D01*
X136920466Y-87589630D01*
X136916796Y-87585960D01*
X136916793Y-87585958D01*
X136806868Y-87529948D01*
X136806863Y-87529946D01*
X136806862Y-87529946D01*
X136761257Y-87522723D01*
X136715654Y-87515500D01*
X136284345Y-87515500D01*
X136284342Y-87515501D01*
X136193142Y-87529944D01*
X136083204Y-87585960D01*
X135995958Y-87673206D01*
X135939948Y-87783131D01*
X135939946Y-87783138D01*
X135925500Y-87874345D01*
X135925500Y-88205654D01*
X135925501Y-88205657D01*
X135939944Y-88296857D01*
X135939945Y-88296860D01*
X135939946Y-88296862D01*
X135995960Y-88406796D01*
X135995961Y-88406797D01*
X135996670Y-88408188D01*
X136006241Y-88468620D01*
X135978464Y-88523137D01*
X135923947Y-88550914D01*
X135907898Y-88552131D01*
X135552510Y-88550115D01*
X135508127Y-88539327D01*
X135494830Y-88532552D01*
X135451555Y-88510502D01*
X135356837Y-88495500D01*
X135356834Y-88495500D01*
X134118166Y-88495500D01*
X134118163Y-88495500D01*
X134023445Y-88510502D01*
X134023438Y-88510504D01*
X133909281Y-88568671D01*
X133909279Y-88568672D01*
X133818672Y-88659279D01*
X133818671Y-88659281D01*
X133760504Y-88773438D01*
X133760502Y-88773445D01*
X133745500Y-88868163D01*
X133745500Y-89231836D01*
X133760502Y-89326554D01*
X133760504Y-89326561D01*
X133778857Y-89362580D01*
X133788429Y-89423012D01*
X133760652Y-89477528D01*
X133706135Y-89505306D01*
X133645703Y-89495735D01*
X133576555Y-89460502D01*
X133481837Y-89445500D01*
X133481834Y-89445500D01*
X133191283Y-89445500D01*
X133151215Y-89436000D01*
X133151013Y-89436527D01*
X133147124Y-89435030D01*
X133146836Y-89434962D01*
X133146472Y-89434779D01*
X133103932Y-89418406D01*
X133099802Y-89416708D01*
X131138808Y-88558507D01*
X131093079Y-88517856D01*
X131079499Y-88467812D01*
X131079499Y-87861264D01*
X131079498Y-87861257D01*
X131064734Y-87787027D01*
X131064733Y-87787025D01*
X131008486Y-87702847D01*
X131008485Y-87702846D01*
X131008484Y-87702844D01*
X130924301Y-87646594D01*
X130850067Y-87631828D01*
X130850066Y-87631828D01*
X129099936Y-87631828D01*
X129099929Y-87631829D01*
X129025699Y-87646593D01*
X129025697Y-87646594D01*
X128941519Y-87702841D01*
X128941514Y-87702846D01*
X128937598Y-87708707D01*
X128885266Y-87787027D01*
X128874288Y-87842218D01*
X128870500Y-87861261D01*
X128870500Y-89611391D01*
X128870501Y-89611398D01*
X128885265Y-89685628D01*
X128885266Y-89685630D01*
X128906670Y-89717662D01*
X128941516Y-89769812D01*
X129025699Y-89826062D01*
X129099933Y-89840828D01*
X130850066Y-89840827D01*
X130873593Y-89836147D01*
X130932598Y-89842550D01*
X131841927Y-90240504D01*
X131887654Y-90281154D01*
X131890435Y-90286237D01*
X131943674Y-90390723D01*
X132034277Y-90481326D01*
X132066902Y-90497949D01*
X132110166Y-90541213D01*
X132119737Y-90601645D01*
X132119511Y-90603010D01*
X131518475Y-94082433D01*
X131489939Y-94136556D01*
X131454780Y-94158610D01*
X130699789Y-94433406D01*
X130699785Y-94433408D01*
X130635076Y-94472672D01*
X130575209Y-94554322D01*
X130551143Y-94652668D01*
X130551143Y-94652669D01*
X130562656Y-94727473D01*
X130562657Y-94727476D01*
X130629235Y-94910399D01*
X130631902Y-94917725D01*
X130634037Y-94978873D01*
X130599822Y-95029598D01*
X130563977Y-95047349D01*
X127961145Y-95729701D01*
X127900062Y-95726168D01*
X127852721Y-95687406D01*
X127843010Y-95667796D01*
X127830686Y-95633936D01*
X127827717Y-95625778D01*
X127801097Y-95571523D01*
X127753688Y-95515925D01*
X127706968Y-95461136D01*
X127706965Y-95461133D01*
X127585556Y-95381738D01*
X127585549Y-95381735D01*
X127446681Y-95339761D01*
X127302775Y-95338620D01*
X127301616Y-95338611D01*
X127301615Y-95338611D01*
X127242950Y-95353089D01*
X126212558Y-95728122D01*
X126212555Y-95728123D01*
X126158306Y-95754741D01*
X126047920Y-95848869D01*
X126047917Y-95848872D01*
X125968522Y-95970281D01*
X125968518Y-95970290D01*
X125958462Y-96003560D01*
X125923526Y-96053790D01*
X125865737Y-96073893D01*
X125807169Y-96056189D01*
X125770193Y-96007441D01*
X125767625Y-95998810D01*
X125654235Y-95542585D01*
X125653366Y-95538766D01*
X125652043Y-95532371D01*
X125471174Y-94657786D01*
X125453564Y-94572633D01*
X125452846Y-94568772D01*
X125391203Y-94196879D01*
X125291527Y-93595535D01*
X125290964Y-93591669D01*
X125289113Y-93576888D01*
X125168359Y-92612693D01*
X125167959Y-92608883D01*
X125084279Y-91625843D01*
X125084028Y-91622003D01*
X125068376Y-91276328D01*
X128865768Y-91276328D01*
X128884655Y-91480150D01*
X128920865Y-91607415D01*
X128940672Y-91677029D01*
X129031912Y-91860263D01*
X129155268Y-92023613D01*
X129306538Y-92161514D01*
X129480573Y-92269272D01*
X129671444Y-92343216D01*
X129872653Y-92380828D01*
X130077347Y-92380828D01*
X130278556Y-92343216D01*
X130469427Y-92269272D01*
X130643462Y-92161514D01*
X130794732Y-92023613D01*
X130918088Y-91860263D01*
X131009328Y-91677029D01*
X131065345Y-91480149D01*
X131084232Y-91276328D01*
X131065345Y-91072507D01*
X131009328Y-90875627D01*
X130918088Y-90692393D01*
X130794732Y-90529043D01*
X130643462Y-90391142D01*
X130484901Y-90292965D01*
X130469432Y-90283387D01*
X130469427Y-90283384D01*
X130404704Y-90258310D01*
X130278556Y-90209440D01*
X130278555Y-90209439D01*
X130278553Y-90209439D01*
X130077347Y-90171828D01*
X129872653Y-90171828D01*
X129671446Y-90209439D01*
X129480572Y-90283384D01*
X129480567Y-90283387D01*
X129306542Y-90391139D01*
X129306540Y-90391140D01*
X129306538Y-90391142D01*
X129189378Y-90497948D01*
X129157956Y-90526593D01*
X129155268Y-90529043D01*
X129132211Y-90559575D01*
X129031913Y-90692391D01*
X129031908Y-90692400D01*
X128940672Y-90875626D01*
X128884655Y-91072505D01*
X128865768Y-91276328D01*
X125068376Y-91276328D01*
X125039398Y-90636354D01*
X125039302Y-90632522D01*
X125033799Y-89645922D01*
X125033854Y-89642092D01*
X125067484Y-88656069D01*
X125067692Y-88652199D01*
X125140402Y-87668290D01*
X125140768Y-87664392D01*
X125145033Y-87626959D01*
X125250636Y-86699995D01*
X134940726Y-86699995D01*
X134940726Y-86700004D01*
X134959761Y-86868948D01*
X134959764Y-86868960D01*
X135015918Y-87029437D01*
X135015918Y-87029438D01*
X135094500Y-87154500D01*
X135106376Y-87173400D01*
X135226600Y-87293624D01*
X135226602Y-87293625D01*
X135226603Y-87293626D01*
X135369695Y-87383537D01*
X135370563Y-87384082D01*
X135399822Y-87394320D01*
X135531039Y-87440235D01*
X135531043Y-87440236D01*
X135531046Y-87440237D01*
X135531047Y-87440237D01*
X135531051Y-87440238D01*
X135699996Y-87459274D01*
X135700000Y-87459274D01*
X135700004Y-87459274D01*
X135868948Y-87440238D01*
X135868950Y-87440237D01*
X135868954Y-87440237D01*
X136029437Y-87384082D01*
X136173400Y-87293624D01*
X136293624Y-87173400D01*
X136384082Y-87029437D01*
X136411044Y-86952382D01*
X136448109Y-86903703D01*
X136506709Y-86886106D01*
X136538344Y-86892050D01*
X136699096Y-86950559D01*
X136757041Y-86964861D01*
X136900311Y-86963724D01*
X137037458Y-86922269D01*
X137157371Y-86843855D01*
X137250334Y-86734834D01*
X137276625Y-86681254D01*
X137475959Y-86133585D01*
X137490261Y-86075640D01*
X137489125Y-85932370D01*
X137447670Y-85795223D01*
X137369255Y-85675310D01*
X137369254Y-85675309D01*
X137369253Y-85675307D01*
X137260234Y-85582346D01*
X137260231Y-85582344D01*
X137206659Y-85556057D01*
X136852312Y-85427086D01*
X136259616Y-85211363D01*
X136259610Y-85211361D01*
X136259607Y-85211360D01*
X136201673Y-85197061D01*
X136201671Y-85197061D01*
X136199399Y-85197079D01*
X136058403Y-85198197D01*
X135921253Y-85239653D01*
X135801345Y-85318064D01*
X135801339Y-85318068D01*
X135708378Y-85427086D01*
X135682087Y-85480667D01*
X135520352Y-85925031D01*
X135482682Y-85973246D01*
X135460020Y-85984615D01*
X135370562Y-86015918D01*
X135370561Y-86015918D01*
X135226603Y-86106373D01*
X135106373Y-86226603D01*
X135015918Y-86370561D01*
X135015918Y-86370562D01*
X134959764Y-86531039D01*
X134959761Y-86531051D01*
X134940726Y-86699995D01*
X125250636Y-86699995D01*
X125252439Y-86684166D01*
X125252959Y-86680295D01*
X125256433Y-86657782D01*
X125403422Y-85705245D01*
X125404079Y-85701485D01*
X125593106Y-84733113D01*
X125593914Y-84729374D01*
X125766618Y-83999821D01*
X125798421Y-83947553D01*
X125854875Y-83923959D01*
X125914414Y-83938054D01*
X125954298Y-83984454D01*
X125957720Y-83993983D01*
X125968493Y-84029625D01*
X125968520Y-84029712D01*
X125968522Y-84029718D01*
X126047917Y-84151127D01*
X126047918Y-84151128D01*
X126047919Y-84151129D01*
X126158307Y-84245259D01*
X126158308Y-84245259D01*
X126158309Y-84245260D01*
X126212556Y-84271878D01*
X126212559Y-84271879D01*
X126212561Y-84271880D01*
X127242942Y-84646907D01*
X127242949Y-84646908D01*
X127242950Y-84646909D01*
X127301612Y-84661388D01*
X127301616Y-84661389D01*
X127352168Y-84660987D01*
X127410505Y-84679431D01*
X127422950Y-84689974D01*
X127526600Y-84793624D01*
X127526602Y-84793625D01*
X127526603Y-84793626D01*
X127653282Y-84873224D01*
X127670563Y-84884082D01*
X127687476Y-84890000D01*
X127831039Y-84940235D01*
X127831043Y-84940236D01*
X127831046Y-84940237D01*
X127831047Y-84940237D01*
X127831051Y-84940238D01*
X127999996Y-84959274D01*
X128000000Y-84959274D01*
X128000004Y-84959274D01*
X128168948Y-84940238D01*
X128168950Y-84940237D01*
X128168954Y-84940237D01*
X128329437Y-84884082D01*
X128473400Y-84793624D01*
X128478312Y-84788712D01*
X130807898Y-84788712D01*
X130827640Y-85001760D01*
X130886193Y-85207552D01*
X130981563Y-85399082D01*
X131110503Y-85569826D01*
X131268622Y-85713970D01*
X131450534Y-85826605D01*
X131650047Y-85903897D01*
X131860364Y-85943212D01*
X132074324Y-85943212D01*
X132284641Y-85903897D01*
X132484154Y-85826605D01*
X132666066Y-85713970D01*
X132824185Y-85569826D01*
X132953125Y-85399082D01*
X133048495Y-85207552D01*
X133107048Y-85001760D01*
X133126790Y-84788712D01*
X133107048Y-84575664D01*
X133048495Y-84369872D01*
X133025831Y-84324357D01*
X136109739Y-84324357D01*
X136110874Y-84467628D01*
X136132406Y-84538863D01*
X136152056Y-84603872D01*
X136152330Y-84604776D01*
X136152330Y-84604777D01*
X136230746Y-84724692D01*
X136339765Y-84817653D01*
X136339768Y-84817655D01*
X136393340Y-84843942D01*
X136393343Y-84843943D01*
X136393345Y-84843944D01*
X137340384Y-85188637D01*
X137398329Y-85202939D01*
X137541599Y-85201802D01*
X137678746Y-85160347D01*
X137798659Y-85081933D01*
X137891622Y-84972912D01*
X137917913Y-84919332D01*
X138117247Y-84371663D01*
X138131549Y-84313718D01*
X138130413Y-84170448D01*
X138088958Y-84033301D01*
X138054752Y-83980994D01*
X138038730Y-83921945D01*
X138056800Y-83869623D01*
X139164622Y-82304388D01*
X139213669Y-82267816D01*
X139274850Y-82267057D01*
X139324792Y-82302405D01*
X139344419Y-82360357D01*
X139343805Y-82372666D01*
X139340726Y-82400000D01*
X139340726Y-82400004D01*
X139359761Y-82568948D01*
X139359764Y-82568960D01*
X139415918Y-82729437D01*
X139415918Y-82729438D01*
X139499050Y-82861741D01*
X139506376Y-82873400D01*
X139626600Y-82993624D01*
X139626602Y-82993625D01*
X139626603Y-82993626D01*
X139737445Y-83063273D01*
X139770563Y-83084082D01*
X139821490Y-83101902D01*
X139931039Y-83140235D01*
X139931043Y-83140236D01*
X139931046Y-83140237D01*
X139931047Y-83140237D01*
X139931051Y-83140238D01*
X140099996Y-83159274D01*
X140100000Y-83159274D01*
X140100004Y-83159274D01*
X140268948Y-83140238D01*
X140268950Y-83140237D01*
X140268954Y-83140237D01*
X140429437Y-83084082D01*
X140573400Y-82993624D01*
X140693624Y-82873400D01*
X140784082Y-82729437D01*
X140840237Y-82568954D01*
X140840238Y-82568948D01*
X140859274Y-82400004D01*
X140859274Y-82399995D01*
X140840238Y-82231051D01*
X140840235Y-82231039D01*
X140800237Y-82116732D01*
X140784082Y-82070563D01*
X140776869Y-82059084D01*
X140693626Y-81926603D01*
X140693625Y-81926602D01*
X140693624Y-81926600D01*
X140573400Y-81806376D01*
X140573397Y-81806374D01*
X140573396Y-81806373D01*
X140429438Y-81715918D01*
X140268960Y-81659764D01*
X140268948Y-81659761D01*
X140100004Y-81640726D01*
X140099996Y-81640726D01*
X139931051Y-81659761D01*
X139931044Y-81659763D01*
X139811343Y-81701648D01*
X139750173Y-81703020D01*
X139699879Y-81668176D01*
X139679671Y-81610424D01*
X139697268Y-81551824D01*
X139697755Y-81551128D01*
X140170668Y-80882952D01*
X140219716Y-80846379D01*
X140274050Y-80843756D01*
X140344510Y-80860259D01*
X140487564Y-80852306D01*
X140622583Y-80804373D01*
X140672142Y-80771117D01*
X141118605Y-80396488D01*
X141159963Y-80353457D01*
X141170992Y-80334000D01*
X145149145Y-80334000D01*
X145150612Y-80343268D01*
X145207274Y-80454473D01*
X145295526Y-80542725D01*
X145406731Y-80599386D01*
X145445999Y-80605605D01*
X145446000Y-80605605D01*
X145446000Y-80334001D01*
X145445999Y-80334000D01*
X145149145Y-80334000D01*
X141170992Y-80334000D01*
X141230614Y-80228814D01*
X141263286Y-80089313D01*
X141255334Y-79946258D01*
X141207401Y-79811240D01*
X141174144Y-79761681D01*
X141174143Y-79761680D01*
X141174137Y-79761671D01*
X140526330Y-78989647D01*
X140526328Y-78989645D01*
X140483301Y-78948291D01*
X140358660Y-78877641D01*
X140358657Y-78877640D01*
X140333039Y-78871640D01*
X140219156Y-78844967D01*
X140219153Y-78844967D01*
X140076102Y-78852919D01*
X139941083Y-78900852D01*
X139891522Y-78934109D01*
X139891519Y-78934112D01*
X139445059Y-79308738D01*
X139445057Y-79308740D01*
X139403703Y-79351767D01*
X139333053Y-79476408D01*
X139333051Y-79476412D01*
X139300380Y-79615914D01*
X139308331Y-79758964D01*
X139308333Y-79758971D01*
X139356264Y-79893985D01*
X139356265Y-79893986D01*
X139389525Y-79943549D01*
X139454283Y-80020725D01*
X139477204Y-80077455D01*
X139462402Y-80136823D01*
X139459253Y-80141554D01*
X137117219Y-83450600D01*
X137068169Y-83487175D01*
X137006988Y-83487934D01*
X137002552Y-83486437D01*
X136929264Y-83459763D01*
X136900904Y-83449441D01*
X136900901Y-83449440D01*
X136900895Y-83449438D01*
X136842961Y-83435139D01*
X136842959Y-83435139D01*
X136840687Y-83435157D01*
X136699691Y-83436275D01*
X136562541Y-83477731D01*
X136442633Y-83556142D01*
X136442627Y-83556146D01*
X136349666Y-83665164D01*
X136323375Y-83718745D01*
X136249417Y-83921945D01*
X136130422Y-84248885D01*
X136124040Y-84266419D01*
X136124038Y-84266423D01*
X136109739Y-84324357D01*
X133025831Y-84324357D01*
X132953125Y-84178342D01*
X132824185Y-84007598D01*
X132666066Y-83863454D01*
X132484154Y-83750819D01*
X132284641Y-83673527D01*
X132284640Y-83673526D01*
X132284638Y-83673526D01*
X132074324Y-83634212D01*
X131860364Y-83634212D01*
X131650049Y-83673526D01*
X131647566Y-83674488D01*
X131450534Y-83750819D01*
X131333777Y-83823112D01*
X131268619Y-83863456D01*
X131110504Y-84007597D01*
X130981564Y-84178340D01*
X130981559Y-84178349D01*
X130891470Y-84359274D01*
X130886193Y-84369872D01*
X130827640Y-84575664D01*
X130807898Y-84788712D01*
X128478312Y-84788712D01*
X128593624Y-84673400D01*
X128684082Y-84529437D01*
X128738394Y-84374222D01*
X128740235Y-84368960D01*
X128740238Y-84368948D01*
X128759274Y-84200004D01*
X128759274Y-84199995D01*
X128740238Y-84031051D01*
X128740235Y-84031039D01*
X128707698Y-83938054D01*
X128684082Y-83870563D01*
X128679616Y-83863456D01*
X128593626Y-83726603D01*
X128593625Y-83726602D01*
X128593624Y-83726600D01*
X128473400Y-83606376D01*
X128473397Y-83606374D01*
X128473396Y-83606373D01*
X128329438Y-83515918D01*
X128256118Y-83490262D01*
X128207437Y-83453196D01*
X128189841Y-83394596D01*
X128195785Y-83362962D01*
X128202745Y-83343842D01*
X128217227Y-83285168D01*
X128216076Y-83140101D01*
X128174102Y-83001233D01*
X128171854Y-82997796D01*
X128167853Y-82991677D01*
X128156845Y-82951113D01*
X131423294Y-82951113D01*
X131423294Y-82951115D01*
X131446298Y-83045117D01*
X131447361Y-83049461D01*
X131507228Y-83131111D01*
X131571935Y-83170376D01*
X133310492Y-83803157D01*
X133310497Y-83803157D01*
X133310498Y-83803158D01*
X133385297Y-83814673D01*
X133385299Y-83814673D01*
X133385299Y-83814672D01*
X133385300Y-83814673D01*
X133483645Y-83790607D01*
X133565295Y-83730740D01*
X133604560Y-83666033D01*
X134237341Y-81927476D01*
X134243710Y-81886102D01*
X134248857Y-81852670D01*
X134248857Y-81852668D01*
X134232596Y-81786218D01*
X134237130Y-81725201D01*
X134258752Y-81692685D01*
X136116184Y-79835255D01*
X136116186Y-79835250D01*
X136121048Y-79830389D01*
X136121146Y-79830275D01*
X136203548Y-79747876D01*
X136450312Y-79458952D01*
X136673648Y-79151558D01*
X136872177Y-78827589D01*
X137044676Y-78489042D01*
X137190082Y-78138005D01*
X137307497Y-77776642D01*
X137348829Y-77604481D01*
X137380799Y-77552313D01*
X137409330Y-77535278D01*
X137497764Y-77501020D01*
X137679676Y-77388385D01*
X137837795Y-77244241D01*
X137966735Y-77073497D01*
X138062105Y-76881967D01*
X138120658Y-76676175D01*
X138140400Y-76463127D01*
X138120658Y-76250079D01*
X138062105Y-76044287D01*
X137966735Y-75852757D01*
X137837795Y-75682013D01*
X137679676Y-75537869D01*
X137497764Y-75425234D01*
X137298251Y-75347942D01*
X137298250Y-75347941D01*
X137298248Y-75347941D01*
X137087934Y-75308627D01*
X136873974Y-75308627D01*
X136663659Y-75347941D01*
X136647893Y-75354049D01*
X136464144Y-75425234D01*
X136347844Y-75497244D01*
X136282229Y-75537871D01*
X136124114Y-75682012D01*
X135995174Y-75852755D01*
X135995169Y-75852764D01*
X135899804Y-76044284D01*
X135899803Y-76044287D01*
X135841250Y-76250079D01*
X135821508Y-76463127D01*
X135841250Y-76676175D01*
X135896558Y-76870563D01*
X135899804Y-76881969D01*
X135969579Y-77022098D01*
X135995173Y-77073497D01*
X136124113Y-77244241D01*
X136282232Y-77388385D01*
X136287357Y-77391558D01*
X136326878Y-77438267D01*
X136331396Y-77499286D01*
X136329657Y-77505499D01*
X136246991Y-77767679D01*
X136244037Y-77775795D01*
X136119603Y-78076205D01*
X136115953Y-78084032D01*
X135965814Y-78372444D01*
X135961496Y-78379924D01*
X135786780Y-78654171D01*
X135781826Y-78661245D01*
X135583883Y-78919209D01*
X135578331Y-78925826D01*
X135357024Y-79167338D01*
X135354038Y-79170458D01*
X133258336Y-81266159D01*
X133203819Y-81293936D01*
X133154472Y-81289185D01*
X132594306Y-81085303D01*
X132361660Y-81000627D01*
X132361657Y-81000626D01*
X132361653Y-81000625D01*
X132286854Y-80989110D01*
X132286852Y-80989110D01*
X132188506Y-81013177D01*
X132106856Y-81073044D01*
X132067592Y-81137750D01*
X131681607Y-82198240D01*
X131435129Y-82875436D01*
X131434809Y-82876314D01*
X131423294Y-82951113D01*
X128156845Y-82951113D01*
X128151828Y-82932627D01*
X128173572Y-82875436D01*
X128224779Y-82841948D01*
X128284565Y-82844461D01*
X128294223Y-82847977D01*
X128294235Y-82847980D01*
X128294238Y-82847981D01*
X128314888Y-82853077D01*
X128349988Y-82861740D01*
X128487867Y-82860647D01*
X128588831Y-82830128D01*
X128619849Y-82820752D01*
X128619849Y-82820751D01*
X128619852Y-82820751D01*
X128735253Y-82745289D01*
X128824717Y-82640370D01*
X128850020Y-82588805D01*
X129035301Y-82079747D01*
X129049064Y-82023982D01*
X129047971Y-81886103D01*
X129047971Y-81886102D01*
X129008076Y-81754120D01*
X128987812Y-81723130D01*
X128932613Y-81638717D01*
X128932610Y-81638714D01*
X128932608Y-81638712D01*
X128827698Y-81549255D01*
X128776127Y-81523948D01*
X128766476Y-81520436D01*
X128718262Y-81482765D01*
X128701398Y-81423950D01*
X128722326Y-81366455D01*
X128771697Y-81332641D01*
X128773920Y-81331968D01*
X128782621Y-81329339D01*
X128787729Y-81325999D01*
X128867153Y-81274060D01*
X128904037Y-81249940D01*
X128998167Y-81139552D01*
X129024788Y-81085298D01*
X129399815Y-80054917D01*
X129414297Y-79996243D01*
X129413146Y-79851176D01*
X129371172Y-79712308D01*
X129371170Y-79712306D01*
X129371169Y-79712302D01*
X129291774Y-79590893D01*
X129291771Y-79590890D01*
X129234772Y-79542286D01*
X129181385Y-79496762D01*
X129181383Y-79496761D01*
X129181382Y-79496760D01*
X129127184Y-79470167D01*
X129083272Y-79427560D01*
X129072790Y-79367279D01*
X129076456Y-79351270D01*
X129293126Y-78670636D01*
X129303465Y-78638157D01*
X129304387Y-78635409D01*
X129456477Y-78204082D01*
X129458659Y-78198453D01*
X129636394Y-77778792D01*
X129638928Y-77773288D01*
X129842174Y-77365361D01*
X129845038Y-77360030D01*
X130073016Y-76965399D01*
X130076224Y-76960223D01*
X130095861Y-76930607D01*
X130328695Y-76579436D01*
X130330411Y-76576934D01*
X130342328Y-76560110D01*
X130664147Y-76105778D01*
X130665716Y-76103625D01*
X130913425Y-75773754D01*
X130916847Y-75769453D01*
X131181585Y-75454938D01*
X131185210Y-75450866D01*
X131467028Y-75151529D01*
X131470908Y-75147634D01*
X131768892Y-74864445D01*
X131772966Y-74860782D01*
X132087390Y-74593593D01*
X132089513Y-74591841D01*
X132092446Y-74589487D01*
X132116922Y-74569832D01*
X132116924Y-74569830D01*
X132125034Y-74563318D01*
X132140129Y-74551197D01*
X132140129Y-74551196D01*
X132157675Y-74537107D01*
X132157678Y-74537102D01*
X132848424Y-73982433D01*
X132905634Y-73960742D01*
X132964669Y-73976821D01*
X132979012Y-73988250D01*
X133007308Y-74015446D01*
X133092050Y-74063479D01*
X133133516Y-74086982D01*
X133133517Y-74086982D01*
X133133522Y-74086984D01*
X133208099Y-74104451D01*
X133274765Y-74120066D01*
X133419614Y-74112013D01*
X133556327Y-74063479D01*
X133606508Y-74029804D01*
X134446482Y-73324981D01*
X134488361Y-73281409D01*
X134559897Y-73155201D01*
X134561016Y-73150426D01*
X134571708Y-73104777D01*
X134592981Y-73013952D01*
X134592347Y-73002552D01*
X134607994Y-72943403D01*
X134655421Y-72904746D01*
X134716512Y-72901349D01*
X134767033Y-72933422D01*
X134773636Y-72941292D01*
X134815042Y-72981087D01*
X134815044Y-72981088D01*
X134815046Y-72981090D01*
X134935000Y-73049083D01*
X135069250Y-73080525D01*
X135206921Y-73072873D01*
X135336859Y-73026743D01*
X135384554Y-72994737D01*
X135799542Y-72646521D01*
X135839343Y-72605109D01*
X135907336Y-72485155D01*
X135938778Y-72350905D01*
X135931126Y-72213234D01*
X135884996Y-72083296D01*
X135852990Y-72035601D01*
X135846386Y-72027731D01*
X135823467Y-71971001D01*
X135838270Y-71911634D01*
X135885140Y-71872305D01*
X135944803Y-71867705D01*
X135955921Y-71870309D01*
X136100770Y-71862256D01*
X136170585Y-71837470D01*
X136231746Y-71835820D01*
X136282198Y-71870436D01*
X136285312Y-71874721D01*
X137430229Y-73542219D01*
X137831024Y-74125951D01*
X137848375Y-74184625D01*
X137827924Y-74242291D01*
X137813046Y-74257826D01*
X137475968Y-74540669D01*
X137475964Y-74540673D01*
X137428592Y-74599695D01*
X137428588Y-74599701D01*
X137400260Y-74696893D01*
X137400260Y-74696897D01*
X137411282Y-74797546D01*
X137447685Y-74863900D01*
X137447685Y-74863901D01*
X138044425Y-75575066D01*
X138636930Y-76281185D01*
X138695958Y-76328562D01*
X138695959Y-76328562D01*
X138695962Y-76328564D01*
X138793156Y-76356892D01*
X138793156Y-76356891D01*
X138793160Y-76356893D01*
X138893805Y-76345871D01*
X138960163Y-76309466D01*
X139141341Y-76157438D01*
X139198069Y-76134518D01*
X139257437Y-76149320D01*
X139284884Y-76174834D01*
X140327446Y-77600395D01*
X140754326Y-78184096D01*
X140773416Y-78242227D01*
X140770808Y-78265112D01*
X140756665Y-78325500D01*
X140744652Y-78376796D01*
X140736714Y-78410688D01*
X140744665Y-78553738D01*
X140744667Y-78553745D01*
X140792598Y-78688758D01*
X140825853Y-78738315D01*
X140825862Y-78738328D01*
X141473669Y-79510352D01*
X141473671Y-79510354D01*
X141516698Y-79551708D01*
X141629970Y-79615914D01*
X141641343Y-79622360D01*
X141780844Y-79655033D01*
X141923898Y-79647080D01*
X142058917Y-79599147D01*
X142108476Y-79565891D01*
X142554939Y-79191262D01*
X142596297Y-79148231D01*
X142666948Y-79023588D01*
X142699620Y-78884087D01*
X142691668Y-78741032D01*
X142643735Y-78606014D01*
X142610478Y-78556455D01*
X142610477Y-78556454D01*
X142610471Y-78556445D01*
X141962664Y-77784421D01*
X141962662Y-77784419D01*
X141919635Y-77743065D01*
X141794994Y-77672415D01*
X141794991Y-77672414D01*
X141776798Y-77668153D01*
X141655490Y-77639741D01*
X141655488Y-77639741D01*
X141655484Y-77639740D01*
X141648438Y-77639124D01*
X141648718Y-77635914D01*
X141602691Y-77623729D01*
X141576452Y-77598981D01*
X141543573Y-77554024D01*
X140586970Y-76245999D01*
X146394393Y-76245999D01*
X146394393Y-76246000D01*
X146665999Y-76246000D01*
X146666000Y-76245999D01*
X146666000Y-75949143D01*
X146656732Y-75950612D01*
X146545526Y-76007274D01*
X146457274Y-76095526D01*
X146400613Y-76206729D01*
X146394393Y-76245999D01*
X140586970Y-76245999D01*
X140195063Y-75710120D01*
X140051740Y-75514145D01*
X140032650Y-75456014D01*
X140051376Y-75397764D01*
X140068006Y-75379872D01*
X140377446Y-75120223D01*
X140424823Y-75061195D01*
X140424824Y-75061191D01*
X140424825Y-75061190D01*
X140453153Y-74963998D01*
X140453153Y-74963996D01*
X140453154Y-74963993D01*
X140442132Y-74863348D01*
X140442131Y-74863346D01*
X140442131Y-74863345D01*
X140405728Y-74796991D01*
X140405728Y-74796990D01*
X139904788Y-74199995D01*
X141740726Y-74199995D01*
X141740726Y-74200004D01*
X141759761Y-74368948D01*
X141759764Y-74368960D01*
X141815918Y-74529437D01*
X141815918Y-74529438D01*
X141868351Y-74612884D01*
X141906376Y-74673400D01*
X142026600Y-74793624D01*
X142026602Y-74793625D01*
X142026603Y-74793626D01*
X142167209Y-74881975D01*
X142170563Y-74884082D01*
X142226974Y-74903821D01*
X142331039Y-74940235D01*
X142331043Y-74940236D01*
X142331046Y-74940237D01*
X142331047Y-74940237D01*
X142331051Y-74940238D01*
X142499996Y-74959274D01*
X142500000Y-74959274D01*
X142500004Y-74959274D01*
X142668948Y-74940238D01*
X142668950Y-74940237D01*
X142668954Y-74940237D01*
X142829437Y-74884082D01*
X142973400Y-74793624D01*
X143093624Y-74673400D01*
X143184082Y-74529437D01*
X143238803Y-74373052D01*
X143240235Y-74368960D01*
X143240238Y-74368948D01*
X143259274Y-74200004D01*
X143259274Y-74199995D01*
X143240238Y-74031051D01*
X143240235Y-74031039D01*
X143210780Y-73946862D01*
X143184082Y-73870563D01*
X143174713Y-73855653D01*
X143093626Y-73726603D01*
X143093625Y-73726602D01*
X143093624Y-73726600D01*
X142973400Y-73606376D01*
X142973397Y-73606374D01*
X142973396Y-73606373D01*
X142829438Y-73515918D01*
X142668960Y-73459764D01*
X142668948Y-73459761D01*
X142500004Y-73440726D01*
X142499996Y-73440726D01*
X142331051Y-73459761D01*
X142331039Y-73459764D01*
X142170562Y-73515918D01*
X142170561Y-73515918D01*
X142026603Y-73606373D01*
X141906373Y-73726603D01*
X141815918Y-73870561D01*
X141815918Y-73870562D01*
X141759764Y-74031039D01*
X141759761Y-74031051D01*
X141740726Y-74199995D01*
X139904788Y-74199995D01*
X139742338Y-74006395D01*
X139216484Y-73379707D01*
X139157456Y-73332330D01*
X139157455Y-73332329D01*
X139157451Y-73332327D01*
X139060257Y-73303999D01*
X139060254Y-73303999D01*
X139009931Y-73309510D01*
X138959606Y-73315021D01*
X138893255Y-73351422D01*
X138741979Y-73478358D01*
X138685249Y-73501278D01*
X138625881Y-73486476D01*
X138596729Y-73458556D01*
X137072353Y-71238402D01*
X137055002Y-71179728D01*
X137075453Y-71122062D01*
X137090327Y-71106530D01*
X137127638Y-71075224D01*
X137156362Y-71045338D01*
X137169514Y-71031656D01*
X137169515Y-71031653D01*
X137169517Y-71031652D01*
X137241053Y-70905444D01*
X137246118Y-70883822D01*
X137274137Y-70764196D01*
X137266084Y-70619346D01*
X137217550Y-70482633D01*
X137217547Y-70482629D01*
X137217546Y-70482626D01*
X137201027Y-70458011D01*
X137183875Y-70432452D01*
X137117110Y-70352885D01*
X136553255Y-69680910D01*
X136479052Y-69592478D01*
X136435480Y-69550599D01*
X136435479Y-69550598D01*
X136309273Y-69479063D01*
X136309265Y-69479060D01*
X136168023Y-69445978D01*
X136157531Y-69446562D01*
X136098380Y-69430913D01*
X136059725Y-69383485D01*
X136056330Y-69322394D01*
X136089491Y-69270975D01*
X136097393Y-69265162D01*
X136444665Y-69035349D01*
X136473237Y-69016441D01*
X136527872Y-69000000D01*
X136637997Y-69000000D01*
X136696188Y-69018907D01*
G37*
G04 #@! TD.AperFunction*
M02*
