M48
; DRILL file {KiCad 8.0.8} date 2025-01-26T21:40:03-0600
; FORMAT={-:-/ absolute / inch / decimal}
; #@! TF.CreationDate,2025-01-26T21:40:03-06:00
; #@! TF.GenerationSoftware,Kicad,Pcbnew,8.0.8
; #@! TF.FileFunction,Plated,1,4,PTH
FMAT,2
INCH
; #@! TA.AperFunction,Plated,PTH,ViaDrill
T1C0.0157
; #@! TA.AperFunction,Plated,PTH,ViaDrill
T2C0.0197
; #@! TA.AperFunction,Plated,PTH,ComponentDrill
T3C0.0197
; #@! TA.AperFunction,Plated,PTH,ComponentDrill
T4C0.0236
; #@! TA.AperFunction,Plated,PTH,ComponentDrill
T5C0.0354
; #@! TA.AperFunction,Plated,PTH,ComponentDrill
T6C0.0394
; #@! TA.AperFunction,Plated,PTH,ComponentDrill
T7C0.0984
%
G90
G05
T1
X5.0315Y-3.3701
X5.4488Y-4.3346
X5.4921Y-3.3504
X5.4921Y-3.4744
X5.5709Y-2.8819
X5.5906Y-3.8622
X5.6083Y-3.2953
X5.6339Y-3.0866
X5.7008Y-3.1024
X5.7362Y-2.9646
X5.7559Y-3.626
X5.7717Y-4.0118
X5.7795Y-2.9764
X5.8031Y-3.7756
X5.8071Y-3.5236
X5.815Y-3.1949
X5.8465Y-3.4646
X5.8465Y-3.5039
X5.8465Y-4.1299
X5.8482Y-3.646
X5.8543Y-3.1772
X5.878Y-3.7205
X5.9331Y-3.6496
X5.9528Y-3.5906
X5.9646Y-4.1299
X5.9843Y-3.2717
X5.9843Y-4.0591
X6.0Y-3.5906
X6.0433Y-3.1496
X6.0787Y-3.193
X6.0906Y-3.1575
X6.1018Y-3.118
X6.1496Y-3.3898
X6.1811Y-2.9016
X6.1811Y-3.4331
X6.2036Y-3.1658
X6.2224Y-3.0276
X6.2224Y-3.4055
X6.2795Y-2.9724
X6.2795Y-3.0276
X6.2795Y-3.2598
X6.2795Y-3.311
X6.311Y-3.6654
X6.4291Y-2.878
X6.5Y-3.25
X6.7165Y-3.7835
T2
X5.0394Y-3.315
X5.3425Y-3.4134
X5.4055Y-4.2953
X5.4685Y-3.3937
X5.4685Y-3.5472
X5.5157Y-3.2441
X5.5748Y-4.0512
X5.6102Y-2.9213
X5.6317Y-3.0394
X5.6457Y-3.8819
X5.8465Y-3.6024
X6.3346Y-3.2913
X6.3696Y-3.624
X6.3696Y-3.7067
X6.3982Y-3.1589
X6.4414Y-3.25
X6.4449Y-2.8268
X6.4764Y-3.6811
X6.7717Y-3.7717
T3
X5.1427Y-3.0709
X5.1427Y-4.0157
X5.1643Y-3.0187
X5.1643Y-3.1231
X5.1643Y-3.9636
X5.1643Y-4.0679
X5.2165Y-2.997
X5.2165Y-3.1447
X5.2165Y-3.9419
X5.2165Y-4.0896
X5.2687Y-3.0187
X5.2687Y-3.1231
X5.2687Y-3.9636
X5.2687Y-4.0679
X5.2904Y-3.0709
X5.2904Y-4.0157
X6.5207Y-3.0709
X6.5207Y-4.0157
X6.5423Y-3.0187
X6.5423Y-3.1231
X6.5423Y-3.9636
X6.5423Y-4.0679
X6.5945Y-2.997
X6.5945Y-3.1447
X6.5945Y-3.9419
X6.5945Y-4.0896
X6.6467Y-3.0187
X6.6467Y-3.1231
X6.6467Y-3.9636
X6.6467Y-4.0679
X6.6683Y-3.0709
X6.6683Y-4.0157
T5
X5.1954Y-3.7481
X5.1956Y-3.3381
X5.2296Y-3.8421
X5.2298Y-3.2442
X5.3926Y-4.078
X5.393Y-3.0104
X5.4693Y-4.1422
X5.4696Y-2.9461
X6.3398Y-2.9483
X6.3415Y-4.1405
X6.4164Y-3.0126
X6.4181Y-4.0763
X6.5794Y-3.2445
X6.5813Y-3.8424
X6.6136Y-3.3385
X6.6155Y-3.7485
T6
X5.1171Y-3.4936
X5.1171Y-3.5936
X5.5594Y-3.3421
X5.5594Y-3.4421
X5.5594Y-3.5421
X5.5594Y-3.6421
X5.5594Y-3.7421
X5.6594Y-3.3421
X5.6594Y-3.4421
X5.6594Y-3.5421
X5.6594Y-3.6421
X5.6594Y-3.7421
X5.8055Y-3.8895
X5.9055Y-3.8895
X6.0055Y-3.8895
T7
X5.2165Y-3.0709
X5.2165Y-4.0157
X6.5945Y-3.0709
X6.5945Y-4.0157
T4
G00X5.7354Y-4.1976
M15
G01X5.7354Y-4.2409
M16
G05
G00X5.7354Y-4.372
M15
G01X5.7354Y-4.3957
M16
G05
G00X6.0756Y-4.1976
M15
G01X6.0756Y-4.2409
M16
G05
G00X6.0756Y-4.372
M15
G01X6.0756Y-4.3957
M16
G05
M30
